<svg xmlns="http://www.w3.org/2000/svg" xmlns:xlink="http://www.w3.org/1999/xlink" viewBox="0 0 359 1245"><defs><style>.a{opacity:0.6;}.b,.g,.j,.m,.o,.p,.q{stroke:#00b3ef;}.b,.e,.g,.h,.j,.m,.o,.r{stroke-miterlimit:10;}.b,.d,.m{opacity:0.7;}.b,.e{fill:url(#a);}.c{fill:#fff;}.e{stroke:rgba(0,179,239,0.5);}.f{opacity:0.8;}.g{fill:url(#e);}.h,.n,.r{fill:none;stroke:#fff;stroke-width:2px;}.i{opacity:0.3;}.j,.k{opacity:0.5;}.j,.o{fill:url(#i);}.l{opacity:0.9;}.m{fill:url(#q);}.n,.r{stroke-linecap:round;}.p{fill:url(#t);}.q{fill:url(#u);}</style><radialGradient id="a" cx="0.5" cy="0.5" r="0.607" gradientTransform="matrix(0.576, 0, 0, 0.576, 0.212, 0.212)" gradientUnits="objectBoundingBox"><stop offset="0" stop-color="#004dc9" stop-opacity="0"/><stop offset="1" stop-color="#00bfff"/></radialGradient><radialGradient id="e" cx="0.5" cy="0.5" r="0.607" gradientTransform="matrix(0.576, 0, 0, 0.576, 0.212, 0.212)" gradientUnits="objectBoundingBox"><stop offset="0" stop-color="#004dc9" stop-opacity="0"/><stop offset="1" stop-color="#00bfff" stop-opacity="0.6"/></radialGradient><linearGradient id="i" x1="0.528" y1="0.301" x2="0.747" y2="0.761" gradientUnits="objectBoundingBox"><stop offset="0" stop-color="#004dc9" stop-opacity="0"/><stop offset="1" stop-color="#00b3ef" stop-opacity="0.502"/></linearGradient><radialGradient id="q" r="0.606" gradientTransform="matrix(0.577, 0, 0, 0.577, 0.212, 0.212)" xlink:href="#a"/><linearGradient id="t" x1="1" y1="0.5" x2="0" y2="0.429" gradientUnits="objectBoundingBox"><stop offset="0" stop-color="#004dc9" stop-opacity="0"/><stop offset="1" stop-color="#00b3ef" stop-opacity="0.4"/></linearGradient><linearGradient id="u" x1="1" y1="0.581" x2="0" y2="0.631" gradientUnits="objectBoundingBox"><stop offset="0" stop-color="#004dc9" stop-opacity="0.502"/><stop offset="1" stop-color="#00b3ef" stop-opacity="0.4"/></linearGradient></defs><g transform="translate(-1281 -1270)"><g class="a" transform="translate(1003 613)"><path class="b" d="M107.2,163.871,1,102.6,177.8.6,284.432,62.119Z" transform="translate(315.4 1313.9)"/><circle class="c" cx="2" cy="2" r="2" transform="translate(420 1476)"/><circle class="c" cx="2" cy="2" r="2" transform="translate(491 1311)"/><circle class="c" cx="2" cy="2" r="2" transform="translate(313 1415)"/><circle class="c" cx="2" cy="2" r="2" transform="translate(598 1375)"/></g><g class="a" transform="translate(1003 744)"><path class="b" d="M107.2,163.871,1,102.6,177.8.6,284.432,62.119Z" transform="translate(315.4 1313.9)"/><circle class="c" cx="2" cy="2" r="2" transform="translate(420 1476)"/><circle class="c" cx="2" cy="2" r="2" transform="translate(491 1311)"/><circle class="c" cx="2" cy="2" r="2" transform="translate(313 1415)"/><circle class="c" cx="2" cy="2" r="2" transform="translate(598 1375)"/></g><g class="d" transform="translate(1003 602)"><path class="e" d="M107.2,163.871,1,102.6,177.8.6,284.432,62.119Z" transform="translate(315.4 1313.9)"/><circle class="c" cx="2" cy="2" r="2" transform="translate(420 1476)"/><circle class="c" cx="2" cy="2" r="2" transform="translate(491 1311)"/><circle class="c" cx="2" cy="2" r="2" transform="translate(313 1415)"/><circle class="c" cx="2" cy="2" r="2" transform="translate(598 1375)"/></g><g class="d" transform="translate(1003 733)"><path class="e" d="M107.2,163.871,1,102.6,177.8.6,284.432,62.119Z" transform="translate(315.4 1313.9)"/><circle class="c" cx="2" cy="2" r="2" transform="translate(420 1476)"/><circle class="c" cx="2" cy="2" r="2" transform="translate(491 1311)"/><circle class="c" cx="2" cy="2" r="2" transform="translate(313 1415)"/><circle class="c" cx="2" cy="2" r="2" transform="translate(598 1375)"/></g><g class="f" transform="translate(1003 590)"><path class="g" d="M107.2,163.871,1,102.6,177.8.6,284.432,62.119Z" transform="translate(315.4 1313.9)"/><circle class="c" cx="2" cy="2" r="2" transform="translate(420 1476)"/><circle class="c" cx="2" cy="2" r="2" transform="translate(491 1311)"/><circle class="c" cx="2" cy="2" r="2" transform="translate(313 1415)"/><circle class="c" cx="2" cy="2" r="2" transform="translate(598 1375)"/></g><g class="f" transform="translate(1003 721)"><path class="g" d="M107.2,163.871,1,102.6,177.8.6,284.432,62.119Z" transform="translate(315.4 1313.9)"/><circle class="c" cx="2" cy="2" r="2" transform="translate(420 1476)"/><circle class="c" cx="2" cy="2" r="2" transform="translate(491 1311)"/><circle class="c" cx="2" cy="2" r="2" transform="translate(313 1415)"/><circle class="c" cx="2" cy="2" r="2" transform="translate(598 1375)"/></g><g transform="translate(1003 578)"><path class="b" d="M107.2,163.871,1,102.6,177.8.6,284.432,62.119Z" transform="translate(315.4 1313.9)"/><circle class="c" cx="2" cy="2" r="2" transform="translate(420 1476)"/><circle class="c" cx="2" cy="2" r="2" transform="translate(491 1311)"/><circle class="c" cx="2" cy="2" r="2" transform="translate(313 1415)"/><circle class="c" cx="2" cy="2" r="2" transform="translate(598 1375)"/><g transform="translate(371.1 1337.404)"><path class="h" d="M4.869,79.639C9.874,73.6,8.321,65.833.9,59.1L100.993.6c11.735,4.142,25.368,5,35.723,1.9l46.077,26.059c-5,6.04-3.451,13.806,3.969,20.536L86.67,107.6c-11.735-4.314-25.368-5-35.723-2.071Z" transform="translate(0 0)"/><path class="h" d="M94.325,54.176c11.39-6.558,8.974-18.638-5.177-26.576S54.115,18.281,42.9,25.011s-8.974,18.638,5.177,26.576S82.935,60.734,94.325,54.176Z" transform="translate(25.307 14.591)"/><line class="h" y1="14.324" x2="24.506" transform="translate(125.671 21.136)"/><line class="h" y1="14.324" x2="24.333" transform="translate(37.141 72.909)"/></g></g><g transform="translate(1003 709)"><path class="b" d="M107.2,163.871,1,102.6,177.8.6,284.432,62.119Z" transform="translate(315.4 1313.9)"/><circle class="c" cx="2" cy="2" r="2" transform="translate(420 1476)"/><circle class="c" cx="2" cy="2" r="2" transform="translate(491 1311)"/><circle class="c" cx="2" cy="2" r="2" transform="translate(313 1415)"/><circle class="c" cx="2" cy="2" r="2" transform="translate(598 1375)"/><g transform="translate(371.1 1337.404)"><path class="h" d="M4.869,79.639C9.874,73.6,8.321,65.833.9,59.1L100.993.6c11.735,4.142,25.368,5,35.723,1.9l46.077,26.059c-5,6.04-3.451,13.806,3.969,20.536L86.67,107.6c-11.735-4.314-25.368-5-35.723-2.071Z" transform="translate(0 0)"/><path class="h" d="M94.325,54.176c11.39-6.558,8.974-18.638-5.177-26.576S54.115,18.281,42.9,25.011s-8.974,18.638,5.177,26.576S82.935,60.734,94.325,54.176Z" transform="translate(25.307 14.591)"/><line class="h" y1="14.324" x2="24.506" transform="translate(125.671 21.136)"/><line class="h" y1="14.324" x2="24.333" transform="translate(37.141 72.909)"/></g></g><g class="i" transform="translate(968 993)"><path class="j" d="M177.8,204.6,1,102.6,177.8.6l176.8,102Z" transform="translate(315.4 1313.9)"/><circle class="c" cx="2" cy="2" r="2" transform="translate(491 1518)"/><circle class="c" cx="2" cy="2" r="2" transform="translate(491 1311)"/><circle class="c" cx="2" cy="2" r="2" transform="translate(313 1415)"/><circle class="c" cx="2" cy="2" r="2" transform="translate(668 1415)"/></g><g class="i" transform="translate(968 -12)"><path class="j" d="M177.8,204.6,1,102.6,177.8.6l176.8,102Z" transform="translate(315.4 1313.9)"/><circle class="c" cx="2" cy="2" r="2" transform="translate(491 1518)"/><circle class="c" cx="2" cy="2" r="2" transform="translate(491 1311)"/><circle class="c" cx="2" cy="2" r="2" transform="translate(313 1415)"/><circle class="c" cx="2" cy="2" r="2" transform="translate(668 1415)"/></g><g class="k" transform="translate(968 979)"><path class="j" d="M177.8,204.6,1,102.6,177.8.6l176.8,102Z" transform="translate(315.4 1313.9)"/><circle class="c" cx="2" cy="2" r="2" transform="translate(491 1518)"/><circle class="c" cx="2" cy="2" r="2" transform="translate(491 1311)"/><circle class="c" cx="2" cy="2" r="2" transform="translate(313 1415)"/><circle class="c" cx="2" cy="2" r="2" transform="translate(668 1415)"/></g><g class="k" transform="translate(968 -19)"><path class="j" d="M177.8,204.6,1,102.6,177.8.6l176.8,102Z" transform="translate(315.4 1313.9)"/><circle class="c" cx="2" cy="2" r="2" transform="translate(491 1518)"/><circle class="c" cx="2" cy="2" r="2" transform="translate(491 1311)"/><circle class="c" cx="2" cy="2" r="2" transform="translate(313 1415)"/><circle class="c" cx="2" cy="2" r="2" transform="translate(668 1415)"/></g><g class="d" transform="translate(968 965)"><path class="j" d="M177.8,204.6,1,102.6,177.8.6l176.8,102Z" transform="translate(315.4 1313.9)"/><circle class="c" cx="2" cy="2" r="2" transform="translate(491 1518)"/><circle class="c" cx="2" cy="2" r="2" transform="translate(491 1311)"/><circle class="c" cx="2" cy="2" r="2" transform="translate(313 1415)"/><circle class="c" cx="2" cy="2" r="2" transform="translate(668 1415)"/></g><g class="d" transform="translate(968 -26)"><path class="j" d="M177.8,204.6,1,102.6,177.8.6l176.8,102Z" transform="translate(315.4 1313.9)"/><circle class="c" cx="2" cy="2" r="2" transform="translate(491 1518)"/><circle class="c" cx="2" cy="2" r="2" transform="translate(491 1311)"/><circle class="c" cx="2" cy="2" r="2" transform="translate(313 1415)"/><circle class="c" cx="2" cy="2" r="2" transform="translate(668 1415)"/></g><g class="l" transform="translate(968 951)"><path class="j" d="M177.8,204.6,1,102.6,177.8.6l176.8,102Z" transform="translate(315.4 1313.9)"/><circle class="c" cx="2" cy="2" r="2" transform="translate(491 1518)"/><circle class="c" cx="2" cy="2" r="2" transform="translate(491 1311)"/><circle class="c" cx="2" cy="2" r="2" transform="translate(313 1415)"/><circle class="c" cx="2" cy="2" r="2" transform="translate(668 1415)"/></g><g class="l" transform="translate(968 -34)"><path class="j" d="M177.8,204.6,1,102.6,177.8.6l176.8,102Z" transform="translate(315.4 1313.9)"/><circle class="c" cx="2" cy="2" r="2" transform="translate(491 1518)"/><circle class="c" cx="2" cy="2" r="2" transform="translate(491 1311)"/><circle class="c" cx="2" cy="2" r="2" transform="translate(313 1415)"/><circle class="c" cx="2" cy="2" r="2" transform="translate(668 1415)"/></g><g transform="translate(968 937)"><path class="m" d="M177.8,204.6,1,102.6,177.8.6l176.8,102L253.308,161.038Z" transform="translate(315.4 1313.9)"/><circle class="c" cx="2" cy="2" r="2" transform="translate(491 1518)"/><circle class="c" cx="2" cy="2" r="2" transform="translate(491 1311)"/><circle class="c" cx="2" cy="2" r="2" transform="translate(313 1415)"/><circle class="c" cx="2" cy="2" r="2" transform="translate(668 1415)"/></g><g transform="translate(968 -41)"><path class="m" d="M177.8,204.6,1,102.6,177.8.6l176.8,102L253.308,161.038Z" transform="translate(315.4 1313.9)"/><circle class="c" cx="2" cy="2" r="2" transform="translate(491 1518)"/><circle class="c" cx="2" cy="2" r="2" transform="translate(491 1311)"/><circle class="c" cx="2" cy="2" r="2" transform="translate(313 1415)"/><circle class="c" cx="2" cy="2" r="2" transform="translate(668 1415)"/></g><g transform="translate(94.869 34.729)"><path class="n" d="M1283.962,1286.424l75.048-43.268" transform="translate(28 64.475)"/><path class="n" d="M1283.962,1286.424l75.048-43.268" transform="translate(69.767 88.571)"/><path class="n" d="M1283.962,1286.424l75.048-43.268" transform="translate(48.883 76.523)"/><path class="n" d="M1283.962,1260.022l29.253-16.866" transform="translate(136.445 100.619)"/></g><g transform="translate(968 276)"><g transform="translate(0 28)"><path class="o" d="M177.8,204.6,1,102.6,177.8.6l176.8,102Z" transform="translate(315.4 1313.9)"/><circle class="c" cx="2" cy="2" r="2" transform="translate(491 1518)"/><circle class="c" cx="2" cy="2" r="2" transform="translate(491 1311)"/><circle class="c" cx="2" cy="2" r="2" transform="translate(313 1415)"/><circle class="c" cx="2" cy="2" r="2" transform="translate(668 1415)"/></g><path class="p" d="M2314.759,4180.832l-.222,26.569,176.507,101.965-.183-26.922Z" transform="translate(-1998 -2763)"/><path class="q" d="M2666.012,4180.832v27.187l-176.117,101.272v-27.053Z" transform="translate(-1997 -2763)"/><path class="m" d="M177.8,204.6,1,102.6,177.8.6l176.8,102L253.308,161.038Z" transform="translate(315.4 1314.9)"/><circle class="c" cx="2" cy="2" r="2" transform="translate(491 1518)"/><circle class="c" cx="2" cy="2" r="2" transform="translate(491 1311)"/><circle class="c" cx="2" cy="2" r="2" transform="translate(313 1415)"/><circle class="c" cx="2" cy="2" r="2" transform="translate(668 1415)"/></g><g transform="translate(1338.182 1622.102)"><g transform="translate(92.05 53.046)"><path class="r" d="M107.356,53.619,92.567,62.1,60.321,43.436,75.11,34.95Z" transform="translate(-60.321 -34.95)"/></g><line class="r" y1="45.823" x2="79.039" transform="translate(123.084 16.679)"/><line class="r" y1="46.308" x2="80.009" transform="translate(28.285 70.988)"/></g><g transform="translate(1320.238 1602.036)"><g transform="translate(1 0.6)"><path class="r" d="M80.664,22.932s-16.166-9.5-16.333-9.5L23.5,37.1l16.166,9.333.167.167" transform="translate(-1 -0.6)"/></g></g><g transform="translate(1385.078 2312.682)"><g transform="translate(61.12 0.4)"><path class="r" d="M59.964.4l18.3,17.2L55.8,30.531" transform="translate(-55.8 -0.4)"/></g><g transform="translate(67.147 11.905)"><path class="r" d="M104.47,54.289,61.3,29.2,92.856,10.9l43.17,25.2" transform="translate(-61.3 -10.9)"/></g><g transform="translate(0.2 43.461)"><path class="r" d="M41.3,52.7,71.651,70.341" transform="translate(3.733 -38.456)"/><path class="r" d="M71.858,41.234a5.466,5.466,0,0,0-4.711-.11l-5.259,3.068L43.261,54.93.2,39.7" transform="translate(-0.2 -39.7)"/><path class="r" d="M91.051,59.15,60.7,41.4" transform="translate(5.589 -39.537)"/></g><line class="r" x1="48.429" y2="27.94" transform="translate(58.71 7.084)"/></g><g transform="translate(1389.498 1330.467)"><path class="r" d="M4.9,3.4C10.3.2,18.6-.4,23.4,2l3.4,1.7c4.8,2.4,4.3,6.9-1.1,10.1S12,17.6,7.2,15.2L3.8,13.5C-1,11.1-.5,6.5,4.9,3.4Z"/><path class="r" d="M33.2,8.1C40,6.9,47,7.5,51.9,9.9l3.8,1.9"/><path class="r" d="M23.3,30.9,19.5,29c-4.9-2.4-6.4-6.2-4.8-9.9"/></g><g transform="translate(1512.179 1319.069)"><path class="h" d="M55.016,3.643c-2.444.376-4.513,1.128-5.641,2.444a3.711,3.711,0,0,0-.564,4.325L67.427,44.635c.188.188.188.376.564.564l12.6,9.026a3.654,3.654,0,0,0,2.444.564,1.436,1.436,0,0,0,.94-.376c.376-.188.564-.376.564-.752l1.692-10.718a.691.691,0,0,0-.188-.564L67.615,8.344C65.923,5.148,60.282,3.079,55.016,3.643Zm12.6,41.368,18.8-2.256M68.931,10.977,50.316,13.045" transform="translate(-48.36 -3.551)"/></g></g></svg>