<?xml version="1.0" standalone="no"?>
<!DOCTYPE svg PUBLIC "-//W3C//DTD SVG 20010904//EN"
 "http://www.w3.org/TR/2001/REC-SVG-20010904/DTD/svg10.dtd">
<svg version="1.0" xmlns="http://www.w3.org/2000/svg"
 width="700.000000pt" height="700.000000pt" viewBox="0 0 700.000000 700.000000"
 preserveAspectRatio="xMidYMid meet">
<metadata>
Created by potrace 1.11, written by Peter Selinger 2001-2013
</metadata>
<g transform="translate(0.000000,700.000000) scale(0.100000,-0.100000)"
fill="#000000" stroke="none">
<path d="M3458 6407 c-24 -11 -50 -26 -58 -32 -8 -7 -44 -28 -80 -47 -92 -50
-453 -256 -465 -265 -6 -4 -28 -18 -50 -30 -22 -11 -58 -31 -80 -44 -104 -59
-141 -80 -155 -89 -15 -10 -310 -178 -390 -222 -46 -26 -143 -82 -170 -98 -76
-47 -450 -257 -453 -254 -8 8 -77 -65 -78 -82 -5 -134 -2 -4664 4 -4664 7 0
111 57 182 99 44 27 255 151 290 171 17 9 77 45 133 79 57 33 108 61 113 61 5
0 9 3 9 8 0 4 10 12 23 18 49 24 112 59 117 65 3 3 39 25 80 49 71 41 208 121
240 140 84 51 154 90 161 90 5 0 9 5 9 10 0 6 4 10 9 10 17 0 119 65 130 83 8
13 11 344 10 1185 -1 1646 -1 1741 6 1752 8 13 57 44 140 90 33 18 122 68 198
112 75 43 150 81 165 84 23 5 61 -14 208 -99 178 -104 203 -118 279 -160 l40
-22 0 -1168 c0 -705 4 -1167 9 -1167 5 0 17 6 25 13 9 8 63 41 121 74 58 33
241 139 406 237 166 97 307 176 313 176 6 0 11 3 11 8 0 4 17 16 37 27 21 11
66 37 100 57 35 21 67 38 73 38 5 0 10 5 10 10 0 6 4 10 9 10 7 0 227 125 281
160 8 6 26 16 40 22 36 18 50 34 58 65 4 16 7 536 6 1157 l-1 1130 -39 33
c-21 18 -48 36 -59 39 -11 4 -31 15 -45 24 -14 10 -53 33 -85 51 -33 17 -67
37 -75 43 -8 6 -24 16 -35 22 -11 6 -62 35 -113 65 -51 30 -117 68 -147 84
-30 17 -60 36 -67 43 -7 7 -16 12 -21 12 -4 0 -47 23 -95 51 -48 29 -101 60
-117 69 -17 9 -87 50 -155 90 -69 40 -138 80 -155 90 -78 45 -512 297 -535
310 -140 84 -246 142 -267 146 -6 1 -31 -7 -55 -19z"/>
</g>
</svg>
