<svg xmlns="http://www.w3.org/2000/svg" viewBox="0 0 644.581 496.582"><defs><style>.a,.b,.c{fill:none;}.a{stroke:#00b3ef;}.a,.b{stroke-miterlimit:10;}.b,.c{stroke:#00b3ef;}.d{fill:#6bbdff;}.e{fill:#fc8a23;}</style></defs><g transform="translate(-1180.879 -251.148)"><g transform="translate(1183.982 253.581)"><path class="a" d="M45.181,21.007.5,116.583V490.637l266.906-15s13.179,14.358,51.753,14.894h0v.107c36-.536,51.753-14.894,51.753-14.894l266.906,15V87.439L592.065,21.007m0,0V431.813s-206.9-53.253-273.442,29.894V103.189C318.623,85.724,303.837-47.89,592.065,21.007ZM318.516,103.189V461.707c-66.539-83.04-273.442-29.894-273.442-29.894h0V21.007C333.3-47.89,318.516,85.724,318.516,103.189Zm319.3,387.448-45.752-58.824M.5,490.637l44.681-58.932" transform="translate(0 0)"/><g transform="translate(317.98 4.399)"><path class="b" d="M570.849,20.808,454.808,42.238l-71.789,37.5-53.574,66.432L297.3,202.96l54.646-26.787,60,61.074L384.3,81.347l147.65,50.145L352.16,173.816,299.443,82.74,390.2,4.521,381.09,80.061l-27.537,95.362L570.1,250.105,531.955,133.314,413.234,237.783,454.808,44.7l77.361,83.79L474.095,4.2,302.336,82.74" transform="translate(-296.764 -4.2)"/><line class="b" x2="60.217" y2="34.287" transform="translate(95.362 2.464)"/><path class="b" d="M569.492,78.2l-35.359,49.288L505.739,314.462,410.913,234.1,297.979,364.821,377.7,347.142l-80.9,76.611,165.651-58.61L407.7,271.067l-30.216,76.182,85.183,17.894,54.324-140.15-105.005,6.965-4.607,39,98.362,43.5L376.947,346.928l-78.968-87.8,110.255-27.71-108.755-32.68,107.9,72.218L519.133,226.6l51.431,105.005L462.13,365.25l45.752-50.788,60.539,108.755-105.97-58.074" transform="translate(-296.8 1.09)"/></g><g transform="translate(45.181 1.72)"><path class="b" d="M315,83.133,188.564,1.7S43.379,106.705,43.379,108.848s129.971,74.468,129.971,74.468L188.564,1.7,243.21,102.419,42.2,20.987,315.535,85.811,240,104.027l-180.545,80.9,113.041-1.929,92.683,75L242.353,102.419,42.521,108.848l16.929,76.075,79.29,143.043L243.21,102.419l72.325,100.719-50.36,54.11L315.535,84.74,173.242,183.316l-47.359,42.859L42.2,20.987,172.492,183.1l33.216,123.006,59.467-48.752,50.36,112.291L205.708,306.108l-66.968,21.965-12.322-99.112L42.307,359.744l137.685,55.12,25.716-108.755-79.825-79.075L42.307,258.427l17.144-73.4L42.307,359.744l96.433-31.777,41.252,86.79,135.007-45L138.741,327.966,42.307,429.757" transform="translate(-42.2 -1.7)"/><path class="b" d="M132.3,307.665,306.952,408.92,199.268,285.7" transform="translate(-35.759 18.601)"/></g><path class="c" d="M276.245,265.729l49.153,7.663L215.717,315.137" transform="translate(-7.357 -9.035)"/></g><circle class="d" cx="3.791" cy="3.791" r="3.791" transform="translate(1654.549 292.575)"/><circle class="d" cx="3.791" cy="3.791" r="3.791" transform="translate(1734.549 381.575)"/><circle class="d" cx="3.791" cy="3.791" r="3.791" transform="translate(1612.549 487.575)"/><circle class="d" cx="3.791" cy="3.791" r="3.791" transform="translate(1719.549 481.575)"/><circle class="d" cx="3.791" cy="3.791" r="3.791" transform="translate(1608.549 526.575)"/><circle class="d" cx="3.791" cy="3.791" r="3.791" transform="translate(1707.549 570.575)"/><circle class="d" cx="3.791" cy="3.791" r="3.791" transform="translate(1578.549 601.575)"/><circle class="d" cx="3.791" cy="3.791" r="3.791" transform="translate(1664.549 620.575)"/><circle class="d" cx="3.791" cy="3.791" r="3.791" transform="translate(1498.549 618.575)"/><circle class="d" cx="3.791" cy="3.791" r="3.791" transform="translate(1498.549 513.575)"/><circle class="d" cx="3.791" cy="3.791" r="3.791" transform="translate(1498.549 678.575)"/><circle class="d" cx="3.791" cy="3.791" r="3.791" transform="translate(1388.549 556.575)"/><circle class="d" cx="3.791" cy="3.791" r="3.791" transform="translate(1448.549 505.575)"/><circle class="d" cx="3.791" cy="3.791" r="3.791" transform="translate(1322.549 577.575)"/><circle class="d" cx="3.791" cy="3.791" r="3.791" transform="translate(1310.549 477.575)"/><circle class="d" cx="3.791" cy="3.791" r="3.791" transform="translate(1356.549 433.575)"/><circle class="d" cx="3.791" cy="3.791" r="3.791" transform="translate(1242.549 435.575)"/><circle class="d" cx="3.791" cy="3.791" r="3.791" transform="translate(1426.549 352.575)"/><circle class="d" cx="3.791" cy="3.791" r="3.791" transform="translate(1554.549 425.575)"/><circle class="d" cx="3.791" cy="3.791" r="3.791" transform="translate(1499.549 451.575)"/><circle class="d" cx="3.791" cy="3.791" r="3.791" transform="translate(1583.549 331.575)"/><circle class="d" cx="3.791" cy="3.791" r="3.791" transform="translate(1498.879 333.148)"/><circle class="d" cx="3.791" cy="3.791" r="3.791" transform="translate(1371.879 251.148)"/><circle class="d" cx="3.791" cy="3.791" r="3.791" transform="translate(1225.879 270.148)"/><circle class="d" cx="3.791" cy="3.791" r="3.791" transform="translate(1225.879 359.148)"/><circle class="d" cx="3.791" cy="3.791" r="3.791" transform="translate(1180.879 367.148)"/><circle class="d" cx="3.791" cy="3.791" r="3.791" transform="translate(1225.879 508.148)"/><circle class="d" cx="3.791" cy="3.791" r="3.791" transform="translate(1225.879 609.148)"/><circle class="d" cx="3.791" cy="3.791" r="3.791" transform="translate(1224.879 680.148)"/><circle class="d" cx="3.791" cy="3.791" r="3.791" transform="translate(1180.879 740.148)"/><circle class="d" cx="3.791" cy="3.791" r="3.791" transform="translate(1497.879 710.148)"/><circle class="d" cx="3.791" cy="3.791" r="3.791" transform="translate(1362.879 665.148)"/><circle class="d" cx="3.791" cy="3.791" r="3.791" transform="translate(1448.879 725.148)"/><circle class="d" cx="3.791" cy="3.791" r="3.791" transform="translate(1549.879 725.148)"/><circle class="d" cx="3.791" cy="3.791" r="3.791" transform="translate(1816.879 739.148)"/><circle class="d" cx="3.791" cy="3.791" r="3.791" transform="translate(1770.879 680.148)"/><circle class="d" cx="3.791" cy="3.791" r="3.791" transform="translate(1770.879 586.148)"/><circle class="d" cx="3.791" cy="3.791" r="3.791" transform="translate(1770.879 500.148)"/><circle class="d" cx="3.791" cy="3.791" r="3.791" transform="translate(1770.879 333.148)"/><circle class="d" cx="3.791" cy="3.791" r="3.791" transform="translate(1772.879 271.148)"/><circle class="d" cx="3.791" cy="3.791" r="3.791" transform="translate(1675.879 254.148)"/><circle class="d" cx="3.791" cy="3.791" r="3.791" transform="translate(1592.879 254.148)"/><circle class="d" cx="3.791" cy="3.791" r="3.791" transform="translate(1817.879 337.148)"/></g></svg>