<svg xmlns="http://www.w3.org/2000/svg" viewBox="0 0 583.526 758.417"><defs><style>.cls-1,.cls-5{fill:none}.cls-2{clip-path:url(#clip-path)}.cls-5{stroke:#00b3ee;stroke-miterlimit:10}.cls-8{fill:#6bbcff}</style><clipPath id="clip-path"><path id="Path_11748" data-name="Path 11748" class="cls-1" d="M0-758.417h583.526V0H0z"/></clipPath><clipPath id="clip-path-2"><path id="Rectangle_542" data-name="Rectangle 542" class="cls-1" transform="translate(1.025 -758.417)" d="M0 0h579.41v754.724H0z"/></clipPath></defs><g id="Group_6850" data-name="Group 6850" transform="translate(0 758.417)"><g id="Group_6799" data-name="Group 6799" class="cls-2"><g id="Group_6798" data-name="Group 6798" opacity=".5"><g id="Group_6797" data-name="Group 6797"><g id="Group_6796" data-name="Group 6796" clip-path="url(#clip-path-2)"><g id="Group_6730" data-name="Group 6730" transform="translate(341.986 -365.082)"><path id="Path_11682" data-name="Path 11682" class="cls-5" d="M0 0l-158.751 93.724.147 1.746 93.692 63.884 1.728-.534z"/></g><g id="Group_6731" data-name="Group 6731" transform="translate(449.762 -384.084)"><path id="Path_11683" data-name="Path 11683" class="cls-5" d="M0 0l93.118-16.417-126.436-78.04z"/></g><g id="Group_6732" data-name="Group 6732" transform="translate(278.802 -206.262)"><path id="Path_11684" data-name="Path 11684" class="cls-5" d="M0 0l210.722-65.1-147.538-93.72z"/></g><g id="Group_6733" data-name="Group 6733" transform="translate(277.073 -205.727)"><path id="Path_11685" data-name="Path 11685" class="cls-5" d="M0 0l1.192.813.536-1.347z"/></g><g id="Group_6734" data-name="Group 6734" transform="translate(278.266 -204.914)"><path id="Path_11686" data-name="Path 11686" class="cls-5" d="M0 0l71.355 48.654 139.9-115.1L.536-1.348z"/></g><g id="Group_6735" data-name="Group 6735" transform="translate(177.518 -339.303)"><path id="Path_11687" data-name="Path 11687" class="cls-5" d="M0 0l5.717 67.944 158.751-93.723-94.513-60.039z"/></g><g id="Group_6736" data-name="Group 6736" transform="translate(427.109 -579.05)"><path id="Path_11688" data-name="Path 11688" class="cls-5" d="M0 0l-.2.073.145.064z"/></g><g id="Group_6737" data-name="Group 6737" transform="translate(403.663 -616.733)"><path id="Path_11689" data-name="Path 11689" class="cls-5" d="M0 0l-84.435-137.415 53.453 151.54z"/></g><g id="Group_6738" data-name="Group 6738" transform="translate(107.144 -252.969)"><path id="Path_11690" data-name="Path 11690" class="cls-5" d="M0 0l19.745 17.386L74.841-17.6 35.956-44.11z"/></g><g id="Group_6739" data-name="Group 6739" transform="translate(426.846 -579.004)"><path id="Path_11691" data-name="Path 11691" class="cls-5" d="M0 0l-23.183-37.729L-54.165-23.6z"/></g><g id="Group_6740" data-name="Group 6740" transform="translate(165.939 -476.915)"><path id="Path_11692" data-name="Path 11692" class="cls-5" d="M0 0l-161.519 85.275L4.234 50.316z"/></g><g id="Group_6741" data-name="Group 6741" transform="translate(46.438 -211.801)"><path id="Path_11693" data-name="Path 11693" class="cls-5" d="M0 0l80.45-23.782"/></g><g id="Group_6742" data-name="Group 6742" transform="translate(181.985 -270.564)"><path id="Path_11694" data-name="Path 11694" class="cls-5" d="M0 0l-55.1 34.981L9.01 91.429 1.4.952z"/></g><g id="Group_6743" data-name="Group 6743" transform="translate(143.1 -297.079)"><path id="Path_11695" data-name="Path 11695" class="cls-5" d="M0 0l-32.811-22.372L-91.708-4.98l55.752 49.09z"/></g><g id="Group_6744" data-name="Group 6744" transform="translate(426.846 -579.004)"><path id="Path_11696" data-name="Path 11696" class="cls-5" d="M0 0l.064.027.2-.073L51.9-129.838l-75.083 92.109z"/></g><g id="Group_6745" data-name="Group 6745" transform="translate(257.028 -151.529)"><path id="Path_11697" data-name="Path 11697" class="cls-5" d="M0 0l-42.253 106.208 99.835-82.135z"/></g><g id="Group_6746" data-name="Group 6746" transform="translate(214.774 -45.321)"><path id="Path_11698" data-name="Path 11698" class="cls-5" d="M0 0l299.538 1.357L99.835-82.135z"/></g><g id="Group_6747" data-name="Group 6747" transform="translate(319.207 -754.211)"><path id="Path_11699" data-name="Path 11699" class="cls-5" d="M0 0h-.016l.005.01z"/></g><g id="Group_6748" data-name="Group 6748" transform="translate(319.196 -754.201)"><path id="Path_11700" data-name="Path 11700" class="cls-5" d="M0 0v-.009h-.144l-.13.236z"/></g><g id="Group_6749" data-name="Group 6749" transform="translate(318.917 -753.972)"><path id="Path_11701" data-name="Path 11701" class="cls-5" d="M0 0l-101.961 83.5 44.99 19.606z"/></g><g id="Group_6750" data-name="Group 6750" transform="translate(319.229 -754.148)"><path id="Path_11702" data-name="Path 11702" class="cls-5" d="M0 0l-.022-.062-.011.009z"/></g><g id="Group_6751" data-name="Group 6751" transform="translate(153.99 -618.386)"><path id="Path_11703" data-name="Path 11703" class="cls-5" d="M0 0l-92.421 75.949 104.353 66.365z"/></g><g id="Group_6752" data-name="Group 6752" transform="translate(170.173 -426.599)"><path id="Path_11704" data-name="Path 11704" class="cls-5" d="M0 0l7.345 87.3L77.3 1.478z"/></g><g id="Group_6753" data-name="Group 6753" transform="translate(372.681 -602.608)"><path id="Path_11705" data-name="Path 11705" class="cls-5" d="M0 0l-53.453-151.54-.032-.053-.28.229-56.971 103.107z"/></g><g id="Group_6754" data-name="Group 6754" transform="translate(247.473 -425.121)"><path id="Path_11706" data-name="Path 11706" class="cls-5" d="M0 0l94.513 60.039 42.453-106.708z"/></g><g id="Group_6755" data-name="Group 6755" transform="translate(341.986 -365.082)"><path id="Path_11707" data-name="Path 11707" class="cls-5" d="M0 0l147.538 93.724L107.776-19z"/></g><g id="Group_6756" data-name="Group 6756" transform="translate(416.444 -478.541)"><path id="Path_11708" data-name="Path 11708" class="cls-5" d="M0 0l-32.006 6.751-42.452 106.708 107.776-19z"/></g><g id="Group_6757" data-name="Group 6757" transform="translate(257.028 -151.529)"><path id="Path_11709" data-name="Path 11709" class="cls-5" d="M0 0l57.582 24.073L92.594-4.73 21.238-53.385z"/></g><g id="Group_6758" data-name="Group 6758" transform="translate(110.289 -319.451)"><path id="Path_11710" data-name="Path 11710" class="cls-5" d="M0 0l32.811 22.372 34.418-42.224z"/></g><g id="Group_6759" data-name="Group 6759" transform="translate(183.235 -271.358)"><path id="Path_11711" data-name="Path 11711" class="cls-5" d="M0 0l-5.717-67.944-34.418 42.223L-1.25.794z"/></g><g id="Group_6760" data-name="Group 6760" transform="translate(183.235 -271.358)"><path id="Path_11712" data-name="Path 11712" class="cls-5" d="M0 0l-1.25.794 1.4.952z"/></g><g id="Group_6761" data-name="Group 6761" transform="translate(216.956 -670.472)"><path id="Path_11713" data-name="Path 11713" class="cls-5" d="M0 0l-69.864-30.445 6.9 82.009z"/></g><g id="Group_6762" data-name="Group 6762" transform="translate(402.665 -517.605)"><path id="Path_11714" data-name="Path 11714" class="cls-5" d="M0 0l13.779 39.064L176.136 4.821 24.39-61.308z"/></g><g id="Group_6763" data-name="Group 6763" transform="translate(4.42 -391.64)"><path id="Path_11715" data-name="Path 11715" class="cls-5" d="M0 0l173.1 52.337-7.345-87.3z"/></g><g id="Group_6764" data-name="Group 6764" transform="translate(278.266 -204.914)"><path id="Path_11716" data-name="Path 11716" class="cls-5" d="M0 0l-1.192-.813-86.079 26.591A20.293 20.293 0 0 1-82 27.982l60.759 25.4z"/></g><g id="Group_6765" data-name="Group 6765" transform="translate(314.609 -127.456)"><path id="Path_11717" data-name="Path 11717" class="cls-5" d="M0 0l199.7 83.492L35.012-28.8z"/></g><g id="Group_6766" data-name="Group 6766" transform="translate(183.382 -269.612)"><path id="Path_11718" data-name="Path 11718" class="cls-5" d="M0 0l7.613 90.477 86.078-26.592z"/></g><g id="Group_6767" data-name="Group 6767" transform="translate(247.473 -425.121)"><path id="Path_11719" data-name="Path 11719" class="cls-5" d="M0 0l-81.534-51.794L-77.3-1.478z"/></g><g id="Group_6768" data-name="Group 6768" transform="translate(426.91 -578.976)"><path id="Path_11720" data-name="Path 11720" class="cls-5" d="M0 0l-.064-.027.026.042z"/></g><g id="Group_6769" data-name="Group 6769" transform="translate(426.91 -578.976)"><path id="Path_11721" data-name="Path 11721" class="cls-5" d="M0 0l-.038.015-.026-.042-39.8-17.345-14.365-6.26 5.88 16.67 24.1 68.333L.145.063z"/></g><g id="Group_6771" data-name="Group 6771" transform="translate(261.946 -650.865)"><path id="Path_11723" data-name="Path 11723" class="cls-5" d="M0 0l-24.434 44.221 141.05 20.706-212.639 109.867 60.536 37.6 21.014 13.349L3.03 204.27 116.616 64.927z"/></g><g id="Group_6772" data-name="Group 6772" transform="translate(379.026 -585.938)"><path id="Path_11724" data-name="Path 11724" class="cls-5" d="M0 0l-141.282-20.187-71.805 130.054h-.017z"/></g><g id="Group_6773" data-name="Group 6773" transform="translate(247.473 -425.121)"><path id="Path_11725" data-name="Path 11725" class="cls-5" d="M0 0l136.966-46.669 18.226-45.815-24.1-68.333z"/></g><g id="Group_6774" data-name="Group 6774" transform="translate(416.444 -478.541)"><path id="Path_11726" data-name="Path 11726" class="cls-5" d="M0 0l-13.779-39.064-18.227 45.815z"/></g><g id="Group_6775" data-name="Group 6775" transform="translate(165.922 -476.071)"><path id="Path_11727" data-name="Path 11727" class="cls-5" d="M0 0h.017l71.572-130.054-83.521-12.52z"/></g><g id="Group_6776" data-name="Group 6776" transform="translate(237.512 -606.644)"><path id="Path_11728" data-name="Path 11728" class="cls-5" d="M0 0l24.434-44.221-44.99-19.606-62.965 51.566z"/></g><g id="Group_6777" data-name="Group 6777" transform="translate(261.946 -650.865)"><path id="Path_11729" data-name="Path 11729" class="cls-5" d="M0 0l86.8-19.606 29.818 84.533z"/></g><g id="Group_6778" data-name="Group 6778" transform="translate(237.512 -606.644)"><path id="Path_11730" data-name="Path 11730" class="cls-5" d="M0 0l34.738 75.707-106.311 54.866z"/></g><g id="Group_6779" data-name="Group 6779" transform="translate(402.665 -517.605)"><path id="Path_11731" data-name="Path 11731" class="cls-5" d="M0 0l-80.9 1.339 62.669 44.476z"/></g><g id="Group_6780" data-name="Group 6780" transform="translate(247.473 -425.121)"><path id="Path_11732" data-name="Path 11732" class="cls-5" d="M0 0l-64.237 153.763 158.75-93.724z"/></g><g id="Group_6781" data-name="Group 6781" transform="translate(489.248 -266.091)"><path id="Path_11733" data-name="Path 11733" class="cls-5" d="M0 0q.1-2.662.275-5.267l-139.9 115.1L5.951 99.9C1.8 64.82-1.082 28.412 0 0z"/></g><g id="Group_6782" data-name="Group 6782" transform="translate(446.251 -90.372)"><path id="Path_11734" data-name="Path 11734" class="cls-5" d="M0 0l-96.629-65.888 164.69 112.3S56.437-12.55 48.949-75.813z"/></g><g id="Group_6785" data-name="Group 6785" transform="translate(495.199 -166.184)"><path id="Path_11737" data-name="Path 11737" class="cls-5" d="M0 0l-145.578 9.925 96.629 65.888z"/></g><g id="Group_6786" data-name="Group 6786" transform="translate(314.609 -127.456)"><path id="Path_11738" data-name="Path 11738" class="cls-5" d="M0 0l27.376 82.712-127.211-.577z"/></g><g id="Group_6787" data-name="Group 6787" transform="translate(341.986 -365.082)"><path id="Path_11739" data-name="Path 11739" class="cls-5" d="M0 0l35.46 128.347-98.644 30.473z"/></g><g id="Group_6788" data-name="Group 6788" transform="translate(278.802 -206.262)"><path id="Path_11740" data-name="Path 11740" class="cls-5" d="M0 0l-19.05-110.271 82.234-48.549z"/></g><g id="Group_6789" data-name="Group 6789" transform="translate(247.473 -425.121)"><path id="Path_11741" data-name="Path 11741" class="cls-5" d="M0 0l12.279 108.589 82.234-48.55z"/></g><g id="Group_6790" data-name="Group 6790" transform="translate(4.42 -391.64)"><path id="Path_11742" data-name="Path 11742" class="cls-5" d="M0 0l56.185 1.173-5.666 21 115.234-57.132L60.685-87.494"/></g><g id="Group_6791" data-name="Group 6791" transform="translate(65.105 -479.134)"><path id="Path_11743" data-name="Path 11743" class="cls-5" d="M0 0l99.667 2.333"/></g><g id="Group_6792" data-name="Group 6792" transform="translate(60.605 -390.467)"><path id="Path_11744" data-name="Path 11744" class="cls-5" d="M0 0l105.334-85.6"/></g><g id="Group_6793" data-name="Group 6793" transform="translate(271.438 -532.134)"><path id="Path_11745" data-name="Path 11745" class="cls-5" d="M0 0l-23.966 107.013L106.008 295.4l-116.675-80.733L-94.334 194l-50.216 102.551-17.784-82.884L-80.667 352-13 215.667l91.183 160.207"/></g><g id="Group_6794" data-name="Group 6794" transform="translate(92.105 -169.801)"><path id="Path_11746" data-name="Path 11746" class="cls-5" d="M0 0l34.784-65.782-88.117-56.551L17-148.666-56.667-150 78.068-256.8l102.077-104.337L60.333-449l109.508-32.064-47.476-86.5 133.3 66.9 58.666-72.667-33.754 140.523 175.756-23.858L325-310l-95.336-36.466 105.286-62.646 114.717 178.446-294.3-24.654L310.56-347.8 181-363l68.881 167.719"/></g><g id="Group_6795" data-name="Group 6795" transform="translate(109.355 -319.551)"><path id="Path_11747" data-name="Path 11747" class="cls-5" d="M0 0l-48.75-70.916"/></g></g></g></g></g><g id="Group_6800" data-name="Group 6800" transform="translate(126.888 -235.583)"><path id="Path_11749" data-name="Path 11749" d="M0 0l-73.95-18.551 53.166.333" stroke-linecap="round" stroke-linejoin="round" stroke="#00b3ee" fill="none"/></g><g id="Group_6801" data-name="Group 6801" transform="translate(353.975 -4.211)"><path id="Path_11750" data-name="Path 11750" d="M0 0l160.337-39.753L139.8-164.256l-4.667-104.667L187.8-396.256l36-112.667-29.338-113.333L123.8-705.59l-71.337-33.333L-34.769-750-140.2-732.256l-66.667 37.333-84.666 158 2.666 62-60.666 88.667 16.666 20.666h34l-19.666 50 15.953 17.741-12.62 9.926 5.333 19 9.334 19-7 42.333 45.666 42 98.891-9.336L-139.2-41.11z" stroke="#00b3ee" fill="none"/></g><g id="Group_6849" data-name="Group 6849" class="cls-2"><g id="Group_6802" data-name="Group 6802" transform="translate(388.86 -472.426)"><path id="Path_11751" data-name="Path 11751" class="cls-8" d="M0 0a4.375 4.375 0 0 1-4.375 4.375A4.374 4.374 0 0 1-8.75 0a4.375 4.375 0 0 1 4.375-4.375A4.375 4.375 0 0 1 0 0"/></g><g id="Group_6803" data-name="Group 6803" transform="translate(327.693 -516.592)"><path id="Path_11752" data-name="Path 11752" class="cls-8" d="M0 0a4.375 4.375 0 0 1-4.375 4.375A4.375 4.375 0 0 1-8.75 0a4.375 4.375 0 0 1 4.375-4.375A4.374 4.374 0 0 1 0 0"/></g><g id="Group_6804" data-name="Group 6804" transform="translate(406.526 -518.092)"><path id="Path_11753" data-name="Path 11753" class="cls-8" d="M0 0a4.375 4.375 0 0 1-4.375 4.375A4.375 4.375 0 0 1-8.75 0a4.375 4.375 0 0 1 4.375-4.375A4.374 4.374 0 0 1 0 0"/></g><g id="Group_6805" data-name="Group 6805" transform="translate(421.526 -479.092)"><path id="Path_11754" data-name="Path 11754" class="cls-8" d="M0 0a4.375 4.375 0 0 1-4.375 4.375A4.375 4.375 0 0 1-8.75 0a4.375 4.375 0 0 1 4.375-4.375A4.374 4.374 0 0 1 0 0"/></g><g id="Group_6806" data-name="Group 6806" transform="translate(583.527 -513.467)"><path id="Path_11755" data-name="Path 11755" class="cls-8" d="M0 0a4.375 4.375 0 0 1-4.375 4.375A4.375 4.375 0 0 1-8.75 0a4.374 4.374 0 0 1 4.375-4.375A4.375 4.375 0 0 1 0 0"/></g><g id="Group_6807" data-name="Group 6807" transform="translate(431.026 -579.634)"><path id="Path_11756" data-name="Path 11756" class="cls-8" d="M0 0a4.375 4.375 0 0 1-4.375 4.375A4.375 4.375 0 0 1-8.75 0a4.375 4.375 0 0 1 4.375-4.375A4.375 4.375 0 0 1 0 0"/></g><g id="Group_6808" data-name="Group 6808" transform="translate(408.193 -617.967)"><path id="Path_11757" data-name="Path 11757" class="cls-8" d="M0 0a4.375 4.375 0 0 1-4.375 4.375A4.375 4.375 0 0 1-8.75 0a4.375 4.375 0 0 1 4.375-4.375A4.374 4.374 0 0 1 0 0"/></g><g id="Group_6809" data-name="Group 6809" transform="translate(383.026 -585.801)"><path id="Path_11758" data-name="Path 11758" class="cls-8" d="M0 0a4.374 4.374 0 0 1-4.375 4.375A4.375 4.375 0 0 1-8.75 0a4.375 4.375 0 0 1 4.375-4.375A4.375 4.375 0 0 1 0 0"/></g><g id="Group_6810" data-name="Group 6810" transform="translate(377.36 -602.634)"><path id="Path_11759" data-name="Path 11759" class="cls-8" d="M0 0a4.375 4.375 0 0 1-4.375 4.375A4.375 4.375 0 0 1-8.75 0a4.375 4.375 0 0 1 4.375-4.375A4.375 4.375 0 0 1 0 0"/></g><g id="Group_6811" data-name="Group 6811" transform="translate(353.026 -670.634)"><path id="Path_11760" data-name="Path 11760" class="cls-8" d="M0 0a4.375 4.375 0 0 1-4.375 4.375A4.375 4.375 0 0 1-8.75 0a4.375 4.375 0 0 1 4.375-4.375A4.375 4.375 0 0 1 0 0"/></g><g id="Group_6812" data-name="Group 6812" transform="translate(266.526 -651.134)"><path id="Path_11761" data-name="Path 11761" class="cls-8" d="M0 0a4.375 4.375 0 0 1-4.375 4.375A4.375 4.375 0 0 1-8.75 0a4.375 4.375 0 0 1 4.375-4.375A4.375 4.375 0 0 1 0 0"/></g><g id="Group_6813" data-name="Group 6813" transform="translate(241.526 -605.634)"><path id="Path_11762" data-name="Path 11762" class="cls-8" d="M0 0a4.375 4.375 0 0 1-4.375 4.375A4.375 4.375 0 0 1-8.75 0a4.375 4.375 0 0 1 4.375-4.375A4.375 4.375 0 0 1 0 0"/></g><g id="Group_6814" data-name="Group 6814" transform="translate(277.167 -532.104)"><path id="Path_11763" data-name="Path 11763" class="cls-8" d="M0 0a4.375 4.375 0 0 1-4.375 4.375A4.375 4.375 0 0 1-8.75 0a4.375 4.375 0 0 1 4.375-4.375A4.375 4.375 0 0 1 0 0"/></g><g id="Group_6815" data-name="Group 6815" transform="translate(169.917 -477.042)"><path id="Path_11764" data-name="Path 11764" class="cls-8" d="M0 0a4.375 4.375 0 0 1-4.375 4.375A4.375 4.375 0 0 1-8.75 0a4.375 4.375 0 0 1 4.375-4.375A4.375 4.375 0 0 1 0 0"/></g><g id="Group_6816" data-name="Group 6816" transform="translate(66.917 -542.209)"><path id="Path_11765" data-name="Path 11765" class="cls-8" d="M0 0a4.375 4.375 0 0 1-4.375 4.375A4.374 4.374 0 0 1-8.75 0a4.375 4.375 0 0 1 4.375-4.375A4.375 4.375 0 0 1 0 0"/></g><g id="Group_6817" data-name="Group 6817" transform="translate(8.75 -391.917)"><path id="Path_11766" data-name="Path 11766" class="cls-8" d="M0 0a4.375 4.375 0 0 1-4.375 4.375A4.375 4.375 0 0 1-8.75 0a4.375 4.375 0 0 1 4.375-4.375A4.375 4.375 0 0 1 0 0"/></g><g id="Group_6818" data-name="Group 6818" transform="translate(64.833 -389.667)"><path id="Path_11767" data-name="Path 11767" class="cls-8" d="M0 0a4.375 4.375 0 0 1-4.375 4.375A4.375 4.375 0 0 1-8.75 0a4.375 4.375 0 0 1 4.375-4.375A4.375 4.375 0 0 1 0 0"/></g><g id="Group_6819" data-name="Group 6819" transform="translate(174.667 -426.5)"><path id="Path_11768" data-name="Path 11768" class="cls-8" d="M0 0a4.375 4.375 0 0 1-4.375 4.375A4.375 4.375 0 0 1-8.75 0a4.374 4.374 0 0 1 4.375-4.375A4.375 4.375 0 0 1 0 0"/></g><g id="Group_6820" data-name="Group 6820" transform="translate(181.333 -339.334)"><path id="Path_11769" data-name="Path 11769" class="cls-8" d="M0 0a4.374 4.374 0 0 1-4.375 4.375A4.375 4.375 0 0 1-8.75 0a4.375 4.375 0 0 1 4.375-4.375A4.375 4.375 0 0 1 0 0"/></g><g id="Group_6821" data-name="Group 6821" transform="translate(114.208 -318.959)"><path id="Path_11770" data-name="Path 11770" class="cls-8" d="M0 0a4.374 4.374 0 0 1-4.375 4.375A4.375 4.375 0 0 1-8.75 0a4.375 4.375 0 0 1 4.375-4.375A4.375 4.375 0 0 1 0 0"/></g><g id="Group_6822" data-name="Group 6822" transform="translate(187.833 -271.209)"><path id="Path_11771" data-name="Path 11771" class="cls-8" d="M0 0a4.374 4.374 0 0 1-4.375 4.375A4.375 4.375 0 0 1-8.75 0a4.375 4.375 0 0 1 4.375-4.375A4.375 4.375 0 0 1 0 0"/></g><g id="Group_6823" data-name="Group 6823" transform="translate(131.708 -236.334)"><path id="Path_11772" data-name="Path 11772" class="cls-8" d="M0 0a4.374 4.374 0 0 1-4.375 4.375A4.375 4.375 0 0 1-8.75 0a4.375 4.375 0 0 1 4.375-4.375A4.375 4.375 0 0 1 0 0"/></g><g id="Group_6824" data-name="Group 6824" transform="translate(111.333 -253.709)"><path id="Path_11773" data-name="Path 11773" class="cls-8" d="M0 0a4.374 4.374 0 0 1-4.375 4.375A4.375 4.375 0 0 1-8.75 0a4.375 4.375 0 0 1 4.375-4.375A4.375 4.375 0 0 1 0 0"/></g><g id="Group_6825" data-name="Group 6825" transform="translate(195.333 -180.209)"><path id="Path_11774" data-name="Path 11774" class="cls-8" d="M0 0a4.374 4.374 0 0 1-4.375 4.375A4.375 4.375 0 0 1-8.75 0a4.375 4.375 0 0 1 4.375-4.375A4.375 4.375 0 0 1 0 0"/></g><g id="Group_6826" data-name="Group 6826" transform="translate(282.653 -205.032)"><path id="Path_11775" data-name="Path 11775" class="cls-8" d="M0 0a4.375 4.375 0 0 1-4.7 4.019A4.376 4.376 0 0 1-8.723-.686 4.375 4.375 0 0 1-4.019-4.7 4.376 4.376 0 0 1 0 0"/></g><g id="Group_6827" data-name="Group 6827" transform="translate(347.153 -365.532)"><path id="Path_11776" data-name="Path 11776" class="cls-8" d="M0 0a4.375 4.375 0 0 1-4.7 4.019A4.376 4.376 0 0 1-8.723-.686 4.375 4.375 0 0 1-4.019-4.7 4.376 4.376 0 0 1 0 0"/></g><g id="Group_6828" data-name="Group 6828" transform="translate(263.903 -316.532)"><path id="Path_11777" data-name="Path 11777" class="cls-8" d="M0 0a4.375 4.375 0 0 1-4.7 4.019A4.376 4.376 0 0 1-8.723-.686 4.375 4.375 0 0 1-4.019-4.7 4.376 4.376 0 0 1 0 0"/></g><g id="Group_6829" data-name="Group 6829" transform="translate(252.153 -424.282)"><path id="Path_11778" data-name="Path 11778" class="cls-8" d="M0 0a4.375 4.375 0 0 1-4.7 4.019A4.376 4.376 0 0 1-8.723-.686 4.375 4.375 0 0 1-4.019-4.7 4.376 4.376 0 0 1 0 0"/></g><g id="Group_6830" data-name="Group 6830" transform="translate(545.654 -399.032)"><path id="Path_11779" data-name="Path 11779" class="cls-8" d="M0 0a4.376 4.376 0 0 1-4.7 4.019A4.377 4.377 0 0 1-8.724-.686 4.376 4.376 0 0 1-4.02-4.7 4.376 4.376 0 0 1 0 0"/></g><g id="Group_6831" data-name="Group 6831" transform="translate(318.987 -127.199)"><path id="Path_11780" data-name="Path 11780" class="cls-8" d="M0 0a4.375 4.375 0 0 1-4.7 4.019A4.375 4.375 0 0 1-8.723-.686 4.374 4.374 0 0 1-4.019-4.7 4.375 4.375 0 0 1 0 0"/></g><g id="Group_6832" data-name="Group 6832" transform="translate(218.987 -46.366)"><path id="Path_11781" data-name="Path 11781" class="cls-8" d="M0 0a4.376 4.376 0 0 1-4.7 4.02A4.376 4.376 0 0 1-8.723-.686 4.374 4.374 0 0 1-4.019-4.7 4.375 4.375 0 0 1 0 0"/></g><g id="Group_6833" data-name="Group 6833" transform="translate(346.653 -44.866)"><path id="Path_11782" data-name="Path 11782" class="cls-8" d="M0 0a4.376 4.376 0 0 1-4.7 4.02A4.377 4.377 0 0 1-8.723-.686 4.374 4.374 0 0 1-4.019-4.7 4.375 4.375 0 0 1 0 0"/></g><g id="Group_6834" data-name="Group 6834" transform="translate(358.653 -4.032)"><path id="Path_11783" data-name="Path 11783" class="cls-8" d="M0 0a4.375 4.375 0 0 1-4.7 4.019A4.376 4.376 0 0 1-8.723-.686 4.375 4.375 0 0 1-4.019-4.7 4.376 4.376 0 0 1 0 0"/></g><g id="Group_6835" data-name="Group 6835" transform="translate(517.987 -44.199)"><path id="Path_11784" data-name="Path 11784" class="cls-8" d="M0 0a4.375 4.375 0 0 1-4.7 4.019A4.377 4.377 0 0 1-8.724-.686 4.375 4.375 0 0 1-4.019-4.7 4.375 4.375 0 0 1 0 0"/></g><g id="Group_6836" data-name="Group 6836" transform="translate(450.951 -90.203)"><path id="Path_11785" data-name="Path 11785" class="cls-8" d="M0 0a4.375 4.375 0 0 1-4.7 4.02 4.376 4.376 0 0 1-4.019-4.7 4.374 4.374 0 0 1 4.7-4.02A4.375 4.375 0 0 1 0 0"/></g><g id="Group_6837" data-name="Group 6837" transform="translate(353.451 -155.869)"><path id="Path_11786" data-name="Path 11786" class="cls-8" d="M0 0a4.375 4.375 0 0 1-4.7 4.019A4.376 4.376 0 0 1-8.723-.686 4.373 4.373 0 0 1-4.019-4.7 4.374 4.374 0 0 1 0 0"/></g><g id="Group_6838" data-name="Group 6838" transform="translate(499.617 -166.036)"><path id="Path_11787" data-name="Path 11787" class="cls-8" d="M0 0a4.375 4.375 0 0 1-4.7 4.019A4.374 4.374 0 0 1-8.723-.686 4.374 4.374 0 0 1-4.019-4.7 4.375 4.375 0 0 1 0 0"/></g><g id="Group_6839" data-name="Group 6839" transform="translate(493.951 -270.869)"><path id="Path_11788" data-name="Path 11788" class="cls-8" d="M0 0a4.375 4.375 0 0 1-4.7 4.019A4.376 4.376 0 0 1-8.723-.686 4.373 4.373 0 0 1-4.019-4.7 4.374 4.374 0 0 1 0 0"/></g><g id="Group_6840" data-name="Group 6840" transform="translate(381.701 -236.244)"><path id="Path_11789" data-name="Path 11789" class="cls-8" d="M0 0a4.375 4.375 0 0 1-4.7 4.019A4.376 4.376 0 0 1-8.723-.686 4.373 4.373 0 0 1-4.019-4.7 4.374 4.374 0 0 1 0 0"/></g><g id="Group_6841" data-name="Group 6841" transform="translate(157.86 -619.134)"><path id="Path_11790" data-name="Path 11790" class="cls-8" d="M0 0a4.375 4.375 0 0 1-4.375 4.375A4.375 4.375 0 0 1-8.75 0a4.375 4.375 0 0 1 4.375-4.375A4.375 4.375 0 0 1 0 0"/></g><g id="Group_6842" data-name="Group 6842" transform="translate(221.526 -670.467)"><path id="Path_11791" data-name="Path 11791" class="cls-8" d="M0 0a4.375 4.375 0 0 1-4.375 4.375A4.375 4.375 0 0 1-8.75 0a4.375 4.375 0 0 1 4.375-4.375A4.374 4.374 0 0 1 0 0"/></g><g id="Group_6843" data-name="Group 6843" transform="translate(151.693 -700.134)"><path id="Path_11792" data-name="Path 11792" class="cls-8" d="M0 0a4.375 4.375 0 0 1-4.375 4.375A4.375 4.375 0 0 1-8.75 0a4.375 4.375 0 0 1 4.375-4.375A4.375 4.375 0 0 1 0 0"/></g><g id="Group_6844" data-name="Group 6844" transform="translate(219.026 -737.134)"><path id="Path_11793" data-name="Path 11793" class="cls-8" d="M0 0a4.375 4.375 0 0 1-4.375 4.375A4.375 4.375 0 0 1-8.75 0a4.375 4.375 0 0 1 4.375-4.375A4.375 4.375 0 0 1 0 0"/></g><g id="Group_6845" data-name="Group 6845" transform="translate(323.86 -753.801)"><path id="Path_11794" data-name="Path 11794" class="cls-8" d="M0 0a4.375 4.375 0 0 1-4.375 4.375A4.374 4.374 0 0 1-8.75 0a4.375 4.375 0 0 1 4.375-4.375A4.375 4.375 0 0 1 0 0"/></g><g id="Group_6846" data-name="Group 6846" transform="translate(411.526 -742.467)"><path id="Path_11795" data-name="Path 11795" class="cls-8" d="M0 0a4.375 4.375 0 0 1-4.375 4.375A4.375 4.375 0 0 1-8.75 0a4.375 4.375 0 0 1 4.375-4.375A4.374 4.374 0 0 1 0 0"/></g><g id="Group_6847" data-name="Group 6847" transform="translate(483.526 -709.301)"><path id="Path_11796" data-name="Path 11796" class="cls-8" d="M0 0a4.374 4.374 0 0 1-4.375 4.375A4.375 4.375 0 0 1-8.75 0a4.375 4.375 0 0 1 4.375-4.375A4.375 4.375 0 0 1 0 0"/></g><g id="Group_6848" data-name="Group 6848" transform="translate(554.027 -625.967)"><path id="Path_11797" data-name="Path 11797" class="cls-8" d="M0 0a4.375 4.375 0 0 1-4.375 4.375A4.375 4.375 0 0 1-8.75 0a4.374 4.374 0 0 1 4.375-4.375A4.375 4.375 0 0 1 0 0"/></g></g></g></svg>