<svg xmlns="http://www.w3.org/2000/svg" viewBox="0 0 756.945 761.099"><defs><style>.a{opacity:0.5;}.b,.c{fill:none;}.b{stroke:#00b3ef;}.d{fill:#6bbdff;}.e,.f{stroke:none;}.f{fill:#00b3ef;}</style></defs><g transform="translate(378.756 -242.571)"><g transform="translate(-959.811 40)"><g class="a"><path class="b" d="M961,203,843,274l-82,27,200-90,60,57L907,308l-60-35,38,147L746,398l21,119,116-94L759,305l-64,11L651,477l98-82L717,587l-135-6,74-103,113,42-6-217,92,232-82-17-3,89,85-69,79-27-47-89L858,534l162,79,87-113-76-112L938,507,913,309,766,521l-54,68L656,476l-3,171,104,65,8-104L657,474,760,298l149,12,118,77-6-122-178,5,179,350,9-226,82-76L910,304m319,12-115-3-90-48,188,201-30-98,46-51,42.405,103.594L1117,317l69,52-161,21,105,223-23-109,8-183L958,208l72,183,182,78-29.179-98.751L1103,501l166,79,68,2-65.3-161.406L1214,463l56,114,1,89-46-32,43-52-140,34,10,94-121,7V617l127,147,82,10-89-61-113-98,201,21-93-18,135,47L1125,894l-46-31,150-14L928,817l91-97-98-33-52-49,156-25L938,513l167-8,104-40-76,148-115,3L916,692,859,539l167-148L888,418l216,85L863,637l-93-27,71,117,25-87-9-100L762,711,716,592,674,757l48,43,85,39,120,53L762,714l45,122L692,847l-22-88L657,645l-74-59,89,169,88-45-34,88-27,52,216,74,16-29-6-76-87-92L810,838l205-117,60,141,68-95-2-57-16,182.546L1225,851l-4-75-145,90L960,963l-40-38,153-61L934,895l24,61,63-238,125,49,127-103-135,47,91-77,106-46-64,80-47,101-99,123.546M1227,312"/><path class="b" d="M917,689l9,130L810,840l106,85L840,727l175-10"/></g><g class="c"><path class="e" d="M1231,849,960,962,694,848,583,584,694,311,959,204l269,108,110,272Z"/><path class="f" d="M 960.0054931640625 960.914306640625 L 1230.229248046875 848.2379150390625 L 1336.921508789063 584.0003662109375 L 1227.232421875 312.7695007324219 L 959.0009155273438 205.0780792236328 L 694.7669067382813 311.7687072753906 L 584.0820922851563 583.9935913085938 L 694.7652587890625 847.2400512695313 L 960.0054931640625 960.914306640625 M 960.0000610351563 961.9999389648438 L 693.9999389648438 848.0000610351563 L 582.9999389648438 584.0000610351563 L 693.9999389648438 310.9999389648438 L 958.9998168945313 204.0000610351563 L 1228 312.0000610351563 L 1338 584.0000610351563 L 1231 848.9999389648438 L 960.0000610351563 961.9999389648438 Z"/></g><circle class="d" cx="4" cy="4" r="4" transform="translate(1208 462)"/><circle class="d" cx="4" cy="4" r="4" transform="translate(1110 313)"/><circle class="d" cx="4" cy="4" r="4" transform="translate(1025 386)"/><circle class="d" cx="4" cy="4" r="4" transform="translate(906 303)"/><circle class="d" cx="4" cy="4" r="4" transform="translate(765 514)"/><circle class="d" cx="4" cy="4" r="4" transform="translate(743 394)"/><circle class="d" cx="4" cy="4" r="4" transform="translate(840 269)"/><circle class="d" cx="4" cy="4" r="4" transform="translate(757 297)"/><circle class="d" cx="4" cy="4" r="4" transform="translate(881 416)"/><circle class="d" cx="4" cy="4" r="4" transform="translate(861 634)"/><circle class="d" cx="4" cy="4" r="4" transform="translate(650 642)"/><circle class="d" cx="4" cy="4" r="4" transform="translate(650 471)"/><circle class="d" cx="4" cy="4" r="4" transform="translate(1017 611)"/><circle class="d" cx="4" cy="4" r="4" transform="translate(931 506)"/><circle class="d" cx="4" cy="4" r="4" transform="translate(1102 498)"/><circle class="d" cx="4" cy="4" r="4" transform="translate(1017 261)"/><circle class="d" cx="4" cy="4" r="4" transform="translate(1270 416)"/><circle class="d" cx="4" cy="4" r="4" transform="translate(1180 366)"/><circle class="d" cx="4" cy="4" r="4" transform="translate(1266 576)"/><circle class="d" cx="4" cy="4" r="4" transform="translate(1134 707)"/><circle class="d" cx="4" cy="4" r="4" transform="translate(1126 611)"/><circle class="d" cx="4" cy="4" r="4" transform="translate(914 684)"/><circle class="d" cx="4" cy="4" r="4" transform="translate(1013 715)"/><circle class="d" cx="4" cy="4" r="4" transform="translate(922 814)"/><circle class="d" cx="4" cy="4" r="4" transform="translate(757 707)"/><circle class="d" cx="4" cy="4" r="4" transform="translate(765 603)"/><circle class="d" cx="4" cy="4" r="4" transform="translate(853 532)"/><circle class="d" cx="4" cy="4" r="4" transform="translate(1073 859)"/><circle class="d" cx="4" cy="4" r="4" transform="translate(1142 761)"/><circle class="d" cx="4" cy="4" r="4" transform="translate(1266 661)"/><circle class="d" cx="4" cy="4" r="4" transform="translate(1222 630)"/><circle class="d" cx="4" cy="4" r="4" transform="translate(1218 769)"/><circle class="d" cx="4" cy="4" r="4" transform="translate(1121 888)"/><circle class="d" cx="4" cy="4" r="4" transform="translate(927 891)"/><circle class="d" cx="4" cy="4" r="4" transform="translate(914 919)"/><circle class="d" cx="4" cy="4" r="4" transform="translate(803 834)"/><circle class="d" cx="4" cy="4" r="4" transform="translate(836 723)"/><circle class="d" cx="4" cy="4" r="4" transform="translate(720 795)"/><circle class="d" cx="4" cy="4" r="4" transform="translate(668 753)"/><circle class="d" cx="4" cy="4" r="4" transform="translate(712 584)"/></g></g></svg>