<svg xmlns="http://www.w3.org/2000/svg" viewBox="0 0 478.312 691.992"><defs><style>.a{opacity:0.2;}.b{fill:#1f3550;}</style></defs><g transform="translate(-444.632 -109.006)"><g class="a" transform="translate(410.599 109.006)"><path class="b" d="M361.578,411.8c-.12-2.03-.358-3.94-.358-5.97q0-131.637-.12-263.154c0-4.776,1.433-7.4,5.612-9.791Q481.693,67.513,596.554,1.665c3.463-2.03,5.97-2.269,9.671-.119q114.086,66.266,228.41,132.413a38.077,38.077,0,0,1,4.776,3.94c-16.238,9.074-32.6,17.91-48.715,27.1-30.088,17.193-60.057,34.626-90.026,51.938-12.656,7.4-25.193,14.925-37.73,22.447-19.223-11.223-38.446-22.447-57.789-33.432a8.906,8.906,0,0,0-7.4.119c-18.029,10.029-35.939,20.537-53.968,30.566-3.343,1.791-3.582,4.06-3.582,7.164,0,21.85-.119,43.7-.238,65.669-2.269,1.194-4.537,2.388-6.806,3.7Q447.186,362.428,361.578,411.8Z" transform="translate(-327.067 -0.035)"/><path class="b" d="M361.578,361.544q85.788-49.431,171.457-98.743c2.268-1.313,4.537-2.388,6.805-3.7.12,2.029.239,3.94.239,5.97q0,133.07.119,266.259c0,3.94-.836,6.328-4.537,8.477q-84.534,49.431-169.069,99.22c-1.433.835-3.1,1.552-5.492,2.746V366.678C361.219,365.126,361.458,363.334,361.578,361.544Z" transform="translate(-327.067 50.22)"/><path class="b" d="M613.839,216.989c12.536-7.522,25.074-15.164,37.729-22.447q44.954-26.148,90.027-51.938c16.119-9.194,32.476-18.149,48.715-27.1.119,2.03.119,3.94.119,5.97V384.147c0,3.463-.239,6.209-3.94,8.358q-84,49.252-167.995,98.743c-1.313.716-2.746,1.313-4.9,2.268C613.839,400.624,613.839,308.806,613.839,216.989Z" transform="translate(-278.085 22.363)"/></g></g></svg>