<svg xmlns="http://www.w3.org/2000/svg" xmlns:xlink="http://www.w3.org/1999/xlink" viewBox="0 0 1219 849"><defs><style>.a{fill:#fff;stroke:#707070;}.b{opacity:0.5;clip-path:url(#a);}.c,.d,.e,.f{fill:none;stroke:#00b3ef;fill-rule:evenodd;}.d,.e{stroke-linejoin:round;}.e,.f{stroke-linecap:round;}.f{stroke-linejoin:bevel;}</style><clipPath id="a"><rect class="a" width="1219" height="849" transform="translate(960 900)"/></clipPath></defs><g class="b" transform="translate(-960 -900)"><g transform="translate(1150.5 951.219)"><path class="c" d="M264.1,42.066c8.474-.135,16.813.807,25.287.538,8.877-13.988,17.755-27.842,26.632-41.7a79.911,79.911,0,0,1,42.234,7.263c.134,2.959.4,5.918.538,8.877,17.755-4.035,20.041,18.158,25.287,34.164,14.257.538,27.977-.269,42.234.269-.135,2.825-.135,5.515-.269,8.339-31.339,11.971-49.5,29.053-60.527,52.187-8.07-3.094-16.006-6.322-23.942-9.415-5.918,5.649-11.971,11.567-17.755,17.216-5.649-3.228-11.433-6.322-17.082-9.55-2.825-8.743-5.515-17.485-8.339-26.094-11.164-4.977-22.328-9.953-33.357-15.064C264.5,60.628,264.5,50.809,264.1,42.066Z" transform="translate(90.952 0)"/><path class="c" d="M400.2,214.313c5.649-8.743,11.164-17.485,16.678-26.094.134-19.638.4-39.275.538-58.913-5.515,0-9.819-.134-15.333-.134,2.825-2.825,4.17-4.573,6.994-7.263-11.3-7.936-10.222-19.5-.538-32.55.135-9.819.4-19.638.538-29.456-2.556-5.246-5.111-10.357-7.8-15.6C375.585,53.715,353.8,69.452,339,97.025c6.456,11.3,12.912,22.6,19.5,34.029-.135,21.924-.4,44.117-.538,66.176C371.953,202.88,386.076,208.529,400.2,214.313Z" transform="translate(116.795 15.117)"/><path class="c" d="M268.854,31.8c0,17.082.135,34.029.135,51.111-5.918,8.474-11.971,17.082-17.889,25.556v49.5c2.959,3.5,5.918,7.129,8.877,10.491,3.228-.4,6.322-.807,9.55-1.076-.4,8.07-.807,16.275-1.211,24.345,5.649.538,11.567,1.211,17.216,1.614.4,5.784.807,11.567,1.211,17.216,17.082-3.094,33.088-.269,50.17,8.339,3.094-5.918,6.053-10.895,9.146-16.813,4.842,3.228,10.895,5.784,15.6,9.146,8.877-8.877,17.754-17.754,26.766-26.632V133.888c-5.918-10.895-11.836-21.924-17.754-32.819L345.656,90.578c-5.515,6.456-11.164,12.912-16.678,19.5-6.053-3.228-12.105-6.725-18.293-9.953-2.69-9.146-5.515-18.158-8.339-27.17-10.895-4.708-21.79-9.281-32.684-13.988C269.258,49.958,268.989,40.946,268.854,31.8Z" transform="translate(86.466 10.804)"/><path class="c" d="M316.774,180.471c3.632-6.053,5.918-11.029,9.415-17.082,4.977,3.632,10.895,5.649,15.871,9.281,8.743-9.146,17.754-17.889,26.5-27.17v17.082c14.257,5.784,28.515,11.567,42.772,17.216,2.825,3.228,5.515,6.322,8.339,9.55-5.649,2.287-11.567,4.439-17.216,6.725.135,8.474.4,17.082.538,25.556-14.526,17.351-29.86,33.491-50.573,42.234-14.93-.4-29.187-.673-43.983-1.076-.135-11.7,0-23.673-.135-35.374C316.639,212.079,318.791,196.88,316.774,180.471Z" transform="translate(106.202 50.035)"/><path class="c" d="M433.37,151.107c2.959,9.415.269,20.983-8.339,35.105,6.053,5.649,11.971,11.3,17.889,16.813-12.105,11.3-24.211,23.4-36.316,34.7,14.123,11.971,18.158,18.158,18.023,24.48,4.977,4.3,11.164,6.322,16.544,9.55v17.754c9.55,5.784,18.965,10.222,26.094,6.187v11.029c-17.485-19.234-57.568-5.649-101.147.538.134-9.415.4-18.831.538-28.38-6.456.135-12.912.4-19.5.538L341.1,261.669c17.62-5.649,34.029-23.538,50.573-41.7-.135-8.339-.4-16.678-.538-25.018l16.14-8.474c-2.825-3.094-5.649-6.322-8.339-9.415,5.918-8.877,11.836-17.754,17.755-26.766C422.34,150.7,427.855,150.838,433.37,151.107Z" transform="translate(117.52 51.691)"/><path class="c" d="M467.243,222.588c-2.556,20.579-6.456,40.755-16.14,59.989-6.994,3.5-16.14-.135-26.766-6.591.135-6.456-.135-12.509.135-18.965-5.784-2.69-11.567-5.515-17.216-8.339.942-10.222-7.8-17.351-17.755-23.942,12.374-12.24,23.942-23,36.316-35.24C436.442,205.775,451.641,214.921,467.243,222.588Z" transform="translate(134.22 65.217)"/><path class="c" d="M466.6,208.3c9.146,2.556,18.427,4.977,27.708,7.4,0,3.632,0,7.263.135,10.895-22.328,13.719-32.953,31.339-18.427,57.3.4,8.743.807,17.485,1.211,25.959-8.743.134-17.754-1.211-26.5-.942-8.877-5.918-11.3-12.778-15.333-21.521-1.345-2.825,1.614-8.474.135-11.433,11.433-18.427,12.105-38.872,16.14-59.854C457.317,219.464,463.235,216.1,466.6,208.3Z" transform="translate(149.93 71.703)"/><path class="c" d="M490.383,236.53c8.743.135,17.485.4,26.094.538C530.2,248.232,543.915,259.4,557.5,270.425c2.018-2.287,4.035-4.439,6.053-6.725,6.456,5.918,12.912,11.836,19.5,17.755a180.31,180.31,0,0,1-34.433,58.778c-8.07,2.825-16.275,5.515-24.345,8.339-2.825-3.094-5.515-6.322-8.339-9.415-11.971,11.567-23.673,24.614-35.643,36.316-8.474-22.6-18.831-42.772-33.357-53.129-.135-6.053-.4-12.24-.538-18.292,8.743.4,17.486.807,26.094,1.076-.135-8.474-.4-17.216-.538-25.959-12.643-20.848-7.263-40.486,17.755-57.568C490.114,226.98,490.248,231.284,490.383,236.53Z" transform="translate(153.852 76.292)"/><path class="c" d="M528.211,249.384c11.433-2.556,24.749-7.129,36.316-9.684l51.649,33.895c6.053,11.7,12.24,23.4,18.292,34.971-20.579,11.164-4.17,22.866,16.678,40.62-3.094,5.649-6.322,11.567-9.415,17.216,4.439,2.959,7.936,4.573,12.374,7.532-13.316,16.678-23.4,29.187-36.854,45.866-7.8-2.018-18.158-.538-28.515-.134,0,1.883,1.48,6.053,1.48,7.8-5.649,4.842-13.719,7.263-24.749,7.129-.4-2.421-.672-4.842-1.076-7.263-5.784-3.228-11.567-6.591-17.216-9.953.135-10.76.4-21.521.538-32.281,4.708-18.293,14.661-22.6,25.556-25.018-2.825-3.363-5.649-6.725-8.474-9.953H538.164c-4.977-6.187-9.953-12.24-15.064-18.427,12.105-10.357,23-33.357,33.895-57.164C548.252,265.659,537.357,258.4,528.211,249.384Z" transform="translate(180.316 82.537)"/><path class="c" d="M549.568,412.709c-2.825,2.556-5.515,5.246-8.339,7.8-30.4-15.468-60.8-31.474-76.129-57.971,2.959-7.8,6.187-9.55,9.146-17.485,11.567-11.433,24.345-24.345,35.778-35.778,2.556,2.959,5.111,5.918,7.8,8.877,8.743-3.228,17.485-6.591,26.094-9.953,4.977,6.053,9.953,12.24,15.064,18.427,9.146.135,18.562.269,27.842.538,2.556,2.959,5.111,6.053,7.8,8.877-14.661,2.421-23.673,10.895-27.17,25.556v32.281c5.38,3.363,10.76,6.725,16.14,9.953.538,2.421,1.211,4.842,1.614,7.263,3.228.135,6.456.4,9.55.538-.807,3.9-1.479,7.8-2.287,11.567-4.708,8.2-10.222,14.93-14.8,23.135C565.843,438.938,557.639,427.639,549.568,412.709Z" transform="translate(160.304 106.172)"/><path class="c" d="M486.092,348.3c20.176,27.17,46.538,45.059,77.743,57.568-16.678,5.246-33.357,11.836-50.035,16.948v17.216c-3.363,2.556-6.725,5.246-9.953,7.8-8.2-5.515-16.409-11.029-24.48-16.678,5.38,5.649,10.76,11.164,16.14,16.678-2.959,3.228-5.918,6.322-8.877,9.55-5.246-.134-10.491-.4-15.6-.538,2.825,2.825,5.515,5.649,8.339,8.339-8.743.538-17.485,1.211-26.094,1.749-22.059-4.977-38.334-17.216-50.573-34.433,5.649-15.2,12.374-28.515,18.158-43.714C442.917,375.739,464.034,361.212,486.092,348.3Z" transform="translate(138.774 120.008)"/><path class="c" d="M572.1,427.638c.269-4.573.538-9.146.942-13.719-7.4-7.4-13.047-17.755-18.158-28.918-2.959,8.877-30.8,15.737-58.644,25.825-.135,5.918-.269,11.836-.538,17.62-2.959,2.287-5.784,4.573-8.743,6.86-8.474-5.515-16.948-11.164-25.421-16.678,5.649,5.918,11.433,11.7,17.082,17.62l-9.281,9.281c-5.38-.538-10.76-.942-16.14-1.48,5.918,5.784,11.7,11.7,17.62,17.485-.135,2.556-.269,5.246-.538,7.8,22.328,2.556,38.872,17.62,51.38,41.024.269-2.152.672-4.3.942-6.456,6.187,1.883,11.971,1.614,18.158.942-3.094-3.363-6.187-6.725-9.281-10.222,5.38-5.649,10.76-11.164,16.14-16.678-2.556-3.363-5.111-6.86-7.8-10.222,4.977-4.439,10.088-8.877,15.064-13.181.269-6.053.673-12.105.942-18.158C561.341,433.825,566.721,430.731,572.1,427.638Z" transform="translate(156.198 132.671)"/><path class="c" d="M397.3,434.98c2.421-8.2,4.842-16.409,7.4-24.48,12.778,17.216,28.649,30.667,51.38,35.778v13.181c-8.743,9.415-17.351,18.831-25.959,28.38-3.094-.135-6.187-.4-9.281-.538-2.556-9.415-6.053-18.561-16.14-25.421C405.908,448.565,403.487,439.687,397.3,434.98Z" transform="translate(136.911 141.47)"/><path class="c" d="M430.2,478.917h-7.8c8.07-8.877,16.006-17.62,24.076-26.5.135-5.918.269-11.7.538-17.62,8.2.135,16.544.4,24.883.538,3.363,2.825,6.86,5.649,10.222,8.339-.269,2.959-.673,5.918-.942,8.877,22.731,3.766,36.451,15.871,51.38,41.965,1.883,8.877-.538,15.2-7.4,19.1-11.029,1.211-21.924,2.556-34.164,0v7.4c-3.228.807-6.456,1.211-9.819-.538-1.345-2.018-1.614-4.708-.538-7.8-2.421-1.211-4.977-3.228-7.4-.538.538,3.363-.135,6.725-.942,10.222-5.649-2.287-10.76-2.556-15.064-.942V530.7c-9.146-6.591-18.293-13.047-27.439-19.5Q430,495.058,430.2,478.917Z" transform="translate(145.571 149.854)"/><path class="c" d="M404.893,525.66c6.187-14.661,15.2-27.573,33.76-33.76,9.281,5.515,18.561,11.836,27.842,18.562-3.363,18.158,5.515,29.322,8.2,40.486h17.62c2.825,3.632,5.515,7.263,8.339,10.895-5.515,2.556-11.164,5.111-16.678,7.8,9.012,7.4,4.035,8.339-2.959,8.339-2.421-2.825-4.842-5.515-7.4-8.339h-8.339v7.8c-2.421-2.556-4.842-5.246-7.263-7.8a53.1,53.1,0,0,1-8.877,14.257h7.8c-2.556,3.632-4.977,7.4-7.4,11.3-11.971.807-23.807,1.614-35.643,0a73.169,73.169,0,0,1-10.222-10.222l9.684-8.877c-.942-4.977-.269-10.088,0-15.2-2.152-5.649-5.38-11.3-8.743-17.082h-8.339a88.433,88.433,0,0,1,.538-25.959C399.648,520.415,402.2,522.97,404.893,525.66Z" transform="translate(136.312 169.556)"/><path class="c" d="M349.56,443.574c-.134,2.556-.269,5.246-.538,7.8-3.363,3.094-6.725,6.187-10.222,9.281,5.918,5.784,11.836,11.7,17.62,17.62.135,4.17.269,8.474.538,12.643,3.228,1.883,5.111,4.842,8.474,6.725-.135-3.228,1.076-6.053.807-9.281,6.322,21.655,14.93,18.427,25.421,25.018,2.556-2.959,4.977-5.918,7.4-8.877,3.5,2.556,6.86,5.246,10.222,7.8,5.649-2.556,11.433-5.246,17.082-7.8,4.708,5.515,9.415,11.164,14.123,16.678,6.053-3.632,12.105-7.129,18.158-10.76V478.679c-5.246.269-11.836.135-17.082.538-3.228-11.3-8.07-19.5-16.409-27.17-1.883-1.749-.135-6.322-1.211-8.608-2.556.135-5.246.4-7.8.538-2.825-2.959-5.515-5.784-8.339-8.877-6.322,12.509-18.427,9.684-33.222,0,.269,2.959.673,5.918.942,8.877C366.911,443.977,358.3,443.708,349.56,443.574Z" transform="translate(116.726 149.958)"/><path class="c" d="M444.317,383.3c3.632-6.053-1.48-14.392-7.8-23h-34.7c-10.088,2.556-20.176,7.667-25.959,17.485-8.474,4.3-20.176,4.842-23.942,16.275-6.053-.269-11.971-.673-18.023-.942-2.287,28.784,6.994,52.86,17.082,76.667,8.743.135,17.351.4,25.959.538-.269-3.228-.673-6.456-.942-9.819,18.831,12.643,29.053,11.3,33.222.538,6.456,8.07,12.24,11.164,17.62,9.281.807-7.4-1.883-13.585-8.339-18.562C426.966,428.9,435.575,406.166,444.317,383.3Z" transform="translate(114.911 124.149)"/><path class="d" d="M348.585,470.682v31.339c-12.24.135-24.345.4-36.451.538-1.749-2.287,1.883-6.456-.4-8.07-6.725-4.977-15.333-11.836-14.8-24.211a67.56,67.56,0,0,1-18.158,11.3c1.614-4.3.538-8.07-.538-11.3q-2.825,12.912-16.544,9.281c-.135-10.088-2.825-15.333-7.8-15.737-.135-9.55-.269-19.234-.538-28.784H246.9c44.386-21.117,78.819-31.07,91.328-16.678,8.474-2.421,16.947-4.842,25.421-7.4.134-8.743.269-17.485.538-26.363-3.5,15.064,3.228,42.772,16.275,75.591,1.211,3.228-1.345,5.918-.135,9.415C369.3,470.01,359.614,470.413,348.585,470.682Z" transform="translate(85.017 132.533)"/><path class="c" d="M232.8,409.666c21.924-13.988,40.62-30.4,52.725-51.784,2.287,5.649,4.573,10.895,6.725,16.678,21.521-3.363,35.374-14.392,41.965-33.76,11.567,9.55,19.772,20.714,26.5,32.684-2.018,11.3-2.556,21.79,7.8,26.9.269,8.474.538,16.947.942,25.421-9.55,2.959-17.082,5.38-26.5,8.339-10.895-16.14-49.9-2.287-92.673,17.082-9.415-5.918-10.222-16.14-9.819-26.9,2.825.538,5.649.942,8.339,1.48C243.56,420.426,238.18,414.912,232.8,409.666Z" transform="translate(80.152 117.421)"/><path class="c" d="M226.335,416.143c2.556,3.363,5.246,6.86,7.8,10.222,20.983-13.719,40.351-29.725,53.8-53.263,2.421,6.053,4.842,11.164,7.263,17.082,21.521-4.035,34.971-16.006,43.041-34.7,1.345-10.222,7.8-18.427,17.485-25.421,2.287-8.2,4.573-16.409,6.86-24.48L337.569,296.3c-17.082,6.053-34.433,12.105-51.649,18.158-36.316,19.5-28.38,65.907-59.72,86.486l7.4,6.456Z" transform="translate(77.875 102.067)"/><path class="c" d="M111.14,391.918c-5.38-11.3-10.76-22.731-16.14-34.164,13.719-2.287,26.228-6.053,34.7-15.6-.135-2.825-.269-5.649-.538-8.339H196.55c5.38-18.7,17.754-30.129,41.024-34.3,9.146.4,17.082.269,26.228.538,7.532-7.667,19.5-10.626,33.357-9.819l34.7,25.825c-37.392,19.234-24.883,60.527-60.661,87.024Q263.331,394,255.463,384.52c-2.69-.135-5.515-.4-8.339-.538-.269,5.38-.538,10.76-.942,16.141-5.246-4.842-10.357-9.819-15.6-14.661H202.738c3.228-8.608,6.456-17.351,9.819-25.959H197.492c.135,2.959.269,5.918.538,8.877-6.187.269-12.374.672-18.562.942l-24.48,24.48c-8.474-3.094-13.988-1.883-18.158,7.8C127.953,399.854,118.135,400.257,111.14,391.918Z" transform="translate(32.606 99.929)"/><path class="c" d="M334.5,320.759c5.246-11.433,10.357-22.731,15.6-34.029h9.281c2.556-11.433,5.784-22.6,8.474-34.029.134,6.86-.269,13.45-.135,20.31,41.158-4.708,85.141-22.731,102.223-1.614,4.977,8.07,6.86,17.755,15.064,23.942-.135,6.187.538,10.491.538,16.813-4.977-.538-10.76.807-15.6.269-2.959,5.918-5.38,10.357-8.339,16.275-5.649-.538-11.971.4-17.62-.135-.538,3.363.135,5.918-.538,9.281-4.977,7.8-11.433,16.678-16.409,24.345.135,3.094.269,6.187.538,9.281,8.608,8.608,17.216,17.216,25.825,25.959-3.094,4.3-6.187,8.877-9.281,13.181-2.959-4.708-5.784-9.55-8.743-14.123-11.433.269-22.866.538-34.3.942-2.152-18.293-7.667-28.246-14.661-34.3-6.187-.135-12.374-.269-18.561-.538-.135-5.784-.269-11.7-.538-17.485C356.29,337.034,345.395,328.829,334.5,320.759Z" transform="translate(115.242 87.023)"/><path class="e" d="M246.6,302.318c4.977-16.14,9.819-32.415,14.661-48.69,11.029-.807,22.866,3.094,34.7,7.8,11.836,29.053,39.948,35.913,58.509,59.451-8.339-3.228-16.14-6.053-24.345-9.281-16.813,6.053-33.76,12.105-50.708,18.158C268.524,320.61,257.495,311.6,246.6,302.318Z" transform="translate(84.914 87.306)"/><path class="c" d="M216.491,233.735c9.953-.269,16.678.269,26.632-.135,10.222,1.614,19.638,9.415,25.018,25.825,4.977.538,11.3-.135,16.409.269-4.977,16.544-10.626,34.971-15.6,51.515-14.123-4.17-25.825-.807-35.643,7.8-16.813-.269-33.626-.4-50.3,7.8,2.825-25.556,5.515-50.977,8.339-76.667,3.094.135,6.187.269,9.281.538C205.328,245.705,211.918,238.846,216.491,233.735Z" transform="translate(62.969 80.433)"/><path class="c" d="M214.3,187.2c9.819-24.345,31.339-42.369,50.3-61.6,2.825,3.632,5.515,7.129,8.339,10.76,2.959-.135,5.784-.269,8.877-.538V160.84c5.649.269,11.3.538,17.082.942.134,7.4.269,16.14,1.076,25.018,4.708,11.836,7.8,23.4-.673,31.339-.538,9.146.538,18.427.538,27.573l-18.965,7.263c-5.38-13.585-10.088-24.614-15.333-32.281-10.222-4.035-20.445-7.4-33.088-8.2C226.405,204.15,220.218,195.811,214.3,187.2Z" transform="translate(73.769 43.169)"/><path class="c" d="M195.8,244.254c17.486-8.07,34.836-16.275,52.322-24.345.942-11.567,22.059-34.7,48.959-61.065V109.481c6.187-8.743,12.374-17.485,18.562-26.363-.942-20.176-.807-31.339-1.749-51.515-3.766,5.246-5.784,4.035-8.07,8.474-7.667-2.556-15.737-5.38-25.018-8.877-3.632,3.9-6.322,7.532-9.819,11.433,3.5,7.667,6.053,15.6,9.415,23.269h-8.743c.135,14.661-.269,26.5-.135,41.024-5.649-6.053-10.491-9.146-16.14-15.064-9.146-.135-18.158-.4-27.439-.538-12.509,11.567-24.48,21.386-32.684,17.082-5.784,6.187-10.222,10.491-16.006,16.678-4.573-3.766-10.76-5.515-15.333-9.281-17.082,13.988-28.111,32.281-44.924,26.9,12.374,32.953,35.778,45.866,52.86,61.065,2.69,7.532,5.918,17.485,8.743,24.883C185.714,233.9,190.69,239.143,195.8,244.254Z" transform="translate(40.887 10.597)"/><path class="c" d="M60.22,145.761c-15.6-3.9-23.673-1.614-26.632,8.474.538,5.918-.135,12.643.269,18.427-9.684-3.228-12.509-.134-8.339,9.281,11.3,8.339,11.029,16.14-.942,23.4C16.506,198.621,8.57,213.954.5,241.124c11.164,13.719,19.234,25.825,23,40.62,11.971-.135,24.076-.4,36.181-.538a145.8,145.8,0,0,0,59.72-41.965v-69c-15.6-1.749-32.819-.673-41.562-13.719C69.366,155.58,63.448,151.948,60.22,145.761Z" transform="translate(0 49.505)"/><path class="c" d="M88.034,164.925c8.07-3.094,16.006-6.187,23.942-9.281,6.053,3.228,12.105,6.591,18.158,9.819,8.474-8.743,16.947-17.485,25.421-26.363,16.678,12.643,27.842,19.5,34.029,27.842,4.708,6.456,5.649,14.661,7.936,22.059-12.643,5.38-22.731,11.3-16.14,20.041,1.614,2.421,3.228,4.842,4.977,7.263-10.222,16.678-20.176,33.357-30.263,49.9-3.5-2.556-6.86-5.246-10.222-7.8-12.24,6.994-23.673,14.93-32.684,25.018l7.263,16.544c-24.883.135-43.714-10.491-51.649-33.895,8.877-7.263,18.427-14.8,27.17-24.211-.135-22.866-.4-45.6-.538-68.462C92.876,170.574,90.455,167.749,88.034,164.925Z" transform="translate(23.566 47.827)"/><path class="f" d="M46.215,131.205c-2.959-.4-5.918-.673-8.877-.942-.135-8.877-.269-17.62-.538-26.5,3.363-3.094,6.86-6.187,10.222-9.281,3.9,4.439,6.591,10.088,8.339,16.678-.269-3.094,1.749-6.591,1.345-9.684,3.766-6.187,7.8-8.2,16.813-6.994-.4,2.959-.673,5.918-.942,8.877,2.69-.135,5.515-.269,8.2-.538-2.018,14.8,2.421,21.79,7.8,26.363,0-3.094.807-6.187.807-9.146h18.158c-.673,9.146,2.287,13.854,8.07,16.544-.134-2.556-.4-5.246-.538-7.8h17.485c-.135,2.556.134,5.649-.135,8.07h6.86c-1.749-6.053.269-12.374,6.994-17.485,6.725,11.836,13.719,23.538,20.579,35.24-8.877,9.146-17.62,18.158-26.5,27.439-5.515-4.17-11.029-8.2-16.544-12.24-8.877,3.632-17.62,7.129-26.5,10.76,2.959,2.556,5.918,5.246,8.877,7.8-17.889-2.018-33.491-3.363-40.755-14.93-7.667.269-14.392-5.38-19.907-11.433C45.946,151.784,46.081,141.428,46.215,131.205Z" transform="translate(12.525 32.318)"/><path class="c" d="M20.1,251.727c.538,8.877,1.211,17.62,1.883,26.363,5.38,4.977,10.76,9.819,16.14,14.661-2.959,5.515-5.784,10.895-8.743,16.409H21.043c-8.877,19.234-11.3,34.7,0,42.1.269,8.877-.942,17.485-.673,26.5-3.228,5.649-4.842,11.836-8.07,17.485,11.836,2.556,19.907,8.2,24.345,17.082,6.456-2.69,12.643-5.515,19.1-8.2,2.825,3.363,5.515,6.725,8.339,10.222,3.766-4.035,7.4-8.07,11.3-12.24-3.363-2.69-6.86-3.9-10.222-6.725,7.936-1.614,16.006-4.842,23.942-6.456,5.918,7.8,10.222,15.333,16.14,23,5.515-2.69,12.643-5.111,18.158-7.8,5.649,2.959,11.3,5.784,17.082,8.877-5.515-11.836-11.029-23.538-16.544-35.24,11.567-2.556,23.135-4.439,34.7-15.6-.269-3.5-.673-6.86-.942-10.222,6.053.135,11.971.269,18.158.538-.4-20.041-.673-40.082-.942-59.989-11.433-8.07-22.866-16.275-34.3-24.48-26.228,1.48-42.5-11.567-51.784-34.7-10.088,6.725-20.579,12.643-31.743,16.14C44.446,250.113,32.207,251.054,20.1,251.727Z" transform="translate(4.071 80.329)"/><path class="c" d="M186.582,195.8l25.825,34.3c-3.363,5.111-6.725,10.357-10.222,15.6v18.562c5.918.134,11.7.269,17.62.538-2.556,25.421-5.246,50.708-7.8,76.129-11.029,6.322-14.661,15.468-17.082,25.018-17.082.269-34.164.538-51.246.942.269-20.579.538-41.024.942-61.468-11.971-8.474-23.807-16.947-35.778-25.421-2.69-5.515-5.515-11.029-8.339-16.544,11.433-8.07,22.866-16.275,34.3-24.48,3.094,2.556,6.187,4.977,9.281,7.4,10.357-16.813,20.848-33.491,31.339-50.3C179.05,195.8,182.816,195.8,186.582,195.8Z" transform="translate(34.504 67.39)"/><path class="c" d="M319.7,221.248c3.228-17.082,11.971-23.673,7.263-48.287-16.275-8.339-32.415-10.76-48.825-7.263-.134,2.959-.134,5.784-.134,8.743,7.129,10.895,6.053,21.252-.807,31.339.135,6.322.4,12.643.538,18.831,11.3,14.93,23.135,29.725,32.146,45.462a35.447,35.447,0,0,1,3.766.269A27.084,27.084,0,0,1,315,275.049a45.241,45.241,0,0,0,4.842.269C321.183,257.7,316.341,238.33,319.7,221.248Z" transform="translate(95.472 56.469)"/><path class="c" d="M303.768,252.956c-13.988-8.474-25.825-16.947-39.948-25.556-7.936,11.3-12.778,22.6-17.62,33.76,14.661-.538,30.936,1.614,50.3,8.2,2.825-2.152,4.573-4.3,7.263-6.456A14.093,14.093,0,0,1,303.768,252.956Z" transform="translate(84.776 78.293)"/><path class="c" d="M312.053,255.18a39.534,39.534,0,0,1-9.012,8.743c-3.632.4-7.4.807-11.164,1.076-1.614-3.228-2.556-6.725-.538-10.895,0-.134-.134-.269-.134-.4-2.825,2.421-5.38,4.708-8.2,7.129,10.76,26.9,37.392,36.181,59.585,60.527,3.632-.538,7.129-.942,10.76-1.48,4.977-10.895,10.088-21.79,15.064-32.684C349.579,276.566,330.749,265.805,312.053,255.18Z" transform="translate(97.473 87.368)"/><path class="c" d="M300.3,257.659A44.828,44.828,0,0,1,316.84,254.7c-10.491-15.468-20.848-30.263-31.608-46l-1.614,8.877c-8.339,5.515-16.678,11.029-25.018,16.678,13.719,8.07,27.573,16.14,41.427,24.211A1.912,1.912,0,0,1,300.3,257.659Z" transform="translate(89.054 71.841)"/><path class="c" d="M359.14,250.316c-1.48-5.649-2.959-11.433-4.439-17.216-15.064.134-29.994.4-45.059.538v17.216h-4.3a28.99,28.99,0,0,1,0,10.222,2.361,2.361,0,0,1-.538.673q28.246,16.342,56.492,32.415c2.825-.4,5.515-.807,8.339-1.211,3.228-14.392,6.725-28.918,9.953-43.31C372.859,250.047,366,250.047,359.14,250.316Z" transform="translate(104.995 80.26)"/></g></g></svg>