<?xml version="1.0" standalone="no"?>
<!DOCTYPE svg PUBLIC "-//W3C//DTD SVG 20010904//EN"
 "http://www.w3.org/TR/2001/REC-SVG-20010904/DTD/svg10.dtd">
<svg version="1.0" xmlns="http://www.w3.org/2000/svg"
 width="700.000000pt" height="700.000000pt" viewBox="0 0 700.000000 700.000000"
 preserveAspectRatio="xMidYMid meet">
<metadata>
Created by potrace 1.11, written by Peter Selinger 2001-2013
</metadata>
<g transform="translate(0.000000,700.000000) scale(0.100000,-0.100000)"
fill="#000000" stroke="none">
<path d="M3465 6412 c-16 -9 -46 -27 -65 -38 -19 -12 -60 -35 -90 -51 -30 -16
-78 -44 -106 -61 -28 -18 -54 -32 -57 -32 -4 0 -31 -16 -61 -35 -30 -19 -57
-35 -60 -35 -3 0 -102 -55 -176 -99 -23 -14 -641 -366 -680 -388 -19 -11 -60
-35 -90 -52 -30 -18 -62 -37 -70 -41 -77 -45 -161 -90 -169 -90 -5 0 -11 -4
-13 -8 -3 -8 -175 -110 -272 -160 -26 -14 -55 -37 -63 -49 -14 -21 -16 -274
-17 -2341 -1 -1274 1 -2327 2 -2339 4 -21 6 -20 71 18 36 22 73 44 81 49 8 6
22 13 30 17 8 4 38 22 67 40 29 18 55 33 58 33 4 0 26 14 50 30 24 17 46 30
50 30 3 0 22 11 43 24 64 41 536 317 602 352 19 11 37 22 40 25 3 4 23 16 45
28 22 12 56 31 75 43 19 12 44 26 55 32 135 74 234 141 240 163 3 13 5 673 5
1466 -1 793 1 1449 5 1458 3 9 20 23 38 32 35 18 66 35 290 163 82 47 162 87
178 89 23 3 56 -11 138 -59 59 -34 114 -66 122 -69 8 -4 32 -18 54 -32 22 -14
47 -28 55 -32 8 -4 33 -18 55 -32 22 -14 54 -32 70 -41 l30 -15 0 -1168 c0
-642 1 -1167 2 -1167 1 0 24 12 50 27 26 15 57 32 68 37 11 6 31 18 45 27 29
18 248 147 300 177 48 27 142 80 160 91 49 30 368 218 385 227 11 6 98 56 193
112 95 56 175 102 177 102 10 0 101 66 109 79 6 9 10 486 10 1159 l1 1143 -25
23 c-28 25 -146 96 -161 96 -5 0 -9 5 -9 10 0 6 -6 10 -14 10 -8 0 -16 3 -18
8 -1 4 -28 20 -58 36 -30 16 -130 73 -222 128 -92 54 -169 98 -171 98 -2 0
-53 29 -112 65 -59 36 -108 65 -111 65 -2 0 -44 25 -94 55 -50 30 -92 55 -95
55 -2 0 -39 21 -82 46 -43 26 -91 55 -108 64 -261 150 -373 215 -386 226 -8 8
-19 14 -23 14 -7 0 -191 106 -246 140 -52 34 -91 41 -125 22z"/>
</g>
</svg>
