<svg xmlns="http://www.w3.org/2000/svg" xmlns:xlink="http://www.w3.org/1999/xlink" width="232" height="149" viewBox="0 0 232 149"><defs><path id="s4uca" d="M494.886 476.14h53.001c0-.245-1.47-29.4-1.47-29.563 0 0-2.776-7.023-7.105-7.758-4.41-.735-9.963-2.287-12.331-4.002-1.388-1.061-5.88-2.858-7.922-3.593-.98-.327-2.613-3.185-3.185-4.492-.571-1.306-4.491-3.92-5.553-4.083l-.163-5.39 11.433-3.511s2.94-1.389 3.267-1.389c.326 0-1.389-2.205-1.552-2.776-.245-.572-1.307-4.492-1.307-4.492s3.839 4.737 5.799 5.635c0 0-3.839-7.187-4.982-11.27-1.143-4.002-1.878-10.29-1.878-10.862 0-.571-2.369-17.476-3.675-20.253-1.307-2.776-3.022-6.615-6.044-8.493-3.021-1.878-7.431-4.492-13.801-4.9H496.846c-6.37.327-10.861 3.022-13.801 4.9-3.022 1.878-4.737 5.635-6.044 8.493-1.306 2.777-3.675 19.682-3.675 20.253 0 .572-.653 7.105-1.796 11.107-1.144 4.002-5.064 10.943-5.064 10.943 1.96-.898 5.799-5.635 5.799-5.635s-1.389 4.329-1.634 4.9c-.245.572-1.551 2.369-1.225 2.369.245 0 3.267 1.388 3.267 1.388l11.433 3.511-.163 5.39c-.98.164-4.982 2.777-5.553 4.084-.409.816-4.737 7.105-5.472 8.166"/><path id="s4ucb" d="M407.177 430.08l-6.452-2.613c-5.39-2.45-8.166-4.246-9.555-4.573-.571-1.062-1.715-9.31-1.715-9.31s6.452-5.716 7.922-16.578c0 0 3.185 1.797 3.348-4.9.164-5.145 1.062-7.105-2.45-8.575 0 0 .245-3.512.327-6.697.163-4.654 1.062-11.188-7.023-16.414-1.144-.735-7.024-4.002-7.105-4.002-2.124-1.307-4.819-2.123-4.819-2.123l.082 1.96-.408-.409c-.49-.571-.817-2.695-.817-3.511l.082-1.47c-3.838 2.858-6.452 6.533-6.452 6.533l.327-3.593s-.735 1.061-9.473 6.533c-8.575 5.308-7.187 13.23-6.942 17.885.163 3.103.49 5.308.49 5.308-3.512 1.47-1.633 3.593-1.552 8.738.082 7.105 3.675 5.799 3.675 5.799 1.634 9.636 6.697 15.516 6.697 15.516s-1.143 8.33-1.715 9.392c-1.552.326-5.227 2.858-12.903 6.043-11.27 4.655-7.759 1.96-16.905 6.533-14.537 7.269-11.597 37.485-11.597 37.485h51.368"/><path id="s4ucc" d="M497.091 492.8c0-8.656-9.718-45.08-9.718-45.08 0-5.308-7.023-11.433-20.825-14.944-7.187-1.879-13.148-5.962-13.148-5.962-.899-.49-.735-5.145-.735-5.145l-4.41-.653c0-.409-.408-5.962-.408-5.962 5.308-1.796 4.736-12.25 4.736-12.25 3.348 1.879 5.553-6.451 5.553-6.451 4.002-11.515-1.96-10.862-1.96-10.862 1.879-8.657 0-21.233 0-21.233-2.695-23.275-42.793-16.905-38.056-9.31-11.678-2.123-9.065 24.336-9.065 24.336l2.532 6.86c-4.982 3.185-1.552 7.105-1.388 11.597.245 6.615 4.328 5.227 4.328 5.227.245 10.943 5.635 12.331 5.635 12.331.98 6.86.408 5.717.408 5.717l-4.818.571c.245 1.715-.409 4.655-.409 4.655-5.716 2.532-6.86 4.002-12.494 6.452-10.862 4.737-22.704 10.862-24.827 19.192-1.96 8.166-8.248 40.914-8.248 40.914H497.09z"/><path id="s4uce" d="M366.879 492.656a3.343 3.343 0 1 1 6.686 0 3.343 3.343 0 0 1-6.686 0z"/><path id="s4ucf" d="M493.879 492.656a3.343 3.343 0 1 1 6.686 0 3.343 3.343 0 0 1-6.686 0z"/><path id="s4ucg" d="M446.879 420.656a3.343 3.343 0 1 1 6.686 0 3.343 3.343 0 0 1-6.686 0z"/><path id="s4uch" d="M414.879 420.656a3.343 3.343 0 1 1 6.686 0 3.343 3.343 0 0 1-6.686 0z"/><path id="s4uci" d="M319 472.832a3.343 3.343 0 1 1 6.686 0 3.343 3.343 0 0 1-6.686 0z"/><path id="s4ucj" d="M360 422.832a3.343 3.343 0 1 1 6.686 0 3.343 3.343 0 0 1-6.686 0z"/><path id="s4uck" d="M388 422.832a3.343 3.343 0 1 1 6.686 0 3.343 3.343 0 0 1-6.686 0z"/><path id="s4ucl" d="M404 429.832a3.343 3.343 0 1 1 6.686 0 3.343 3.343 0 0 1-6.686 0z"/><path id="s4ucm" d="M470 434.832a3.343 3.343 0 1 1 6.686 0 3.343 3.343 0 0 1-6.686 0z"/><path id="s4ucn" d="M481 422.832a3.343 3.343 0 1 1 6.686 0 3.343 3.343 0 0 1-6.686 0z"/><path id="s4uco" d="M507 422.832a3.343 3.343 0 1 1 6.686 0 3.343 3.343 0 0 1-6.686 0z"/><path id="s4ucp" d="M544 475.832a3.343 3.343 0 1 1 6.686 0 3.343 3.343 0 0 1-6.686 0z"/><linearGradient id="s4ucd" x1="433.43" x2="433.43" y1="348" y2="492.8" gradientUnits="userSpaceOnUse"><stop offset="0" stop-color="#00b3ef" stop-opacity="0"/><stop offset="1" stop-color="#fff" stop-opacity=".5"/></linearGradient></defs><g><g transform="translate(-319 -347)"><g><g opacity=".5"><use fill="#fff" fill-opacity="0" stroke="#00b3ef" stroke-miterlimit="50" xlink:href="#s4uca"/></g></g><g><g opacity=".5"><use fill="#fff" fill-opacity="0" stroke="#00b3ef" stroke-miterlimit="50" xlink:href="#s4ucb"/></g></g><g><g><use fill="url(#s4ucd)" xlink:href="#s4ucc"/><use fill="#fff" fill-opacity="0" stroke="#00b3ef" stroke-miterlimit="50" xlink:href="#s4ucc"/></g></g><g><use fill="#fff" xlink:href="#s4uce"/></g><g><use fill="#fff" xlink:href="#s4ucf"/></g><g><use fill="#fff" xlink:href="#s4ucg"/></g><g><use fill="#fff" xlink:href="#s4uch"/></g><g><use fill="#7ea5e3" xlink:href="#s4uci"/></g><g><use fill="#7ea5e3" xlink:href="#s4ucj"/></g><g><use fill="#7ea5e3" xlink:href="#s4uck"/></g><g><use fill="#7ea5e3" xlink:href="#s4ucl"/></g><g><use fill="#7ea5e3" xlink:href="#s4ucm"/></g><g><use fill="#7ea5e3" xlink:href="#s4ucn"/></g><g><use fill="#7ea5e3" xlink:href="#s4uco"/></g><g><use fill="#7ea5e3" xlink:href="#s4ucp"/></g></g></g></svg>