<svg xmlns="http://www.w3.org/2000/svg" viewBox="0 0 109.011 46.231"><defs><style>.a{fill:#8e99a6;}</style></defs><g transform="translate(4 1.525)"><g transform="translate(-3.995 -1.52)"><g transform="translate(-0.005 -0.006)"><path class="a" d="M17.7,45.553A23.092,23.092,0,0,1,16.82.873Q10.966,17.022,5.045,33.239H9.553c.269,0,.4-.067.471-.336,2.019-5.518,3.97-10.968,5.989-16.486a.47.47,0,0,1,.538-.4h3.3L13.591,33.171h4.576c.269,0,.336-.067.471-.336,1.884-5.249,3.768-10.5,5.72-15.678a3.393,3.393,0,0,0,.2-1.817,2.752,2.752,0,0,0-2.692-2.355c-1.346-.067-2.692,0-4.037,0h-.471c.067-.2.067-.336.135-.4C18.974,8.544,20.454,4.439,21.934.4a.47.47,0,0,1,.538-.4,23.107,23.107,0,0,1,5.45,45.689,25.863,25.863,0,0,1-5.114.538h-.4c.067-.135.067-.269.135-.4,1.48-4.1,2.961-8.142,4.441-12.247.067-.269.2-.336.471-.336h5.989a3.109,3.109,0,0,0,3.028-2.153c1.682-4.576,3.3-9.151,4.979-13.727a3.589,3.589,0,0,0,.269-1.884,2.7,2.7,0,0,0-2.692-2.422H30.009c-.336,0-.538.067-.606.4C25.568,24.02,21.733,34.517,17.9,45.082,17.83,45.216,17.762,45.418,17.7,45.553Z" transform="translate(0.005 0.006)"/><path class="a" d="M41.9,38c.067-.135.067-.269.135-.4,1.615-4.441,3.23-8.949,4.845-13.39a.47.47,0,0,1,.538-.4h3.23c-.067.135-.067.269-.135.4-1.615,4.441-3.23,8.949-4.845,13.39-.067.269-.2.336-.471.336C44.121,37.931,43.044,38,41.9,38Z" transform="translate(-13.702 -7.781)"/></g><g transform="translate(59.549 10.091)"><path class="a" d="M88.5,22.971l.673-.74a3.223,3.223,0,0,0,2.355,1.077c1.144,0,1.817-.538,1.817-1.413s-.606-1.144-1.413-1.548l-1.211-.538a2.409,2.409,0,0,1-1.75-2.221A2.426,2.426,0,0,1,91.663,15.3a3.719,3.719,0,0,1,2.557,1.077l-.673.74a2.862,2.862,0,0,0-1.951-.807c-.942,0-1.615.471-1.615,1.278s.74,1.144,1.413,1.413l1.211.538a2.323,2.323,0,0,1,1.75,2.288c0,1.346-1.144,2.422-2.961,2.422A3.978,3.978,0,0,1,88.5,22.971Z" transform="translate(-88.5 -15.098)"/><path class="a" d="M99.6,22.064a3.089,3.089,0,0,1,2.893-3.364c1.615,0,2.557,1.144,2.557,2.961a1.671,1.671,0,0,1-.067.606h-4.306a2.089,2.089,0,0,0,2.086,2.221,2.738,2.738,0,0,0,1.615-.538l.4.74a3.841,3.841,0,0,1-2.086.673A3.024,3.024,0,0,1,99.6,22.064Zm4.441-.538c0-1.278-.606-1.951-1.548-1.951a1.975,1.975,0,0,0-1.817,1.951Z" transform="translate(-92.131 -16.21)"/><path class="a" d="M110.6,18.8h.875l.067,1.144h.067a2.244,2.244,0,0,1,1.817-1.346,1.991,1.991,0,0,1,.673.135l-.2.942a1.607,1.607,0,0,0-.606-.135c-.538,0-1.211.4-1.615,1.48v4.1H110.6V18.8Z" transform="translate(-95.729 -16.178)"/><path class="a" d="M117.2,18.9h1.144l1.211,3.634c.2.606.4,1.278.606,1.884h.067c.2-.606.4-1.278.606-1.884l1.211-3.634h1.077l-2.288,6.392h-1.278Z" transform="translate(-97.888 -16.276)"/><path class="a" d="M128,15.673a.744.744,0,1,1,.74.673A.692.692,0,0,1,128,15.673Zm.2,1.951h1.077v6.392H128.2Z" transform="translate(-101.421 -15)"/><path class="a" d="M133,22.064a3.08,3.08,0,0,1,3.1-3.364,2.822,2.822,0,0,1,1.884.74l-.538.74a1.838,1.838,0,0,0-1.278-.538c-1.144,0-2.019,1.009-2.019,2.49s.807,2.422,1.951,2.422a2.27,2.27,0,0,0,1.48-.606l.471.74a3.009,3.009,0,0,1-2.086.807A3.157,3.157,0,0,1,133,22.064Z" transform="translate(-103.057 -16.21)"/><path class="a" d="M142.1,22.064a3.089,3.089,0,0,1,2.893-3.364c1.615,0,2.557,1.144,2.557,2.961a1.671,1.671,0,0,1-.067.606h-4.306a2.089,2.089,0,0,0,2.086,2.221,2.738,2.738,0,0,0,1.615-.538l.4.74a3.841,3.841,0,0,1-2.086.673A3.024,3.024,0,0,1,142.1,22.064Zm4.508-.538c0-1.278-.606-1.951-1.548-1.951a1.975,1.975,0,0,0-1.817,1.951Z" transform="translate(-106.033 -16.21)"/><path class="a" d="M89.4,36.6h1.346l1.682,4.576.606,1.817H93.1l.606-1.817L95.321,36.6h1.346v8.613H95.658V40.5c0-.74.067-1.817.135-2.557h-.067L95.052,39.9l-1.615,4.441H92.7L91.082,39.9l-.673-1.951h-.067c.067.74.135,1.817.135,2.557v4.71H89.467V36.6Z" transform="translate(-88.794 -22.066)"/><path class="a" d="M103.5,44.645c0-1.413,1.211-2.086,3.9-2.355,0-.807-.269-1.615-1.346-1.615a3.343,3.343,0,0,0-1.884.673l-.4-.74a4.561,4.561,0,0,1,2.49-.807c1.548,0,2.221,1.009,2.221,2.624v3.9H107.6l-.067-.74h-.067a3.3,3.3,0,0,1-2.086.942A1.881,1.881,0,0,1,103.5,44.645Zm3.9.067v-1.75c-2.153.269-2.893.807-2.893,1.615,0,.74.471,1.009,1.144,1.009A2.718,2.718,0,0,0,107.4,44.712Z" transform="translate(-93.407 -23.112)"/><path class="a" d="M114.6,39.835h.875l.067.942h.067a3.042,3.042,0,0,1,2.153-1.077c1.346,0,1.951.875,1.951,2.49v4.037h-1.077v-3.9c0-1.211-.336-1.682-1.211-1.682-.673,0-1.077.336-1.749,1.009v4.643H114.6Z" transform="translate(-97.038 -23.08)"/><path class="a" d="M125.3,44.645c0-1.413,1.211-2.086,3.9-2.355,0-.807-.269-1.615-1.346-1.615a3.343,3.343,0,0,0-1.884.673l-.4-.74a4.561,4.561,0,0,1,2.49-.807c1.548,0,2.221,1.009,2.221,2.624v3.9H129.4l-.067-.74h-.067a3.3,3.3,0,0,1-2.086.942A1.881,1.881,0,0,1,125.3,44.645Zm3.9.067v-1.75c-2.153.269-2.893.807-2.893,1.615,0,.74.471,1.009,1.144,1.009A2.718,2.718,0,0,0,129.2,44.712Z" transform="translate(-100.538 -23.112)"/><path class="a" d="M135.6,47.405a1.669,1.669,0,0,1,.942-1.413v-.067A1.147,1.147,0,0,1,136,44.849a1.812,1.812,0,0,1,.673-1.211V43.57a2.25,2.25,0,0,1,1.615-3.97,2.986,2.986,0,0,1,.875.135h2.221v.807h-1.278a1.918,1.918,0,0,1,.538,1.346,2.192,2.192,0,0,1-2.355,2.221,2.149,2.149,0,0,1-.942-.2,1.026,1.026,0,0,0-.4.74c0,.4.269.673,1.144.673H139.3c1.48,0,2.221.471,2.221,1.548,0,1.211-1.278,2.221-3.23,2.221C136.677,49.155,135.6,48.549,135.6,47.405Zm4.845-.336c0-.606-.471-.807-1.278-.807H138.09a3.276,3.276,0,0,1-.807-.067,1.3,1.3,0,0,0-.673,1.077c0,.673.673,1.144,1.817,1.144C139.637,48.415,140.445,47.742,140.445,47.069Zm-.875-5.114a1.352,1.352,0,1,0-2.692,0,1.359,1.359,0,1,0,2.692,0Z" transform="translate(-103.907 -23.047)"/><path class="a" d="M145.8,43.064a3.089,3.089,0,0,1,2.893-3.364c1.615,0,2.557,1.144,2.557,2.961a1.671,1.671,0,0,1-.067.606h-4.306a2.089,2.089,0,0,0,2.086,2.221,2.738,2.738,0,0,0,1.615-.538l.4.74a3.841,3.841,0,0,1-2.086.673A3.024,3.024,0,0,1,145.8,43.064Zm4.508-.538c0-1.278-.606-1.951-1.548-1.951a1.975,1.975,0,0,0-1.817,1.951Z" transform="translate(-107.244 -23.08)"/><path class="a" d="M156.8,39.8h.875l.067,1.144h.067a2.244,2.244,0,0,1,1.817-1.346,1.991,1.991,0,0,1,.673.135l-.2.942a1.607,1.607,0,0,0-.606-.135c-.538,0-1.211.4-1.615,1.48v4.1H156.8Z" transform="translate(-110.842 -23.047)"/></g></g></g></svg>