<svg xmlns="http://www.w3.org/2000/svg" viewBox="0 0 98.764 43.899"><defs><style>.a,.b,.c{fill:#8e99a6;}.b{opacity:0.5;}.c{opacity:0.7;}</style></defs><g transform="translate(0.027 -0.027)"><g transform="translate(-0.027 0.027)"><path class="a" d="M173.178,40.663l-.152.3a5.213,5.213,0,0,1-4.717,2.079,8.625,8.625,0,0,1-2.282-.406,6.281,6.281,0,0,1-3.5-3.043,9.082,9.082,0,0,1-1.268-4.311,13.484,13.484,0,0,1,.507-5.123,7.133,7.133,0,0,1,3.956-4.666,7.431,7.431,0,0,1,5.427-.2,4.089,4.089,0,0,1,2.282,1.927,5.909,5.909,0,0,0,.406.659,3.311,3.311,0,0,0,.1-.558,3.119,3.119,0,0,1,.051-.71,1.805,1.805,0,0,1,1.978-1.724h.507a1.64,1.64,0,0,1,1.623,1.42,8.459,8.459,0,0,1,.1,1.623V46.191c0,.558-.051,1.065-.1,1.623a1.74,1.74,0,0,1-1.623,1.572,4.455,4.455,0,0,1-1.42-.051,1.732,1.732,0,0,1-1.471-1.623,13.39,13.39,0,0,1-.1-1.471V40.663C173.381,40.765,173.28,40.714,173.178,40.663Zm.558-6.948a7.078,7.078,0,0,0-.913-3.5,3.279,3.279,0,0,0-2.79-1.623,3.423,3.423,0,0,0-3.347,1.927,7.739,7.739,0,0,0-.609,5.325,5.291,5.291,0,0,0,.761,1.927,3.535,3.535,0,0,0,5.985-.152A7.424,7.424,0,0,0,173.736,33.715Z" transform="translate(-79.436 -12.274)"/><path class="b" d="M41.755,15.686c-.1-1.471-.254-2.942-.3-4.413-.051-1.623-.051-3.3-.051-4.92a6.106,6.106,0,0,1,.761-2.992,6.169,6.169,0,0,1,4.514-3.2,5.915,5.915,0,0,1,4.057.558,6.007,6.007,0,0,1,3.3,5.325,6.871,6.871,0,0,1-1.471,4.362,56.056,56.056,0,0,1-6.644,7.253,1.019,1.019,0,0,1-.406-.2,5.64,5.64,0,0,0-2.891-1.471C42.364,15.888,42.059,15.787,41.755,15.686Z" transform="translate(-20.389 -0.027)"/><path class="a" d="M129.994,34.326a14.361,14.361,0,0,0,.3,2.13,3.873,3.873,0,0,0,6.188,2.079,11.173,11.173,0,0,0,1.217-1.42,2.2,2.2,0,0,1,2.84-.558,1.655,1.655,0,0,1,.913,1.522,4.34,4.34,0,0,1-1.724,3.246,8.21,8.21,0,0,1-4.007,1.623,11.065,11.065,0,0,1-5.883-.659,6.885,6.885,0,0,1-3.753-3.7,10.825,10.825,0,0,1-.761-5.528,10.314,10.314,0,0,1,1.014-3.7,7.57,7.57,0,0,1,5.224-4.057,11.348,11.348,0,0,1,5.681.1,7.225,7.225,0,0,1,3.2,1.826,3.14,3.14,0,0,1,.964,2.333,2.032,2.032,0,0,1-1.319,1.775,1.893,1.893,0,0,1-2.282-.456c-.355-.355-.659-.811-1.014-1.167a3.655,3.655,0,0,0-5.376.152,5.621,5.621,0,0,0-1.319,3.145,10.572,10.572,0,0,0,0,1.268C130.1,34.326,130.045,34.326,129.994,34.326Z" transform="translate(-61.713 -12.328)"/><path class="b" d="M29.96,53.72c.1,1.217.254,2.435.3,3.7a57.236,57.236,0,0,1,.152,6.593,5.9,5.9,0,0,1-3.2,5.072,5.6,5.6,0,0,1-7.912-3.652,6.4,6.4,0,0,1,1.167-5.478c.812-1.167,1.674-2.232,2.536-3.347,1.167-1.471,2.384-2.891,3.6-4.311.152.051.355,0,.456.1a7.238,7.238,0,0,0,2.485,1.065C29.707,53.467,29.808,53.619,29.96,53.72Z" transform="translate(-9.405 -25.788)"/><path class="b" d="M58.47,45.2a13.609,13.609,0,0,1,4.057.355,5.7,5.7,0,0,1,3.753,2.79,4.968,4.968,0,0,1,.254,4.159,5.341,5.341,0,0,1-4.26,3.652,6.4,6.4,0,0,1-4.768-1.065,15.457,15.457,0,0,1-2.029-1.572c-1.014-.913-2.029-1.877-2.992-2.79-.862-.811-1.674-1.623-2.485-2.434A7.385,7.385,0,0,0,51.522,45.2Z" transform="translate(-24.627 -22.287)"/><path class="b" d="M15.05,32.024c-1.522.152-3.094.355-4.615.456a44.743,44.743,0,0,1-4.514.152,7.029,7.029,0,0,1-3.6-1.014,4.577,4.577,0,0,1-2.333-3.8,5.665,5.665,0,0,1,1.319-4.108,4.9,4.9,0,0,1,3.043-1.826,7.4,7.4,0,0,1,6.137,1.826c2.029,1.572,4.007,3.2,6.036,4.818-.1.152-.152.3-.254.456A5.054,5.054,0,0,0,15.2,31.872Z" transform="translate(0.027 -10.736)"/><path class="b" d="M25.614,18.735c-.964-.964-1.978-1.877-2.942-2.891-1.217-1.268-2.384-2.587-3.449-3.905a6.2,6.2,0,0,1-1.369-4.768,4.454,4.454,0,0,1,2.536-3.5,5.148,5.148,0,0,1,6.695,1.217,6.932,6.932,0,0,1,1.268,3.246c.2,1.471.456,2.891.609,4.362.152,1.116.254,2.232.355,3.347.051.456.1.964.152,1.42a5.115,5.115,0,0,0-3.145,1.167C26.122,18.583,25.919,18.786,25.614,18.735Z" transform="translate(-8.762 -1.454)"/><path class="b" d="M51.1,29.245c1.826-1.471,3.652-2.992,5.528-4.463a10.259,10.259,0,0,1,4.21-2.079,4.679,4.679,0,0,1,5.63,3.753,4.793,4.793,0,0,1-3.3,5.528,12.955,12.955,0,0,1-3.043.609l-3.5.456c-1.014.1-2.029.152-3.043.2-.406,0-.811-.051-1.319-.051V32.136a1.932,1.932,0,0,0-.152-.507c-.152-.406-.254-.862-.406-1.268A8.3,8.3,0,0,1,51.1,29.245Z" transform="translate(-25.169 -11.152)"/><path class="b" d="M45.6,52.2c.659.659,1.319,1.369,1.927,2.029l3.043,3.5a9.048,9.048,0,0,1,2.181,3.905,6,6,0,0,1,.051,2.333,3.467,3.467,0,0,1-1.369,2.181,4.989,4.989,0,0,1-5.579.406,5.762,5.762,0,0,1-2.181-2.84,18.951,18.951,0,0,1-.812-3.347c-.2-1.116-.406-2.282-.558-3.4-.152-1.014-.254-2.029-.406-3.043.051-.2.051-.406.1-.609A5.684,5.684,0,0,0,45.4,52.2.245.245,0,0,0,45.6,52.2Z" transform="translate(-20.635 -25.739)"/><path class="a" d="M109.6,34.04V27.9a9.774,9.774,0,0,1,.051-1.217,1.832,1.832,0,0,1,1.572-1.623,7.123,7.123,0,0,1,1.471,0,1.725,1.725,0,0,1,1.522,1.369,3.624,3.624,0,0,1,.1,1.014V41.039a1.932,1.932,0,0,1-1.978,2.029,3.943,3.943,0,0,1-1.522-.2A1.578,1.578,0,0,1,109.7,41.5a10.677,10.677,0,0,1-.1-1.268Z" transform="translate(-53.998 -12.346)"/><path class="c" d="M41.67,36.176a1.932,1.932,0,0,0-.152-.507c-.152-.406-.254-.862-.406-1.268a7.635,7.635,0,0,0-.558-1.116.509.509,0,0,1-.3-.507,1.019,1.019,0,0,1-.406-.2A5.64,5.64,0,0,0,36.953,31.1a6.424,6.424,0,0,1-.913-.3c-.2.051-.456.1-.659.152a5.115,5.115,0,0,0-3.145,1.167c-.2.152-.406.355-.71.3a.488.488,0,0,1-.355.507c-.1.152-.152.3-.254.456a5.054,5.054,0,0,0-1.065,2.891l-.152.152v.659a1.074,1.074,0,0,1,.152.355,5.672,5.672,0,0,0,1.42,3.4c.1.1.152.2.254.3a4.459,4.459,0,0,1,.3.507c.152.051.355,0,.456.1a7.238,7.238,0,0,0,2.485,1.065,1.221,1.221,0,0,1,.406.3c.2-.254.355-.254.507.051.051.1.1.152.152.254.051-.2.051-.406.1-.609a5.684,5.684,0,0,0,3.4-1.116.38.38,0,0,1,.254-.051l.456-.456A5.958,5.958,0,0,0,41.568,38.1l.1-.812Z" transform="translate(-14.623 -15.192)"/><path class="a" d="M19.466,47.053a6,6,0,0,1-1.42-3.4,1.074,1.074,0,0,0-.152-.355h-.507c-1.674.254-3.4.507-5.072.812a26.671,26.671,0,0,0-2.688.761,4.983,4.983,0,0,0-2.637,1.522,4.183,4.183,0,0,0-1.217,3.449,5.28,5.28,0,0,0,2.739,4.007,3.886,3.886,0,0,0,3.652.254,6.135,6.135,0,0,0,2.029-1.42c.051,0,.1-.051.152-.051a58.584,58.584,0,0,0,5.376-5.275A1.345,1.345,0,0,1,19.466,47.053Z" transform="translate(-2.816 -21.353)"/><path class="a" d="M111.834,16.721a2.511,2.511,0,0,1,.051-5.021,2.449,2.449,0,0,1,2.384,2.536A2.479,2.479,0,0,1,111.834,16.721Z" transform="translate(-53.9 -5.78)"/></g></g></svg>