<svg xmlns="http://www.w3.org/2000/svg" viewBox="0 0 150.205 29.5"><defs><style>.a{opacity:0.5;}.b{fill:#1f3550;}</style></defs><g class="a"><path class="b" d="M11.67,0c1.137.351,2.274.706,3.411,1.057q4.786,1.472,9.576,2.95A2.147,2.147,0,0,1,26.2,5.655q1.4,6.055,2.775,12.111a2.088,2.088,0,0,1-.646,2.079q-4.861,4.53-9.737,9.045a2.771,2.771,0,0,1-1.267.611h-.6c-.115-.04-.235-.075-.351-.11q-5.9-1.818-11.8-3.631A2.154,2.154,0,0,1,3.02,24.1Q1.75,18.574.5,13.057c-.16-.7-.331-1.392-.5-2.089v-.551A2.686,2.686,0,0,1,.766,8.99q4.29-3.959,8.56-7.943A3.379,3.379,0,0,1,11.069,0Zm7.082,20.8a.672.672,0,0,0-.536-.7q-4.966-1.533-9.937-3.06a.669.669,0,0,0-.917.476q-.819,2.652-1.633,5.3a.67.67,0,0,0,.5.927q4.958,1.525,9.912,3.05a.664.664,0,0,0,.932-.481c.546-1.758,1.082-3.521,1.623-5.279A1.641,1.641,0,0,0,18.752,20.8Zm1.513-1.357a1.5,1.5,0,0,0,.175-.035q2.652-.609,5.309-1.212c.581-.135.766-.416.636-.987q-1.149-5-2.294-10.012a.679.679,0,0,0-.922-.576q-2.667.609-5.334,1.222a.68.68,0,0,0-.581.942q.639,2.8,1.282,5.6l1.037,4.508A.665.665,0,0,0,20.264,19.438ZM15.837,7.663a3.652,3.652,0,0,0-.331-.541q-1.856-2.013-3.731-4.017a.679.679,0,0,0-1.087-.035Q6.9,6.586,3.11,10.1a.667.667,0,0,0-.035,1.067l3.731,4.017a.677.677,0,0,0,1.1.035c.992-.917,1.983-1.838,2.975-2.755,1.523-1.412,3.05-2.825,4.563-4.242A3.923,3.923,0,0,0,15.837,7.663Zm2.9,11.229c-.005-.035-.02-.11-.035-.185q-.887-3.9-1.778-7.793c-.135-.586-.265-1.172-.4-1.753-.1-.411-.356-.486-.671-.21-.04.035-.075.065-.11.1q-3.539,3.283-7.082,6.571a1.213,1.213,0,0,0-.155.165.307.307,0,0,0,.11.5,1.211,1.211,0,0,0,.255.1q4.215,1.3,8.429,2.594c.321.1.636.2.957.29C18.561,19.353,18.747,19.218,18.742,18.892ZM2.9,12.286a.732.732,0,0,1-.065.045,2.836,2.836,0,0,0,.04.361c.306,1.347.616,2.695.922,4.042q.548,2.412,1.107,4.823a1.175,1.175,0,0,0,.165.285c.06-.07.15-.135.175-.22.476-1.533.957-3.07,1.417-4.608a1.065,1.065,0,0,0-.245-1.052C5.339,14.78,4.247,13.613,3.15,12.441A1.288,1.288,0,0,0,2.9,12.286ZM22.3,5.935v-.09a3.881,3.881,0,0,0-.391-.175q-4.3-1.322-8.6-2.634a1.685,1.685,0,0,0-.391-.01,1.519,1.519,0,0,0,.185.331q1.555,1.683,3.115,3.356A1.215,1.215,0,0,0,17.45,7.1c1.513-.341,3.02-.691,4.528-1.037A2.172,2.172,0,0,0,22.3,5.935ZM18.116,25.869c.025.015.055.025.08.04a2.365,2.365,0,0,0,.26-.175q3.358-3.11,6.716-6.231a1.683,1.683,0,0,0,.2-.26c-.015-.025-.03-.05-.04-.07a2.437,2.437,0,0,0-.381.03c-1.5.341-3.005.681-4.508,1.032a1.17,1.17,0,0,0-.9.821c-.471,1.493-.927,2.99-1.382,4.488A1.38,1.38,0,0,0,18.116,25.869Z"/><path class="b" d="M2788.5,185.176c-.1.521-.21,1.042-.305,1.563q-.744,4.185-1.478,8.369c-.11.626-.221,1.247-.326,1.873-.075.426-.16.5-.591.5-.165,0-.335.005-.5,0-.245-.01-.326-.09-.3-.351.045-.431.115-.861.175-1.287.01-.065.015-.13.025-.25-.1.08-.16.125-.22.175a8.339,8.339,0,0,1-4.077,1.893,6.931,6.931,0,0,1-1.793.01,1.781,1.781,0,0,1-1.708-1.978,13.383,13.383,0,0,1,.235-2.033c.286-1.683.581-3.366.9-5.044a9.85,9.85,0,0,1,.486-1.648,4.082,4.082,0,0,1,3.521-2.69,12.579,12.579,0,0,1,5.71.676c.08.025.16.05.235.075A.686.686,0,0,1,2788.5,185.176Zm-1.658.776a.972.972,0,0,0-.14-.05,11.444,11.444,0,0,0-3.616-.366,2.907,2.907,0,0,0-2.81,2.229,8.914,8.914,0,0,0-.286,1.087q-.443,2.4-.851,4.8a15.927,15.927,0,0,0-.24,1.758.835.835,0,0,0,.941.992,5.643,5.643,0,0,0,1.363-.135,9.884,9.884,0,0,0,4.067-2.269.725.725,0,0,0,.225-.416c.19-1,.361-2,.536-3C2786.293,189.042,2786.563,187.5,2786.838,185.952Z" transform="translate(-2638.291 -174.958)"/><path class="b" d="M1190.679,75.819c-.521-.09-1.037-.21-1.553-.26-.851-.085-1.713-.155-2.569-.18-.711-.02-.972.235-1.1.932-.11.6-.22,1.2-.335,1.828.1.005.2.015.28.015h2.63c.391,0,.441.065.341.446-.2.776-.416,1.548-.6,2.324-.06.245-.17.316-.416.316-.842-.015-1.688,0-2.529-.01-.175,0-.255.03-.291.23-.521,3.03-1.057,6.06-1.588,9.09a12.39,12.39,0,0,1-.716,2.9,10.462,10.462,0,0,1-2.259,3.065.275.275,0,0,1-.436.005c-.666-.616-1.337-1.237-2.008-1.848-.13-.12-.15-.23-.025-.361.03-.03.055-.065.085-.1a5.371,5.371,0,0,0,1.467-3c.556-3.281,1.152-6.551,1.733-9.827.005-.04.01-.08.015-.16h-.726c-.275,0-.551-.005-.826,0-.215.005-.3-.07-.26-.3.145-.811.286-1.628.421-2.439.045-.275.235-.336.476-.336h1.458c.09-.506.155-1.007.265-1.5a19.076,19.076,0,0,1,.491-1.908,3.383,3.383,0,0,1,2.825-2.319,10.846,10.846,0,0,1,3.391-.025c.932.125,1.853.336,2.78.5a.809.809,0,0,0,.245.01c1.137-.185,2.269-.371,3.406-.561.3-.05.351,0,.3.3q-1.33,7.573-2.665,15.146c-.17.962-.335,1.923-.511,2.88-.08.446-.175.516-.616.516h-2.73c-.441,0-.491-.055-.421-.476q.616-3.561,1.237-7.122c.436-2.514.881-5.024,1.317-7.538A1.078,1.078,0,0,0,1190.679,75.819Z" transform="translate(-1118.452 -68.667)"/><path class="b" d="M916.6,185.546c.551-.23,1.072-.466,1.6-.676a9.615,9.615,0,0,1,3.546-.771,3.485,3.485,0,0,1,.721.07,1.928,1.928,0,0,1,1.578,1.773,8.18,8.18,0,0,1-.12,2.589q-.714,4.072-1.432,8.149c-.005.025-.005.05-.01.075-.11.586-.17.641-.766.641h-2.6c-.441,0-.5-.05-.421-.476.25-1.488.511-2.975.771-4.458l.721-4.087c.085-.486-.1-.7-.586-.611a7.46,7.46,0,0,0-1.347.371c-.591.225-1.162.506-1.743.756a.374.374,0,0,0-.235.316c-.436,2.544-.887,5.089-1.337,7.633-.09.5-.17.561-.681.561h-2.68c-.431,0-.486-.065-.411-.486q.954-5.454,1.9-10.909c.05-.28.105-.556.145-.836a.615.615,0,0,1,.556-.556c.811-.145,1.628-.28,2.439-.411.356-.055.391-.01.391.346Z" transform="translate(-865.503 -174.878)"/><path class="b" d="M1534.025,197.54c-.716.29-1.372.576-2.044.826a8.745,8.745,0,0,1-3.2.621,3.492,3.492,0,0,1-.646-.07,2.057,2.057,0,0,1-1.633-2.043,11.662,11.662,0,0,1,.281-3.005q.639-3.644,1.277-7.292c.09-.516.15-.591.676-.666.967-.14,1.933-.27,2.9-.406.3-.04.371.03.316.326q-.488,2.787-.977,5.569c-.19,1.077-.381,2.149-.561,3.225-.1.6.105.831.7.666.776-.215,1.527-.511,2.284-.791a1.907,1.907,0,0,0,.831-.431c.17-.215.145-.586.2-.887q.593-3.388,1.192-6.771a.5.5,0,0,1,.486-.481l3.075-.421c.316-.045.371.025.316.341q-.864,4.936-1.728,9.877c-.155.876-.305,1.758-.461,2.634-.06.336-.1.366-.446.366h-2.454c-.35,0-.376-.025-.381-.391C1534.02,198.081,1534.025,197.82,1534.025,197.54Z" transform="translate(-1450.028 -176.204)"/><path class="b" d="M1786.965,199.069h-.291c-.987,0-1.968-.005-2.955,0a.73.73,0,0,1-.741-.476c-.386-.841-.781-1.678-1.172-2.514-.04-.08-.08-.16-.135-.26-.065.07-.115.12-.16.175-.721.866-1.443,1.728-2.154,2.6a1.2,1.2,0,0,1-1,.471c-1.1,0-2.2,0-3.361,0,.075-.105.12-.175.17-.24q2.4-3.035,4.793-6.07a.431.431,0,0,0,.06-.531c-.861-1.868-1.708-3.746-2.559-5.62-.035-.08-.07-.165-.12-.28.511-.075,1-.145,1.492-.22.561-.08,1.122-.17,1.683-.245.351-.045.461.025.591.356.471,1.2.937,2.409,1.407,3.611.035.085.07.17.12.285.065-.09.12-.16.17-.23.791-1.157,1.593-2.309,2.374-3.471a.811.811,0,0,1,.751-.391c1.067.01,2.139.005,3.205.005h.3c-.07.105-.115.18-.165.245q-2.449,3.261-4.9,6.521a.393.393,0,0,0-.05.466q1.262,2.75,2.514,5.5C1786.87,198.849,1786.905,198.934,1786.965,199.069Z" transform="translate(-1686.099 -176.546)"/><path class="b" d="M2092.269,96.68l-.24.19a8.489,8.489,0,0,1-4.117,1.873,7.159,7.159,0,0,1-1.793.015,1.784,1.784,0,0,1-1.723-1.988,12.929,12.929,0,0,1,.235-2.008c.285-1.693.581-3.386.906-5.069a9.426,9.426,0,0,1,.491-1.648,4.147,4.147,0,0,1,3.536-2.685,12.234,12.234,0,0,1,4.392.275c.055.01.11.02.2.04.08-.436.16-.861.23-1.282.22-1.262.441-2.529.661-3.791.05-.3.165-.406.476-.451.24-.035.476-.075.716-.1.271-.02.366.09.315.361q-.421,2.412-.846,4.828-.736,4.207-1.482,8.419-.391,2.239-.791,4.483c-.065.351-.15.421-.5.421-.185,0-.366.005-.551,0-.271-.005-.351-.085-.321-.356.05-.466.12-.927.186-1.387A.318.318,0,0,0,2092.269,96.68Zm1.648-9.656a11.453,11.453,0,0,0-4.067-.371,2.755,2.755,0,0,0-2.439,1.833,8.123,8.123,0,0,0-.426,1.432c-.305,1.6-.581,3.2-.856,4.8a15.082,15.082,0,0,0-.24,1.828.81.81,0,0,0,.9.932,5.631,5.631,0,0,0,1.362-.115,10.091,10.091,0,0,0,4.288-2.369.428.428,0,0,0,.11-.235q.526-2.937,1.042-5.88C2093.7,88.27,2093.806,87.659,2093.917,87.023Z" transform="translate(-1979.998 -76.045)"/><path class="b" d="M2361.473,185.088c-.17.962-.336,1.923-.506,2.885q-.736,4.185-1.477,8.369c-.045.255-.085.511-.14.761-.07.346-.15.406-.511.411h-.451c-.376,0-.441-.06-.4-.446.055-.461.125-.922.2-1.447-.11.085-.186.145-.26.2a8.58,8.58,0,0,1-4.032,1.878,5.392,5.392,0,0,1-1.943-.015,1.756,1.756,0,0,1-1.562-1.873,14.645,14.645,0,0,1,.24-2.179c.281-1.683.571-3.371.907-5.044a9.234,9.234,0,0,1,.621-1.918,3.985,3.985,0,0,1,3.311-2.349,12.51,12.51,0,0,1,5.925.726C2361.413,185.048,2361.428,185.058,2361.473,185.088Zm-1.653.907a.466.466,0,0,0-.1-.045,10.3,10.3,0,0,0-4.062-.326,2.677,2.677,0,0,0-2.259,1.778,7.747,7.747,0,0,0-.426,1.407c-.306,1.6-.581,3.2-.856,4.8a16.568,16.568,0,0,0-.246,1.853.818.818,0,0,0,.937.967,6.456,6.456,0,0,0,1.552-.185,10.288,10.288,0,0,0,3.827-2.154.844.844,0,0,0,.3-.546c.286-1.658.581-3.316.872-4.973C2359.52,187.713,2359.67,186.861,2359.821,185.995Z" transform="translate(-2232.675 -174.991)"/><path class="b" d="M773.439,198.584h-1.352c-.471,0-.531-.06-.451-.526.15-.876.311-1.758.466-2.634q.736-4.185,1.477-8.369c.05-.27.1-.541.145-.811a.5.5,0,0,1,.461-.456c1.047-.145,2.1-.29,3.145-.431.25-.035.32.05.275.3q-1.089,6.153-2.184,12.306c-.015.08-.035.165-.055.245a.441.441,0,0,1-.481.381Z" transform="translate(-732.96 -176.066)"/><path class="b" d="M2612.361,127.227h-2.194c-.181,0-.271-.08-.246-.26.041-.265.075-.526.13-.791.04-.21.215-.23.391-.23.636,0,1.267-.005,1.9.005.19.005.271-.04.305-.25.131-.831.291-1.658.431-2.489.06-.356.15-.451.506-.511.22-.035.446-.07.671-.09.3-.03.4.08.346.381l-.466,2.66c-.015.08-.02.165-.035.28.1.005.186.01.271.01h3.306c.291,0,.305.025.25.3-.05.23-.11.456-.15.681a.329.329,0,0,1-.381.3c-1.1-.01-2.2,0-3.305-.005-.18,0-.25.04-.285.235q-.826,4.771-1.668,9.531a1.294,1.294,0,0,0-.02.2c-.03.551.145.751.7.771a7.557,7.557,0,0,0,3.311-.5c.271-.12.321-.085.426.19a.365.365,0,0,1,.025.07c.23.621.2.726-.445.942a9.125,9.125,0,0,1-3.907.541,1.637,1.637,0,0,1-1.583-2.144c.426-2.5.876-5.008,1.317-7.513C2612.091,128.785,2612.221,128.019,2612.361,127.227Z" transform="translate(-2479.2 -116.464)"/><path class="b" d="M827.029,70.463c-.105.6-.21,1.2-.321,1.793-.1.531-.2,1.067-.291,1.6-.065.351-.125.4-.461.451l-3.145.436c-.25.035-.3.005-.255-.24.185-1.127.381-2.249.576-3.371a.464.464,0,0,1,.426-.4c1.087-.155,2.179-.3,3.266-.451C826.978,70.253,827.059,70.3,827.029,70.463Z" transform="translate(-781.346 -66.752)"/></g></svg>