<svg xmlns="http://www.w3.org/2000/svg" viewBox="0 0 96.196 45.514"><defs><style>.a{fill:#8e99a6;}</style></defs><g transform="translate(0 0.03)"><g transform="translate(0 -0.031)"><path class="a" d="M787.553,267.047a.891.891,0,0,1-.891.435c-1.354-.021-2.708-.007-4.062-.007-.449,0-.613-.107-.748-.549q-.716-2.255-1.4-4.518a.387.387,0,0,0-.449-.321c-1.8.007-3.584.007-5.38.007-.691,0-.948-.335-.763-1,.3-1.083.6-2.166.905-3.256a.652.652,0,0,1,.748-.556h3.377a2.5,2.5,0,0,0-.036-.292q-1.2-4.169-2.408-8.337-.193-.673-.684-.663c-.328.007-.563.228-.691.663l-5.387,18.235c-.143.47-.3.584-.791.584-2.758,0-5.508-.007-8.266.007a.867.867,0,0,1-.8-.413c-1.767-2.558-3.556-5.1-5.316-7.66a.975.975,0,0,0-.948-.5c-1.069.036-2.138.014-3.207.014h-.435v7.646c0,.727-.185.912-.9.912h-3.848c-.534,0-.777-.242-.777-.784V241.715c0-.549.257-.8.813-.8,3.634,0,7.268-.021,10.9.014a10.075,10.075,0,0,1,4.746,1.055,5.463,5.463,0,0,1,2.922,4.418,26.838,26.838,0,0,1-.029,7.09,5.586,5.586,0,0,1-3.385,4.482.582.582,0,0,0-.093.05c-.007.007-.014.021-.05.071,1.461,2.1,2.929,4.218,4.439,6.4.249-.784.477-1.489.705-2.2q1.529-4.853,3.05-9.7,1.731-5.5,3.477-11.016c.171-.549.321-.663.891-.663h5.985c.527,0,.691.128.848.627l3.484,11.052q2.095,6.648,4.183,13.289c.078.249.178.485.264.727Zm-37.609-12.969h.435c1.411,0,2.822.007,4.24,0a14.867,14.867,0,0,0,1.6-.071,2.073,2.073,0,0,0,2.166-2.1,31.764,31.764,0,0,0,0-3.948,1.977,1.977,0,0,0-1.76-1.981,5.816,5.816,0,0,0-1.161-.142c-1.71-.014-3.42-.007-5.123-.007-.128,0-.249.014-.378.021C749.944,248.606,749.944,251.321,749.944,254.078Z" transform="translate(-691.357 -223.742)"/><path class="a" d="M0,234.191c.371-.542.6-.591,1.226-.392,1.447.456,2.9.891,4.354,1.318a.985.985,0,0,1,.713.577,16.125,16.125,0,0,0,3.192,4.931c1.112,1.247,2.287,2.444,3.442,3.648a.65.65,0,0,0,1.076.036,47.407,47.407,0,0,0,5.038-5.651,12.383,12.383,0,0,0,1.589-2.886,1.055,1.055,0,0,1,.77-.663q2.213-.641,4.418-1.34c.727-.228,1.183.1,1.1.862a14.3,14.3,0,0,1-2.237,6.121,34.274,34.274,0,0,1-4.432,5.508c-.784.827-1.589,1.632-2.38,2.451-.349.356-.363.556-.043.955a24.869,24.869,0,0,1,2.85,4.368,15.414,15.414,0,0,1,1.646,5.665,2.408,2.408,0,0,1,0,.321.676.676,0,0,1-.748.748H17.194a.671.671,0,0,1-.777-.684,10.167,10.167,0,0,0-1.261-3.969,21.6,21.6,0,0,0-3.278-4.418c-1.753-1.874-3.556-3.691-5.316-5.551A30.126,30.126,0,0,1,1.582,239.6a14.346,14.346,0,0,1-1.511-4.667c-.014-.107-.05-.207-.071-.306Z" transform="translate(0 -217.037)"/><path class="a" d="M418.581,269.339a1.083,1.083,0,0,1-.57-.791c-.257-.9-.534-1.8-.827-2.679-.257-.77.021-1.1.77-1.169a3.107,3.107,0,0,0,2.879-3.221V241.962c0-.784.171-.962.962-.962h3.777c.549,0,.762.207.762.748,0,6.848.043,13.7-.014,20.55a7.14,7.14,0,0,1-5.786,6.883c-.292.057-.584.107-.869.157Z" transform="translate(-387.371 -223.825)"/><path class="a" d="M611.787,254.241v12.434c0,.663-.185.841-.841.841h-3.919a.635.635,0,0,1-.727-.713V241.686a.643.643,0,0,1,.72-.727c1.333-.007,2.658,0,3.99,0,.556,0,.777.214.777.777Z" transform="translate(-563.097 -223.784)"/><path class="a" d="M67.812,491.935H65.674c-.57,0-.812-.271-.791-.841a15.587,15.587,0,0,1,2.366-7.218,9.464,9.464,0,0,1,.613-.955.7.7,0,0,1,1.133-.071c.962,1.062,1.9,2.145,2.843,3.228a1.1,1.1,0,0,1,.1,1.375,9.355,9.355,0,0,0-1.154,3.741.727.727,0,0,1-.812.741C69.258,491.943,68.539,491.935,67.812,491.935Z" transform="translate(-60.259 -448.203)"/><path class="a" d="M474.692,9.009c-.321-1.112-.62-2.159-.934-3.192-.028-.1-.164-.171-.249-.257-.086.1-.221.192-.257.306-.371,1.2-.72,2.4-1.076,3.606-.292,1-.591,2-.877,3a.415.415,0,0,1-.477.356c-.442-.014-.876,0-1.318-.007-.371-.007-.449-.107-.335-.463q1.122-3.559,2.237-7.119c.214-.677.435-1.354.641-2.031a.387.387,0,0,1,.442-.314c.677.014,1.354.021,2.031,0a.432.432,0,0,1,.485.356q1.037,3.324,2.088,6.648c.257.812.52,1.625.762,2.444.121.406.064.485-.37.485-.413,0-.834-.021-1.247.007-.314.021-.442-.114-.52-.4-.121-.449-.278-.884-.4-1.325a.326.326,0,0,0-.378-.271c-.57.014-1.14.007-1.71,0-.385-.007-.477-.128-.385-.477s.2-.684.285-1.026a.374.374,0,0,1,.428-.328C473.916,9.016,474.272,9.009,474.692,9.009Z" transform="translate(-435.694 -2.686)"/><path class="a" d="M1097.8,38.464a7.167,7.167,0,0,1,2.8-.67,1.486,1.486,0,0,1,1.6,1.261,2.934,2.934,0,0,1,.085.705c.007,1.689-.007,3.37.007,5.059,0,.335-.107.442-.427.428-.392-.021-.784-.014-1.176,0-.292.007-.4-.1-.392-.4.007-1.511.007-3.014.007-4.525,0-.534-.178-.691-.706-.563-.449.107-.876.292-1.311.428-.221.071-.2.235-.2.4,0,1.411-.007,2.822.007,4.24,0,.314-.093.428-.406.413-.413-.014-.834-.007-1.247,0-.235,0-.342-.086-.342-.335q.011-3.313,0-6.62c0-.235.1-.356.342-.349.178,0,.356.007.535,0C1097.361,37.915,1097.8,37.844,1097.8,38.464Z" transform="translate(-1017.995 -35.098)"/><path class="a" d="M707.344,44.745c-.577.143-1.126.328-1.7.42a1.884,1.884,0,0,1-2.309-1.981c0-.214-.014-.428.007-.641a1.652,1.652,0,0,1,1.7-1.66c.328-.029.663-.014,1-.021h1.033a6.646,6.646,0,0,0-.014-1.069c-.064-.378-.392-.5-.727-.492-.634.014-1.276.036-1.91.107-.591.071-.613.086-.72-.5-.021-.107-.021-.214-.043-.321-.107-.67-.107-.677.549-.812a8.532,8.532,0,0,1,3.036-.114,1.958,1.958,0,0,1,1.824,2.017c.05,1.66.043,3.321.057,4.981,0,.278-.128.385-.392.378s-.549-.014-.819,0S707.4,45.023,707.344,44.745Zm-.25-2.38c-.47,0-.884-.007-1.3,0-.371.007-.506.157-.52.527-.014.456.121.677.5.648a6.7,6.7,0,0,0,1.168-.249c.064-.014.128-.135.135-.207A5.861,5.861,0,0,0,707.094,42.365Z" transform="translate(-653.217 -34.895)"/><path class="a" d="M1004.515,44.716a13.386,13.386,0,0,1-1.539.413c-1.838.3-2.608-.869-2.473-2.465.107-1.3.713-1.8,2.031-1.81.484,0,.976-.007,1.461,0,.214.007.285-.071.292-.285.021-1.176-.164-1.311-1.383-1.3a13.054,13.054,0,0,0-1.482.15c-.413.05-.463.014-.527-.4-.036-.257-.085-.513-.135-.77a.3.3,0,0,1,.249-.392,7.967,7.967,0,0,1,3.8-.1,1.841,1.841,0,0,1,1.411,1.724,7.343,7.343,0,0,1,.05.884c.007,1.411-.007,2.822.007,4.24,0,.328-.107.456-.435.435a6.289,6.289,0,0,0-.819,0C1004.757,45.051,1004.557,44.979,1004.515,44.716Zm-.235-2.359c-.477,0-.905-.007-1.325,0-.371.007-.492.143-.506.492-.014.485.093.691.463.677a6.443,6.443,0,0,0,1.2-.242.315.315,0,0,0,.157-.235C1004.294,42.842,1004.279,42.628,1004.279,42.357Z" transform="translate(-929.196 -34.887)"/><path class="a" d="M878.959,37c.684.086,1.261.15,1.831.221.285.036.42.178.356.485a6.848,6.848,0,0,0-.114.841c-.021.306-.178.363-.456.335-.613-.064-1.225-.128-1.838-.15-.5-.014-.591.128-.591.613,0,.306.185.413.427.485.542.164,1.09.321,1.632.5a1.432,1.432,0,0,1,1.1,1.475,9.108,9.108,0,0,1-.021,1.169,1.741,1.741,0,0,1-1.675,1.6,7.616,7.616,0,0,1-3.228-.271.316.316,0,0,1-.249-.428c.057-.278.114-.556.157-.841s.164-.363.463-.314a18.852,18.852,0,0,0,1.9.235c.271.021.62.05.691-.378a.626.626,0,0,0-.484-.841c-.335-.121-.684-.2-1.019-.3a1.87,1.87,0,0,1-1.653-2.287,5.376,5.376,0,0,1,.071-.67,1.445,1.445,0,0,1,1.1-1.226C877.9,37.128,878.481,37.078,878.959,37Z" transform="translate(-813.688 -34.361)"/><path class="a" d="M798.179,37.2c.527.064,1.126.143,1.724.214a.316.316,0,0,1,.314.413c-.043.306-.093.606-.114.912s-.192.356-.456.328c-.613-.064-1.226-.128-1.839-.15-.5-.014-.634.171-.591.656.021.278.207.378.435.449.477.143.962.264,1.432.42a1.535,1.535,0,0,1,1.3,1.8,7.1,7.1,0,0,1-.064,1.1,1.633,1.633,0,0,1-1.4,1.375,7.2,7.2,0,0,1-3.477-.221.308.308,0,0,1-.249-.4c.057-.3.128-.606.171-.9.043-.264.164-.314.42-.271.641.1,1.29.185,1.931.242.306.029.634-.007.705-.428s-.064-.641-.52-.8c-.485-.164-.976-.285-1.461-.442a1.509,1.509,0,0,1-1.169-1.475,7.152,7.152,0,0,1,.057-1.411,1.625,1.625,0,0,1,1.5-1.268C797.253,37.257,797.68,37.25,798.179,37.2Z" transform="translate(-738.516 -34.547)"/><path class="a" d="M586.248,15.447h-.741c-.214,0-.328-.093-.321-.321.007-.321.014-.641,0-.962-.014-.271.121-.356.363-.349.221.007.442,0,.7,0,0-.477.014-.9-.007-1.325-.014-.306.085-.463.406-.492.392-.036.777-.093,1.161-.157.307-.05.442.05.435.371-.014.506-.007,1.019-.007,1.6h1.24c.442,0,.463.021.463.463v.713c0,.435-.028.456-.477.456h-1.211c-.007.135-.014.249-.014.363v3.064c0,.591.207.77.784.677.755-.121.755-.121.855.656.107.855.114.876-.748,1a5.053,5.053,0,0,1-1.268.036,1.636,1.636,0,0,1-1.6-1.846c-.007-1.161,0-2.323,0-3.484C586.248,15.775,586.248,15.64,586.248,15.447Z" transform="translate(-543.487 -10.984)"/><path class="a" d="M145.7,264.985c1.6,0,3.192.007,4.788,0a.707.707,0,0,1,.691,1.04,11.038,11.038,0,0,1-1.7,2.779c-.257.313-.527.613-.805.9a.762.762,0,0,1-1.14.007,11.511,11.511,0,0,1-2.508-3.677A.7.7,0,0,1,145.7,264.985Z" transform="translate(-134.614 -246.099)"/><path class="a" d="M665.8,5.162c0,1.539-.014,3.085.007,4.625.007.356-.128.456-.456.442a9.519,9.519,0,0,0-1.1,0c-.349.021-.449-.121-.449-.456q.011-3.965.007-7.938c0-.442.007-.876,0-1.318-.007-.306.135-.428.428-.42q.588.011,1.176,0c.285-.007.392.114.392.406C665.8,2.056,665.8,3.609,665.8,5.162Z" transform="translate(-616.5 -0.087)"/><path class="a" d="M158.559,114.8a2.32,2.32,0,1,1-2.359,2.323A2.291,2.291,0,0,1,158.559,114.8Z" transform="translate(-145.07 -106.618)"/><path class="a" d="M51.216,144.491a2.337,2.337,0,0,1,.036,4.674,2.337,2.337,0,0,1-.036-4.674Z" transform="translate(-45.416 -134.192)"/><path class="a" d="M264,146.837a2.337,2.337,0,1,1,2.323,2.337A2.3,2.3,0,0,1,264,146.837Z" transform="translate(-245.188 -134.201)"/><path class="a" d="M960.9,43.214c0-1.069.014-2.138-.007-3.207-.007-.356.121-.463.456-.442.392.021.784.007,1.176,0,.256-.007.363.107.363.363v6.627c0,.228-.1.328-.321.321-.449,0-.9-.007-1.354,0-.249.007-.321-.121-.321-.356C960.911,45.423,960.9,44.319,960.9,43.214Z" transform="translate(-892.426 -36.742)"/><path class="a" d="M961.857,1.824c-1.183,0-.976.1-.983-.969,0-.976-.142-.869.862-.876a5.14,5.14,0,0,1,.812.014.43.43,0,0,1,.292.292c.036.4.014.805.014,1.2,0,.228-.121.321-.328.328S962.085,1.824,961.857,1.824Z" transform="translate(-892.396 0.031)"/></g></g></svg>