<svg width="126" height="54" viewBox="0 0 126 54" fill="none" xmlns="http://www.w3.org/2000/svg">
<g clip-path="url(#clip0)">
<rect x="-1512" y="1181.83" width="3227.66" height="955.985" transform="rotate(-30 -1512 1181.83)" fill="url(#paint0_linear)"/>
<g clip-path="url(#clip1)">
<path fill-rule="evenodd" clip-rule="evenodd" d="M11.1881 16.0029C8.85514 16.0029 6.08913 18.2458 3.80759 22.0166C1.4296 25.9218 0.0109863 30.7563 0.0109863 34.9547C0.0109863 41.1009 3.46012 47.2991 11.1887 47.2991C18.9081 47.2991 22.3665 41.1009 22.3665 34.9547C22.3665 30.7563 20.9485 25.9218 18.582 22.0166C16.2791 18.2458 13.5134 16.0029 11.1881 16.0029ZM71.5451 25.2243H79.3696V45.6231H87.7529V25.2243H95.5741V17.6786H71.5451V25.2233V25.2243ZM113.459 25.2243H125.754V17.6786H113.459C102.163 17.6786 96.1298 23.295 96.1298 31.6499C96.1298 40.0048 102.163 45.6231 113.459 45.6231H125.754V38.0778H113.459C108.231 38.0778 104.794 36.2092 104.794 31.6509C104.794 27.0926 108.231 25.2243 113.459 25.2243ZM54.4943 17.6786L50.0264 34.3575L45.5584 17.6786H30.7495V45.6231H39.1296V22.8939L45.2199 45.6231H54.8328L60.9263 22.8801V45.6231H69.3096V17.6786H54.4943Z" fill="#999999"/>
</g>
</g>
<defs>
<linearGradient id="paint0_linear" x1="101.83" y1="1181.83" x2="59.2404" y2="1916" gradientUnits="userSpaceOnUse">
<stop stop-color="#F7FAFE"/>
<stop offset="1" stop-color="#F7FAFE" stop-opacity="0"/>
</linearGradient>
<clipPath id="clip0">
<rect width="1920" height="6741" fill="white" transform="translate(-934 -878)"/>
</clipPath>
<clipPath id="clip1">
<rect width="125.75" height="31.2979" fill="white" transform="translate(0 16)"/>
</clipPath>
</defs>
</svg>
