<svg xmlns="http://www.w3.org/2000/svg" viewBox="0 0 113.991 20.414"><defs><style>.a{opacity:0.5;}.b{fill:#1f3550;}</style></defs><g class="a"><g transform="translate(0 0)"><path class="b" d="M11.3,20.436a13.245,13.245,0,0,1-6.746-1.72A8.528,8.528,0,0,1,1.77,5.867,13.933,13.933,0,0,1,11.22.261a13.3,13.3,0,0,1,9.834,1.844,8.244,8.244,0,0,1,4.052,7.616,9.434,9.434,0,0,1-2.756,6.1,14.773,14.773,0,0,1-9.3,4.518c-.321.041-.653.073-.984.083C11.821,20.446,11.562,20.436,11.3,20.436Zm9.5-10.02a7.16,7.16,0,0,0-14.321-.041,7.161,7.161,0,1,0,14.321.041Z" transform="translate(0.049 -0.025)"/><path class="b" d="M324.481,20.906h2.186V34.8c-.746,0-1.513.01-2.28-.021-.1,0-.228-.228-.3-.363q-2.316-5.021-4.622-10.041c-.01-.031-.041-.052-.083-.1.062,3.5.114,6.974.176,10.487H317.3V20.886c.819,0,1.637-.01,2.456.021.114,0,.249.218.311.352,1.523,3.243,3.388,6.321,4.539,9.741.01.041.052.073.052.062C324.6,27.714,324.543,24.347,324.481,20.906Z" transform="translate(-284.415 -18.723)"/><path class="b" d="M707.4,34.258V20.3a44.594,44.594,0,0,1,5.544.228c3.668.58,3.824,4.591,2.332,6.425a3.267,3.267,0,0,1-2.363,1.223c.674.984,1.378,1.969,2.041,2.974s1.264,2.041,1.938,3.14c-.912,0-1.741.021-2.559-.021-.135-.01-.3-.2-.383-.342-.622-1.057-1.181-2.145-1.834-3.181a18.082,18.082,0,0,0-1.523-2.021,4.41,4.41,0,0,0-.933-.6v6.124C708.882,34.258,708.167,34.258,707.4,34.258Zm2.28-12.083V26.6c.653,0,1.275.01,1.886,0a2.426,2.426,0,0,0,.611-.093,1.969,1.969,0,0,0,1.534-2.155,1.741,1.741,0,0,0-1.5-1.979C711.4,22.238,710.55,22.238,709.68,22.176Z" transform="translate(-634.092 -18.199)"/><path class="b" d="M525.342,65.793c-.642-2.466-1.275-4.891-1.907-7.347-.4,1.554-.8,3.088-1.2,4.622-.2.767-.425,1.523-.611,2.3-.073.311-.2.435-.518.425-.435-.021-.86-.021-1.3,0a.406.406,0,0,1-.477-.342c-.87-3.192-1.751-6.383-2.622-9.575-.01-.031,0-.073-.01-.166.694-.1,1.4-.207,2.155-.311.549,2.518,1.088,5.005,1.617,7.419.5-1.865,1.005-3.793,1.523-5.71.135-.5.155-1.192.487-1.43.352-.259,1.026-.062,1.554-.114.456-.041.611.135.715.57.539,2.28,1.109,4.549,1.668,6.808.518-2.435,1.036-4.891,1.565-7.347h2.3c-.1.363-.187.694-.28,1.036-.808,2.891-1.627,5.772-2.414,8.663-.114.414-.29.549-.715.518A14.935,14.935,0,0,0,525.342,65.793Z" transform="translate(-463.153 -49.662)"/><path class="b" d="M813.251,60.231h-6.166c.031,1.129.145,2.2,1.212,2.725a3.432,3.432,0,0,0,3.844-.674c.28.435.56.87.85,1.326a5.305,5.305,0,0,1-3.762,1.347A4.354,4.354,0,0,1,804.8,61.05a6.568,6.568,0,0,1,.777-4.943,4.176,4.176,0,0,1,6.207-.839,3.444,3.444,0,0,1,1.15,2.093C813.1,58.283,813.147,59.205,813.251,60.231Zm-2.4-1.668c.052-1.606-.715-2.642-1.886-2.6s-1.927,1.109-1.782,2.6Z" transform="translate(-721.259 -48.628)"/><path class="b" d="M432.967,60.29h-6.083c.01,1.047.1,2.072,1.047,2.632,1.42.85,2.746.373,4.01-.56.29.446.56.87.86,1.326a5.351,5.351,0,0,1-5.4,1.026,4.422,4.422,0,0,1-2.881-4.021,7.254,7.254,0,0,1,.373-3.668,4.2,4.2,0,0,1,6.673-1.668,3.981,3.981,0,0,1,.943,1.389A8.752,8.752,0,0,1,432.967,60.29Zm-6.041-1.679h3.71c.052-1.554-.663-2.58-1.782-2.591C427.641,56.01,426.895,56.984,426.926,58.611Z" transform="translate(-380.456 -48.686)"/><path class="b" d="M1001.086,55.477c-.352.477-.7.943-1.057,1.42-.269-.176-.518-.363-.787-.508a1.752,1.752,0,0,0-2.6.933,7.553,7.553,0,0,0-.052,4.829,1.777,1.777,0,0,0,2.487,1.067,11.259,11.259,0,0,0,1.326-.777c.3.394.642.819.964,1.243-1.461,1.876-5.585,2.062-6.881-.725a6.877,6.877,0,0,1,.135-6.425,4.134,4.134,0,0,1,6.3-1.223A.816.816,0,0,1,1001.086,55.477Z" transform="translate(-890.773 -48.713)"/><path class="b" d="M903.8,12.8c.746-.166,1.471-.321,2.259-.5a13.158,13.158,0,0,1,.124,1.368c.021,3.471.021,6.932.031,10.4q0,.389.031.777c.073.777.166.86.933.974.1.4.207.819.321,1.223a2.247,2.247,0,0,1-3.5-1.8c-.041-.414-.052-.829-.052-1.243-.01-3.119,0-6.249-.021-9.368C903.935,14.041,903.852,13.45,903.8,12.8Z" transform="translate(-810.14 -11.028)"/><path class="b" d="M955.428,65.093H953.21v-.528c0-2.984.01-5.969-.01-8.953,0-.414.135-.57.528-.622.56-.073,1.119-.187,1.7-.29Z" transform="translate(-854.421 -49.034)"/><path class="b" d="M951.651,17.2a1.453,1.453,0,0,1-1.451-1.44,1.456,1.456,0,1,1,2.912.021A1.438,1.438,0,0,1,951.651,17.2Z" transform="translate(-851.732 -12.82)"/><path class="b" d="M1072.682,128.6a1.5,1.5,0,0,1,1.5,1.471,1.475,1.475,0,0,1-1.451,1.513,1.493,1.493,0,0,1-1.534-1.482A1.513,1.513,0,0,1,1072.682,128.6Zm-.021,2.694a1.223,1.223,0,0,0,1.2-1.233,1.2,1.2,0,1,0-2.394.062A1.174,1.174,0,0,0,1072.661,131.293Z" transform="translate(-960.193 -115.276)"/><path class="b" d="M77.32,38.271a7.16,7.16,0,1,1-7.1-7.171A7.108,7.108,0,0,1,77.32,38.271Zm-8.259,4.217a4.388,4.388,0,1,0-4.383-4.352A4.466,4.466,0,0,0,69.061,42.488Z" transform="translate(-56.466 -27.88)"/><path class="b" d="M1081.542,135.34c-.062.228-.114.425-.166.622-.062-.01-.124-.031-.176-.041V134.2a3.1,3.1,0,0,1,.964.321c.1.073-.031.477-.062.736h-.156c.125.2.249.4.394.642C1081.77,136.076,1081.853,135.454,1081.542,135.34Z" transform="translate(-969.157 -120.296)"/></g></g></svg>