<svg xmlns="http://www.w3.org/2000/svg" xmlns:xlink="http://www.w3.org/1999/xlink" viewBox="0 0 93.647 43.227"><defs><style>.a{fill:none;}.b{clip-path:url(#a);}.c{opacity:0.5;}.d{fill:#1f3550;}</style><clipPath id="a"><rect class="a" width="93.647" height="43.227"/></clipPath></defs><g class="b"><g transform="translate(-444 -1584)"><g class="c" transform="translate(444 1584)"><g transform="translate(0 0)"><path class="d" d="M141.778,39.478c0,2.211-.051,4.114,0,5.966a7.656,7.656,0,0,1-.771,3.188,3.063,3.063,0,0,1-3.291,1.9c-1.337-.1-2.931-.514-3.188-2.366a17.775,17.775,0,0,1-.463-2.726c-.051-8.28-.051-16.611,0-24.891a8.015,8.015,0,0,1,.411-2.469c1.029-3.291,3.7-3.908,6.274-1.594.206.154.36.36.771.669,1.954-1.749,4.423-2.109,7.046-1.954a9.723,9.723,0,0,1,5.76,2.366,12.7,12.7,0,0,1,4.423,9.72,14.364,14.364,0,0,1-4.68,11.468C151.035,41.33,145.789,41.793,141.778,39.478Zm0-11.417a4.982,4.982,0,0,0,1.9,4.731c1.491,1.286,4.371,1.234,5.5-.257,1.851-2.417,2.417-5.194.463-8.177-1.646-2.52-4.32-2.777-6.428-.72A5,5,0,0,0,141.778,28.062Z" transform="translate(-65.112 -7.322)"/><path class="d" d="M79.765,27.458a12.877,12.877,0,0,1,1.646-7.148,10.857,10.857,0,0,1,6.737-5.5,13.037,13.037,0,0,1,7.3-.206,10.956,10.956,0,0,1,7.1,5.348c3.137,5.348,2.88,10.748-.566,15.84a9.652,9.652,0,0,1-8.64,4.577,22.374,22.374,0,0,1-4.577-.257,11.578,11.578,0,0,1-8.588-8.64A16.848,16.848,0,0,1,79.765,27.458Zm7.611-.309a7.184,7.184,0,0,0,1.337,4.166,3.722,3.722,0,0,0,6.017.617,6.806,6.806,0,0,0,.926-8.177,4,4,0,0,0-3.7-2.366,3.857,3.857,0,0,0-3.7,2.623C87.994,25.092,87.685,26.121,87.376,27.149Z" transform="translate(-38.739 -6.873)"/><path class="d" d="M7.623,16.67a11.039,11.039,0,0,1,10.9-.926A6.738,6.738,0,0,1,22.64,22.07c.154,4.886.1,9.771,0,14.657-.051,2.417-1.286,3.5-3.754,3.446-2.211-.051-3.343-1.131-3.446-3.5-.051-2.726.051-5.5-.051-8.228a23.616,23.616,0,0,0-.514-4.268,3.483,3.483,0,0,0-5.3-2.366,2.455,2.455,0,0,0-.926,1.131,17.606,17.606,0,0,0-.874,3.96c-.154,2.828,0,5.657-.051,8.485a9.769,9.769,0,0,1-.463,2.726c-.566,1.851-1.029,2.057-3.24,2.057-1.749,0-2.983-.771-3.394-2.109a10.189,10.189,0,0,1-.566-2.983c-.051-4.783-.051-9.617,0-14.4a13.339,13.339,0,0,1,.617-3.754c.566-1.8,3.24-2.571,5.246-1.543A13.388,13.388,0,0,1,7.623,16.67Z" transform="translate(-0.025 -7.142)"/><path class="d" d="M51.674,15.26a17.967,17.967,0,0,1-2.571-.566A2.808,2.808,0,0,1,47.1,11.969a2.757,2.757,0,0,1,1.8-2.828c.874-.36,1.7-.669,2.777-1.08a27.9,27.9,0,0,1,.051-3.6,8.057,8.057,0,0,1,.823-2.88C53.217.192,54.605-.271,56.508.089a3.209,3.209,0,0,1,2.366,2.674c.257,1.7.463,3.343.771,5.348.72.257,1.7.514,2.623.874a3.248,3.248,0,0,1,2.263,3.291A3.291,3.291,0,0,1,61.548,15a10.885,10.885,0,0,1-1.9.1c-.051.72-.154,1.389-.154,2.057,0,3.188.051,6.326-.051,9.514a25.928,25.928,0,0,1-.514,4.011A3,3,0,0,1,55.737,33c-2.417.051-2.88-.154-3.5-2.109a9.769,9.769,0,0,1-.463-2.726c-.051-3.446,0-6.84,0-10.285A21.085,21.085,0,0,1,51.674,15.26Z" transform="translate(-22.888 0.028)"/></g></g></g></g></svg>