<svg xmlns="http://www.w3.org/2000/svg" viewBox="0 0 157.674 39.267"><defs><style>.a{opacity:0.5;}.b{fill:#1f3550;}</style></defs><g class="a"><g transform="translate(0 0)"><path class="b" d="M-.079,20.561c1.2.295,2.42.589,3.62.863.758.168,1.536.295,2.462.484a5.434,5.434,0,0,0-.442-.968,8.045,8.045,0,0,1-1.2-5.7,14.444,14.444,0,0,1,.863-3.3A33.079,33.079,0,0,0,6.592,7.471a10.751,10.751,0,0,0-.021-2.462,1.464,1.464,0,0,1,.568.168A4.624,4.624,0,0,1,8.571,7.2a13.531,13.531,0,0,1,.694,3.767,11.364,11.364,0,0,0,1.2-3.136c.168-1.263.4-2.525.442-3.809A5.951,5.951,0,0,1,12.317.505,1.377,1.377,0,0,1,13.621,0a6.593,6.593,0,0,0-.21,1.263,6.618,6.618,0,0,0,.568,2.61,20.462,20.462,0,0,1,1.536,4.293c.21,1.115.358,2.252.526,3.388.063-.21.126-.442.168-.652.063-.274.084-.547.126-.821.168-.842.295-1.7.505-2.525a13.043,13.043,0,0,1,1.3-3.283c.189-.316.316-.694.842-.737a2.02,2.02,0,0,1,0,.505,5.414,5.414,0,0,0-.021,2.252,11.057,11.057,0,0,0,1.747,4.314,9.189,9.189,0,0,1,1.3,3.914c.042.484.168.947.189,1.431a9.052,9.052,0,0,1-1.6,5.514c-.042.042-.021.126-.021.231.758.358,1.452-.21,2.189-.21A10.853,10.853,0,0,0,24.88,21c.737-.168,1.473-.295,2.336-.442a2.71,2.71,0,0,1,0,.716,13.747,13.747,0,0,1-2.967,4.735,1.375,1.375,0,0,1-1.115.442q-9.786-.032-19.572,0a1.142,1.142,0,0,1-1.01-.547,19.2,19.2,0,0,1-2.4-3.788A1.847,1.847,0,0,0-.1,21.8C-.079,21.4-.079,20.982-.079,20.561Z" transform="translate(0.1 0)"/><path class="b" d="M336.7,99.556c0-2.652.021-5.282-.021-7.913a4.7,4.7,0,0,0-.274-1.515,2.145,2.145,0,0,0-2.631-1.284,2.42,2.42,0,0,0-1.936,2.589v8.229h-2.462c-.021-.253-.063-.526-.063-.8,0-2.483,0-4.967-.021-7.471a4.132,4.132,0,0,0-.21-1.221,1.893,1.893,0,0,0-2.525-1.3c-.968.295-.968.295-1.978,1.41a5.471,5.471,0,0,1,.105.821c0,2.483.021,4.967,0,7.471a6.243,6.243,0,0,1-.21,1.136c-.694,0-1.284.021-1.873,0-.484-.021-.589-.168-.631-.652-.021-.21,0-.421,0-.631V87.5a.543.543,0,0,1,.568-.61h.316c1.094-.021,1.178.021,1.452,1.179a2.926,2.926,0,0,0,.126.274c1.936-2.083,4.84-2.5,6.44.526a20.674,20.674,0,0,1,1.6-1.41,4.042,4.042,0,0,1,4.525-.231,3.845,3.845,0,0,1,2,2.694,16.262,16.262,0,0,1,.232,2.483c.021,2.147.021,4.272,0,6.419,0,.884-.084.947-.968.947-.421,0-.842,0-1.263-.021A.7.7,0,0,0,336.7,99.556Z" transform="translate(-254.179 -68.409)"/><path class="b" d="M145.736,75v5.3c0,1.221,0,1.221-1.221,1.221-1.536.021-1.515.084-1.515-1.452V64.415c.021-.631.126-.758.737-.758,1.894-.021,3.788-.084,5.682.021a6.754,6.754,0,0,1,4.02,1.536,5.45,5.45,0,0,1,1.115,1.6c.147.253.105.631.253.884a4.1,4.1,0,0,1-.063,3.409A5.164,5.164,0,0,1,151.86,74.2a9.492,9.492,0,0,1-4.63.821C146.746,74.979,146.3,75,145.736,75Zm.105-8.839a36.149,36.149,0,0,0,.063,6.313c.884,0,1.81-.021,2.715,0a3.169,3.169,0,0,0,3.472-2.736A3.055,3.055,0,0,0,151.313,67a2.744,2.744,0,0,0-2.062-.821C148.135,66.1,147,66.162,145.841,66.162Z" transform="translate(-112.885 -50.231)"/><path class="b" d="M24.545,137.874H15.18a2.151,2.151,0,0,1-.737-.021c-.189-.084-.442-.295-.442-.484-.042-1.052-.021-2.1-.021-3.157a.513.513,0,0,1,.526-.547c.253-.021.484,0,.737,0h18.73c1.263,0,1.263,0,1.263,1.284,0,.694.021,1.41,0,2.1-.021.673-.126.8-.8.8-.842.021-1.684,0-2.525,0C29.469,137.874,27.007,137.874,24.545,137.874Z" transform="translate(-11.013 -105.528)"/><path class="b" d="M524.242,80.967h-2.189c-.168-.8-.21-17.025-.021-18.267h2.083a8.592,8.592,0,0,1,.105,2.315c.021.737,0,1.473,0,2.21v2.4c.463-.337.842-.631,1.242-.884a4.686,4.686,0,0,1,5.451.168,3.578,3.578,0,0,1,1.094,1.6,11.444,11.444,0,0,1,.61,4.377v4.946a1.469,1.469,0,0,1-.421,1.2h-1.726a.542.542,0,0,1-.589-.589V72.759a3.769,3.769,0,0,0-.042-.842c-.379-1.852-1.873-2.062-3.094-1.7A7.181,7.181,0,0,0,525,71.1a1.789,1.789,0,0,0-.821,1.684c.063,2.357.021,4.693.021,7.05A9.006,9.006,0,0,1,524.242,80.967Z" transform="translate(-412.052 -49.505)"/><path class="b" d="M259.675,99.815a5.855,5.855,0,0,1-4.735-2.231,6.056,6.056,0,0,1-1.3-3.03A8.818,8.818,0,0,1,253.824,91a5.639,5.639,0,0,1,2.273-3.409,6.123,6.123,0,0,1,6.145-.484c2.1.989,3.009,2.8,3.409,5.03a7.243,7.243,0,0,1-.274,3.241,5.586,5.586,0,0,1-2.673,3.578A6.564,6.564,0,0,1,259.675,99.815Zm3.451-6.587a6.713,6.713,0,0,0-.842-3.115A2.337,2.337,0,0,0,261,89.019a3.566,3.566,0,0,0-2.715.063,2.446,2.446,0,0,0-1.473,1.515,8.955,8.955,0,0,0-.463,3.178,5.843,5.843,0,0,0,.8,2.525,1.8,1.8,0,0,0,.589.716,3.329,3.329,0,0,0,2.673.442c.842-.253,1.81-.442,1.936-1.6,0-.021.042-.063.063-.084A4.1,4.1,0,0,0,263.126,93.228Z" transform="translate(-200.16 -68.289)"/><path class="b" d="M584.508,93.259c-.274,3.493,2.589,4.988,4.777,4.209.842-.295,1.684-.652,2.525-1.01,1.368,1.052,1.368,1.221,0,2.147a6.494,6.494,0,0,1-6.819.463,5.515,5.515,0,0,1-2.546-2.9,8.774,8.774,0,0,1-.526-4.5,5.756,5.756,0,0,1,1.347-3.094,5.482,5.482,0,0,1,3.346-1.978,5.179,5.179,0,0,1,5.766,2.589,8.612,8.612,0,0,1,.821,2.652,1.1,1.1,0,0,1-1.179,1.41C589.559,93.259,587.076,93.259,584.508,93.259Zm6.208-1.789a2.649,2.649,0,0,0-1.073-2.315,3.872,3.872,0,0,0-3.683-.042.787.787,0,0,0-.316.274,4.911,4.911,0,0,0-1.031,2A30.123,30.123,0,0,0,590.717,91.47Z" transform="translate(-459.375 -68.278)"/><path class="b" d="M416.367,93.5c.189.779.295,1.452.505,2.1A3.326,3.326,0,0,0,421,97.791a8.077,8.077,0,0,0,2.294-.926,3.024,3.024,0,0,1,.631-.253c.253.231.526.463.758.716.421.442.421.61-.063,1.052a5.288,5.288,0,0,1-2.441,1.347,9.255,9.255,0,0,1-2.147.295,5.922,5.922,0,0,1-6-5.935,10.363,10.363,0,0,1,.189-3.009,5.841,5.841,0,0,1,8.649-3.43,4.033,4.033,0,0,1,1.557,1.642,6.52,6.52,0,0,1,.758,3.2c-.021.968-.063,1.031-.989,1.031h-4.1C418.893,93.5,417.693,93.5,416.367,93.5Zm6.461-1.747c-.442-1.62-.442-1.62-1.01-2.126a2.686,2.686,0,0,0-2.083-.758,3.013,3.013,0,0,0-3.03,2.883Z" transform="translate(-326.863 -68.518)"/><path class="b" d="M653.285,99.027c-.231.168-.484.295-.694.463a4.594,4.594,0,0,1-4.672.9,4.172,4.172,0,0,1-2.462-2.652,6.968,6.968,0,0,1-.463-2.652c.042-2.168.021-4.335.021-6.524,0-.9.063-.968.947-.968h1.347a1.348,1.348,0,0,1,.442,1.242V96.1a3.174,3.174,0,0,0,.126,1.01,2.251,2.251,0,0,0,2.589,1.431,4.091,4.091,0,0,0,2.147-.968,1.652,1.652,0,0,0,.61-1.368c-.042-2.42-.021-4.84-.021-7.239v-.631c.042-.547.147-.694.673-.716.568-.021,1.115,0,1.663,0a122.158,122.158,0,0,1,.126,12.69C654.19,100.69,653.664,100.416,653.285,99.027Z" transform="translate(-509.233 -69.165)"/><path class="b" d="M711.217,99.976a6.068,6.068,0,0,1-3.851-1.326c-.379-.274-.379-.421-.126-.884.526-.884.821-.968,1.789-.505a12.083,12.083,0,0,0,1.494.694,3.324,3.324,0,0,0,2.126-.168,1.572,1.572,0,0,0,1.115-1.6,1.531,1.531,0,0,0-1.094-1.389c-.526-.189-1.073-.316-1.578-.526-.652-.253-1.263-.568-1.915-.821a3.213,3.213,0,0,1-1.01-5.219,4.908,4.908,0,0,1,3.346-1.515,6.128,6.128,0,0,1,4.083,1.3.53.53,0,0,1,.189.8c-.547.968-.737.989-1.81.505a3.833,3.833,0,0,0-3.22-.274,1.429,1.429,0,0,0-.947,1.368c-.021.673.168.968.884,1.242.505.21,1.052.337,1.578.505a9.054,9.054,0,0,1,2.652,1.179,1.962,1.962,0,0,1,.989,1.81c-.021.463-.021.9,0,1.368a2.571,2.571,0,0,1-.989,2.062A5.379,5.379,0,0,1,711.217,99.976Z" transform="translate(-558.242 -68.451)"/><path class="b" d="M476.76,72.981h2.694c.316,0,.716-.021.779.358a3.532,3.532,0,0,1-.084,1.326c-.021.126-.421.21-.631.21-.863.021-1.747,0-2.673,0a3.715,3.715,0,0,0-.105.61c0,2.21-.021,4.419,0,6.608,0,1.221.779,1.684,1.873,1.179.274-.126.568-.274.9-.442a4.167,4.167,0,0,1,1.01,1.515,5.463,5.463,0,0,1-3.136,1.242,3.022,3.022,0,0,1-3.178-3.115v-7.45c-.379-.295-.779-.147-1.136-.168-.716-.063-1.094-.526-.926-1.179.042-.189.295-.337.463-.484.063-.063.21,0,.316-.021,1.578-.484,1.494.105,1.536-1.726.021-.716.126-1.452.21-2.168a.894.894,0,0,1,.779-.737,3.165,3.165,0,0,1,.631,0c.526.042.673.168.673.694.021,1.01,0,2.041,0,3.052A2.5,2.5,0,0,0,476.76,72.981Z" transform="translate(-372.735 -54.104)"/><path class="b" d="M34.146,160.9H46.794a3.93,3.93,0,0,1,0,.863,5.949,5.949,0,0,1-4.63,4.314,6.862,6.862,0,0,1-6.124-1.263A4.5,4.5,0,0,1,34,161.237a.748.748,0,0,1,.042-.21C34.041,161.005,34.083,160.984,34.146,160.9Z" transform="translate(-26.822 -127.039)"/><path class="b" d="M213.394,88.926a9.046,9.046,0,0,1,2-1.7,3.678,3.678,0,0,1,3.009-.231.568.568,0,0,1,.463.61,6.964,6.964,0,0,1-.21,1.326c-.168.568-.358.652-.9.547a6.083,6.083,0,0,0-1.221-.168,3.018,3.018,0,0,0-2.9,2.946v6.608c0,.884-.063.947-.968.968h-.737c-.716-.021-.821-.126-.821-.884V87.81c0-.716.126-.821.884-.842.21,0,.421-.021.631,0a.86.86,0,0,1,.8.8C213.415,88.147,213.394,88.547,213.394,88.926Z" transform="translate(-166.653 -68.512)"/></g></g></svg>