<svg width="130" height="77" viewBox="0 0 130 77" fill="none" xmlns="http://www.w3.org/2000/svg">
<g clip-path="url(#clip0)">
<path d="M4.23503 48.3272C7.60304 48.3272 9.26603 50.4612 9.26603 52.9995C9.26603 55.2688 7.85588 57.133 5.49776 57.6278L10.0658 64.3224H8.00257L3.56055 57.7631H1.85627V64.3224H0.129883V48.3272H4.23503ZM1.85627 56.0098H4.21439C6.19288 56.0098 7.51901 54.8189 7.51901 52.9995C7.51901 51.2022 6.15087 50.0789 4.19302 50.0789H1.85627V56.0098V56.0098Z" fill="black"/>
<path d="M19.3157 48.3272L25.7473 64.3216H23.9214L22.481 60.5924H15.1568L13.737 64.3216H11.9111L18.3221 48.3272C18.3221 48.3272 19.3157 48.3272 19.3157 48.3272ZM19.6607 53.3818C19.3769 52.6629 18.9914 51.7221 18.8897 51.3398H18.7879C18.6663 51.789 18.3412 52.5952 18.0169 53.4038L15.846 58.8407H21.7903L19.6607 53.3818Z" fill="black"/>
<path d="M40.2699 48.3272H41.2805V64.3216H39.5541V54.4972C39.5541 53.5313 39.5961 52.3852 39.6175 51.9361H39.4907C39.2386 52.2727 38.6489 53.0145 38.1646 53.5313L34.7007 57.4972L31.2362 53.5313C30.7519 53.0145 30.1629 52.2735 29.91 51.9361H29.7626C29.784 52.3852 29.8466 53.5313 29.8466 54.4972V64.3216H28.0996V48.3272H29.1309L34.7007 54.8692L40.2699 48.3272Z" fill="black"/>
<path d="M49.5563 48.3272C52.8197 48.3272 54.2932 50.4392 54.2932 52.7077C54.2932 54.0779 53.5775 55.4702 52.5455 56.0326C53.9136 56.6391 54.8616 58.3011 54.8616 59.8066C54.8616 62.7493 52.6722 64.3224 50.104 64.3224H45.1475V48.3272H49.5563ZM46.8731 55.3357H49.7458C51.3881 55.3357 52.5882 54.5271 52.5882 52.7077C52.5882 51 51.2827 50.0789 49.6831 50.0789H46.8739V55.3357H46.8731ZM46.8731 62.5699H50.0193C51.7457 62.5699 53.0932 61.6709 53.0932 59.7618C53.0932 57.9645 51.7877 57.089 49.8718 57.089H46.8731V62.5699Z" fill="black"/>
<path d="M59.9403 62.5699H66.7146V64.3216H58.2139V48.3272H59.9403V62.5699Z" fill="black"/>
<path d="M69.3232 48.3272H77.6177V50.0789H71.0496V54.9762H77.4282V56.7736H71.0496V62.5691H77.6177V64.3209H69.3232V48.3272Z" fill="black"/>
<path d="M85.2722 48.3272C88.6409 48.3272 90.3039 50.4612 90.3039 52.9995C90.3039 55.2688 88.893 57.133 86.5356 57.6278L91.1037 64.3224H89.0404L84.5984 57.7631H82.8934V64.3224H81.167V48.3272H85.2722ZM82.8934 56.0098H85.2515C87.2308 56.0098 88.5569 54.8189 88.5569 52.9995C88.5569 51.2022 87.188 50.0789 85.2309 50.0789H82.8941L82.8934 56.0098Z" fill="black"/>
<path d="M121.985 61.6433C121.947 61.5379 121.919 61.4262 121.909 61.309C121.893 61.2666 121.878 61.2225 121.859 61.1816C121.828 61.1155 121.795 61.0503 121.761 60.9865C121.735 60.9401 121.692 60.867 121.684 60.8552C121.581 60.6963 121.475 60.539 121.36 60.3895C121.303 60.3156 120.961 59.9294 121.223 60.1968C121.152 60.1244 121.09 60.045 121.035 59.9624C120.128 61.8014 118.434 62.7634 116.768 62.7666C113.322 62.7603 111.085 59.798 111.085 56.2749C111.085 52.7258 113.464 49.7832 116.917 49.7832C118.243 49.7832 119.485 50.2772 120.537 51.1086V49.0186C119.421 48.3673 118.201 48.0079 116.917 48.0079C112.706 48.0079 109.317 51.6466 109.317 56.2741C109.317 60.8843 112.547 64.4908 116.734 64.5167C116.743 64.5167 116.752 64.5183 116.76 64.5183C116.763 64.5183 116.766 64.5183 116.769 64.5175C116.773 64.5175 116.776 64.5183 116.78 64.5183V64.5175C118.869 64.5112 120.854 63.4548 121.985 61.6433Z" fill="black"/>
<path d="M124.357 54.4642C127.003 54.4642 128.895 56.7225 128.895 59.5023C128.895 62.238 127.003 64.5183 124.357 64.5183C121.712 64.5183 119.819 62.238 119.819 59.5455C119.819 56.5706 121.834 54.4642 124.357 54.4642ZM124.357 62.9113C125.944 62.9113 127.206 61.4994 127.206 59.4802C127.206 57.439 125.823 56.0712 124.357 56.0712C122.831 56.0712 121.508 57.4611 121.508 59.5243C121.508 61.3916 122.73 62.9113 124.357 62.9113Z" fill="black"/>
<path d="M105.791 64.2666L103.412 61.593C102.043 63.5476 100.528 64.5136 98.8852 64.5136C97.5377 64.5136 96.4217 64.0416 95.5164 63.1205C94.6112 62.1766 94.1689 61.0534 94.1689 59.728C94.1689 57.594 95.369 56.4251 97.6431 54.9204C96.5484 53.7295 96.0007 52.6062 96.0007 51.5727C96.0007 50.5171 96.359 49.6628 97.0534 49.0115C97.7485 48.3367 98.6117 48 99.6009 48C100.59 48 101.433 48.3367 102.128 49.0108C102.844 49.6849 103.202 50.5383 103.202 51.5947C103.202 52.9649 102.275 54.2235 100.401 55.3687L103.286 58.6944L104.802 56.1105H106.844L104.486 60.0646L108.171 64.2658L105.791 64.2666ZM98.8078 56.1734C96.8168 57.2117 95.8216 58.4868 95.8216 60.0206C95.8216 60.7757 96.1312 61.4365 96.7512 62.0272C97.3704 62.6171 98.0559 62.9003 98.7857 62.9003C99.2943 62.9003 99.8029 62.7351 100.312 62.4283C100.821 62.098 101.175 61.7912 101.419 61.508C101.662 61.2013 101.994 60.8001 102.37 60.2574L98.8078 56.1734ZM99.1815 54.1314C99.8007 53.8247 100.133 53.6123 100.686 53.1639C101.239 52.692 101.548 52.1256 101.548 51.4641C101.548 50.3314 100.708 49.5519 99.5796 49.5519C98.451 49.5519 97.6328 50.3786 97.6328 51.3933C97.6328 52.1485 98.1421 53.0688 99.1815 54.1314Z" fill="black"/>
</g>
<defs>
<clipPath id="clip0">
<rect width="1920" height="6741" fill="white" transform="translate(-465 -2888)"/>
</clipPath>
</defs>
</svg>
