<svg xmlns="http://www.w3.org/2000/svg" viewBox="0 0 167.109 29.414"><defs><style>.a{fill:#8e99a6;}</style></defs><g transform="translate(0 -0.064)"><g transform="translate(0 0.065)"><path class="a" d="M0,191.69c.138-.882.308-1.754.425-2.636.3-2.19.585-4.368.893-6.654,2.9.67,5.761,1.329,8.684,2-.223,2.657-.446,5.293-.67,8.035H0C0,192.189,0,191.945,0,191.69Z" transform="translate(0 -163.02)"/><path class="a" d="M1003.34,78.867V99.816H999.8V86.5c-.117.308-.2.489-.266.68-1.4,4.05-2.817,8.089-4.2,12.138a.682.682,0,0,1-.786.563,14.644,14.644,0,0,0-1.807,0,.685.685,0,0,1-.8-.553q-2.089-6.074-4.22-12.138c-.074-.223-.17-.446-.244-.659a.782.782,0,0,0-.149.043,5.086,5.086,0,0,1,.074.563c.053.691.117,1.371.128,2.062.01,3.348-.011,6.7.021,10.044,0,.521-.159.67-.659.648-.8-.043-1.594-.032-2.392,0-.457.021-.606-.106-.606-.585.021-2.817.01-5.633.01-8.45V78.877H985.8c.606,0,1.2.032,1.807-.011.436-.032.617.128.755.531,1.116,3.242,2.264,6.484,3.4,9.725.648,1.849,1.275,3.7,1.86,5.389,1.69-4.815,3.422-9.789,5.176-14.763.361-1.042.138-.85,1.19-.861C1001.087,78.867,1002.182,78.867,1003.34,78.867Z" transform="translate(-879.323 -70.487)"/><path class="a" d="M1292.786,85.725c.032.393.1.787.106,1.18q.032,5.421.064,10.841c0,.531-.011,1.063,0,1.594.011.308-.085.457-.414.446-.935-.011-1.881-.021-2.817,0-.446.011-.415-.266-.415-.553V92.219c0-4.252.011-8.5-.01-12.755,0-.51.1-.723.67-.691,1.063.053,2.126.021,3.189.011a.556.556,0,0,1,.595.393c1.5,3.433,3.029,6.866,4.517,10.31.34.776.563,1.594.925,2.413V79.794c0-1.18-.128-.988,1.021-1,.691-.011,1.382.011,2.073-.011.383-.011.531.1.531.51q-.016,9.98,0,19.972c0,.436-.17.542-.564.531-.776-.021-1.562-.032-2.338,0a.757.757,0,0,1-.84-.531q-2.917-6.521-5.857-13.02c-.085-.191-.181-.372-.266-.553C1292.892,85.7,1292.839,85.714,1292.786,85.725Z" transform="translate(-1152.263 -70.405)"/><path class="a" d="M514.914,99.885H511.3V79.01c.043-.032.074-.064.106-.064a41.824,41.824,0,0,1,7.472.276c3.858.723,5.676,3.826,5.1,7.589a7.178,7.178,0,0,1-1.871,3.911,5.01,5.01,0,0,1-3.04,1.531c.149.181.255.308.372.425,1.616,1.69,3.242,3.369,4.857,5.059.765.8.818.967.616,2.179-1.01,0-2.03.021-3.05-.021-.17-.011-.351-.213-.489-.361q-2.918-3.189-5.835-6.4c-.181-.191-.361-.383-.627-.67Zm.042-17.793c-.032.074-.064.106-.064.138-.011,2.253-.011,4.5,0,6.749a.535.535,0,0,0,.276.372,3.517,3.517,0,0,0,4.974-2.221,5.894,5.894,0,0,0,.223-1.722,2.958,2.958,0,0,0-1.934-2.955A8.4,8.4,0,0,0,514.956,82.093Z" transform="translate(-456.955 -70.536)"/><path class="a" d="M811.1,99.9V79.036c.053-.032.1-.074.138-.074,2.232,0,4.464-.053,6.7.032a6.62,6.62,0,0,1,6.292,4.73A15.745,15.745,0,0,1,824.195,95a7.151,7.151,0,0,1-7.1,4.932c-1.913.021-3.826,0-5.74,0A1.612,1.612,0,0,1,811.1,99.9Zm3.614-3.167c1.031,0,2.041.064,3.04-.011a3.249,3.249,0,0,0,2.657-1.8,7.444,7.444,0,0,0,.67-1.552,16.008,16.008,0,0,0,.372-5.686,7.519,7.519,0,0,0-1.116-3.88,4.14,4.14,0,0,0-1.456-1.329c-1.318-.659-2.763-.287-4.167-.361Z" transform="translate(-724.89 -70.562)"/><path class="a" d="M677.8,87.607v3.242h-5.825c-.021.223-.042.393-.042.563,0,1.626.011,3.263-.011,4.889-.011.436.117.574.563.574,2.253-.021,4.5-.011,6.749-.011h.68v3.284c-.181.011-.361.021-.531.021-3.486,0-6.983-.011-10.469.011-.5,0-.616-.149-.616-.627q.016-9.885.011-19.77c0-.191.021-.383.032-.585h11.267v3.21h-7.621c-.021.213-.042.372-.042.521,0,1.382.011,2.763-.011,4.145-.011.425.138.542.542.531,1.562-.021,3.114-.011,4.677-.011C677.366,87.607,677.568,87.607,677.8,87.607Z" transform="translate(-597.268 -70.789)"/><path class="a" d="M1471.792,90.577h-5.8a1.583,1.583,0,0,0-.064.308c0,1.775,0,3.539-.01,5.314,0,.415.255.393.531.393,2.285,0,4.571.021,6.856-.011.542-.011.712.138.68.68-.042.85-.011,1.69-.011,2.593-.234.011-.425.043-.606.043-3.475,0-6.94-.011-10.416.011-.521,0-.648-.149-.648-.659q.032-9.853,0-19.706c0-.51.138-.659.648-.648,3.369.021,6.728.021,10.1,0,.5,0,.638.159.616.627-.032.7-.032,1.414,0,2.126.021.4-.138.51-.521.51-2.2-.011-4.39.011-6.59-.021-.5-.011-.627.149-.616.638.032,1.329.021,2.657,0,3.986-.011.436.127.585.574.585,1.562-.021,3.114-.011,4.677-.011.213,0,.414.021.648.032C1471.792,88.451,1471.792,89.482,1471.792,90.577Z" transform="translate(-1306.875 -70.516)"/><path class="a" d="M319.912,192.4H310.57c-.223-2.657-.446-5.293-.67-7.993,2.891-.67,5.75-1.329,8.684-2.009C319.03,185.759,319.466,189.054,319.912,192.4Z" transform="translate(-276.961 -163.02)"/><path class="a" d="M1212.5,78.978c1.105,0,2.179-.011,3.253.011.1,0,.234.159.287.276s.011.244.011.372V99.289c0,.68,0,.68-.7.691H1212.5Z" transform="translate(-1083.625 -70.588)"/><path class="a" d="M135.1,1.45A24.993,24.993,0,0,1,139.83.228c2.19-.149,4.453-.425,6.611.436.818.329,1.679.531,2.6.808-.128.181-.213.329-.308.457-1.244,1.722-2.5,3.433-3.72,5.166a.847.847,0,0,1-.787.393c-1.254-.021-2.519,0-3.773-.021a.827.827,0,0,1-.6-.223q-2.36-2.806-4.687-5.633C135.143,1.6,135.143,1.556,135.1,1.45Z" transform="translate(-120.74 -0.065)"/><path class="a" d="M25.852,92.078c-.68,2.37-1.339,4.677-2.009,7.015-2.8-.67-5.538-1.329-8.344-2.009,1.116-2.912,2.221-5.771,3.337-8.684C21.2,89.633,23.514,90.845,25.852,92.078Z" transform="translate(-13.853 -79.011)"/><path class="a" d="M301.453,97.084c-2.806.68-5.538,1.329-8.344,2.009-.67-2.328-1.329-4.645-2.009-7.015,2.317-1.212,4.624-2.423,7.015-3.678C299.22,91.291,300.326,94.14,301.453,97.084Z" transform="translate(-260.16 -79.011)"/><path class="a" d="M60.462,22.6c1.69,1.913,3.337,3.773,5.017,5.686-.872.606-1.69,1.169-2.519,1.743s-1.658,1.159-2.5,1.7a.747.747,0,0,1-.6.074c-2.083-1.127-4.135-2.264-6.186-3.4a1.3,1.3,0,0,1-.181-.159C55.806,26.363,58.113,24.5,60.462,22.6Z" transform="translate(-47.814 -20.205)"/><path class="a" d="M237.8,28.186c1.7-1.924,3.337-3.784,5.017-5.686,2.338,1.892,4.634,3.763,7,5.665-.234.138-.393.234-.553.329-1.892,1.042-3.784,2.073-5.665,3.125a.674.674,0,0,1-.85-.032C241.127,30.461,239.49,29.356,237.8,28.186Z" transform="translate(-212.525 -20.115)"/></g></g></svg>