<svg xmlns="http://www.w3.org/2000/svg" viewBox="0 0 59.112 59.112"><defs><style>.a{fill:#8e99a6;}</style></defs><path class="a" d="M47.567,14a15.113,15.113,0,0,0-30.145.012,9.783,9.783,0,0,0-8.659,9.71,9.529,9.529,0,0,0,.15,1.72H6.9a6.9,6.9,0,1,0,0,13.808H18.011V55.36a3.76,3.76,0,0,0,3.752,3.752H37.349A3.76,3.76,0,0,0,41.1,55.36V39.254h5.357A12.649,12.649,0,0,0,47.567,14ZM38.793,55.36A1.444,1.444,0,0,1,37.349,56.8H21.763A1.444,1.444,0,0,1,20.32,55.36V50.73H38.793Zm0-6.939H20.32v-14.2H38.793ZM20.32,31.911V28.228a1.444,1.444,0,0,1,1.443-1.443H37.349a1.444,1.444,0,0,1,1.443,1.443v3.683Zm26.15,5.034H41.1V28.228a3.76,3.76,0,0,0-3.752-3.752H21.763a3.76,3.76,0,0,0-3.752,3.752v8.717H6.9a4.6,4.6,0,0,1,0-9.19h3.5a1.187,1.187,0,0,0,.947-.485,1.174,1.174,0,0,0,.15-1.051,7.6,7.6,0,0,1-.427-2.494,7.475,7.475,0,0,1,7.47-7.47A1.158,1.158,0,0,0,19.7,15.1a12.8,12.8,0,0,1,25.608.012,1.158,1.158,0,0,0,1.155,1.155,10.339,10.339,0,0,1,.012,20.678Z"/><g transform="translate(22.96 4.191)"><path class="a" d="M206.339,37.1a1.147,1.147,0,0,0-1.455-.739,11.531,11.531,0,0,0-5.807,4.26,1.15,1.15,0,0,0,.277,1.6,1.2,1.2,0,0,0,.67.208,1.187,1.187,0,0,0,.947-.485,9.226,9.226,0,0,1,4.63-3.406A1.139,1.139,0,0,0,206.339,37.1Z" transform="translate(-198.865 -36.304)"/></g><g transform="translate(21.443 11.12)"><path class="a" d="M187.227,96.359a1.162,1.162,0,0,0-1.432.785l-.023.069a1.158,1.158,0,0,0,.808,1.42,1.453,1.453,0,0,0,.312.046A1.147,1.147,0,0,0,188,97.836l.012-.046A1.148,1.148,0,0,0,187.227,96.359Z" transform="translate(-185.73 -96.314)"/></g><g transform="translate(28.113 52.601)"><path class="a" d="M244.943,455.6a1.443,1.443,0,1,0,1.443,1.443A1.444,1.444,0,0,0,244.943,455.6Z" transform="translate(-243.5 -455.6)"/></g><g transform="translate(26.843 28.009)"><path class="a" d="M236.772,242.6h-3.117a1.155,1.155,0,0,0,0,2.309h3.117a1.155,1.155,0,0,0,0-2.309Z" transform="translate(-232.5 -242.6)"/></g></svg>