<svg xmlns="http://www.w3.org/2000/svg" viewBox="0 0 106 47.111"><defs><style>.a{fill:#8e99a6;}</style></defs><path class="a" d="M142.491,28.388a4.18,4.18,0,0,0-2.2-.488,4.122,4.122,0,0,0-2.136.549,4.384,4.384,0,0,0-1.526,1.465,5.7,5.7,0,0,0-.732,2.014h8.727a4.9,4.9,0,0,0-.671-2.075A4.207,4.207,0,0,0,142.491,28.388Z" transform="translate(-52.967 -10.874)"/><path class="a" d="M106,14.951a6.087,6.087,0,0,0-10.252-4.394A15.473,15.473,0,0,0,86.96,7.811a15.261,15.261,0,0,0-8.971,2.868,6.607,6.607,0,0,0-4.15-1.465,6.2,6.2,0,0,0-2.99.732A13.613,13.613,0,0,0,59.194,3.3,13.463,13.463,0,0,0,48.637,8.36a17.8,17.8,0,0,0-9.764-2.868,16.658,16.658,0,0,0-3.906.427A7.176,7.176,0,0,0,27.827,0a7.37,7.37,0,0,0-7.384,7.384v.488a15.63,15.63,0,0,0-2.38-.183,15.983,15.983,0,0,0-5.919,1.159,8.477,8.477,0,0,0-3.967-.976A8.191,8.191,0,0,0,0,16.111a8.3,8.3,0,0,0,2.563,5.98,8.6,8.6,0,0,0-.061,1.22A15.613,15.613,0,0,0,18.124,38.934a15.157,15.157,0,0,0,8.543-2.563,18.082,18.082,0,0,0,10.618,4.882,9.059,9.059,0,0,0,16.721.549,8.783,8.783,0,0,0,15.317-2.685,14.963,14.963,0,0,0,1.648.122,9.853,9.853,0,0,0,7.262-3.112,15.506,15.506,0,0,0,24.227-12.815,13.928,13.928,0,0,0-.244-2.746A6.021,6.021,0,0,0,106,14.951ZM24.227,29.963a7.588,7.588,0,0,1-3.234,2.2,12.985,12.985,0,0,1-4.76.793,15.5,15.5,0,0,1-3.967-.549A12.606,12.606,0,0,1,8.727,30.94q-1.465-.915-1.465-2.014a1.771,1.771,0,0,1,.366-.976,2.825,2.825,0,0,1,.976-.915,2.9,2.9,0,0,1,1.4-.427,4.007,4.007,0,0,1,1.526.244,13.428,13.428,0,0,1,1.648.671,11.161,11.161,0,0,0,1.77.671,7.2,7.2,0,0,0,1.709.244,3.791,3.791,0,0,0,1.953-.366,1.27,1.27,0,0,0,.549-1.159c0-.488-.61-.976-1.892-1.4s-2.624-.915-4.089-1.4A11.567,11.567,0,0,1,9.52,22.152a3.936,3.936,0,0,1-1.465-3.173,4.849,4.849,0,0,1,1.1-3.112,7.435,7.435,0,0,1,3.112-2.136A12.981,12.981,0,0,1,16.782,13a14.863,14.863,0,0,1,3.6.427,10.38,10.38,0,0,1,3.112,1.282,2.454,2.454,0,0,1,1.282,2.014,2.148,2.148,0,0,1-.732,1.587,2.437,2.437,0,0,1-1.831.671,8.347,8.347,0,0,1-1.892-.488c-.915-.305-1.648-.61-2.136-.732a5.032,5.032,0,0,0-1.709-.244,2.973,2.973,0,0,0-1.526.366,1.133,1.133,0,0,0-.61,1.037c0,.488.61.976,1.892,1.4s2.624.915,4.028,1.343a12.96,12.96,0,0,1,3.661,1.892,3.855,3.855,0,0,1,1.526,3.234A5.7,5.7,0,0,1,24.227,29.963Zm60.6-2.5a6.457,6.457,0,0,0,3.478.976,5.82,5.82,0,0,0,2.014-.305c.549-.244,1.282-.549,2.2-1.037a5.051,5.051,0,0,1,2.014-.732,1.969,1.969,0,0,1,1.1.366,2.851,2.851,0,0,1,.854.854,2.487,2.487,0,0,1,.305,1.1,2.834,2.834,0,0,1-1.4,2.136A11.561,11.561,0,0,1,91.9,32.526a14.3,14.3,0,0,1-4.089.671,11.172,11.172,0,0,1-4.15-.732,9.4,9.4,0,0,1-5.431-5.431,8.99,8.99,0,0,1-.488-1.709,12.1,12.1,0,0,1-.915,2.746A9.107,9.107,0,0,1,73.6,31.794a8.081,8.081,0,0,1-7.323.915,8.282,8.282,0,0,1-2.38-1.343v6.469a2.808,2.808,0,0,1-.793,2.136,2.8,2.8,0,0,1-3.906,0,3.17,3.17,0,0,1-.793-2.136V18.124L51.139,37.347s-.854,3.112-5.126,3.356c0,0-3.539.427-3.539-2.5,0,0-.427-2.929,3.6-2.319,0,0,1.953-.488,1.282-2.136L40.948,16.538a6.077,6.077,0,0,1-.61.671L36.92,21.3l5.553,7.933a2.253,2.253,0,0,1,.671,1.709,2.283,2.283,0,0,1-.793,1.77,2.691,2.691,0,0,1-1.831.732,2.613,2.613,0,0,1-1.343-.366,5.912,5.912,0,0,1-1.343-1.22l-5-7.14L31,26.119v4.211a3.308,3.308,0,0,1-.366,1.526,2.663,2.663,0,0,1-.976,1.037,2.9,2.9,0,0,1-1.465.366,2.536,2.536,0,0,1-2.014-.793,3.013,3.013,0,0,1-.793-2.075V8.238a2.759,2.759,0,0,1,.793-2.075,2.536,2.536,0,0,1,2.014-.793,2.9,2.9,0,0,1,1.465.366,2.663,2.663,0,0,1,.976,1.037A2.9,2.9,0,0,1,31,8.238V20.26l5.553-6.347a3.941,3.941,0,0,1,2.5-1.1,2.309,2.309,0,0,1,1.709.732c.061.061.061.122.122.183a1.731,1.731,0,0,1,.549-.61,2.582,2.582,0,0,1,1.77-.671,3.123,3.123,0,0,1,1.709.488A2.826,2.826,0,0,1,45.952,14.4l4.455,13,3.417-13a3.332,3.332,0,0,1,1.1-1.465,2.689,2.689,0,0,1,1.709-.488,2.911,2.911,0,0,1,1.77.671,2.48,2.48,0,0,1,.549.61c.061-.061.061-.122.122-.122a2.49,2.49,0,0,1,1.953-.793,2.6,2.6,0,0,1,2.746,2.2,4.268,4.268,0,0,1,2.2-1.77,7.178,7.178,0,0,1,3.051-.61A7.932,7.932,0,0,1,73.84,14.1,9.09,9.09,0,0,1,76.83,18a13.02,13.02,0,0,1,.793,2.746c.122-.549.305-1.159.488-1.709a11.389,11.389,0,0,1,2.014-3.3A9.127,9.127,0,0,1,83.3,13.486a9.575,9.575,0,0,1,3.906-.854,9.929,9.929,0,0,1,4.028.854,9.731,9.731,0,0,1,3.112,2.258,10.493,10.493,0,0,1,2.014,3.112,8.615,8.615,0,0,1,.732,3.417,2.1,2.1,0,0,1-2.38,2.38H83.055A4.193,4.193,0,0,0,84.824,27.461ZM99.165,13.731h-1.1v2.99h-.732v-2.99h-1.1v-.61h2.929Zm3.906,2.99h-.732v-2.99h0l-.671,2.99h-.732l-.671-2.99h0v2.99h-.732v-3.6h1.1l.671,2.868h0l.671-2.868h1.1v3.6Z"/><path class="a" d="M108.933,28.6a3.937,3.937,0,0,0-2.38.732,4.262,4.262,0,0,0-1.465,1.953,7.019,7.019,0,0,0-.488,2.5,6.909,6.909,0,0,0,1.1,3.845,3.682,3.682,0,0,0,3.173,1.709,3.526,3.526,0,0,0,3.112-1.648,6.562,6.562,0,0,0,1.159-3.723,6.261,6.261,0,0,0-1.159-3.723A3.359,3.359,0,0,0,108.933,28.6Z" transform="translate(-40.768 -11.147)"/></svg>