<svg xmlns="http://www.w3.org/2000/svg" viewBox="0 0 106.623 31.999"><defs><style>.a,.b,.c,.d,.e,.f{fill:#8e99a6;}.b{opacity:0.5;}.c{opacity:0.7;}.d{opacity:0.8;}.e{opacity:0.4;}.f{opacity:0.9;}</style></defs><g transform="translate(-0.188 5.741)"><g transform="translate(0.178 -5.341)"><g transform="translate(0.011 -0.4)"><path class="a" d="M425.806-.314c.494.021,1.01.021,1.5.043.344.021.473.15.494.494.021.731.043,1.461.043,2.192.021,1.483.043,2.986.043,4.469.021,2.084.021,4.168.043,6.252a3.173,3.173,0,0,0,.021.451c.021.15.107.172.236.086a1.943,1.943,0,0,1,.215-.193c1.891-1.891,3.8-3.781,5.694-5.651.129-.129.279-.258.43-.408a.935.935,0,0,1,.945-.279c.967.215,1.912.451,2.879.688a2.016,2.016,0,0,1,.322.129.288.288,0,0,1,.129.43,1.412,1.412,0,0,1-.258.365l-2.32,2.385c-.945.945-1.891,1.869-2.836,2.815l-.15.15c-.193.193-.193.279-.022.494.172.236.365.473.559.709,1.01,1.225,2,2.471,2.9,3.781.816,1.2,1.611,2.428,2.406,3.631.065.086.107.172.172.258.15.258.086.408-.193.473-.236.043-.494.107-.731.129l-3.094.451a.52.52,0,0,1-.58-.258l-1.74-2.514c-.924-1.354-1.848-2.729-2.75-4.1a1.181,1.181,0,0,0-.15-.193.2.2,0,0,0-.322-.021,3.423,3.423,0,0,0-.279.279c-.344.365-.687.731-1.053,1.1a.858.858,0,0,0-.215.494v.859c-.021,1.246-.021,2.514-.043,3.76,0,.387-.107.516-.516.516-.58.021-1.182.021-1.762,0-.473,0-.924-.021-1.4-.021-.344,0-.451-.129-.451-.451-.043-1.869-.086-3.738-.107-5.608-.043-3.008-.086-6.016-.107-9.024-.021-2.428,0-4.877,0-7.305,0-.473.021-.924.043-1.4a.5.5,0,0,1,.494-.516c.064,0,.15-.021.215-.021a4.062,4.062,0,0,0,1.289.086Z" transform="translate(-332.712 0.4)"/><path class="a" d="M289.388,46.065c-.021,1.268-.043,2.535-.086,3.8,0,.365-.021.709-.021,1.074,0,.258-.086.344-.344.365h-3.266c-.3-.021-.43-.15-.43-.451,0-.236,0-.451-.022-.688v-.15c-.021-.15-.129-.172-.236-.086l-.043.043a5.125,5.125,0,0,1-2.385,1.311,7.467,7.467,0,0,1-4.34-.064A5.174,5.174,0,0,1,276.153,50a4.384,4.384,0,0,1-1.311-2.944,5.344,5.344,0,0,1,.451-2.643,5.011,5.011,0,0,1,2.729-2.578,8.312,8.312,0,0,1,2.879-.6,9.9,9.9,0,0,1,3.781.6c.043.021.064.021.107.043.15.021.258-.043.258-.215,0-.322,0-.623-.021-.945-.022-.215-.043-.451-.086-.666a2.147,2.147,0,0,0-1.2-1.483,4.491,4.491,0,0,0-1.5-.43,4.811,4.811,0,0,0-2.944.537c-.559.279-1.1.6-1.654.9a.449.449,0,0,0-.129.086.409.409,0,0,1-.559-.129c-.451-.666-.9-1.354-1.354-2.041a.514.514,0,0,1,.129-.752,9.371,9.371,0,0,1,3.395-1.934,10.711,10.711,0,0,1,3.867-.408,8.857,8.857,0,0,1,2.471.494,5.409,5.409,0,0,1,3.266,3.2,10.4,10.4,0,0,1,.623,2.686,20.559,20.559,0,0,1,.086,2.3c-.021,1.01-.021,2-.043,2.986Zm-4.254-.623V44.8a.361.361,0,0,0-.129-.3,1.058,1.058,0,0,0-.322-.215,3.5,3.5,0,0,0-1.4-.258,9.466,9.466,0,0,0-1.912.193,4.523,4.523,0,0,0-1.633.666,1.89,1.89,0,0,0-.859,1.547,1.824,1.824,0,0,0,1.182,1.848,3.4,3.4,0,0,0,.666.193,4.732,4.732,0,0,0,3.309-.752,2.552,2.552,0,0,0,.795-.795,1.683,1.683,0,0,0,.193-.451C285.069,46.108,285.091,45.743,285.134,45.442Z" transform="translate(-215.781 -26.9)"/><path class="a" d="M181.807,50.766a12.062,12.062,0,0,1-4.49-.988,7.488,7.488,0,0,1-1.676-1.031.943.943,0,0,1-.3-1.2,8.175,8.175,0,0,1,.945-1.7.768.768,0,0,1,.816-.322,1.209,1.209,0,0,1,.387.15c.559.3,1.1.6,1.654.881a5.989,5.989,0,0,0,2.17.623,5.11,5.11,0,0,0,2.277-.236,1.647,1.647,0,0,0,.666-.408,1.371,1.371,0,0,0,.387-.688,1.058,1.058,0,0,0-.365-1.117,2.8,2.8,0,0,0-.816-.473,10.125,10.125,0,0,0-1.955-.537,17.224,17.224,0,0,1-2.922-.773,6.116,6.116,0,0,1-1.289-.666,3.834,3.834,0,0,1-1.783-2.686,5.461,5.461,0,0,1,.365-3.094,4.7,4.7,0,0,1,2.192-2.32,7.546,7.546,0,0,1,2.535-.773,11.774,11.774,0,0,1,2.75,0,10.276,10.276,0,0,1,4.082,1.332,3.146,3.146,0,0,1,.279.193.754.754,0,0,1,.3.945,6.268,6.268,0,0,1-.3.666c-.172.387-.365.752-.559,1.139a.59.59,0,0,1-.816.3,1.314,1.314,0,0,1-.258-.107,16.281,16.281,0,0,0-1.977-.881,6.06,6.06,0,0,0-2.621-.279,2.512,2.512,0,0,0-1.16.408,1.539,1.539,0,0,0-.709,1.1.938.938,0,0,0,.322.924,2.067,2.067,0,0,0,.688.43,7.686,7.686,0,0,0,1.525.43c.795.172,1.59.3,2.385.494a7.839,7.839,0,0,1,2.084.773,3.924,3.924,0,0,1,2.17,3.2,5.249,5.249,0,0,1-.559,3.18,5.417,5.417,0,0,1-2.75,2.471,7.654,7.654,0,0,1-2.578.6C182.537,50.744,182.172,50.744,181.807,50.766Z" transform="translate(-137.592 -26.079)"/><path class="a" d="M357.91,51.551a9.422,9.422,0,0,1-2.686-.365,7.42,7.42,0,0,1-4.92-4.276,9.7,9.7,0,0,1-.795-3.287,9.382,9.382,0,0,1,.516-3.932,7.845,7.845,0,0,1,5.35-5.028,9.4,9.4,0,0,1,3.545-.322,9.928,9.928,0,0,1,3.438.9,6.457,6.457,0,0,1,1.225.752c.129.107.236.236.344.344a.426.426,0,0,1,.086.473c-.043.107-.086.193-.129.3a17.719,17.719,0,0,1-1.268,2.02c-.043.043-.064.086-.107.129a.263.263,0,0,1-.387.086.754.754,0,0,1-.172-.107,6.756,6.756,0,0,0-3.223-1.182,4.393,4.393,0,0,0-3.309.924,3.949,3.949,0,0,0-1.246,1.869,6.177,6.177,0,0,0,.021,4.125,4.014,4.014,0,0,0,3.438,2.729,4.84,4.84,0,0,0,3.846-1.225c.043-.043.107-.086.15-.129a.365.365,0,0,1,.387-.043,1.228,1.228,0,0,1,.344.236,15.817,15.817,0,0,1,1.482,1.7.542.542,0,0,1-.021.816,6.389,6.389,0,0,1-1.977,1.568,8.219,8.219,0,0,1-3.416.881c-.15,0-.279.021-.43.021C357.975,51.551,357.953,51.551,357.91,51.551Z" transform="translate(-274.398 -26.843)"/><path class="a" d="M251.325,12.36v8.057c0,1.2-.043,2.406-.086,3.61,0,.344-.15.494-.516.494h-3.029a.437.437,0,0,1-.408-.387.881.881,0,0,1-.021-.236c-.021-1.891-.043-3.8-.043-5.694-.021-3.244-.021-6.489-.021-9.733,0-2.578.043-5.178.086-7.756,0-.322.064-.387.387-.43.451-.043.9-.107,1.354-.107C249.585.157,250.144.2,250.7.2h.15c.279.021.365.086.387.387s.021.6.021.9c.021,2.922.064,5.866.086,8.788,0,.688,0,1.4-.021,2.084Z" transform="translate(-194.09 -0.049)"/><path class="b" d="M87.1,48.272l.129.387c.58,1.74,1.182,3.5,1.762,5.242.043.086.043.215.172.258a1.48,1.48,0,0,0-.172.064c-.387.129-.795.258-1.182.387-1.225.408-2.449.816-3.674,1.246-.064.021-.15.064-.215.086h-.043c-.021-.086-.043-.172-.064-.279-.6-1.8-1.225-3.631-1.826-5.436-.021-.064-.064-.15-.086-.215a.021.021,0,0,0,.021-.021c.451-.15.9-.322,1.354-.473,1.031-.344,2.063-.709,3.094-1.053l.516-.193a.166.166,0,0,0,.15-.172A.727.727,0,0,0,87.1,48.272Z" transform="translate(-64.306 -37.68)"/><path class="c" d="M32.3,73.735c-.172-.537-.344-1.074-.537-1.611-.451-1.354-.9-2.707-1.375-4.061a.763.763,0,0,0-.086-.193v-.043a1.39,1.39,0,0,0,.279-.086c1.375-.473,2.729-.924,4.1-1.4.193-.064.408-.129.6-.215.064-.021.107-.086.172-.129.021.021.021.043.043.064.021.086.043.15.064.236.387,1.16.773,2.32,1.182,3.481.215.666.451,1.311.666,1.977.021.086.043.193.172.193-.021.021-.064.021-.086.043-.043.021-.107.021-.172.043l-4.77,1.611a1.152,1.152,0,0,0-.236.107Z" transform="translate(-23.792 -51.734)"/><path class="d" d="M63.8,86.6c.021-.021.064-.021.086-.043,1.912-.645,3.824-1.289,5.758-1.955h.043c.215.645.43,1.268.645,1.912.3.924.623,1.848.924,2.772.021.064.043.107.064.172a.188.188,0,0,0,.193.15c-.064.021-.15.064-.215.086-1.848.623-3.7,1.268-5.543,1.891-.064.021-.15.064-.215.086H65.5a1.79,1.79,0,0,0-.086-.322l-1.289-3.867C64.015,87.178,63.907,86.877,63.8,86.6Z" transform="translate(-50.095 -66.337)"/><path class="e" d="M48.419,40.312c-.021-.021-.021-.043-.043-.064-.064-.215-.15-.451-.215-.666-.451-1.332-.881-2.664-1.332-4l-.129-.322h.021c.731-.236,1.44-.473,2.17-.731,1.139-.387,2.277-.752,3.416-1.139.107-.043.236-.043.236-.193a.163.163,0,0,1,.043.086c0,.043.021.107.021.15.387,1.16.773,2.32,1.16,3.459.15.473.322.924.494,1.4a.021.021,0,0,0-.021.021l-.387.129C52.05,39.066,50.224,39.689,48.419,40.312Z" transform="translate(-36.669 -25.981)"/><path class="b" d="M98.6,101.6c.064-.021.15-.064.215-.086s.129-.043.215-.064c1.1-.365,2.17-.752,3.266-1.117.516-.172,1.031-.365,1.547-.537h.043c.215.688.451,1.354.666,2.041.107.344.258.709.344,1.053a2.73,2.73,0,0,1-5.114,1.912c-.322-.816-.58-1.654-.859-2.492-.064-.193-.129-.387-.193-.559A.138.138,0,0,0,98.6,101.6Z" transform="translate(-77.418 -78.272)"/><path class="c" d="M52.464,117.4h.043c.172.537.365,1.1.537,1.633.172.494.344,1.01.494,1.5a2.724,2.724,0,0,1-2.256,3.524,2.734,2.734,0,0,1-2.965-1.869c-.279-.838-.58-1.7-.859-2.535a1.89,1.89,0,0,1-.107-.322.161.161,0,0,0-.15-.129c.021-.021.064-.021.086-.043.107-.021.215-.064.322-.086,1.16-.408,2.342-.795,3.5-1.2C51.583,117.722,52.013,117.572,52.464,117.4Z" transform="translate(-37.061 -92.09)"/><path class="b" d="M69.836,9.529a.163.163,0,0,1-.043-.086c-.322-.967-.666-1.934-.967-2.879a2.668,2.668,0,0,1,.408-2.557,2.55,2.55,0,0,1,2.449-1.074A2.617,2.617,0,0,1,73.94,4.609c.15.365.258.752.387,1.139.215.6.408,1.2.6,1.8a1.152,1.152,0,0,0,.107.236.021.021,0,0,0-.021.021c-.107.043-.215.064-.322.107C73.059,8.455,71.447,8.992,69.836,9.529Z" transform="translate(-53.918 -2.202)"/><path class="c" d="M18.289,26.744c-.021-.086-.043-.172-.064-.279-.3-.9-.6-1.783-.9-2.686a2.749,2.749,0,0,1,4.4-2.986,2.941,2.941,0,0,1,.816,1.268c.3.881.58,1.74.881,2.621a1.492,1.492,0,0,0,.107.279H23.51c-.731.258-1.483.516-2.213.752-.9.3-1.783.6-2.686.9a.364.364,0,0,0-.258.15C18.332,26.787,18.31,26.766,18.289,26.744Z" transform="translate(-13.479 -15.701)"/><path class="d" d="M116.7,77.155h-.043a1.389,1.389,0,0,0-.086-.279c-.494-1.482-.988-2.944-1.483-4.426-.021-.043-.021-.086-.043-.129a.993.993,0,0,0-.15-.15,1.479,1.479,0,0,0,.172-.064c.988-.344,2-.688,2.986-1.01a2.733,2.733,0,0,1,2.535.344,2.692,2.692,0,0,1,.795,3.459,2.044,2.044,0,0,1-.731.752,5.5,5.5,0,0,1-1.01.494c-.967.322-1.934.645-2.879.988C116.748,77.112,116.726,77.134,116.7,77.155Z" transform="translate(-90.215 -55.605)"/><path class="d" d="M23.818,107.071c-.021.021-.064.021-.086.043-.924.322-1.848.623-2.75.945a2.91,2.91,0,0,1-2.127-.043,2.5,2.5,0,0,1-1.568-2.277,2.707,2.707,0,0,1,1.934-2.772c.859-.3,1.7-.58,2.557-.859.107-.043.193-.064.3-.107v.021c.129.365.258.731.387,1.117l1.225,3.674Z" transform="translate(-13.571 -79.999)"/><path class="e" d="M4.821,51c.021.021.021.043.043.043,0,.021.021.064.021.086L6.5,55.9a.305.305,0,0,1,.043.129v.043c-.15.043-.279.086-.43.129l-2.449.838a2.688,2.688,0,0,1-1.74.064,2.475,2.475,0,0,1-1.8-1.826A2.671,2.671,0,0,1,1.77,52.031c.773-.3,1.59-.537,2.385-.816C4.37,51.15,4.606,51.086,4.821,51Z" transform="translate(-0.011 -39.956)"/><path class="e" d="M99.9,26.412c-.021-.043-.021-.086-.043-.129-.473-1.375-.924-2.75-1.4-4.125-.086-.236-.172-.494-.258-.731a.021.021,0,0,0,.021-.021c1.01-.344,2.02-.709,3.051-1.01a2.641,2.641,0,0,1,2.643.559,2.464,2.464,0,0,1,.859,1.826,2.5,2.5,0,0,1-.988,2.063,3.084,3.084,0,0,1-1.117.58c-.838.279-1.676.559-2.492.859C100.091,26.326,99.983,26.369,99.9,26.412Z" transform="translate(-77.104 -15.82)"/><path class="a" d="M96.192,76.6a.993.993,0,0,1,.15.15c.021.021.021.086.043.129.494,1.482.988,2.944,1.482,4.426a1.39,1.39,0,0,0,.086.279c-.516.172-1.031.365-1.547.537-1.1.365-2.17.752-3.266,1.117-.064.021-.129.043-.215.064-.107,0-.15-.064-.193-.15-.021-.064-.043-.107-.064-.172-.3-.924-.623-1.848-.924-2.772-.215-.645-.43-1.268-.645-1.912.064-.021.15-.064.215-.086,1.225-.408,2.449-.838,3.674-1.246C95.419,76.858,95.805,76.729,96.192,76.6Z" transform="translate(-71.529 -60.056)"/><path class="a" d="M79.435,25.7c.086.236.172.473.258.731.473,1.375.924,2.75,1.4,4.125a.166.166,0,0,1-.15.172l-.516.193c-1.031.344-2.063.709-3.094,1.053-.451.15-.9.3-1.354.473-.172-.473-.322-.924-.494-1.4-.387-1.16-.773-2.32-1.16-3.459a.366.366,0,0,1-.021-.15c1.611-.537,3.223-1.074,4.856-1.611A.562.562,0,0,1,79.435,25.7Z" transform="translate(-58.339 -20.092)"/><path class="a" d="M41.419,100.711c-.043-.086-.064-.172-.107-.258l-1.225-3.674c-.129-.365-.258-.73-.387-1.117a1.152,1.152,0,0,1,.236-.107l4.77-1.611c.064-.021.129-.021.193-.043.107.3.193.58.3.881l1.289,3.867c.043.107.043.215.086.322-.43.15-.881.3-1.311.451-1.16.408-2.342.795-3.5,1.2C41.634,100.646,41.526,100.689,41.419,100.711Z" transform="translate(-31.173 -73.639)"/><path class="f" d="M24.376,49.589a.305.305,0,0,1-.043-.129l-1.611-4.77c0-.021-.021-.064-.021-.086.043-.107.15-.107.258-.15.9-.3,1.783-.6,2.686-.9.731-.258,1.483-.494,2.213-.752a2.016,2.016,0,0,1,.129.322c.451,1.332.881,2.664,1.332,4,.064.215.15.451.215.666a.517.517,0,0,1-.172.129c-.193.086-.408.15-.6.215-1.375.473-2.729.924-4.1,1.4C24.569,49.546,24.462,49.568,24.376,49.589Z" transform="translate(-17.825 -33.518)"/></g></g></g></svg>