<svg xmlns="http://www.w3.org/2000/svg" viewBox="0 0 58.512 51.365"><defs><style>.a{fill:#8e99a6;}</style></defs><path class="a" d="M7.072,51.365a9.314,9.314,0,0,1-3.2-.521l-2.308-.819L3.35,48.313a9.08,9.08,0,0,0,2.978-6.7A23.721,23.721,0,0,1,0,25.683C0,11.539,13.1,0,29.256,0S58.512,11.539,58.512,25.683c.074,14.144-13.1,25.683-29.256,25.683a32.107,32.107,0,0,1-13.772-3.052A14.689,14.689,0,0,1,7.072,51.365Zm8.114-6.551.819.447a29.912,29.912,0,0,0,13.251,3.127c14.516,0,26.278-10.2,26.278-22.7.074-12.506-11.762-22.7-26.278-22.7s-26.278,10.2-26.278,22.7A20.824,20.824,0,0,0,8.859,39.976l.372.447v.6a12.518,12.518,0,0,1-2.084,7.444c3.424-.074,6.625-2.457,7.221-2.9Z"/><path class="a" d="M18.869,39.146a12.844,12.844,0,0,1-2.68-.223,4.723,4.723,0,0,1-1.414-.521c-.074-.074-.074-.223-.074-.447s.074-.447.074-.744l.223-.67c.074-.223.149-.3.223-.3.447.149.893.3,1.414.447a6.7,6.7,0,0,0,1.861.223,5.378,5.378,0,0,0,2.01-.372,1.276,1.276,0,0,0,.819-1.191,1.633,1.633,0,0,0-.521-1.266,5.579,5.579,0,0,0-1.936-1.042c-.521-.223-.968-.447-1.414-.67a6.746,6.746,0,0,1-1.191-.819,3.109,3.109,0,0,1-.819-1.117,3.453,3.453,0,0,1-.3-1.563,3.021,3.021,0,0,1,.3-1.414,2.6,2.6,0,0,1,.893-1.117,3.993,3.993,0,0,1,1.489-.744,6.309,6.309,0,0,1,2.159-.3H21.4c.372,0,.67.074.893.074.223.074.447.074.6.149s.3.074.447.149.149.223.149.447a2.532,2.532,0,0,1-.074.744,2.229,2.229,0,0,1-.3.744c-.149.223-.223.3-.372.223-.3-.074-.67-.149-1.117-.3a9.121,9.121,0,0,0-1.414-.149,4.009,4.009,0,0,0-1.936.372,1.126,1.126,0,0,0-.521,1.042,1.414,1.414,0,0,0,.6,1.117,6.161,6.161,0,0,0,1.861.893,7.481,7.481,0,0,1,2.9,1.787,3.817,3.817,0,0,1,.968,2.531,3.916,3.916,0,0,1-.447,1.936,3.054,3.054,0,0,1-1.191,1.191,4.346,4.346,0,0,1-1.638.6A4.561,4.561,0,0,1,18.869,39.146Z" transform="translate(-3.757 -6.466)"/><path class="a" d="M40.4,39.2a1.072,1.072,0,0,1-.67-.149,1.258,1.258,0,0,1-.149-.67V29.82c-.67,1.042-1.117,1.861-1.489,2.457s-.6.968-.744,1.266a1.842,1.842,0,0,1-.3.447.073.073,0,0,1-.074.074,4.409,4.409,0,0,1-.3.447c-.074.074-.149.074-.372.074h-.372c-.223,0-.372,0-.447-.074a4.41,4.41,0,0,1-.3-.447L32.731,29.82v8.635a1.1,1.1,0,0,1-.074.521c-.074.149-.3.149-.6.149H31.019a1.451,1.451,0,0,1-.6-.074c-.149-.074-.223-.3-.223-.744V26.619a1.486,1.486,0,0,1,.149-.67c.074-.149.3-.149.521-.149h1.191a.944.944,0,0,1,.447.074.878.878,0,0,1,.372.372l3.275,5.211,3.275-5.137a.9.9,0,0,1,.372-.372.809.809,0,0,1,.372-.074h1.34c.3,0,.521.074.521.223a1.652,1.652,0,0,1,.074.67V38.6c0,.223,0,.447-.074.521s-.223.149-.6.149H40.4Z" transform="translate(-7.718 -6.594)"/><path class="a" d="M53.369,39.146a12.844,12.844,0,0,1-2.68-.223,4.723,4.723,0,0,1-1.414-.521c-.074-.074-.074-.223-.074-.447s.074-.447.074-.744l.223-.67c.074-.223.149-.3.223-.3.447.149.893.3,1.414.447A6.7,6.7,0,0,0,53,36.913a5.378,5.378,0,0,0,2.01-.372,1.276,1.276,0,0,0,.819-1.191,1.633,1.633,0,0,0-.521-1.266,5.579,5.579,0,0,0-1.936-1.042c-.521-.223-.968-.447-1.414-.67a6.746,6.746,0,0,1-1.191-.819,3.109,3.109,0,0,1-.819-1.117,3.453,3.453,0,0,1-.3-1.563,3.021,3.021,0,0,1,.3-1.414,2.6,2.6,0,0,1,.893-1.117,3.993,3.993,0,0,1,1.489-.744,6.309,6.309,0,0,1,2.159-.3H55.9c.372,0,.67.074.893.074.223.074.447.074.6.149s.3.074.447.149c.149.149.149.223.149.521a2.3,2.3,0,0,1-.074.744,2.229,2.229,0,0,1-.3.744c-.149.223-.223.3-.372.223-.3-.074-.67-.149-1.117-.3a9.121,9.121,0,0,0-1.414-.149,4.009,4.009,0,0,0-1.936.372,1.126,1.126,0,0,0-.521,1.042,1.414,1.414,0,0,0,.6,1.117,6.161,6.161,0,0,0,1.861.893,7.481,7.481,0,0,1,2.9,1.787A3.817,3.817,0,0,1,58.58,35.2a3.916,3.916,0,0,1-.447,1.936,3.054,3.054,0,0,1-1.191,1.191,4.346,4.346,0,0,1-1.638.6A5.533,5.533,0,0,1,53.369,39.146Z" transform="translate(-12.574 -6.466)"/></svg>