<svg xmlns="http://www.w3.org/2000/svg" viewBox="0 0 157 43.97"><defs><style>.a,.c{fill:#8e99a6;}.b{fill:#8494a3;}.c{opacity:0.5;}</style></defs><g transform="translate(0 0.353)"><g transform="translate(0.001 -0.353)"><g transform="translate(-0.001)"><path class="a" d="M21.967,0A21.985,21.985,0,1,1,0,21.9,21.987,21.987,0,0,1,21.967,0Zm.914,28.365c.914.711,1.862,1.388,2.776,2.1.88.677,1.76,1.354,2.64,2a1.244,1.244,0,0,0,1.862-.2,2.45,2.45,0,0,0,.44-1.015L33.848,15.6c.237-1.151.406-2.3.542-3.453.068-.812-.338-1.117-1.117-.914-.745.2-1.489.474-2.234.745-6.77,2.437-13.506,4.976-20.072,7.921a9.468,9.468,0,0,0-1.015.508.818.818,0,0,0,0,1.456,2.768,2.768,0,0,0,.643.3c1.692.575,3.385,1.117,5.077,1.692a3.586,3.586,0,0,1,.406.677L17.3,28.4c.271.812.508,1.659.812,2.471.338.948.779,1.049,1.523.338.88-.812,1.726-1.625,2.606-2.437C22.441,28.636,22.678,28.5,22.881,28.365Z" transform="translate(0.001)"/><path class="b" d="M419.625,57.249h-2.369v-8.7a9.514,9.514,0,0,0-.034-.982,2.3,2.3,0,0,0-3.114-2.132,2.947,2.947,0,0,0-2.369,2.471,12.559,12.559,0,0,0-.2,2.268c-.034,2.1,0,4.163,0,6.262v.846H409.2V43.709h2.031V45.4a7.976,7.976,0,0,1,.609-.575,5.026,5.026,0,0,1,5.247-1.252,3.412,3.412,0,0,1,2.166,1.929c.3-.271.575-.508.88-.779a4.922,4.922,0,0,1,5.484-.982,3.251,3.251,0,0,1,2.031,3.08c.068,3.419.034,6.8.034,10.222a1.526,1.526,0,0,1-.068.271h-2.166c0-.3-.034-.575-.034-.88V48.414a5.352,5.352,0,0,0-.135-1.286,2.047,2.047,0,0,0-1.76-1.692,3.052,3.052,0,0,0-3.622,2.336,7.759,7.759,0,0,0-.169,1.76c-.034,2.268,0,4.536,0,6.8A2.712,2.712,0,0,0,419.625,57.249Z" transform="translate(-270.69 -28.647)"/><path class="b" d="M303.232,55.695c-.1.034-.169.034-.2.068a5.351,5.351,0,0,1-8.835-2.065,8.589,8.589,0,0,1,.44-7.751,5.432,5.432,0,0,1,7.819-1.76c.3.237.575.474.948.812.034-.508.068-.914.068-1.388H305.6a5,5,0,0,1,.034.711c0,3.723.034,7.413,0,11.136a21.1,21.1,0,0,1-.237,2.911,4.749,4.749,0,0,1-4.062,4.265,7.622,7.622,0,0,1-5.45-.609,3.5,3.5,0,0,1-1.828-3.622l2.133.3a4.113,4.113,0,0,1,.169.474,2.04,2.04,0,0,0,1.354,1.422,4.948,4.948,0,0,0,3.419,0,2.831,2.831,0,0,0,1.862-2A7.729,7.729,0,0,0,303.232,55.695Zm.3-5.382A8.037,8.037,0,0,0,303,47.605a3.644,3.644,0,0,0-3.351-2.4,3.489,3.489,0,0,0-3.216,2.437,7.56,7.56,0,0,0,.034,5.314,3.343,3.343,0,0,0,3.419,2.336A3.457,3.457,0,0,0,303.1,52.75,19.318,19.318,0,0,0,303.537,50.313Z" transform="translate(-194.137 -28.582)"/><path class="b" d="M375.92,57.231h-2.471c-.169-.474-.3-.948-.474-1.489-.339.237-.643.44-.982.643a6.965,6.965,0,0,1-5.822.948,3.525,3.525,0,0,1-2.843-3.182,3.759,3.759,0,0,1,1.862-3.859,8.142,8.142,0,0,1,3.317-.948c1.252-.2,2.5-.44,3.757-.643.169-.034.339-.135.575-.2v-.745a2.235,2.235,0,0,0-2.1-2.437,11.583,11.583,0,0,0-2.166-.034,2.5,2.5,0,0,0-2.3,1.76c-.1.237-.169.44-.271.745-.745-.1-1.455-.2-2.234-.3A4.4,4.4,0,0,1,366.1,44.03a8.323,8.323,0,0,1,4.333-.779,8.883,8.883,0,0,1,2.3.406,3.247,3.247,0,0,1,2.471,3.317c.034,1.659.034,3.283.068,4.942,0,.745.034,1.523.034,2.268A5.8,5.8,0,0,0,375.92,57.231Zm-3.148-6.668c-1.185.237-2.336.474-3.52.711-.677.135-1.388.237-2.065.44a2,2,0,0,0,.034,3.825,4.743,4.743,0,0,0,1.828.169,3.77,3.77,0,0,0,3.453-2.437A5.287,5.287,0,0,0,372.772,50.563Z" transform="translate(-240.321 -28.595)"/><path class="b" d="M202.7,51.061H192.683a4.3,4.3,0,0,0,2.674,4.4c2.065.643,3.554-.1,4.942-2.606.745.1,1.523.2,2.369.3a5.415,5.415,0,0,1-3.69,4.1,7.485,7.485,0,0,1-4.637.034,5.574,5.574,0,0,1-3.926-4.163,9.811,9.811,0,0,1,.169-5.754,6.026,6.026,0,0,1,6.4-4.1c3.114.2,5.382,2.4,5.72,5.957C202.736,49.808,202.7,50.384,202.7,51.061Zm-2.5-2c-.135-2.4-1.659-3.859-3.757-3.859a3.765,3.765,0,0,0-3.723,3.859Z" transform="translate(-125.73 -28.619)"/><path class="b" d="M263.379,51.108H253.258a4.237,4.237,0,0,0,2.809,4.434c2.031.609,3.385-.1,4.84-2.606.745.1,1.523.2,2.369.3a5.424,5.424,0,0,1-3.926,4.163,7.5,7.5,0,0,1-4.4-.068,5.645,5.645,0,0,1-3.994-4.4,10.092,10.092,0,0,1,.135-5.213,6.066,6.066,0,0,1,6.6-4.367,5.989,5.989,0,0,1,5.551,5.687A19.22,19.22,0,0,1,263.379,51.108Zm-2.606-2a3.651,3.651,0,0,0-3.656-3.859,3.73,3.73,0,0,0-3.757,3.859Z" transform="translate(-165.826 -28.667)"/><path class="b" d="M165.227,28.934v2.2h-6.194v16.62h-2.5a24.1,24.1,0,0,1-.034-2.708V31.134H150.3V28.9C155.242,28.934,160.218,28.934,165.227,28.934Z" transform="translate(-99.425 -19.118)"/><path class="b" d="M235.7,28.9h2.2c.169.609.2,17.838.034,18.82H235.7Z" transform="translate(-155.918 -19.118)"/><path class="b" d="M342.068,57.2H339.8V43.594h2.031v1.591a.257.257,0,0,0,.135.068c.609-.846,1.151-1.76,2.268-1.963a4.344,4.344,0,0,1,2.945.677c-.271.745-.508,1.422-.779,2.132-.406-.135-.745-.237-1.083-.338a2.229,2.229,0,0,0-2.809,1.557,15.411,15.411,0,0,0-.44,3.013c-.068,1.963-.034,3.96-.034,5.924A8.87,8.87,0,0,1,342.068,57.2Z" transform="translate(-224.781 -28.599)"/><path class="c" d="M46.4,53.839a4.143,4.143,0,0,0,.914-.3l7.819-4.976c1.659-1.049,3.283-2.1,4.942-3.114a.751.751,0,0,1,.372-.169.382.382,0,0,1,.372.1.449.449,0,0,1,.034.372c0,.1-.1.2-.169.271-1.049.948-2.132,1.929-3.216,2.877-.745.677-1.523,1.32-2.268,1.963-1.388,1.252-2.742,2.5-4.13,3.791-.3.271-.609.508-.982.846,1.219,1.015,2.336,1.929,3.486,2.877a6.35,6.35,0,0,0-.609.406c-.88.812-1.726,1.625-2.606,2.437-.745.711-1.185.609-1.523-.338-.271-.812-.542-1.659-.812-2.471-.406-1.286-.779-2.573-1.219-3.859A2.062,2.062,0,0,0,46.4,53.839Z" transform="translate(-30.694 -29.942)"/></g></g></g></svg>