<svg width="181" height="48" viewBox="0 0 181 48" fill="#999999" xmlns="http://www.w3.org/2000/svg">
<path d="M102.899 0H104.127C104.536 0 104.809 0.136471 105.219 0.136471C104.264 1.63765 103.308 3.13882 102.353 4.64C102.899 3.54824 103.581 2.45647 104.127 1.36471C102.762 1.22824 101.125 1.63765 99.8965 2.45647C99.0777 3.00235 98.6683 3.68471 98.1224 4.50353C96.3483 7.36941 94.7106 10.3718 92.8 13.1012C92.1177 14.0565 91.2989 15.1482 90.2071 15.8306C89.6612 16.24 88.8424 16.3765 88.16 16.24C88.5695 16.1035 89.1153 16.1035 89.5247 15.9671C90.48 15.4212 91.1624 14.6024 91.7083 13.7835C94.1647 10.3718 95.8024 6.55059 97.9859 3.00235C95.2565 1.09177 91.7083 0.545883 88.5694 1.50118C86.3859 2.18353 84.4753 3.54824 82.9742 5.32235C82.1553 5.18588 81.3365 5.32235 80.6542 5.59529C81.8824 3.82118 83.5201 2.32 85.4306 1.50118C87.3412 0.545883 89.5247 0.136471 91.7083 0.409412C94.0283 0.682353 96.2118 1.50118 97.9859 3.00235C98.9412 1.09177 100.988 0.272941 102.899 0Z" fill="#999999"/>
<path d="M79.5623 7.64244C79.8352 6.82361 80.6541 6.27773 81.4729 6.00479C82.4282 5.86832 83.247 6.00479 84.0658 6.4142C83.1105 6.68714 82.8376 7.64243 82.4282 8.46126C81.8823 10.0989 82.4282 11.7365 83.1105 13.2377C84.7482 16.6495 88.16 18.9695 91.7082 19.9248C94.3011 20.6071 97.167 20.4707 99.6235 19.3789C98.2588 21.0165 96.4847 22.2448 94.4376 23.0636C90.3435 24.5648 85.4305 23.6095 82.2917 20.4707C80.6541 18.833 79.5623 16.9224 79.0164 14.7389C78.4705 12.2824 78.7435 9.82596 79.5623 7.64244Z" fill="#999999"/>
<path d="M101.944 7.91541C103.035 7.77894 104.264 7.91542 105.355 8.05189C104.264 9.55306 103.172 10.9178 102.08 12.4189C101.398 12.5554 100.715 12.8284 100.033 13.2378C97.986 14.3295 96.6212 16.2401 94.5742 17.4683C93.3459 18.1507 91.9812 18.5601 90.6165 18.4236C89.7977 18.0142 88.9789 17.6048 88.2965 17.0589C89.5247 17.3319 90.753 17.3319 91.8448 16.9225C92.8001 16.5131 93.4824 15.6942 94.1648 15.0119C95.2565 13.6472 96.4848 12.2825 97.5765 10.9178C98.2589 10.0989 99.0777 9.28012 99.8966 8.59777C100.579 8.18836 101.398 8.05189 101.944 7.91541Z" fill="#999999"/>
<path d="M3.00235 29.4775C7.77882 29.4775 12.4188 29.4775 17.1953 29.4775C17.0588 30.9787 16.7859 32.6164 16.6494 34.1175C15.0118 34.1175 13.3741 34.1175 11.8729 34.1175C11.3271 38.4846 10.7812 42.8517 10.2353 47.0822C8.3247 47.0822 6.27765 47.0822 4.36706 47.0822C4.91294 42.7152 5.45882 38.3481 6.00471 34.1175C3.95765 34.1175 2.04706 34.1175 0 34.1175C1.09176 32.6164 2.04706 30.9787 3.00235 29.4775Z" fill="#999999"/>
<path d="M18.9694 29.4775C22.9271 29.4775 26.7483 29.4775 30.7059 29.4775C31.6612 29.4775 32.6165 29.7505 33.1624 30.5693C33.5718 31.1152 33.7083 31.934 33.7083 32.6164C33.4353 35.0728 33.0259 37.6658 32.753 40.1223C32.753 40.6681 32.6165 41.214 32.3436 41.7599C31.6612 43.1246 30.0236 44.0799 28.5224 43.9435C26.7483 43.9435 25.1106 43.9435 23.3365 43.9435C23.2 45.0352 23.0635 46.127 22.9271 47.2188C21.0165 47.2188 18.9694 47.2188 17.0588 47.2188C17.6047 43.6705 17.8777 39.9858 18.2871 36.4376C18.56 33.9811 18.833 31.7975 18.9694 29.4775ZM24.5647 34.1176C24.2918 35.7552 24.0188 37.3929 23.8824 39.167C24.7012 39.167 25.6565 39.167 26.4753 39.167C26.7483 39.167 27.0212 38.894 27.0212 38.6211C27.2941 37.1199 27.4306 35.6187 27.7036 34.254C26.6118 34.1175 25.6565 34.1176 24.5647 34.1176Z" fill="#999999"/>
<path d="M38.2117 30.4328C38.3482 29.7505 39.0306 29.4775 39.7129 29.4775C42.5788 29.4775 45.3082 29.4775 48.1741 29.4775C48.5835 29.4775 48.9929 29.614 49.2659 30.0234C49.4023 30.2964 49.4023 30.7058 49.4023 30.9787C49.9482 36.4376 50.6306 41.7599 51.1765 47.2188C49.1294 47.2188 47.2188 47.2188 45.1717 47.2188C45.0353 46.2635 45.0353 45.1717 44.8988 44.2164C42.9882 44.2164 41.0776 44.2164 39.3035 44.2164C38.8941 45.1717 38.6212 46.2635 38.3482 47.2188C36.3012 47.2188 34.3906 47.2188 32.3435 47.2188C34.1176 41.487 36.1647 36.0281 38.2117 30.4328ZM42.5788 34.7999C42.0329 36.4376 41.3506 38.0752 40.8047 39.7129C42.0329 39.7129 43.1247 39.7129 44.3529 39.7129C44.2165 38.0752 43.9435 36.4376 43.807 34.7999C43.3976 34.7999 42.9882 34.7999 42.5788 34.7999Z" fill="#999999"/>
<path d="M54.8611 29.4775C56.7717 29.4775 58.8188 29.4775 60.7294 29.4775C60.4564 31.6611 60.1835 33.9811 59.9105 36.1646C61.0023 36.1646 62.0941 36.1646 63.1858 36.1646C63.4588 33.9811 63.7317 31.7975 64.0047 29.614C66.0517 29.614 68.0988 29.614 70.2823 29.614C69.6 35.4822 68.7811 41.487 67.9623 47.3552C65.9153 47.3552 63.8682 47.3552 61.6847 47.3552C61.9576 45.3081 62.2305 43.1246 62.5035 41.0775C61.4117 41.0775 60.32 41.0775 59.0917 41.0775C58.8188 43.1246 58.5458 45.3081 58.2729 47.3552C56.3623 47.3552 54.3153 47.3552 52.4047 47.3552C53.36 41.214 54.1788 35.3458 54.8611 29.4775Z" fill="#999999"/>
<path d="M89.1153 29.4775C91.0259 29.4775 93.0729 29.4775 94.9835 29.4775C94.7106 31.6611 94.4376 33.9811 94.1647 36.1646C95.2565 36.1646 96.3482 36.1646 97.44 36.1646C97.7129 33.9811 97.9859 31.6611 98.2588 29.4775C100.306 29.4775 102.353 29.4775 104.536 29.4775C103.718 35.3458 103.035 41.214 102.216 47.2188C100.169 47.2188 98.1224 47.2188 95.9388 47.2188C96.2118 45.1717 96.4847 42.9882 96.7576 40.9411C95.6659 40.9411 94.5741 40.9411 93.3459 40.9411C93.0729 42.9882 92.8 45.1717 92.5271 47.2188C90.6165 47.2188 88.5694 47.2188 86.6588 47.2188C87.6141 41.214 88.4329 35.3458 89.1153 29.4775Z" fill="#999999"/>
<path d="M148.071 29.4775C153.939 29.4775 159.807 29.4775 165.539 29.4775C164.584 31.1152 163.628 32.6164 162.673 34.1175C161.308 34.1175 159.807 34.1175 158.442 34.1175C157.896 38.4846 157.351 42.8517 156.805 47.0822C154.894 47.0822 152.847 47.0822 150.936 47.0822C151.482 42.7152 152.028 38.4846 152.574 34.1175C150.8 34.1175 149.162 34.1175 147.388 34.1175C147.661 32.6164 147.934 30.9787 148.071 29.4775Z" fill="#999999"/>
<path d="M166.631 29.4775C168.541 29.4775 170.588 29.4775 172.499 29.4775C172.362 30.7058 172.089 31.934 171.953 33.1622C173.864 33.1622 175.638 33.1622 177.548 33.1622C178.231 33.1622 178.913 33.2987 179.459 33.7081C180.005 34.1175 180.414 34.7999 180.551 35.4822V36.1646C180.141 38.894 179.868 41.487 179.459 44.2164C179.186 45.9905 177.275 47.2187 175.638 47.0823C171.817 47.0823 168.132 47.0823 164.311 47.0823C165.129 41.214 165.812 35.3458 166.631 29.4775ZM170.861 42.4422C171.817 42.4422 172.635 42.4422 173.591 42.4422C173.864 42.4422 173.864 42.0328 174 41.8964C174.273 40.5317 174.409 39.167 174.546 37.8022C173.591 37.8022 172.499 37.8022 171.544 37.8022C171.271 39.3034 170.998 40.9411 170.861 42.4422Z" fill="#999999"/>
<path d="M74.9223 29.7505C75.6047 29.4775 76.4235 29.4775 77.1059 29.4775C79.0165 29.4775 80.9271 29.4775 82.8376 29.4775C83.9294 29.4775 85.1577 29.7505 85.9765 30.4328C86.6588 30.9787 86.9318 31.7975 86.7953 32.6164C86.6588 33.7081 86.5224 34.7999 86.3859 35.8917C84.4753 35.8917 82.4282 35.8917 80.5176 35.8917C80.6541 35.3458 80.6541 34.7999 80.7906 34.1175C79.6988 34.1175 78.4706 34.1175 77.3788 34.1175C76.9694 36.8469 76.56 39.4399 76.287 42.0328C77.3788 42.0328 78.4706 42.0328 79.6988 42.0328C79.8353 41.4869 79.8353 40.9411 79.9718 40.2587C81.8824 40.2587 83.9294 40.2587 85.84 40.2587C85.7035 41.3505 85.5671 42.3058 85.4306 43.3975C85.0212 45.4446 83.1106 46.8093 81.0635 47.0822H73.6941C72.8753 46.9458 72.0564 46.6728 71.3741 46.1269C70.5553 45.4446 70.1459 44.2164 70.2823 43.1246C70.6917 39.8493 71.1011 36.574 71.5106 33.2987C71.92 31.6611 73.2847 30.2964 74.9223 29.7505Z" fill="#999999"/>
<path d="M106.583 29.4775C111.36 29.4775 116.273 29.4775 121.049 29.4775C120.913 30.9787 120.64 32.6164 120.503 34.1175C117.638 34.1175 114.772 34.1175 111.906 34.1175C111.769 34.7999 111.633 35.6187 111.633 36.3011C114.499 36.3011 117.365 36.3011 120.23 36.3011C120.094 37.6658 119.821 39.0305 119.685 40.2587C116.819 40.2587 113.953 40.2587 111.223 40.2587C111.087 40.9411 110.95 41.7599 110.95 42.4422C113.816 42.4422 116.682 42.4422 119.548 42.4422C119.275 43.9434 119.139 45.5811 119.002 47.0822H104.4C105.082 41.3505 105.901 35.3458 106.583 29.4775Z" fill="#999999"/>
<path d="M124.871 29.7505C125.416 29.614 125.962 29.4775 126.645 29.4775C132.24 29.4775 137.699 29.4775 143.294 29.4775C144.113 29.4775 144.932 29.7505 145.614 30.2964C146.16 30.8422 146.433 31.6611 146.433 32.4799C146.16 35.2093 145.751 37.9387 145.478 40.6681C145.341 42.4422 143.567 43.8069 141.793 43.8069C139.882 43.8069 137.972 43.8069 136.061 43.8069C135.925 44.8987 135.788 45.9905 135.652 47.0822H129.784C129.92 45.9905 130.056 44.8987 130.193 43.6705C128.282 43.6705 126.372 43.6705 124.461 43.6705C123.369 43.6705 122.141 42.9881 121.732 41.8964C121.459 41.0775 121.595 40.2587 121.732 39.5764C122.005 37.1199 122.278 34.7999 122.687 32.3434C122.551 31.2517 123.642 30.1599 124.871 29.7505ZM127.464 39.1669C128.419 39.1669 129.511 39.1669 130.466 39.1669C130.739 37.5293 131.012 35.8917 131.148 34.1175C130.056 34.1175 129.101 34.1175 128.009 34.1175C127.873 35.8917 127.736 37.5293 127.464 39.1669ZM137.016 34.6634C136.88 36.1646 136.607 37.6658 136.471 39.1669C137.289 39.1669 138.245 39.1669 139.063 39.1669C139.336 39.1669 139.473 39.0305 139.473 38.7575C139.746 37.2564 139.882 35.7552 140.155 34.1175C139.2 34.1175 138.108 34.1175 137.153 34.1175C137.016 34.3905 137.153 34.5269 137.016 34.6634Z" fill="#999999"/>
<path d="M100.169 13.2376C100.715 12.8282 101.398 12.5553 102.217 12.4188C103.308 12.2823 104.4 12.5553 105.492 12.9647C104.264 14.6023 102.899 16.3764 101.534 17.8776C100.442 19.1058 98.8047 19.5153 97.3036 19.6517C95.12 19.7882 92.9365 19.3788 90.8894 18.4235C92.2541 18.56 93.7553 18.1506 94.8471 17.4682C96.7577 16.3764 98.1224 14.4659 100.169 13.2376Z" fill="#999999"/>
</svg>
