<svg xmlns="http://www.w3.org/2000/svg" viewBox="0 0 848.5 774.871">
  <defs>
    <style>
      .cls-1, .cls-2, .cls-5, .cls-6 {
        fill: none;
      }

      .cls-1 {
        stroke: #7efbfc;
      }

      .cls-1, .cls-2 {
        opacity: 0.4;
      }

      .cls-2 {
        stroke: #648cc1;
      }

      .cls-3 {
        fill: #7efbfc;
      }

      .cls-4 {
        fill: #008dfe;
      }

      .cls-5, .cls-6 {
        stroke: #b4cae1;
      }

      .cls-5, .cls-8 {
        opacity: 0.5;
      }

      .cls-6 {
        opacity: 0.1;
      }

      .cls-7, .cls-8 {
        fill: #6392b9;
      }
    </style>
  </defs>
  <g id="Group_6854" data-name="Group 6854" transform="translate(-1818.317 -2969.364) rotate(-14)">
    <g id="Group_5713" data-name="Group 5713" transform="translate(-363.188 2266.728) rotate(-34)">
      <path id="Path_11069" data-name="Path 11069" class="cls-1" d="M-2518.4,4439.5l307.595,148.368-32.952,203.021,32.952,93.542-170.652-100.625-46.735-72.8,30.544-36.9-131.822-69.253-125.935,37.731,143.321,58.685,114.436-27.163,186.843,210.319-234.632-105.2-84.033-174.372Z" transform="translate(2904.651 -2478.718)"/>
      <path id="Path_11070" data-name="Path 11070" class="cls-2" d="M-2532.544,4604.633l-123.745,37.047,258.368,33.242-122.221-235.087,460.765,458.644-65.058,34.285-55.083-170.464-32.424,121.646,152.564,14.533" transform="translate(2906.217 -2478.655)"/>
      <ellipse id="Ellipse_91" data-name="Ellipse 91" class="cls-3" cx="2.795" cy="1.782" rx="2.795" ry="1.782" transform="translate(384.279 1959)"/>
      <ellipse id="Ellipse_92" data-name="Ellipse 92" class="cls-4" cx="2.795" cy="1.782" rx="2.795" ry="1.782" transform="translate(691.683 2107.517)"/>
      <path id="Path_11077" data-name="Path 11077" class="cls-5" d="M662.29,2314.692l-139.609-10.5L393.6,2221.025l82.665,10.579-19.226,69.024"/>
    </g>
    <path id="Path_11076" data-name="Path 11076" class="cls-6" d="M-1833.717,6233.623l-15.239,165.593,87.368-48.764-7.111-52.827,143.23,32.325,201.391-34.914-176.732,100.99-161.335-44.583h410.989l103.579-8.129-176.012-46.952,210.229-17.315,80-30.519" transform="translate(2904 -2479)"/>
    <circle id="Ellipse_100" data-name="Ellipse 100" class="cls-7" cx="2.5" cy="2.5" r="2.5" transform="translate(1134 3817)"/>
    <circle id="Ellipse_101" data-name="Ellipse 101" class="cls-7" cx="2.5" cy="2.5" r="2.5" transform="translate(1301 3915)"/>
    <circle id="Ellipse_102" data-name="Ellipse 102" class="cls-8" cx="1.5" cy="1.5" r="1.5" transform="translate(1141 3871)"/>
    <circle id="Ellipse_103" data-name="Ellipse 103" class="cls-8" cx="1.5" cy="1.5" r="1.5" transform="translate(1478 3814)"/>
    <circle id="Ellipse_104" data-name="Ellipse 104" class="cls-7" cx="1.5" cy="1.5" r="1.5" transform="translate(1556 3871)"/>
    <circle id="Ellipse_105" data-name="Ellipse 105" class="cls-8" cx="1.5" cy="1.5" r="1.5" transform="translate(1656 3862)"/>
    <circle id="Ellipse_106" data-name="Ellipse 106" class="cls-7" cx="1.5" cy="1.5" r="1.5" transform="translate(1690 3798)"/>
    <circle id="Ellipse_109" data-name="Ellipse 109" class="cls-7" cx="2.5" cy="2.5" r="2.5" transform="translate(1282 3801)"/>
    <circle id="Ellipse_110" data-name="Ellipse 110" class="cls-7" cx="2.5" cy="2.5" r="2.5" transform="translate(1277 3849)"/>
  </g>
</svg>
