<?xml version="1.0" standalone="no"?>
<!DOCTYPE svg PUBLIC "-//W3C//DTD SVG 20010904//EN"
 "http://www.w3.org/TR/2001/REC-SVG-20010904/DTD/svg10.dtd">
<svg version="1.0" xmlns="http://www.w3.org/2000/svg"
 width="700.000000pt" height="700.000000pt" viewBox="0 0 700.000000 700.000000"
 preserveAspectRatio="xMidYMid meet">
<metadata>
Created by potrace 1.11, written by Peter Selinger 2001-2013
</metadata>
<g transform="translate(0.000000,700.000000) scale(0.100000,-0.100000)"
fill="#000000" stroke="none">
<path d="M2553 5591 c-507 -290 -932 -536 -943 -546 -20 -18 -20 -21 -20
-2228 0 -1763 3 -2208 12 -2204 27 10 1384 809 1398 823 13 13 16 186 20 1401
l5 1386 225 128 c133 76 236 128 252 129 18 0 112 -49 258 -132 l229 -133 3
-1102 3 -1102 675 395 c371 217 687 403 703 414 l27 21 0 1094 0 1095 -37 24
c-43 28 -1764 1026 -1812 1050 -16 9 -40 16 -53 15 -13 0 -438 -238 -945 -528z"/>
</g>
</svg>
