<svg xmlns="http://www.w3.org/2000/svg" viewBox="0 0 32 33.2">
  <defs>
    <style>
      .cls-1 {
        fill: #82effd;
      }

      .cls-2 {
        fill: #fa0;
      }
    </style>
  </defs>
  <g id="Group_5557" data-name="Group 5557" transform="translate(0 0)">
    <path id="Path_10795" data-name="Path 10795" class="cls-1" d="M17,25V19.9a9.878,9.878,0,0,0,8.8-8A6.938,6.938,0,0,0,32,5V1a.945.945,0,0,0-1-1H1A.945.945,0,0,0,0,1V5a6.938,6.938,0,0,0,6.2,6.9,9.878,9.878,0,0,0,8.8,8V25ZM2,5V2H6V9.9A5.03,5.03,0,0,1,2,5ZM16,18a8.024,8.024,0,0,1-8-8V2H24v8A8.024,8.024,0,0,1,16,18ZM30,5a5.03,5.03,0,0,1-4,4.9V2h4Z"/>
    <path id="Path_10796" data-name="Path 10796" class="cls-2" d="M10,27.1a4.951,4.951,0,0,0-5,5c0,.6,1,1.1,1.5,1.1l.6-2.1a3.008,3.008,0,0,1,2.8-2h12a2.913,2.913,0,0,1,2.8,2l.7,2.1c.6,0,1.5-.5,1.5-1.1a4.951,4.951,0,0,0-5-5H10Z"/>
  </g>
</svg>
