<svg xmlns="http://www.w3.org/2000/svg" viewBox="0 0 39.7 39.8">
  <defs>
    <style>
      .cls-1 {
        fill: #fa0;
      }

      .cls-2 {
        fill: #82effd;
      }
    </style>
  </defs>
  <g id="Group_5560" data-name="Group 5560" transform="translate(0 0)">
    <g id="Group_5558" data-name="Group 5558">
      <path id="Path_10797" data-name="Path 10797" class="cls-1" d="M26.1,30l-3.6-7.2h0l.1-.1a.1.1,0,0,0,.1-.1l.1-.1h0L30,26a5.076,5.076,0,0,1,.9-1.8l-7.1-3.6h0v-.2h0v-.1h0V19h0l7.1-3.6a5.076,5.076,0,0,1-.9-1.8l-7.1,3.6-.1-.1-.1-.1-.1-.1,3.6-7.2a5.076,5.076,0,0,1-1.8-.9L20.7,16H19.1L15.5,8.8a5.076,5.076,0,0,1-1.8.9l3.6,7.2-.4.4L9.7,13.7a5.076,5.076,0,0,1-.9,1.8L16,19.1v1.5h0v.1L8.8,24.3a5.076,5.076,0,0,1,.9,1.8l7.2-3.6h0l.3.3L13.7,30a5.076,5.076,0,0,1,1.8.9l3.6-7.2h1.7l3.6,7.2A3.932,3.932,0,0,1,26.1,30ZM23.4,19Zm-.8,3.3Zm-.8-2.4v.6c0,.1,0,.1-.1.2,0,.1-.1.1-.1.2V21a.1.1,0,0,1-.1.1l-.1.1-.1.1-.1.1h-.1c-.1,0-.1.1-.2.1s-.1,0-.1.1H19.5c-.1,0-.1,0-.2-.1-.1,0-.1-.1-.2-.1H19a.1.1,0,0,1-.1-.1.1.1,0,0,1-.1-.1l-.1-.1-.1-.1v-.1c0-.1-.1-.1-.1-.2a.1.1,0,0,0-.1-.1V19.3c0-.1,0-.1.1-.2,0-.1.1-.1.1-.2l.1-.1.1-.1.2-.2.2-.2c.1,0,.1-.1.2-.1s.1,0,.2-.1h1.2c.1,0,.1,0,.2.1.1,0,.1.1.2.1l.1.1.1.1.1.1.1.1.2.2c0,.1.1.1.1.2s0,.1.1.2v.4c-.2,0-.2.1-.2.2Z"/>
    </g>
    <g id="Group_5559" data-name="Group 5559">
      <path id="Path_10798" data-name="Path 10798" class="cls-2" d="M27.8,2a2,2,0,1,1-2,2,2.006,2.006,0,0,1,2-2m0-2a4,4,0,1,0,4,4,4.012,4.012,0,0,0-4-4Z"/>
      <path id="Path_10799" data-name="Path 10799" class="cls-2" d="M27.8,33.8a2,2,0,1,1-2,2,2.006,2.006,0,0,1,2-2m0-2a4,4,0,1,0,4,4,4.012,4.012,0,0,0-4-4Z"/>
      <path id="Path_10800" data-name="Path 10800" class="cls-2" d="M12,2a2,2,0,1,1-2,2,2.006,2.006,0,0,1,2-2m0-2A3.949,3.949,0,0,0,8,4a4,4,0,1,0,4-4Z"/>
      <path id="Path_10801" data-name="Path 10801" class="cls-2" d="M12,33.8a2,2,0,1,1-2,2,2.006,2.006,0,0,1,2-2m0-2a4,4,0,1,0,4,4,4.012,4.012,0,0,0-4-4Z"/>
      <path id="Path_10802" data-name="Path 10802" class="cls-2" d="M35.7,25.8a2,2,0,1,1-2,2,2.006,2.006,0,0,1,2-2m0-2a4,4,0,1,0,4,4,4.012,4.012,0,0,0-4-4Z"/>
      <path id="Path_10803" data-name="Path 10803" class="cls-2" d="M35.7,10a2,2,0,1,1-2,2,2.006,2.006,0,0,1,2-2m0-2a4,4,0,1,0,4,4,4.012,4.012,0,0,0-4-4Z"/>
      <path id="Path_10804" data-name="Path 10804" class="cls-2" d="M4,25.8a2,2,0,1,1-2,2,2.006,2.006,0,0,1,2-2m0-2a4,4,0,1,0,4,4,4.012,4.012,0,0,0-4-4Z"/>
      <path id="Path_10805" data-name="Path 10805" class="cls-2" d="M4,10a2,2,0,1,1-2,2,2.006,2.006,0,0,1,2-2M4,8a4,4,0,1,0,4,4A4.012,4.012,0,0,0,4,8Z"/>
    </g>
  </g>
</svg>
