<svg id="Group_5561" data-name="Group 5561" xmlns="http://www.w3.org/2000/svg" viewBox="0 0 28.9 41.9">
  <defs>
    <style>
      .cls-1 {
        fill: #82effd;
      }

      .cls-2 {
        fill: #fa0;
      }
    </style>
  </defs>
  <path id="Path_10806" data-name="Path 10806" class="cls-1" d="M18.9,0H4.9A4.908,4.908,0,0,0,0,4.9V31.3a4.908,4.908,0,0,0,4.9,4.9H6.6a.908.908,0,0,0,.7-.3.908.908,0,0,0,.3-.7,1,1,0,0,0-1-1H4.9A2.9,2.9,0,0,1,2,31.3V4.9A2.9,2.9,0,0,1,4.9,2H17.5V7.7a3.9,3.9,0,0,0,3.9,3.9H27V31.4a2.9,2.9,0,0,1-2.9,2.9H22.4a1.025,1.025,0,0,0-1,1,1,1,0,0,0,1,1H24a4.908,4.908,0,0,0,4.9-4.9V9.8Zm7,9.5H21.4a1.9,1.9,0,0,1-1.9-1.9V3.3Z"/>
  <path id="Path_10807" data-name="Path 10807" class="cls-2" d="M14.5,20.3a6.957,6.957,0,0,0-7,7,7.069,7.069,0,0,0,1.7,4.6v8.5a1.34,1.34,0,0,0,.8,1.3,1.445,1.445,0,0,0,.7.2,1.135,1.135,0,0,0,.8-.3l2.7-1.9a.446.446,0,0,1,.5,0l2.7,1.9a1.37,1.37,0,0,0,1.5.1,1.561,1.561,0,0,0,.8-1.3V31.9a7.021,7.021,0,0,0-5.2-11.6Zm3.3,13.2v5.9l-2-1.4a2.25,2.25,0,0,0-2.7,0l-1.9,1.4V33.5a7.639,7.639,0,0,0,3.3.8A8,8,0,0,0,17.8,33.5Zm1.7-6.2a5,5,0,1,1-5-5A5.081,5.081,0,0,1,19.5,27.3Z"/>
</svg>
