<svg id="Слой_1" data-name="Слой 1" xmlns="http://www.w3.org/2000/svg" viewBox="0 0 214.08 236.22"><defs><style>.cls-1{fill:#82effd;}.cls-2{fill:#fa0;}</style></defs><title>eagle</title><path class="cls-1" d="M626.48,392.19a37.71,37.71,0,0,1-23-7.25c-23.53-17.43-21.41-55.18-21.11-59.24V263.89a6.5,6.5,0,0,1,11.06-4.64l50,49.21a6.51,6.51,0,0,1,.84,8.26c-.09.14-10.21,15.62-2.63,24.77,5.31,6.39,11.31,3.16,12,2.77l5.62-3.27,5.55,11.23-4.62,3.27c-5.55,3.24-18.65,6.21-28.53-5.7-10.16-12.25-4.7-27.81-.87-35.54L595.42,279.4V326a5.24,5.24,0,0,1,0,.56c0,.33-2.63,34.28,15.87,48,16.5,12.22,42-3.38,42.27-3.54l5.51-3.43,5.89,11-4.5,3.45C659.5,382.56,643.86,392.19,626.48,392.19Z" transform="translate(-582.24 -230.54)"/><path class="cls-1" d="M752.09,392.19c-17.39,0-33-9.63-34-10.21l-4.51-3.45,5.9-11L725,371c.44.26,25.84,15.71,42.27,3.54,18.59-13.78,15.91-47.65,15.88-48a5.25,5.25,0,0,1,0-.56V279.4L747.7,314.25c3.84,7.73,9.3,23.29-.86,35.54-9.89,11.91-23,8.94-28.53,5.7l-3.62-3.27L719.24,341l5.61,3.27c1.51.82,7,3.18,12-2.77,7.53-9.09-2.52-24.62-2.62-24.77a6.49,6.49,0,0,1,.84-8.26l50-49.21a6.49,6.49,0,0,1,11,4.64v61.8c.3,4.07,2.42,41.82-21.11,59.25A37.67,37.67,0,0,1,752.09,392.19Z" transform="translate(-582.24 -230.54)"/><path class="cls-1" d="M668.05,402.28a7.43,7.43,0,0,0-2.57.94c-.58.37-2.11,1.35-2.16,5.72.06.37.26,1.22.4,1.86,1.17,5.11,3.33,14.61-2.5,21.92-4,5-10.82,7.6-20.22,7.6h-6.5v-13H641c5.09,0,8.67-1,10.06-2.71,1.93-2.42.71-7.74,0-10.92a20.57,20.57,0,0,1-.73-4.57c0-9.65,4.46-14.5,8.2-16.88a19.1,19.1,0,0,1,5.15-2.25Z" transform="translate(-582.24 -230.54)"/><path class="cls-1" d="M715.47,389.83a19.34,19.34,0,0,1,5.77,2.41c3.74,2.38,8.2,7.23,8.2,16.88a20.57,20.57,0,0,1-.73,4.57c-.72,3.18-1.94,8.5,0,10.92,1.4,1.75,5,2.71,10.06,2.71h6.5v13h-6.5c-9.39,0-16.2-2.56-20.22-7.6-5.83-7.31-3.66-16.81-2.5-21.92.14-.64.34-1.49.4-1.86,0-4.37-1.58-5.35-2.16-5.72a8.47,8.47,0,0,0-3.78-1.11Z" transform="translate(-582.24 -230.54)"/><path class="cls-1" d="M689.69,429c9.54,7.23,19.18,14.89,25.78,20.54a78.24,78.24,0,0,1-25.71,4.25,80.53,80.53,0,0,1-26.14-4.18c6.54-5.64,16.36-13.37,26.07-20.61m.07-16.18s-45.08,32.55-45.08,38.56,20.19,15.41,45.08,15.41,45.09-10.08,45.09-15.41-45.09-38.56-45.09-38.56Z" transform="translate(-582.24 -230.54)"/><path class="cls-1" d="M704.22,236.84c-2.64-2.8-7.86-1.44-11.27-.11a3.94,3.94,0,1,0-7.17-2.25,3.88,3.88,0,0,0,.71,2.25c-3.41-1.33-8.64-2.69-11.27.11-9.77,10.38,7,29.68,7,29.68h14.92S714,247.22,704.22,236.84Z" transform="translate(-582.24 -230.54)"/><path class="cls-1" d="M738.94,270.63a15.11,15.11,0,0,0-6-4.32c.94-1.13,8.42-10.37,3.6-15.49-1.38-1.47-4.13-.76-5.92-.06a2.07,2.07,0,1,0-3.77-1.18,2,2,0,0,0,.38,1.18c-1.8-.7-4.54-1.41-5.93.06-3.66,3.89-.22,10.16,2,13.44a27.65,27.65,0,0,0-7,.78c-12.06,2.88-23.43,14.89-27,33.31-3.57-18.42-14.94-30.43-27-33.31a28.06,28.06,0,0,0-7-.78c2.28-3.28,5.72-9.55,2-13.44-1.38-1.47-4.13-.76-5.92-.06a2,2,0,0,0,.37-1.18,2.07,2.07,0,1,0-4.14,0,2,2,0,0,0,.38,1.18c-1.79-.7-4.54-1.41-5.93.06-4.82,5.12,2.67,14.37,3.61,15.49a15,15,0,0,0-6,4.32,14.24,14.24,0,0,0-3.09,9.47c0,6.69,7.36,10.36,7.67,10.51l1.18.58,4.67-7c1.24-.55,5.31-1.62,7.5-1.06,7.2,1.85,16.48,14.43,13.57,35.56l-1.4,10.1,18-5.63,1.45-1,1.46,1,18,5.63-1.39-10.1c-2.92-21.13,6.37-33.71,13.57-35.56,2.18-.56,6.25.51,7.5,1.06l4.67,7,1.18-.58c.31-.15,7.67-3.82,7.67-10.51A14.24,14.24,0,0,0,738.94,270.63Z" transform="translate(-582.24 -230.54)"/><path class="cls-2" d="M689.76,326.47,713,332.1c.58,16.14.71,42.13-2.5,55a36.21,36.21,0,0,1-20.72,24.76,38.12,38.12,0,0,1-6.49-3.69A35.55,35.55,0,0,1,669,387.08c-3.21-12.85-3.08-38.85-2.5-55l23.23-5.63m0-13.38L654,321.76s-2.94,47.09,2.41,68.47a49.12,49.12,0,0,0,33.34,35.41,49.13,49.13,0,0,0,33.35-35.41c5.35-21.38,2.41-68.47,2.41-68.47l-35.76-8.67Z" transform="translate(-582.24 -230.54)"/><path class="cls-2" d="M750.85,412.79a4.34,4.34,0,1,0-5.43,0,14.77,14.77,0,1,0,5.43,0Z" transform="translate(-582.24 -230.54)"/><path class="cls-2" d="M633.63,420.28c-.44,0-.88,0-1.31.06l-32.63-44.25a6.5,6.5,0,1,0-10.46,7.72l32.54,44.13a13,13,0,1,0,11.86-7.66Z" transform="translate(-582.24 -230.54)"/></svg>