<svg width="211" height="347" viewBox="0 0 211 347" fill="none" xmlns="http://www.w3.org/2000/svg">
<path d="M65.8067 151.087C61.836 150.695 56.7267 138.309 61.2647 138.757C62.8397 138.913 61.2089 145.882 65.9816 146.556C69.2375 147.016 73.8456 143.524 76.1892 142.992L69.8859 137.215C69.9978 136.081 77.1481 139.077 80.895 141.738C83.7219 143.745 122.339 138.475 125.175 138.754C127.444 138.978 144.076 111.031 151.994 108.185L166.775 105.989C160.45 120.251 131.284 153.088 128.517 153.273C125.057 153.505 83.4591 150.582 80.1676 149.112C76.876 147.642 69.7774 151.479 65.8067 151.087Z" fill="#FDA98B" fill-opacity="0.44"/>
<path d="M88.1068 331.561L90.8705 322.203L101.5 315L97 336.5L90.8705 338.5L88.1068 331.561Z" fill="#FDA98B"/>
<path d="M39.5403 329.47L43.5382 319.777L55.9945 314.417L50.647 326.462L48.5645 330.999L39.5403 329.47Z" fill="#FDA98B"/>
<path d="M79.0285 179.03C86.7998 153.082 93.3226 132.971 103.058 123.269L114.51 151.289C118.444 178.04 103.611 220.029 91.6771 242.946C84.5047 256.719 70.2702 290.807 57.2612 312.875L44.7132 316.273C48.7967 300.376 50.7308 283.255 56.5973 266.433C60.4743 255.316 62.6128 251.892 66.8463 246.33C65.008 228.945 74.0203 195.751 79.0285 179.03Z" fill="#1B1854"/>
<path d="M139.217 153.469C137.212 146.065 104.149 136.475 94.9062 131.693C91.0412 140.246 88.47 142.818 90.2287 163.005C91.9873 183.192 112.706 222.685 116.04 229.288C114.018 231.602 108.757 239.075 103.892 250.46C99.0281 261.844 90.1807 310.689 89.3538 323.939L100.46 320.93C110.213 301.511 129.821 267.942 140.259 230.676C144.569 215.287 141.223 160.874 139.217 153.469Z" fill="#2B2C7B"/>
<ellipse cx="88.3485" cy="184.753" rx="13.5" ry="14.5" transform="rotate(-15.1544 88.3485 184.753)" fill="#1B1854"/>
<ellipse cx="113.539" cy="182.42" rx="21.5" ry="17.4734" transform="rotate(-2.24928 113.539 182.42)" fill="#2B2C7B"/>
<path d="M139.217 153.47C138.049 149.154 122.62 142.852 109.95 138.345C107.706 137.547 104.996 142.439 106.586 144.212C110.169 148.211 113.881 153.295 116.895 159.515C126.823 180.007 133.034 213.778 130.54 229.024C128.046 244.269 113.269 287.526 108.405 298.91C103.541 310.294 94.3545 317.948 89.5854 319.902L100.461 320.931C110.213 301.511 129.821 267.943 140.259 230.676C144.57 215.287 141.223 160.874 139.217 153.47Z" fill="#1B1854"/>
<path d="M198.693 108.437L190.738 106.28L172.466 91.7088C175.521 87.2013 183.568 77.922 191.32 76.8653C199.071 75.8087 204.333 82.6936 207.312 86.2943L207.614 97.0706L201.871 96.7146L198.693 108.437Z" fill="#FDA98B"/>
<path d="M198.692 108.437L190.738 106.28L174.026 87.0217C184.561 94.0229 193.352 100.601 201.104 99.5448L198.692 108.437Z" fill="#DE9B87" fill-opacity="0.468"/>
<path d="M188.394 69.2152C199.419 68.7207 209.024 80.1084 209.024 80.1084C209.024 80.1084 210.842 82.801 208.77 85.2345C207.112 87.1813 200.688 84.7335 199.916 83.4046L187.537 86.2381C185.583 86.7575 185.504 88.0336 183.669 86.6388C178.948 83.05 180.004 94.0975 184.99 96.3281L186.35 105.379C182.72 101.952 179.569 101.116 173.505 95.6161C167.064 89.7747 168.842 77.4202 172.936 73.804C174.968 72.0085 175.84 72.5817 176.439 73.2593C177.356 72.2486 177.369 69.7097 188.394 69.2152Z" fill="#1A1A1A"/>
<path d="M192.238 106.284C186.612 99.6352 183.377 91.4517 174.001 95.5004L113.001 129C101.001 116.5 72.0015 168.5 72.0015 168.5C72.0015 168.5 121.501 179.001 133.268 183.178L160.274 133.772L166.028 146.557C177.748 136.116 201.974 117.79 192.238 106.284Z" fill="#4A588B"/>
<path d="M173.5 95.5004L99.5015 137.5L81.0015 138L135.001 140L156.501 127L152.787 122.714C151.277 120.972 151.548 118.317 153.38 116.917L175.5 100L173.5 95.5004Z" fill="#1F2C5C"/>
<path d="M155.5 197.555L160.274 133.772C160.274 133.772 151.922 150.864 137.5 163.555C125 174.555 116 178.555 116 178.555C130 182.555 141.499 188.61 155.5 197.555Z" fill="#1F2C5C"/>
<rect x="61.2909" y="65.015" width="51.1412" height="51.1412" rx="4" transform="rotate(-15.2949 61.2909 65.015)" fill="#F3A2B8"/>
<rect x="64.0947" y="65.5741" width="51.1412" height="51.1412" rx="4" transform="rotate(-15.2949 64.0947 65.5741)" fill="#F74364"/>
<rect x="75.1517" y="75.6471" width="6.54141" height="43.6094" rx="3.27071" transform="rotate(-60.2949 75.1517 75.6471)" fill="#EFF3FF"/>
<rect x="103.676" y="63.052" width="6.54141" height="43.6094" rx="3.27071" transform="rotate(29.7051 103.676 63.052)" fill="#EFF3FF"/>
<rect x="106.023" y="1.84119" width="51.1412" height="51.1412" rx="4" transform="rotate(4.53674 106.023 1.84119)" fill="#F3A2B8"/>
<rect x="108.471" y="3.31824" width="51.1412" height="51.1412" rx="4" transform="rotate(4.53674 108.471 3.31824)" fill="#F74364"/>
<rect x="115.454" y="16.5455" width="6.54141" height="43.6094" rx="3.27071" transform="rotate(-40.4633 115.454 16.5455)" fill="#EFF3FF"/>
<rect x="146.56" y="14.3741" width="6.54141" height="43.6094" rx="3.27071" transform="rotate(49.5367 146.56 14.3741)" fill="#EFF3FF"/>
<rect x="106.17" y="74.7336" width="51.1412" height="51.1412" rx="4" transform="rotate(-24.1184 106.17 74.7336)" fill="#F3A2B8"/>
<rect x="109.026" y="74.8558" width="51.1412" height="51.1412" rx="4" transform="rotate(-24.1184 109.026 74.8558)" fill="#F74364"/>
<rect x="121.498" y="83.114" width="6.54141" height="43.6094" rx="3.27071" transform="rotate(-69.1184 121.498 83.114)" fill="#EFF3FF"/>
<rect x="147.752" y="66.2921" width="6.54141" height="43.6094" rx="3.27071" transform="rotate(20.8816 147.752 66.2921)" fill="#EFF3FF"/>
<path d="M37.3289 326.547C36.6971 327.811 37.0754 329.774 37.6253 331.534C38.2673 333.588 40.3032 334.921 42.4554 334.921H67.5878C69.7969 334.921 71.624 333.112 71.1812 330.948C71.0851 330.478 70.9682 330.017 70.8265 329.592C70.0652 327.308 65.4973 328.07 60.9295 326.547C57.7289 325.48 55.5415 322.806 53.8542 321.476C53.4734 321.176 52.9401 321.276 52.5689 321.588C50.9927 322.912 48.0226 324.144 46.4298 324.144C45.1209 324.144 42.9705 324.075 41.576 323.569C40.9084 323.327 39.88 323.34 39.3967 323.86L39.3762 323.882C38.6523 324.662 37.8274 325.55 37.3289 326.547Z" fill="#4A588B"/>
<path d="M83.3137 336.012C82.5351 337.57 82.4982 340.522 82.7163 342.966C82.9077 345.11 84.7653 346.513 86.9174 346.513H115.765C117.974 346.513 119.787 344.709 119.398 342.535C119.277 341.859 119.12 341.187 118.918 340.579C118.07 338.036 112.984 338.884 107.897 337.188C104.285 335.984 101.832 332.942 99.9431 331.483C99.5593 331.187 99.035 331.297 98.6627 331.608C97.4048 332.658 96.0078 332.512 94.252 332.512C92.7278 332.512 90.315 331.902 88.844 331.002C88.2383 330.631 87.2743 330.625 86.8285 331.178C85.6594 332.627 83.9509 334.737 83.3137 336.012Z" fill="#4A588B"/>
<path d="M102.382 320.41L88.7822 324.093C88.1409 324.267 87.5117 323.779 87.5209 323.114L87.5556 320.603C87.5621 320.128 87.9021 319.723 88.3688 319.634L102.354 316.977C103.085 316.839 103.706 317.517 103.503 318.232L103.083 319.717C102.987 320.055 102.721 320.318 102.382 320.41Z" fill="#5253A5"/>
<path d="M56.9351 317.444L43.5119 320.287C42.7457 320.449 42.0987 319.708 42.3636 318.971L43.0575 317.039C43.168 316.732 43.4218 316.498 43.7372 316.412L57.6671 312.64C58.4707 312.422 59.1728 313.224 58.8506 313.992L57.65 316.852C57.5231 317.155 57.256 317.376 56.9351 317.444Z" fill="#5253A5"/>
<rect x="55.8625" y="123.795" width="51.1412" height="51.1412" rx="4" transform="rotate(-21.1343 55.8625 123.795)" fill="#F3A2B8"/>
<rect x="58.7086" y="124.066" width="51.1412" height="51.1412" rx="4" transform="rotate(-21.1343 58.7086 124.066)" fill="#F74364"/>
<rect x="70.7333" y="132.962" width="6.54141" height="43.6094" rx="3.27071" transform="rotate(-66.1343 70.7333 132.962)" fill="#EFF3FF"/>
<rect x="97.8276" y="117.53" width="6.54141" height="43.6094" rx="3.27071" transform="rotate(23.8657 97.8276 117.53)" fill="#EFF3FF"/>
<rect x="94" y="102.086" width="51.1412" height="51.1412" rx="4" transform="rotate(-5.70706 94 102.086)" fill="#F3A2B8"/>
<rect x="96.6716" y="103.104" width="51.1412" height="51.1412" rx="4" transform="rotate(-5.70706 96.6716 103.104)" fill="#F74364"/>
<rect x="105.896" y="114.878" width="6.54141" height="43.6094" rx="3.27071" transform="rotate(-50.7071 105.896 114.878)" fill="#EFF3FF"/>
<rect x="136.12" y="107.209" width="6.54141" height="43.6094" rx="3.27071" transform="rotate(39.2929 136.12 107.209)" fill="#EFF3FF"/>
<path d="M84.1941 175.389C71.4812 177.294 68.1249 166.085 70.2262 166.44C72.3273 166.795 72.0022 171.278 78.8737 172.05C82.5384 172.462 81.7294 170.543 83.6114 168.613L79.3703 166.04C78.7843 164.904 87.3424 163.367 92.4916 163.589C96.3765 163.756 135.996 149.266 138.836 147.8C141.109 146.628 151.781 135.566 157.501 128.061L166 144.5C158.46 151.266 150.234 157.311 143.744 159.936C127.494 166.508 100.296 170.353 96.3007 170.975C92.3057 171.596 88.6195 174.726 84.1941 175.389Z" fill="#FDA98B"/>
<path d="M84.1941 175.389C71.4812 177.294 68.1249 166.085 70.2262 166.44C71.4608 171.909 74.2552 173.7 81.1267 174.472C84.7915 174.884 91.2079 172.643 93.0899 170.713C96.9748 170.88 137.648 160.021 140.489 158.556C142.762 157.383 161.15 145.904 157.5 128L166 144.5C158.46 151.266 150.234 157.311 143.744 159.936C127.494 166.508 100.296 170.353 96.3007 170.975C92.3057 171.596 88.6195 174.726 84.1941 175.389Z" fill="#596074" fill-opacity="0.19"/>
</svg>
