<svg width="238" height="301" viewBox="0 0 238 301" fill="none" xmlns="http://www.w3.org/2000/svg">
<path d="M120.69 151.287C116.264 148.511 105.156 124.841 101.585 115.313C105.989 113.978 117.461 112.591 121.336 116.67C125.211 120.748 126.626 133.7 126.982 138.819C136.438 137.551 156.531 133.03 160.343 133.627C163.569 134.132 167.392 133.226 170.418 133.034C178.308 132.533 177.129 134.519 177.129 134.519C177.129 134.519 166.631 135.045 172.852 136.887C177.275 138.196 187.03 137.805 187.03 137.805C187.03 137.805 172.207 141.56 169.157 141.082C165.345 140.485 160.66 137.148 159.415 139.557C158.17 141.966 126.222 154.757 120.69 151.287Z" fill="#FDA98B"/>
<path d="M120.689 151.287C116.263 148.511 105.156 124.841 101.585 115.313C105.989 113.978 119.376 111.14 117.88 116.563C113.865 131.123 119.633 144.178 122.782 149.011C132.239 147.743 156.847 136.551 160.66 137.148C162.972 138.089 168.3 139.907 171.117 139.653C173.934 139.4 182.899 138.315 187.03 137.805C187.03 137.805 172.207 141.56 169.157 141.082C165.345 140.485 160.66 137.148 159.414 139.557C158.169 141.966 126.222 154.757 120.689 151.287Z" fill="#DE9B87"/>
<rect x="114.432" y="70.1068" width="43.8545" height="43.8545" rx="3.43007" transform="rotate(-15.2949 114.432 70.1068)" fill="#F3A2B8"/>
<rect x="116.836" y="70.5862" width="43.8545" height="43.8545" rx="3.43007" transform="rotate(-15.2949 116.836 70.5862)" fill="#F74364"/>
<rect x="126.318" y="79.224" width="5.60938" height="37.3959" rx="2.80469" transform="rotate(-60.2949 126.318 79.224)" fill="#EFF3FF"/>
<rect x="150.777" y="68.4235" width="5.60938" height="37.3959" rx="2.80469" transform="rotate(29.7051 150.777 68.4235)" fill="#EFF3FF"/>
<rect x="192.27" y="1.50647" width="43.8545" height="43.8545" rx="3.43007" transform="rotate(16.5206 192.27 1.50647)" fill="#F3A2B8"/>
<rect x="194.06" y="3.1814" width="43.8545" height="43.8545" rx="3.43007" transform="rotate(16.5206 194.06 3.1814)" fill="#F74364"/>
<rect x="197.563" y="15.5203" width="5.60938" height="37.3959" rx="2.80469" transform="rotate(-28.4794 197.563 15.5203)" fill="#EFF3FF"/>
<rect x="224.042" y="19.2371" width="5.60938" height="37.3959" rx="2.80469" transform="rotate(61.5206 224.042 19.2371)" fill="#EFF3FF"/>
<rect x="159.95" y="69.2306" width="43.8545" height="43.8545" rx="3.43007" transform="rotate(-24.1184 159.95 69.2306)" fill="#F3A2B8"/>
<rect x="162.399" y="69.3353" width="43.8545" height="43.8545" rx="3.43007" transform="rotate(-24.1184 162.399 69.3353)" fill="#F74364"/>
<rect x="173.094" y="76.4169" width="5.60938" height="37.3959" rx="2.80469" transform="rotate(-69.1184 173.094 76.4169)" fill="#EFF3FF"/>
<rect x="195.608" y="61.9918" width="5.60938" height="37.3959" rx="2.80469" transform="rotate(20.8816 195.608 61.9918)" fill="#EFF3FF"/>
<rect x="116.811" y="111.302" width="43.8545" height="43.8545" rx="3.43007" transform="rotate(-21.1343 116.811 111.302)" fill="#F3A2B8"/>
<rect x="119.251" y="111.534" width="43.8545" height="43.8545" rx="3.43007" transform="rotate(-21.1343 119.251 111.534)" fill="#F74364"/>
<rect x="129.562" y="119.162" width="5.60938" height="37.3959" rx="2.80469" transform="rotate(-66.1343 129.562 119.162)" fill="#EFF3FF"/>
<rect x="152.796" y="105.929" width="5.60938" height="37.3959" rx="2.80469" transform="rotate(23.8657 152.796 105.929)" fill="#EFF3FF"/>
<rect x="149.514" y="92.6857" width="43.8545" height="43.8545" rx="3.43007" transform="rotate(-5.70706 149.514 92.6857)" fill="#F3A2B8"/>
<rect x="151.805" y="93.5585" width="43.8545" height="43.8545" rx="3.43007" transform="rotate(-5.70706 151.805 93.5585)" fill="#F74364"/>
<rect x="159.716" y="103.655" width="5.60938" height="37.3959" rx="2.80469" transform="rotate(-50.7071 159.716 103.655)" fill="#EFF3FF"/>
<rect x="185.633" y="97.0791" width="5.60938" height="37.3959" rx="2.80469" transform="rotate(39.2929 185.633 97.0791)" fill="#EFF3FF"/>
<path d="M1.74901 293.7L6.18386 286.72L18.8993 282.123L12.2798 292.452L10.494 296.344L1.74901 293.7Z" fill="#FDA98B"/>
<path d="M0.744712 293.74C0.202935 294.824 0.527298 296.507 0.998869 298.016C1.5494 299.777 3.29523 300.921 5.14074 300.921H26.6922C28.5866 300.921 30.1533 299.369 29.7737 297.514C29.6913 297.111 29.591 296.716 29.4694 296.351C28.8166 294.393 24.8996 295.045 20.9826 293.74C18.2381 292.825 16.3623 290.532 14.9154 289.392C14.5888 289.134 14.1316 289.219 13.8133 289.487C12.4616 290.623 9.91468 291.679 8.54883 291.679C7.42647 291.679 5.58248 291.62 4.38667 291.186C3.81413 290.979 2.9323 290.99 2.51786 291.436C1.89293 292.109 1.17617 292.877 0.744712 293.74Z" fill="#4A588B"/>
<path d="M144.954 157.354C140.152 155.296 125.517 133.63 120.515 124.769C124.66 122.768 135.779 119.624 140.238 123.054C144.697 126.484 148.099 139.061 149.242 144.063C158.389 141.347 177.54 133.773 181.399 133.773C184.664 133.773 188.301 132.287 191.26 131.629C198.978 129.914 198.12 132.058 198.12 132.058C198.12 132.058 187.83 134.202 194.262 135.059C198.833 135.669 208.411 133.773 208.411 133.773C208.411 133.773 194.347 139.775 191.26 139.775C187.402 139.775 182.256 137.203 181.399 139.775C180.541 142.348 150.957 159.927 144.954 157.354Z" fill="#FDA98B"/>
<path d="M144.954 157.354C140.152 155.296 125.517 133.63 120.515 124.769C124.66 122.768 137.447 117.893 136.808 123.483C135.093 138.489 142.811 150.494 146.669 154.782C155.816 152.066 178.398 137.203 182.256 137.203C184.686 137.774 190.231 138.746 192.975 138.06C195.719 137.374 204.409 134.916 208.411 133.773C208.411 133.773 194.347 139.775 191.26 139.775C187.402 139.775 182.256 137.203 181.399 139.775C180.541 142.348 150.957 159.927 144.954 157.354Z" fill="#DE9B87"/>
<path d="M70.0784 161.612C81.0119 151.508 90.5788 152.6 106.159 151.781C108.073 157.788 105.886 170.35 96.5923 190.012C89.336 205.364 67.7878 226.157 61.8782 236.437C57.6393 243.81 31.4464 273.394 18.6906 286.411H4.75024C10.4904 274.213 23.228 249.927 28.2574 243.81C33.2869 237.693 39.9199 229.701 43.2911 228.244C44.7489 223.329 60.6605 170.315 70.0784 161.612Z" fill="#1B1854"/>
<path d="M70.0783 161.612C81.0119 151.508 90.5787 152.6 106.159 151.781C108.072 157.788 101.511 177.996 92.2173 197.658C60.9179 240.105 70.6075 191.227 66.4915 184.366C59.8031 173.219 66.4919 163.786 70.0783 161.612Z" fill="#0A0827"/>
<path d="M108.086 272.314L110.456 264.289L123.088 258.542L115.712 276.55L110.456 278.265L108.086 272.314Z" fill="#FDA98B"/>
<path d="M103.976 276.131C103.308 277.467 103.277 279.998 103.464 282.094C103.628 283.932 105.221 285.136 107.066 285.136H131.804C133.698 285.136 135.252 283.589 134.919 281.724C134.815 281.145 134.68 280.568 134.507 280.047C133.78 277.866 129.418 278.593 125.057 277.139C121.959 276.107 119.856 273.498 118.236 272.247C117.907 271.993 117.457 272.088 117.138 272.354C116.059 273.254 114.861 273.13 113.356 273.13C112.049 273.13 109.98 272.606 108.718 271.835C108.199 271.517 107.372 271.511 106.99 271.985C105.987 273.228 104.522 275.038 103.976 276.131Z" fill="#4A588B"/>
<path d="M19.2569 287.156L4.17921 286.573C3.46051 286.545 3.09332 285.698 3.5643 285.154L4.81468 283.711C4.97644 283.524 5.21086 283.416 5.45788 283.415L21.3332 283.324C22.0926 283.32 22.4824 284.232 21.9545 284.778L19.9065 286.896C19.7369 287.071 19.5007 287.166 19.2569 287.156Z" fill="#5253A5"/>
<path d="M67.7069 167.352C69.4482 158.824 71.8098 160.268 73.9979 159.723C78.7388 158.906 87.6187 155.8 102.717 159.723C111.469 161.998 133.076 180.703 143.196 194.87C145.932 206.859 136.541 243.913 121.042 263.258H107.64C118.58 241.734 121.042 211.49 121.042 205.496C83.8442 200.32 64.4246 183.427 67.7069 167.352Z" fill="#2B2C7B"/>
<path d="M67.7069 167.352C69.4482 158.824 71.8098 160.268 73.9979 159.723C78.7388 158.906 71.208 177.078 96.076 190.369C112.353 199.069 124.128 199.251 125.232 204.089C127.935 215.936 125.618 227.398 118.623 262.013L118.371 263.258H107.64C118.58 241.734 121.042 211.49 121.042 205.496C83.8442 200.32 64.4246 183.427 67.7069 167.352Z" fill="#1B1854"/>
<path d="M121.013 97.8523C121.013 94.5856 123.306 93.4967 124.04 92.1355L110.003 88.3243L104.222 98.9412L126.518 105.475C125.692 103.478 121.013 101.936 121.013 97.8523Z" fill="#EEA289"/>
<path d="M85.1873 114.183C93.9159 100.755 106.321 96.4346 113.608 92.6119C104.043 98.4111 125.632 101.349 128.911 104.626C132.191 107.903 142.028 119.735 143.668 123.739L124.812 133.023C121.533 126.743 113.881 132.75 112.515 140.668C111.266 147.904 115.885 157.688 119.62 161.693C117.98 164.15 111.296 169.316 105.683 169.611C90.1063 170.43 73.983 168.519 69.0641 161.693C71.1592 153.683 67.971 140.668 85.1873 114.183Z" fill="#4A588B"/>
<path d="M105.683 169.611C90.1063 170.43 73.983 168.519 69.0641 161.693C74.638 161.962 88.3582 165.072 97.3622 154.782C105.273 145.741 114.084 123.264 120.515 130.448C117.163 130.92 113.43 135.366 112.515 140.668C111.266 147.904 115.885 157.688 119.62 161.693C117.98 164.15 111.296 169.316 105.683 169.611Z" fill="#1F2C5C"/>
<path d="M123.521 262.977L107.344 267.358C106.763 267.515 106.206 267.041 106.267 266.443L106.495 264.218C106.533 263.847 106.806 263.543 107.171 263.466L123.7 259.989C124.383 259.846 124.943 260.535 124.662 261.174L124.081 262.494C123.977 262.731 123.771 262.909 123.521 262.977Z" fill="#5253A5"/>
<path d="M131.275 80.9394L123.007 72.0315L105.937 75.372L113.939 93.4662C119.095 94.1157 129.782 95.0251 131.275 93.4662C132.769 91.9073 129.586 85.3934 127.808 82.3313L131.275 80.9394Z" fill="#FDA98B"/>
<path d="M113.939 93.4662C119.095 94.1157 129.782 95.0251 131.275 93.4662C131.275 93.4662 121.205 90.8568 116 87C111.175 83.4245 105.937 75.3719 105.937 75.3719L113.939 93.4662Z" fill="#EEA289"/>
<path d="M121.873 66.4491C129.219 68.0652 126.257 71.3649 123.752 73.8228C121.915 76.226 118.513 79.1937 117.042 80.3771C115.611 79.9219 112.587 79.7217 111.943 82.5619C111.137 86.1121 116.505 86.6583 115.7 93.7589C114.895 100.859 90.2021 116.426 92.3493 114.787C94.4965 113.149 100.67 104.137 96.1069 82.5619C93.6065 70.7389 111.943 64.2643 121.873 66.4491Z" fill="#191919"/>
</svg>
