<svg width="415" height="130" viewBox="0 0 415 130" fill="none" xmlns="http://www.w3.org/2000/svg">
<g opacity="0.2">
<path d="M34.0245 126.698H18.1464V99.4785H34.0245V126.698Z" fill="#C4DBFB"/>
<path d="M58.9761 92.6738H18.1465V81.3323H58.9761V92.6738Z" fill="#C4DBFB"/>
<path d="M58.9761 74.5273H18.1465V63.1858H58.9761V74.5273Z" fill="#C4DBFB"/>
<path d="M72.5858 90.4058H127.025V99.479H72.5858V90.4058Z" fill="#C4DBFB"/>
<path d="M58.9761 110.82H40.8296V99.4788H58.9761V110.82Z" fill="#C4DBFB"/>
<path d="M63.5127 56.3809H13.6099V38.2344L63.5127 20.0879V56.3809Z" fill="#C4DBFB"/>
<path d="M129.294 124.43V90.4055C129.294 89.8039 129.055 89.2269 128.629 88.8015C128.204 88.3761 127.627 88.1371 127.025 88.1371H72.5859C71.9843 88.1371 71.4074 88.3761 70.982 88.8015C70.5566 89.2269 70.3176 89.8039 70.3176 90.4055V124.43H68.0493V56.3808C68.0493 55.7792 67.8103 55.2023 67.3849 54.7769C66.9596 54.3515 66.3826 54.1125 65.781 54.1125V20.0878C65.781 19.7232 65.6932 19.364 65.5249 19.0405C65.3565 18.7171 65.1127 18.439 64.8141 18.2298C64.5154 18.0206 64.1708 17.8865 63.8093 17.8388C63.4478 17.7911 63.0802 17.8313 62.7375 17.9559L12.8347 36.1024C12.3971 36.2615 12.019 36.5515 11.7519 36.9329C11.4848 37.3143 11.3415 37.7687 11.3416 38.2343V54.1125C10.74 54.1125 10.163 54.3515 9.73762 54.7769C9.31222 55.2023 9.07324 55.7792 9.07324 56.3808V124.43H2.26831C1.66672 124.43 1.08976 124.669 0.664373 125.094C0.238982 125.52 0 126.097 0 126.698C0 127.3 0.238982 127.877 0.664373 128.302C1.08976 128.728 1.66672 128.967 2.26831 128.967H129.294C129.895 128.967 130.472 128.728 130.898 128.302C131.323 127.877 131.562 127.3 131.562 126.698C131.562 126.097 131.323 125.52 130.898 125.094C130.472 124.669 129.895 124.43 129.294 124.43ZM124.757 92.6738V97.2104H74.8542V92.6738H124.757ZM15.8782 39.8221L61.2444 23.325V54.1125H15.8782V39.8221ZM20.4148 124.43V101.747H31.7563V124.43H20.4148ZM36.293 124.43V99.4787C36.293 98.8771 36.054 98.3001 35.6286 97.8748C35.2032 97.4494 34.6263 97.2104 34.0247 97.2104H18.1465C17.5449 97.2104 16.9679 97.4494 16.5425 97.8748C16.1172 98.3001 15.8782 98.8771 15.8782 99.4787V124.43H13.6099V58.6491H63.5127V124.43H36.293ZM74.8542 124.43V101.747H124.757V124.43H74.8542Z" fill="#2F80ED"/>
<path d="M138.367 124.43H136.099C135.497 124.43 134.92 124.669 134.495 125.095C134.069 125.52 133.83 126.097 133.83 126.698C133.83 127.3 134.069 127.877 134.495 128.302C134.92 128.728 135.497 128.967 136.099 128.967H138.367C138.969 128.967 139.545 128.728 139.971 128.302C140.396 127.877 140.635 127.3 140.635 126.698C140.635 126.097 140.396 125.52 139.971 125.095C139.545 124.669 138.969 124.43 138.367 124.43Z" fill="#2F80ED"/>
<path d="M58.9761 79.0645H18.1465C17.5449 79.0645 16.9679 79.3034 16.5425 79.7288C16.1172 80.1542 15.8782 80.7312 15.8782 81.3328V92.6743C15.8782 93.2759 16.1172 93.8529 16.5425 94.2783C16.9679 94.7036 17.5449 94.9426 18.1465 94.9426H58.9761C59.5777 94.9426 60.1546 94.7036 60.58 94.2783C61.0054 93.8529 61.2444 93.2759 61.2444 92.6743V81.3328C61.2444 80.7312 61.0054 80.1542 60.58 79.7288C60.1546 79.3034 59.5777 79.0645 58.9761 79.0645ZM56.7078 90.406H20.4148V83.6011H56.7078V90.406Z" fill="#2F80ED"/>
<path d="M58.9761 60.9175H18.1465C17.5449 60.9175 16.9679 61.1565 16.5425 61.5819C16.1172 62.0072 15.8782 62.5842 15.8782 63.1858V74.5273C15.8782 75.1289 16.1172 75.7059 16.5425 76.1313C16.9679 76.5567 17.5449 76.7957 18.1465 76.7957H58.9761C59.5777 76.7957 60.1546 76.5567 60.58 76.1313C61.0054 75.7059 61.2444 75.1289 61.2444 74.5273V63.1858C61.2444 62.5842 61.0054 62.0072 60.58 61.5819C60.1546 61.1565 59.5777 60.9175 58.9761 60.9175ZM56.7078 72.259H20.4148V65.4541H56.7078V72.259Z" fill="#2F80ED"/>
<path d="M58.9761 97.2104H40.8296C40.228 97.2104 39.651 97.4494 39.2257 97.8748C38.8003 98.3002 38.5613 98.8772 38.5613 99.4788V110.82C38.5613 111.422 38.8003 111.999 39.2257 112.424C39.651 112.85 40.228 113.089 40.8296 113.089H58.9761C59.5777 113.089 60.1546 112.85 60.58 112.424C61.0054 111.999 61.2444 111.422 61.2444 110.82V99.4788C61.2444 98.8772 61.0054 98.3002 60.58 97.8748C60.1546 97.4494 59.5777 97.2104 58.9761 97.2104ZM56.7078 108.552H43.0979V101.747H56.7078V108.552Z" fill="#2F80ED"/>
<path d="M91.8666 76.7957H125.891C127.997 76.7957 130.016 75.9593 131.505 74.4704C132.994 72.9816 133.83 70.9622 133.83 68.8567C133.83 66.7511 132.994 64.7317 131.505 63.2429C130.016 61.754 127.997 60.9176 125.891 60.9176H118.519C117.983 57.7461 116.34 54.8671 113.883 52.7912C111.426 50.7152 108.314 49.5764 105.097 49.5767C101.881 49.5769 98.7682 50.7163 96.3116 52.7927C93.8551 54.869 92.2132 57.7483 91.6772 60.9198C89.5887 60.9698 87.604 61.8409 86.1535 63.3444C84.703 64.8478 83.9035 66.8624 83.9284 68.9514C83.9533 71.0403 84.8006 73.0353 86.2866 74.5037C87.7726 75.9721 89.7775 76.7956 91.8666 76.7957ZM89.4591 66.4528C89.7745 66.1356 90.1497 65.8841 90.5629 65.7127C90.9761 65.5413 91.4192 65.4534 91.8666 65.4542H93.7569C94.3585 65.4542 94.9355 65.2152 95.3609 64.7898C95.7863 64.3644 96.0252 63.7875 96.0252 63.1859C96.0252 60.7795 96.9812 58.4717 98.6827 56.7701C100.384 55.0686 102.692 54.1126 105.098 54.1126C107.505 54.1126 109.813 55.0686 111.514 56.7701C113.216 58.4717 114.172 60.7795 114.172 63.1859C114.172 63.7875 114.411 64.3644 114.836 64.7898C115.261 65.2152 115.838 65.4542 116.44 65.4542H125.891C126.794 65.4542 127.659 65.8127 128.297 66.4507C128.935 67.0888 129.294 67.9543 129.294 68.8567C129.294 69.759 128.935 70.6245 128.297 71.2626C127.659 71.9006 126.794 72.2591 125.891 72.2591H91.8666C91.1939 72.259 90.5364 72.0596 89.977 71.6859C89.4177 71.3123 88.9817 70.7812 88.724 70.1599C88.4664 69.5385 88.3987 68.8547 88.5295 68.1949C88.6604 67.5351 88.9838 66.9289 89.4591 66.4528Z" fill="#2F80ED"/>
<path d="M184.098 99.4443H211.318V126.664H184.098V99.4443Z" fill="#C4DBFB"/>
<path d="M184.098 79.0293H211.318V90.3708H184.098V79.0293Z" fill="#C4DBFB"/>
<path d="M170.488 97.1756C170.488 99.5749 169.853 101.931 168.649 104.006C167.444 106.081 165.712 107.801 163.629 108.991C161.546 110.181 159.185 110.8 156.785 110.783C154.386 110.767 152.034 110.117 149.967 108.898C147.9 107.68 146.192 105.937 145.016 103.845C143.84 101.754 143.237 99.3891 143.27 96.99C143.302 94.5909 143.968 92.243 145.2 90.1843C146.432 88.1255 148.187 86.4291 150.286 85.2669C149.068 83.9788 148.254 82.3619 147.944 80.6162C147.635 78.8704 147.844 77.0723 148.545 75.4439C149.246 73.8155 150.409 72.4283 151.89 71.4536C153.371 70.4789 155.105 69.9595 156.878 69.9595C158.651 69.9595 160.385 70.4789 161.866 71.4536C163.347 72.4283 164.51 73.8155 165.211 75.4439C165.913 77.0723 166.122 78.8704 165.812 80.6162C165.503 82.3619 164.689 83.9788 163.47 85.2669C165.598 86.4436 167.371 88.1689 168.605 90.2633C169.839 92.3577 170.489 94.7446 170.488 97.1756Z" fill="#C4DBFB"/>
<path d="M279.367 97.1756C279.367 99.5749 278.732 101.931 277.527 104.006C276.323 106.081 274.591 107.801 272.508 108.991C270.424 110.181 268.064 110.8 265.664 110.783C263.265 110.767 260.913 110.117 258.846 108.898C256.779 107.68 255.071 105.937 253.895 103.845C252.718 101.754 252.116 99.3891 252.148 96.99C252.181 94.5909 252.847 92.243 254.079 90.1843C255.311 88.1255 257.066 86.4291 259.165 85.2669C257.947 83.9788 257.133 82.3619 256.823 80.6162C256.514 78.8704 256.722 77.0723 257.424 75.4439C258.125 73.8155 259.288 72.4283 260.769 71.4536C262.25 70.4789 263.984 69.9595 265.757 69.9595C267.53 69.9595 269.264 70.4789 270.745 71.4536C272.226 72.4283 273.389 73.8155 274.09 75.4439C274.792 77.0723 275 78.8704 274.691 80.6162C274.382 82.3619 273.568 83.9788 272.349 85.2669C274.477 86.4436 276.25 88.1689 277.484 90.2633C278.718 92.3577 279.368 94.7446 279.367 97.1756Z" fill="#C4DBFB"/>
<path d="M184.098 60.8828H211.318V72.2244H184.098V60.8828Z" fill="#C4DBFB"/>
<path d="M184.098 42.7363H211.318V54.0779H184.098V42.7363Z" fill="#C4DBFB"/>
<path d="M224.927 83.5659H238.537V94.9075H224.927V83.5659Z" fill="#C4DBFB"/>
<path d="M224.927 101.712H238.537V113.054H224.927V101.712Z" fill="#C4DBFB"/>
<path d="M270.294 124.395H268.025V112.889C271.1 112.445 273.976 111.109 276.299 109.047C278.621 106.984 280.288 104.286 281.093 101.286C281.897 98.2857 281.804 95.1154 280.824 92.1677C279.845 89.22 278.023 86.6242 275.583 84.7019C276.577 82.9777 277.1 81.0222 277.099 79.032C277.098 77.0417 276.573 75.0868 275.577 73.3635C274.582 71.6403 273.15 70.2093 271.426 69.2145C269.702 68.2197 267.747 67.6959 265.757 67.6959C263.767 67.6959 261.812 68.2197 260.088 69.2145C258.364 70.2093 256.933 71.6403 255.937 73.3635C254.941 75.0868 254.416 77.0417 254.416 79.032C254.415 81.0222 254.937 82.9777 255.931 84.7019C253.492 86.6242 251.669 89.22 250.69 92.1677C249.71 95.1154 249.617 98.2857 250.422 101.286C251.226 104.286 252.893 106.984 255.215 109.047C257.538 111.109 260.414 112.445 263.489 112.889V116.189L257.698 113.293C257.432 113.157 257.141 113.076 256.842 113.053C256.544 113.03 256.244 113.066 255.959 113.159C255.675 113.253 255.412 113.402 255.185 113.598C254.959 113.793 254.773 114.032 254.639 114.3C254.505 114.567 254.426 114.859 254.405 115.158C254.384 115.456 254.423 115.756 254.519 116.04C254.615 116.323 254.766 116.585 254.963 116.81C255.16 117.035 255.401 117.219 255.669 117.351L263.489 121.261V124.395H247.611V79.0291C247.611 78.6557 247.518 78.2881 247.342 77.9589C247.166 77.6297 246.911 77.349 246.601 77.1419L220.391 59.6688V17.7848C220.391 17.1934 220.16 16.6253 219.748 16.2016C219.335 15.7779 218.774 15.532 218.182 15.5164C201.725 15.0829 187.809 21.2564 175.63 34.3879C175.241 34.8076 175.024 35.3588 175.025 35.9312V124.395H159.146V112.889C162.221 112.445 165.097 111.109 167.42 109.047C169.743 106.984 171.409 104.286 172.214 101.286C173.018 98.2857 172.925 95.1154 171.945 92.1677C170.966 89.22 169.144 86.6242 166.704 84.7019C167.698 82.9777 168.221 81.0222 168.22 79.032C168.219 77.0417 167.694 75.0868 166.698 73.3635C165.703 71.6403 164.271 70.2093 162.547 69.2145C160.824 68.2197 158.868 67.6959 156.878 67.6959C154.888 67.6959 152.933 68.2197 151.209 69.2145C149.485 70.2093 148.054 71.6403 147.058 73.3635C146.062 75.0868 145.538 77.0417 145.537 79.032C145.536 81.0222 146.058 82.9777 147.052 84.7019C144.613 86.6242 142.79 89.22 141.811 92.1677C140.832 95.1154 140.738 98.2857 141.543 101.286C142.347 104.286 144.014 106.984 146.336 109.047C148.659 111.109 151.536 112.445 154.61 112.889V116.189L148.819 113.293C148.553 113.157 148.262 113.076 147.963 113.053C147.665 113.03 147.365 113.066 147.08 113.159C146.796 113.253 146.533 113.402 146.306 113.598C146.08 113.793 145.894 114.032 145.76 114.3C145.626 114.567 145.547 114.859 145.526 115.158C145.506 115.456 145.544 115.756 145.64 116.04C145.736 116.323 145.887 116.585 146.084 116.81C146.282 117.035 146.522 117.219 146.79 117.351L154.61 121.261V124.395H143.268C142.667 124.395 142.09 124.634 141.664 125.06C141.239 125.485 141 126.062 141 126.664C141 127.265 141.239 127.842 141.664 128.268C142.09 128.693 142.667 128.932 143.268 128.932H270.294C270.895 128.932 271.472 128.693 271.898 128.268C272.323 127.842 272.562 127.265 272.562 126.664C272.562 126.062 272.323 125.485 271.898 125.06C271.472 124.634 270.895 124.395 270.294 124.395ZM254.416 97.1756C254.416 95.1501 254.959 93.1618 255.988 91.4168C257.016 89.6718 258.493 88.2337 260.264 87.2518C260.567 87.0841 260.828 86.8493 261.026 86.5655C261.224 86.2816 261.354 85.9562 261.407 85.6141C261.46 85.272 261.434 84.9223 261.331 84.5918C261.228 84.2614 261.051 83.9589 260.813 83.7075C259.899 82.7414 259.289 81.5288 259.057 80.2195C258.825 78.9102 258.981 77.5616 259.507 76.3403C260.033 75.119 260.905 74.0786 262.016 73.3476C263.127 72.6166 264.427 72.2271 265.757 72.2271C267.087 72.2271 268.387 72.6166 269.498 73.3476C270.609 74.0786 271.481 75.119 272.007 76.3403C272.533 77.5616 272.69 78.9102 272.458 80.2195C272.226 81.5288 271.615 82.7414 270.701 83.7075C270.463 83.9589 270.286 84.2614 270.183 84.5918C270.08 84.9223 270.054 85.272 270.107 85.6141C270.16 85.9562 270.29 86.2816 270.488 86.5655C270.686 86.8493 270.947 87.0841 271.25 87.2518C273.279 88.375 274.915 90.0933 275.938 92.1751C276.96 94.2569 277.32 96.602 276.969 98.8946C276.617 101.187 275.572 103.317 273.972 104.997C272.373 106.677 270.298 107.826 268.025 108.29V99.4439C268.025 98.8423 267.786 98.2654 267.361 97.84C266.936 97.4146 266.359 97.1756 265.757 97.1756C265.155 97.1756 264.579 97.4146 264.153 97.84C263.728 98.2654 263.489 98.8423 263.489 99.4439V108.29C260.929 107.764 258.628 106.371 256.976 104.347C255.323 102.322 254.419 99.7892 254.416 97.1756ZM145.537 97.1756C145.538 95.1501 146.08 93.1618 147.109 91.4168C148.137 89.6718 149.614 88.2337 151.385 87.2518C151.688 87.0841 151.949 86.8493 152.147 86.5655C152.345 86.2816 152.476 85.9562 152.528 85.6141C152.581 85.272 152.555 84.9223 152.452 84.5918C152.349 84.2614 152.172 83.9589 151.934 83.7075C151.02 82.7414 150.41 81.5288 150.178 80.2195C149.946 78.9102 150.102 77.5616 150.628 76.3403C151.154 75.119 152.026 74.0786 153.137 73.3476C154.248 72.6166 155.548 72.2271 156.878 72.2271C158.208 72.2271 159.508 72.6166 160.619 73.3476C161.73 74.0786 162.602 75.119 163.128 76.3403C163.654 77.5616 163.811 78.9102 163.579 80.2195C163.347 81.5288 162.736 82.7414 161.823 83.7075C161.584 83.9589 161.407 84.2614 161.304 84.5918C161.201 84.9223 161.175 85.272 161.228 85.6141C161.281 85.9562 161.411 86.2816 161.609 86.5655C161.808 86.8493 162.068 87.0841 162.371 87.2518C164.4 88.375 166.036 90.0933 167.059 92.1751C168.081 94.2569 168.441 96.602 168.09 98.8946C167.738 101.187 166.693 103.317 165.094 104.997C163.495 106.677 161.419 107.826 159.146 108.29V99.4439C159.146 98.8423 158.907 98.2654 158.482 97.84C158.057 97.4146 157.48 97.1756 156.878 97.1756C156.277 97.1756 155.7 97.4146 155.274 97.84C154.849 98.2654 154.61 98.8423 154.61 99.4439V108.29C152.05 107.764 149.749 106.371 148.097 104.347C146.444 102.322 145.54 99.7892 145.537 97.1756ZM179.561 36.8292C190.1 25.7357 201.998 20.2274 215.854 20.038V124.395H213.586V99.4439C213.586 98.8423 213.347 98.2654 212.922 97.84C212.496 97.4146 211.919 97.1756 211.318 97.1756H184.098C183.496 97.1756 182.919 97.4146 182.494 97.84C182.069 98.2654 181.83 98.8423 181.83 99.4439V124.395H179.561V36.8292ZM186.366 124.395V101.712H195.439V124.395H186.366ZM199.976 124.395V101.712H209.049V124.395H199.976ZM220.391 124.395V65.121L243.074 80.243V124.395H220.391Z" fill="#2F80ED"/>
<path d="M279.367 124.396H277.099C276.497 124.396 275.92 124.634 275.495 125.06C275.069 125.485 274.83 126.062 274.83 126.664C274.83 127.265 275.069 127.842 275.495 128.268C275.92 128.693 276.497 128.932 277.099 128.932H279.367C279.969 128.932 280.545 128.693 280.971 128.268C281.396 127.842 281.635 127.265 281.635 126.664C281.635 126.062 281.396 125.485 280.971 125.06C280.545 124.634 279.969 124.396 279.367 124.396Z" fill="#2F80ED"/>
<path d="M184.098 92.6389H211.318C211.919 92.6389 212.496 92.3999 212.922 91.9745C213.347 91.5492 213.586 90.9722 213.586 90.3706V79.0291C213.586 78.4275 213.347 77.8505 212.922 77.4251C212.496 76.9997 211.919 76.7607 211.318 76.7607H184.098C183.496 76.7607 182.919 76.9997 182.494 77.4251C182.069 77.8505 181.83 78.4275 181.83 79.0291V90.3706C181.83 90.9722 182.069 91.5492 182.494 91.9745C182.919 92.3999 183.496 92.6389 184.098 92.6389ZM209.049 81.2974V88.1023H199.976V81.2974H209.049ZM186.366 81.2974H195.439V88.1023H186.366V81.2974Z" fill="#2F80ED"/>
<path d="M156.878 94.9075C157.48 94.9075 158.057 94.6685 158.482 94.2431C158.908 93.8177 159.146 93.2408 159.146 92.6392V90.3708C159.146 89.7693 158.908 89.1923 158.482 88.7669C158.057 88.3415 157.48 88.1025 156.878 88.1025C156.277 88.1025 155.7 88.3415 155.274 88.7669C154.849 89.1923 154.61 89.7693 154.61 90.3708V92.6392C154.61 93.2408 154.849 93.8177 155.274 94.2431C155.7 94.6685 156.277 94.9075 156.878 94.9075Z" fill="#2F80ED"/>
<path d="M265.757 94.9075C266.359 94.9075 266.936 94.6685 267.361 94.2431C267.786 93.8177 268.025 93.2408 268.025 92.6392V90.3708C268.025 89.7693 267.786 89.1923 267.361 88.7669C266.936 88.3415 266.359 88.1025 265.757 88.1025C265.155 88.1025 264.579 88.3415 264.153 88.7669C263.728 89.1923 263.489 89.7693 263.489 90.3708V92.6392C263.489 93.2408 263.728 93.8177 264.153 94.2431C264.579 94.6685 265.155 94.9075 265.757 94.9075Z" fill="#2F80ED"/>
<path d="M238.537 45.0048H265.757C267.562 45.0048 269.293 44.2878 270.569 43.0116C271.845 41.7355 272.562 40.0046 272.562 38.1998C272.562 36.395 271.845 34.6642 270.569 33.388C269.293 32.1118 267.562 31.3949 265.757 31.3949H260.236C259.713 28.8316 258.319 26.5281 256.292 24.8745C254.265 23.2209 251.728 22.3189 249.112 22.3213C246.496 22.3237 243.961 23.2304 241.937 24.8877C239.913 26.545 238.524 28.8511 238.005 31.4153C236.25 31.5515 234.617 32.362 233.447 33.6767C232.278 34.9913 231.663 36.708 231.732 38.4663C231.801 40.2246 232.548 41.8878 233.817 43.107C235.086 44.3261 236.778 45.0063 238.537 45.0048ZM236.931 36.5981C237.142 36.3865 237.392 36.2186 237.668 36.1042C237.943 35.9898 238.239 35.9311 238.537 35.9315H240.049C240.651 35.9315 241.228 35.6925 241.653 35.2671C242.079 34.8418 242.318 34.2648 242.318 33.6632C242.318 31.8584 243.035 30.1276 244.311 28.8514C245.587 27.5752 247.318 26.8583 249.123 26.8583C250.927 26.8583 252.658 27.5752 253.934 28.8514C255.211 30.1276 255.928 31.8584 255.928 33.6632C255.928 34.2648 256.167 34.8418 256.592 35.2671C257.017 35.6925 257.594 35.9315 258.196 35.9315H265.757C266.359 35.9315 266.936 36.1705 267.361 36.5959C267.786 37.0213 268.025 37.5982 268.025 38.1998C268.025 38.8014 267.786 39.3784 267.361 39.8038C266.936 40.2292 266.359 40.4681 265.757 40.4681H238.537C238.089 40.4681 237.651 40.3352 237.278 40.0862C236.905 39.8372 236.614 39.4833 236.442 39.0692C236.271 38.6551 236.225 38.1994 236.312 37.7596C236.399 37.3197 236.615 36.9156 236.931 36.5981Z" fill="#2F80ED"/>
<path d="M184.098 74.4924H211.318C211.919 74.4924 212.496 74.2535 212.922 73.8281C213.347 73.4027 213.586 72.8257 213.586 72.2241V60.8826C213.586 60.281 213.347 59.704 212.922 59.2786C212.496 58.8532 211.919 58.6143 211.318 58.6143H184.098C183.496 58.6143 182.919 58.8532 182.494 59.2786C182.069 59.704 181.83 60.281 181.83 60.8826V72.2241C181.83 72.8257 182.069 73.4027 182.494 73.8281C182.919 74.2535 183.496 74.4924 184.098 74.4924ZM209.049 63.1509V69.9558H199.976V63.1509H209.049ZM186.366 63.1509H195.439V69.9558H186.366V63.1509Z" fill="#2F80ED"/>
<path d="M184.098 56.3459H211.318C211.919 56.3459 212.496 56.107 212.922 55.6816C213.347 55.2562 213.586 54.6792 213.586 54.0776V42.7361C213.586 42.1345 213.347 41.5575 212.922 41.1321C212.496 40.7068 211.919 40.4678 211.318 40.4678H184.098C183.496 40.4678 182.919 40.7068 182.494 41.1321C182.069 41.5575 181.83 42.1345 181.83 42.7361V54.0776C181.83 54.6792 182.069 55.2562 182.494 55.6816C182.919 56.107 183.496 56.3459 184.098 56.3459ZM209.049 45.0044V51.8093H199.976V45.0044H209.049ZM186.366 45.0044H195.439V51.8093H186.366V45.0044Z" fill="#2F80ED"/>
<path d="M238.537 81.2974H224.927C224.326 81.2974 223.749 81.5363 223.324 81.9617C222.898 82.3871 222.659 82.9641 222.659 83.5657V94.9072C222.659 95.5088 222.898 96.0858 223.324 96.5112C223.749 96.9366 224.326 97.1755 224.927 97.1755H238.537C239.139 97.1755 239.716 96.9366 240.141 96.5112C240.567 96.0858 240.806 95.5088 240.806 94.9072V83.5657C240.806 82.9641 240.567 82.3871 240.141 81.9617C239.716 81.5363 239.139 81.2974 238.537 81.2974ZM236.269 92.6389H227.196V85.834H236.269V92.6389Z" fill="#2F80ED"/>
<path d="M238.537 99.4443H224.927C224.326 99.4443 223.749 99.6833 223.324 100.109C222.898 100.534 222.659 101.111 222.659 101.713V113.054C222.659 113.656 222.898 114.233 223.324 114.658C223.749 115.084 224.326 115.323 224.927 115.323H238.537C239.139 115.323 239.716 115.084 240.141 114.658C240.567 114.233 240.806 113.656 240.806 113.054V101.713C240.806 101.111 240.567 100.534 240.141 100.109C239.716 99.6833 239.139 99.4443 238.537 99.4443ZM236.269 110.786H227.196V103.981H236.269V110.786Z" fill="#2F80ED"/>
<path d="M361.391 95.2688C361.391 97.6681 360.756 100.025 359.551 102.1C358.347 104.175 356.615 105.894 354.532 107.085C352.449 108.275 350.088 108.893 347.688 108.876C345.289 108.86 342.937 108.21 340.87 106.991C338.803 105.773 337.095 104.03 335.919 101.939C334.743 99.8473 334.14 97.4823 334.173 95.0832C334.205 92.6841 334.871 90.3363 336.103 88.2775C337.335 86.2188 339.09 84.5224 341.189 83.3602C339.971 82.072 339.157 80.4552 338.847 78.7094C338.538 76.9637 338.747 75.1655 339.448 73.5372C340.149 71.9088 341.312 70.5216 342.793 69.5469C344.274 68.5722 346.008 68.0527 347.781 68.0527C349.554 68.0527 351.288 68.5722 352.769 69.5469C354.25 70.5216 355.413 71.9088 356.114 73.5372C356.816 75.1655 357.025 76.9637 356.715 78.7094C356.406 80.4552 355.592 82.072 354.373 83.3602C356.501 84.5368 358.274 86.2621 359.508 88.3565C360.742 90.4509 361.392 92.8378 361.391 95.2688Z" fill="#C4DBFB"/>
<path d="M297.878 115.683C304.142 115.683 309.22 110.605 309.22 104.342C309.22 98.0778 304.142 93 297.878 93C291.614 93 286.537 98.0778 286.537 104.342C286.537 110.605 291.614 115.683 297.878 115.683Z" fill="#C4DBFB"/>
<path d="M322.83 115.683C326.588 115.683 329.635 112.636 329.635 108.878C329.635 105.12 326.588 102.073 322.83 102.073C319.071 102.073 316.025 105.12 316.025 108.878C316.025 112.636 319.071 115.683 322.83 115.683Z" fill="#C4DBFB"/>
<path d="M370.464 58.9756H406.757V72.5854H370.464V58.9756Z" fill="#C4DBFB"/>
<path d="M370.464 45.3657H406.757V58.9756H370.464V45.3657Z" fill="#C4DBFB"/>
<path d="M377.269 99.8052H399.952V127.025H377.269V99.8052Z" fill="#C4DBFB"/>
<path d="M411.294 124.757H409.025V20.4147C409.025 19.9935 408.908 19.5806 408.687 19.2223C408.465 18.864 408.148 18.5744 407.772 18.386L371.479 0.239514C371.133 0.0665849 370.748 -0.0150753 370.362 0.00228889C369.976 0.019653 369.601 0.135465 369.272 0.338726C368.943 0.541988 368.671 0.825951 368.483 1.16365C368.295 1.50135 368.196 1.88158 368.196 2.26823V124.757H350.049V110.982C353.124 110.538 356 109.203 358.323 107.14C360.645 105.078 362.312 102.379 363.116 99.3792C363.921 96.379 363.828 93.2088 362.848 90.2611C361.869 87.3133 360.047 84.7176 357.607 82.7952C358.601 81.071 359.124 79.1155 359.123 77.1253C359.122 75.1351 358.597 73.1801 357.601 71.4569C356.606 69.7336 355.174 68.3027 353.45 67.3078C351.726 66.313 349.771 65.7893 347.781 65.7893C345.791 65.7893 343.836 66.313 342.112 67.3078C340.388 68.3027 338.956 69.7336 337.961 71.4569C336.965 73.1801 336.44 75.1351 336.439 77.1253C336.438 79.1155 336.961 81.071 337.955 82.7952C335.515 84.7176 333.693 87.3133 332.714 90.2611C331.734 93.2088 331.641 96.379 332.446 99.3792C333.25 102.379 334.917 105.078 337.239 107.14C339.562 109.203 342.438 110.538 345.513 110.982V114.282L339.722 111.387C339.456 111.251 339.165 111.169 338.866 111.146C338.568 111.123 338.268 111.159 337.983 111.253C337.699 111.346 337.436 111.495 337.209 111.691C336.983 111.887 336.797 112.125 336.663 112.393C336.529 112.661 336.45 112.952 336.429 113.251C336.408 113.55 336.447 113.849 336.543 114.133C336.639 114.417 336.79 114.679 336.987 114.904C337.184 115.129 337.424 115.312 337.693 115.444L345.513 119.354V124.757H325.098V117.665C327.236 117.113 329.1 115.8 330.339 113.972C331.578 112.144 332.109 109.927 331.831 107.736C331.552 105.546 330.485 103.532 328.828 102.072C327.171 100.612 325.038 99.8065 322.83 99.8065C320.621 99.8065 318.489 100.612 316.832 102.072C315.175 103.532 314.107 105.546 313.829 107.736C313.55 109.927 314.081 112.144 315.32 113.972C316.56 115.8 318.423 117.113 320.561 117.665V124.757H300.146V117.76C303.511 117.191 306.54 115.379 308.631 112.682C310.723 109.986 311.726 106.602 311.44 103.202C311.155 99.8013 309.603 96.632 307.091 94.3221C304.579 92.0122 301.291 90.7302 297.878 90.7302C294.466 90.7302 291.178 92.0122 288.666 94.3221C286.154 96.632 284.601 99.8013 284.316 103.202C284.031 106.602 285.033 109.986 287.125 112.682C289.217 115.379 292.245 117.191 295.61 117.76V124.757H284.268C283.667 124.757 283.09 124.996 282.664 125.421C282.239 125.847 282 126.424 282 127.025C282 127.627 282.239 128.204 282.664 128.629C283.09 129.055 283.667 129.294 284.268 129.294H411.294C411.895 129.294 412.472 129.055 412.898 128.629C413.323 128.204 413.562 127.627 413.562 127.025C413.562 126.424 413.323 125.847 412.898 125.421C412.472 124.996 411.895 124.757 411.294 124.757ZM336.439 95.269C336.44 93.2435 336.983 91.2551 338.012 89.5101C339.04 87.7651 340.517 86.3271 342.288 85.3451C342.591 85.1774 342.852 84.9427 343.05 84.6588C343.248 84.375 343.378 84.0495 343.431 83.7074C343.484 83.3653 343.458 83.0156 343.355 82.6852C343.252 82.3547 343.075 82.0522 342.837 81.8009C341.923 80.8347 341.313 79.6221 341.08 78.3128C340.848 77.0035 341.005 75.6549 341.531 74.4336C342.057 73.2124 342.929 72.172 344.04 71.441C345.151 70.71 346.451 70.3204 347.781 70.3204C349.111 70.3204 350.411 70.71 351.522 71.441C352.633 72.172 353.505 73.2124 354.031 74.4336C354.557 75.6549 354.714 77.0035 354.482 78.3128C354.25 79.6221 353.639 80.8347 352.725 81.8009C352.487 82.0522 352.31 82.3547 352.207 82.6852C352.104 83.0156 352.078 83.3653 352.131 83.7074C352.184 84.0495 352.314 84.375 352.512 84.6588C352.71 84.9427 352.971 85.1774 353.274 85.3451C355.303 86.4684 356.939 88.1867 357.961 90.2684C358.984 92.3502 359.344 94.6954 358.992 96.9879C358.641 99.2805 357.595 101.41 355.996 103.09C354.397 104.77 352.322 105.92 350.049 106.384V97.5373C350.049 96.9357 349.81 96.3587 349.385 95.9333C348.96 95.5079 348.383 95.269 347.781 95.269C347.179 95.269 346.602 95.5079 346.177 95.9333C345.752 96.3587 345.513 96.9357 345.513 97.5373V106.384C342.953 105.857 340.652 104.465 338.999 102.44C337.347 100.415 336.442 97.8826 336.439 95.269ZM318.293 108.879C318.292 108.082 318.501 107.299 318.898 106.609C319.296 105.919 319.868 105.345 320.557 104.946C321.247 104.547 322.029 104.337 322.826 104.336C323.622 104.335 324.405 104.545 325.095 104.942C325.785 105.34 326.359 105.913 326.757 106.602C327.156 107.292 327.366 108.075 327.366 108.871C327.366 109.668 327.157 110.45 326.759 111.14C326.361 111.83 325.788 112.403 325.098 112.802V108.879C325.098 108.277 324.859 107.7 324.434 107.275C324.008 106.849 323.431 106.611 322.83 106.611C322.228 106.611 321.651 106.849 321.226 107.275C320.8 107.7 320.561 108.277 320.561 108.879V112.802C319.873 112.404 319.3 111.832 318.902 111.144C318.504 110.455 318.294 109.674 318.293 108.879ZM288.805 104.342C288.805 102.645 289.281 100.982 290.179 99.5424C291.077 98.1024 292.361 96.9431 293.884 96.1961C295.408 95.4492 297.111 95.1445 298.799 95.3167C300.487 95.4889 302.093 96.1311 303.435 97.1703C304.776 98.2096 305.799 99.6042 306.388 101.196C306.977 102.787 307.107 104.512 306.765 106.174C306.422 107.836 305.621 109.369 304.451 110.598C303.281 111.827 301.79 112.704 300.146 113.128V104.342C300.146 103.741 299.908 103.164 299.482 102.738C299.057 102.313 298.48 102.074 297.878 102.074C297.277 102.074 296.7 102.313 296.274 102.738C295.849 103.164 295.61 103.741 295.61 104.342V113.128C293.663 112.623 291.94 111.486 290.708 109.896C289.477 108.307 288.807 106.353 288.805 104.342ZM404.489 56.7077H372.732V47.6344H404.489V56.7077ZM372.732 61.2443H404.489V70.3175H372.732V61.2443ZM372.732 5.93836L404.489 21.8165V43.0978H372.732V5.93836ZM379.537 124.757V102.074H397.684V124.757H379.537ZM402.22 124.757V99.8056C402.22 99.204 401.981 98.627 401.556 98.2016C401.131 97.7762 400.554 97.5373 399.952 97.5373H377.269C376.667 97.5373 376.09 97.7762 375.665 98.2016C375.24 98.627 375.001 99.204 375.001 99.8056V124.757H372.732V74.8542H404.489V124.757H402.22Z" fill="#2F80ED"/>
<path d="M347.781 93.0002C348.383 93.0002 348.96 92.7613 349.385 92.3359C349.81 91.9105 350.049 91.3335 350.049 90.7319V88.4636C350.049 87.862 349.81 87.2851 349.385 86.8597C348.96 86.4343 348.383 86.1953 347.781 86.1953C347.179 86.1953 346.602 86.4343 346.177 86.8597C345.752 87.2851 345.513 87.862 345.513 88.4636V90.7319C345.513 91.3335 345.752 91.9105 346.177 92.3359C346.602 92.7613 347.179 93.0002 347.781 93.0002Z" fill="#2F80ED"/>
<path d="M299.012 47.6341H333.037C335.143 47.6341 337.162 46.7977 338.651 45.3088C340.14 43.8199 340.976 41.8006 340.976 39.695C340.976 37.5895 340.14 35.5701 338.651 34.0812C337.162 32.5924 335.143 31.7559 333.037 31.7559H325.665C325.129 28.5845 323.486 25.7055 321.029 23.6296C318.572 21.5536 315.46 20.4148 312.243 20.415C309.027 20.4153 305.914 21.5547 303.458 23.631C301.001 25.7074 299.359 28.5867 298.823 31.7582C296.735 31.8081 294.75 32.6793 293.299 34.1827C291.849 35.6862 291.049 37.7008 291.074 39.7897C291.099 41.8787 291.947 43.8737 293.432 45.3421C294.918 46.8105 296.923 47.634 299.012 47.6341ZM296.605 37.2912C296.92 36.974 297.296 36.7224 297.709 36.551C298.122 36.3796 298.565 36.2918 299.012 36.2926H300.903C301.504 36.2926 302.081 36.0536 302.507 35.6282C302.932 35.2028 303.171 34.6258 303.171 34.0243C303.171 31.6179 304.127 29.3101 305.829 27.6085C307.53 25.9069 309.838 24.951 312.244 24.951C314.651 24.951 316.959 25.9069 318.66 27.6085C320.362 29.3101 321.318 31.6179 321.318 34.0243C321.318 34.6258 321.557 35.2028 321.982 35.6282C322.407 36.0536 322.984 36.2926 323.586 36.2926H333.037C333.939 36.2926 334.805 36.651 335.443 37.2891C336.081 37.9272 336.44 38.7926 336.44 39.695C336.44 40.5974 336.081 41.4628 335.443 42.1009C334.805 42.739 333.939 43.0975 333.037 43.0975H299.012C298.34 43.0974 297.682 42.8979 297.123 42.5243C296.564 42.1507 296.128 41.6196 295.87 40.9982C295.612 40.3769 295.545 39.6931 295.675 39.0333C295.806 38.3735 296.13 37.7672 296.605 37.2912Z" fill="#2F80ED"/>
</g>
</svg>
