<svg width="264" height="628" viewBox="0 0 264 628" fill="none" xmlns="http://www.w3.org/2000/svg">
<path d="M99.3477 462.808C100.246 467.378 115.971 482.886 114.944 477.663C113.297 476.179 110.055 473.129 107.786 466.3C107.166 464.431 106.992 463.023 107.01 462.002C107.03 460.809 108.239 460.64 108.926 461.614C110.03 463.178 111.69 465.751 113.563 469.399C116.924 475.946 111.819 455.955 108.309 451.898C105.662 448.838 90.6115 410.683 89.9701 407.419C89.457 404.808 96.9234 382.832 99.3476 373.315L75.6539 385.962C75.0096 396.486 77.8995 403.542 77.993 406.779C78.1098 410.824 97.747 449.906 99.8224 453.566C101.898 457.226 98.4498 458.238 99.3477 462.808Z" fill="#FFB69C"/>
<path d="M20.3667 577.368C29.2159 570.901 54.9884 553.438 77.4457 526.453C89.7522 511.666 95.8442 484.329 98.2651 463.829C98.6259 460.774 88.5914 451.101 95.2103 441.936C101.829 432.771 138.959 459.478 138.959 459.478C137.938 478.538 126.099 508.483 113.03 526.453C99.9601 544.424 58.8268 575.326 29.5563 587.579L20.3667 577.368Z" fill="#001585"/>
<path d="M193.021 241.843C193.021 241.843 193.038 241.887 193.066 241.969C192.918 242.445 192.424 243.754 191.034 247.098C190.278 248.916 189.486 250.094 188.803 250.853C188.006 251.74 186.982 251.076 187.102 249.889C187.293 247.985 187.726 244.954 188.702 240.971C190.455 233.824 181.208 252.268 181.199 257.632C181.193 261.679 169.728 301.582 168.073 304.467C166.749 306.776 150.352 318.022 142.283 323.621L153.915 338.003C161.3 330.478 172.471 314.084 174.522 311.579C177.085 308.447 185.061 265.824 185.893 261.699C186.725 257.575 190.759 256.243 193.076 252.203C195.2 248.499 193.384 242.88 193.066 241.969C193.213 241.5 193.021 241.843 193.021 241.843Z" fill="#EFBDBB"/>
<path d="M193.021 241.843C193.021 241.843 193.038 241.887 193.066 241.969C192.918 242.445 192.424 243.754 191.034 247.098C190.278 248.916 189.486 250.094 188.803 250.853C188.006 251.74 186.982 251.076 187.102 249.889C187.293 247.985 187.726 244.954 188.702 240.971C190.455 233.824 181.208 252.268 181.199 257.632C181.193 261.679 169.728 301.582 168.073 304.467C166.749 306.776 150.352 318.022 142.283 323.621L153.915 338.003C161.3 330.478 172.471 314.084 174.522 311.579C177.085 308.447 185.061 265.824 185.893 261.699C186.725 257.575 190.759 256.243 193.076 252.203C195.2 248.499 193.384 242.88 193.066 241.969C193.213 241.5 193.021 241.843 193.021 241.843Z" fill="url(#paint0_linear)"/>
<path d="M174.697 111.296C179.803 117.763 188.992 141.111 184.908 182.77C180.824 224.43 194.098 267.519 201.245 283.856M201.245 283.856C197.842 267.519 180.824 231.373 180.824 205.234C180.824 179.095 206.691 149.756 212.477 139.886M201.245 283.856C198.754 248.799 158.792 226.676 184.319 139.886C191.944 113.961 214.519 79.6429 228.814 63.3059" stroke="#46F7CD" stroke-width="0.934502" stroke-linecap="round" stroke-linejoin="round"/>
<path d="M8.08119 583.117L18.8324 581.25L29.0762 587.538L16.8991 591.22L11.7486 591.908L8.08119 583.117Z" fill="#EFBDBB"/>
<path d="M26.7869 590.065L15.5115 578.578C14.9933 578.05 15.2649 577.158 15.9893 577.008L20.4391 576.089C20.7642 576.021 21.1006 576.132 21.3228 576.379L32.3308 588.608C32.8597 589.196 32.4655 590.134 31.6756 590.167L27.4933 590.344C27.229 590.355 26.9723 590.254 26.7869 590.065Z" fill="#A1C1F1"/>
<path d="M195.567 250.498C197.103 246.101 193.076 233.196 191.034 236.751C188.422 241.299 193.797 240.453 191.034 247.098C190.414 248.589 189.77 249.332 189.182 249.653C188.091 250.251 186.254 250.168 185.556 251.198L181.2 257.632C178.256 261.935 168.71 300.563 167.055 303.449C165.731 305.758 150.352 318.022 142.283 323.621L153.916 338.003C161.165 330.615 174.192 314.695 176.605 311.746L176.729 311.595C179.292 308.464 187.871 266.06 188.702 261.935C189.534 257.81 193.076 257.632 195.567 250.498Z" fill="#FFB69C"/>
<path d="M10.9674 580.375C9.06243 580.708 5.40322 582.615 2.87127 584.288C1.20205 585.392 1.07827 587.476 2.25803 589.092L19.1136 612.182C20.336 613.857 22.7032 614.221 24.1498 612.736C24.708 612.163 25.2459 611.547 25.6767 610.933C27.2461 608.7 23.4732 605.048 21.7828 599.857C20.5707 596.135 21.6084 592.246 21.641 589.82C21.6472 589.367 21.2764 589.024 20.8334 588.928C18.5524 588.438 15.3008 586.504 14.2012 585.016C13.2799 583.77 14.658 582.776 15.6803 581.706C16.1387 581.226 15.7651 580.555 15.1054 580.482C13.8324 580.342 12.3278 580.137 10.9674 580.375Z" fill="#73DCB0"/>
<path d="M137.814 298.897L132.834 287.94L121.602 292.024L113.433 309.382L123.644 334.909L142.319 316.234C142.771 315.782 142.96 315.131 142.822 314.507L141.133 306.908C141.053 306.549 141.191 306.178 141.485 305.957L143.949 304.109C144.486 303.706 144.435 302.884 143.852 302.55L138.201 299.321C138.031 299.224 137.895 299.075 137.814 298.897Z" fill="#FFB69C"/>
<path d="M125.629 318.188C123.386 311.458 134.042 290.707 134.042 290.707L121.602 292.024L113.433 309.382L123.644 334.909L132.64 325.913C134.193 324.36 131.52 320.481 129.325 320.447C127.554 320.418 126.166 319.799 125.629 318.188Z" fill="#E8A086"/>
<path d="M116.877 465.93C113.748 464.304 85.946 449.192 100.584 433.013C116.081 415.884 148.437 432.292 151.213 438.036C154.326 444.482 171.155 498.295 168.582 513.725C165.008 535.167 125.005 582.347 90.9698 607.533L80.7591 600.386C89.268 587.112 111.033 551.936 117.159 542.746C122.795 534.292 135.297 514.677 137.262 511.591C137.432 511.325 137.447 511.006 137.317 510.719L117.296 466.379C117.207 466.182 117.068 466.03 116.877 465.93Z" fill="#1F3B9E"/>
<path d="M142.956 458.623C137.878 458.083 83.2883 451.865 98.0692 435.528C113.566 418.399 148.437 432.292 151.212 438.036C154.326 444.482 171.154 498.295 168.582 513.725C165.008 535.167 125.005 582.347 90.9697 607.533L80.7591 600.385C93.6609 595.806 111.047 581.785 125.068 569.446C139.089 557.108 154.987 533.288 159.841 513.725C165.489 490.959 145.977 462.402 143.572 458.998C143.419 458.781 143.22 458.651 142.956 458.623Z" fill="#001585"/>
<path d="M182.462 293.275L167.381 284.896C166.39 284.346 165.143 284.795 164.714 285.844C161.97 292.569 156.658 304.221 152.234 309.382C145.233 317.551 133.174 322.656 126.707 325.719L112.412 327.762C107.988 331.505 96.075 335.93 87.9067 346.141C80.226 355.742 70.5486 393.11 72.5907 394.131C74.2244 394.948 88.2473 388.345 94.0334 386.983C93.0123 405.703 89.9495 443.142 94.0334 445.184C98.1173 447.226 140.524 458.738 165.508 455.683C167.55 444.451 155.823 418.084 146.633 389.494C144.73 383.572 145.425 367.842 149.17 359.415C153.255 350.225 159.892 345.12 165.508 335.93C176.272 318.315 178.909 307.265 183.304 295.59C183.633 294.716 183.278 293.728 182.462 293.275Z" fill="#73DCB0"/>
<path d="M72.5905 394.131C74.2242 394.948 88.2472 388.345 94.0333 386.983C91.9784 374.834 90.8567 363.617 93.6609 345.109C95.0219 336.126 101.432 336.683 104.317 332.77C99.8924 336.514 96.0748 335.93 87.9065 346.141C80.2258 355.742 70.5484 393.11 72.5905 394.131Z" fill="#58CE9C"/>
<path d="M165.508 335.93C176.323 318.231 178.933 307.16 183.367 295.423C183.652 294.669 183.289 293.822 182.543 293.518C181.779 293.206 180.909 293.578 180.617 294.349C177.702 302.044 170.091 322.936 165.508 328.283C161.769 334.186 151.256 346.4 143.015 355.765C133.144 366.982 137.407 406.801 134.042 429.235C132.107 442.135 105.687 447.159 94.0333 445.184C98.1171 447.226 140.524 458.738 165.508 455.683C167.549 444.451 155.822 418.084 146.633 389.494C144.73 383.572 145.425 367.842 149.17 359.414C153.255 350.225 159.892 345.12 165.508 335.93Z" fill="#58CE9C"/>
<path d="M135.897 286.919C135.897 284.877 134.876 280.793 128.749 280.793C123.898 280.793 120.581 284.877 119.56 285.898C117.518 287.94 108.441 284.492 101.181 296.109C90.9698 312.446 111.731 322.997 116.496 328.783C120.581 327.762 123.236 327.557 125.686 326.74C128.749 325.719 125.686 315.509 123.644 315.509C122.2 315.509 117.518 311.425 116.497 308.361C115.475 305.298 118.539 302.235 121.602 303.256C124.665 304.277 135.897 289.982 135.897 286.919Z" fill="#893216"/>
<path d="M75.7089 613.017L82.5478 604.514L96.5594 602.821L87.6819 613.276L84.2697 617.195L75.7089 613.017Z" fill="#EFBDBB"/>
<path d="M96.7656 606.153L77.6618 605.739C76.9059 605.723 76.4813 604.862 76.9282 604.253L80.3462 599.588C80.5448 599.317 80.8736 599.173 81.2073 599.212L99.9348 601.377C100.721 601.468 101.045 602.433 100.474 602.981L97.4322 605.893C97.2532 606.065 97.0134 606.158 96.7656 606.153Z" fill="#A1C1F1"/>
<path d="M72.062 617.081C71.2369 618.732 71.2297 621.92 71.482 624.463C71.6806 626.464 73.4185 627.774 75.4297 627.774H105.442C107.507 627.774 109.193 626.091 108.862 624.053C108.733 623.256 108.556 622.449 108.317 621.732C107.454 619.142 102.274 620.005 97.0951 618.279C93.3815 617.041 90.8709 613.895 88.9398 612.426C88.5791 612.152 88.0884 612.254 87.7456 612.55C86.4507 613.67 85.0134 613.517 83.2002 613.517C81.6109 613.517 79.0727 612.866 77.5871 611.913C77.0285 611.554 76.1363 611.544 75.7198 612.06C74.5287 613.538 72.7253 615.754 72.062 617.081Z" fill="#73DCB0"/>
<circle cx="212.476" cy="112.317" r="32.674" fill="#89C599"/>
<circle cx="214.519" cy="110.275" r="32.674" fill="#87F2C5"/>
<rect width="7.4174" height="30.5155" rx="3.7087" transform="matrix(0.899592 -0.436732 0.56603 0.824385 192.115 103.157)" fill="white"/>
<rect width="7.4174" height="40.3104" rx="3.7087" transform="matrix(0.899592 0.436732 -0.56603 0.824385 228.799 92.5371)" fill="white"/>
<circle cx="173.676" cy="81.6854" r="32.674" fill="#89C599"/>
<circle cx="175.718" cy="79.6433" r="32.674" fill="#87F2C5"/>
<rect width="7.4174" height="30.5155" rx="3.7087" transform="matrix(0.899592 -0.436732 0.56603 0.824385 154.899 73.9877)" fill="white"/>
<rect width="7.4174" height="40.3104" rx="3.7087" transform="matrix(0.899592 0.436732 -0.56603 0.824385 191.583 63.3677)" fill="white"/>
<circle cx="228.814" cy="34.7164" r="32.674" fill="#89C599"/>
<circle cx="230.855" cy="32.674" r="32.674" fill="#87F2C5"/>
<rect width="7.4174" height="30.5155" rx="3.7087" transform="matrix(0.899592 -0.436732 0.56603 0.824385 209.214 25.7072)" fill="white"/>
<rect width="7.4174" height="40.3104" rx="3.7087" transform="matrix(0.899592 0.436732 -0.56603 0.824385 245.898 15.0874)" fill="white"/>
<defs>
<linearGradient id="paint0_linear" x1="188.992" y1="234.845" x2="175.718" y2="291.003" gradientUnits="userSpaceOnUse">
<stop stop-color="#F9DCDC"/>
<stop offset="1" stop-color="white" stop-opacity="0"/>
</linearGradient>
</defs>
</svg>
