<svg xmlns="http://www.w3.org/2000/svg" width="110" height="122">
    <desc>Created with Sketch.</desc><path fill="#004FF7" fill-rule="evenodd" d="M88.561 102.5007c-0.19 0 -0.6128 1.4393 -0.1776 2.46c0.2316 0.5435 0.776 0.773 1.2315 0.6208c0.4487 -0.1498 0.5794 -0.577 0.5918 -0.9098c0.0422 -1.1185 -0.9382 -2.171 -1.6458 -2.171l0 0zm-3.264 -16.3212l0.1427 1.5804l-1.363 -0.1524l0 1.7995l1.363 -0.1517l-0.1428 1.6504l1.8513 0l-0.143 -1.6504l1.3628 0.1518l0 -1.7994l-1.3628 0.1523l0.143 -1.5805l-1.8513 0l0 0zm0.928 6.2278c-0.3687 0 -0.6676 0.306 -0.6676 0.6835c0 0.3774 0.299 0.6835 0.6676 0.6835c0.3686 0 0.6675 -0.306 0.6675 -0.6835c0 -0.3776 -0.299 -0.6835 -0.6675 -0.6835l0 0zm0 2.7674c-0.3687 0 -0.6676 0.306 -0.6676 0.6835c0 0.3776 0.299 0.6835 0.6676 0.6835c0.3686 0 0.6675 -0.306 0.6675 -0.6835c0 -0.3774 -0.299 -0.6835 -0.6675 -0.6835l0 0zm0 2.8072c-0.3687 0 -0.6676 0.306 -0.6676 0.6834c0 0.378 0.299 0.6838 0.6676 0.6838c0.3686 0 0.6675 -0.306 0.6675 -0.6838c0 -0.3774 -0.299 -0.6835 -0.6675 -0.6835l0 0zm2.1558 0.6834c0 0.378 0.299 0.6838 0.6676 0.6838c0.3686 0 0.6675 -0.306 0.6675 -0.6838c0 -0.3774 -0.299 -0.6835 -0.6676 -0.6835c-0.3687 0 -0.6676 0.306 -0.6676 0.6834l0 0zm2.798 0c0 0.378 0.2992 0.6838 0.6678 0.6838c0.3687 0 0.6676 -0.306 0.6676 -0.6838c0 -0.3774 -0.299 -0.6835 -0.6676 -0.6835c-0.3686 0 -0.6678 0.306 -0.6678 0.6834l0 0zm-4.9538 3.0745c-0.5714 0 -1.9813 2.9042 -0.9304 4.373c0.201 0.281 0.5533 0.4387 0.9304 0.4387c0.377 0 0.7294 -0.1578 0.9304 -0.4387c1.051 -1.4688 -0.359 -4.373 -0.9304 -4.373l0 0zm-2.336 0.7607c-0.7077 0 -1.688 1.0525 -1.646 2.171c0.0123 0.3327 0.1432 0.76 0.592 0.9098c0.4554 0.1523 1 -0.0773 1.2316 -0.6208c0.435 -1.0207 0.0124 -2.46 -0.1776 -2.46l0 0zm-1.0862 -3.8353c0 0.378 0.2986 0.6838 0.6675 0.6838c0.369 0 0.6676 -0.306 0.6676 -0.6838c0 -0.3774 -0.2988 -0.6835 -0.6677 -0.6835c-0.369 0 -0.6675 0.306 -0.6675 0.6834l0 0zm-2.7295 0c0 0.378 0.2988 0.6838 0.6675 0.6838c0.3687 0 0.6678 -0.306 0.6678 -0.6838c0 -0.3774 -0.299 -0.6835 -0.6678 -0.6835c-0.3687 0 -0.6675 0.306 -0.6675 0.6834l0 0zm-0.6582 0c0 -0.5827 0.1006 -1.1078 0.1006 -1.1078l5.5476 0l0 -0.4817l0.0002 -4.0612l-0.0002 -0.0005l0 -1.1546c-2.6778 0.4703 -4.8194 2.5408 -5.4578 5.2154c-0.1555 0.2224 -0.6587 0.3363 -1.0134 0.2964c-2.0472 -0.2513 -6.1902 -1 -6.1902 -1.8846c0 -1.2427 0.8395 -1.74 1.646 -1.74c1.1505 0 2.4216 0.6246 3.48 -0.9114c-3.7668 0.1728 -0.8793 -5.2826 -3.9688 -6.3177c0.1532 1.393 0.0013 3.844 -0.486 5.1394c0 0 -1.107 -1.1855 -2.3503 -1.6326c0.0933 1.0113 -0.0957 3.1073 -0.5468 4.0616c0 0 -1.3164 -1.2218 -2.6817 -1.6787c1.2595 1.8305 1.2164 4.4428 0.8774 6.0318c-0.0982 0.4598 0.2436 1.032 1.204 0.9897c1.5024 -0.0664 6.6337 0.1604 8.8593 1.0728c0.692 0.2836 1.2846 0.609 1.5743 1.1035c0.2357 0.666 0.819 1.6977 1.537 2.2266c0.3223 -1.1513 1.6964 -2.3844 2.5916 -2.34c0.2673 0.0132 0.563 0.461 0.6243 0.8997c0.079 -0.408 0.7393 -1.5352 1.4627 -1.5352c0.6675 0 1.309 0.943 1.5317 1.722c0.0672 -0.5004 0.3623 -1.0354 0.6297 -1.0354c0.899 0 2.0295 0.7995 2.4555 2.1198c0.345 -0.431 1.9292 -2.472 2.108 -3.8113l-13.4344 0c0 0 -0.1005 -0.5794 -0.1005 -1.1856l0 0zm7.9715 -6.8047l0 5.697l5.5524 0c-0.4827 -2.9046 -2.7177 -5.1974 -5.5525 -5.697l0 0zm-65.522 4.6908c0.1165 0.0392 0.2345 0.0114 0.3507 -0.0505c-0.3743 0.5223 -0.3588 0.866 -0.1977 1.027c0.2532 0.2513 0.4407 -0.2106 1.0806 -0.8916c0.6405 -0.68 1.0835 -0.8874 0.8313 -1.1397c-0.1626 -0.162 -0.4996 -0.1665 -1.0027 0.2445c0.0556 -0.1202 0.077 -0.24 0.0365 -0.357c-0.2117 -0.614 -1.1972 -1.4316 -1.7404 -1.4333a0.592 0.592 0 0 0 -0.228 0.048c0.239 -0.3846 0.1773 -0.675 0.0174 -0.8344c-0.176 -0.175 -0.2768 -0.0523 -0.4744 0.201c0.027 -0.177 -0.0183 -0.3844 -0.185 -0.6375c-0.8154 -1.2368 -5.1282 -5.3096 -6.1075 -5.7188c-0.5845 -0.2452 -0.7763 0.094 -0.7763 0.094c0 0 -0.3235 0.209 -0.0678 0.8032c0.428 0.9942 4.5722 5.2468 5.7982 6.0472c0.2514 0.1637 0.4534 0.2036 0.6242 0.1708c-0.2383 0.209 -0.3525 0.317 -0.1774 0.4915c0.16 0.1593 0.4448 0.2134 0.811 -0.0455a0.6358 0.6358 0 0 0 -0.0382 0.236c0.0186 0.5583 0.8426 1.5465 1.4457 1.745l0 0zm-10.3665 -12.049c-0.1278 0 -0.3092 0.0304 -0.4427 0.172c-0.1352 0.1435 -0.1827 0.3656 -0.1335 0.6232c0.054 0.28 0.2132 0.564 0.449 0.7994c0.2823 0.282 0.6375 0.4503 0.9488 0.4503c0.1286 0 0.3088 -0.0293 0.4425 -0.171c0.2913 -0.31 0.1475 -0.9616 -0.315 -1.423c-0.2832 -0.2815 -0.6374 -0.4507 -0.949 -0.4507l0 0zm13.413 15.118c-0.0036 -0.4302 -0.8155 -1.152 -1.7784 -1.152c-1.4302 0 -2.0493 0.9102 -2.0493 1.374c0 0.8732 0.8404 0.9856 1.098 1c1.0066 0.0626 2.6297 -0.9707 2.7297 -1.222l0 0zm-1.232 2.1805c-0.38 0.4888 -0.5223 0.9662 -0.424 1.4186c0.1197 0.548 0.6593 0.794 1.1414 0.794c0.508 0 0.963 -0.2406 1.217 -0.6445c0.5464 -0.8648 0.5705 -2.781 0.3863 -2.9905c-0.458 0 -1.676 0.5938 -2.3206 1.4225l0 0zm-12.5514 -19.9478c-0.4042 -0.4034 -1.2308 0.1977 -1.7248 -0.082c0.219 -1.2318 1.0872 0.061 1.9263 -0.8296c0.3345 -0.3557 0.155 -0.911 -0.037 -1.0786c-0.3615 0.368 -0.921 0.2405 -0.964 0.036c0.9523 -2.26 -0.9084 -4.7796 -2.695 -4.4638c0.3505 0.471 0.4553 2.1083 0.3026 2.5508c0.6802 0.4906 0.194 1.6462 -0.5567 1.3105c-0.5035 -0.206 -1.3915 -1.47 -0.3703 -2.3605c-0.0294 -0.321 -0.5912 -0.399 -1.1882 0.3744c0.438 -1.4196 -2.2434 -0.9745 -2.7944 -0.6338c-0.3133 0.577 -0.6606 3.3506 0.703 2.8553c-0.7314 0.639 -0.638 1.2143 -0.3257 1.235c0.8322 -1.0785 2.086 -0.2036 2.3023 0.308c0.3496 0.7628 -0.7574 1.298 -1.2546 0.6137c-0.4255 0.1715 -2.018 0.1152 -2.4865 -0.2308c-0.2497 1.848 2.254 3.6833 4.4185 2.6333c0.1995 0.038 0.341 0.6083 -0.0045 0.9925c0.169 0.1932 0.713 0.36 1.048 0.004c0.838 -0.8906 -0.4444 -1.744 0.7448 -2.0086c0.287 0.5 -0.27 1.3696 0.1337 1.773c0.6467 0.645 1.459 -0.6063 2.2568 -0.6565c0.0234 -0.8225 1.2123 -1.697 0.5658 -2.3425l0 0zm-6.7025 -2.8533c0 0 -0.4183 -0.2984 0.0833 -0.845c0.514 -0.5337 0.8177 -0.112 0.8177 -0.112c0 0 0.4712 1.0532 0.6105 1.538c-0.4752 -0.1282 -1.5114 -0.581 -1.5114 -0.581l0 0l0 0zm4.1393 3.2032c-0.2596 0.033 -0.8746 0.5828 -1.183 0.275l-1.4113 -1.4073l0.7056 -0.7518l0.7084 -0.7502l1.41 1.409c0.3084 0.3068 -0.206 0.9575 -0.2297 1.2252l0 0zm23.3838 21.5698c0.0478 -0.2107 0.015 -0.38 -0.095 -0.4895c-0.0345 -0.0346 -0.0655 -0.054 -0.0842 -0.054c-0.0795 0 -0.2563 0.2194 -0.4268 0.432c-0.142 0.1762 -0.319 0.3957 -0.5447 0.6346c-0.2248 0.2403 -0.433 0.4287 -0.5998 0.581c-0.1982 0.18 -0.4037 0.3666 -0.406 0.4507c0 0.0197 0.0203 0.0513 0.0563 0.087c0.073 0.0734 0.1708 0.1097 0.2895 0.1097c0.1814 0 0.5745 -0.0932 1.166 -0.7226c0.4492 -0.4764 0.599 -0.8224 0.6448 -1.0288l0 0zm0.0085 1.6797c-0.3075 0.3276 -0.62 0.5602 -0.793 0.6792c0.1227 0.1247 0.4715 0.346 0.9074 0.346c0.2488 0 0.4812 -0.0735 0.6934 -0.2188c0.435 -0.72 0.0152 -1.4564 -0.1736 -1.644c-0.1104 0.1823 -0.327 0.5114 -0.6343 0.8375l0 0zm-4.7626 -4.0048c-0.224 0.2106 -0.742 1.6723 -0.516 2.5624c0.0973 0.3814 0.307 0.5444 0.662 0.5252c0.3672 -0.0233 0.5674 -0.2152 0.6293 -0.606c0.1408 -0.889 -0.531 -2.302 -0.7754 -2.4817l0 0zm-0.2835 -4.0624c0.0127 0.025 2.657 2.358 3.5442 3.2025c0.209 0.1994 0.4973 0.2454 0.79 0.0958c0.167 -0.0856 0.375 -0.184 0.59 -0.283c2.6443 -0.9372 6.9938 -1.0428 8.5892 -0.972c0.9605 0.042 1.2997 -0.5292 1.204 -0.9897c-0.3125 -1.5038 -0.3823 -4.2012 0.8774 -6.0317c-1.3652 0.457 -2.6815 1.6787 -2.6815 1.6787c-0.4515 -0.9543 -0.6405 -3.0503 -0.5472 -4.0616c-1.243 0.447 -2.3504 1.6327 -2.3504 1.6327c-0.487 -1.2954 -0.639 -3.7463 -0.4856 -5.1393c-3.0898 1.035 -0.202 6.4905 -3.969 6.3177c1.0585 1.536 2.3297 0.9116 3.48 0.9116c0.8066 0 1.8086 0.5297 1.6462 1.7398c-0.1178 0.8765 -5.172 1.9677 -7.2047 1.9677c-1.4208 0 -2.3722 -0.44 -3.0852 -1.429c-0.343 -0.4755 -0.6928 -0.6907 -1.0846 -0.6303c-0.4863 0.0752 -1.055 0.5738 -1.055 1.7284c0 0.818 0.3297 2.611 1.3088 2.611c0.6878 0 0.7182 -1.417 0.4333 -2.349l0 0zm3.268 6.2937c0.4615 -0.4915 0.623 -0.8492 0.509 -1.1283c-0.165 -0.403 -1.2147 -1.575 -2.5888 -2.8972a5.5727 5.5727 0 0 1 -0.1832 0.8068c0.926 1.227 1.272 2.5448 0.9598 3.6516c0.113 0.0753 0.183 0.1096 0.224 0.1256c0.3555 0.1417 0.7993 -0.261 1.079 -0.5585l0 0zm-6.6864 -6.6736c-0.0067 0.007 -0.1777 0.176 -0.2883 0.4038c0.2874 0.0018 0.6223 0.0513 0.9235 0.1327c-0.02 -0.2675 -0.0398 -0.6295 -0.0137 -0.942c-0.2542 0.0574 -0.5272 0.303 -0.6214 0.4055l0 0zm46.1866 8.429c0.8705 -0.3972 1.4982 -1.475 1.6634 -2.5293c-0.5516 0.2707 -1.1735 0.4026 -1.8905 0.4026c-1.9724 0 -4.4505 -1.0968 -6.6964 -2.0912c0 0 -0.4843 0.4074 -1.2868 0.4926c2.2662 0.6966 6.7195 3.1684 7.0468 4.754c0.2187 1.0603 -0.4724 1.4652 -0.4724 1.4652c-0.9908 -1.617 -3.5445 -4.1276 -6.9527 -5.3834c0.007 0.591 -0.1064 1.0058 -0.1064 1.0058c0 0 -0.6916 0.17 -2.1607 -0.085c1.2845 1.0718 4.6587 4.8576 5.025 7.73c0.2442 1.9177 -1.0957 2.0064 -1.0957 2.0064c-0.1913 -2.8843 -1.704 -5.869 -4.434 -8.866c0 0 -0.4476 0.702 -1.0426 1.0562c0 0 -1.0082 -0.1788 -1.845 -0.7323c0.3222 3.8055 0.5125 8.749 0.3126 10.2453c-0.1396 1.042 -0.7432 1.4786 -0.7432 1.4786c0 0 -0.6058 -0.4367 -0.7456 -1.4786c-0.1996 -1.4964 -0.0096 -6.4398 0.3126 -10.2453c-0.8365 0.5535 -1.845 0.7323 -1.845 0.7323c-0.595 -0.354 -1.042 -1.056 -1.042 -1.056c-2.7306 2.997 -4.2433 5.9815 -4.4343 8.8658c0 0 -1.34 -0.0887 -1.0956 -2.0063c0.3662 -2.8724 3.7405 -6.6582 5.0248 -7.73c-1.469 0.255 -2.1607 0.085 -2.1607 0.085c0 0 -0.1133 -0.4148 -0.1062 -1.0058c-3.408 1.2558 -5.9614 3.7663 -6.9527 5.3834c0 0 -0.691 -0.405 -0.472 -1.4653c0.327 -1.5855 4.7803 -4.0573 7.0468 -4.754c-0.8026 -0.085 -1.2872 -0.4925 -1.2872 -0.4925c-2.2456 0.9944 -4.724 2.0912 -6.6964 2.0912c-0.7168 0 -1.339 -0.132 -1.8902 -0.4026c0.165 1.0543 0.793 2.132 1.663 2.5294c-3.047 2.1442 -1.1655 7.169 -5.252 6.2245c2.2788 4.231 6.888 4.656 6.888 4.656c-1.021 -2.2382 0.252 -9.0667 6.3695 -12.1695c-3.7657 3.7545 -5.4814 8.3066 -4.4822 11.5178c0.9167 2.9477 3.8966 4.1422 6.1403 4.1934c-1.5866 -4.8734 -0.6087 -10.455 2.684 -13.9686c-1.411 3.8535 -3.395 14.1386 2.3335 16.1116c5.728 -1.973 3.7425 -12.258 2.331 -16.1116c3.2933 3.5135 4.2707 9.0952 2.6842 13.9686c2.2436 -0.0512 5.2236 -1.2457 6.1405 -4.1934c0.999 -3.2112 -0.7168 -7.7633 -4.4822 -11.5178c6.1177 3.1028 7.3903 9.9313 6.369 12.1695c0 0 4.6097 -0.425 6.8884 -4.656c-4.0868 0.9444 -2.205 -4.0803 -5.2524 -6.2245l0 0zm-14.1923 -84.7697c0 -0.302 -0.2385 -0.548 -0.5308 -0.548c-0.293 0 -0.5308 0.246 -0.5308 0.548c0 0.3028 0.2377 0.549 0.5308 0.549c0.2923 0 0.5308 -0.2462 0.5308 -0.549l0 0zm2.678 0c0 -0.302 -0.2375 -0.548 -0.5308 -0.548c-0.2925 0 -0.5303 0.246 -0.5303 0.548c0 0.3028 0.2378 0.549 0.5303 0.549c0.2933 0 0.5308 -0.2462 0.5308 -0.549l0 0zm-4.1608 -14.2265c0 0.5655 0.4456 1.0272 0.9933 1.0272c0.5486 0 0.994 -0.4617 0.994 -1.0272c0 -0.5663 -0.4454 -1.0276 -0.994 -1.0276c-0.5477 0 -0.9933 0.4612 -0.9933 1.0275l0 0zm0.3197 -2.1826l1.3526 0l-0.1462 -1.6374l1.4693 0.1568l0 -1.2952l-1.4694 0.1563l0.1462 -1.6365l-1.3526 0l0.1456 1.6365l-1.469 -0.1563l0 1.2952l1.469 -0.1568l-0.1456 1.6373l0 0zm-1.515 16.409c0 -0.302 -0.2385 -0.548 -0.5312 -0.548c-0.2926 0 -0.5308 0.246 -0.5308 0.548c0 0.3028 0.2382 0.549 0.5308 0.549c0.2927 0 0.5312 -0.2462 0.5312 -0.549l0 0zm-3.188 2.032c0.1437 0.0518 0.3096 0.08 0.506 0.08l9.747 0c0.1965 0 0.3624 -0.0282 0.5055 -0.08c0.3147 -0.113 0.506 -0.3498 0.5803 -0.7282l-11.919 0c0.074 0.3784 0.2654 0.615 0.5802 0.7283l0 0zm0.536 -2.032c0 -0.302 -0.238 -0.548 -0.531 -0.548c-0.2927 0 -0.5312 0.246 -0.5312 0.548c0 0.3028 0.2385 0.549 0.531 0.549c0.293 0 0.531 -0.2462 0.531 -0.549l0 0zm10.6605 0c0 -0.302 -0.2385 -0.548 -0.5303 -0.548c-0.293 0 -0.5313 0.246 -0.5313 0.548c0 0.3028 0.2383 0.549 0.5314 0.549c0.2918 0 0.5303 -0.2462 0.5303 -0.549l0 0zm0.637 -1.3c0.2748 -0.3418 1.641 -2.9892 1.641 -5.6618c0 -2.4054 -3.0164 -3.7295 -4.811 -3.79c-0.2077 3.436 -1.543 8.8296 -3.2836 8.8296c-1.6473 0 -3.0788 -5.3625 -3.284 -8.8297c-1.7943 0.0607 -4.8106 1.3848 -4.8106 3.7902c0 2.6726 1.3656 5.32 1.6406 5.6617l12.9078 0l0 0zm-6.4536 -2.3287c0.8196 0 1.879 -3.4218 2.1496 -6.6605c0 -0.6557 -0.82 -1.6587 -2.1495 -1.6848c-1.33 0.026 -2.15 1.029 -2.15 1.6848c0.2376 3.0202 1.3428 6.6605 2.15 6.6605l0 0zm-26.0577 17.467c-1.5906 2.192 0.609 4.591 0.7447 4.7567c0.0956 0.117 0.1776 0.0642 0.163 -0.067c-0.0115 -0.1126 1.1447 -3.4927 7.801 -1.7127c0.1423 0.038 0.2296 0.041 0.0962 -0.0973c-1.2296 -0.9767 -2.6885 -3.166 -3.16 -4.927c0 0 -4.054 -0.1447 -5.645 2.0473l0 0zm3.5683 -0.4585c0 -0.6123 0.889 -0.7812 1.4 -0.7812c0 0 0.2243 0.5913 0.4494 0.9186c-0.5186 -0.2324 -1.239 -0.256 -1.8494 -0.1374l0 0zm3.5333 -2.8603c-0.4428 0 -0.6082 0.2824 -0.4636 0.7714c1.5294 5.1658 5.6988 6.391 7.345 8.6283c0 0 -0.0117 -0.697 0.752 -2.3602c0.5196 0.8554 1.9275 2.4573 2.8424 2.6612c-0.2187 -0.4608 -0.4788 -2.2797 -0.276 -3.502c2.1606 1.8942 4.8242 2.2665 6.2536 1.1736c-1.217 0.0467 -2.8018 -1.3107 -3.5995 -2.5148c1.1137 0.258 2.647 -0.008 2.963 -0.3286c-0.7035 -0.172 -1.5567 -0.7974 -2.0705 -1.3917c0.7903 -0.055 2.505 -0.704 2.9952 -1.619c-0.6876 0.1565 -1.707 -0.125 -2.3708 -0.4768c0.5056 -0.274 1.7673 -1.6293 2.07 -2.8187c-1.7918 0.8805 -4.619 1.7565 -8.807 1.7565c0 0 -7.4004 0.0207 -7.634 0.0207l0 0zm4.6232 2.355c-1.184 0.47 -1.7773 1.1047 -1.7773 1.1047c0 0 -0.5682 -0.9346 -0.7496 -1.235c-0.1814 -0.3002 -0.2382 -0.6682 0.3738 -0.6682l3.6705 0c0 0.2508 -0.3336 0.3283 -1.5175 0.7984l0 0zm-12.5302 8.4055c0.383 0.5092 1.467 2.0644 3.845 0.674c2.3775 -1.3906 3.6037 -2.1476 3.6037 -2.1476c0 0 -0.3714 0.7176 -0.0895 1.578c0.0164 0.0494 0.0723 0.0472 0.0938 -0.004c0.2368 -0.5568 2.3018 -2.168 4.935 -2.391c-0.9653 -0.8455 -2.0245 -1.599 -2.0245 -1.599c-1.125 0.182 -3.3058 0.9528 -6.1266 2.7883c-2.8212 1.8356 -4.1208 1.069 -4.1748 1.0346c-0.0538 -0.0346 -0.1302 -0.0237 -0.0622 0.0667l0 0zm33.6953 58.606c0.4062 -0.1298 0.7462 -0.3375 0.921 -0.5704c-1.822 -0.079 -3.326 -1.655 -3.8768 -2.6274c-0.6052 1.0033 -1.6857 1.787 -1.6857 1.787c-0.7693 -0.2033 -1.8207 -1.043 -2.191 -1.6852c-0.37 0.6423 -1.4215 1.482 -2.191 1.6853c0 0 -1.0804 -0.7838 -1.6858 -1.787c-0.5505 0.9724 -2.0546 2.5483 -3.8768 2.6273c0.175 0.233 0.515 0.4406 0.9212 0.5704c0.272 0.0874 0.573 0.1412 0.876 0.1412c0.321 0 0.6433 -0.0584 0.9323 -0.194c-0.182 0.6625 -0.2425 1.4804 -0.1093 2.0412c0 0 0.969 0.0765 1.9693 -0.302c0.072 0.6056 0.348 1.339 0.8008 1.835c0.089 0.097 0.182 0.1883 0.2844 0.264c0.5373 0 1.8345 -0.627 2.079 -1.0135c0.2442 0.3863 1.5415 1.0135 2.079 1.0135c0.102 -0.0758 0.1952 -0.1672 0.2843 -0.2642c0.4526 -0.4958 0.7287 -1.2293 0.8005 -1.835c0.45 0.2263 0.9727 0.3167 1.5512 0.3167a6.2216 6.2216 0 0 0 0.418 -0.0146c0.1336 -0.5608 0.073 -1.3787 -0.1092 -2.0412c0.2892 0.1356 0.6115 0.194 0.9322 0.194c0.3037 0 0.6043 -0.0538 0.8763 -0.1412l0 0zm-18.185 -38.919c-0.357 0 -0.578 0.2283 -0.578 0.5958l0 22.3137c0 2.1275 0.837 3.207 2.4876 3.207l4.1302 0.016c2.83 0 4.4995 0.9757 5.3127 2.185c0.6915 -1.1277 2.6348 -2.185 5.3128 -2.185l4.129 -0.016c1.651 0 2.488 -1.0795 2.488 -3.207l0 -22.3137c0 -0.3675 -0.2215 -0.5958 -0.5775 -0.5958l-22.705 0l0 0zm4.034 20.8764c-0.0396 0.4938 0.5333 1.392 1.479 1.111c-0.0285 0.1822 0.0246 0.6806 0.236 1.0544c-1.6754 0.3802 -2.398 -1 -1.715 -2.1654l0 0l0 0zm15.1895 -7.3867a39.261 39.261 0 0 1 -0.6823 -0.744c-0.239 -0.266 -0.4095 -0.3694 -0.6533 -0.3694c-0.5483 0 -1.135 0.3008 -1.4487 0.509c-0.0208 0.0085 -0.0366 0.0287 -0.0444 0.083c0.3334 -0.0298 0.6678 -0.0543 1.0002 -0.092c0.2918 -0.0337 0.5643 -0.022 0.8157 0.1656c0.198 0.147 0.3097 0.329 0.3204 0.5667c0.0317 0.7595 0.637 2.358 0.6746 2.8378c0.0472 0.1887 -0.1794 0.2437 -0.4932 1.126c-0.2317 0.2594 -0.858 -0.564 -0.7673 -0.7567c0.365 -0.4767 0.4656 -0.7737 0.373 -1.1288c-0.074 -0.2855 -0.213 -0.7954 -0.316 -1.0718c-0.1376 -0.3688 -0.4474 -0.507 -0.8323 -0.3748c-1.5102 0.502 -1.743 -0.167 -3.2398 0.4622l1.7238 2.672c-0.0063 -0.1936 -0.099 -0.5432 -0.3778 -0.7945c0.0502 -0.2697 0.594 -0.3813 0.7972 -0.1287c0.2494 0.3203 0.7358 0.777 1.1362 0.8502c0.7692 0.1425 0.711 1.3122 2.7665 1.7037c-0.2555 0.2652 -0.8256 0.1753 -1.074 0.0553c0.15 0.232 0.3225 0.451 0.6323 0.5302c-0.3187 0.3203 -1.233 -0.4304 -1.1395 0.325c0.1582 -0.0916 0.3772 -0.1065 0.5624 -0.0598c0.4102 0.1025 1.083 2.438 -0.3342 3.4586c0.3017 0.0907 0.6262 -0.069 0.9322 -0.069c0.1794 0 0.347 0.1743 0.3648 0.3688c0.1322 0.1016 0.219 0.2263 0.296 0.3862c-0.1067 0.0354 -0.3127 0.0026 -0.427 -0.0735c0.046 0.1295 0.035 0.441 -0.013 0.447c-0.1282 0.0174 -0.227 -0.0564 -0.358 -0.1347c-0.1825 0.0937 -0.782 0.0553 -0.9518 -0.0967c-0.4526 0.1104 -0.8994 0.2584 -1.371 0.2584c-0.2546 0 -0.59 -0.0164 -0.578 -0.328c0.0058 -0.152 0.081 -0.2302 0.14 -0.3964c-0.217 -0.2236 -0.5787 -0.007 -1.01 0.0346c-0.5846 0.0563 -0.8257 -0.0346 -0.9525 -0.154c0.552 -0.512 0.2188 -1.7596 -0.6337 -1.87c0.7013 0.6734 0.6097 1.7628 -0.1753 2.0075c0.2268 0.0736 0.3392 0.176 0.426 0.3378c0.276 0.115 0.28 0.3154 0.2593 0.405c-0.151 -0.1072 -0.423 -0.2133 -0.64 -0.1845c-0.0156 0.095 -0.0552 0.2728 -0.137 0.3415c-0.0937 -0.0205 -0.216 -0.1066 -0.2635 -0.175c-0.2507 -0.1928 -1.8126 0.175 -1.9075 -0.0824c-0.06 -0.239 0.357 -0.4402 0.7417 -0.525c-0.9893 -0.364 -1.8476 -2.2312 -3.3707 -2.5474c-0.7064 -0.1462 -1.6634 0.172 -1.6634 1.0932c0 0.4526 0.363 0.801 0.7555 0.801c0.3613 0 0.542 -0.2504 0.542 -0.504c-0.0582 0.0442 -0.0942 0.0715 -0.1297 0.1006c-0.221 0.1818 -0.5026 0.1702 -0.7064 -0.029c-0.1794 -0.1754 -0.1794 -0.48 -0.0053 -0.686c0.1432 -0.1714 0.3152 -0.268 0.545 -0.302c0.5963 -0.087 1.084 0.1036 1.4125 0.5835c0.1566 0.229 0.243 0.4738 0.243 0.711c0 1.0613 -1.0602 1.3023 -1.647 1.3023c-1.4772 0 -2.3477 -1.0604 -2.3477 -2.2872c0 -0.143 0.007 -0.288 0.0314 -0.434c0.2312 -1.3807 1.461 -1.958 2.525 -2.1307c-0.1357 -0.4806 -0.3978 -0.869 -0.774 -1.186c-0.1873 -0.1577 -0.2063 -0.2865 -0.0883 -0.4876c0.1607 -0.275 0.3295 -0.5456 0.4005 -0.8555c0.0162 -0.0695 0.0236 -0.143 0.0287 -0.2185c-0.5298 0.476 -1.2704 0.9123 -2.2952 1.2238c-0.3232 0.1498 -0.4942 0.445 -0.5353 0.7845c-0.0467 0.394 -0.0576 0.7937 -0.0647 1.1912c-0.0018 0.0917 0.0644 0.1915 0.1147 0.2794c0.1907 0.328 0.4013 0.6474 0.4483 1.0566c0 0.1982 -0.995 0.2187 -0.995 0.0598c-0.0093 -0.7196 -0.4885 -0.9992 -0.437 -1.4743c0.1324 -0.739 0.162 -1.4782 0.0413 -2.221c-0.0304 -0.187 0.0688 -0.31 0.2017 -0.4095c0.2114 -0.1616 0.436 -0.306 0.647 -0.4663c0.498 -0.3815 0.704 -0.8786 0.587 -1.495c-0.015 -0.0802 -0.0504 -0.1575 -0.085 -0.233c-0.248 -0.5484 -0.429 -1.1038 -0.429 -1.7222c0 -0.6782 -0.8384 -0.6395 -0.7836 0.027c0.0172 0.2082 0.1722 0.4994 0.2593 0.6995c0.8596 1.9826 -0.686 3.4104 -2.2848 3.4094c1.6806 -0.5832 -0.3928 -2.7398 -0.3928 -4.3488c0 -0.9867 0.7606 -1.7162 1.6682 -1.7162c1.0468 0 1.7105 0.6762 1.9006 0.7924c0.5064 -0.805 2.057 -0.9502 2.6392 -1.043c-0.0444 -0.4334 0.0165 -0.8186 0.2816 -1.1512c0.0173 -0.0225 0.0282 -0.0642 0.0188 -0.0882c-0.0827 -0.205 -0.1708 -0.4074 -0.285 -0.6057c-0.4774 0.54 -0.592 1.2562 -0.592 1.6265c-1.7678 -0.026 -2.5475 -0.802 -3.07 -1.1076c0.002 -0.135 0.4723 -0.9834 0.8894 -1.5434c-0.4572 0.3928 -0.833 0.835 -1.109 1.3653c-0.2527 -0.183 -0.5184 -0.3485 -0.7782 -0.4568c0.3984 -0.8553 0.9264 -1.521 1.5992 -2.2167c-0.9474 0.3503 -1.772 1.424 -2.0845 2.0985c-0.2703 -0.031 -0.6696 -0.0415 -0.8926 0.002c1.0325 -1.2655 1.5044 -3.7588 3.7745 -4.318c-0.5686 2.3122 0.8454 3.2518 1.819 2.6484c-0.1267 0 -0.2135 0.0202 -0.2952 0c-1.8983 -0.4827 -0.7733 -3.1175 -1.233 -3.666c-0.1746 -0.208 -0.2647 -0.3987 -0.2363 -0.662c0.0102 -0.0926 -0.0172 -0.2 -0.0596 -0.2853l-1.0096 -1.6892c-0.127 -0.2127 0.266 -0.364 0.3507 -0.2662l1.0296 1.6893c0.0267 0.0423 0.0595 0.1042 0.0978 0.1113c0.3765 0.0664 0.493 0.379 0.6452 0.6557c0.0482 0.0892 0.0862 0.1917 0.095 0.2925c0.0072 0.077 -0.0138 0.1846 -0.065 0.237c-0.1637 0.166 -0.132 0.3293 -0.0054 0.5447c0.2032 0.3453 6.3024 10.5165 6.3024 10.5165c-1.3247 0.543 -3.721 0.587 -4.4152 0.5196c-0.144 0.353 -0.3692 0.7255 -0.702 1.0844c0.3323 -0.2167 0.5893 -0.4916 0.8268 -0.7904c0.268 0.031 0.6698 0.1385 1.0806 0.1685c-0.243 0.5203 -0.608 1.038 -1.0766 1.4716c-0.2204 0.2175 -0.4934 0.41 -0.393 0.7583c0.1132 0.392 0.8414 1.139 1.107 1.6236c0.2636 0.0558 0.7087 0.1498 1.035 0.2804c0.1862 0.4006 0.816 0.9037 1.575 0.6433c-1.526 -0.0192 -1.4134 -1.5847 -0.9392 -2.4127c-0.0513 0.769 0.3196 1.4074 0.7893 1.4802c-0.7043 -0.6436 -0.6338 -2.1054 0.0522 -2.9073c0.0976 1.302 0.492 1.9863 1.0562 2.141c-0.7457 -0.687 -1.1933 -2.2764 -0.0672 -3.4345c0.087 2.972 2.805 2.436 3.052 5.8764c1.0067 0 1.064 -1.3573 0.5028 -1.6068c-0.3275 -0.1228 -0.6234 -0.3388 -0.791 -0.6328c-0.0698 -0.1237 -0.1422 -0.3443 -0.1992 -0.474c-0.2992 -0.884 -1.144 -0.828 -1.1235 -1.04c0.02 -0.0717 0.153 -0.1046 0.3396 -0.1046l-1.592 -2.4624l-0.083 -0.1286c0.192 -0.039 0.2346 -0.1508 0.0374 -0.4622c0 0 -5.974 -9.946 -6.0025 -10.003c0.5554 -0.0965 1.089 0.0543 1.6086 0.2556c-0.1387 -0.1288 -0.2518 -0.3087 -0.276 -0.4943c-0.02 -0.1492 -0.0144 -0.2363 0.1056 -0.331c0.127 -0.1038 0.249 -0.2236 0.338 -0.359c0.2966 -0.4516 0.8416 -0.6723 1.3368 -0.531c0.7472 0.2125 1.0116 1.0585 0.4623 1.5033c-0.2923 0.6453 -0.6548 0.564 -0.7294 0.8532c0.1466 0.068 1.1686 0.8583 1.2368 1.191c-0.3046 0.6347 -0.456 1.627 -0.1917 2.1808c0.1974 -2.6385 1.7844 -3.929 3.33 -3.929c0.367 0 0.7318 0.064 1.0977 0.1887c0.2002 0.0677 0.4004 0.1652 0.567 0.292a5.095 5.095 0 0 1 0.671 0.6165c0.3016 0.3317 0.578 0.686 1.091 0.709c-0.15 0.214 -0.3208 0.3706 -0.4956 0.5244c-0.126 0.113 -0.1893 0.2487 -0.2048 0.419c-0.0357 0.3665 -0.156 0.7022 -0.4252 0.972a0.3604 0.3604 0 0 0 -0.082 0.1287c-0.1715 0.4984 -0.3453 0.9947 -0.5066 1.496c-0.04 0.122 -0.031 0.2903 -0.1956 0.2883c-0.143 -0.002 -0.3157 -0.0437 -0.4222 -0.1308c-0.2266 -0.1836 -0.3078 -0.451 -0.2266 -0.7333c0.0807 -0.2807 0 -0.5217 -0.0888 -0.7828c-0.091 -0.2612 -0.1226 -0.5436 -0.1837 -0.8417c-0.422 -0.148 -1.2142 0.7596 -0.6095 1.52c0.3927 0.561 0.7456 1.5934 0.8068 2.016c0.0127 0.0417 -0.3573 0.275 -0.867 0.21c-1.723 -0.2206 -2.8127 -1.418 -3.1438 -2.4282c-0.027 1.7113 1.392 2.9798 3.495 2.857c0.0857 0.3986 0.411 0.6694 0.79 0.682c0.0787 -0.2574 0.077 -0.7974 0.0127 -1.1407c-0.0286 -0.151 0.0505 -0.2283 0.1903 -0.2642c0.4598 -0.117 1.0583 -0.0715 1.5703 -0.2544c0.454 -0.1634 0.6688 -0.0677 0.951 0.482c0.214 0.4147 0.5797 0.861 0.925 1.1687c0.145 0.1286 0.29 0.2592 0.427 0.3966c0.1746 0.175 0.2654 0.381 0.279 0.6355c-0.045 0.3988 0.008 1.2015 0.008 1.2142c-0.0997 0.2632 -0.8266 -0.0154 -0.944 -0.298c-0.0443 -0.1054 0.311 -0.8455 -0.062 -1.2423l0 0zm12.5416 -42.6657c-0.4714 1.761 -1.9303 3.9503 -3.1598 4.927c-0.1335 0.1382 -0.0462 0.1354 0.0962 0.0973c6.656 -1.78 7.8125 1.6 7.8006 1.7128c-0.0142 0.1312 0.0677 0.184 0.163 0.067c0.136 -0.1657 2.3356 -2.5648 0.745 -4.7567c-1.591 -2.192 -5.645 -2.0473 -5.645 -2.0473l0 0zm0.2274 1.7262c0.2248 -0.3273 0.4496 -0.9186 0.4496 -0.9186c0.5107 0 1.3995 0.169 1.3995 0.7812c-0.6106 -0.1187 -1.3306 -0.095 -1.8492 0.1374l0 0zm6.223 7.7628c0.068 -0.0904 -0.0087 -0.1013 -0.0625 -0.0667c-0.0538 0.0344 -1.3536 0.801 -4.1744 -1.0346c-2.8212 -1.8355 -5.0017 -2.6064 -6.1267 -2.7883c0 0 -1.0593 0.7535 -2.025 1.599c2.6334 0.223 4.6987 1.8342 4.9354 2.391c0.0218 0.0512 0.0772 0.0534 0.0936 0.004c0.2822 -0.8604 -0.0895 -1.578 -0.0895 -1.578c0 0 1.2262 0.757 3.6038 2.1475c2.378 1.3904 3.462 -0.1648 3.8452 -0.674l0 0zm-22.278 -9.719c-0.6637 0.3518 -1.683 0.6332 -2.3707 0.4768c0.4903 0.915 2.205 1.564 2.995 1.619c-0.5135 0.5942 -1.367 1.2196 -2.0704 1.3916c0.3162 0.3206 1.8492 0.5865 2.9632 0.3286c-0.798 1.204 -2.3826 2.5615 -3.5997 2.5148c1.4298 1.093 4.0936 0.7206 6.254 -1.1735c0.2025 1.2222 -0.0573 3.041 -0.2763 3.502c0.915 -0.204 2.323 -1.806 2.8427 -2.6612c0.7634 1.6632 0.752 2.3603 0.752 2.3603c1.6464 -2.2374 5.8155 -3.4625 7.345 -8.6284c0.1446 -0.489 -0.021 -0.7715 -0.4636 -0.7715c-0.2337 0 -7.6337 -0.0207 -7.6337 -0.0207c-4.1885 0 -7.0157 -0.876 -8.8075 -1.7565c0.3027 1.1894 1.5644 2.5448 2.0704 2.8186l0 0zm11.9008 0.515c0.6117 0 0.555 0.368 0.3737 0.6683c-0.1814 0.3003 -0.7497 1.235 -0.7497 1.235c0 0 -0.5932 -0.6348 -1.777 -1.105c-1.184 -0.47 -1.5176 -0.5475 -1.5176 -0.7983l3.6706 0l0 0zm-27.386 7.7375c-0.2385 0.676 -0.3088 1.4216 -0.182 2.3915c0.7696 1.672 1.1418 4.7764 0.9043 6.512c1.226 -1.7106 1.7704 -3.6343 2.1212 -5.1735c0.703 0.7193 1.6152 1.749 2.2516 2.5832c0.1093 -0.9035 0.3032 -2.0192 0.473 -2.825c0.9158 0.8747 2.8162 1.973 4.1013 2.3625c-0.865 -3.6504 -2.3453 -5.9773 -2.3453 -5.9773c-1.2562 0.1265 -3.2796 -0.1796 -4.1892 -1.0746c0.1624 1.3226 1.0722 2.8432 1.0722 2.8432c-1.9493 0.1902 -3.33 -0.4752 -4.207 -1.642l0 0zm21.8003 0c-0.877 1.167 -2.2577 1.8323 -4.207 1.642c0 0 0.9096 -1.5205 1.072 -2.843c-0.9096 0.895 -2.9325 1.201 -4.189 1.0744c0 0 -1.48 2.3268 -2.3456 5.9772c1.2856 -0.3895 3.1857 -1.4878 4.1014 -2.3625c0.17 0.8058 0.3636 1.9215 0.473 2.825c0.6365 -0.834 1.5484 -1.864 2.252 -2.5832c0.3506 1.5392 0.895 3.463 2.121 5.1735c-0.2377 -1.7356 0.1348 -4.84 0.904 -6.512c0.127 -0.97 0.0566 -1.7156 -0.182 -2.3915l0 0zm-16.767 11.501c0.7356 1.1827 1.3902 2.605 1.617 3.8717c0.7052 -0.8534 1.45 -2.337 1.9547 -4.109c0.6188 0.7736 1.6997 2.3493 2.2952 3.649c0.595 -1.2997 1.6762 -2.8754 2.2948 -3.649c0.505 1.772 1.2498 3.2556 1.955 4.109c0.2267 -1.2667 0.8813 -2.689 1.6168 -3.8716c0.5595 2.3018 2.7176 4.5408 4.9445 4.7092c-1.4486 -1.8812 -1.5085 -5.1328 -1.406 -6.2157c-0.9646 -1.5002 -1.6 -2.8536 -1.904 -3.7733c-0.6542 0.647 -1.6663 1.9045 -2.5744 3.358c0 -0.0177 -0.026 -1.8225 -0.3882 -4.014c-0.9362 0.8462 -2.6316 1.4588 -3.5378 1.6967c-0.572 0.9328 -0.7287 1.6605 -1.0007 2.8313c-0.272 -1.1708 -0.4292 -1.8985 -1.0008 -2.8313c-0.9065 -0.238 -2.6016 -0.8505 -3.538 -1.6966c-0.362 2.1914 -0.3883 3.9962 -0.3883 4.0138c-0.9084 -1.4534 -1.92 -2.711 -2.5746 -3.358c-0.3037 0.9198 -0.939 2.2732 -1.904 3.7735c0.103 1.083 0.0427 4.3346 -1.406 6.2158c2.2274 -0.1684 4.3853 -2.4074 4.9445 -4.7092l0 0zm-20.1788 27.2222c1.25 -0.8156 2.041 -2.2975 2.9414 -4.11c-0.5242 0.217 -1.2838 0.452 -2.045 0.61c-0.7426 1.4367 -1.7943 0.8794 -1.8217 0.6756c0.2273 -0.252 0.4868 -0.6244 0.682 -0.9485c-0.3165 -0.5923 -0.6978 -1.4746 -0.908 -2.0202c-1.0625 2.2372 -3.014 4.5097 -4.6483 5.3963c0.9616 1.337 3.9418 1.609 5.7995 0.3967l0 0zm3.8632 -3.7706c-0.8865 1.8713 -0.678 4.755 2.1444 4.8367c-0.2342 -2.042 0.6856 -3.963 1.6687 -4.8366c-0.8456 0.2085 -2.2223 1.318 -2.2223 1.318c0 0 -0.2073 0.4755 -0.249 1.0908c-0.5908 0.1056 -0.9173 -0.3496 -0.672 -1.299c0 0 -0.427 -0.4883 -0.6698 -1.1097l0 0zm-13.9714 2.1368a5.172 5.172 0 0 0 1.2344 -0.151c2.7254 -0.6735 5.3207 -3.0044 6.8634 -4.9614c-0.8812 0.279 -1.7713 0.4602 -2.758 0.5602c0 0 -0.691 0.8085 -1.223 1.1074c-0.2696 0.1528 -0.539 0.2258 -0.7943 0.2258c-0.771 0 -1.0984 -0.6325 -1.0984 -0.6325c0 0 1.2436 -0.596 2.035 -1.4428c-0.1568 -0.624 -0.2565 -1.4885 -0.2746 -2.3503c-2.146 2.156 -6.1796 4.2508 -8.997 4.6574c0.5576 1.161 2.536 2.9872 5.0126 2.9872l0 0zm-5.4565 -4.5732a4.4626 4.4626 0 0 0 0.4235 -0.0204c2.801 -0.277 6.1816 -2.0712 8.3585 -3.624c-0.693 0.1408 -2.515 0.1815 -3.3795 0.061c-0.299 0.2003 -1.6172 1.0336 -2.714 1.1727c-2.0006 0.2535 -2.2122 -0.9844 -2.2122 -0.9844c1.2853 -0.157 2.767 -0.591 4.1833 -1.2506c0.1422 -1.0666 0.389 -2.0174 0.6 -2.7183c-3.088 1.72 -8.1258 2.9298 -11.1143 2.9697c0.598 1.4203 2.9165 4.3942 5.8548 4.3942l0 0zm0.4405 -10.0903c0.4305 -0.7616 1.1118 -1.6618 1.732 -2.396c-2.4653 0.679 -5.639 0.821 -7.3215 0.821c-1.9836 0 -3.911 -0.14 -5.0168 -0.362c0.0982 1.993 1.9937 5.431 5.7336 5.7664c0.195 0.018 0.4108 0.0266 0.6416 0.0266c2.3332 0 6.0438 -0.9442 8.5972 -1.8502c-1.8206 -0.2343 -3.579 -0.6665 -3.98 -0.8347c-0.9495 0.2725 -3.2177 0.653 -3.9543 0.6122c-1.672 -0.0917 -1.851 -1.3756 -1.851 -1.3756c0 0 3.009 0.1272 5.419 -0.4077l0 0zm-8.9777 -3.652c1.3894 0.449 3.6052 0.7065 6.0797 0.7065c1.5096 0 3.1022 -0.135 4.3975 -0.3192c-1.399 -0.4764 -3.1254 -1.1965 -4.2473 -1.91c-1.4023 -0.028 -3.3057 -0.0678 -4.528 -0.442c-1.7975 -0.5503 -1.772 -1.78 -1.74 -2.056c1.554 0.625 4.1976 1.2228 6.1515 1.3393c0.7203 -0.694 1.833 -1.521 3.007 -2.241c-4.6366 0.0406 -10.5557 -1.796 -13.8814 -3.557c-0.7604 6.1884 3.4414 8.0522 4.761 8.4793l0 0zm10.1922 -12.832c-0.7155 -1.373 -1.4132 -3.22 -1.5053 -4.812c-2.1685 -1.7042 -4.6438 -3.8727 -6.076 -6.3513c-0.8277 -1.4327 -0.5222 -2.6883 0.064 -3.1205c0.447 1.5565 3.359 5.915 5.9986 8.1005c0.0208 -1.3968 0.2557 -3.0033 0.6198 -4.2116c-3.069 -3.3405 -6.509 -8.8735 -7.34 -11.0412c-0.934 0.7737 -2.544 2.72 -2.9397 5.4625c-0.3985 2.7605 0.4964 5.5963 2.6596 8.429c1.6637 2.179 5.326 5.4277 8.519 7.5447l0 0zm-0.882 7.0205c-2.1098 -1.3993 -3.5723 -2.6976 -4.3517 -3.8636c-1.763 -0.6858 -4.0425 -1.7327 -5.1655 -2.6762c-1.543 -1.295 -1.0545 -2.4607 -0.8746 -2.6936c1.3585 1.3875 4.3006 3.3873 6.3902 4.277c1.3046 -0.5086 3.1174 -0.8812 4.8835 -1.0986c-5.2342 -2.0685 -10.8528 -5.9515 -13.789 -9.612c-0.5954 1.1563 -3.014 6.5958 1.5204 11.0563c2.388 2.3496 7.307 3.9707 11.3864 4.6108l0 0zm68.0344 19.9678c-0.2104 0.5456 -0.5918 1.428 -0.9084 2.0202c0.195 0.324 0.455 0.6964 0.6822 0.9485c-0.0276 0.2038 -1.079 0.761 -1.8214 -0.6757c-0.7614 -0.1578 -1.521 -0.393 -2.0453 -0.61c0.9006 1.8126 1.6912 3.2945 2.9415 4.11c1.8578 1.2123 4.838 0.9403 5.7993 -0.3967c-1.6342 -0.8867 -3.5858 -3.1592 -4.648 -5.3964l0 0zm-5.0146 2.0225c-0.2428 0.6215 -0.6698 1.1097 -0.6698 1.1097c0.2453 0.9495 -0.0812 1.4047 -0.6724 1.299c-0.0414 -0.6152 -0.249 -1.0908 -0.249 -1.0908c0 0 -1.3766 -1.1095 -2.2222 -1.318c0.983 0.8736 1.903 2.7947 1.669 4.8367c2.8223 -0.0816 3.031 -2.9654 2.1444 -4.8366l0 0zm9.7126 -3.1575c0.791 0.8467 2.0344 1.4428 2.0344 1.4428c0 0 -0.3273 0.6325 -1.098 0.6325c-0.2556 0 -0.5248 -0.073 -0.7948 -0.2258c-0.5318 -0.299 -1.2227 -1.1074 -1.2227 -1.1074c-0.9868 -0.1 -1.877 -0.281 -2.7583 -0.5602c1.543 1.957 4.1382 4.288 6.8634 4.9613a5.174 5.174 0 0 0 1.2347 0.151c2.4763 0 4.455 -1.8262 5.0125 -2.987c-2.8173 -0.4067 -6.851 -2.5014 -8.997 -4.6575c-0.0182 0.8618 -0.118 1.7262 -0.2742 2.3503l0 0zm5.0554 -3.9245c1.4165 0.6596 2.8983 1.0935 4.184 1.2506c0 0 -0.212 1.238 -2.2128 0.9843c-1.0966 -0.1392 -2.4152 -0.9725 -2.7138 -1.1728c-0.8645 0.1205 -2.687 0.0798 -3.3796 -0.061c2.177 1.5528 5.5575 3.347 8.3583 3.624a4.472 4.472 0 0 0 0.4237 0.0204c2.9384 0 5.2566 -2.974 5.8546 -4.3942c-2.9885 -0.04 -8.026 -1.2498 -11.114 -2.9697c0.211 0.701 0.4575 1.6517 0.5996 2.7183l0 0zm2.487 -7.8408c0.6203 0.7343 1.3016 1.6345 1.732 2.396c2.4102 0.535 5.419 0.4077 5.419 0.4077c0 0 -0.1788 1.2838 -1.8503 1.3755c-0.737 0.0407 -3.005 -0.3397 -3.9544 -0.6122c-0.4014 0.1682 -2.1594 0.6004 -3.98 0.8348c2.553 0.906 6.2643 1.8503 8.5972 1.8503c0.231 0 0.4466 -0.0086 0.6414 -0.0266c3.74 -0.3354 5.6357 -3.7734 5.7338 -5.7663c-1.1054 0.2218 -3.0334 0.362 -5.0168 0.362c-1.682 0 -4.8564 -0.142 -7.3218 -0.8212l0 0zm15.4713 -9.7352c-3.326 1.761 -9.245 3.5976 -13.8818 3.557c1.174 0.72 2.2867 1.547 3.007 2.241c1.9537 -0.1166 4.5974 -0.7144 6.1512 -1.3394c0.032 0.276 0.0576 1.5057 -1.7397 2.056c-1.2222 0.3742 -3.1256 0.414 -4.528 0.442c-1.122 0.7135 -2.8482 1.4336 -4.2475 1.91c1.2955 0.184 2.888 0.3192 4.3978 0.3192c2.4745 0 4.6902 -0.2574 6.0796 -0.7065c1.3194 -0.427 5.5217 -2.291 4.7613 -8.4793l0 0zm-7.436 -18.6365c0.5863 0.4322 0.8916 1.6878 0.064 3.1205c-1.4326 2.4786 -3.9074 4.647 -6.0762 6.3513c-0.092 1.592 -0.79 3.439 -1.5055 4.812c3.193 -2.117 6.8557 -5.3657 8.519 -7.5445c2.1633 -2.8328 3.0582 -5.6686 2.6596 -8.429c-0.3958 -2.7427 -2.0054 -4.689 -2.9398 -5.4626c-0.8307 2.1677 -4.271 7.7007 -7.34 11.0412c0.3642 1.2083 0.5994 2.8148 0.6202 4.2116c2.6392 -2.1856 5.5514 -6.544 5.9987 -8.1005l0 0zm-2.634 16.348c2.0898 -0.8898 5.032 -2.8896 6.39 -4.277c0.18 0.2328 0.6684 1.3985 -0.8745 2.6935c-1.123 0.9435 -3.4026 1.9904 -5.1652 2.6762c-0.7797 1.166 -2.242 2.4643 -4.3518 3.8636c4.0793 -0.64 8.9986 -2.2612 11.387 -4.6107c4.534 -4.4604 2.1152 -9.9 1.52 -11.0562c-2.936 3.6605 -8.5547 7.5435 -13.7892 9.612c1.7664 0.2174 3.5792 0.59 4.8836 1.0987l0 0zm-12.1965 -6.262c-1.7 3.9468 -6.0098 7.4656 -8.7977 9.2274c-1.272 0.8034 -0.8078 2.3272 -0.401 3.0034c3.798 6.3147 -3.1085 11.021 -9.3467 7.8914c1.3612 0.015 2.7354 -1.1427 2.9257 -2.1743c-0.4326 0.374 -2.204 0.1685 -2.7275 -0.3157c0.8035 -0.4208 0.9946 -0.8472 1.0362 -1.246c-0.9938 0.6105 -3.0026 0.6946 -3.5945 -0.3368c-3.296 -0.089 -5.4885 -2.6635 -5.731 -3.4064c-0.2443 0.7904 -0.639 2.1715 -0.7685 3.5345c-0.894 -0.6058 -2.4205 -1.9766 -3.2164 -3.8357c-0.9007 1.2875 -1.58 2.7378 -2.021 4.266c-0.441 -1.5282 -1.1198 -2.9785 -2.021 -4.266c-0.796 1.859 -2.3226 3.23 -3.2162 3.8358c-0.13 -1.363 -0.524 -2.744 -0.7685 -3.5344c-0.2425 0.743 -2.435 3.3175 -5.731 3.4064c-0.592 1.0314 -2.6006 0.9473 -3.5944 0.3367c0.0413 0.399 0.2326 0.8253 1.036 1.246c-0.5235 0.4843 -2.2947 0.69 -2.7276 0.3158c0.1903 1.0316 1.5647 2.1892 2.9257 2.1743c-6.2382 3.1295 -13.1448 -1.5767 -9.3466 -7.8914c0.407 -0.6762 0.871 -2.2 -0.4007 -3.0035c-2.788 -1.762 -7.098 -5.2807 -8.798 -9.2276c-0.202 1.6094 -0.048 5.6034 1.6788 8.0886c-1.2616 0.483 -2.8796 1.2665 -3.9673 1.9932c0.688 0.7827 2.2898 2.1346 3.366 2.8696c-0.8785 0.782 -2.2423 2.2794 -2.958 3.2597c0.9068 0.54 2.734 1.1955 4.1303 1.6377c-0.6455 1.0662 -1.638 2.9894 -1.8874 4.134c1.5634 0.2277 3.1595 0.2068 4.568 0.1623c-0.1797 1.3347 -0.0615 3.0106 0.0796 4.2316c1.451 -0.2088 3.0472 -0.7983 4.1062 -1.3565c0.201 0.921 0.7546 2.621 1.251 3.531c1.3765 -1.308 3.1922 -1.9066 4.873 -1.56c3.4415 0.7097 4.4645 4.195 4.4645 4.195l0.0053 -10.602l0 -1.1836c0 -0.661 0.3552 -1.0107 0.9925 -1.0105l23.88 0c0.6375 -0.0002 0.9924 0.3496 0.9924 1.0104l0 1.1835l0.0054 10.602c0 0 1.023 -3.4853 4.4644 -4.195c1.681 -0.3466 3.4968 0.252 4.8735 1.56c0.4965 -0.91 1.05 -2.61 1.2508 -3.531c1.0588 0.5582 2.6552 1.1477 4.1062 1.3566c0.141 -1.221 0.259 -2.8968 0.0797 -4.2315c1.3924 0.1445 2.994 0.1445 4.5677 -0.1624c-0.249 -1.1444 -1.2418 -3.0676 -1.8875 -4.1338c1.4523 -0.39 3.2235 -1.0977 4.1306 -1.6377c-0.7154 -0.9803 -2.0794 -2.4777 -2.9578 -3.2597c1.0758 -0.735 2.6775 -2.087 3.366 -2.8696c-1.088 -0.7267 -2.706 -1.5103 -3.9676 -1.9932c1.7266 -2.4852 1.881 -6.4792 1.6786 -8.0886l0 0zm-43.4013 -12.411l-0.142 0.372c4.1725 0 8.1835 -1.4294 9.2537 -6.407l-3.196 0c-0.5672 3.586 -2.6725 6.035 -5.9158 6.035l0 0zm-18.039 -8.0983c0 0 2.2823 0.5294 3.1754 3.745c0.8934 3.2156 3.138 4.7536 5.441 4.7536l-0.1418 -0.4382c-1.34 -0.167 -3.2293 -2.0778 -3.5827 -5.6166c-0.3564 -3.5627 -1.2292 -4.0217 -1.2292 -4.0217c-0.9017 -0.6244 -3.1684 1.0248 -3.663 1.578l0 0zm-6.676 1.4383c1.9037 -0.0624 3.1847 0.5438 5.5773 -1.6383c2.8244 -2.5772 4.1653 -2.1367 4.1653 -2.1367c-1.4414 -0.9388 -3.4514 -1.356 -4.1417 -0.8138c-0.6903 0.5426 -1.6247 1.9982 -3.195 3.0346c-2.213 1.4604 -4.486 1.075 -4.5877 2.4362l0.0616 0c0 0 0.2168 -0.819 2.12 -0.882l0 0zm1.756 8.5425c1.1572 1.1422 1.2635 3.4892 1.2635 3.4892c0 0 1.3858 -2.4877 0.2438 -5.1326c-1.1417 -2.6443 -3.4752 -4.6733 -1.1876 -6.2177c-1.3973 0.0118 -2.9115 -0.31 -3.5765 0.6385c-0.207 0.2953 -0.3988 1.0275 0.2977 2.0692c0.885 1.3238 3.0957 4.402 1.2842 6.4518c1.3244 -0.2447 1.6748 -1.2985 1.6748 -1.2985l0 0zm14.2926 -1.4963l7.8404 0c0 0 0.194 -0.4764 0.4412 -1.1647l-8.7224 0c0.2474 0.6883 0.4408 1.1647 0.4408 1.1647l0 0zm4.6917 -11.1465c0 -0.4286 -0.3384 -0.7767 -0.7555 -0.7767c-0.4174 0 -0.756 0.348 -0.756 0.7767c0 0.429 0.3386 0.7765 0.756 0.7765c0.417 0 0.7555 -0.3474 0.7555 -0.7765l0 0zm3.916 9.103c0.335 -1.0528 0.7127 -2.654 0.7127 -3.4266c0 -1.412 -0.759 -2.9752 -3.4988 -3.4564c0 1.7065 -0.8282 5.8876 -1.8294 5.8876l-0.1126 0c-1.0007 0 -1.829 -4.15 -1.829 -5.888c-2.749 0.4806 -3.5306 2.0443 -3.5306 3.4568c0 0.7727 0.378 2.3738 0.7135 3.4266l9.3743 0l0 0zm-4.6715 -2.1664c0.5216 0 0.9443 -2.73 0.9443 -4.0892c0 -0.7426 -0.4226 -1.2296 -0.9442 -1.2296c-0.522 0 -0.945 0.487 -0.945 1.2296c0 1.3592 0.423 4.0892 0.945 4.0892l0 0zm-0.5042 -8.7487l1.0078 0l-0.1258 -1.2944l1.2594 0.1296l0 -1.0356l-1.2594 0.1296l0.1258 -1.2946l-1.0078 0l0.126 1.2946l-1.2593 -0.1296l0 1.0356l1.2594 -0.1296l-0.126 1.2945l0 0zm20.8365 6.5374l-3.196 0c1.0705 4.9777 5.0813 6.407 9.2537 6.407l-0.1416 -0.372c-3.2432 0 -5.3488 -2.4488 -5.916 -6.035l0 0zm15.3385 6.4354c2.3028 0 4.5475 -1.538 5.441 -4.7537c0.893 -3.2154 3.1756 -3.7448 3.1756 -3.7448c-0.4946 -0.553 -2.761 -2.2023 -3.663 -1.578c0 0 -0.8726 0.459 -1.229 4.0218c-0.3533 3.5388 -2.2427 5.4496 -3.5826 5.6166l-0.142 0.4382l0 0zm9.7152 -8.6986c2.3924 2.182 3.6734 1.576 5.5773 1.6383c1.903 0.063 2.1198 0.882 2.1198 0.882l0.0617 0c-0.1017 -1.3612 -2.3748 -0.9758 -4.5873 -2.4362c-1.5705 -1.0364 -2.5052 -2.492 -3.1953 -3.0346c-0.6905 -0.5423 -2.7005 -0.125 -4.1418 0.8138c0 0 1.341 -0.4405 4.1655 2.1367l0 0zm7.0778 2.9583c-0.665 -0.9485 -2.179 -0.6267 -3.5764 -0.6386c2.2876 1.5443 -0.0453 3.5733 -1.1876 6.2176c-1.1417 2.645 0.2438 5.1326 0.2438 5.1326c0 0 0.1066 -2.347 1.2636 -3.4892c0 0 0.3504 1.0538 1.675 1.2985c-1.8118 -2.0497 0.399 -5.128 1.2844 -6.4518c0.6962 -1.0417 0.5044 -1.774 0.2973 -2.0692l0 0zm-17.5493 5.7262c0 0 0.1933 -0.4764 0.441 -1.1647l-8.7224 0c0.247 0.6883 0.441 1.1647 0.441 1.1647l7.8404 0l0 0zm-3.1804 -11.1465c0 -0.4286 -0.3384 -0.7767 -0.7558 -0.7767c-0.417 0 -0.7556 0.348 -0.7556 0.7767c0 0.429 0.3385 0.7765 0.7556 0.7765c0.4174 0 0.7558 -0.3474 0.7558 -0.7765l0 0zm3.947 9.103c0.3356 -1.0528 0.7136 -2.654 0.7136 -3.4266c0 -1.4125 -0.782 -2.9762 -3.5308 -3.4567c0 1.7377 -0.828 5.8878 -1.829 5.8878l-0.1124 0c-1.0012 0 -1.8296 -4.181 -1.8296 -5.8876c-2.74 0.4812 -3.4986 2.0444 -3.4986 3.4564c0 0.7727 0.3776 2.3738 0.7125 3.4266l9.3744 0l0 0zm-4.7028 -2.1664c0.522 0 0.945 -2.73 0.945 -4.0892c0 -0.7426 -0.423 -1.2296 -0.945 -1.2296c-0.5217 0 -0.9444 0.487 -0.9444 1.2296c0 1.3592 0.4227 4.0892 0.9444 4.0892l0 0zm-0.5034 -8.7487l1.0075 0l-0.1257 -1.2944l1.2594 0.1296l0 -1.0356l-1.2594 0.1296l0.1258 -1.2946l-1.0074 0l0.126 1.2946l-1.26 -0.1296l0 1.0356l1.26 -0.1296l-0.126 1.2945l0 0zm-51.297 31.1147c-2.0365 0.0492 -5.6226 0.4562 -7.444 1.036c1.238 1.491 4.4708 3.6318 6.408 4.541c-1.5064 0.5725 -4.2085 2.0254 -5.3353 3.074c1.4518 0.9 4.6405 1.9284 6.1476 2.2646c-0.8774 0.714 -2.6842 2.7784 -3.347 3.8916c1.248 0.3904 3.814 0.73 5.4434 0.826c-0.5224 1.092 -1.1174 3.0195 -1.275 4.2754c0.8077 0.082 3.506 -0.0578 4.842 -0.3584c-0.1146 1.0945 -0.071 3.0856 0.1097 3.944c1.3182 -0.1898 3.2003 -0.7217 4.076 -1.0612c0.2536 0.9757 1.16 3.0767 1.4785 3.576c1.056 -0.2035 2.3167 -0.636 3.2433 -1.123c0.2928 0.782 0.9583 1.952 1.1423 2.2474c3.0868 -3.1293 7.4947 -0.5916 7.4947 2.7385c-0.3166 2.194 -3.4057 2.0713 -5.0318 3.1026c-2.1382 1.356 -1.7682 4.4998 -3.969 4.9825c2.0795 1.3188 2.6846 -1.1563 4.8445 -1.2268c-0.2882 1.335 -0.2608 3.7052 -0.0444 4.698c0.889 -0.6882 2.1357 -1.2135 2.9514 -1.2668c-0.2015 0.7787 -0.3588 2.601 -0.0672 3.736c0.573 -0.4355 2.713 -2.3016 7.794 -1.1018c0.616 0.1452 -3.4465 -0.015 -2.9396 1.2993c0.3993 1.036 0.5123 1.7563 0.0348 3.2268c0.2154 0.0776 0.4653 0.1145 0.7345 0.1145c1.1393 0 2.6165 -0.663 3.2033 -1.704c0.4534 0.338 0.4534 2.746 -1.0658 3.344c1.6228 0.1187 2.8586 -1.2033 3.0984 -2.0156c0 0 0.7933 1.8913 1.734 2.5122c0.5907 -0.2076 1.6432 -1.1897 2.05 -2.2096c0.4063 1.02 1.459 2.002 2.0494 2.2096c0.9408 -0.621 1.7342 -2.5122 1.7342 -2.5122c0.2398 0.8123 1.476 2.1343 3.0987 2.0156c-1.5193 -0.598 -1.5193 -3.006 -1.066 -3.344c0.587 1.041 2.064 1.704 3.2036 1.704c0.269 0 0.5192 -0.037 0.7347 -0.1145c-0.4775 -1.4705 -0.3646 -2.1907 0.0347 -3.2268c0.507 -1.3142 -3.5556 -1.154 -2.9396 -1.2993c5.08 -1.1998 7.221 0.6663 7.794 1.1018c0.2916 -1.135 0.1343 -2.9573 -0.0672 -3.736c0.8155 0.0533 2.0622 0.5786 2.9513 1.2667c0.2158 -0.9928 0.2437 -3.363 -0.045 -4.698c2.16 0.0705 2.765 2.5456 4.8448 1.2268c-2.2008 -0.4827 -1.831 -3.6266 -3.9692 -4.9825c-1.626 -1.0313 -4.7152 -0.9086 -5.0318 -3.1026c0 -3.33 4.408 -5.8678 7.495 -2.7385c0.1836 -0.2955 0.849 -1.4655 1.142 -2.2475c0.9265 0.4872 2.1874 0.9196 3.2434 1.1232c0.3184 -0.4995 1.225 -2.6005 1.4782 -3.5762c0.876 0.3395 2.7582 0.8714 4.0763 1.0613c0.1806 -0.8584 0.2243 -2.8495 0.1096 -3.944c1.336 0.3006 4.034 0.4405 4.8417 0.3584c-0.1573 -1.256 -0.752 -3.1834 -1.275 -4.2755c1.6297 -0.096 4.1956 -0.4356 5.444 -0.826c-0.6633 -1.1133 -2.47 -3.1777 -3.347 -3.8917c1.5067 -0.3362 4.6954 -1.3645 6.1475 -2.2647c-1.1268 -1.0485 -3.8292 -2.5014 -5.3355 -3.0738c1.9374 -0.9093 5.1698 -3.05 6.4082 -4.541c-1.8217 -0.58 -5.4078 -0.987 -7.4442 -1.036c4.2153 -2.8844 4.3452 -9.1408 3.1312 -12.5406c-0.8162 2.061 -3.5224 5.447 -5.2693 7.2725c0.155 1.7376 -0.4086 4.8196 -1.375 6.7007c1.3836 0.5256 3.0236 1.3185 4.1854 2.2025c-0.771 0.9704 -2.4296 2.4763 -3.47 3.2922c0.8805 0.921 2.3612 2.6127 3.021 3.5907c-0.975 0.7304 -3.0967 1.5683 -4.1844 1.953c0.5353 1.098 1.3127 3.101 1.5137 4.4836c-1.2387 0.205 -2.9437 0.3436 -4.7263 0.322c0.0865 1.324 -0.0995 3.374 -0.33 4.6015c-1.6534 -0.1315 -3.604 -0.8105 -4.4737 -1.2467c-0.4603 1.8298 -1.5972 3.605 -1.647 3.6994c-5.168 -5.635 -9.7486 -0.319 -9.7486 4.6476l0 6.768c0 3.2012 -1.0082 4.6627 -3.9097 4.6627l-3.7548 0c-2.3376 0 -4.2963 0.992 -5.2736 2.898c-0.9775 -1.906 -2.9362 -2.898 -5.2737 -2.898l-3.755 0c-2.9016 0 -3.91 -1.4615 -3.91 -4.6628l0 -6.768c0 -4.9665 -4.5803 -10.2825 -9.7483 -4.6475c-0.0497 -0.0944 -1.187 -1.8696 -1.6472 -3.6994c-0.8697 0.4362 -2.8203 1.1152 -4.473 1.2468c-0.2312 -1.2275 -0.417 -3.2775 -0.3304 -4.6013c-1.7826 0.0215 -3.4876 -0.117 -4.7266 -0.322c0.2012 -1.3827 0.9786 -3.3857 1.514 -4.4837c-1.0874 -0.3847 -3.2093 -1.2226 -4.1844 -1.953c0.6595 -0.978 2.1404 -2.6697 3.0208 -3.5908c-1.0405 -0.816 -2.699 -2.3218 -3.4698 -3.2923c1.1615 -0.884 2.8018 -1.677 4.1853 -2.2026c-0.9664 -1.881 -1.5302 -4.963 -1.375 -6.7007c-1.747 -1.8255 -4.4532 -5.2116 -5.2694 -7.2725c-1.214 3.3998 -1.084 9.6562 3.1314 12.5405l0 0zm-11.6322 32.3143l-0.38 0.4057c0 0 0.7882 1.0305 1.4246 0.6385c0.3623 -0.669 -0.6627 -1.448 -0.6627 -1.448l-0.382 0.4038l0 0z"/></svg>