<svg width="45" height="50" viewBox="0 0 45 50" fill="none" xmlns="http://www.w3.org/2000/svg">
<g clip-path="url(#clip0)">
<path fill-rule="evenodd" clip-rule="evenodd" d="M36.2296 41.9317C36.1519 41.9317 35.9789 42.5205 36.1569 42.9381C36.2517 43.1604 36.4744 43.2543 36.6607 43.192C36.8443 43.1308 36.8978 42.956 36.9028 42.8199C36.9201 42.3623 36.519 41.9317 36.2295 41.9317H36.2296ZM34.8943 35.2549L34.9527 35.9014L34.3951 35.8391V36.5752L34.9527 36.5132L34.8943 37.1883H35.6516L35.5931 36.5132L36.1506 36.5753V35.8391L35.5931 35.9015L35.6516 35.2549H34.8943H34.8943ZM35.274 37.8026C35.1231 37.8026 35.0008 37.9278 35.0008 38.0822C35.0008 38.2366 35.1232 38.3618 35.274 38.3618C35.4247 38.3618 35.547 38.2367 35.547 38.0822C35.547 37.9278 35.4247 37.8026 35.274 37.8026ZM35.274 38.9347C35.1231 38.9347 35.0008 39.0599 35.0008 39.2143C35.0008 39.3688 35.1232 39.494 35.274 39.494C35.4247 39.494 35.547 39.3688 35.547 39.2143C35.547 39.06 35.4247 38.9347 35.274 38.9347ZM35.274 40.0831C35.1231 40.0831 35.0008 40.2083 35.0008 40.3627C35.0008 40.5173 35.1232 40.6424 35.274 40.6424C35.4247 40.6424 35.547 40.5173 35.547 40.3627C35.547 40.2083 35.4247 40.0831 35.274 40.0831V40.0831ZM36.1559 40.3627C36.1559 40.5173 36.2782 40.6424 36.429 40.6424C36.5798 40.6424 36.702 40.5173 36.702 40.3627C36.702 40.2083 36.5797 40.0831 36.4289 40.0831C36.2781 40.0831 36.1558 40.2083 36.1558 40.3627L36.1559 40.3627ZM37.3005 40.3627C37.3005 40.5173 37.4229 40.6424 37.5737 40.6424C37.7245 40.6424 37.8468 40.5173 37.8468 40.3627C37.8468 40.2083 37.7245 40.0831 37.5737 40.0831C37.4229 40.0831 37.3005 40.2083 37.3005 40.3627V40.3627ZM35.274 41.6204C35.0402 41.6204 34.4634 42.8085 34.8933 43.4094C34.9756 43.5244 35.1197 43.5889 35.274 43.5889C35.4282 43.5889 35.5723 43.5243 35.6546 43.4094C36.0845 42.8085 35.5077 41.6204 35.274 41.6204ZM34.3183 41.9316C34.0288 41.9316 33.6278 42.3622 33.645 42.8198C33.65 42.9559 33.7035 43.1307 33.8871 43.192C34.0734 43.2543 34.2962 43.1603 34.391 42.938C34.5689 42.5204 34.396 41.9316 34.3183 41.9316V41.9316ZM33.874 40.3627C33.874 40.5173 33.9961 40.6424 34.147 40.6424C34.298 40.6424 34.4201 40.5172 34.4201 40.3627C34.4201 40.2083 34.2979 40.083 34.147 40.083C33.996 40.083 33.8739 40.2082 33.8739 40.3626L33.874 40.3627ZM32.7574 40.3627C32.7574 40.5173 32.8796 40.6424 33.0304 40.6424C33.1813 40.6424 33.3036 40.5172 33.3036 40.3627C33.3036 40.2083 33.1813 40.083 33.0304 40.083C32.8796 40.083 32.7574 40.2082 32.7574 40.3626V40.3627ZM32.4881 40.3627C32.4881 40.1243 32.5292 39.9095 32.5292 39.9095H34.7987V39.7124L34.7988 38.051L34.7987 38.0508V37.5785C33.7033 37.7709 32.8271 38.6179 32.566 39.712C32.5024 39.803 32.2965 39.8496 32.1514 39.8333C31.3139 39.7305 29.6191 39.4242 29.6191 39.0623C29.6191 38.554 29.9625 38.3505 30.2924 38.3505C30.7631 38.3505 31.2831 38.606 31.7161 37.9777C30.1751 38.0484 31.3563 35.8166 30.0925 35.3932C30.1551 35.963 30.093 36.9657 29.8936 37.4956C29.8936 37.4956 29.4408 37.0107 28.9322 36.8278C28.9703 37.2415 28.893 38.0989 28.7085 38.4893C28.7085 38.4893 28.1699 37.9895 27.6114 37.8026C28.1267 38.5514 28.109 39.6201 27.9703 40.2701C27.9302 40.4582 28.07 40.6923 28.4629 40.675C29.0775 40.6478 31.1767 40.7406 32.0871 41.1139C32.3702 41.2299 32.6127 41.363 32.7312 41.5653C32.8276 41.8378 33.0662 42.2598 33.3599 42.4762C33.4918 42.0052 34.0539 41.5007 34.4201 41.5189C34.5295 41.5243 34.6505 41.7075 34.6755 41.887C34.7079 41.7201 34.978 41.2589 35.2739 41.2589C35.547 41.2589 35.8094 41.6447 35.9005 41.9634C35.928 41.7587 36.0487 41.5398 36.1581 41.5398C36.5259 41.5398 36.9884 41.8669 37.1626 42.407C37.3038 42.2307 37.9519 41.3957 38.025 40.8478H32.5291C32.5291 40.8478 32.488 40.6108 32.488 40.3628L32.4881 40.3627ZM35.7492 37.5789V39.9095H38.0206C37.8231 38.7213 36.9088 37.7833 35.7491 37.5789H35.7492ZM8.94475 39.4979C8.99241 39.5139 9.04068 39.5025 9.08822 39.4772C8.93509 39.6909 8.94143 39.8315 9.00734 39.8974C9.11092 40.0002 9.18763 39.8112 9.4494 39.5326C9.71142 39.2544 9.89265 39.1696 9.78948 39.0664C9.72296 39.0001 9.5851 38.9983 9.37928 39.1664C9.40203 39.1172 9.41078 39.0682 9.39422 39.0204C9.30761 38.7692 8.90445 38.4347 8.68224 38.434C8.65015 38.4343 8.61845 38.441 8.58896 38.4536C8.68674 38.2963 8.6615 38.1775 8.59608 38.1123C8.52408 38.0407 8.48285 38.0909 8.40201 38.1945C8.41305 38.1221 8.39452 38.0373 8.32633 37.9337C7.99276 37.4278 6.22843 35.7616 5.82781 35.5942C5.5887 35.4939 5.51023 35.6327 5.51023 35.6327C5.51023 35.6327 5.37789 35.7182 5.4825 35.9613C5.65759 36.368 7.35294 38.1077 7.85448 38.4351C7.95733 38.5021 8.03996 38.5184 8.10984 38.505C8.01235 38.5905 7.96563 38.6347 8.03726 38.706C8.10272 38.7712 8.21923 38.7933 8.36904 38.6874C8.35777 38.7183 8.35247 38.7511 8.35341 38.784C8.36102 39.0124 8.69811 39.4166 8.94483 39.4978L8.94475 39.4979ZM4.70392 34.5688C4.65163 34.5688 4.57743 34.5812 4.52281 34.6391C4.4675 34.6978 4.44807 34.7887 4.4682 34.8941C4.49029 35.0086 4.55542 35.1248 4.65188 35.2211C4.76737 35.3365 4.91267 35.4053 5.04002 35.4053C5.09263 35.4053 5.16635 35.3933 5.22105 35.3354C5.34021 35.2085 5.28139 34.942 5.09218 34.7532C4.97633 34.6381 4.83143 34.5688 4.70396 34.5688L4.70392 34.5688ZM10.191 40.7534C10.1896 40.5774 9.85743 40.2821 9.46352 40.2821C8.87844 40.2821 8.62517 40.6545 8.62517 40.8442C8.62517 41.2014 8.96897 41.2474 9.07435 41.2533C9.48614 41.2789 10.1501 40.8562 10.191 40.7534ZM9.68704 41.6454C9.53159 41.8454 9.47338 42.0407 9.51359 42.2257C9.56256 42.4499 9.7833 42.5506 9.98052 42.5506C10.1883 42.5506 10.3745 42.4521 10.4784 42.2869C10.7019 41.9331 10.7118 41.1492 10.6364 41.0635C10.4491 41.0635 9.95078 41.3064 9.68708 41.6454L9.68704 41.6454ZM4.55239 33.485C4.38703 33.3199 4.04888 33.5658 3.84679 33.4514C3.93638 32.9475 4.29155 33.4764 4.63482 33.112C4.77166 32.9665 4.69823 32.7394 4.61968 32.6708C4.4718 32.8213 4.24291 32.7692 4.22532 32.6855C4.6149 31.761 3.8537 30.7302 3.12282 30.8594C3.26621 31.0521 3.30908 31.7219 3.24661 31.9029C3.52488 32.1036 3.32598 32.5764 3.01887 32.439C2.8129 32.3548 2.44962 31.8377 2.86739 31.4734C2.85536 31.3421 2.62553 31.3102 2.38131 31.6265C2.56049 31.0458 1.46355 31.2279 1.23815 31.3673C1.10998 31.6033 0.9679 32.738 1.52574 32.5353C1.22653 32.7967 1.26474 33.0321 1.39249 33.0406C1.73294 32.5994 2.24586 32.9573 2.33434 33.1666C2.47736 33.4786 2.0245 33.6976 1.8211 33.4176C1.64703 33.4878 0.995555 33.4647 0.803896 33.3232C0.701746 34.0792 1.72599 34.83 2.61146 34.4005C2.69307 34.416 2.75096 34.6493 2.60962 34.8065C2.67876 34.8855 2.9013 34.9538 3.03835 34.8081C3.38116 34.4438 2.85655 34.0947 3.34304 33.9864C3.46045 34.191 3.23258 34.5467 3.39773 34.7117C3.66229 34.9756 3.99459 34.4637 4.32097 34.4432C4.33054 34.1067 4.81691 33.7489 4.55243 33.4849L4.55239 33.485ZM1.81046 32.3177C1.81046 32.3177 1.63934 32.1956 1.84454 31.972C2.05481 31.7537 2.17905 31.9262 2.17905 31.9262C2.17905 31.9262 2.37182 32.3571 2.4288 32.5554C2.2344 32.5029 1.8105 32.3177 1.8105 32.3177H1.81046ZM3.50381 33.6281C3.39761 33.6416 3.14602 33.8665 3.01986 33.7406L2.44251 33.1649L2.73116 32.8573L3.02096 32.5504L3.59778 33.1268C3.72394 33.2523 3.5135 33.5185 3.50381 33.6281V33.6281ZM13.0699 42.4521C13.0894 42.3659 13.076 42.2966 13.031 42.2518C13.0169 42.2377 13.0042 42.2297 12.9966 42.2297C12.9641 42.2297 12.8917 42.3195 12.822 42.4065C12.7639 42.4786 12.6915 42.5683 12.5992 42.6661C12.5072 42.7644 12.422 42.8415 12.3538 42.9038C12.2727 42.9774 12.1886 43.0537 12.1877 43.0881C12.1877 43.0962 12.196 43.1091 12.2107 43.1237C12.2406 43.1538 12.2806 43.1686 12.3292 43.1686C12.4034 43.1686 12.5642 43.1305 12.8062 42.873C12.9899 42.6781 13.0512 42.5366 13.0699 42.4521L13.0699 42.4521ZM13.0734 43.1392C12.9476 43.2733 12.8197 43.3684 12.749 43.4171C12.7992 43.4681 12.9418 43.5586 13.1202 43.5586C13.222 43.5586 13.317 43.5286 13.4038 43.4691C13.5818 43.1746 13.41 42.8733 13.3328 42.7966C13.2876 42.8712 13.199 43.0058 13.0733 43.1392L13.0734 43.1392ZM11.125 41.5009C11.0334 41.5871 10.8215 42.185 10.9139 42.5492C10.9537 42.7052 11.0395 42.7719 11.1848 42.764C11.335 42.7545 11.4169 42.676 11.4422 42.5161C11.4998 42.1524 11.225 41.5744 11.125 41.5009L11.125 41.5009ZM11.0091 39.839C11.0143 39.8493 12.096 40.8037 12.459 41.1491C12.5445 41.2307 12.6624 41.2495 12.7821 41.1883C12.8505 41.1533 12.9355 41.1131 13.0235 41.0726C14.1053 40.6892 15.8846 40.646 16.5373 40.6749C16.9302 40.6921 17.069 40.4584 17.0298 40.27C16.902 39.6549 16.8734 38.5514 17.3887 37.8025C16.8302 37.9895 16.2918 38.4893 16.2918 38.4893C16.1071 38.0989 16.0297 37.2414 16.0679 36.8277C15.5594 37.0106 15.1064 37.4956 15.1064 37.4956C14.9072 36.9657 14.845 35.9631 14.9077 35.3932C13.6437 35.8166 14.8251 38.0484 13.2841 37.9777C13.7171 38.6061 14.2371 38.3506 14.7077 38.3506C15.0377 38.3506 15.4476 38.5673 15.3811 39.0624C15.3329 39.4209 13.2653 39.8673 12.4338 39.8673C11.8525 39.8673 11.4633 39.6873 11.1716 39.2827C11.0313 39.0882 10.8882 39.0002 10.7279 39.0249C10.529 39.0557 10.2963 39.2596 10.2963 39.732C10.2963 40.0666 10.4312 40.8001 10.8318 40.8001C11.1131 40.8001 11.1256 40.2204 11.009 39.8391L11.0091 39.839ZM12.346 42.4137C12.5348 42.2126 12.6008 42.0663 12.5542 41.9521C12.4867 41.7873 12.0573 41.3078 11.4951 40.7669C11.4784 40.8786 11.4533 40.989 11.4202 41.097C11.799 41.5989 11.9406 42.138 11.8128 42.5908C11.8591 42.6216 11.8877 42.6356 11.9045 42.6422C12.0499 42.7002 12.2315 42.5354 12.3459 42.4137H12.346ZM9.61062 39.6836C9.60788 39.6865 9.53793 39.7556 9.49268 39.8488C9.61026 39.8495 9.74726 39.8698 9.87048 39.9031C9.8623 39.7937 9.8542 39.6456 9.86487 39.5177C9.76088 39.5412 9.6492 39.6417 9.61067 39.6836H9.61062ZM28.5051 43.1318C28.8612 42.9693 29.118 42.5284 29.1856 42.0971C28.9599 42.2079 28.7055 42.2618 28.4122 42.2618C27.6053 42.2618 26.5915 41.8131 25.6728 41.4063C25.6728 41.4063 25.4746 41.573 25.1464 41.6078C26.0734 41.8928 27.8952 42.904 28.0291 43.5527C28.1186 43.9864 27.8359 44.1521 27.8359 44.1521C27.4305 43.4906 26.3859 42.4635 24.9916 41.9498C24.9945 42.1915 24.9481 42.3612 24.9481 42.3612C24.9481 42.3612 24.6651 42.4308 24.0641 42.3265C24.5896 42.7649 25.97 44.3137 26.1198 45.4887C26.2197 46.2732 25.6716 46.3095 25.6716 46.3095C25.5933 45.1296 24.9745 43.9086 23.8577 42.6825C23.8577 42.6825 23.6746 42.9697 23.4312 43.1146C23.4312 43.1146 23.0187 43.0415 22.6764 42.815C22.8082 44.3718 22.886 46.3942 22.8043 47.0063C22.7472 47.4326 22.5002 47.6112 22.5002 47.6112C22.5002 47.6112 22.2524 47.4325 22.1952 47.0063C22.1136 46.3941 22.1913 44.3718 22.3231 42.815C21.9809 43.0415 21.5683 43.1146 21.5683 43.1146C21.3249 42.9698 21.1421 42.6826 21.1421 42.6826C20.025 43.9087 19.4062 45.1296 19.328 46.3095C19.328 46.3095 18.7798 46.2732 18.8798 45.4888C19.0296 44.3137 20.41 42.765 20.9354 42.3265C20.3345 42.4308 20.0515 42.3613 20.0515 42.3613C20.0515 42.3613 20.0052 42.1916 20.0081 41.9498C18.6139 42.4635 17.5693 43.4906 17.1638 44.1521C17.1638 44.1521 16.8811 43.9864 16.9707 43.5527C17.1045 42.904 18.9263 41.8929 19.8535 41.6078C19.5251 41.5731 19.3269 41.4064 19.3269 41.4064C18.4082 41.8132 17.3943 42.2619 16.5875 42.2619C16.2942 42.2619 16.0397 42.2079 15.8142 42.0972C15.8817 42.5285 16.1386 42.9693 16.4945 43.1319C15.248 44.0091 16.0177 46.0647 14.346 45.6783C15.2782 47.4092 17.1638 47.583 17.1638 47.583C16.7461 46.6674 17.2669 43.8739 19.7695 42.6046C18.229 44.1405 17.5271 46.0027 17.9359 47.3164C18.3109 48.5223 19.5299 49.0109 20.4478 49.0319C19.7987 47.0382 20.1988 44.7549 21.5458 43.3175C20.9686 44.8939 20.1569 49.1014 22.5004 49.9086C24.8437 49.1014 24.0314 44.8939 23.454 43.3175C24.8012 44.7548 25.2011 47.0382 24.5521 49.0319C25.4699 49.0109 26.689 48.5223 27.0641 47.3164C27.4728 46.0027 26.7709 44.1405 25.2305 42.6046C27.7332 43.8739 28.2538 46.6674 27.836 47.583C27.836 47.583 29.7217 47.4092 30.6539 45.6783C28.9821 46.0646 29.7519 44.0091 28.5052 43.1319L28.5051 43.1318ZM22.6992 8.4534C22.6992 8.32985 22.6016 8.22922 22.482 8.22922C22.3622 8.22922 22.2649 8.32985 22.2649 8.4534C22.2649 8.57727 22.3621 8.67799 22.482 8.67799C22.6016 8.67799 22.6992 8.57727 22.6992 8.4534ZM23.7947 8.4534C23.7947 8.32985 23.6976 8.22922 23.5776 8.22922C23.4579 8.22922 23.3606 8.32985 23.3606 8.4534C23.3606 8.57727 23.4579 8.67799 23.5776 8.67799C23.6976 8.67799 23.7947 8.57727 23.7947 8.4534ZM22.0926 2.63348C22.0926 2.86482 22.2749 3.0537 22.4989 3.0537C22.7234 3.0537 22.9056 2.86482 22.9056 2.63348C22.9056 2.40181 22.7234 2.2131 22.4989 2.2131C22.2749 2.2131 22.0926 2.40177 22.0926 2.63344V2.63348ZM22.2234 1.7406H22.7767L22.7169 1.07075L23.318 1.1349V0.605047L22.7169 0.668987L22.7767 -0.000488281H22.2233L22.2829 0.668987L21.6819 0.605047V1.1349L22.2829 1.07075L22.2233 1.74056L22.2234 1.7406ZM21.6036 8.45336C21.6036 8.32981 21.506 8.22917 21.3863 8.22917C21.2666 8.22917 21.1691 8.32981 21.1691 8.45336C21.1691 8.57723 21.2666 8.67795 21.3863 8.67795C21.506 8.67795 21.6036 8.57723 21.6036 8.45336V8.45336ZM20.2994 9.28463C20.3582 9.30582 20.4261 9.31735 20.5064 9.31735H24.4938C24.5742 9.31735 24.6421 9.30582 24.7006 9.28463C24.8294 9.2384 24.9076 9.14153 24.938 8.98673H20.0621C20.0923 9.14153 20.1706 9.23832 20.2994 9.28467V9.28463ZM20.5187 8.45336C20.5187 8.32981 20.4213 8.22917 20.3015 8.22917C20.1817 8.22917 20.0842 8.32981 20.0842 8.45336C20.0842 8.57723 20.1817 8.67795 20.3014 8.67795C20.4212 8.67795 20.5186 8.57723 20.5186 8.45336H20.5187ZM24.8798 8.45336C24.8798 8.32981 24.7822 8.22917 24.6629 8.22917C24.543 8.22917 24.4455 8.32981 24.4455 8.45336C24.4455 8.57723 24.543 8.67795 24.6629 8.67795C24.7823 8.67795 24.8798 8.57723 24.8798 8.45336H24.8798ZM25.1404 7.92154C25.2528 7.78171 25.8117 6.69869 25.8117 5.60535C25.8117 4.62133 24.5777 4.07965 23.8436 4.0549C23.7586 5.46054 23.2123 7.667 22.5003 7.667C21.8264 7.667 21.2408 5.47326 21.1568 4.05486C20.4228 4.07969 19.1889 4.62137 19.1889 5.60539C19.1889 6.69873 19.7475 7.78175 19.86 7.92154H25.1405H25.1404ZM22.5003 6.96889C22.8356 6.96889 23.269 5.56907 23.3797 4.24415C23.3797 3.97591 23.0442 3.56559 22.5003 3.55491C21.9562 3.56555 21.6208 3.97587 21.6208 4.24415C21.718 5.47968 22.1701 6.96889 22.5003 6.96889H22.5003ZM11.8403 14.1145C11.1896 15.0112 12.0895 15.9926 12.145 16.0604C12.1841 16.1082 12.2176 16.0866 12.2117 16.033C12.207 15.9869 12.6799 14.6041 15.403 15.3323C15.4612 15.3479 15.4969 15.3491 15.4423 15.2925C14.9393 14.893 14.3425 13.9973 14.1496 13.2769C14.1496 13.2769 12.4912 13.2177 11.8403 14.1145H11.8403ZM13.3001 13.9269C13.3001 13.6764 13.6638 13.6073 13.8728 13.6073C13.8728 13.6073 13.9646 13.8492 14.0567 13.9831C13.8445 13.888 13.5498 13.8784 13.3001 13.9269V13.9269ZM14.7455 12.7568C14.5644 12.7568 14.4967 12.8723 14.5559 13.0723C15.1815 15.1856 16.8872 15.6868 17.5606 16.6021C17.5606 16.6021 17.5559 16.317 17.8683 15.6366C18.0808 15.9865 18.6568 16.6418 19.0311 16.7252C18.9416 16.5367 18.8352 15.7926 18.9182 15.2926C19.802 16.0675 20.8917 16.2198 21.4764 15.7727C20.9786 15.7918 20.3303 15.2365 20.0039 14.7439C20.4595 14.8495 21.0868 14.7407 21.2161 14.6095C20.9283 14.5391 20.5792 14.2833 20.369 14.0402C20.6923 14.0177 21.3938 13.7522 21.5943 13.3779C21.3131 13.4419 20.896 13.3267 20.6245 13.1828C20.8313 13.0707 21.3475 12.5163 21.4713 12.0297C20.7383 12.3899 19.5817 12.7483 17.8684 12.7483C17.8684 12.7483 14.841 12.7567 14.7454 12.7567L14.7455 12.7568ZM16.6368 13.7202C16.1525 13.9125 15.9098 14.1721 15.9098 14.1721C15.9098 14.1721 15.6773 13.7898 15.6031 13.6669C15.5289 13.5441 15.5057 13.3935 15.756 13.3935H17.2576C17.2576 13.4961 17.1211 13.5278 16.6368 13.7201L16.6368 13.7202ZM11.5108 17.1588C11.6675 17.3671 12.111 18.0033 13.0838 17.4345C14.0564 16.8656 14.558 16.556 14.558 16.556C14.558 16.556 14.4061 16.8495 14.5214 17.2015C14.5281 17.2217 14.551 17.2208 14.5598 17.1999C14.6567 16.9721 15.5014 16.313 16.5787 16.2217C16.1838 15.8758 15.7505 15.5676 15.7505 15.5676C15.2902 15.642 14.3981 15.9574 13.2441 16.7083C12.09 17.4592 11.5583 17.1456 11.5363 17.1315C11.5142 17.1173 11.483 17.1218 11.5108 17.1588H11.5108ZM25.2953 41.1339C25.4614 41.0808 25.6005 40.9959 25.672 40.9006C24.9267 40.8683 24.3114 40.2235 24.0861 39.8257C23.8385 40.2362 23.3965 40.5568 23.3965 40.5568C23.0818 40.4736 22.6516 40.1301 22.5002 39.8674C22.3488 40.1301 21.9186 40.4736 21.6038 40.5568C21.6038 40.5568 21.1619 40.2362 20.9142 39.8258C20.689 40.2236 20.0737 40.8683 19.3282 40.9006C19.3998 40.9959 19.5389 41.0808 19.7051 41.1339C19.8164 41.1697 19.9395 41.1917 20.0635 41.1917C20.1948 41.1917 20.3266 41.1678 20.4448 41.1123C20.3704 41.3833 20.3456 41.7179 20.4001 41.9474C20.4001 41.9474 20.7965 41.9786 21.2058 41.8238C21.2352 42.0716 21.3481 42.3716 21.5334 42.5745C21.5698 42.6142 21.6078 42.6515 21.6497 42.6825C21.8695 42.6825 22.4002 42.426 22.5002 42.2679C22.6001 42.4259 23.1308 42.6825 23.3507 42.6825C23.3924 42.6515 23.4305 42.6141 23.467 42.5744C23.6522 42.3716 23.7651 42.0715 23.7945 41.8237C23.9786 41.9163 24.1924 41.9533 24.4291 41.9533C24.4861 41.9532 24.5431 41.9512 24.6001 41.9473C24.6547 41.7179 24.6299 41.3833 24.5554 41.1123C24.6737 41.1677 24.8055 41.1916 24.9367 41.1916C25.061 41.1916 25.1839 41.1696 25.2952 41.1339L25.2953 41.1339ZM17.856 25.2125C17.7099 25.2125 17.6195 25.3059 17.6195 25.4563V34.5846C17.6195 35.4549 17.9619 35.8965 18.6372 35.8965L20.3268 35.9031C21.4845 35.9031 22.1675 36.3022 22.5002 36.7969C22.783 36.3356 23.578 35.9031 24.6736 35.9031L26.3627 35.8965C27.0381 35.8965 27.3805 35.4549 27.3805 34.5846V25.4563C27.3805 25.3059 27.2899 25.2125 27.1443 25.2125H17.8559H17.856ZM19.5062 33.7529C19.49 33.9549 19.7244 34.3223 20.1113 34.2074C20.0996 34.2819 20.1213 34.4858 20.2078 34.6387C19.5224 34.7943 19.2268 34.2296 19.5062 33.7529V33.7529ZM25.7201 30.731C25.6258 30.6308 25.5327 30.5293 25.441 30.4267C25.3432 30.3179 25.2735 30.2756 25.1737 30.2756C24.9494 30.2756 24.7094 30.3986 24.5811 30.4838C24.5726 30.4873 24.5661 30.4955 24.5629 30.5177C24.6993 30.5056 24.8361 30.4955 24.9721 30.4801C25.0915 30.4663 25.2029 30.4711 25.3058 30.5479C25.3868 30.608 25.4325 30.6824 25.4368 30.7797C25.4498 31.0904 25.6974 31.7443 25.7128 31.9406C25.7321 32.0178 25.6394 32.0403 25.5111 32.4012C25.4163 32.5074 25.1601 32.1705 25.1972 32.0917C25.3465 31.8967 25.3876 31.7752 25.3498 31.6299C25.3195 31.5131 25.2626 31.3045 25.2205 31.1914C25.1642 31.0406 25.0375 30.984 24.88 31.0381C24.2622 31.2435 24.167 30.9698 23.5546 31.2272L24.2598 32.3203C24.2572 32.2411 24.2193 32.0981 24.1053 31.9953C24.1258 31.8849 24.3483 31.8393 24.4314 31.9426C24.5334 32.0736 24.7324 32.2605 24.8962 32.2904C25.2109 32.3487 25.1871 32.8272 26.0279 32.9874C25.9234 33.0959 25.6902 33.0591 25.5886 33.01C25.6499 33.1049 25.7205 33.1945 25.8472 33.2269C25.7169 33.3579 25.3428 33.0508 25.3811 33.3599C25.4458 33.3224 25.5354 33.3163 25.6112 33.3354C25.779 33.3773 26.0542 34.3328 25.4744 34.7503C25.5979 34.7874 25.7306 34.722 25.8558 34.722C25.9292 34.722 25.9978 34.7933 26.005 34.8729C26.0591 34.9145 26.0946 34.9655 26.1261 35.0309C26.0825 35.0454 25.9982 35.032 25.9514 35.0008C25.9703 35.0538 25.9658 35.1812 25.9461 35.1837C25.8937 35.1908 25.8533 35.1606 25.7997 35.1286C25.725 35.1669 25.4798 35.1512 25.4103 35.089C25.2251 35.1342 25.0424 35.1947 24.8494 35.1947C24.7453 35.1947 24.6081 35.188 24.613 35.0606C24.6154 34.9984 24.6461 34.9664 24.6703 34.8984C24.5815 34.8069 24.4335 34.8955 24.2571 34.9126C24.0179 34.9356 23.9193 34.8984 23.8674 34.8496C24.0932 34.6401 23.9569 34.1297 23.6082 34.0846C23.8951 34.36 23.8576 34.8057 23.5365 34.9058C23.6292 34.9359 23.6752 34.9778 23.7107 35.044C23.8236 35.091 23.8253 35.173 23.8168 35.2097C23.755 35.1658 23.6438 35.1224 23.555 35.1342C23.5486 35.1731 23.5324 35.2458 23.4989 35.2739C23.4606 35.2655 23.4106 35.2303 23.3912 35.2023C23.2886 35.1234 22.6496 35.2739 22.6108 35.1686C22.5863 35.0708 22.7569 34.9885 22.9142 34.9538C22.5095 34.8049 22.1584 34.0411 21.5353 33.9117C21.2463 33.8519 20.8548 33.9821 20.8548 34.3589C20.8548 34.5441 21.0033 34.6866 21.1639 34.6866C21.3117 34.6866 21.3856 34.5842 21.3856 34.4804C21.3618 34.4985 21.3471 34.5097 21.3326 34.5216C21.2422 34.596 21.127 34.5912 21.0436 34.5097C20.9702 34.438 20.9702 34.3134 21.0414 34.2291C21.1 34.159 21.1704 34.1195 21.2644 34.1055C21.5083 34.07 21.7078 34.1479 21.8422 34.3443C21.9063 34.4379 21.9416 34.5381 21.9416 34.6351C21.9416 35.0693 21.5079 35.1679 21.2679 35.1679C20.6635 35.1679 20.3074 34.7341 20.3074 34.2322C20.3074 34.1737 20.3103 34.1144 20.3203 34.0547C20.4149 33.4898 20.918 33.2537 21.3532 33.183C21.2977 32.9864 21.1905 32.8275 21.0366 32.6978C20.96 32.6333 20.9522 32.5806 21.0005 32.4984C21.0662 32.3859 21.1353 32.2752 21.1643 32.1484C21.1709 32.1199 21.174 32.0899 21.1761 32.059C20.9593 32.2537 20.6563 32.4322 20.2371 32.5596C20.1049 32.6209 20.0349 32.7417 20.0181 32.8806C19.999 33.0418 19.9946 33.2053 19.9917 33.3679C19.9909 33.4054 20.018 33.4462 20.0386 33.4822C20.1166 33.6164 20.2027 33.747 20.222 33.9144C20.222 33.9955 19.8149 34.0039 19.8149 33.9389C19.8111 33.6445 19.6151 33.5301 19.6362 33.3358C19.6903 33.0334 19.7024 32.731 19.6531 32.4272C19.6406 32.3507 19.6812 32.3004 19.7356 32.2597C19.822 32.1935 19.9139 32.1345 20.0002 32.0689C20.204 31.9128 20.2882 31.7095 20.2404 31.4573C20.2342 31.4245 20.2198 31.3929 20.2056 31.362C20.1042 31.1376 20.0301 30.9104 20.0301 30.6575C20.0301 30.38 19.6871 30.3958 19.7095 30.6685C19.7166 30.7537 19.78 30.8728 19.8156 30.9547C20.1673 31.7657 19.535 32.3498 18.8809 32.3494C19.5685 32.1108 18.7202 31.2286 18.7202 30.5704C18.7202 30.1667 19.0314 29.8683 19.4027 29.8683C19.8309 29.8683 20.1024 30.1449 20.1802 30.1924C20.3874 29.8631 21.0217 29.8037 21.2599 29.7658C21.2417 29.5885 21.2666 29.4309 21.3751 29.2948C21.3822 29.2856 21.3866 29.2685 21.3828 29.2587C21.3489 29.1749 21.3129 29.0921 21.2662 29.0109C21.0709 29.2319 21.024 29.5248 21.024 29.6763C20.3008 29.6657 19.9818 29.3482 19.7681 29.2232C19.7689 29.168 19.9613 28.8209 20.1319 28.5918C19.9449 28.7525 19.7912 28.9334 19.6783 29.1504C19.5749 29.0755 19.4662 29.0078 19.3599 28.9635C19.5229 28.6136 19.7389 28.3413 20.0141 28.0567C19.6265 28.2 19.2892 28.6392 19.1614 28.9151C19.0508 28.9025 18.8874 28.8982 18.7962 28.916C19.2186 28.3983 19.4116 27.3783 20.3403 27.1495C20.1077 28.0954 20.6862 28.4798 21.0845 28.2329C21.0326 28.2329 20.9971 28.2412 20.9637 28.2329C20.1871 28.0355 20.6473 26.9576 20.4593 26.7332C20.3879 26.6481 20.351 26.5701 20.3626 26.4624C20.3668 26.4245 20.3556 26.3806 20.3382 26.3457L19.9252 25.6546C19.8733 25.5676 20.034 25.5057 20.0687 25.5457L20.4899 26.2368C20.5008 26.2541 20.5142 26.2795 20.5299 26.2824C20.6839 26.3095 20.7316 26.4374 20.7938 26.5506C20.8136 26.5871 20.8291 26.629 20.8327 26.6703C20.8356 26.7018 20.8271 26.7458 20.8061 26.7672C20.7391 26.8351 20.7521 26.9019 20.8039 26.99C20.887 27.1313 23.3822 31.2922 23.3822 31.2922C22.8402 31.5144 21.8599 31.5324 21.5759 31.5048C21.517 31.6492 21.4249 31.8016 21.2888 31.9484C21.4247 31.8598 21.5298 31.7473 21.627 31.6251C21.7366 31.6378 21.901 31.6817 22.0691 31.694C21.9696 31.9069 21.8203 32.1186 21.6286 32.296C21.5385 32.385 21.4268 32.4637 21.4679 32.6062C21.5142 32.7666 21.8121 33.0722 21.9207 33.2704C22.0286 33.2933 22.2106 33.3317 22.3441 33.3851C22.4203 33.549 22.6779 33.7548 22.9884 33.6483C22.3642 33.6405 22.4102 33 22.6042 32.6613C22.5832 32.9759 22.735 33.237 22.9271 33.2668C22.639 33.0035 22.6678 32.4055 22.9485 32.0775C22.9884 32.6101 23.1497 32.8901 23.3806 32.9533C23.0755 32.6723 22.8924 32.0221 23.3531 31.5483C23.3887 32.7641 24.5006 32.5449 24.6016 33.9523C25.0134 33.9523 25.0369 33.397 24.8073 33.295C24.6733 33.2447 24.5523 33.1564 24.4837 33.0361C24.4552 32.9855 24.4255 32.8953 24.4022 32.8422C24.2798 32.4806 23.9342 32.5035 23.9426 32.4167C23.9508 32.3874 24.0052 32.374 24.0815 32.374L23.4303 31.3666L23.3963 31.314C23.4749 31.298 23.4923 31.2523 23.4116 31.1249C23.4116 31.1249 20.9677 27.0561 20.956 27.0328C21.1833 26.9933 21.4015 27.055 21.6141 27.1374C21.5574 27.0847 21.5111 27.0111 21.5012 26.9351C21.493 26.8741 21.4953 26.8385 21.5444 26.7997C21.5964 26.7573 21.6463 26.7083 21.6827 26.6529C21.804 26.4681 22.027 26.3778 22.2295 26.4356C22.5352 26.5226 22.6434 26.8687 22.4187 27.0506C22.2991 27.3146 22.1508 27.2814 22.1203 27.3997C22.1802 27.4275 22.5983 27.7508 22.6262 27.8869C22.5016 28.1465 22.4397 28.5525 22.5478 28.779C22.6286 27.6996 23.2778 27.1717 23.9101 27.1717C24.0602 27.1717 24.2095 27.1979 24.3591 27.2489C24.441 27.2766 24.5229 27.3165 24.5911 27.3684C24.6899 27.4441 24.7818 27.5285 24.8656 27.6206C24.989 27.7563 25.102 27.9012 25.3119 27.9106C25.2505 27.9982 25.1807 28.0622 25.1092 28.1251C25.0576 28.1714 25.0317 28.2269 25.0254 28.2966C25.0108 28.4465 24.9616 28.5838 24.8514 28.6942C24.8366 28.7091 24.8252 28.7271 24.8179 28.7468C24.7477 28.9507 24.6766 29.1538 24.6107 29.3588C24.5943 29.4087 24.598 29.4776 24.5306 29.4768C24.4721 29.476 24.4015 29.4589 24.3579 29.4233C24.2652 29.3482 24.232 29.2388 24.2652 29.1233C24.2982 29.0085 24.2652 28.9099 24.2289 28.803C24.1917 28.6962 24.1787 28.5807 24.1537 28.4587C23.9811 28.3982 23.657 28.7695 23.9044 29.0805C24.065 29.31 24.2094 29.7324 24.2345 29.9053C24.2396 29.9223 24.0883 30.0178 23.8798 29.9912C23.1749 29.9009 22.7291 29.4111 22.5937 28.9978C22.5826 29.6979 23.1631 30.2168 24.0234 30.1666C24.0585 30.3296 24.1916 30.4404 24.3466 30.4456C24.3788 30.3403 24.3781 30.1194 24.3518 29.9789C24.3401 29.9172 24.3725 29.8855 24.4297 29.8709C24.6178 29.823 24.8626 29.8416 25.0721 29.7668C25.2578 29.6999 25.3457 29.7391 25.4611 29.964C25.5487 30.1336 25.6983 30.3162 25.8395 30.4421C25.8988 30.4947 25.9582 30.5481 26.0142 30.6043C26.0856 30.6759 26.1228 30.7602 26.1283 30.8643C26.1099 31.0274 26.1316 31.3558 26.1316 31.361C26.0908 31.4687 25.7935 31.3547 25.7454 31.2391C25.7273 31.196 25.8727 30.8932 25.7201 30.7309L25.7201 30.731ZM30.8507 13.2769C30.6579 13.9973 30.0611 14.893 29.5581 15.2925C29.5035 15.3491 29.5392 15.3479 29.5975 15.3323C32.3204 14.6041 32.7935 15.9869 32.7886 16.033C32.7828 16.0867 32.8163 16.1083 32.8553 16.0604C32.9109 15.9926 33.8108 15.0112 33.1601 14.1145C32.5092 13.2178 30.8507 13.277 30.8507 13.277V13.2769ZM30.9438 13.9831C31.0357 13.8492 31.1277 13.6073 31.1277 13.6073C31.3366 13.6073 31.7002 13.6765 31.7002 13.9269C31.4504 13.8783 31.1559 13.888 30.9437 13.9831H30.9438ZM33.4895 17.1588C33.5174 17.1218 33.486 17.1173 33.464 17.1315C33.442 17.1456 32.9102 17.4592 31.7563 16.7083C30.6021 15.9574 29.7101 15.642 29.2499 15.5676C29.2499 15.5676 28.8165 15.8758 28.4215 16.2217C29.4988 16.313 30.3437 16.9721 30.4405 17.1999C30.4494 17.2208 30.4721 17.2217 30.4788 17.2015C30.5942 16.8495 30.4422 16.556 30.4422 16.556C30.4422 16.556 30.9438 16.8656 31.9165 17.4345C32.8893 18.0033 33.3327 17.3671 33.4895 17.1587L33.4895 17.1588ZM24.3758 13.1828C24.1043 13.3268 23.6873 13.4419 23.406 13.3779C23.6066 13.7522 24.308 14.0177 24.6312 14.0402C24.4212 14.2833 24.072 14.5391 23.7842 14.6095C23.9136 14.7407 24.5407 14.8494 24.9965 14.7439C24.67 15.2365 24.0218 15.7918 23.5239 15.7727C24.1088 16.2198 25.1985 16.0675 26.0823 15.2926C26.1652 15.7926 26.0589 16.5367 25.9693 16.7253C26.3436 16.6418 26.9196 15.9865 27.1322 15.6366C27.4445 16.317 27.4398 16.6022 27.4398 16.6022C28.1134 15.6869 29.8189 15.1857 30.4446 13.0724C30.5038 12.8723 30.436 12.7568 30.2549 12.7568C30.1593 12.7568 27.1321 12.7483 27.1321 12.7483C25.4186 12.7483 24.262 12.3899 23.529 12.0297C23.6528 12.5163 24.169 13.0708 24.376 13.1828L24.3758 13.1828ZM29.2443 13.3935C29.4946 13.3935 29.4714 13.5441 29.3972 13.6669C29.323 13.7898 29.0905 14.1721 29.0905 14.1721C29.0905 14.1721 28.8478 13.9125 28.3636 13.7201C27.8792 13.5278 27.7427 13.4961 27.7427 13.3935H29.2443V13.3935ZM18.041 16.5589C17.9434 16.8354 17.9147 17.1404 17.9665 17.5372C18.2814 18.2212 18.4336 19.4912 18.3365 20.2012C18.838 19.5014 19.0607 18.7144 19.2042 18.0848C19.4918 18.379 19.865 18.8003 20.1253 19.1415C20.1701 18.7719 20.2494 18.3155 20.3188 17.9858C20.6935 18.3437 21.4709 18.793 21.9966 18.9523C21.6428 17.459 21.0372 16.5071 21.0372 16.5071C20.5233 16.5588 19.6956 16.4336 19.3234 16.0675C19.3899 16.6085 19.7621 17.2306 19.7621 17.2306C18.9646 17.3084 18.3998 17.0362 18.041 16.5589H18.041ZM26.9593 16.5589C26.6005 17.0363 26.0357 17.3084 25.2382 17.2306C25.2382 17.2306 25.6103 16.6086 25.6768 16.0675C25.3047 16.4337 24.4771 16.5589 23.9631 16.5071C23.9631 16.5071 23.3576 17.4589 23.0035 18.9523C23.5295 18.7929 24.3068 18.3436 24.6814 17.9858C24.7509 18.3155 24.8301 18.7719 24.8749 19.1415C25.1353 18.8003 25.5083 18.3789 25.7962 18.0847C25.9396 18.7144 26.1623 19.5014 26.6638 20.2012C26.5666 19.4911 26.719 18.2212 27.0337 17.5372C27.0856 17.1403 27.0568 16.8353 26.9592 16.5588L26.9593 16.5589ZM20.1001 21.2638C20.401 21.7476 20.6688 22.3295 20.7616 22.8477C21.0501 22.4986 21.3547 21.8916 21.5612 21.1667C21.8144 21.4832 22.2565 22.1278 22.5002 22.6595C22.7436 22.1278 23.1859 21.4832 23.4389 21.1667C23.6455 21.8916 23.9502 22.4986 24.2387 22.8477C24.3314 22.3295 24.5992 21.7476 24.9001 21.2638C25.129 22.2055 26.0119 23.1214 26.9229 23.1903C26.3303 22.4208 26.3058 21.0906 26.3477 20.6475C25.9531 20.0338 25.6931 19.4802 25.5688 19.1039C25.3012 19.3686 24.8871 19.883 24.5156 20.4777C24.5156 20.4704 24.505 19.7321 24.3568 18.8356C23.9738 19.1817 23.2802 19.4323 22.9095 19.5297C22.6755 19.9113 22.6114 20.209 22.5002 20.6879C22.3889 20.209 22.3246 19.9113 22.0907 19.5297C21.7199 19.4323 21.0264 19.1817 20.6434 18.8356C20.4953 19.7321 20.4845 20.4704 20.4845 20.4776C20.1129 19.883 19.6991 19.3686 19.4313 19.1039C19.307 19.4802 19.0471 20.0338 18.6524 20.6476C18.6945 21.0906 18.6698 22.4208 18.0772 23.1904C18.9884 23.1215 19.8712 22.2056 20.0999 21.2639L20.1001 21.2638ZM11.8451 32.4001C12.3565 32.0665 12.6801 31.4602 13.0484 30.7188C12.834 30.8075 12.5232 30.9037 12.2118 30.9683C11.908 31.5561 11.4778 31.3281 11.4666 31.2447C11.5596 31.1416 11.6657 30.9893 11.7456 30.8567C11.6161 30.6144 11.4601 30.2534 11.3741 30.0302C10.9395 30.9454 10.1411 31.8751 9.47256 32.2378C9.86594 32.7848 11.0851 32.896 11.8451 32.4001L11.8451 32.4001ZM13.4255 30.8576C13.0629 31.6231 13.1482 32.8028 14.3028 32.8363C14.207 32.0009 14.5832 31.215 14.9854 30.8577C14.6395 30.943 14.0763 31.3968 14.0763 31.3968C14.0763 31.3968 13.9915 31.5914 13.9744 31.8431C13.7327 31.8863 13.5992 31.7001 13.6995 31.3117C13.6995 31.3117 13.5248 31.1119 13.4255 30.8577V30.8576ZM7.70995 31.7318C7.88015 31.7316 8.0497 31.7108 8.21493 31.67C9.32987 31.3945 10.3916 30.4409 11.0227 29.6403C10.6622 29.7545 10.2981 29.8286 9.89441 29.8695C9.89441 29.8695 9.61173 30.2003 9.39409 30.3225C9.2838 30.385 9.17359 30.4149 9.06915 30.4149C8.75374 30.4149 8.61981 30.1562 8.61981 30.1562C8.61981 30.1562 9.12855 29.9123 9.45231 29.5659C9.38816 29.3106 9.34738 28.957 9.33997 28.6044C8.46206 29.4864 6.81196 30.3434 5.65939 30.5097C5.8875 30.9847 6.69684 31.7318 7.70999 31.7318H7.70995ZM5.47775 29.8609C5.5356 29.8609 5.59342 29.8581 5.651 29.8526C6.79686 29.7392 8.17983 29.0053 9.07038 28.37C8.78688 28.4276 8.04152 28.4443 7.68786 28.395C7.56554 28.4769 7.02628 28.8178 6.57759 28.8747C5.75916 28.9784 5.6726 28.472 5.6726 28.472C6.1984 28.4078 6.80455 28.2302 7.38395 27.9604C7.44212 27.5241 7.54308 27.1351 7.6294 26.8484C6.36613 27.552 4.30522 28.0469 3.08265 28.0632C3.32729 28.6443 4.27576 29.8609 5.47779 29.8609L5.47775 29.8609ZM5.65796 25.7331C5.83407 25.4215 6.11278 25.0532 6.3665 24.7529C5.35797 25.0307 4.05964 25.0888 3.37135 25.0888C2.55987 25.0888 1.77139 25.0315 1.31902 24.9407C1.3592 25.756 2.13463 27.1624 3.66458 27.2996C3.74435 27.307 3.83264 27.3105 3.92705 27.3105C4.88154 27.3105 6.39951 26.9243 7.44408 26.5536C6.69929 26.4578 5.97995 26.281 5.8159 26.2122C5.42747 26.3236 4.49958 26.4793 4.19824 26.4626C3.51424 26.4251 3.44101 25.8999 3.44101 25.8999C3.44101 25.8999 4.67197 25.9519 5.65787 25.7331H5.65796ZM1.98527 24.2391C2.55366 24.4228 3.46012 24.5281 4.47241 24.5281C5.08997 24.5281 5.74149 24.4729 6.27139 24.3975C5.69907 24.2026 4.99282 23.908 4.53386 23.6162C3.96019 23.6047 3.18153 23.5884 2.6815 23.4353C1.94616 23.2102 1.95659 22.7072 1.96968 22.5942C2.60541 22.8499 3.68688 23.0945 4.4862 23.1421C4.78087 22.8582 5.23606 22.5199 5.71633 22.2254C3.81955 22.242 1.3981 21.4906 0.0375884 20.7702C-0.273484 23.3018 1.44543 24.0643 1.98527 24.239V24.2391ZM6.15479 18.9896C5.86209 18.4279 5.57667 17.6724 5.53899 17.0211C4.65188 16.3239 3.63926 15.4368 3.05336 14.4228C2.71476 13.8367 2.83973 13.3231 3.07954 13.1463C3.2624 13.783 4.45368 15.566 5.53351 16.4601C5.54202 15.8887 5.63811 15.2315 5.78706 14.7372C4.53157 13.3706 3.1243 11.1071 2.78434 10.2203C2.40225 10.5369 1.74362 11.3331 1.58174 12.455C1.41872 13.5843 1.78481 14.7444 2.66976 15.9032C3.35036 16.7946 4.84857 18.1236 6.15479 18.9897V18.9896ZM5.79398 21.8616C4.93088 21.2892 4.33258 20.7581 4.01374 20.2811C3.29251 20.0005 2.35999 19.5723 1.90058 19.1863C1.26936 18.6565 1.4692 18.1796 1.54279 18.0844C2.09854 18.652 3.30213 19.4701 4.15696 19.834C4.69066 19.626 5.43226 19.4735 6.15475 19.3846C4.01349 18.5384 1.71498 16.9499 0.51381 15.4524C0.270238 15.9255 -0.719187 18.1507 1.13579 19.9755C2.1127 20.9367 4.12501 21.5998 5.79385 21.8617L5.79398 21.8616ZM33.6262 30.0303C33.5401 30.2535 33.3841 30.6145 33.2546 30.8567C33.3343 30.9893 33.4407 31.1416 33.5336 31.2447C33.5224 31.3281 33.0922 31.5561 32.7885 30.9683C32.477 30.9038 32.1663 30.8075 31.9518 30.7188C32.3202 31.4603 32.6437 32.0665 33.1552 32.4001C33.9152 32.8961 35.1343 32.7848 35.5276 32.2378C34.8591 31.8751 34.0607 30.9454 33.6261 30.0302L33.6262 30.0303ZM31.5748 30.8577C31.4754 31.1119 31.3007 31.3116 31.3007 31.3116C31.4011 31.7001 31.2675 31.8863 31.0257 31.843C31.0087 31.5914 30.9238 31.3968 30.9238 31.3968C30.9238 31.3968 30.3607 30.9429 30.0147 30.8576C30.4169 31.215 30.7932 32.0009 30.6975 32.8363C31.8521 32.8029 31.9375 31.6231 31.5748 30.8577V30.8577ZM35.5481 29.566C35.8717 29.9123 36.3803 30.1562 36.3803 30.1562C36.3803 30.1562 36.2464 30.4149 35.9312 30.4149C35.8266 30.4149 35.7165 30.3851 35.606 30.3226C35.3885 30.2003 35.1058 29.8695 35.1058 29.8695C34.7021 29.8286 34.338 29.7546 33.9774 29.6404C34.6087 30.441 35.6703 31.3945 36.7852 31.67C36.9504 31.7108 37.12 31.7316 37.2903 31.7318C38.3033 31.7318 39.1128 30.9847 39.3408 30.5098C38.1883 30.3434 36.5382 29.4865 35.6603 28.6045C35.6528 28.957 35.612 29.3106 35.5481 29.566V29.566ZM37.6162 27.9605C38.1957 28.2303 38.8019 28.4078 39.3278 28.4721C39.3278 28.4721 39.2411 28.9785 38.4226 28.8748C37.974 28.8178 37.4346 28.4769 37.3124 28.395C36.9588 28.4443 36.2132 28.4276 35.9298 28.37C36.8204 29.0053 38.2034 29.7392 39.3491 29.8526C39.4068 29.8581 39.4646 29.8609 39.5225 29.8609C40.7245 29.8609 41.6729 28.6443 41.9175 28.0633C40.695 28.0469 38.6342 27.552 37.3709 26.8484C37.4572 27.1352 37.5581 27.5241 37.6162 27.9604V27.9605ZM38.6336 24.7529C38.8874 25.0533 39.1661 25.4215 39.3422 25.7331C40.3281 25.9519 41.559 25.8999 41.559 25.8999C41.559 25.8999 41.4859 26.425 40.8021 26.4626C40.5006 26.4792 39.5728 26.3236 39.1844 26.2121C39.0202 26.2809 38.301 26.4577 37.5562 26.5536C38.6006 26.9243 40.1188 27.3106 41.0732 27.3106C41.1677 27.3106 41.2559 27.307 41.3356 27.2997C42.8656 27.1625 43.6411 25.756 43.6812 24.9407C43.229 25.0315 42.4403 25.0888 41.6289 25.0888C40.9408 25.0888 39.6422 25.0307 38.6336 24.7529H38.6336ZM44.9628 20.7703C43.6021 21.4907 41.1807 22.2421 39.2839 22.2255C39.7641 22.52 40.2193 22.8583 40.514 23.1422C41.3132 23.0945 42.3947 22.85 43.0304 22.5943C43.0435 22.7072 43.0539 23.2103 42.3187 23.4354C41.8187 23.5885 41.04 23.6047 40.4663 23.6162C40.0073 23.9081 39.3012 24.2027 38.7287 24.3976C39.2587 24.4728 39.9102 24.5281 40.5278 24.5281C41.5401 24.5281 42.4465 24.4228 43.0149 24.2391C43.5547 24.0644 45.2738 23.3019 44.9627 20.7703H44.9628ZM41.9208 13.1463C42.1606 13.3231 42.2855 13.8368 41.9469 14.4229C41.3609 15.4368 40.3485 16.3239 39.4612 17.0211C39.4236 17.6724 39.1381 18.428 38.8454 18.9897C40.1516 18.1236 41.6499 16.7946 42.3304 15.9033C43.2154 14.7444 43.5815 13.5843 43.4184 12.4551C43.2565 11.3331 42.598 10.5369 42.2158 10.2204C41.8759 11.1072 40.4685 13.3707 39.213 14.7372C39.362 15.2315 39.4582 15.8887 39.4668 16.4601C40.5464 15.566 41.7378 13.7831 41.9208 13.1463V13.1463ZM40.8432 19.8341C41.6981 19.4701 42.9018 18.652 43.4573 18.0844C43.5309 18.1797 43.7307 18.6565 43.0996 19.1863C42.6402 19.5723 41.7076 20.0006 40.9865 20.2811C40.6676 20.7581 40.0694 21.2892 39.2063 21.8617C40.8751 21.5999 42.8875 20.9367 43.8646 19.9755C45.7194 18.1508 44.7299 15.9255 44.4864 15.4525C43.2853 16.95 40.9867 18.5385 38.8454 19.3847C39.568 19.4736 40.3096 19.6261 40.8432 19.8342L40.8432 19.8341ZM35.8538 17.2724C35.1583 18.887 33.3952 20.3265 32.2547 21.0472C31.7343 21.3759 31.9242 21.9993 32.0907 22.2759C33.6444 24.8592 30.819 26.7845 28.267 25.5042C28.8239 25.5103 29.386 25.0367 29.4639 24.6147C29.2869 24.7677 28.5623 24.6836 28.3481 24.4856C28.6768 24.3134 28.755 24.139 28.772 23.9758C28.3654 24.2256 27.5437 24.26 27.3015 23.838C25.9532 23.8016 25.0562 22.7484 24.957 22.4445C24.8571 22.7679 24.6956 23.3329 24.6426 23.8904C24.2769 23.6426 23.6524 23.0818 23.3268 22.3213C22.9584 22.848 22.6805 23.4413 22.5001 24.0665C22.3197 23.4413 22.042 22.848 21.6733 22.3213C21.3477 23.0818 20.7231 23.6427 20.3576 23.8905C20.3044 23.3329 20.1432 22.7679 20.0432 22.4446C19.944 22.7486 19.0471 23.8018 17.6987 23.8381C17.4565 24.2601 16.6348 24.2257 16.2283 23.9759C16.2452 24.1391 16.3234 24.3135 16.6521 24.4856C16.4379 24.6837 15.7133 24.7679 15.5363 24.6148C15.6141 25.0368 16.1764 25.5104 16.7331 25.5043C14.1811 26.7845 11.3557 24.8593 12.9095 22.276C13.076 21.9993 13.2658 21.376 12.7456 21.0473C11.6051 20.3265 9.84188 18.887 9.14643 17.2724C9.06379 17.9307 9.12679 19.5646 9.83321 20.5813C9.3171 20.7789 8.65519 21.0994 8.21023 21.3967C8.49168 21.7169 9.14696 22.27 9.58723 22.5706C9.22784 22.8905 8.66992 23.5031 8.37714 23.9042C8.7481 24.1251 9.49559 24.3932 10.0668 24.5741C9.80273 25.0103 9.39671 25.7971 9.29468 26.2653C9.93426 26.3584 10.5872 26.3499 11.1634 26.3317C11.0899 26.8777 11.1382 27.5633 11.196 28.0628C11.7896 27.9774 12.4426 27.7362 12.8758 27.5079C12.958 27.8846 13.1845 28.5801 13.3875 28.9524C13.9507 28.4173 14.6934 28.1724 15.381 28.3142C16.7889 28.6045 17.2074 30.0303 17.2074 30.0303L17.2096 25.6931V25.2089C17.2096 24.9385 17.3549 24.7955 17.6156 24.7956H27.3847C27.6455 24.7955 27.7907 24.9386 27.7907 25.2089V25.6931L27.7929 30.0302C27.7929 30.0302 28.2114 28.6044 29.6192 28.3141C30.3069 28.1723 31.0497 28.4172 31.6129 28.9523C31.816 28.58 32.0425 27.8846 32.1246 27.5078C32.5578 27.7361 33.2108 27.9773 33.8044 28.0628C33.8621 27.5633 33.9104 26.8777 33.837 26.3317C34.4066 26.3908 35.0618 26.3908 35.7056 26.2653C35.6038 25.7971 35.1976 25.0103 34.9335 24.5742C35.5276 24.4146 36.2522 24.1251 36.6233 23.9042C36.3306 23.5032 35.7726 22.8906 35.4132 22.5707C35.8533 22.27 36.5086 21.7169 36.7902 21.3968C36.3452 21.0995 35.6832 20.7789 35.1671 20.5814C35.8735 19.5647 35.9366 17.9308 35.8538 17.2724H35.8538ZM18.0987 12.1952L18.0406 12.3474C19.7476 12.3474 21.3884 11.7626 21.8262 9.72632H20.5188C20.2867 11.1933 19.4255 12.1952 18.0987 12.1952H18.0987ZM10.7191 8.88225C10.7191 8.88225 11.6528 9.09882 12.0182 10.4143C12.3836 11.7298 13.3019 12.3589 14.244 12.3589L14.186 12.1797C13.6378 12.1114 12.8649 11.3297 12.7204 9.88198C12.5746 8.42451 12.2175 8.23674 12.2175 8.23674C11.8486 7.98131 10.9213 8.65598 10.719 8.88229L10.7191 8.88225ZM7.98805 9.47064C8.76684 9.44511 9.29088 9.6931 10.2697 8.80043C11.4251 7.74612 11.9737 7.92632 11.9737 7.92632C11.384 7.54227 10.5617 7.3716 10.2793 7.59341C9.99693 7.81538 9.61467 8.41085 8.97228 8.83483C8.06696 9.43227 7.1371 9.2746 7.0955 9.83146H7.1207C7.1207 9.83146 7.20939 9.49641 7.98797 9.47064H7.98805ZM8.70641 12.9653C9.17981 13.4326 9.2233 14.3927 9.2233 14.3927C9.2233 14.3927 9.79022 13.375 9.32303 12.293C8.85598 11.2112 7.90136 10.3812 8.8372 9.74939C8.26558 9.75422 7.64613 9.62258 7.37409 10.0106C7.28941 10.1314 7.21094 10.4309 7.49587 10.8571C7.85792 11.3986 8.76229 12.6579 8.02123 13.4965C8.56303 13.3963 8.70637 12.9652 8.70637 12.9652L8.70641 12.9653ZM14.5534 12.3532H17.7608C17.7608 12.3532 17.8402 12.1583 17.9413 11.8767H14.373C14.4743 12.1583 14.5534 12.3532 14.5534 12.3532V12.3532ZM16.4727 7.79325C16.4727 7.61791 16.3343 7.47551 16.1636 7.47551C15.9929 7.47551 15.8544 7.61787 15.8544 7.79325C15.8544 7.96875 15.9929 8.11091 16.1636 8.11091C16.3342 8.11091 16.4727 7.96879 16.4727 7.79325V7.79325ZM18.0747 11.5172C18.2117 11.0865 18.3663 10.4315 18.3663 10.1154C18.3663 9.53777 18.0558 8.89828 16.9349 8.70143C16.9349 9.39954 16.5961 11.11 16.1865 11.11H16.1405C15.7311 11.11 15.3923 9.41226 15.3923 8.70126C14.2677 8.89787 13.9479 9.53757 13.9479 10.1154C13.9479 10.4315 14.1026 11.0865 14.2398 11.5172H18.0747H18.0747ZM16.1636 10.6309C16.377 10.6309 16.5499 9.51413 16.5499 8.95809C16.5499 8.6543 16.3771 8.45507 16.1637 8.45507C15.9501 8.45507 15.7771 8.6543 15.7771 8.95809C15.7771 9.51413 15.9501 10.6309 16.1637 10.6309H16.1636ZM15.9574 7.05194H16.3697L16.3182 6.52241L16.8334 6.57543V6.15177L16.3182 6.20479L16.3697 5.67518H15.9574L16.0089 6.20479L15.4937 6.15177V6.57543L16.009 6.52241L15.9574 7.05198L15.9574 7.05194ZM24.4814 9.72632H23.1739C23.6119 11.7626 25.2526 12.3474 26.9595 12.3474L26.9016 12.1952C25.5748 12.1952 24.7135 11.1934 24.4814 9.72632H24.4814ZM30.7562 12.359C31.6983 12.359 32.6165 11.7298 32.9821 10.4143C33.3474 9.0989 34.2812 8.88233 34.2812 8.88233C34.0788 8.6561 33.1517 7.98139 32.7827 8.23678C32.7827 8.23678 32.4257 8.42456 32.2799 9.88206C32.1354 11.3297 31.3624 12.1114 30.8143 12.1798L30.7562 12.359V12.359ZM34.7306 8.80047C35.7093 9.6931 36.2334 9.44519 37.0122 9.47068C37.7907 9.49645 37.8794 9.8315 37.8794 9.8315H37.9046C37.863 9.27464 36.9331 9.43231 36.028 8.83487C35.3856 8.41089 35.0032 7.81542 34.7209 7.59345C34.4384 7.3716 33.6161 7.54231 33.0265 7.92637C33.0265 7.92637 33.5751 7.74616 34.7306 8.80047H34.7306ZM37.6261 10.0107C37.354 9.62266 36.7347 9.7543 36.163 9.74943C37.0988 10.3812 36.1445 11.2112 35.6772 12.293C35.2101 13.375 35.7769 14.3927 35.7769 14.3927C35.7769 14.3927 35.8205 13.4326 36.2938 12.9653C36.2938 12.9653 36.4372 13.3964 36.979 13.4965C36.2379 12.658 37.1423 11.3987 37.5045 10.8571C37.7893 10.431 37.7108 10.1314 37.6261 10.0106L37.6261 10.0107ZM30.4468 12.3532C30.4468 12.3532 30.5259 12.1583 30.6272 11.8767H27.059C27.16 12.1583 27.2394 12.3532 27.2394 12.3532H30.4468V12.3532ZM29.1457 7.79329C29.1457 7.61795 29.0073 7.47555 28.8366 7.47555C28.666 7.47555 28.5274 7.61791 28.5274 7.79329C28.5274 7.96879 28.6659 8.11095 28.8366 8.11095C29.0073 8.11095 29.1457 7.96883 29.1457 7.79329V7.79329ZM30.7604 11.5172C30.8977 11.0865 31.0523 10.4315 31.0523 10.1154C31.0523 9.53761 30.7324 8.89791 29.6079 8.70135C29.6079 9.41222 29.2692 11.11 28.8597 11.11H28.8137C28.4041 11.11 28.0653 9.39958 28.0653 8.70143C26.9443 8.89828 26.634 9.53777 26.634 10.1154C26.634 10.4315 26.7885 11.0865 26.9255 11.5172H30.7605L30.7604 11.5172ZM28.8366 10.631C29.0501 10.631 29.2231 9.51417 29.2231 8.95813C29.2231 8.65434 29.0501 8.45511 28.8366 8.45511C28.6231 8.45511 28.4502 8.65434 28.4502 8.95813C28.4502 9.51417 28.6231 10.631 28.8366 10.631V10.631ZM28.6306 7.05198H29.0428L28.9914 6.52245L29.5066 6.57547V6.15182L28.9914 6.20483L29.0428 5.67523H28.6307L28.6822 6.20483L28.1668 6.15182V6.57547L28.6822 6.52245L28.6307 7.05202L28.6306 7.05198ZM7.64552 19.7807C6.81241 19.8008 5.34537 19.9673 4.60025 20.2045C5.10671 20.8145 6.42921 21.6902 7.2217 22.0622C6.60545 22.2964 5.50005 22.8908 5.03908 23.3197C5.633 23.6879 6.93747 24.1086 7.55401 24.2462C7.19507 24.5382 6.45593 25.3828 6.18478 25.8382C6.69533 25.9979 7.74505 26.1368 8.41162 26.1761C8.19791 26.6228 7.95451 27.4113 7.89003 27.9251C8.22045 27.9586 9.3243 27.9015 9.87085 27.7785C9.82397 28.2262 9.8418 29.0408 9.91572 29.3919C10.455 29.3143 11.2249 29.0967 11.5832 28.9578C11.6869 29.357 12.0577 30.2165 12.188 30.4207C12.62 30.3375 13.1358 30.1605 13.5148 29.9613C13.6346 30.2812 13.9068 30.7598 13.9821 30.8807C15.2449 29.6005 17.0481 30.6387 17.0481 32.001C16.9186 32.8985 15.6549 32.8483 14.9897 33.2702C14.115 33.825 14.2663 35.111 13.366 35.3085C14.2167 35.848 14.4642 34.8355 15.3478 34.8066C15.2299 35.3528 15.2411 36.3224 15.3297 36.7285C15.6933 36.447 16.2034 36.2321 16.5371 36.2103C16.4546 36.5289 16.3903 37.2744 16.5096 37.7387C16.744 37.5605 17.6194 36.7971 19.698 37.2879C19.95 37.3473 18.2881 37.2818 18.4954 37.8195C18.6588 38.2433 18.705 38.538 18.5097 39.1395C18.5978 39.1713 18.7 39.1864 18.8102 39.1864C19.2762 39.1864 19.8805 38.9151 20.1206 38.4893C20.3061 38.6275 20.3061 39.6126 19.6846 39.8573C20.3485 39.9058 20.854 39.365 20.9521 39.0327C20.9521 39.0327 21.2766 39.8064 21.6615 40.0604C21.9031 39.9755 22.3337 39.5737 22.5001 39.1565C22.6663 39.5738 23.097 39.9755 23.3385 40.0604C23.7234 39.8064 24.0479 39.0327 24.0479 39.0327C24.146 39.365 24.6518 39.9058 25.3156 39.8573C24.6941 39.6126 24.6941 38.6275 24.8795 38.4893C25.1196 38.9151 25.7239 39.1864 26.1901 39.1864C26.3001 39.1864 26.4025 39.1712 26.4906 39.1395C26.2953 38.538 26.3415 38.2433 26.5048 37.8195C26.7122 37.2818 25.0503 37.3474 25.3023 37.2879C27.3804 36.7971 28.2563 37.5605 28.4907 37.7387C28.61 37.2744 28.5456 36.5289 28.4632 36.2103C28.7968 36.2321 29.3068 36.447 29.6706 36.7285C29.7588 36.3224 29.7703 35.3527 29.6522 34.8066C30.5358 34.8354 30.7833 35.848 31.6341 35.3085C30.7338 35.111 30.8851 33.8249 30.0104 33.2702C29.3452 32.8483 28.0814 32.8985 27.9519 32.0009C27.9519 30.6387 29.7552 29.6005 31.018 30.8807C31.0931 30.7598 31.3653 30.2811 31.4852 29.9612C31.8642 30.1605 32.3801 30.3374 32.812 30.4207C32.9423 30.2164 33.3132 29.3569 33.4168 28.9577C33.7751 29.0966 34.5451 29.3142 35.0843 29.3919C35.1582 29.0407 35.1761 28.2262 35.1292 27.7784C35.6757 27.9014 36.7794 27.9586 37.1099 27.9251C37.0455 27.4112 36.8022 26.6228 36.5883 26.176C37.255 26.1367 38.3047 25.9978 38.8154 25.8381C38.544 25.3826 37.8049 24.5381 37.4461 24.246C38.0625 24.1085 39.367 23.6878 39.961 23.3196C39.5001 22.8906 38.3945 22.2963 37.7783 22.0621C38.5709 21.6901 39.8932 20.8144 40.3999 20.2044C39.6546 19.9672 38.1876 19.8007 37.3545 19.7806C39.0789 18.6006 39.1321 16.0412 38.6354 14.6504C38.3015 15.4935 37.1945 16.8787 36.4798 17.6255C36.5432 18.3363 36.3127 19.5971 35.9173 20.3667C36.4833 20.5817 37.1543 20.9061 37.6295 21.2677C37.3141 21.6647 36.6356 22.2807 36.21 22.6145C36.5702 22.9913 37.1759 23.6833 37.4459 24.0834C37.047 24.3822 36.179 24.725 35.7341 24.8824C35.953 25.3315 36.2711 26.151 36.3533 26.7166C35.8466 26.8004 35.1491 26.8571 34.4198 26.8483C34.4552 27.3899 34.3791 28.2286 34.2848 28.7307C33.6084 28.6769 32.8105 28.3992 32.4547 28.2207C32.2664 28.9693 31.8013 29.6955 31.7809 29.7341C29.6667 27.4289 27.7928 29.6036 27.7928 31.6354V34.4041C27.7928 35.7137 27.3804 36.3116 26.1934 36.3116H24.6574C23.7011 36.3116 22.8998 36.7174 22.5 37.4971C22.1001 36.7174 21.2988 36.3116 20.3426 36.3116H18.8064C17.6194 36.3116 17.2069 35.7137 17.2069 34.4041V31.6353C17.2069 29.6036 15.3331 27.4289 13.219 29.7341C13.1986 29.6955 12.7334 28.9693 12.5451 28.2207C12.1893 28.3992 11.3914 28.6769 10.7152 28.7308C10.6207 28.2286 10.5447 27.39 10.5801 26.8484C9.85084 26.8572 9.15334 26.8005 8.64648 26.7167C8.72879 26.151 9.04682 25.3316 9.26584 24.8824C8.821 24.7251 7.95295 24.3823 7.55405 24.0835C7.82384 23.6834 8.42966 22.9913 8.78983 22.6145C8.36417 22.2807 7.68569 21.6647 7.37037 21.2677C7.84552 20.9061 8.51655 20.5816 9.08253 20.3666C8.68719 19.5971 8.45654 18.3363 8.52003 17.6254C7.80535 16.8786 6.69827 15.4934 6.36437 14.6503C5.86774 16.0412 5.92092 18.6006 7.6454 19.7805L7.64552 19.7807ZM2.8869 33.0001L2.73145 33.1661C2.73145 33.1661 3.05389 33.5877 3.31424 33.4273C3.46245 33.1536 3.04313 32.835 3.04313 32.835L2.88686 33.0001H2.8869Z" fill="#8E8E8E"/>
</g>
<defs>
<clipPath id="clip0">
<rect width="45" height="49.909" fill="white"/>
</clipPath>
</defs>
</svg>
