<svg xmlns="http://www.w3.org/2000/svg" viewBox="0 0 20 20">
  <defs>
    <style>
      .cls-1 {
        fill: #fff;
      }
    </style>
  </defs>
  <path id="XMLID_142_" class="cls-1" d="M10,20c-2.7,0-3.058-.015-4.109-.06H5.873a7.315,7.315,0,0,1-2.426-.464,4.895,4.895,0,0,1-1.77-1.151A4.889,4.889,0,0,1,.526,16.554a7.3,7.3,0,0,1-.463-2.427C.008,13.054,0,12.721,0,10S.016,6.935.062,5.883v-.01A7.3,7.3,0,0,1,.526,3.447a4.895,4.895,0,0,1,1.151-1.77A4.895,4.895,0,0,1,3.447.526,7.287,7.287,0,0,1,5.873.062C6.946.008,7.279,0,10,0s3.065.016,4.115.062h.011a7.307,7.307,0,0,1,2.427.463,4.889,4.889,0,0,1,1.769,1.151,4.895,4.895,0,0,1,1.151,1.77,7.307,7.307,0,0,1,.464,2.426C19.992,6.93,20,7.262,20,10c0,2.7-.015,3.058-.06,4.108v.019a7.327,7.327,0,0,1-.464,2.427,5.1,5.1,0,0,1-2.92,2.92,7.319,7.319,0,0,1-2.427.464C13.07,19.992,12.737,20,10,20ZM9.993,1.793c-2.638,0-2.983.015-4.008.061l-.034,0A5.536,5.536,0,0,0,4.1,2.2a3.133,3.133,0,0,0-1.151.75A3.091,3.091,0,0,0,2.2,4.1a5.45,5.45,0,0,0-.348,1.854C1.793,7,1.786,7.326,1.786,10c0,2.631.015,2.976.059,4l0,.042A5.516,5.516,0,0,0,2.2,15.9a3.324,3.324,0,0,0,1.9,1.9,5.437,5.437,0,0,0,1.855.347c1.039.054,1.364.062,4.042.062,2.637,0,2.98-.015,4-.06l.043,0a5.5,5.5,0,0,0,1.855-.347,3.134,3.134,0,0,0,1.152-.75,3.1,3.1,0,0,0,.749-1.151,5.467,5.467,0,0,0,.348-1.855l0-.054c.045-1.023.06-1.367.06-3.988s-.015-2.954-.059-3.977l0-.065A5.5,5.5,0,0,0,17.789,4.1a3.134,3.134,0,0,0-.749-1.152,3.127,3.127,0,0,0-1.152-.75,5.472,5.472,0,0,0-1.855-.347C12.978,1.8,12.651,1.793,9.993,1.793Z"/>
</svg>
