<svg width="20" height="16" viewBox="0 0 20 16" fill="none" xmlns="http://www.w3.org/2000/svg">
<path d="M18 0.000488281H2C0.9 0.000488281 0.00999999 0.900488 0.00999999 2.00049L0 14.0005C0 15.1005 0.9 16.0005 2 16.0005H18C19.1 16.0005 20 15.1005 20 14.0005V2.00049C20 0.900488 19.1 0.000488281 18 0.000488281ZM17 14.0005H3C2.45 14.0005 2 13.5505 2 13.0005V4.00049L8.94 8.34049C9.59 8.75049 10.41 8.75049 11.06 8.34049L18 4.00049V13.0005C18 13.5505 17.55 14.0005 17 14.0005ZM10 7.00049L2 2.00049H18L10 7.00049Z" fill="#2772D8"/>
</svg>
