<svg xmlns="http://www.w3.org/2000/svg" viewBox="0 0 182.485 30">
    <defs>
    <style>
        .a{fill:#00b3ef;}
        .b{fill:#fff;}
        .c{fill:#fc8a23;}
        .d{fill:#7efbfc;}
        .e,.h{fill:none;}
        .e{stroke:#fff;stroke-width:2px;}
        .f{fill:#6bbdff;}
        .g{stroke:none;}
    </style>
    </defs>
    <g transform="translate(-869 -54)">
        <g transform="translate(940 68)">
            <rect class="a" width="16" height="2" rx="1" transform="translate(0 7)"/>
            <rect class="a" width="10" height="2" rx="1" transform="translate(16.414 0.757) rotate(45)"/>
            <rect class="a" width="10" height="2" rx="1" transform="translate(15 13.828) rotate(-45)"/>
        </g>
    <g transform="translate(263 738)">
        <g transform="translate(653 -670)">
            <rect class="b" width="16" height="2" rx="1" transform="translate(0 7)"/>
            <rect class="b" width="10" height="2" rx="1" transform="translate(16.414 0.757) rotate(45)"/>
            <rect class="b" width="10" height="2" rx="1" transform="translate(15 13.828) rotate(-45)"/>
        </g>
    </g>
    <g transform="translate(988 84)">
        <rect class="b" width="24" height="2" rx="1" transform="translate(24 -7) rotate(180)"/>
        <rect class="b" width="10" height="2" rx="1" transform="translate(31.485 -7.828) rotate(135)"/>
        <rect class="b" width="10" height="2" rx="1" transform="translate(30.071 -6.757) rotate(-135)"/>
    </g>
    <g transform="translate(964 68)">
        <rect class="c" width="16" height="2" rx="1" transform="translate(0 7)"/>
        <rect class="c" width="10" height="2" rx="1" transform="translate(16.414 0.757) rotate(45)"/>
        <rect class="c" width="10" height="2" rx="1" transform="translate(15 13.828) rotate(-45)"/>
    </g>
        <g transform="translate(1020 84)"><rect class="d" width="24" height="2" rx="1" transform="translate(24 -7) rotate(180)"/>
        <rect class="d" width="10" height="2" rx="1" transform="translate(31.485 -7.828) rotate(135)"/>
        <rect class="d" width="10" height="2" rx="1" transform="translate(30.071 -6.757) rotate(-135)"/>
    </g>
    <path class="b" d="M18894.6-623.888l-6.23-6.23-6.232,6.23a1.036,1.036,0,0,1-1.463,0,1.039,1.039,0,0,1,0-1.466l6.23-6.231-6.229-6.229a1.046,1.046,0,0,1,0-1.47,1.035,1.035,0,0,1,1.463,0l6.234,6.231,6.229-6.231a1.036,1.036,0,0,1,1.465,0,1.031,1.031,0,0,1,.307.735,1.029,1.029,0,0,1-.307.734l-6.229,6.228,6.229,6.228a1.031,1.031,0,0,1,.309.735,1.039,1.039,0,0,1-.307.735,1.022,1.022,0,0,1-.732.3,1.037,1.037,0,0,1-.734-.3Z" transform="translate(-17980.789 707.172)"/>
    <g transform="translate(61 -351)">
        <g class="e" transform="translate(808 405)">
        <circle class="g" cx="11.5" cy="11.5" r="11.5"/>
        <circle class="h" cx="11.5" cy="11.5" r="10.5"/>
    </g>
    <path class="e" d="M11994.9,12825l7.363,7.363" transform="translate(-11168.137 -12401.137)"/><circle class="f" cx="3" cy="3" r="3" transform="translate(832 429)"/>
            </g>
        </g>
    </svg>