<svg width="184" height="40" viewBox="0 0 184 40" fill="none" xmlns="http://www.w3.org/2000/svg">
<g clip-path="url(#clip0)">
<path d="M67 14.072V0.776458C67 0.531695 67.1984 0.333276 67.4432 0.333276H72.1497C72.2582 0.333276 72.363 0.373108 72.4441 0.445219L80.001 7.16244C80.1689 7.3117 80.422 7.3117 80.5899 7.16244L88.1468 0.445195C88.2279 0.373084 88.3327 0.333252 88.4412 0.333252H93.1477C93.3925 0.333252 93.5909 0.531671 93.5909 0.776434V30.0265C93.5909 30.2713 93.3925 30.4697 93.1477 30.4697H88.7159C88.4711 30.4697 88.2727 30.2713 88.2727 30.0265V8.41106C88.2727 8.02866 87.8209 7.82577 87.5351 8.07983L80.5899 14.2534C80.422 14.4027 80.1689 14.4027 80.001 14.2534L73.0558 8.07983C72.77 7.82577 72.3182 8.02866 72.3182 8.41106V14.072C72.3182 14.3167 72.1198 14.5151 71.875 14.5151H67.4432C67.1984 14.5151 67 14.3167 67 14.072Z" fill="url(#paint0_linear)"/>
<path d="M97.5798 0.333252H123.284C123.529 0.333252 123.728 0.531671 123.728 0.776434V30.0264C123.728 30.2712 123.529 30.4696 123.284 30.4696H97.5798C97.3351 30.4696 97.1367 30.2712 97.1367 30.0264V14.9582C97.1367 14.7135 97.3351 14.515 97.5798 14.515H102.012C102.256 14.515 102.455 14.7135 102.455 14.9582V24.7082C102.455 24.953 102.653 25.1514 102.898 25.1514H117.966C118.211 25.1514 118.409 24.953 118.409 24.7082V6.09462C118.409 5.84986 118.211 5.65144 117.966 5.65144H97.5798C97.3351 5.65144 97.1367 5.45302 97.1367 5.20826V0.776433C97.1367 0.531671 97.3351 0.333252 97.5798 0.333252Z" fill="url(#paint1_linear)"/>
<path d="M127.272 0.776433V14.072C127.272 14.3167 127.471 14.5151 127.716 14.5151H132.147C132.392 14.5151 132.591 14.3167 132.591 14.072V9.6846C132.591 9.2543 133.142 9.07644 133.393 9.42564L148.413 30.2855C148.496 30.4011 148.63 30.4697 148.772 30.4697H153.42C153.665 30.4697 153.863 30.2713 153.863 30.0265V0.77649C153.863 0.531727 153.665 0.333308 153.42 0.333308H148.988C148.744 0.333308 148.545 0.531728 148.545 0.776491V20.2765C148.545 20.7024 148.003 20.8831 147.747 20.5424L132.724 0.510578C132.64 0.398984 132.509 0.333307 132.369 0.333305L127.716 0.333252C127.471 0.333249 127.272 0.531669 127.272 0.776433Z" fill="url(#paint2_linear)"/>
<path d="M157.409 0.776434V14.0719C157.409 14.3166 157.608 14.515 157.852 14.515H162.284C162.529 14.515 162.727 14.3166 162.727 14.0719V6.09462C162.727 5.84986 162.926 5.65144 163.171 5.65144H178.239C178.483 5.65144 178.682 5.84986 178.682 6.09462V24.7082C178.682 24.953 178.483 25.1514 178.239 25.1514H157.852C157.608 25.1514 157.409 25.3498 157.409 25.5946V30.0264C157.409 30.2712 157.608 30.4696 157.852 30.4696H183.557C183.802 30.4696 184 30.2712 184 30.0264V0.776434C184 0.531672 183.802 0.333252 183.557 0.333252H157.852C157.608 0.333252 157.409 0.531671 157.409 0.776434Z" fill="url(#paint3_linear)"/>
<path d="M67 20.2767L67 38.8903C67 39.1351 67.1984 39.3335 67.4432 39.3335H172.92C173.165 39.3335 173.364 39.1351 173.364 38.8903V20.2767C173.364 20.0319 173.165 19.8335 172.92 19.8335H168.489C168.244 19.8335 168.045 20.0319 168.045 20.2767V33.5721C168.045 33.8169 167.847 34.0153 167.602 34.0153H72.7614C72.5166 34.0153 72.3182 33.8169 72.3182 33.5721V20.2767C72.3182 20.0319 72.1198 19.8335 71.875 19.8335H67.4432C67.1984 19.8335 67 20.0319 67 20.2767Z" fill="url(#paint4_linear)"/>
<path d="M0.0265477 23.2063C0.0198453 23.0918 0.00643707 22.9841 0.00643707 22.8697C0.00643707 17.9238 0.00420664 12.9802 -0.000261594 8.03884C-0.0114955 7.92541 0.012925 7.81129 0.0696032 7.7124C0.126281 7.6135 0.212392 7.53474 0.315942 7.48709C4.63608 5.03084 8.95399 2.56573 13.2697 0.0917694C13.3482 0.0333456 13.4432 0.00123882 13.5411 3.51246e-05C13.639 -0.00116857 13.7347 0.0285924 13.8147 0.0850671C18.1012 2.57451 22.3921 5.06204 26.6875 7.54765C26.7831 7.61427 26.8731 7.68856 26.9566 7.76979C26.0415 8.28132 25.1194 8.77921 24.211 9.2972C22.5153 10.2662 20.8263 11.2485 19.1364 12.2245C18.4231 12.6417 17.7164 13.0656 17.0101 13.4895C15.9267 12.8569 14.8433 12.2245 13.7532 11.6054C13.6872 11.5766 13.6158 11.5623 13.5439 11.5635C13.4719 11.5646 13.401 11.5812 13.336 11.6121C12.3198 12.1773 11.3104 12.7695 10.2943 13.3356C10.2213 13.3718 10.1621 13.4308 10.1257 13.5037C10.0893 13.5766 10.0776 13.6593 10.0925 13.7394C10.0925 14.9707 10.0858 16.2023 10.0791 17.4406C9.95129 17.5078 9.82346 17.5751 9.69612 17.649C6.46639 19.4989 3.2432 21.3513 0.0265477 23.2063Z" fill="#3DB9FF"/>
<path d="M0.0265559 23.2065C3.25007 21.3493 6.4711 19.4943 9.68966 17.6416C9.81749 17.5676 9.94531 17.5071 10.0727 17.4331C10.0794 17.5475 10.0861 17.6552 10.0861 17.7697C10.0861 22.7694 10.0883 27.7714 10.0928 32.7755C10.1055 32.872 10.0877 32.9701 10.0418 33.0559C9.99597 33.1418 9.92438 33.2111 9.83711 33.2542C6.66148 35.1114 3.48529 36.9754 0.308535 38.8461C0.227868 38.894 0.133549 38.9338 -0.000976562 39.001V23.497C0.00644389 23.4082 0.0198536 23.3075 0.0265559 23.2065Z" fill="#EC1C24"/>
<path d="M17.0049 13.4905C17.7112 13.0666 18.4171 12.6359 19.1312 12.2254C20.8203 11.2429 22.5119 10.2671 24.2058 9.29817C25.1154 8.77994 26.036 8.27534 26.9514 7.77075C26.9581 7.88517 26.9581 7.99289 26.9581 8.10731V22.9114C26.9743 23.0032 26.9616 23.0978 26.9219 23.1821C26.8822 23.2665 26.8173 23.3364 26.7362 23.3824C23.5802 25.2336 20.4242 27.0885 17.2682 28.9473C17.1942 28.9878 17.1133 29.0213 16.9922 29.0751C17.0049 23.8387 17.0049 18.664 17.0049 13.4905Z" fill="#085896"/>
<path d="M44.8944 21.2111C44.4225 22.155 45.5447 23.0915 46.3889 22.4584L49.9333 19.8C50.4667 19.4 50.4667 18.6 49.9333 18.2L46.3889 15.5416C45.5447 14.9085 44.4225 15.845 44.8944 16.7889L46 19L44.8944 21.2111Z" fill="#747575"/>
</g>
<defs>
<linearGradient id="paint0_linear" x1="67" y1="7.81856" x2="184" y2="7.81856" gradientUnits="userSpaceOnUse">
<stop stop-color="#3DAEFF"/>
<stop offset="1" stop-color="#1E5DFF"/>
</linearGradient>
<linearGradient id="paint1_linear" x1="67" y1="7.81856" x2="184" y2="7.81856" gradientUnits="userSpaceOnUse">
<stop stop-color="#3DAEFF"/>
<stop offset="1" stop-color="#1E5DFF"/>
</linearGradient>
<linearGradient id="paint2_linear" x1="67" y1="7.81856" x2="184" y2="7.81856" gradientUnits="userSpaceOnUse">
<stop stop-color="#3DAEFF"/>
<stop offset="1" stop-color="#1E5DFF"/>
</linearGradient>
<linearGradient id="paint3_linear" x1="67" y1="7.81856" x2="184" y2="7.81856" gradientUnits="userSpaceOnUse">
<stop stop-color="#3DAEFF"/>
<stop offset="1" stop-color="#1E5DFF"/>
</linearGradient>
<linearGradient id="paint4_linear" x1="67" y1="19.8335" x2="173.364" y2="19.8335" gradientUnits="userSpaceOnUse">
<stop offset="0.323435" stop-color="#FF7A00"/>
<stop offset="1" stop-color="#FF4D00"/>
</linearGradient>
<clipPath id="clip0">
<rect width="184" height="40" fill="white"/>
</clipPath>
</defs>
</svg>
