<svg width="117" height="40" viewBox="0 0 117 40" fill="none" xmlns="http://www.w3.org/2000/svg">
<path d="M0 0.776458V14.072C0 14.3167 0.19842 14.5151 0.443182 14.5151H4.875C5.11976 14.5151 5.31818 14.3167 5.31818 14.072V8.41106C5.31818 8.02866 5.76999 7.82577 6.0558 8.07983L13.001 14.2534C13.1689 14.4027 13.422 14.4027 13.5899 14.2534L20.5351 8.07983C20.8209 7.82577 21.2727 8.02866 21.2727 8.41106V30.0265C21.2727 30.2713 21.4711 30.4697 21.7159 30.4697H26.1477C26.3925 30.4697 26.5909 30.2713 26.5909 30.0265V0.776434C26.5909 0.531671 26.3925 0.333252 26.1477 0.333252H21.4412C21.3327 0.333252 21.2279 0.373084 21.1468 0.445195L13.5899 7.16244C13.422 7.3117 13.1689 7.3117 13.001 7.16244L5.44412 0.445219C5.36299 0.373108 5.25823 0.333276 5.14968 0.333276H0.443182C0.198419 0.333276 0 0.531695 0 0.776458Z" fill="url(#paint0_linear)"/>
<path d="M56.2841 0.333313H30.5795C30.3348 0.333313 30.1364 0.531732 30.1364 0.776494V5.20832C30.1364 5.45308 30.3348 5.6515 30.5795 5.6515H50.9659C51.2107 5.6515 51.4091 5.84992 51.4091 6.09468V24.7083C51.4091 24.9531 51.2107 25.1515 50.9659 25.1515H35.8977C35.653 25.1515 35.4545 24.9531 35.4545 24.7083V14.9583C35.4545 14.7136 35.2561 14.5151 35.0114 14.5151H30.5795C30.3348 14.5151 30.1364 14.7136 30.1364 14.9583V30.0265C30.1364 30.2713 30.3348 30.4697 30.5795 30.4697H56.2841C56.5289 30.4697 56.7273 30.2713 56.7273 30.0265V0.776495C56.7273 0.531732 56.5289 0.333313 56.2841 0.333313Z" fill="url(#paint1_linear)"/>
<path d="M60.2727 0.776438V14.072C60.2727 14.3167 60.4711 14.5151 60.7159 14.5151H65.1477C65.3925 14.5151 65.5909 14.3167 65.5909 14.072V9.6846C65.5909 9.25431 66.1423 9.07645 66.3937 9.42565L81.4128 30.2855C81.4961 30.4011 81.6299 30.4697 81.7725 30.4697H86.4205C86.6652 30.4697 86.8636 30.2713 86.8636 30.0265V0.776495C86.8636 0.531732 86.6652 0.333313 86.4205 0.333313H81.9886C81.7439 0.333313 81.5455 0.531733 81.5455 0.776496V20.2765C81.5455 20.7024 81.0033 20.8831 80.7477 20.5424L65.7239 0.510583C65.6402 0.398989 65.5088 0.333312 65.3693 0.33331L60.7159 0.333257C60.4711 0.333254 60.2727 0.531674 60.2727 0.776438Z" fill="url(#paint2_linear)"/>
<path d="M90.4091 14.072V0.776495C90.4091 0.531732 90.6075 0.333313 90.8523 0.333313H116.557C116.802 0.333313 117 0.531733 117 0.776495V30.0265C117 30.2713 116.802 30.4697 116.557 30.4697H90.8523C90.6075 30.4697 90.4091 30.2713 90.4091 30.0265V25.5947C90.4091 25.3499 90.6075 25.1515 90.8523 25.1515H111.239C111.483 25.1515 111.682 24.9531 111.682 24.7083V6.09468C111.682 5.84992 111.483 5.6515 111.239 5.6515H96.1705C95.9257 5.6515 95.7273 5.84992 95.7273 6.09468V14.072C95.7273 14.3167 95.5289 14.5151 95.2841 14.5151H90.8523C90.6075 14.5151 90.4091 14.3167 90.4091 14.072Z" fill="url(#paint3_linear)"/>
<path d="M8.01477e-06 20.2767L-1.93727e-08 38.8903C-8.67379e-09 39.1351 0.198419 39.3335 0.443181 39.3335L105.92 39.3335C106.165 39.3335 106.364 39.1351 106.364 38.8903L106.364 20.2767C106.364 20.0319 106.165 19.8335 105.92 19.8335L101.489 19.8335C101.244 19.8335 101.045 20.0319 101.045 20.2767L101.045 33.5721C101.045 33.8169 100.847 34.0153 100.602 34.0153L5.76136 34.0153C5.5166 34.0153 5.31818 33.8169 5.31818 33.5721L5.31818 20.2767C5.31818 20.0319 5.11976 19.8335 4.875 19.8335L0.44319 19.8335C0.198427 19.8335 8.11771e-06 20.0319 8.01477e-06 20.2767Z" fill="url(#paint4_linear)"/>
<defs>
<linearGradient id="paint0_linear" x1="0" y1="0.333252" x2="117" y2="30.4697" gradientUnits="userSpaceOnUse">
<stop stop-color="#0094FF"/>
<stop offset="0.87565" stop-color="#5B32FF"/>
</linearGradient>
<linearGradient id="paint1_linear" x1="0" y1="0.333252" x2="117" y2="30.4697" gradientUnits="userSpaceOnUse">
<stop stop-color="#0094FF"/>
<stop offset="0.87565" stop-color="#5B32FF"/>
</linearGradient>
<linearGradient id="paint2_linear" x1="0" y1="0.333252" x2="117" y2="30.4697" gradientUnits="userSpaceOnUse">
<stop stop-color="#0094FF"/>
<stop offset="0.87565" stop-color="#5B32FF"/>
</linearGradient>
<linearGradient id="paint3_linear" x1="0" y1="0.333252" x2="117" y2="30.4697" gradientUnits="userSpaceOnUse">
<stop stop-color="#0094FF"/>
<stop offset="0.87565" stop-color="#5B32FF"/>
</linearGradient>
<linearGradient id="paint4_linear" x1="-4.26186e-07" y1="29.5835" x2="106.364" y2="29.5835" gradientUnits="userSpaceOnUse">
<stop stop-color="#FF9900"/>
<stop offset="0.886096" stop-color="#FF3D00"/>
</linearGradient>
</defs>
</svg>
