<svg width="55" height="52" viewBox="0 0 55 52" fill="none" xmlns="http://www.w3.org/2000/svg">
<path d="M0 0.684248V21.2106C0 21.5885 0.306331 21.8948 0.68421 21.8948H7.52632C7.90419 21.8948 8.21053 21.5885 8.21053 21.2106V0.684247C8.21053 0.306368 7.9042 3.65408e-05 7.52632 3.65408e-05H0.68421C0.306331 3.65408e-05 0 0.306369 0 0.684248Z" fill="url(#paint0_linear)"/>
<path d="M13.6842 21.2105V0.684211C13.6842 0.306332 13.9905 0 14.3684 0H54.0526C54.4305 0 54.7368 0.306332 54.7368 0.684211V45.8421C54.7368 46.22 54.4305 46.5263 54.0526 46.5263H14.3684C13.9905 46.5263 13.6842 46.22 13.6842 45.8421V39C13.6842 38.6221 13.9905 38.3158 14.3684 38.3158H45.8421C46.22 38.3158 46.5263 38.0095 46.5263 37.6316V8.89475C46.5263 8.51687 46.22 8.21054 45.8421 8.21054H22.5789C22.2011 8.21054 21.8947 8.51687 21.8947 8.89475V21.2105C21.8947 21.5884 21.5884 21.8947 21.2105 21.8947H14.3684C13.9905 21.8947 13.6842 21.5884 13.6842 21.2105Z" fill="url(#paint1_linear)"/>
<path d="M1.22658e-05 30.7894L-2.99085e-08 51.3158C-1.33909e-08 51.6937 0.306332 52 0.684211 52L7.52631 52C7.90419 52 8.21053 51.6937 8.21053 51.3158L8.21052 30.7894C8.21052 30.4115 7.90419 30.1052 7.52631 30.1052L0.684223 30.1052C0.306344 30.1052 1.24843e-05 30.4115 1.22658e-05 30.7894Z" fill="url(#paint2_linear)"/>
<path d="M38.3158 51.3158L38.3158 30.7894C38.3158 30.4115 38.0095 30.1052 37.6316 30.1052L30.7895 30.1052C30.4116 30.1052 30.1053 30.4115 30.1053 30.7894L30.1053 51.3158C30.1053 51.6937 30.4116 52 30.7895 52L37.6316 52C38.0095 52 38.3158 51.6937 38.3158 51.3158Z" fill="url(#paint3_linear)"/>
<defs>
<linearGradient id="paint0_linear" x1="0" y1="0" x2="58.0149" y2="4.52827" gradientUnits="userSpaceOnUse">
<stop stop-color="#0094FF"/>
<stop offset="0.87565" stop-color="#5B32FF"/>
</linearGradient>
<linearGradient id="paint1_linear" x1="0" y1="0" x2="58.0149" y2="4.52827" gradientUnits="userSpaceOnUse">
<stop stop-color="#0094FF"/>
<stop offset="0.87565" stop-color="#5B32FF"/>
</linearGradient>
<linearGradient id="paint2_linear" x1="-4.78527e-07" y1="41.0526" x2="38.3158" y2="41.0526" gradientUnits="userSpaceOnUse">
<stop stop-color="#FF9900"/>
<stop offset="0.886096" stop-color="#FF3D00"/>
</linearGradient>
<linearGradient id="paint3_linear" x1="-4.78527e-07" y1="41.0526" x2="38.3158" y2="41.0526" gradientUnits="userSpaceOnUse">
<stop stop-color="#FF9900"/>
<stop offset="0.886096" stop-color="#FF3D00"/>
</linearGradient>
</defs>
</svg>
