<svg width="117" height="52" viewBox="0 0 117 52" fill="none" xmlns="http://www.w3.org/2000/svg">
<g clip-path="url(#clip0)">
<path d="M0.0394584 31.0639C0.0304866 30.9107 0.0125383 30.7665 0.0125383 30.6133C0.0125383 23.9928 0.00955267 17.3753 0.00357151 10.7608C-0.0114662 10.6089 0.021223 10.4562 0.0970924 10.3238C0.172962 10.1914 0.288229 10.086 0.426841 10.0222C6.20978 6.73428 11.9897 3.43449 17.7667 0.122842C17.8718 0.0446364 17.999 0.00165828 18.13 4.70177e-05C18.261 -0.00156424 18.3892 0.0382738 18.4963 0.113871C24.2341 3.44624 29.978 6.77604 35.7278 10.1033C35.8557 10.1925 35.9762 10.2919 36.088 10.4006C34.863 11.0854 33.6287 11.7518 32.4127 12.4452C30.1429 13.7423 27.882 15.0573 25.6198 16.3636C24.665 16.9221 23.7191 17.4896 22.7736 18.0571C21.3233 17.2102 19.8731 16.3636 18.4139 15.535C18.3256 15.4964 18.2301 15.4773 18.1337 15.4788C18.0374 15.4804 17.9425 15.5026 17.8554 15.544C16.4952 16.3005 15.144 17.0932 13.7839 17.851C13.6862 17.8995 13.6069 17.9785 13.5582 18.076C13.5094 18.1736 13.4938 18.2844 13.5137 18.3916C13.5137 20.0398 13.5048 21.6884 13.4958 23.3459C13.3247 23.4359 13.1536 23.526 12.9831 23.625C8.65982 26.1012 4.34526 28.5808 0.0394584 31.0639Z" fill="#3DB9FF"/>
<path d="M0.0397846 31.0641C4.35477 28.5781 8.66644 26.0951 12.9748 23.615C13.1459 23.516 13.317 23.4349 13.4875 23.3359C13.4965 23.4891 13.5054 23.6333 13.5054 23.7864C13.5054 30.4792 13.5084 37.1748 13.5144 43.8732C13.5314 44.0024 13.5076 44.1337 13.4462 44.2486C13.3848 44.3635 13.289 44.4564 13.1722 44.5141C8.92128 47.0001 4.66964 49.4952 0.417242 51.9994C0.309261 52.0635 0.183006 52.1167 0.00292969 52.2067V31.4531C0.0128627 31.3342 0.0308129 31.1994 0.0397846 31.0641Z" fill="#EC1C24"/>
<path d="M22.7631 18.058C23.7086 17.4906 24.6535 16.9141 25.6094 16.3646C27.8705 15.0494 30.1348 13.7433 32.4023 12.4462C33.6199 11.7525 34.8522 11.0771 36.0775 10.4016C36.0864 10.5548 36.0864 10.699 36.0864 10.8521V30.6688C36.1081 30.7917 36.0912 30.9183 36.038 31.0312C35.9848 31.1441 35.898 31.2378 35.7894 31.2994C31.5648 33.7773 27.3402 36.2603 23.1155 38.7485C23.0165 38.8027 22.9082 38.8475 22.7461 38.9196C22.7631 31.9101 22.7631 24.9833 22.7631 18.058Z" fill="#085896"/>
<path d="M61.1895 0.544814V21.7712C61.1895 22.0721 61.4334 22.316 61.7342 22.316H69.0131C69.314 22.316 69.5579 22.0721 69.5579 21.7712V0.544814C69.5579 0.243942 69.314 3.72436e-05 69.0131 3.72436e-05H61.7342C61.4334 3.72436e-05 61.1895 0.243942 61.1895 0.544814Z" fill="url(#paint0_linear)"/>
<path d="M75.1568 21.7711V0.544777C75.1568 0.243905 75.4007 0 75.7016 0H116.454C116.755 0 116.999 0.243907 116.999 0.544779V46.8764C116.999 47.1773 116.755 47.4212 116.454 47.4212H75.7016C75.4007 47.4212 75.1568 47.1773 75.1568 46.8764V39.5975C75.1568 39.2967 75.4007 39.0528 75.7016 39.0528H108.086C108.387 39.0528 108.631 38.8089 108.631 38.508V8.91323C108.631 8.61236 108.387 8.36846 108.086 8.36846H84.07C83.7691 8.36846 83.5252 8.61236 83.5252 8.91323V21.7711C83.5252 22.072 83.2813 22.3159 82.9804 22.3159H75.7016C75.4007 22.3159 75.1568 22.072 75.1568 21.7711Z" fill="url(#paint1_linear)"/>
<path d="M69.5472 31.3815L69.5472 52.3026C69.5472 52.6877 69.2349 52.9999 68.8498 52.9999L61.8761 52.9999C61.4909 52.9999 61.1787 52.6877 61.1787 52.3026L61.1787 31.3815C61.1787 30.9963 61.4909 30.6841 61.8761 30.6841H68.8498C69.2349 30.6841 69.5472 30.9963 69.5472 31.3815Z" fill="url(#paint2_linear)"/>
<path d="M100.398 31.3815V52.3026C100.398 52.6877 100.086 52.9999 99.7009 52.9999L92.7272 52.9999C92.342 52.9999 92.0298 52.6877 92.0298 52.3026L92.0298 31.3815C92.0298 30.9963 92.342 30.6841 92.7272 30.6841H99.7009C100.086 30.6841 100.398 30.9963 100.398 31.3815Z" fill="url(#paint3_linear)"/>
<path d="M45.5495 30.1062C44.7969 31.6114 46.5866 33.105 47.9328 32.0953L53.5856 27.8558C54.4361 27.2178 54.4361 25.942 53.5856 25.3041L47.9328 21.0645C46.5866 20.0548 44.7969 21.5484 45.5495 23.0536L47.3127 26.5799L45.5495 30.1062Z" fill="#747575"/>
</g>
<defs>
<linearGradient id="paint0_linear" x1="61.1895" y1="11.7785" x2="116.999" y2="11.7785" gradientUnits="userSpaceOnUse">
<stop stop-color="#3DAEFF"/>
<stop offset="1" stop-color="#1E5DFF"/>
</linearGradient>
<linearGradient id="paint1_linear" x1="61.1895" y1="11.7785" x2="116.999" y2="11.7785" gradientUnits="userSpaceOnUse">
<stop stop-color="#3DAEFF"/>
<stop offset="1" stop-color="#1E5DFF"/>
</linearGradient>
<linearGradient id="paint2_linear" x1="80.7885" y1="30.6841" x2="80.7885" y2="52.9999" gradientUnits="userSpaceOnUse">
<stop offset="0.323435" stop-color="#FF7A00"/>
<stop offset="1" stop-color="#FF4D00"/>
</linearGradient>
<linearGradient id="paint3_linear" x1="80.7885" y1="30.6841" x2="80.7885" y2="52.9999" gradientUnits="userSpaceOnUse">
<stop offset="0.323435" stop-color="#FF7A00"/>
<stop offset="1" stop-color="#FF4D00"/>
</linearGradient>
<clipPath id="clip0">
<rect width="117" height="52" fill="white"/>
</clipPath>
</defs>
</svg>
