<svg width="1376" height="601" viewBox="0 0 1376 601" fill="none" xmlns="http://www.w3.org/2000/svg">
<path d="M1376 0H0V601H1376V0Z" fill="#462DC8"/>
<path d="M56 34H1320" stroke="white" stroke-width="2" stroke-miterlimit="10"/>
<path d="M56 122H1320" stroke="white" stroke-width="2" stroke-miterlimit="10"/>
<path d="M56 210H1043" stroke="white" stroke-width="2" stroke-miterlimit="10"/>
<path d="M56 298H1043" stroke="white" stroke-width="2" stroke-miterlimit="10"/>
<path d="M56 386H1038" stroke="white" stroke-width="2" stroke-miterlimit="10"/>
<path d="M56 474H956" stroke="white" stroke-width="2" stroke-miterlimit="10"/>
<path d="M56 562H955.5" stroke="white" stroke-width="2" stroke-miterlimit="10"/>
<path d="M942.268 562.648H1338.55C1338.55 562.648 1325.96 369.846 1140.41 369.846C954.866 369.846 942.268 562.648 942.268 562.648Z" fill="#462DC8" stroke="white" stroke-width="1.16111" stroke-miterlimit="10"/>
<path d="M1262.75 470.782L1235.15 355.368L1217.31 359.635L1244.91 475.049L1262.75 470.782Z" fill="white"/>
<path d="M1209.56 421.863C1204.85 413.155 1271.67 366.42 1281.83 369.845C1291.99 373.27 1338.03 476.841 1322.76 496.174C1317.54 502.85 1291.53 472.545 1280.67 445.666C1280.67 445.666 1233.07 463.082 1230.75 456.232C1228.37 449.207 1273.01 423.953 1273.01 423.953C1273.01 423.953 1225.35 446.42 1220.59 438.699C1215.53 430.455 1263.2 404.853 1263.2 404.853C1263.2 404.853 1214.14 430.281 1209.56 421.863Z" fill="#462DC8" stroke="white" stroke-width="1.16111" stroke-miterlimit="10"/>
<path d="M1285.78 158L1273.18 185.402" stroke="white" stroke-width="1.16111" stroke-miterlimit="10"/>
<path d="M1298.96 197.072L1320.79 175.533" stroke="white" stroke-width="1.16111" stroke-miterlimit="10"/>
<path d="M1313.77 221.746L1343.26 212.108" stroke="white" stroke-width="1.16111" stroke-miterlimit="10"/>
<path d="M1207.76 364.853C1254.63 364.853 1292.63 326.852 1292.63 279.976C1292.63 233.099 1254.63 195.099 1207.76 195.099C1160.88 195.099 1122.88 233.099 1122.88 279.976C1122.88 326.852 1160.88 364.853 1207.76 364.853Z" fill="white"/>
<path d="M1198.58 204.852C1198.58 204.852 1239.92 257.276 1202.07 356.028L1198.58 204.852Z" fill="white"/>
<path d="M1198.58 204.852C1198.58 204.852 1239.92 257.276 1202.07 356.028" stroke="#462DC8" stroke-width="0.580556" stroke-miterlimit="10"/>
<path d="M1150.16 242.936C1150.16 242.936 1186.91 220.294 1228.36 242.936H1150.16Z" fill="white"/>
<path d="M1150.16 242.936C1150.16 242.936 1186.91 220.294 1228.36 242.936" stroke="#462DC8" stroke-width="0.580556" stroke-miterlimit="10"/>
<path d="M1198.18 204.851C1208.74 224.3 1225.11 254.198 1214.78 311.151L1278.47 251.876C1278.47 251.876 1270.34 229.699 1249.5 216.346C1223.6 199.858 1198.18 204.851 1198.18 204.851Z" fill="#462DC8"/>
<path d="M1148.48 219.191L1122.88 204.851V165.664C1122.88 165.664 1166.07 159.916 1194.06 196.259C1194 196.201 1166.36 199.568 1148.48 219.191Z" fill="white" stroke="white" stroke-width="1.16111" stroke-miterlimit="10"/>
<path d="M1071.85 230.744L1118.06 204.851V165.664C1118.06 165.664 1074.87 159.916 1046.88 196.259L1009.5 242.936C1011.93 246.477 1053.68 300.991 1070.74 295.941C1063.78 262.559 1071.85 230.744 1071.85 230.744Z" fill="white" stroke="white" stroke-width="1.16111" stroke-miterlimit="10"/>
<path d="M1070.74 295.883C1070.74 295.883 1085.55 353.532 1120.56 353.532C1143.43 353.532 1151.96 343.953 1151.96 343.953" fill="#462DC8"/>
<path d="M1070.74 295.883C1070.74 295.883 1085.55 353.532 1120.56 353.532C1143.43 353.532 1151.96 343.953 1151.96 343.953" stroke="white" stroke-width="1.16111" stroke-miterlimit="10"/>
<path d="M1063.78 361.137C1068.43 361.137 1072.2 349.96 1072.2 336.173C1072.2 322.386 1068.43 311.209 1063.78 311.209C1059.13 311.209 1055.36 322.386 1055.36 336.173C1055.36 349.96 1059.13 361.137 1063.78 361.137Z" fill="#462DC8" stroke="white" stroke-width="1.16111" stroke-miterlimit="10"/>
<path d="M1063.78 314.808C1066.98 314.808 1069.58 312.209 1069.58 309.003C1069.58 305.797 1066.98 303.197 1063.78 303.197C1060.57 303.197 1057.97 305.797 1057.97 309.003C1057.97 312.209 1060.57 314.808 1063.78 314.808Z" fill="#462DC8" stroke="white" stroke-width="1.16111" stroke-miterlimit="10"/>
<path d="M1254.31 340.121C1246.77 345.927 1238.06 350.455 1228.42 353.125C1229.93 334.548 1235.56 320.73 1242.36 320.73C1247.29 320.789 1251.76 328.51 1254.31 340.121Z" fill="white" stroke="#462DC8" stroke-width="0.580556" stroke-miterlimit="10"/>
<path d="M1242.3 326.942C1247.75 326.942 1252.17 322.523 1252.17 317.073C1252.17 311.622 1247.75 307.203 1242.3 307.203C1236.85 307.203 1232.43 311.622 1232.43 317.073C1232.43 322.523 1236.85 326.942 1242.3 326.942Z" fill="#462DC8"/>
<path d="M1078.12 257.682C1078.12 257.682 1082.65 267.203 1094.55 267.203C1106.45 267.203 1112.78 257.682 1112.78 257.682" fill="#462DC8"/>
<path d="M1078.12 257.682C1078.12 257.682 1082.65 267.203 1094.55 267.203C1106.45 267.203 1112.78 257.682 1112.78 257.682" stroke="white" stroke-width="1.16111" stroke-miterlimit="10"/>
<path d="M1318.06 250.366L1349.29 254.546" stroke="white" stroke-width="1.16111" stroke-miterlimit="10"/>
<path d="M1313.77 292.863L1338.61 300.759" stroke="white" stroke-width="1.16111" stroke-miterlimit="10"/>
<path d="M1146.1 272.312C1146.1 272.312 1154.75 244.503 1189.23 244.503C1223.78 244.503 1232.37 272.312 1232.37 272.312C1232.37 272.312 1220.06 293.792 1189.23 293.792C1158.47 293.85 1146.1 272.312 1146.1 272.312Z" fill="white" stroke="#462DC8" stroke-width="0.580556" stroke-miterlimit="10"/>
<path d="M1189.29 290.484C1200.84 290.484 1210.19 281.126 1210.19 269.584C1210.19 258.041 1200.84 248.684 1189.29 248.684C1177.75 248.684 1168.39 258.041 1168.39 269.584C1168.39 281.126 1177.75 290.484 1189.29 290.484Z" fill="#462DC8"/>
<path d="M1254.32 340.121C1246.77 345.927 1238.06 350.455 1228.42 353.125C1227.44 353.416 1226.45 353.648 1225.46 353.88C1184.59 363.634 1143.55 338.437 1133.79 297.624C1124.04 256.753 1149.24 215.708 1190.05 205.955C1230.92 196.201 1271.96 221.397 1281.72 262.21C1288.92 292.283 1277.19 322.414 1254.32 340.121Z" stroke="#462DC8" stroke-width="0.580556" stroke-miterlimit="10"/>
<path d="M92.088 86.988H86.94C85.744 91.824 82.052 95.204 76.072 95.204C69.052 95.204 64.06 89.588 64.06 80.072C64.06 70.296 69.26 65.096 75.916 65.096C81.948 65.096 85.588 68.632 86.732 73.312H91.88C90.268 65.252 83.976 60.624 76.176 60.624C65.516 60.624 58.652 68.372 58.652 80.072C58.652 91.564 64.944 99.676 75.76 99.676C83.924 99.676 90.424 95.308 92.088 86.988ZM107.978 81.84L121.082 99H127.426L112.346 79.136L126.906 61.3H120.51L107.822 77.264H104.026V61.3H98.7225V99H104.026V81.84H107.978ZM146.461 99.676C157.329 99.676 164.141 91.512 164.141 80.124C164.141 68.736 157.329 60.624 146.461 60.624C135.593 60.624 128.781 68.736 128.781 80.124C128.781 91.512 135.593 99.676 146.461 99.676ZM146.461 95.204C139.597 95.204 134.189 89.848 134.189 80.124C134.189 70.4 139.597 65.096 146.461 65.096C153.325 65.096 158.733 70.4 158.733 80.124C158.733 89.848 153.325 95.204 146.461 95.204ZM183.601 61.3H171.797V99H177.101V84.076H183.601C192.805 84.076 199.253 82.048 199.253 72.688C199.253 63.38 192.805 61.3 183.601 61.3ZM177.101 65.772H184.017C189.529 65.772 193.845 66.552 193.845 72.688C193.845 78.876 189.529 79.448 184.017 79.448H177.101V65.772ZM220.348 99.676C231.216 99.676 238.028 91.512 238.028 80.124C238.028 68.736 231.216 60.624 220.348 60.624C209.48 60.624 202.668 68.736 202.668 80.124C202.668 91.512 209.48 99.676 220.348 99.676ZM220.348 95.204C213.484 95.204 208.076 89.848 208.076 80.124C208.076 70.4 213.484 65.096 220.348 65.096C227.212 65.096 232.62 70.4 232.62 80.124C232.62 89.848 227.212 95.204 220.348 95.204ZM283.451 88.34C283.451 83.036 280.851 80.28 276.795 79.084C280.071 77.42 282.047 74.612 282.047 70.764C282.047 64.316 276.431 60.624 269.619 60.624C261.715 60.624 256.671 65.408 255.735 72.688H260.987C261.559 67.644 265.199 65.096 269.359 65.096C273.831 65.096 276.639 67.28 276.639 71.336C276.639 75.288 273.623 77.368 269.203 77.368H265.043V81.684H269.515C275.287 81.684 278.043 83.972 278.043 88.184C278.043 92.396 275.131 95.152 269.463 95.152C264.315 95.152 260.935 92.708 260.051 88.184H254.851C256.307 95.204 260.987 99.624 269.099 99.624C276.535 99.624 283.451 96.244 283.451 88.34ZM322.565 106.852V94.424H317.989V61.3H294.225L294.069 72.324C293.913 84.336 292.457 94.424 288.037 94.424H286.425V106.852H291.313V99H317.677V106.852H322.565ZM312.685 65.876V94.424H294.797C297.137 91.252 299.061 84.388 299.217 74.04L299.321 65.876H312.685ZM329.117 61.3V99H354.701V94.424H334.421V81.892H353.505V77.316H334.421V65.876H354.701V61.3H329.117ZM393.373 86.988H388.225C387.029 91.824 383.337 95.204 377.357 95.204C370.337 95.204 365.345 89.588 365.345 80.072C365.345 70.296 370.545 65.096 377.201 65.096C383.233 65.096 386.873 68.632 388.017 73.312H393.165C391.553 65.252 385.261 60.624 377.461 60.624C366.801 60.624 359.937 68.372 359.937 80.072C359.937 91.564 366.229 99.676 377.045 99.676C385.209 99.676 391.709 95.308 393.373 86.988ZM400.008 61.3V99H410.876C420.184 99 426.944 96.66 426.944 87.092C426.944 77.368 420.184 75.184 410.876 75.184H405.312V61.3H400.008ZM411.084 94.424H405.312V79.76H411.084C416.804 79.76 421.38 80.852 421.38 87.092C421.38 93.228 416.804 94.424 411.084 94.424ZM450.862 76.172V65.876H470.882V61.3H445.558V99H459.442C467.554 99 473.17 95.568 473.17 87.3C473.17 79.604 468.074 76.172 459.702 76.172H450.862ZM459.494 94.424H450.862V80.54H459.286C464.642 80.54 467.71 82.308 467.71 87.352C467.71 91.928 464.694 94.424 459.494 94.424ZM480.006 99.728H483.906C488.274 99.728 491.55 97.128 493.526 92.812L507.41 61.3H501.534L491.446 85.792L480.474 61.3H474.754L488.794 91.304L488.066 92.656C487.026 94.58 485.414 95.152 483.542 95.152H480.006V99.728ZM540.67 106.852V94.424H536.094V61.3H512.33L512.174 72.324C512.018 84.336 510.562 94.424 506.142 94.424H504.53V106.852H509.418V99H535.782V106.852H540.67ZM530.79 65.876V94.424H512.902C515.242 91.252 517.166 84.388 517.322 74.04L517.426 65.876H530.79ZM547.222 61.3V99H572.806V94.424H552.526V81.892H571.61V77.316H552.526V65.876H572.806V61.3H547.222ZM587.663 65.876V99H592.967V65.876H605.239V61.3H575.391V65.876H587.663ZM653.002 61.3H647.698V77.316H627.886V61.3H622.582V99H627.886V81.892H647.698V99H653.002V61.3ZM678.344 99.676C689.212 99.676 696.024 91.512 696.024 80.124C696.024 68.736 689.212 60.624 678.344 60.624C667.476 60.624 660.664 68.736 660.664 80.124C660.664 91.512 667.476 99.676 678.344 99.676ZM678.344 95.204C671.48 95.204 666.072 89.848 666.072 80.124C666.072 70.4 671.48 65.096 678.344 65.096C685.208 65.096 690.616 70.4 690.616 80.124C690.616 89.848 685.208 95.204 678.344 95.204ZM703.68 61.3V99H718.552C726.092 99 732.072 95.88 732.072 87.872C732.072 83.244 729.94 80.436 726.352 78.928C728.952 77.42 730.512 74.196 730.512 70.608C730.512 63.12 724.272 61.3 717.252 61.3H703.68ZM708.984 77.42V65.772H718.084C722.296 65.772 725.156 67.488 725.156 71.336C725.156 75.756 722.4 77.42 718.084 77.42H708.984ZM708.984 94.528V81.632H718.292C723.96 81.632 726.612 83.504 726.612 87.924C726.612 92.188 723.96 94.528 718.604 94.528H708.984ZM739.226 61.3V99H749.054C758.362 99 765.122 96.66 765.122 87.092C765.122 77.368 758.362 75.184 749.054 75.184H744.53V61.3H739.226ZM770.322 99H775.626V61.3H770.322V99ZM749.262 94.424H744.53V79.76H749.262C754.982 79.76 759.558 80.852 759.558 87.092C759.558 93.228 754.982 94.424 749.262 94.424ZM810.758 52.928H806.754C806.338 54.852 804.466 56.048 801.19 56.048C797.914 56.048 795.99 54.904 795.678 52.928H791.674C792.194 56.516 795.158 59.22 801.138 59.22C807.274 59.22 810.342 56.516 810.758 52.928ZM811.174 69.048V99H816.478V61.3H811.174L790.894 91.2V61.3H785.59V99H790.894L811.174 69.048ZM869.904 86.988H864.756C863.56 91.824 859.868 95.204 853.888 95.204C846.868 95.204 841.876 89.588 841.876 80.072C841.876 70.296 847.076 65.096 853.732 65.096C859.764 65.096 863.404 68.632 864.548 73.312H869.696C868.084 65.252 861.792 60.624 853.992 60.624C843.332 60.624 836.468 68.372 836.468 80.072C836.468 91.564 842.76 99.676 853.576 99.676C861.74 99.676 868.24 95.308 869.904 86.988ZM885.287 61.3L871.299 99H876.707L879.619 90.836H896.935L899.899 99H905.619L891.423 61.3H885.287ZM881.231 86.312L888.199 66.656L895.271 86.312H881.231ZM936.035 52.928H932.031C931.615 54.852 929.743 56.048 926.467 56.048C923.191 56.048 921.267 54.904 920.955 52.928H916.951C917.471 56.516 920.435 59.22 926.415 59.22C932.551 59.22 935.619 56.516 936.035 52.928ZM936.451 69.048V99H941.755V61.3H936.451L916.171 91.2V61.3H910.867V99H916.171L936.451 69.048ZM959.026 65.876V99H964.33V65.876H976.602V61.3H946.754V65.876H959.026ZM91.412 149.3H86.108V165.316H66.296V149.3H60.992V187H66.296V169.892H86.108V187H91.412V149.3ZM110.67 149.3L96.6819 187H102.09L105.002 178.836H122.318L125.282 187H131.002L116.806 149.3H110.67ZM106.614 174.312L113.582 154.656L120.654 174.312H106.614ZM136.25 187H180.346V149.3H175.042V182.424H160.69V149.3H155.386V182.424H141.554V149.3H136.25V187ZM190.332 149.3V187H215.916V182.424H195.636V169.892H214.72V165.316H195.636V153.876H215.916V149.3H190.332ZM248.66 140.928H244.656C244.24 142.852 242.368 144.048 239.092 144.048C235.816 144.048 233.892 142.904 233.58 140.928H229.576C230.096 144.516 233.06 147.22 239.04 147.22C245.176 147.22 248.244 144.516 248.66 140.928ZM249.076 157.048V187H254.38V149.3H249.076L228.796 179.2V149.3H223.492V187H228.796L249.076 157.048ZM285.967 169.84L299.071 187H305.415L290.335 167.136L304.895 149.3H298.499L285.811 165.264H282.015V149.3H276.711V187H282.015V169.84H285.967ZM324.449 187.676C335.317 187.676 342.129 179.512 342.129 168.124C342.129 156.736 335.317 148.624 324.449 148.624C313.581 148.624 306.769 156.736 306.769 168.124C306.769 179.512 313.581 187.676 324.449 187.676ZM324.449 183.204C317.585 183.204 312.177 177.848 312.177 168.124C312.177 158.4 317.585 153.096 324.449 153.096C331.313 153.096 336.721 158.4 336.721 168.124C336.721 177.848 331.313 183.204 324.449 183.204ZM365.489 187H371.105L381.505 154.136V187H386.809V149.3H377.917L368.297 180.708L358.677 149.3H349.785V187H355.089V154.136L365.489 187ZM420.936 187H426.24V149.3H396.808V187H402.112V153.876H420.936V187ZM445.471 149.3L431.483 187H436.891L439.803 178.836H457.119L460.083 187H465.803L451.607 149.3H445.471ZM441.415 174.312L448.383 154.656L455.455 174.312H441.415ZM501.471 149.3H496.167V165.316H476.355V149.3H471.051V187H476.355V169.892H496.167V187H501.471V149.3ZM537.056 157.048V187H542.36V149.3H537.056L516.776 179.2V149.3H511.472V187H516.776L537.056 157.048ZM577.935 157.048V187H583.239V149.3H577.935L557.655 179.2V149.3H552.351V187H557.655L577.935 157.048ZM637.29 149.3H628.398V163.704H612.902V149.3H604.01V187H612.902V171.556H628.398V187H637.29V149.3ZM661.442 187.676C672.986 187.676 680.994 179.928 680.994 168.176C680.994 156.424 672.986 148.676 661.442 148.676C649.846 148.676 641.89 156.424 641.89 168.176C641.89 179.928 649.846 187.676 661.442 187.676ZM661.442 180.344C655.93 180.344 651.302 176.184 651.302 168.176C651.302 160.168 655.93 156.008 661.442 156.008C666.954 156.008 671.582 160.168 671.582 168.176C671.582 176.184 666.954 180.344 661.442 180.344ZM700.073 149.3H685.565V187H694.457V173.948H700.073C709.849 173.948 717.181 171.504 717.181 161.572C717.181 151.692 709.849 149.3 700.073 149.3ZM694.457 156.788H700.333C704.493 156.788 707.769 157.62 707.769 161.572C707.769 165.576 704.493 166.46 700.333 166.46H694.457V156.788ZM735.264 149.3H720.756V187H729.648V173.948H735.264C745.04 173.948 752.372 171.504 752.372 161.572C752.372 151.692 745.04 149.3 735.264 149.3ZM729.648 156.788H735.524C739.684 156.788 742.96 157.62 742.96 161.572C742.96 165.576 739.684 166.46 735.524 166.46H729.648V156.788ZM755.948 149.3V187H784.86V179.148H764.84V171.556H783.768V163.704H764.84V157.1H784.86V149.3H755.948ZM805.352 172.804L813.516 187H823.968L814.66 171.348C818.976 169.684 822.044 166.512 822.044 160.948C822.044 151.588 814.712 149.3 804.936 149.3H790.428V187H799.32V172.804H805.352ZM799.32 156.788H805.196C809.408 156.788 812.632 157.568 812.632 161.052C812.632 164.588 809.408 165.316 805.196 165.316H799.32V156.788ZM827.853 187H833.833V181.02H827.853V187ZM76.696 275H82.312L92.712 242.136V275H98.016V237.3H89.124L79.504 268.708L69.884 237.3H60.992V275H66.296V242.136L76.696 275ZM108.015 237.3V275H117.843C127.151 275 133.911 272.66 133.911 263.092C133.911 253.368 127.151 251.184 117.843 251.184H113.319V237.3H108.015ZM139.111 275H144.415V237.3H139.111V275ZM118.051 270.424H113.319V255.76H118.051C123.771 255.76 128.347 256.852 128.347 263.092C128.347 269.228 123.771 270.424 118.051 270.424ZM197.815 262.988H192.667C191.471 267.824 187.779 271.204 181.799 271.204C174.779 271.204 169.787 265.588 169.787 256.072C169.787 246.296 174.987 241.096 181.643 241.096C187.675 241.096 191.315 244.632 192.459 249.312H197.607C195.995 241.252 189.703 236.624 181.903 236.624C171.243 236.624 164.379 244.372 164.379 256.072C164.379 267.564 170.671 275.676 181.487 275.676C189.651 275.676 196.151 271.308 197.815 262.988ZM220.153 275H225.769L236.169 242.136V275H241.473V237.3H232.581L222.961 268.708L213.341 237.3H204.449V275H209.753V242.136L220.153 275ZM251.472 237.3V275H277.056V270.424H256.776V257.892H275.86V253.316H256.776V241.876H277.056V237.3H251.472ZM315.053 237.3H309.749V253.316H289.937V237.3H284.633V275H289.937V257.892H309.749V275H315.053V237.3ZM350.638 245.048V275H355.943V237.3H350.638L330.359 267.2V237.3H325.055V275H330.359L350.638 245.048ZM388.605 275H393.909V237.3H370.249L369.989 246.816C369.573 259.712 368.273 270.424 363.281 270.424H362.501V275H364.061C371.809 275 374.409 264.756 375.033 248.428L375.293 241.876H388.605V275ZM429.502 245.048V275H434.806V237.3H429.502L409.222 267.2V237.3H403.918V275H409.222L429.502 245.048ZM487.557 237.3H482.253V253.316H462.441V237.3H457.137V275H462.441V257.892H482.253V275H487.557V237.3ZM506.814 237.3L492.826 275H498.234L501.146 266.836H518.462L521.426 275H527.146L512.95 237.3H506.814ZM502.758 262.312L509.726 242.656L516.798 262.312H502.758ZM557.568 264.34C557.568 259.036 554.968 256.28 550.912 255.084C554.188 253.42 556.164 250.612 556.164 246.764C556.164 240.316 550.548 236.624 543.736 236.624C535.832 236.624 530.788 241.408 529.852 248.688H535.104C535.676 243.644 539.316 241.096 543.476 241.096C547.948 241.096 550.756 243.28 550.756 247.336C550.756 251.288 547.74 253.368 543.32 253.368H539.16V257.684H543.632C549.404 257.684 552.16 259.972 552.16 264.184C552.16 268.396 549.248 271.152 543.58 271.152C538.432 271.152 535.052 268.708 534.168 264.184H528.968C530.424 271.204 535.104 275.624 543.216 275.624C550.652 275.624 557.568 272.244 557.568 264.34ZM564.742 237.3V275H579.614C587.154 275 593.134 271.88 593.134 263.872C593.134 259.244 591.002 256.436 587.414 254.928C590.014 253.42 591.574 250.196 591.574 246.608C591.574 239.12 585.334 237.3 578.314 237.3H564.742ZM570.046 253.42V241.772H579.146C583.358 241.772 586.218 243.488 586.218 247.336C586.218 251.756 583.462 253.42 579.146 253.42H570.046ZM570.046 270.528V257.632H579.354C585.022 257.632 587.674 259.504 587.674 263.924C587.674 268.188 585.022 270.528 579.666 270.528H570.046ZM609.545 237.3L595.557 275H600.965L603.877 266.836H621.193L624.157 275H629.877L615.681 237.3H609.545ZM605.489 262.312L612.457 242.656L619.529 262.312H605.489ZM665.545 237.3H660.241V253.316H640.429V237.3H635.125V275H640.429V257.892H660.241V275H665.545V237.3ZM701.131 245.048V275H706.435V237.3H701.131L680.851 267.2V237.3H675.547V275H680.851L701.131 245.048ZM716.426 237.3V275H742.01V270.424H721.73V257.892H740.814V253.316H721.73V241.876H742.01V237.3H716.426ZM86.576 333.048V363H91.88V325.3H86.576L66.296 355.2V325.3H60.992V363H66.296L86.576 333.048ZM126.015 325.3H114.211V363H119.515V348.076H126.015C135.219 348.076 141.667 346.048 141.667 336.688C141.667 327.38 135.219 325.3 126.015 325.3ZM119.515 329.772H126.431C131.943 329.772 136.259 330.552 136.259 336.688C136.259 342.876 131.943 343.448 126.431 343.448H119.515V329.772ZM153.021 325.3L139.033 363H144.441L147.353 354.836H164.669L167.633 363H173.353L159.157 325.3H153.021ZM148.965 350.312L155.933 330.656L163.005 350.312H148.965ZM208.326 350.988H203.178C201.982 355.824 198.29 359.204 192.31 359.204C185.29 359.204 180.298 353.588 180.298 344.072C180.298 334.296 185.498 329.096 192.154 329.096C198.186 329.096 201.826 332.632 202.97 337.312H208.118C206.506 329.252 200.214 324.624 192.414 324.624C181.754 324.624 174.89 332.372 174.89 344.072C174.89 355.564 181.182 363.676 191.998 363.676C200.162 363.676 206.662 359.308 208.326 350.988ZM214.961 363H259.057V325.3H253.753V358.424H239.401V325.3H234.097V358.424H220.265V325.3H214.961V363ZM294.627 333.048V363H299.931V325.3H294.627L274.347 355.2V325.3H269.043V363H274.347L294.627 333.048ZM321.726 325.3H309.922V363H315.226V348.076H321.726C330.93 348.076 337.378 346.048 337.378 336.688C337.378 327.38 330.93 325.3 321.726 325.3ZM315.226 329.772H322.142C327.654 329.772 331.97 330.552 331.97 336.688C331.97 342.876 327.654 343.448 322.142 343.448H315.226V329.772ZM368.717 333.048V363H374.021V325.3H368.717L348.437 355.2V325.3H343.133V363H348.437L368.717 333.048ZM406.684 363H411.988V325.3H388.328L388.068 334.816C387.652 347.712 386.352 358.424 381.36 358.424H380.58V363H382.14C389.888 363 392.488 352.756 393.112 336.428L393.372 329.876H406.684V363ZM447.58 333.048V363H452.884V325.3H447.58L427.3 355.2V325.3H421.996V363H427.3L447.58 333.048ZM499.343 363H504.647V325.3H475.215V363H480.519V329.876H499.343V363ZM523.877 325.3L509.889 363H515.297L518.209 354.836H535.525L538.489 363H544.209L530.013 325.3H523.877ZM519.821 350.312L526.789 330.656L533.861 350.312H519.821ZM558.713 345.84L571.817 363H578.161L563.081 343.136L577.641 325.3H571.245L558.557 341.264H554.761V325.3H549.457V363H554.761V345.84H558.713ZM583.937 325.3V363H609.521V358.424H589.241V345.892H608.325V341.316H589.241V329.876H609.521V325.3H583.937ZM624.377 329.876V363H629.681V329.876H641.953V325.3H612.105V329.876H624.377ZM683.425 363H688.729V325.3H659.297V363H664.601V329.876H683.425V363ZM710.507 325.3H698.703V363H704.007V348.076H710.507C719.711 348.076 726.159 346.048 726.159 336.688C726.159 327.38 719.711 325.3 710.507 325.3ZM704.007 329.772H710.923C716.435 329.772 720.751 330.552 720.751 336.688C720.751 342.876 716.435 343.448 710.923 343.448H704.007V329.772ZM747.254 363.676C758.122 363.676 764.934 355.512 764.934 344.124C764.934 332.736 758.122 324.624 747.254 324.624C736.386 324.624 729.574 332.736 729.574 344.124C729.574 355.512 736.386 363.676 747.254 363.676ZM747.254 359.204C740.39 359.204 734.982 353.848 734.982 344.124C734.982 334.4 740.39 329.096 747.254 329.096C754.118 329.096 759.526 334.4 759.526 344.124C759.526 353.848 754.118 359.204 747.254 359.204ZM804.124 370.852V358.424H799.548V325.3H775.784L775.628 336.324C775.472 348.336 774.016 358.424 769.596 358.424H767.984V370.852H772.872V363H799.236V370.852H804.124ZM794.244 329.876V358.424H776.356C778.696 355.252 780.62 348.388 780.776 338.04L780.88 329.876H794.244ZM811.456 363.728H815.356C819.724 363.728 823 361.128 824.976 356.812L838.86 325.3H832.984L822.896 349.792L811.924 325.3H806.204L820.244 355.304L819.516 356.656C818.476 358.58 816.864 359.152 814.992 359.152H811.456V363.728ZM852.076 345.84L865.18 363H871.524L856.444 343.136L871.004 325.3H864.608L851.92 341.264H848.124V325.3H842.82V363H848.124V345.84H852.076ZM884.581 329.876V363H889.885V329.876H902.157V325.3H872.309V329.876H884.581ZM920.52 363.676C931.388 363.676 938.2 355.512 938.2 344.124C938.2 332.736 931.388 324.624 920.52 324.624C909.652 324.624 902.84 332.736 902.84 344.124C902.84 355.512 909.652 363.676 920.52 363.676ZM920.52 359.204C913.656 359.204 908.248 353.848 908.248 344.124C908.248 334.4 913.656 329.096 920.52 329.096C927.384 329.096 932.792 334.4 932.792 344.124C932.792 353.848 927.384 359.204 920.52 359.204ZM945.855 325.3V363H960.727C968.267 363 974.247 359.88 974.247 351.872C974.247 347.244 972.115 344.436 968.527 342.928C971.127 341.42 972.687 338.196 972.687 334.608C972.687 327.12 966.447 325.3 959.427 325.3H945.855ZM951.159 341.42V329.772H960.259C964.471 329.772 967.331 331.488 967.331 335.336C967.331 339.756 964.575 341.42 960.259 341.42H951.159ZM951.159 358.528V345.632H960.467C966.135 345.632 968.787 347.504 968.787 351.924C968.787 356.188 966.135 358.528 960.779 358.528H951.159ZM86.576 421.048V451H91.88V413.3H86.576L66.296 443.2V413.3H60.992V451H66.296L86.576 421.048ZM114.991 451.728H118.891C123.259 451.728 126.535 449.128 128.511 444.812L142.395 413.3H136.519L126.431 437.792L115.459 413.3H109.739L123.779 443.304L123.051 444.656C122.011 446.58 120.399 447.152 118.527 447.152H114.991V451.728ZM176.385 438.988H171.237C170.041 443.824 166.349 447.204 160.369 447.204C153.349 447.204 148.357 441.588 148.357 432.072C148.357 422.296 153.557 417.096 160.213 417.096C166.245 417.096 169.885 420.632 171.029 425.312H176.177C174.565 417.252 168.273 412.624 160.473 412.624C149.813 412.624 142.949 420.372 142.949 432.072C142.949 443.564 149.241 451.676 160.057 451.676C168.221 451.676 174.721 447.308 176.385 438.988ZM205.285 451H210.589V413.3H186.929L186.669 422.816C186.253 435.712 184.953 446.424 179.961 446.424H179.181V451H180.741C188.489 451 191.089 440.756 191.713 424.428L191.973 417.876H205.285V451ZM221.377 451.728H225.277C229.645 451.728 232.921 449.128 234.897 444.812L248.781 413.3H242.905L232.817 437.792L221.845 413.3H216.125L230.165 443.304L229.437 444.656C228.397 446.58 226.785 447.152 224.913 447.152H221.377V451.728ZM276.246 417.876V413.3H252.742V451H258.046V417.876H276.246ZM274.439 445.02V451H276.987L274.231 458.228H277.247L280.419 451.416V445.02H274.439ZM310.393 413.3L296.405 451H301.813L304.725 442.836H322.041L325.005 451H330.725L316.529 413.3H310.393ZM306.337 438.312L313.305 418.656L320.377 438.312H306.337ZM378.732 413.3H373.428V429.316H353.616V413.3H348.312V451H353.616V433.892H373.428V451H378.732V413.3ZM397.99 413.3L384.002 451H389.41L392.322 442.836H409.638L412.602 451H418.322L404.126 413.3H397.99ZM393.934 438.312L400.902 418.656L407.974 438.312H393.934ZM423.57 451H467.666V413.3H462.362V446.424H448.01V413.3H442.706V446.424H428.874V413.3H423.57V451ZM503.236 421.048V451H508.54V413.3H503.236L482.956 443.2V413.3H477.652V451H482.956L503.236 421.048ZM564.047 458.852V446.424H559.523V413.3H554.219V446.424H536.175V413.3H530.871V451H559.159V458.852H564.047ZM570.582 413.3V451H596.166V446.424H575.886V433.892H594.97V429.316H575.886V417.876H596.166V413.3H570.582ZM634.162 413.3H628.858V429.316H609.046V413.3H603.742V451H609.046V433.892H628.858V451H634.162V413.3ZM674.584 413.3H669.28V429.316H649.468V413.3H644.164V451H649.468V433.892H669.28V451H674.584V413.3ZM699.926 451.676C710.794 451.676 717.606 443.512 717.606 432.124C717.606 420.736 710.794 412.624 699.926 412.624C689.058 412.624 682.246 420.736 682.246 432.124C682.246 443.512 689.058 451.676 699.926 451.676ZM699.926 447.204C693.062 447.204 687.654 441.848 687.654 432.124C687.654 422.4 693.062 417.096 699.926 417.096C706.79 417.096 712.198 422.4 712.198 432.124C712.198 441.848 706.79 447.204 699.926 447.204ZM756.865 438.988H751.717C750.521 443.824 746.829 447.204 740.849 447.204C733.829 447.204 728.837 441.588 728.837 432.072C728.837 422.296 734.037 417.096 740.693 417.096C746.725 417.096 750.365 420.632 751.509 425.312H756.657C755.045 417.252 748.753 412.624 740.953 412.624C730.293 412.624 723.429 420.372 723.429 432.072C723.429 443.564 729.721 451.676 740.537 451.676C748.701 451.676 755.201 447.308 756.865 438.988ZM770.018 417.876V451H775.322V417.876H787.594V413.3H757.746V417.876H770.018ZM818.181 421.048V451H823.485V413.3H818.181L797.901 443.2V413.3H792.597V451H797.901L818.181 421.048ZM76.332 539.676C87.2 539.676 94.012 531.512 94.012 520.124C94.012 508.736 87.2 500.624 76.332 500.624C65.464 500.624 58.652 508.736 58.652 520.124C58.652 531.512 65.464 539.676 76.332 539.676ZM76.332 535.204C69.468 535.204 64.06 529.848 64.06 520.124C64.06 510.4 69.468 505.096 76.332 505.096C83.196 505.096 88.604 510.4 88.604 520.124C88.604 529.848 83.196 535.204 76.332 535.204ZM133.272 526.988H128.124C126.928 531.824 123.236 535.204 117.256 535.204C110.236 535.204 105.244 529.588 105.244 520.072C105.244 510.296 110.444 505.096 117.1 505.096C123.132 505.096 126.772 508.632 127.916 513.312H133.064C131.452 505.252 125.16 500.624 117.36 500.624C106.7 500.624 99.8356 508.372 99.8356 520.072C99.8356 531.564 106.128 539.676 116.944 539.676C125.108 539.676 131.608 535.308 133.272 526.988ZM146.424 505.876V539H151.728V505.876H164V501.3H134.152V505.876H146.424ZM174.502 501.3L160.514 539H165.922L168.834 530.836H186.15L189.114 539H194.834L180.638 501.3H174.502ZM170.446 526.312L177.414 506.656L184.486 526.312H170.446ZM222.754 539H228.058V501.3H204.398L204.138 510.816C203.722 523.712 202.422 534.424 197.43 534.424H196.65V539H198.21C205.958 539 208.558 528.756 209.182 512.428L209.442 505.876H222.754V539ZM263.65 509.048V539H268.954V501.3H263.65L243.37 531.2V501.3H238.066V539H243.37L263.65 509.048ZM310.041 526.988H304.893C303.697 531.824 300.005 535.204 294.025 535.204C287.005 535.204 282.013 529.588 282.013 520.072C282.013 510.296 287.213 505.096 293.869 505.096C299.901 505.096 303.541 508.632 304.685 513.312H309.833C308.221 505.252 301.929 500.624 294.129 500.624C283.469 500.624 276.605 508.372 276.605 520.072C276.605 531.564 282.897 539.676 293.713 539.676C301.877 539.676 308.377 535.308 310.041 526.988ZM316.676 501.3V539H327.544C336.852 539 343.612 536.66 343.612 527.092C343.612 517.368 336.852 515.184 327.544 515.184H321.98V501.3H316.676ZM327.752 534.424H321.98V519.76H327.752C333.472 519.76 338.048 520.852 338.048 527.092C338.048 533.228 333.472 534.424 327.752 534.424ZM386.354 539H391.658V501.3H362.226V539H367.53V505.876H386.354V539ZM413.437 501.3H401.633V539H406.937V524.076H413.437C422.641 524.076 429.089 522.048 429.089 512.688C429.089 503.38 422.641 501.3 413.437 501.3ZM406.937 505.772H413.853C419.365 505.772 423.681 506.552 423.681 512.688C423.681 518.876 419.365 519.448 413.853 519.448H406.937V505.772ZM434.844 501.3V539H460.428V534.424H440.148V521.892H459.232V517.316H440.148V505.876H460.428V501.3H434.844ZM486.048 521.84V539H491.352V521.84H495.564L507.316 539H513.608L500.036 519.24L512.672 501.3H506.484L495.408 517.264H491.352V501.3H486.048V517.264H481.992L470.916 501.3H464.624L477.312 519.188L463.792 539H470.084L481.94 521.84H486.048ZM549.814 501.3H544.51V517.316H524.698V501.3H519.394V539H524.698V521.892H544.51V539H549.814V501.3ZM585.4 509.048V539H590.704V501.3H585.4L565.12 531.2V501.3H559.816V539H565.12L585.4 509.048ZM616.399 539H622.015L632.415 506.136V539H637.719V501.3H628.827L619.207 532.708L609.587 501.3H600.695V539H605.999V506.136L616.399 539ZM673.303 509.048V539H678.607V501.3H673.303L653.023 531.2V501.3H647.719V539H653.023L673.303 509.048ZM686.985 539H692.965V533.02H686.985V539Z" fill="white"/>
</svg>
