<svg xmlns="http://www.w3.org/2000/svg" xmlns:xlink="http://www.w3.org/1999/xlink" viewBox="0 0 50 75">
  <defs>
    <style>
      .cls-1 {
        fill: none;
      }

      .cls-2 {
        clip-path: url(#clip-path);
      }

      .cls-3 {
        fill: #3db9ff;
      }

      .cls-4 {
        fill: #ec1c24;
      }

      .cls-5 {
        fill: #085896;
      }

      .cls-6 {
        fill: #fff;
      }
    </style>
    <clipPath id="clip-path">
      <rect class="cls-1" width="220" height="75"/>
    </clipPath>
  </defs>
  <g id="Repeat_Grid_18" data-name="Repeat Grid 18" class="cls-2" transform="translate(-55)">
    <g id="Group_5348" data-name="Group 5348">
      <g id="Group_5346" data-name="Group 5346" transform="translate(55)">
        <path id="Path_10498" data-name="Path 10498" class="cls-3" d="M361.152,44.6c-.013-.22-.039-.426-.039-.646q0-14.246-.013-28.478a1.052,1.052,0,0,1,.607-1.06q12.443-7.074,24.874-14.2A.892.892,0,0,1,387.628.2q12.346,7.171,24.719,14.329a4.122,4.122,0,0,1,.517.426c-1.757.982-3.528,1.938-5.272,2.933-3.256,1.861-6.5,3.747-9.743,5.621-1.37.8-2.726,1.615-4.083,2.429-2.08-1.215-4.161-2.429-6.254-3.618a.964.964,0,0,0-.8.013c-1.951,1.085-3.889,2.222-5.84,3.308a.719.719,0,0,0-.388.775c0,2.365-.013,4.729-.026,7.107-.246.129-.491.258-.737.4Q370.416,39.253,361.152,44.6Z" transform="translate(-361.1 0.137)"/>
        <path id="Path_10499" data-name="Path 10499" class="cls-4" d="M361.152,270.186q9.284-5.349,18.555-10.686c.245-.142.491-.258.736-.4.013.22.026.426.026.646q0,14.4.013,28.814a.9.9,0,0,1-.491.917q-9.148,5.349-18.3,10.737c-.155.09-.336.168-.594.3v-29.77C361.113,270.574,361.139,270.38,361.152,270.186Z" transform="translate(-361.1 -225.512)"/>
        <path id="Path_10500" data-name="Path 10500" class="cls-5" d="M613.626,126.483c1.357-.814,2.713-1.641,4.083-2.429q4.865-2.83,9.743-5.621c1.744-.995,3.515-1.964,5.272-2.933.013.22.013.426.013.646v28.426a.867.867,0,0,1-.426.9q-9.09,5.33-18.18,10.686c-.142.078-.3.142-.53.245C613.626,146.356,613.626,136.419,613.626,126.483Z" transform="translate(-580.919 -100.531)"/>
        
        
        
        
        
        
        
        
        
        
      </g>
    </g>
  </g>
</svg>