<svg xmlns="http://www.w3.org/2000/svg" viewBox="0 0 26.045 37.679">
  <defs>
    <style>
      .cls-1 {
        fill: #3db9ff;
      }

      .cls-2 {
        fill: #ec1c24;
      }

      .cls-3 {
        fill: #085896;
      }
    </style>
  </defs>
  <g id="Group_5348" data-name="Group 5348" transform="translate(-16.694 0)">
    <g id="Group_5346" data-name="Group 5346" transform="translate(16.694 0)">
      <path id="Path_10498" data-name="Path 10498" class="cls-1" d="M361.126,22.455c-.006-.111-.02-.215-.02-.325q0-7.167-.006-14.328a.529.529,0,0,1,.306-.533q6.261-3.559,12.515-7.145a.449.449,0,0,1,.527-.007q6.212,3.608,12.437,7.21a2.078,2.078,0,0,1,.26.215c-.884.494-1.775.975-2.653,1.476-1.638.936-3.27,1.885-4.9,2.828-.689.4-1.372.813-2.054,1.222-1.047-.611-2.093-1.222-3.147-1.82a.485.485,0,0,0-.4.007c-.982.546-1.957,1.118-2.939,1.664a.362.362,0,0,0-.2.39c0,1.19-.007,2.379-.013,3.576-.124.065-.247.13-.371.2Q365.788,19.767,361.126,22.455Z" transform="translate(-361.1 -0.035)"/>
      <path id="Path_10499" data-name="Path 10499" class="cls-2" d="M361.126,264.678l9.336-5.376c.124-.072.247-.13.371-.2.006.111.013.215.013.325q0,7.246.007,14.5a.45.45,0,0,1-.247.462q-4.6,2.691-9.206,5.4c-.078.045-.169.084-.3.15V264.958C361.107,264.873,361.12,264.775,361.126,264.678Z" transform="translate(-361.1 -242.258)"/>
      <path id="Path_10500" data-name="Path 10500" class="cls-3" d="M613.613,121.026c.683-.41,1.365-.826,2.054-1.222q2.448-1.424,4.9-2.828c.878-.5,1.768-.988,2.653-1.476.006.111.006.215.006.325v14.3a.436.436,0,0,1-.214.455q-4.574,2.682-9.147,5.376c-.072.039-.149.072-.267.124C613.613,131.025,613.613,126.025,613.613,121.026Z" transform="translate(-597.184 -107.993)"/>
    </g>
  </g>
</svg>
