<svg xmlns="http://www.w3.org/2000/svg" viewBox="0 0 106.46 79.776">
  <defs>
    <style>
      .cls-1 {
        fill: #3db9ff;
      }

      .cls-2 {
        fill: #ec1c24;
      }

      .cls-3 {
        fill: #085896;
      }

      .cls-4 {
        fill: #141930;
      }
    </style>
  </defs>
  <g id="Group_5348" data-name="Group 5348" transform="translate(0 -0.035)">
    <g id="Group_5346" data-name="Group 5346" transform="translate(0 0.035)">
      <path id="Path_10498" data-name="Path 10498" class="cls-1" d="M361.138,32.538c-.009-.16-.028-.311-.028-.471q0-10.391-.009-20.772a.767.767,0,0,1,.443-.773q9.076-5.16,18.143-10.358a.65.65,0,0,1,.763-.009q9.005,5.231,18.03,10.452a3.007,3.007,0,0,1,.377.311c-1.282.716-2.573,1.414-3.845,2.139-2.375,1.357-4.741,2.733-7.106,4.1-1,.584-1.989,1.178-2.978,1.772-1.517-.886-3.035-1.772-4.562-2.639a.7.7,0,0,0-.584.009c-1.423.792-2.837,1.621-4.26,2.413a.524.524,0,0,0-.283.565c0,1.725-.009,3.449-.019,5.184-.179.094-.358.188-.537.292Q367.9,28.641,361.138,32.538Z" transform="translate(-327.067 -0.035)"/>
      <path id="Path_10499" data-name="Path 10499" class="cls-2" d="M361.138,267.187q6.772-3.9,13.534-7.794c.179-.1.358-.189.537-.292.009.16.019.311.019.471q0,10.5.009,21.017a.653.653,0,0,1-.358.669q-6.673,3.9-13.346,7.832c-.113.066-.245.123-.434.217V267.592C361.109,267.469,361.128,267.328,361.138,267.187Z" transform="translate(-327.067 -234.684)"/>
      <path id="Path_10500" data-name="Path 10500" class="cls-3" d="M613.619,123.511c.99-.594,1.979-1.2,2.978-1.772q3.548-2.064,7.106-4.1c1.272-.726,2.564-1.433,3.845-2.139.009.16.009.311.009.471v20.735a.632.632,0,0,1-.311.66q-6.63,3.888-13.261,7.794c-.1.057-.217.1-.386.179C613.619,138.007,613.619,130.759,613.619,123.511Z" transform="translate(-555.769 -104.618)"/>
      <path id="Path_10501" data-name="Path 10501" class="cls-4" d="M114.017,724.483a17.5,17.5,0,0,1-.349,2.139,4.5,4.5,0,0,1-3.779,3.534c-2.092.368-4.081.2-5.655-1.47a5.157,5.157,0,0,1-1.263-2.79,9.259,9.259,0,0,1,.141-3.874,4.691,4.691,0,0,1,4.072-3.657,7.255,7.255,0,0,1,2.988.1,4.792,4.792,0,0,1,3.685,4.317C113.933,723.276,113.961,723.766,114.017,724.483Zm-2.554-.17a17.992,17.992,0,0,0-.518-2.337,2.415,2.415,0,0,0-2.507-1.612,2.5,2.5,0,0,0-2.554,1.565,6.3,6.3,0,0,0-.009,4.722,2.463,2.463,0,0,0,2.554,1.555,2.419,2.419,0,0,0,2.507-1.6A15.914,15.914,0,0,0,111.463,724.313Z" transform="translate(-93.141 -650.567)"/>
      <path id="Path_10502" data-name="Path 10502" class="cls-4" d="M816.888,727.373v4.957H814.4V720.709h2.469v4.524h4.59V720.7h2.46v11.621h-2.432v-4.957C819.961,727.373,818.462,727.373,816.888,727.373Z" transform="translate(-737.644 -652.778)"/>
      <path id="Path_10503" data-name="Path 10503" class="cls-4" d="M366.28,732.421h-2.45v-9.557h-4.251v9.547H357.1V720.8h9.18Z" transform="translate(-323.444 -652.869)"/>
      <path id="Path_10504" data-name="Path 10504" class="cls-4" d="M472.886,731.791H470.2c.405-1.159.8-2.29,1.206-3.421.924-2.63,1.847-5.25,2.761-7.879a.485.485,0,0,1,.565-.4c.763.028,1.536.019,2.309,0a.377.377,0,0,1,.434.3q1.979,5.641,3.977,11.282a.356.356,0,0,1,.009.113H478.8c-.273-.9-.556-1.8-.839-2.733-1.338,0-2.677-.009-4.006.009-.1,0-.264.179-.3.3C473.386,730.17,473.141,730.98,472.886,731.791Zm4.467-4.863c-.5-1.612-.98-3.2-1.5-4.882-.5,1.668-.98,3.252-1.47,4.882Z" transform="translate(-425.884 -652.229)"/>
      <path id="Path_10505" data-name="Path 10505" class="cls-4" d="M607.888,727.99v4.119H605.4V720.46c.745,0,1.47-.009,2.205,0,.858.019,1.725,0,2.582.085a3.4,3.4,0,0,1,3.233,4.213c-.311,2.017-1.753,3.176-4.024,3.223C608.915,728,608.425,727.99,607.888,727.99Zm.028-1.951a16.271,16.271,0,0,0,2.008-.311c.763-.217,1.065-.848,1-1.753a1.307,1.307,0,0,0-1.188-1.357,16.524,16.524,0,0,0-1.819-.123Z" transform="translate(-548.342 -652.557)"/>
      <path id="Path_10506" data-name="Path 10506" class="cls-4" d="M2.469,727.971v4.119H0V720.441c.829,0,1.64-.019,2.45.009a19.147,19.147,0,0,1,2.761.16,3.24,3.24,0,0,1,2.837,3.826c-.179,2.187-1.649,3.478-4.034,3.534C3.515,727.981,3.016,727.971,2.469,727.971Zm.028-5.495v3.572a15.245,15.245,0,0,0,2.187-.415,1.487,1.487,0,0,0,.858-1.715,1.343,1.343,0,0,0-1.216-1.338A16.847,16.847,0,0,0,2.5,722.477Z" transform="translate(0 -652.538)"/>
      <path id="Path_10507" data-name="Path 10507" class="cls-4" d="M1046.469,728.212v4.119H1044V720.757c.019-.019.047-.057.066-.057a50.507,50.507,0,0,1,5.212.189c1.923.254,2.875,1.734,2.78,3.676-.113,2.394-1.772,3.544-4.072,3.647C1047.5,728.221,1047.016,728.212,1046.469,728.212Zm.009-1.951a16.74,16.74,0,0,0,2.036-.311,1.482,1.482,0,0,0,1.018-1.659,1.371,1.371,0,0,0-1.254-1.461,16.37,16.37,0,0,0-1.81-.1C1046.479,723.914,1046.479,725.017,1046.479,726.261Z" transform="translate(-945.604 -652.778)"/>
      <path id="Path_10508" data-name="Path 10508" class="cls-4" d="M953.682,722.736H949.5v2.516h3.883V727.3h-3.892v3h4.194v2.036H947V720.7h6.673C953.682,721.369,953.682,722.019,953.682,722.736Z" transform="translate(-857.747 -652.778)"/>
      <path id="Path_10509" data-name="Path 10509" class="cls-4" d="M249.65,719.7c-.264.679-.528,1.329-.792,2.008-.471-.179-.9-.377-1.357-.528a2.812,2.812,0,0,0-4.024,2.243,6.7,6.7,0,0,0,.075,3.346,2.557,2.557,0,0,0,2.978,2c.9-.113,1.772-.33,2.7-.509,0,.565.009,1.169-.009,1.781a.41.41,0,0,1-.207.3,7.379,7.379,0,0,1-5.457.057,4.254,4.254,0,0,1-2.413-2.79,8.593,8.593,0,0,1-.151-4.731,5.1,5.1,0,0,1,5.683-3.987A7.441,7.441,0,0,1,249.65,719.7Z" transform="translate(-218.039 -651.115)"/>
      <path id="Path_10510" data-name="Path 10510" class="cls-4" d="M711.065,720.9v2.036h-3.129v9.576h-2.507v-9.547H702.3V720.9Z" transform="translate(-636.109 -652.959)"/>
    </g>
  </g>
</svg>
