<svg xmlns="http://www.w3.org/2000/svg" xmlns:xlink="http://www.w3.org/1999/xlink" viewBox="0 0 167.389 669.414"><defs><style>.a{fill:none;}.b,.f{opacity:0.5;}.c{fill:#1f3550;}.d,.f,.g,.h,.i,.j{fill:#8e99a6;}.e{fill:#8494a3;}.g{opacity:0.7;}.h{opacity:0.8;}.i{opacity:0.4;}.j{opacity:0.9;}.k{clip-path:url(#a);}</style><clipPath id="a"><rect class="a" width="59.112" height="59.112"/></clipPath></defs><g transform="translate(12682.279 6581)"><g class="b" transform="translate(-12682 -6581)"><g transform="translate(0 0)"><path class="c" d="M-.079,20.561c1.2.295,2.42.589,3.62.863.758.168,1.536.295,2.462.484a5.434,5.434,0,0,0-.442-.968,8.045,8.045,0,0,1-1.2-5.7,14.444,14.444,0,0,1,.863-3.3A33.079,33.079,0,0,0,6.592,7.471a10.751,10.751,0,0,0-.021-2.462,1.464,1.464,0,0,1,.568.168A4.624,4.624,0,0,1,8.571,7.2a13.531,13.531,0,0,1,.694,3.767,11.364,11.364,0,0,0,1.2-3.136c.168-1.263.4-2.525.442-3.809A5.951,5.951,0,0,1,12.317.505,1.377,1.377,0,0,1,13.621,0a6.593,6.593,0,0,0-.21,1.263,6.618,6.618,0,0,0,.568,2.61,20.462,20.462,0,0,1,1.536,4.293c.21,1.115.358,2.252.526,3.388.063-.21.126-.442.168-.652.063-.274.084-.547.126-.821.168-.842.295-1.7.505-2.525a13.043,13.043,0,0,1,1.3-3.283c.189-.316.316-.694.842-.737a2.02,2.02,0,0,1,0,.505,5.414,5.414,0,0,0-.021,2.252,11.057,11.057,0,0,0,1.747,4.314,9.189,9.189,0,0,1,1.3,3.914c.042.484.168.947.189,1.431a9.052,9.052,0,0,1-1.6,5.514c-.042.042-.021.126-.021.231.758.358,1.452-.21,2.189-.21A10.853,10.853,0,0,0,24.88,21c.737-.168,1.473-.295,2.336-.442a2.71,2.71,0,0,1,0,.716,13.747,13.747,0,0,1-2.967,4.735,1.375,1.375,0,0,1-1.115.442q-9.786-.032-19.572,0a1.142,1.142,0,0,1-1.01-.547,19.2,19.2,0,0,1-2.4-3.788A1.847,1.847,0,0,0-.1,21.8C-.079,21.4-.079,20.982-.079,20.561Z" transform="translate(0.1 0)"/><path class="c" d="M336.7,99.556c0-2.652.021-5.282-.021-7.913a4.7,4.7,0,0,0-.274-1.515,2.145,2.145,0,0,0-2.631-1.284,2.42,2.42,0,0,0-1.936,2.589v8.229h-2.462c-.021-.253-.063-.526-.063-.8,0-2.483,0-4.967-.021-7.471a4.132,4.132,0,0,0-.21-1.221,1.893,1.893,0,0,0-2.525-1.3c-.968.295-.968.295-1.978,1.41a5.471,5.471,0,0,1,.105.821c0,2.483.021,4.967,0,7.471a6.243,6.243,0,0,1-.21,1.136c-.694,0-1.284.021-1.873,0-.484-.021-.589-.168-.631-.652-.021-.21,0-.421,0-.631V87.5a.543.543,0,0,1,.568-.61h.316c1.094-.021,1.178.021,1.452,1.179a2.926,2.926,0,0,0,.126.274c1.936-2.083,4.84-2.5,6.44.526a20.674,20.674,0,0,1,1.6-1.41,4.042,4.042,0,0,1,4.525-.231,3.845,3.845,0,0,1,2,2.694,16.262,16.262,0,0,1,.232,2.483c.021,2.147.021,4.272,0,6.419,0,.884-.084.947-.968.947-.421,0-.842,0-1.263-.021A.7.7,0,0,0,336.7,99.556Z" transform="translate(-254.179 -68.409)"/><path class="c" d="M145.736,75v5.3c0,1.221,0,1.221-1.221,1.221-1.536.021-1.515.084-1.515-1.452V64.415c.021-.631.126-.758.737-.758,1.894-.021,3.788-.084,5.682.021a6.754,6.754,0,0,1,4.02,1.536,5.45,5.45,0,0,1,1.115,1.6c.147.253.105.631.253.884a4.1,4.1,0,0,1-.063,3.409A5.164,5.164,0,0,1,151.86,74.2a9.492,9.492,0,0,1-4.63.821C146.746,74.979,146.3,75,145.736,75Zm.105-8.839a36.149,36.149,0,0,0,.063,6.313c.884,0,1.81-.021,2.715,0a3.169,3.169,0,0,0,3.472-2.736A3.055,3.055,0,0,0,151.313,67a2.744,2.744,0,0,0-2.062-.821C148.135,66.1,147,66.162,145.841,66.162Z" transform="translate(-112.885 -50.231)"/><path class="c" d="M24.545,137.874H15.18a2.151,2.151,0,0,1-.737-.021c-.189-.084-.442-.295-.442-.484-.042-1.052-.021-2.1-.021-3.157a.513.513,0,0,1,.526-.547c.253-.021.484,0,.737,0h18.73c1.263,0,1.263,0,1.263,1.284,0,.694.021,1.41,0,2.1-.021.673-.126.8-.8.8-.842.021-1.684,0-2.525,0C29.469,137.874,27.007,137.874,24.545,137.874Z" transform="translate(-11.013 -105.528)"/><path class="c" d="M524.242,80.967h-2.189c-.168-.8-.21-17.025-.021-18.267h2.083a8.592,8.592,0,0,1,.105,2.315c.021.737,0,1.473,0,2.21v2.4c.463-.337.842-.631,1.242-.884a4.686,4.686,0,0,1,5.451.168,3.578,3.578,0,0,1,1.094,1.6,11.444,11.444,0,0,1,.61,4.377v4.946a1.469,1.469,0,0,1-.421,1.2h-1.726a.542.542,0,0,1-.589-.589V72.759a3.769,3.769,0,0,0-.042-.842c-.379-1.852-1.873-2.062-3.094-1.7A7.181,7.181,0,0,0,525,71.1a1.789,1.789,0,0,0-.821,1.684c.063,2.357.021,4.693.021,7.05A9.006,9.006,0,0,1,524.242,80.967Z" transform="translate(-412.052 -49.505)"/><path class="c" d="M259.675,99.815a5.855,5.855,0,0,1-4.735-2.231,6.056,6.056,0,0,1-1.3-3.03A8.818,8.818,0,0,1,253.824,91a5.639,5.639,0,0,1,2.273-3.409,6.123,6.123,0,0,1,6.145-.484c2.1.989,3.009,2.8,3.409,5.03a7.243,7.243,0,0,1-.274,3.241,5.586,5.586,0,0,1-2.673,3.578A6.564,6.564,0,0,1,259.675,99.815Zm3.451-6.587a6.713,6.713,0,0,0-.842-3.115A2.337,2.337,0,0,0,261,89.019a3.566,3.566,0,0,0-2.715.063,2.446,2.446,0,0,0-1.473,1.515,8.955,8.955,0,0,0-.463,3.178,5.843,5.843,0,0,0,.8,2.525,1.8,1.8,0,0,0,.589.716,3.329,3.329,0,0,0,2.673.442c.842-.253,1.81-.442,1.936-1.6,0-.021.042-.063.063-.084A4.1,4.1,0,0,0,263.126,93.228Z" transform="translate(-200.16 -68.289)"/><path class="c" d="M584.508,93.259c-.274,3.493,2.589,4.988,4.777,4.209.842-.295,1.684-.652,2.525-1.01,1.368,1.052,1.368,1.221,0,2.147a6.494,6.494,0,0,1-6.819.463,5.515,5.515,0,0,1-2.546-2.9,8.774,8.774,0,0,1-.526-4.5,5.756,5.756,0,0,1,1.347-3.094,5.482,5.482,0,0,1,3.346-1.978,5.179,5.179,0,0,1,5.766,2.589,8.612,8.612,0,0,1,.821,2.652,1.1,1.1,0,0,1-1.179,1.41C589.559,93.259,587.076,93.259,584.508,93.259Zm6.208-1.789a2.649,2.649,0,0,0-1.073-2.315,3.872,3.872,0,0,0-3.683-.042.787.787,0,0,0-.316.274,4.911,4.911,0,0,0-1.031,2A30.123,30.123,0,0,0,590.717,91.47Z" transform="translate(-459.375 -68.278)"/><path class="c" d="M416.367,93.5c.189.779.295,1.452.505,2.1A3.326,3.326,0,0,0,421,97.791a8.077,8.077,0,0,0,2.294-.926,3.024,3.024,0,0,1,.631-.253c.253.231.526.463.758.716.421.442.421.61-.063,1.052a5.288,5.288,0,0,1-2.441,1.347,9.255,9.255,0,0,1-2.147.295,5.922,5.922,0,0,1-6-5.935,10.363,10.363,0,0,1,.189-3.009,5.841,5.841,0,0,1,8.649-3.43,4.033,4.033,0,0,1,1.557,1.642,6.52,6.52,0,0,1,.758,3.2c-.021.968-.063,1.031-.989,1.031h-4.1C418.893,93.5,417.693,93.5,416.367,93.5Zm6.461-1.747c-.442-1.62-.442-1.62-1.01-2.126a2.686,2.686,0,0,0-2.083-.758,3.013,3.013,0,0,0-3.03,2.883Z" transform="translate(-326.863 -68.518)"/><path class="c" d="M653.285,99.027c-.231.168-.484.295-.694.463a4.594,4.594,0,0,1-4.672.9,4.172,4.172,0,0,1-2.462-2.652,6.968,6.968,0,0,1-.463-2.652c.042-2.168.021-4.335.021-6.524,0-.9.063-.968.947-.968h1.347a1.348,1.348,0,0,1,.442,1.242V96.1a3.174,3.174,0,0,0,.126,1.01,2.251,2.251,0,0,0,2.589,1.431,4.091,4.091,0,0,0,2.147-.968,1.652,1.652,0,0,0,.61-1.368c-.042-2.42-.021-4.84-.021-7.239v-.631c.042-.547.147-.694.673-.716.568-.021,1.115,0,1.663,0a122.158,122.158,0,0,1,.126,12.69C654.19,100.69,653.664,100.416,653.285,99.027Z" transform="translate(-509.233 -69.165)"/><path class="c" d="M711.217,99.976a6.068,6.068,0,0,1-3.851-1.326c-.379-.274-.379-.421-.126-.884.526-.884.821-.968,1.789-.505a12.083,12.083,0,0,0,1.494.694,3.324,3.324,0,0,0,2.126-.168,1.572,1.572,0,0,0,1.115-1.6,1.531,1.531,0,0,0-1.094-1.389c-.526-.189-1.073-.316-1.578-.526-.652-.253-1.263-.568-1.915-.821a3.213,3.213,0,0,1-1.01-5.219,4.908,4.908,0,0,1,3.346-1.515,6.128,6.128,0,0,1,4.083,1.3.53.53,0,0,1,.189.8c-.547.968-.737.989-1.81.505a3.833,3.833,0,0,0-3.22-.274,1.429,1.429,0,0,0-.947,1.368c-.021.673.168.968.884,1.242.505.21,1.052.337,1.578.505a9.054,9.054,0,0,1,2.652,1.179,1.962,1.962,0,0,1,.989,1.81c-.021.463-.021.9,0,1.368a2.571,2.571,0,0,1-.989,2.062A5.379,5.379,0,0,1,711.217,99.976Z" transform="translate(-558.242 -68.451)"/><path class="c" d="M476.76,72.981h2.694c.316,0,.716-.021.779.358a3.532,3.532,0,0,1-.084,1.326c-.021.126-.421.21-.631.21-.863.021-1.747,0-2.673,0a3.715,3.715,0,0,0-.105.61c0,2.21-.021,4.419,0,6.608,0,1.221.779,1.684,1.873,1.179.274-.126.568-.274.9-.442a4.167,4.167,0,0,1,1.01,1.515,5.463,5.463,0,0,1-3.136,1.242,3.022,3.022,0,0,1-3.178-3.115v-7.45c-.379-.295-.779-.147-1.136-.168-.716-.063-1.094-.526-.926-1.179.042-.189.295-.337.463-.484.063-.063.21,0,.316-.021,1.578-.484,1.494.105,1.536-1.726.021-.716.126-1.452.21-2.168a.894.894,0,0,1,.779-.737,3.165,3.165,0,0,1,.631,0c.526.042.673.168.673.694.021,1.01,0,2.041,0,3.052A2.5,2.5,0,0,0,476.76,72.981Z" transform="translate(-372.735 -54.104)"/><path class="c" d="M34.146,160.9H46.794a3.93,3.93,0,0,1,0,.863,5.949,5.949,0,0,1-4.63,4.314,6.862,6.862,0,0,1-6.124-1.263A4.5,4.5,0,0,1,34,161.237a.748.748,0,0,1,.042-.21C34.041,161.005,34.083,160.984,34.146,160.9Z" transform="translate(-26.822 -127.039)"/><path class="c" d="M213.394,88.926a9.046,9.046,0,0,1,2-1.7,3.678,3.678,0,0,1,3.009-.231.568.568,0,0,1,.463.61,6.964,6.964,0,0,1-.21,1.326c-.168.568-.358.652-.9.547a6.083,6.083,0,0,0-1.221-.168,3.018,3.018,0,0,0-2.9,2.946v6.608c0,.884-.063.947-.968.968h-.737c-.716-.021-.821-.126-.821-.884V87.81c0-.716.126-.821.884-.842.21,0,.421-.021.631,0a.86.86,0,0,1,.8.8C213.415,88.147,213.394,88.547,213.394,88.926Z" transform="translate(-166.653 -68.512)"/></g></g><g class="b" transform="translate(-12680 -6449)"><path class="c" d="M3.572,18.931c.123-.17.189-.273.264-.368l2.622-3.216Q11.479,9.194,16.492,3.041a.978.978,0,0,0,.264-.481c.028-.66.009-1.32.009-2.056H3.355C2.525.5,1.686.523.856.495.4.485.186.589.243,1.089a6.381,6.381,0,0,1,0,1.273c-.038.453.123.585.575.585,3.914-.019,7.827-.009,11.741-.009h.575l-.424.556Q6.457,11.146.2,18.828a.943.943,0,0,0-.255.434c-.028.67-.009,1.339-.009,2.065h16.6a.956.956,0,0,0,.33-.009c.094-.038.226-.141.226-.217.019-.7.009-1.405.009-2.16C12.578,18.931,8.108,18.931,3.572,18.931Z" transform="translate(0.065 -0.447)"/><path class="c" d="M445.154,10.521c-.33-.151-.688-.264-1.056-.406.405-.16.792-.273,1.151-.453A3.814,3.814,0,0,0,447.314,6.4a4.711,4.711,0,0,0-2.424-4.989A7.327,7.327,0,0,0,441.6.562C439.024.515,436.45.534,433.875.5c-.462-.009-.575.141-.575.585q.014,9.831.009,19.653c0,.179.019.368.038.594h.6c2.122,0,4.244.028,6.366-.009a20.5,20.5,0,0,0,3.225-.283,5.574,5.574,0,0,0,3.565-2.028,5.783,5.783,0,0,0,.943-5.045A4.854,4.854,0,0,0,445.154,10.521Zm-8.912-7.658c1.283,0,2.537-.028,3.791.009a11.589,11.589,0,0,1,2.282.255,2.649,2.649,0,0,1,2.16,2.989,2.666,2.666,0,0,1-2.565,2.8c-1.858.132-3.735.085-5.592.113-.009,0-.019-.019-.066-.057C436.242,6.956,436.242,4.938,436.242,2.863Zm8.591,14.193a3.009,3.009,0,0,1-2.15,1.679,6.815,6.815,0,0,1-1.443.2c-1.556.028-3.112.019-4.659.019-.1,0-.217-.009-.358-.019V11.464a1.776,1.776,0,0,1,.292-.038c1.679,0,3.357-.028,5.036.028a3.9,3.9,0,0,1,2.773,1.094,2.931,2.931,0,0,1,.773,1.631A4.99,4.99,0,0,1,444.834,17.056Z" transform="translate(-392.431 -0.448)"/><path class="c" d="M209,.891a.531.531,0,0,0-.585-.4c-.736.019-1.481.028-2.216-.009a.713.713,0,0,0-.811.547q-3.466,9.039-6.95,18.069c-.273.707-.538,1.424-.839,2.216.924,0,1.773-.019,2.612.009a.5.5,0,0,0,.566-.406c.528-1.509,1.075-3.008,1.6-4.517a.53.53,0,0,1,.594-.434c2.839.019,5.687.019,8.525,0a.536.536,0,0,1,.6.424c.519,1.509,1.066,3.008,1.613,4.508.057.151.207.387.321.4.915.028,1.83.019,2.8.019-.085-.245-.141-.406-.2-.556Q212.807,10.816,209,.891Zm-5.573,12.675c1.264-3.4,2.509-6.752,3.8-10.2,1.292,3.452,2.546,6.809,3.81,10.2Z" transform="translate(-178.959 -0.438)"/><path class="c" d="M940.733,20.291c-2.226-3.367-4.442-6.733-6.677-10.091a.59.59,0,0,1,.01-.783c1.962-2.914,3.914-5.847,5.856-8.77.1-.16.208-.33.377-.585-.962,0-1.83-.019-2.678.009a.785.785,0,0,0-.556.3c-.585.82-1.122,1.66-1.688,2.5-1.018,1.528-2.037,3.056-3.084,4.621-.113-.16-.208-.292-.292-.415-1.245-1.886-2.556-3.735-3.716-5.677A2.24,2.24,0,0,0,925.748.043a8.978,8.978,0,0,1-1.518.009c.123.217.179.34.255.453,1.962,2.971,3.923,5.951,5.9,8.912a.717.717,0,0,1-.009.943q-3.367,4.993-6.7,10.025c-.085.132-.16.283-.283.49.943,0,1.792-.009,2.641.009a.64.64,0,0,0,.613-.34c.792-1.207,1.594-2.4,2.4-3.612,1.047-1.565,2.084-3.131,3.15-4.725.1.141.189.255.274.368,1.452,2.2,2.9,4.4,4.366,6.6.368.547.622,1.3,1.141,1.575a4.9,4.9,0,0,0,1.99.113c.349.009.7,0,1.141,0C940.931,20.611,940.837,20.451,940.733,20.291Z" transform="translate(-836.312 0.004)"/><path class="c" d="M650.434,10.474c-.226-.085-.453-.16-.688-.236.019-.047.019-.075.028-.075.057-.019.123-.028.179-.047a3.649,3.649,0,0,0,2.716-2.433,5.75,5.75,0,0,0,.273-1.377A4.676,4.676,0,0,0,650.7,1.618,7.585,7.585,0,0,0,647.01.647C644.455.609,641.89.609,639.324.6a3.074,3.074,0,0,0-.387.047c-.009.16-.028.3-.028.434q0,9.916-.009,19.842c0,.4.113.5.509.5,2.235-.019,4.461.019,6.7-.019a20.55,20.55,0,0,0,2.942-.264,5.388,5.388,0,0,0,4.762-6.111A4.98,4.98,0,0,0,650.434,10.474Zm-8.6-7.441c.057-.028.085-.057.1-.057,1.745.019,3.48.028,5.225.075a3.788,3.788,0,0,1,1.009.217c1.405.472,2.018,1.556,1.877,3.244a2.606,2.606,0,0,1-2.452,2.5c-1.9.16-3.819.141-5.762.207Zm7.9,15.061a4.319,4.319,0,0,1-2.376.924,6.91,6.91,0,0,1-.99.028h-4.546V11.6c.038-.028.066-.057.085-.057,1.971.028,3.961-.057,5.922.123,1.933.17,2.933,1.481,2.952,3.433A3.592,3.592,0,0,1,649.736,18.094Z" transform="translate(-578.642 -0.543)"/><path class="c" d="M845.4,21.857h2.791V1.1H845.4Z" transform="translate(-765.668 -0.996)"/></g><g class="b" transform="translate(-12681 -6502)"><g transform="translate(0 0)"><path class="c" d="M141.778,39.478c0,2.211-.051,4.114,0,5.966a7.656,7.656,0,0,1-.771,3.188,3.063,3.063,0,0,1-3.291,1.9c-1.337-.1-2.931-.514-3.188-2.366a17.775,17.775,0,0,1-.463-2.726c-.051-8.28-.051-16.611,0-24.891a8.015,8.015,0,0,1,.411-2.469c1.029-3.291,3.7-3.908,6.274-1.594.206.154.36.36.771.669,1.954-1.749,4.423-2.109,7.046-1.954a9.723,9.723,0,0,1,5.76,2.366,12.7,12.7,0,0,1,4.423,9.72,14.364,14.364,0,0,1-4.68,11.468C151.035,41.33,145.789,41.793,141.778,39.478Zm0-11.417a4.982,4.982,0,0,0,1.9,4.731c1.491,1.286,4.371,1.234,5.5-.257,1.851-2.417,2.417-5.194.463-8.177-1.646-2.52-4.32-2.777-6.428-.72A5,5,0,0,0,141.778,28.062Z" transform="translate(-65.112 -7.322)"/><path class="c" d="M79.765,27.458a12.877,12.877,0,0,1,1.646-7.148,10.857,10.857,0,0,1,6.737-5.5,13.037,13.037,0,0,1,7.3-.206,10.956,10.956,0,0,1,7.1,5.348c3.137,5.348,2.88,10.748-.566,15.84a9.652,9.652,0,0,1-8.64,4.577,22.374,22.374,0,0,1-4.577-.257,11.578,11.578,0,0,1-8.588-8.64A16.848,16.848,0,0,1,79.765,27.458Zm7.611-.309a7.184,7.184,0,0,0,1.337,4.166,3.722,3.722,0,0,0,6.017.617,6.806,6.806,0,0,0,.926-8.177,4,4,0,0,0-3.7-2.366,3.857,3.857,0,0,0-3.7,2.623C87.994,25.092,87.685,26.121,87.376,27.149Z" transform="translate(-38.739 -6.873)"/><path class="c" d="M7.623,16.67a11.039,11.039,0,0,1,10.9-.926A6.738,6.738,0,0,1,22.64,22.07c.154,4.886.1,9.771,0,14.657-.051,2.417-1.286,3.5-3.754,3.446-2.211-.051-3.343-1.131-3.446-3.5-.051-2.726.051-5.5-.051-8.228a23.616,23.616,0,0,0-.514-4.268,3.483,3.483,0,0,0-5.3-2.366,2.455,2.455,0,0,0-.926,1.131,17.606,17.606,0,0,0-.874,3.96c-.154,2.828,0,5.657-.051,8.485a9.769,9.769,0,0,1-.463,2.726c-.566,1.851-1.029,2.057-3.24,2.057-1.749,0-2.983-.771-3.394-2.109a10.189,10.189,0,0,1-.566-2.983c-.051-4.783-.051-9.617,0-14.4a13.339,13.339,0,0,1,.617-3.754c.566-1.8,3.24-2.571,5.246-1.543A13.388,13.388,0,0,1,7.623,16.67Z" transform="translate(-0.025 -7.142)"/><path class="c" d="M51.674,15.26a17.967,17.967,0,0,1-2.571-.566A2.808,2.808,0,0,1,47.1,11.969a2.757,2.757,0,0,1,1.8-2.828c.874-.36,1.7-.669,2.777-1.08a27.9,27.9,0,0,1,.051-3.6,8.057,8.057,0,0,1,.823-2.88C53.217.192,54.605-.271,56.508.089a3.209,3.209,0,0,1,2.366,2.674c.257,1.7.463,3.343.771,5.348.72.257,1.7.514,2.623.874a3.248,3.248,0,0,1,2.263,3.291A3.291,3.291,0,0,1,61.548,15a10.885,10.885,0,0,1-1.9.1c-.051.72-.154,1.389-.154,2.057,0,3.188.051,6.326-.051,9.514a25.928,25.928,0,0,1-.514,4.011A3,3,0,0,1,55.737,33c-2.417.051-2.88-.154-3.5-2.109a9.769,9.769,0,0,1-.463-2.726c-.051-3.446,0-6.84,0-10.285A21.085,21.085,0,0,1,51.674,15.26Z" transform="translate(-22.888 0.028)"/></g></g><g class="b" transform="translate(-12681 -6532)"><g transform="translate(0 0)"><path class="c" d="M11.3,20.436a13.245,13.245,0,0,1-6.746-1.72A8.528,8.528,0,0,1,1.77,5.867,13.933,13.933,0,0,1,11.22.261a13.3,13.3,0,0,1,9.834,1.844,8.244,8.244,0,0,1,4.052,7.616,9.434,9.434,0,0,1-2.756,6.1,14.773,14.773,0,0,1-9.3,4.518c-.321.041-.653.073-.984.083C11.821,20.446,11.562,20.436,11.3,20.436Zm9.5-10.02a7.16,7.16,0,0,0-14.321-.041,7.161,7.161,0,1,0,14.321.041Z" transform="translate(0.049 -0.025)"/><path class="c" d="M324.481,20.906h2.186V34.8c-.746,0-1.513.01-2.28-.021-.1,0-.228-.228-.3-.363q-2.316-5.021-4.622-10.041c-.01-.031-.041-.052-.083-.1.062,3.5.114,6.974.176,10.487H317.3V20.886c.819,0,1.637-.01,2.456.021.114,0,.249.218.311.352,1.523,3.243,3.388,6.321,4.539,9.741.01.041.052.073.052.062C324.6,27.714,324.543,24.347,324.481,20.906Z" transform="translate(-284.415 -18.723)"/><path class="c" d="M707.4,34.258V20.3a44.594,44.594,0,0,1,5.544.228c3.668.58,3.824,4.591,2.332,6.425a3.267,3.267,0,0,1-2.363,1.223c.674.984,1.378,1.969,2.041,2.974s1.264,2.041,1.938,3.14c-.912,0-1.741.021-2.559-.021-.135-.01-.3-.2-.383-.342-.622-1.057-1.181-2.145-1.834-3.181a18.082,18.082,0,0,0-1.523-2.021,4.41,4.41,0,0,0-.933-.6v6.124C708.882,34.258,708.167,34.258,707.4,34.258Zm2.28-12.083V26.6c.653,0,1.275.01,1.886,0a2.426,2.426,0,0,0,.611-.093,1.969,1.969,0,0,0,1.534-2.155,1.741,1.741,0,0,0-1.5-1.979C711.4,22.238,710.55,22.238,709.68,22.176Z" transform="translate(-634.092 -18.199)"/><path class="c" d="M525.342,65.793c-.642-2.466-1.275-4.891-1.907-7.347-.4,1.554-.8,3.088-1.2,4.622-.2.767-.425,1.523-.611,2.3-.073.311-.2.435-.518.425-.435-.021-.86-.021-1.3,0a.406.406,0,0,1-.477-.342c-.87-3.192-1.751-6.383-2.622-9.575-.01-.031,0-.073-.01-.166.694-.1,1.4-.207,2.155-.311.549,2.518,1.088,5.005,1.617,7.419.5-1.865,1.005-3.793,1.523-5.71.135-.5.155-1.192.487-1.43.352-.259,1.026-.062,1.554-.114.456-.041.611.135.715.57.539,2.28,1.109,4.549,1.668,6.808.518-2.435,1.036-4.891,1.565-7.347h2.3c-.1.363-.187.694-.28,1.036-.808,2.891-1.627,5.772-2.414,8.663-.114.414-.29.549-.715.518A14.935,14.935,0,0,0,525.342,65.793Z" transform="translate(-463.153 -49.662)"/><path class="c" d="M813.251,60.231h-6.166c.031,1.129.145,2.2,1.212,2.725a3.432,3.432,0,0,0,3.844-.674c.28.435.56.87.85,1.326a5.305,5.305,0,0,1-3.762,1.347A4.354,4.354,0,0,1,804.8,61.05a6.568,6.568,0,0,1,.777-4.943,4.176,4.176,0,0,1,6.207-.839,3.444,3.444,0,0,1,1.15,2.093C813.1,58.283,813.147,59.205,813.251,60.231Zm-2.4-1.668c.052-1.606-.715-2.642-1.886-2.6s-1.927,1.109-1.782,2.6Z" transform="translate(-721.259 -48.628)"/><path class="c" d="M432.967,60.29h-6.083c.01,1.047.1,2.072,1.047,2.632,1.42.85,2.746.373,4.01-.56.29.446.56.87.86,1.326a5.351,5.351,0,0,1-5.4,1.026,4.422,4.422,0,0,1-2.881-4.021,7.254,7.254,0,0,1,.373-3.668,4.2,4.2,0,0,1,6.673-1.668,3.981,3.981,0,0,1,.943,1.389A8.752,8.752,0,0,1,432.967,60.29Zm-6.041-1.679h3.71c.052-1.554-.663-2.58-1.782-2.591C427.641,56.01,426.895,56.984,426.926,58.611Z" transform="translate(-380.456 -48.686)"/><path class="c" d="M1001.086,55.477c-.352.477-.7.943-1.057,1.42-.269-.176-.518-.363-.787-.508a1.752,1.752,0,0,0-2.6.933,7.553,7.553,0,0,0-.052,4.829,1.777,1.777,0,0,0,2.487,1.067,11.259,11.259,0,0,0,1.326-.777c.3.394.642.819.964,1.243-1.461,1.876-5.585,2.062-6.881-.725a6.877,6.877,0,0,1,.135-6.425,4.134,4.134,0,0,1,6.3-1.223A.816.816,0,0,1,1001.086,55.477Z" transform="translate(-890.773 -48.713)"/><path class="c" d="M903.8,12.8c.746-.166,1.471-.321,2.259-.5a13.158,13.158,0,0,1,.124,1.368c.021,3.471.021,6.932.031,10.4q0,.389.031.777c.073.777.166.86.933.974.1.4.207.819.321,1.223a2.247,2.247,0,0,1-3.5-1.8c-.041-.414-.052-.829-.052-1.243-.01-3.119,0-6.249-.021-9.368C903.935,14.041,903.852,13.45,903.8,12.8Z" transform="translate(-810.14 -11.028)"/><path class="c" d="M955.428,65.093H953.21v-.528c0-2.984.01-5.969-.01-8.953,0-.414.135-.57.528-.622.56-.073,1.119-.187,1.7-.29Z" transform="translate(-854.421 -49.034)"/><path class="c" d="M951.651,17.2a1.453,1.453,0,0,1-1.451-1.44,1.456,1.456,0,1,1,2.912.021A1.438,1.438,0,0,1,951.651,17.2Z" transform="translate(-851.732 -12.82)"/><path class="c" d="M1072.682,128.6a1.5,1.5,0,0,1,1.5,1.471,1.475,1.475,0,0,1-1.451,1.513,1.493,1.493,0,0,1-1.534-1.482A1.513,1.513,0,0,1,1072.682,128.6Zm-.021,2.694a1.223,1.223,0,0,0,1.2-1.233,1.2,1.2,0,1,0-2.394.062A1.174,1.174,0,0,0,1072.661,131.293Z" transform="translate(-960.193 -115.276)"/><path class="c" d="M77.32,38.271a7.16,7.16,0,1,1-7.1-7.171A7.108,7.108,0,0,1,77.32,38.271Zm-8.259,4.217a4.388,4.388,0,1,0-4.383-4.352A4.466,4.466,0,0,0,69.061,42.488Z" transform="translate(-56.466 -27.88)"/><path class="c" d="M1081.542,135.34c-.062.228-.114.425-.166.622-.062-.01-.124-.031-.176-.041V134.2a3.1,3.1,0,0,1,.964.321c.1.073-.031.477-.062.736h-.156c.125.2.249.4.394.642C1081.77,136.076,1081.853,135.454,1081.542,135.34Z" transform="translate(-969.157 -120.296)"/></g></g><g class="b" transform="translate(-12682 -6418)"><path class="c" d="M11.67,0c1.137.351,2.274.706,3.411,1.057q4.786,1.472,9.576,2.95A2.147,2.147,0,0,1,26.2,5.655q1.4,6.055,2.775,12.111a2.088,2.088,0,0,1-.646,2.079q-4.861,4.53-9.737,9.045a2.771,2.771,0,0,1-1.267.611h-.6c-.115-.04-.235-.075-.351-.11q-5.9-1.818-11.8-3.631A2.154,2.154,0,0,1,3.02,24.1Q1.75,18.574.5,13.057c-.16-.7-.331-1.392-.5-2.089v-.551A2.686,2.686,0,0,1,.766,8.99q4.29-3.959,8.56-7.943A3.379,3.379,0,0,1,11.069,0Zm7.082,20.8a.672.672,0,0,0-.536-.7q-4.966-1.533-9.937-3.06a.669.669,0,0,0-.917.476q-.819,2.652-1.633,5.3a.67.67,0,0,0,.5.927q4.958,1.525,9.912,3.05a.664.664,0,0,0,.932-.481c.546-1.758,1.082-3.521,1.623-5.279A1.641,1.641,0,0,0,18.752,20.8Zm1.513-1.357a1.5,1.5,0,0,0,.175-.035q2.652-.609,5.309-1.212c.581-.135.766-.416.636-.987q-1.149-5-2.294-10.012a.679.679,0,0,0-.922-.576q-2.667.609-5.334,1.222a.68.68,0,0,0-.581.942q.639,2.8,1.282,5.6l1.037,4.508A.665.665,0,0,0,20.264,19.438ZM15.837,7.663a3.652,3.652,0,0,0-.331-.541q-1.856-2.013-3.731-4.017a.679.679,0,0,0-1.087-.035Q6.9,6.586,3.11,10.1a.667.667,0,0,0-.035,1.067l3.731,4.017a.677.677,0,0,0,1.1.035c.992-.917,1.983-1.838,2.975-2.755,1.523-1.412,3.05-2.825,4.563-4.242A3.923,3.923,0,0,0,15.837,7.663Zm2.9,11.229c-.005-.035-.02-.11-.035-.185q-.887-3.9-1.778-7.793c-.135-.586-.265-1.172-.4-1.753-.1-.411-.356-.486-.671-.21-.04.035-.075.065-.11.1q-3.539,3.283-7.082,6.571a1.213,1.213,0,0,0-.155.165.307.307,0,0,0,.11.5,1.211,1.211,0,0,0,.255.1q4.215,1.3,8.429,2.594c.321.1.636.2.957.29C18.561,19.353,18.747,19.218,18.742,18.892ZM2.9,12.286a.732.732,0,0,1-.065.045,2.836,2.836,0,0,0,.04.361c.306,1.347.616,2.695.922,4.042q.548,2.412,1.107,4.823a1.175,1.175,0,0,0,.165.285c.06-.07.15-.135.175-.22.476-1.533.957-3.07,1.417-4.608a1.065,1.065,0,0,0-.245-1.052C5.339,14.78,4.247,13.613,3.15,12.441A1.288,1.288,0,0,0,2.9,12.286ZM22.3,5.935v-.09a3.881,3.881,0,0,0-.391-.175q-4.3-1.322-8.6-2.634a1.685,1.685,0,0,0-.391-.01,1.519,1.519,0,0,0,.185.331q1.555,1.683,3.115,3.356A1.215,1.215,0,0,0,17.45,7.1c1.513-.341,3.02-.691,4.528-1.037A2.172,2.172,0,0,0,22.3,5.935ZM18.116,25.869c.025.015.055.025.08.04a2.365,2.365,0,0,0,.26-.175q3.358-3.11,6.716-6.231a1.683,1.683,0,0,0,.2-.26c-.015-.025-.03-.05-.04-.07a2.437,2.437,0,0,0-.381.03c-1.5.341-3.005.681-4.508,1.032a1.17,1.17,0,0,0-.9.821c-.471,1.493-.927,2.99-1.382,4.488A1.38,1.38,0,0,0,18.116,25.869Z"/><path class="c" d="M2788.5,185.176c-.1.521-.21,1.042-.305,1.563q-.744,4.185-1.478,8.369c-.11.626-.221,1.247-.326,1.873-.075.426-.16.5-.591.5-.165,0-.335.005-.5,0-.245-.01-.326-.09-.3-.351.045-.431.115-.861.175-1.287.01-.065.015-.13.025-.25-.1.08-.16.125-.22.175a8.339,8.339,0,0,1-4.077,1.893,6.931,6.931,0,0,1-1.793.01,1.781,1.781,0,0,1-1.708-1.978,13.383,13.383,0,0,1,.235-2.033c.286-1.683.581-3.366.9-5.044a9.85,9.85,0,0,1,.486-1.648,4.082,4.082,0,0,1,3.521-2.69,12.579,12.579,0,0,1,5.71.676c.08.025.16.05.235.075A.686.686,0,0,1,2788.5,185.176Zm-1.658.776a.972.972,0,0,0-.14-.05,11.444,11.444,0,0,0-3.616-.366,2.907,2.907,0,0,0-2.81,2.229,8.914,8.914,0,0,0-.286,1.087q-.443,2.4-.851,4.8a15.927,15.927,0,0,0-.24,1.758.835.835,0,0,0,.941.992,5.643,5.643,0,0,0,1.363-.135,9.884,9.884,0,0,0,4.067-2.269.725.725,0,0,0,.225-.416c.19-1,.361-2,.536-3C2786.293,189.042,2786.563,187.5,2786.838,185.952Z" transform="translate(-2638.291 -174.958)"/><path class="c" d="M1190.679,75.819c-.521-.09-1.037-.21-1.553-.26-.851-.085-1.713-.155-2.569-.18-.711-.02-.972.235-1.1.932-.11.6-.22,1.2-.335,1.828.1.005.2.015.28.015h2.63c.391,0,.441.065.341.446-.2.776-.416,1.548-.6,2.324-.06.245-.17.316-.416.316-.842-.015-1.688,0-2.529-.01-.175,0-.255.03-.291.23-.521,3.03-1.057,6.06-1.588,9.09a12.39,12.39,0,0,1-.716,2.9,10.462,10.462,0,0,1-2.259,3.065.275.275,0,0,1-.436.005c-.666-.616-1.337-1.237-2.008-1.848-.13-.12-.15-.23-.025-.361.03-.03.055-.065.085-.1a5.371,5.371,0,0,0,1.467-3c.556-3.281,1.152-6.551,1.733-9.827.005-.04.01-.08.015-.16h-.726c-.275,0-.551-.005-.826,0-.215.005-.3-.07-.26-.3.145-.811.286-1.628.421-2.439.045-.275.235-.336.476-.336h1.458c.09-.506.155-1.007.265-1.5a19.076,19.076,0,0,1,.491-1.908,3.383,3.383,0,0,1,2.825-2.319,10.846,10.846,0,0,1,3.391-.025c.932.125,1.853.336,2.78.5a.809.809,0,0,0,.245.01c1.137-.185,2.269-.371,3.406-.561.3-.05.351,0,.3.3q-1.33,7.573-2.665,15.146c-.17.962-.335,1.923-.511,2.88-.08.446-.175.516-.616.516h-2.73c-.441,0-.491-.055-.421-.476q.616-3.561,1.237-7.122c.436-2.514.881-5.024,1.317-7.538A1.078,1.078,0,0,0,1190.679,75.819Z" transform="translate(-1118.452 -68.667)"/><path class="c" d="M916.6,185.546c.551-.23,1.072-.466,1.6-.676a9.615,9.615,0,0,1,3.546-.771,3.485,3.485,0,0,1,.721.07,1.928,1.928,0,0,1,1.578,1.773,8.18,8.18,0,0,1-.12,2.589q-.714,4.072-1.432,8.149c-.005.025-.005.05-.01.075-.11.586-.17.641-.766.641h-2.6c-.441,0-.5-.05-.421-.476.25-1.488.511-2.975.771-4.458l.721-4.087c.085-.486-.1-.7-.586-.611a7.46,7.46,0,0,0-1.347.371c-.591.225-1.162.506-1.743.756a.374.374,0,0,0-.235.316c-.436,2.544-.887,5.089-1.337,7.633-.09.5-.17.561-.681.561h-2.68c-.431,0-.486-.065-.411-.486q.954-5.454,1.9-10.909c.05-.28.105-.556.145-.836a.615.615,0,0,1,.556-.556c.811-.145,1.628-.28,2.439-.411.356-.055.391-.01.391.346Z" transform="translate(-865.503 -174.878)"/><path class="c" d="M1534.025,197.54c-.716.29-1.372.576-2.044.826a8.745,8.745,0,0,1-3.2.621,3.492,3.492,0,0,1-.646-.07,2.057,2.057,0,0,1-1.633-2.043,11.662,11.662,0,0,1,.281-3.005q.639-3.644,1.277-7.292c.09-.516.15-.591.676-.666.967-.14,1.933-.27,2.9-.406.3-.04.371.03.316.326q-.488,2.787-.977,5.569c-.19,1.077-.381,2.149-.561,3.225-.1.6.105.831.7.666.776-.215,1.527-.511,2.284-.791a1.907,1.907,0,0,0,.831-.431c.17-.215.145-.586.2-.887q.593-3.388,1.192-6.771a.5.5,0,0,1,.486-.481l3.075-.421c.316-.045.371.025.316.341q-.864,4.936-1.728,9.877c-.155.876-.305,1.758-.461,2.634-.06.336-.1.366-.446.366h-2.454c-.35,0-.376-.025-.381-.391C1534.02,198.081,1534.025,197.82,1534.025,197.54Z" transform="translate(-1450.028 -176.204)"/><path class="c" d="M1786.965,199.069h-.291c-.987,0-1.968-.005-2.955,0a.73.73,0,0,1-.741-.476c-.386-.841-.781-1.678-1.172-2.514-.04-.08-.08-.16-.135-.26-.065.07-.115.12-.16.175-.721.866-1.443,1.728-2.154,2.6a1.2,1.2,0,0,1-1,.471c-1.1,0-2.2,0-3.361,0,.075-.105.12-.175.17-.24q2.4-3.035,4.793-6.07a.431.431,0,0,0,.06-.531c-.861-1.868-1.708-3.746-2.559-5.62-.035-.08-.07-.165-.12-.28.511-.075,1-.145,1.492-.22.561-.08,1.122-.17,1.683-.245.351-.045.461.025.591.356.471,1.2.937,2.409,1.407,3.611.035.085.07.17.12.285.065-.09.12-.16.17-.23.791-1.157,1.593-2.309,2.374-3.471a.811.811,0,0,1,.751-.391c1.067.01,2.139.005,3.205.005h.3c-.07.105-.115.18-.165.245q-2.449,3.261-4.9,6.521a.393.393,0,0,0-.05.466q1.262,2.75,2.514,5.5C1786.87,198.849,1786.905,198.934,1786.965,199.069Z" transform="translate(-1686.099 -176.546)"/><path class="c" d="M2092.269,96.68l-.24.19a8.489,8.489,0,0,1-4.117,1.873,7.159,7.159,0,0,1-1.793.015,1.784,1.784,0,0,1-1.723-1.988,12.929,12.929,0,0,1,.235-2.008c.285-1.693.581-3.386.906-5.069a9.426,9.426,0,0,1,.491-1.648,4.147,4.147,0,0,1,3.536-2.685,12.234,12.234,0,0,1,4.392.275c.055.01.11.02.2.04.08-.436.16-.861.23-1.282.22-1.262.441-2.529.661-3.791.05-.3.165-.406.476-.451.24-.035.476-.075.716-.1.271-.02.366.09.315.361q-.421,2.412-.846,4.828-.736,4.207-1.482,8.419-.391,2.239-.791,4.483c-.065.351-.15.421-.5.421-.185,0-.366.005-.551,0-.271-.005-.351-.085-.321-.356.05-.466.12-.927.186-1.387A.318.318,0,0,0,2092.269,96.68Zm1.648-9.656a11.453,11.453,0,0,0-4.067-.371,2.755,2.755,0,0,0-2.439,1.833,8.123,8.123,0,0,0-.426,1.432c-.305,1.6-.581,3.2-.856,4.8a15.082,15.082,0,0,0-.24,1.828.81.81,0,0,0,.9.932,5.631,5.631,0,0,0,1.362-.115,10.091,10.091,0,0,0,4.288-2.369.428.428,0,0,0,.11-.235q.526-2.937,1.042-5.88C2093.7,88.27,2093.806,87.659,2093.917,87.023Z" transform="translate(-1979.998 -76.045)"/><path class="c" d="M2361.473,185.088c-.17.962-.336,1.923-.506,2.885q-.736,4.185-1.477,8.369c-.045.255-.085.511-.14.761-.07.346-.15.406-.511.411h-.451c-.376,0-.441-.06-.4-.446.055-.461.125-.922.2-1.447-.11.085-.186.145-.26.2a8.58,8.58,0,0,1-4.032,1.878,5.392,5.392,0,0,1-1.943-.015,1.756,1.756,0,0,1-1.562-1.873,14.645,14.645,0,0,1,.24-2.179c.281-1.683.571-3.371.907-5.044a9.234,9.234,0,0,1,.621-1.918,3.985,3.985,0,0,1,3.311-2.349,12.51,12.51,0,0,1,5.925.726C2361.413,185.048,2361.428,185.058,2361.473,185.088Zm-1.653.907a.466.466,0,0,0-.1-.045,10.3,10.3,0,0,0-4.062-.326,2.677,2.677,0,0,0-2.259,1.778,7.747,7.747,0,0,0-.426,1.407c-.306,1.6-.581,3.2-.856,4.8a16.568,16.568,0,0,0-.246,1.853.818.818,0,0,0,.937.967,6.456,6.456,0,0,0,1.552-.185,10.288,10.288,0,0,0,3.827-2.154.844.844,0,0,0,.3-.546c.286-1.658.581-3.316.872-4.973C2359.52,187.713,2359.67,186.861,2359.821,185.995Z" transform="translate(-2232.675 -174.991)"/><path class="c" d="M773.439,198.584h-1.352c-.471,0-.531-.06-.451-.526.15-.876.311-1.758.466-2.634q.736-4.185,1.477-8.369c.05-.27.1-.541.145-.811a.5.5,0,0,1,.461-.456c1.047-.145,2.1-.29,3.145-.431.25-.035.32.05.275.3q-1.089,6.153-2.184,12.306c-.015.08-.035.165-.055.245a.441.441,0,0,1-.481.381Z" transform="translate(-732.96 -176.066)"/><path class="c" d="M2612.361,127.227h-2.194c-.181,0-.271-.08-.246-.26.041-.265.075-.526.13-.791.04-.21.215-.23.391-.23.636,0,1.267-.005,1.9.005.19.005.271-.04.305-.25.131-.831.291-1.658.431-2.489.06-.356.15-.451.506-.511.22-.035.446-.07.671-.09.3-.03.4.08.346.381l-.466,2.66c-.015.08-.02.165-.035.28.1.005.186.01.271.01h3.306c.291,0,.305.025.25.3-.05.23-.11.456-.15.681a.329.329,0,0,1-.381.3c-1.1-.01-2.2,0-3.305-.005-.18,0-.25.04-.285.235q-.826,4.771-1.668,9.531a1.294,1.294,0,0,0-.02.2c-.03.551.145.751.7.771a7.557,7.557,0,0,0,3.311-.5c.271-.12.321-.085.426.19a.365.365,0,0,1,.025.07c.23.621.2.726-.445.942a9.125,9.125,0,0,1-3.907.541,1.637,1.637,0,0,1-1.583-2.144c.426-2.5.876-5.008,1.317-7.513C2612.091,128.785,2612.221,128.019,2612.361,127.227Z" transform="translate(-2479.2 -116.464)"/><path class="c" d="M827.029,70.463c-.105.6-.21,1.2-.321,1.793-.1.531-.2,1.067-.291,1.6-.065.351-.125.4-.461.451l-3.145.436c-.25.035-.3.005-.255-.24.185-1.127.381-2.249.576-3.371a.464.464,0,0,1,.426-.4c1.087-.155,2.179-.3,3.266-.451C826.978,70.253,827.059,70.3,827.029,70.463Z" transform="translate(-781.346 -66.752)"/></g><g transform="translate(-13133 -8425)"><g transform="translate(451 2046.353)"><g transform="translate(0.001 -0.353)"><g transform="translate(-0.001)"><path class="d" d="M21.967,0A21.985,21.985,0,1,1,0,21.9,21.987,21.987,0,0,1,21.967,0Zm.914,28.365c.914.711,1.862,1.388,2.776,2.1.88.677,1.76,1.354,2.64,2a1.244,1.244,0,0,0,1.862-.2,2.45,2.45,0,0,0,.44-1.015L33.848,15.6c.237-1.151.406-2.3.542-3.453.068-.812-.338-1.117-1.117-.914-.745.2-1.489.474-2.234.745-6.77,2.437-13.506,4.976-20.072,7.921a9.468,9.468,0,0,0-1.015.508.818.818,0,0,0,0,1.456,2.768,2.768,0,0,0,.643.3c1.692.575,3.385,1.117,5.077,1.692a3.586,3.586,0,0,1,.406.677L17.3,28.4c.271.812.508,1.659.812,2.471.338.948.779,1.049,1.523.338.88-.812,1.726-1.625,2.606-2.437C22.441,28.636,22.678,28.5,22.881,28.365Z" transform="translate(0.001)"/><path class="e" d="M419.625,57.249h-2.369v-8.7a9.514,9.514,0,0,0-.034-.982,2.3,2.3,0,0,0-3.114-2.132,2.947,2.947,0,0,0-2.369,2.471,12.559,12.559,0,0,0-.2,2.268c-.034,2.1,0,4.163,0,6.262v.846H409.2V43.709h2.031V45.4a7.976,7.976,0,0,1,.609-.575,5.026,5.026,0,0,1,5.247-1.252,3.412,3.412,0,0,1,2.166,1.929c.3-.271.575-.508.88-.779a4.922,4.922,0,0,1,5.484-.982,3.251,3.251,0,0,1,2.031,3.08c.068,3.419.034,6.8.034,10.222a1.526,1.526,0,0,1-.068.271h-2.166c0-.3-.034-.575-.034-.88V48.414a5.352,5.352,0,0,0-.135-1.286,2.047,2.047,0,0,0-1.76-1.692,3.052,3.052,0,0,0-3.622,2.336,7.759,7.759,0,0,0-.169,1.76c-.034,2.268,0,4.536,0,6.8A2.712,2.712,0,0,0,419.625,57.249Z" transform="translate(-270.69 -28.647)"/><path class="e" d="M303.232,55.695c-.1.034-.169.034-.2.068a5.351,5.351,0,0,1-8.835-2.065,8.589,8.589,0,0,1,.44-7.751,5.432,5.432,0,0,1,7.819-1.76c.3.237.575.474.948.812.034-.508.068-.914.068-1.388H305.6a5,5,0,0,1,.034.711c0,3.723.034,7.413,0,11.136a21.1,21.1,0,0,1-.237,2.911,4.749,4.749,0,0,1-4.062,4.265,7.622,7.622,0,0,1-5.45-.609,3.5,3.5,0,0,1-1.828-3.622l2.133.3a4.113,4.113,0,0,1,.169.474,2.04,2.04,0,0,0,1.354,1.422,4.948,4.948,0,0,0,3.419,0,2.831,2.831,0,0,0,1.862-2A7.729,7.729,0,0,0,303.232,55.695Zm.3-5.382A8.037,8.037,0,0,0,303,47.605a3.644,3.644,0,0,0-3.351-2.4,3.489,3.489,0,0,0-3.216,2.437,7.56,7.56,0,0,0,.034,5.314,3.343,3.343,0,0,0,3.419,2.336A3.457,3.457,0,0,0,303.1,52.75,19.318,19.318,0,0,0,303.537,50.313Z" transform="translate(-194.137 -28.582)"/><path class="e" d="M375.92,57.231h-2.471c-.169-.474-.3-.948-.474-1.489-.339.237-.643.44-.982.643a6.965,6.965,0,0,1-5.822.948,3.525,3.525,0,0,1-2.843-3.182,3.759,3.759,0,0,1,1.862-3.859,8.142,8.142,0,0,1,3.317-.948c1.252-.2,2.5-.44,3.757-.643.169-.034.339-.135.575-.2v-.745a2.235,2.235,0,0,0-2.1-2.437,11.583,11.583,0,0,0-2.166-.034,2.5,2.5,0,0,0-2.3,1.76c-.1.237-.169.44-.271.745-.745-.1-1.455-.2-2.234-.3A4.4,4.4,0,0,1,366.1,44.03a8.323,8.323,0,0,1,4.333-.779,8.883,8.883,0,0,1,2.3.406,3.247,3.247,0,0,1,2.471,3.317c.034,1.659.034,3.283.068,4.942,0,.745.034,1.523.034,2.268A5.8,5.8,0,0,0,375.92,57.231Zm-3.148-6.668c-1.185.237-2.336.474-3.52.711-.677.135-1.388.237-2.065.44a2,2,0,0,0,.034,3.825,4.743,4.743,0,0,0,1.828.169,3.77,3.77,0,0,0,3.453-2.437A5.287,5.287,0,0,0,372.772,50.563Z" transform="translate(-240.321 -28.595)"/><path class="e" d="M202.7,51.061H192.683a4.3,4.3,0,0,0,2.674,4.4c2.065.643,3.554-.1,4.942-2.606.745.1,1.523.2,2.369.3a5.415,5.415,0,0,1-3.69,4.1,7.485,7.485,0,0,1-4.637.034,5.574,5.574,0,0,1-3.926-4.163,9.811,9.811,0,0,1,.169-5.754,6.026,6.026,0,0,1,6.4-4.1c3.114.2,5.382,2.4,5.72,5.957C202.736,49.808,202.7,50.384,202.7,51.061Zm-2.5-2c-.135-2.4-1.659-3.859-3.757-3.859a3.765,3.765,0,0,0-3.723,3.859Z" transform="translate(-125.73 -28.619)"/><path class="e" d="M263.379,51.108H253.258a4.237,4.237,0,0,0,2.809,4.434c2.031.609,3.385-.1,4.84-2.606.745.1,1.523.2,2.369.3a5.424,5.424,0,0,1-3.926,4.163,7.5,7.5,0,0,1-4.4-.068,5.645,5.645,0,0,1-3.994-4.4,10.092,10.092,0,0,1,.135-5.213,6.066,6.066,0,0,1,6.6-4.367,5.989,5.989,0,0,1,5.551,5.687A19.22,19.22,0,0,1,263.379,51.108Zm-2.606-2a3.651,3.651,0,0,0-3.656-3.859,3.73,3.73,0,0,0-3.757,3.859Z" transform="translate(-165.826 -28.667)"/><path class="e" d="M165.227,28.934v2.2h-6.194v16.62h-2.5a24.1,24.1,0,0,1-.034-2.708V31.134H150.3V28.9C155.242,28.934,160.218,28.934,165.227,28.934Z" transform="translate(-99.425 -19.118)"/><path class="e" d="M235.7,28.9h2.2c.169.609.2,17.838.034,18.82H235.7Z" transform="translate(-155.918 -19.118)"/><path class="e" d="M342.068,57.2H339.8V43.594h2.031v1.591a.257.257,0,0,0,.135.068c.609-.846,1.151-1.76,2.268-1.963a4.344,4.344,0,0,1,2.945.677c-.271.745-.508,1.422-.779,2.132-.406-.135-.745-.237-1.083-.338a2.229,2.229,0,0,0-2.809,1.557,15.411,15.411,0,0,0-.44,3.013c-.068,1.963-.034,3.96-.034,5.924A8.87,8.87,0,0,1,342.068,57.2Z" transform="translate(-224.781 -28.599)"/><path class="f" d="M46.4,53.839a4.143,4.143,0,0,0,.914-.3l7.819-4.976c1.659-1.049,3.283-2.1,4.942-3.114a.751.751,0,0,1,.372-.169.382.382,0,0,1,.372.1.449.449,0,0,1,.034.372c0,.1-.1.2-.169.271-1.049.948-2.132,1.929-3.216,2.877-.745.677-1.523,1.32-2.268,1.963-1.388,1.252-2.742,2.5-4.13,3.791-.3.271-.609.508-.982.846,1.219,1.015,2.336,1.929,3.486,2.877a6.35,6.35,0,0,0-.609.406c-.88.812-1.726,1.625-2.606,2.437-.745.711-1.185.609-1.523-.338-.271-.812-.542-1.659-.812-2.471-.406-1.286-.779-2.573-1.219-3.859A2.062,2.062,0,0,0,46.4,53.839Z" transform="translate(-30.694 -29.942)"/></g></g></g></g><g transform="translate(-13131 -8461)"><g transform="translate(451 2141.353)"><g transform="translate(0.178 -5.341)"><g transform="translate(0.011 -0.4)"><path class="d" d="M425.806-.314c.494.021,1.01.021,1.5.043.344.021.473.15.494.494.021.731.043,1.461.043,2.192.021,1.483.043,2.986.043,4.469.021,2.084.021,4.168.043,6.252a3.173,3.173,0,0,0,.021.451c.021.15.107.172.236.086a1.943,1.943,0,0,1,.215-.193c1.891-1.891,3.8-3.781,5.694-5.651.129-.129.279-.258.43-.408a.935.935,0,0,1,.945-.279c.967.215,1.912.451,2.879.688a2.016,2.016,0,0,1,.322.129.288.288,0,0,1,.129.43,1.412,1.412,0,0,1-.258.365l-2.32,2.385c-.945.945-1.891,1.869-2.836,2.815l-.15.15c-.193.193-.193.279-.022.494.172.236.365.473.559.709,1.01,1.225,2,2.471,2.9,3.781.816,1.2,1.611,2.428,2.406,3.631.065.086.107.172.172.258.15.258.086.408-.193.473-.236.043-.494.107-.731.129l-3.094.451a.52.52,0,0,1-.58-.258l-1.74-2.514c-.924-1.354-1.848-2.729-2.75-4.1a1.181,1.181,0,0,0-.15-.193.2.2,0,0,0-.322-.021,3.423,3.423,0,0,0-.279.279c-.344.365-.687.731-1.053,1.1a.858.858,0,0,0-.215.494v.859c-.021,1.246-.021,2.514-.043,3.76,0,.387-.107.516-.516.516-.58.021-1.182.021-1.762,0-.473,0-.924-.021-1.4-.021-.344,0-.451-.129-.451-.451-.043-1.869-.086-3.738-.107-5.608-.043-3.008-.086-6.016-.107-9.024-.021-2.428,0-4.877,0-7.305,0-.473.021-.924.043-1.4a.5.5,0,0,1,.494-.516c.064,0,.15-.021.215-.021a4.062,4.062,0,0,0,1.289.086Z" transform="translate(-332.712 0.4)"/><path class="d" d="M289.388,46.065c-.021,1.268-.043,2.535-.086,3.8,0,.365-.021.709-.021,1.074,0,.258-.086.344-.344.365h-3.266c-.3-.021-.43-.15-.43-.451,0-.236,0-.451-.022-.688v-.15c-.021-.15-.129-.172-.236-.086l-.043.043a5.125,5.125,0,0,1-2.385,1.311,7.467,7.467,0,0,1-4.34-.064A5.174,5.174,0,0,1,276.153,50a4.384,4.384,0,0,1-1.311-2.944,5.344,5.344,0,0,1,.451-2.643,5.011,5.011,0,0,1,2.729-2.578,8.312,8.312,0,0,1,2.879-.6,9.9,9.9,0,0,1,3.781.6c.043.021.064.021.107.043.15.021.258-.043.258-.215,0-.322,0-.623-.021-.945-.022-.215-.043-.451-.086-.666a2.147,2.147,0,0,0-1.2-1.483,4.491,4.491,0,0,0-1.5-.43,4.811,4.811,0,0,0-2.944.537c-.559.279-1.1.6-1.654.9a.449.449,0,0,0-.129.086.409.409,0,0,1-.559-.129c-.451-.666-.9-1.354-1.354-2.041a.514.514,0,0,1,.129-.752,9.371,9.371,0,0,1,3.395-1.934,10.711,10.711,0,0,1,3.867-.408,8.857,8.857,0,0,1,2.471.494,5.409,5.409,0,0,1,3.266,3.2,10.4,10.4,0,0,1,.623,2.686,20.559,20.559,0,0,1,.086,2.3c-.021,1.01-.021,2-.043,2.986Zm-4.254-.623V44.8a.361.361,0,0,0-.129-.3,1.058,1.058,0,0,0-.322-.215,3.5,3.5,0,0,0-1.4-.258,9.466,9.466,0,0,0-1.912.193,4.523,4.523,0,0,0-1.633.666,1.89,1.89,0,0,0-.859,1.547,1.824,1.824,0,0,0,1.182,1.848,3.4,3.4,0,0,0,.666.193,4.732,4.732,0,0,0,3.309-.752,2.552,2.552,0,0,0,.795-.795,1.683,1.683,0,0,0,.193-.451C285.069,46.108,285.091,45.743,285.134,45.442Z" transform="translate(-215.781 -26.9)"/><path class="d" d="M181.807,50.766a12.062,12.062,0,0,1-4.49-.988,7.488,7.488,0,0,1-1.676-1.031.943.943,0,0,1-.3-1.2,8.175,8.175,0,0,1,.945-1.7.768.768,0,0,1,.816-.322,1.209,1.209,0,0,1,.387.15c.559.3,1.1.6,1.654.881a5.989,5.989,0,0,0,2.17.623,5.11,5.11,0,0,0,2.277-.236,1.647,1.647,0,0,0,.666-.408,1.371,1.371,0,0,0,.387-.688,1.058,1.058,0,0,0-.365-1.117,2.8,2.8,0,0,0-.816-.473,10.125,10.125,0,0,0-1.955-.537,17.224,17.224,0,0,1-2.922-.773,6.116,6.116,0,0,1-1.289-.666,3.834,3.834,0,0,1-1.783-2.686,5.461,5.461,0,0,1,.365-3.094,4.7,4.7,0,0,1,2.192-2.32,7.546,7.546,0,0,1,2.535-.773,11.774,11.774,0,0,1,2.75,0,10.276,10.276,0,0,1,4.082,1.332,3.146,3.146,0,0,1,.279.193.754.754,0,0,1,.3.945,6.268,6.268,0,0,1-.3.666c-.172.387-.365.752-.559,1.139a.59.59,0,0,1-.816.3,1.314,1.314,0,0,1-.258-.107,16.281,16.281,0,0,0-1.977-.881,6.06,6.06,0,0,0-2.621-.279,2.512,2.512,0,0,0-1.16.408,1.539,1.539,0,0,0-.709,1.1.938.938,0,0,0,.322.924,2.067,2.067,0,0,0,.688.43,7.686,7.686,0,0,0,1.525.43c.795.172,1.59.3,2.385.494a7.839,7.839,0,0,1,2.084.773,3.924,3.924,0,0,1,2.17,3.2,5.249,5.249,0,0,1-.559,3.18,5.417,5.417,0,0,1-2.75,2.471,7.654,7.654,0,0,1-2.578.6C182.537,50.744,182.172,50.744,181.807,50.766Z" transform="translate(-137.592 -26.079)"/><path class="d" d="M357.91,51.551a9.422,9.422,0,0,1-2.686-.365,7.42,7.42,0,0,1-4.92-4.276,9.7,9.7,0,0,1-.795-3.287,9.382,9.382,0,0,1,.516-3.932,7.845,7.845,0,0,1,5.35-5.028,9.4,9.4,0,0,1,3.545-.322,9.928,9.928,0,0,1,3.438.9,6.457,6.457,0,0,1,1.225.752c.129.107.236.236.344.344a.426.426,0,0,1,.086.473c-.043.107-.086.193-.129.3a17.719,17.719,0,0,1-1.268,2.02c-.043.043-.064.086-.107.129a.263.263,0,0,1-.387.086.754.754,0,0,1-.172-.107,6.756,6.756,0,0,0-3.223-1.182,4.393,4.393,0,0,0-3.309.924,3.949,3.949,0,0,0-1.246,1.869,6.177,6.177,0,0,0,.021,4.125,4.014,4.014,0,0,0,3.438,2.729,4.84,4.84,0,0,0,3.846-1.225c.043-.043.107-.086.15-.129a.365.365,0,0,1,.387-.043,1.228,1.228,0,0,1,.344.236,15.817,15.817,0,0,1,1.482,1.7.542.542,0,0,1-.021.816,6.389,6.389,0,0,1-1.977,1.568,8.219,8.219,0,0,1-3.416.881c-.15,0-.279.021-.43.021C357.975,51.551,357.953,51.551,357.91,51.551Z" transform="translate(-274.398 -26.843)"/><path class="d" d="M251.325,12.36v8.057c0,1.2-.043,2.406-.086,3.61,0,.344-.15.494-.516.494h-3.029a.437.437,0,0,1-.408-.387.881.881,0,0,1-.021-.236c-.021-1.891-.043-3.8-.043-5.694-.021-3.244-.021-6.489-.021-9.733,0-2.578.043-5.178.086-7.756,0-.322.064-.387.387-.43.451-.043.9-.107,1.354-.107C249.585.157,250.144.2,250.7.2h.15c.279.021.365.086.387.387s.021.6.021.9c.021,2.922.064,5.866.086,8.788,0,.688,0,1.4-.021,2.084Z" transform="translate(-194.09 -0.049)"/><path class="f" d="M87.1,48.272l.129.387c.58,1.74,1.182,3.5,1.762,5.242.043.086.043.215.172.258a1.48,1.48,0,0,0-.172.064c-.387.129-.795.258-1.182.387-1.225.408-2.449.816-3.674,1.246-.064.021-.15.064-.215.086h-.043c-.021-.086-.043-.172-.064-.279-.6-1.8-1.225-3.631-1.826-5.436-.021-.064-.064-.15-.086-.215a.021.021,0,0,0,.021-.021c.451-.15.9-.322,1.354-.473,1.031-.344,2.063-.709,3.094-1.053l.516-.193a.166.166,0,0,0,.15-.172A.727.727,0,0,0,87.1,48.272Z" transform="translate(-64.306 -37.68)"/><path class="g" d="M32.3,73.735c-.172-.537-.344-1.074-.537-1.611-.451-1.354-.9-2.707-1.375-4.061a.763.763,0,0,0-.086-.193v-.043a1.39,1.39,0,0,0,.279-.086c1.375-.473,2.729-.924,4.1-1.4.193-.064.408-.129.6-.215.064-.021.107-.086.172-.129.021.021.021.043.043.064.021.086.043.15.064.236.387,1.16.773,2.32,1.182,3.481.215.666.451,1.311.666,1.977.021.086.043.193.172.193-.021.021-.064.021-.086.043-.043.021-.107.021-.172.043l-4.77,1.611a1.152,1.152,0,0,0-.236.107Z" transform="translate(-23.792 -51.734)"/><path class="h" d="M63.8,86.6c.021-.021.064-.021.086-.043,1.912-.645,3.824-1.289,5.758-1.955h.043c.215.645.43,1.268.645,1.912.3.924.623,1.848.924,2.772.021.064.043.107.064.172a.188.188,0,0,0,.193.15c-.064.021-.15.064-.215.086-1.848.623-3.7,1.268-5.543,1.891-.064.021-.15.064-.215.086H65.5a1.79,1.79,0,0,0-.086-.322l-1.289-3.867C64.015,87.178,63.907,86.877,63.8,86.6Z" transform="translate(-50.095 -66.337)"/><path class="i" d="M48.419,40.312c-.021-.021-.021-.043-.043-.064-.064-.215-.15-.451-.215-.666-.451-1.332-.881-2.664-1.332-4l-.129-.322h.021c.731-.236,1.44-.473,2.17-.731,1.139-.387,2.277-.752,3.416-1.139.107-.043.236-.043.236-.193a.163.163,0,0,1,.043.086c0,.043.021.107.021.15.387,1.16.773,2.32,1.16,3.459.15.473.322.924.494,1.4a.021.021,0,0,0-.021.021l-.387.129C52.05,39.066,50.224,39.689,48.419,40.312Z" transform="translate(-36.669 -25.981)"/><path class="f" d="M98.6,101.6c.064-.021.15-.064.215-.086s.129-.043.215-.064c1.1-.365,2.17-.752,3.266-1.117.516-.172,1.031-.365,1.547-.537h.043c.215.688.451,1.354.666,2.041.107.344.258.709.344,1.053a2.73,2.73,0,0,1-5.114,1.912c-.322-.816-.58-1.654-.859-2.492-.064-.193-.129-.387-.193-.559A.138.138,0,0,0,98.6,101.6Z" transform="translate(-77.418 -78.272)"/><path class="g" d="M52.464,117.4h.043c.172.537.365,1.1.537,1.633.172.494.344,1.01.494,1.5a2.724,2.724,0,0,1-2.256,3.524,2.734,2.734,0,0,1-2.965-1.869c-.279-.838-.58-1.7-.859-2.535a1.89,1.89,0,0,1-.107-.322.161.161,0,0,0-.15-.129c.021-.021.064-.021.086-.043.107-.021.215-.064.322-.086,1.16-.408,2.342-.795,3.5-1.2C51.583,117.722,52.013,117.572,52.464,117.4Z" transform="translate(-37.061 -92.09)"/><path class="f" d="M69.836,9.529a.163.163,0,0,1-.043-.086c-.322-.967-.666-1.934-.967-2.879a2.668,2.668,0,0,1,.408-2.557,2.55,2.55,0,0,1,2.449-1.074A2.617,2.617,0,0,1,73.94,4.609c.15.365.258.752.387,1.139.215.6.408,1.2.6,1.8a1.152,1.152,0,0,0,.107.236.021.021,0,0,0-.021.021c-.107.043-.215.064-.322.107C73.059,8.455,71.447,8.992,69.836,9.529Z" transform="translate(-53.918 -2.202)"/><path class="g" d="M18.289,26.744c-.021-.086-.043-.172-.064-.279-.3-.9-.6-1.783-.9-2.686a2.749,2.749,0,0,1,4.4-2.986,2.941,2.941,0,0,1,.816,1.268c.3.881.58,1.74.881,2.621a1.492,1.492,0,0,0,.107.279H23.51c-.731.258-1.483.516-2.213.752-.9.3-1.783.6-2.686.9a.364.364,0,0,0-.258.15C18.332,26.787,18.31,26.766,18.289,26.744Z" transform="translate(-13.479 -15.701)"/><path class="h" d="M116.7,77.155h-.043a1.389,1.389,0,0,0-.086-.279c-.494-1.482-.988-2.944-1.483-4.426-.021-.043-.021-.086-.043-.129a.993.993,0,0,0-.15-.15,1.479,1.479,0,0,0,.172-.064c.988-.344,2-.688,2.986-1.01a2.733,2.733,0,0,1,2.535.344,2.692,2.692,0,0,1,.795,3.459,2.044,2.044,0,0,1-.731.752,5.5,5.5,0,0,1-1.01.494c-.967.322-1.934.645-2.879.988C116.748,77.112,116.726,77.134,116.7,77.155Z" transform="translate(-90.215 -55.605)"/><path class="h" d="M23.818,107.071c-.021.021-.064.021-.086.043-.924.322-1.848.623-2.75.945a2.91,2.91,0,0,1-2.127-.043,2.5,2.5,0,0,1-1.568-2.277,2.707,2.707,0,0,1,1.934-2.772c.859-.3,1.7-.58,2.557-.859.107-.043.193-.064.3-.107v.021c.129.365.258.731.387,1.117l1.225,3.674Z" transform="translate(-13.571 -79.999)"/><path class="i" d="M4.821,51c.021.021.021.043.043.043,0,.021.021.064.021.086L6.5,55.9a.305.305,0,0,1,.043.129v.043c-.15.043-.279.086-.43.129l-2.449.838a2.688,2.688,0,0,1-1.74.064,2.475,2.475,0,0,1-1.8-1.826A2.671,2.671,0,0,1,1.77,52.031c.773-.3,1.59-.537,2.385-.816C4.37,51.15,4.606,51.086,4.821,51Z" transform="translate(-0.011 -39.956)"/><path class="i" d="M99.9,26.412c-.021-.043-.021-.086-.043-.129-.473-1.375-.924-2.75-1.4-4.125-.086-.236-.172-.494-.258-.731a.021.021,0,0,0,.021-.021c1.01-.344,2.02-.709,3.051-1.01a2.641,2.641,0,0,1,2.643.559,2.464,2.464,0,0,1,.859,1.826,2.5,2.5,0,0,1-.988,2.063,3.084,3.084,0,0,1-1.117.58c-.838.279-1.676.559-2.492.859C100.091,26.326,99.983,26.369,99.9,26.412Z" transform="translate(-77.104 -15.82)"/><path class="d" d="M96.192,76.6a.993.993,0,0,1,.15.15c.021.021.021.086.043.129.494,1.482.988,2.944,1.482,4.426a1.39,1.39,0,0,0,.086.279c-.516.172-1.031.365-1.547.537-1.1.365-2.17.752-3.266,1.117-.064.021-.129.043-.215.064-.107,0-.15-.064-.193-.15-.021-.064-.043-.107-.064-.172-.3-.924-.623-1.848-.924-2.772-.215-.645-.43-1.268-.645-1.912.064-.021.15-.064.215-.086,1.225-.408,2.449-.838,3.674-1.246C95.419,76.858,95.805,76.729,96.192,76.6Z" transform="translate(-71.529 -60.056)"/><path class="d" d="M79.435,25.7c.086.236.172.473.258.731.473,1.375.924,2.75,1.4,4.125a.166.166,0,0,1-.15.172l-.516.193c-1.031.344-2.063.709-3.094,1.053-.451.15-.9.3-1.354.473-.172-.473-.322-.924-.494-1.4-.387-1.16-.773-2.32-1.16-3.459a.366.366,0,0,1-.021-.15c1.611-.537,3.223-1.074,4.856-1.611A.562.562,0,0,1,79.435,25.7Z" transform="translate(-58.339 -20.092)"/><path class="d" d="M41.419,100.711c-.043-.086-.064-.172-.107-.258l-1.225-3.674c-.129-.365-.258-.73-.387-1.117a1.152,1.152,0,0,1,.236-.107l4.77-1.611c.064-.021.129-.021.193-.043.107.3.193.58.3.881l1.289,3.867c.043.107.043.215.086.322-.43.15-.881.3-1.311.451-1.16.408-2.342.795-3.5,1.2C41.634,100.646,41.526,100.689,41.419,100.711Z" transform="translate(-31.173 -73.639)"/><path class="j" d="M24.376,49.589a.305.305,0,0,1-.043-.129l-1.611-4.77c0-.021-.021-.064-.021-.086.043-.107.15-.107.258-.15.9-.3,1.783-.6,2.686-.9.731-.258,1.483-.494,2.213-.752a2.016,2.016,0,0,1,.129.322c.451,1.332.881,2.664,1.332,4,.064.215.15.451.215.666a.517.517,0,0,1-.172.129c-.193.086-.408.15-.6.215-1.375.473-2.729.924-4.1,1.4C24.569,49.546,24.462,49.568,24.376,49.589Z" transform="translate(-17.825 -33.518)"/></g></g></g></g><g transform="translate(-13121 -8261)"><g transform="translate(438.748 1976.757)"><g transform="translate(-0.027 0.027)"><path class="d" d="M173.178,40.663l-.152.3a5.213,5.213,0,0,1-4.717,2.079,8.625,8.625,0,0,1-2.282-.406,6.281,6.281,0,0,1-3.5-3.043,9.082,9.082,0,0,1-1.268-4.311,13.484,13.484,0,0,1,.507-5.123,7.133,7.133,0,0,1,3.956-4.666,7.431,7.431,0,0,1,5.427-.2,4.089,4.089,0,0,1,2.282,1.927,5.909,5.909,0,0,0,.406.659,3.311,3.311,0,0,0,.1-.558,3.119,3.119,0,0,1,.051-.71,1.805,1.805,0,0,1,1.978-1.724h.507a1.64,1.64,0,0,1,1.623,1.42,8.459,8.459,0,0,1,.1,1.623V46.191c0,.558-.051,1.065-.1,1.623a1.74,1.74,0,0,1-1.623,1.572,4.455,4.455,0,0,1-1.42-.051,1.732,1.732,0,0,1-1.471-1.623,13.39,13.39,0,0,1-.1-1.471V40.663C173.381,40.765,173.28,40.714,173.178,40.663Zm.558-6.948a7.078,7.078,0,0,0-.913-3.5,3.279,3.279,0,0,0-2.79-1.623,3.423,3.423,0,0,0-3.347,1.927,7.739,7.739,0,0,0-.609,5.325,5.291,5.291,0,0,0,.761,1.927,3.535,3.535,0,0,0,5.985-.152A7.424,7.424,0,0,0,173.736,33.715Z" transform="translate(-79.436 -12.274)"/><path class="f" d="M41.755,15.686c-.1-1.471-.254-2.942-.3-4.413-.051-1.623-.051-3.3-.051-4.92a6.106,6.106,0,0,1,.761-2.992,6.169,6.169,0,0,1,4.514-3.2,5.915,5.915,0,0,1,4.057.558,6.007,6.007,0,0,1,3.3,5.325,6.871,6.871,0,0,1-1.471,4.362,56.056,56.056,0,0,1-6.644,7.253,1.019,1.019,0,0,1-.406-.2,5.64,5.64,0,0,0-2.891-1.471C42.364,15.888,42.059,15.787,41.755,15.686Z" transform="translate(-20.389 -0.027)"/><path class="d" d="M129.994,34.326a14.361,14.361,0,0,0,.3,2.13,3.873,3.873,0,0,0,6.188,2.079,11.173,11.173,0,0,0,1.217-1.42,2.2,2.2,0,0,1,2.84-.558,1.655,1.655,0,0,1,.913,1.522,4.34,4.34,0,0,1-1.724,3.246,8.21,8.21,0,0,1-4.007,1.623,11.065,11.065,0,0,1-5.883-.659,6.885,6.885,0,0,1-3.753-3.7,10.825,10.825,0,0,1-.761-5.528,10.314,10.314,0,0,1,1.014-3.7,7.57,7.57,0,0,1,5.224-4.057,11.348,11.348,0,0,1,5.681.1,7.225,7.225,0,0,1,3.2,1.826,3.14,3.14,0,0,1,.964,2.333,2.032,2.032,0,0,1-1.319,1.775,1.893,1.893,0,0,1-2.282-.456c-.355-.355-.659-.811-1.014-1.167a3.655,3.655,0,0,0-5.376.152,5.621,5.621,0,0,0-1.319,3.145,10.572,10.572,0,0,0,0,1.268C130.1,34.326,130.045,34.326,129.994,34.326Z" transform="translate(-61.713 -12.328)"/><path class="f" d="M29.96,53.72c.1,1.217.254,2.435.3,3.7a57.236,57.236,0,0,1,.152,6.593,5.9,5.9,0,0,1-3.2,5.072,5.6,5.6,0,0,1-7.912-3.652,6.4,6.4,0,0,1,1.167-5.478c.812-1.167,1.674-2.232,2.536-3.347,1.167-1.471,2.384-2.891,3.6-4.311.152.051.355,0,.456.1a7.238,7.238,0,0,0,2.485,1.065C29.707,53.467,29.808,53.619,29.96,53.72Z" transform="translate(-9.405 -25.788)"/><path class="f" d="M58.47,45.2a13.609,13.609,0,0,1,4.057.355,5.7,5.7,0,0,1,3.753,2.79,4.968,4.968,0,0,1,.254,4.159,5.341,5.341,0,0,1-4.26,3.652,6.4,6.4,0,0,1-4.768-1.065,15.457,15.457,0,0,1-2.029-1.572c-1.014-.913-2.029-1.877-2.992-2.79-.862-.811-1.674-1.623-2.485-2.434A7.385,7.385,0,0,0,51.522,45.2Z" transform="translate(-24.627 -22.287)"/><path class="f" d="M15.05,32.024c-1.522.152-3.094.355-4.615.456a44.743,44.743,0,0,1-4.514.152,7.029,7.029,0,0,1-3.6-1.014,4.577,4.577,0,0,1-2.333-3.8,5.665,5.665,0,0,1,1.319-4.108,4.9,4.9,0,0,1,3.043-1.826,7.4,7.4,0,0,1,6.137,1.826c2.029,1.572,4.007,3.2,6.036,4.818-.1.152-.152.3-.254.456A5.054,5.054,0,0,0,15.2,31.872Z" transform="translate(0.027 -10.736)"/><path class="f" d="M25.614,18.735c-.964-.964-1.978-1.877-2.942-2.891-1.217-1.268-2.384-2.587-3.449-3.905a6.2,6.2,0,0,1-1.369-4.768,4.454,4.454,0,0,1,2.536-3.5,5.148,5.148,0,0,1,6.695,1.217,6.932,6.932,0,0,1,1.268,3.246c.2,1.471.456,2.891.609,4.362.152,1.116.254,2.232.355,3.347.051.456.1.964.152,1.42a5.115,5.115,0,0,0-3.145,1.167C26.122,18.583,25.919,18.786,25.614,18.735Z" transform="translate(-8.762 -1.454)"/><path class="f" d="M51.1,29.245c1.826-1.471,3.652-2.992,5.528-4.463a10.259,10.259,0,0,1,4.21-2.079,4.679,4.679,0,0,1,5.63,3.753,4.793,4.793,0,0,1-3.3,5.528,12.955,12.955,0,0,1-3.043.609l-3.5.456c-1.014.1-2.029.152-3.043.2-.406,0-.811-.051-1.319-.051V32.136a1.932,1.932,0,0,0-.152-.507c-.152-.406-.254-.862-.406-1.268A8.3,8.3,0,0,1,51.1,29.245Z" transform="translate(-25.169 -11.152)"/><path class="f" d="M45.6,52.2c.659.659,1.319,1.369,1.927,2.029l3.043,3.5a9.048,9.048,0,0,1,2.181,3.905,6,6,0,0,1,.051,2.333,3.467,3.467,0,0,1-1.369,2.181,4.989,4.989,0,0,1-5.579.406,5.762,5.762,0,0,1-2.181-2.84,18.951,18.951,0,0,1-.812-3.347c-.2-1.116-.406-2.282-.558-3.4-.152-1.014-.254-2.029-.406-3.043.051-.2.051-.406.1-.609A5.684,5.684,0,0,0,45.4,52.2.245.245,0,0,0,45.6,52.2Z" transform="translate(-20.635 -25.739)"/><path class="d" d="M109.6,34.04V27.9a9.774,9.774,0,0,1,.051-1.217,1.832,1.832,0,0,1,1.572-1.623,7.123,7.123,0,0,1,1.471,0,1.725,1.725,0,0,1,1.522,1.369,3.624,3.624,0,0,1,.1,1.014V41.039a1.932,1.932,0,0,1-1.978,2.029,3.943,3.943,0,0,1-1.522-.2A1.578,1.578,0,0,1,109.7,41.5a10.677,10.677,0,0,1-.1-1.268Z" transform="translate(-53.998 -12.346)"/><path class="g" d="M41.67,36.176a1.932,1.932,0,0,0-.152-.507c-.152-.406-.254-.862-.406-1.268a7.635,7.635,0,0,0-.558-1.116.509.509,0,0,1-.3-.507,1.019,1.019,0,0,1-.406-.2A5.64,5.64,0,0,0,36.953,31.1a6.424,6.424,0,0,1-.913-.3c-.2.051-.456.1-.659.152a5.115,5.115,0,0,0-3.145,1.167c-.2.152-.406.355-.71.3a.488.488,0,0,1-.355.507c-.1.152-.152.3-.254.456a5.054,5.054,0,0,0-1.065,2.891l-.152.152v.659a1.074,1.074,0,0,1,.152.355,5.672,5.672,0,0,0,1.42,3.4c.1.1.152.2.254.3a4.459,4.459,0,0,1,.3.507c.152.051.355,0,.456.1a7.238,7.238,0,0,0,2.485,1.065,1.221,1.221,0,0,1,.406.3c.2-.254.355-.254.507.051.051.1.1.152.152.254.051-.2.051-.406.1-.609a5.684,5.684,0,0,0,3.4-1.116.38.38,0,0,1,.254-.051l.456-.456A5.958,5.958,0,0,0,41.568,38.1l.1-.812Z" transform="translate(-14.623 -15.192)"/><path class="d" d="M19.466,47.053a6,6,0,0,1-1.42-3.4,1.074,1.074,0,0,0-.152-.355h-.507c-1.674.254-3.4.507-5.072.812a26.671,26.671,0,0,0-2.688.761,4.983,4.983,0,0,0-2.637,1.522,4.183,4.183,0,0,0-1.217,3.449,5.28,5.28,0,0,0,2.739,4.007,3.886,3.886,0,0,0,3.652.254,6.135,6.135,0,0,0,2.029-1.42c.051,0,.1-.051.152-.051a58.584,58.584,0,0,0,5.376-5.275A1.345,1.345,0,0,1,19.466,47.053Z" transform="translate(-2.816 -21.353)"/><path class="d" d="M111.834,16.721a2.511,2.511,0,0,1,.051-5.021,2.449,2.449,0,0,1,2.384,2.536A2.479,2.479,0,0,1,111.834,16.721Z" transform="translate(-53.9 -5.78)"/></g></g></g><g transform="translate(-13132 -8533)"><g transform="translate(450 2302.353)"><path class="d" d="M142.491,28.388a4.18,4.18,0,0,0-2.2-.488,4.122,4.122,0,0,0-2.136.549,4.384,4.384,0,0,0-1.526,1.465,5.7,5.7,0,0,0-.732,2.014h8.727a4.9,4.9,0,0,0-.671-2.075A4.207,4.207,0,0,0,142.491,28.388Z" transform="translate(-52.967 -10.874)"/><path class="d" d="M106,14.951a6.087,6.087,0,0,0-10.252-4.394A15.473,15.473,0,0,0,86.96,7.811a15.261,15.261,0,0,0-8.971,2.868,6.607,6.607,0,0,0-4.15-1.465,6.2,6.2,0,0,0-2.99.732A13.613,13.613,0,0,0,59.194,3.3,13.463,13.463,0,0,0,48.637,8.36a17.8,17.8,0,0,0-9.764-2.868,16.658,16.658,0,0,0-3.906.427A7.176,7.176,0,0,0,27.827,0a7.37,7.37,0,0,0-7.384,7.384v.488a15.63,15.63,0,0,0-2.38-.183,15.983,15.983,0,0,0-5.919,1.159,8.477,8.477,0,0,0-3.967-.976A8.191,8.191,0,0,0,0,16.111a8.3,8.3,0,0,0,2.563,5.98,8.6,8.6,0,0,0-.061,1.22A15.613,15.613,0,0,0,18.124,38.934a15.157,15.157,0,0,0,8.543-2.563,18.082,18.082,0,0,0,10.618,4.882,9.059,9.059,0,0,0,16.721.549,8.783,8.783,0,0,0,15.317-2.685,14.963,14.963,0,0,0,1.648.122,9.853,9.853,0,0,0,7.262-3.112,15.506,15.506,0,0,0,24.227-12.815,13.928,13.928,0,0,0-.244-2.746A6.021,6.021,0,0,0,106,14.951ZM24.227,29.963a7.588,7.588,0,0,1-3.234,2.2,12.985,12.985,0,0,1-4.76.793,15.5,15.5,0,0,1-3.967-.549A12.606,12.606,0,0,1,8.727,30.94q-1.465-.915-1.465-2.014a1.771,1.771,0,0,1,.366-.976,2.825,2.825,0,0,1,.976-.915,2.9,2.9,0,0,1,1.4-.427,4.007,4.007,0,0,1,1.526.244,13.428,13.428,0,0,1,1.648.671,11.161,11.161,0,0,0,1.77.671,7.2,7.2,0,0,0,1.709.244,3.791,3.791,0,0,0,1.953-.366,1.27,1.27,0,0,0,.549-1.159c0-.488-.61-.976-1.892-1.4s-2.624-.915-4.089-1.4A11.567,11.567,0,0,1,9.52,22.152a3.936,3.936,0,0,1-1.465-3.173,4.849,4.849,0,0,1,1.1-3.112,7.435,7.435,0,0,1,3.112-2.136A12.981,12.981,0,0,1,16.782,13a14.863,14.863,0,0,1,3.6.427,10.38,10.38,0,0,1,3.112,1.282,2.454,2.454,0,0,1,1.282,2.014,2.148,2.148,0,0,1-.732,1.587,2.437,2.437,0,0,1-1.831.671,8.347,8.347,0,0,1-1.892-.488c-.915-.305-1.648-.61-2.136-.732a5.032,5.032,0,0,0-1.709-.244,2.973,2.973,0,0,0-1.526.366,1.133,1.133,0,0,0-.61,1.037c0,.488.61.976,1.892,1.4s2.624.915,4.028,1.343a12.96,12.96,0,0,1,3.661,1.892,3.855,3.855,0,0,1,1.526,3.234A5.7,5.7,0,0,1,24.227,29.963Zm60.6-2.5a6.457,6.457,0,0,0,3.478.976,5.82,5.82,0,0,0,2.014-.305c.549-.244,1.282-.549,2.2-1.037a5.051,5.051,0,0,1,2.014-.732,1.969,1.969,0,0,1,1.1.366,2.851,2.851,0,0,1,.854.854,2.487,2.487,0,0,1,.305,1.1,2.834,2.834,0,0,1-1.4,2.136A11.561,11.561,0,0,1,91.9,32.526a14.3,14.3,0,0,1-4.089.671,11.172,11.172,0,0,1-4.15-.732,9.4,9.4,0,0,1-5.431-5.431,8.99,8.99,0,0,1-.488-1.709,12.1,12.1,0,0,1-.915,2.746A9.107,9.107,0,0,1,73.6,31.794a8.081,8.081,0,0,1-7.323.915,8.282,8.282,0,0,1-2.38-1.343v6.469a2.808,2.808,0,0,1-.793,2.136,2.8,2.8,0,0,1-3.906,0,3.17,3.17,0,0,1-.793-2.136V18.124L51.139,37.347s-.854,3.112-5.126,3.356c0,0-3.539.427-3.539-2.5,0,0-.427-2.929,3.6-2.319,0,0,1.953-.488,1.282-2.136L40.948,16.538a6.077,6.077,0,0,1-.61.671L36.92,21.3l5.553,7.933a2.253,2.253,0,0,1,.671,1.709,2.283,2.283,0,0,1-.793,1.77,2.691,2.691,0,0,1-1.831.732,2.613,2.613,0,0,1-1.343-.366,5.912,5.912,0,0,1-1.343-1.22l-5-7.14L31,26.119v4.211a3.308,3.308,0,0,1-.366,1.526,2.663,2.663,0,0,1-.976,1.037,2.9,2.9,0,0,1-1.465.366,2.536,2.536,0,0,1-2.014-.793,3.013,3.013,0,0,1-.793-2.075V8.238a2.759,2.759,0,0,1,.793-2.075,2.536,2.536,0,0,1,2.014-.793,2.9,2.9,0,0,1,1.465.366,2.663,2.663,0,0,1,.976,1.037A2.9,2.9,0,0,1,31,8.238V20.26l5.553-6.347a3.941,3.941,0,0,1,2.5-1.1,2.309,2.309,0,0,1,1.709.732c.061.061.061.122.122.183a1.731,1.731,0,0,1,.549-.61,2.582,2.582,0,0,1,1.77-.671,3.123,3.123,0,0,1,1.709.488A2.826,2.826,0,0,1,45.952,14.4l4.455,13,3.417-13a3.332,3.332,0,0,1,1.1-1.465,2.689,2.689,0,0,1,1.709-.488,2.911,2.911,0,0,1,1.77.671,2.48,2.48,0,0,1,.549.61c.061-.061.061-.122.122-.122a2.49,2.49,0,0,1,1.953-.793,2.6,2.6,0,0,1,2.746,2.2,4.268,4.268,0,0,1,2.2-1.77,7.178,7.178,0,0,1,3.051-.61A7.932,7.932,0,0,1,73.84,14.1,9.09,9.09,0,0,1,76.83,18a13.02,13.02,0,0,1,.793,2.746c.122-.549.305-1.159.488-1.709a11.389,11.389,0,0,1,2.014-3.3A9.127,9.127,0,0,1,83.3,13.486a9.575,9.575,0,0,1,3.906-.854,9.929,9.929,0,0,1,4.028.854,9.731,9.731,0,0,1,3.112,2.258,10.493,10.493,0,0,1,2.014,3.112,8.615,8.615,0,0,1,.732,3.417,2.1,2.1,0,0,1-2.38,2.38H83.055A4.193,4.193,0,0,0,84.824,27.461ZM99.165,13.731h-1.1v2.99h-.732v-2.99h-1.1v-.61h2.929Zm3.906,2.99h-.732v-2.99h0l-.671,2.99h-.732l-.671-2.99h0v2.99h-.732v-3.6h1.1l.671,2.868h0l.671-2.868h1.1v3.6Z"/><path class="d" d="M108.933,28.6a3.937,3.937,0,0,0-2.38.732,4.262,4.262,0,0,0-1.465,1.953,7.019,7.019,0,0,0-.488,2.5,6.909,6.909,0,0,0,1.1,3.845,3.682,3.682,0,0,0,3.173,1.709,3.526,3.526,0,0,0,3.112-1.648,6.562,6.562,0,0,0,1.159-3.723,6.261,6.261,0,0,0-1.159-3.723A3.359,3.359,0,0,0,108.933,28.6Z" transform="translate(-40.768 -11.147)"/></g></g><g transform="translate(-13141 -8557)"><g transform="translate(460.044 2382.17)"><path class="d" d="M7.072,51.365a9.314,9.314,0,0,1-3.2-.521l-2.308-.819L3.35,48.313a9.08,9.08,0,0,0,2.978-6.7A23.721,23.721,0,0,1,0,25.683C0,11.539,13.1,0,29.256,0S58.512,11.539,58.512,25.683c.074,14.144-13.1,25.683-29.256,25.683a32.107,32.107,0,0,1-13.772-3.052A14.689,14.689,0,0,1,7.072,51.365Zm8.114-6.551.819.447a29.912,29.912,0,0,0,13.251,3.127c14.516,0,26.278-10.2,26.278-22.7.074-12.506-11.762-22.7-26.278-22.7s-26.278,10.2-26.278,22.7A20.824,20.824,0,0,0,8.859,39.976l.372.447v.6a12.518,12.518,0,0,1-2.084,7.444c3.424-.074,6.625-2.457,7.221-2.9Z"/><path class="d" d="M18.869,39.146a12.844,12.844,0,0,1-2.68-.223,4.723,4.723,0,0,1-1.414-.521c-.074-.074-.074-.223-.074-.447s.074-.447.074-.744l.223-.67c.074-.223.149-.3.223-.3.447.149.893.3,1.414.447a6.7,6.7,0,0,0,1.861.223,5.378,5.378,0,0,0,2.01-.372,1.276,1.276,0,0,0,.819-1.191,1.633,1.633,0,0,0-.521-1.266,5.579,5.579,0,0,0-1.936-1.042c-.521-.223-.968-.447-1.414-.67a6.746,6.746,0,0,1-1.191-.819,3.109,3.109,0,0,1-.819-1.117,3.453,3.453,0,0,1-.3-1.563,3.021,3.021,0,0,1,.3-1.414,2.6,2.6,0,0,1,.893-1.117,3.993,3.993,0,0,1,1.489-.744,6.309,6.309,0,0,1,2.159-.3H21.4c.372,0,.67.074.893.074.223.074.447.074.6.149s.3.074.447.149.149.223.149.447a2.532,2.532,0,0,1-.074.744,2.229,2.229,0,0,1-.3.744c-.149.223-.223.3-.372.223-.3-.074-.67-.149-1.117-.3a9.121,9.121,0,0,0-1.414-.149,4.009,4.009,0,0,0-1.936.372,1.126,1.126,0,0,0-.521,1.042,1.414,1.414,0,0,0,.6,1.117,6.161,6.161,0,0,0,1.861.893,7.481,7.481,0,0,1,2.9,1.787,3.817,3.817,0,0,1,.968,2.531,3.916,3.916,0,0,1-.447,1.936,3.054,3.054,0,0,1-1.191,1.191,4.346,4.346,0,0,1-1.638.6A4.561,4.561,0,0,1,18.869,39.146Z" transform="translate(-3.757 -6.466)"/><path class="d" d="M40.4,39.2a1.072,1.072,0,0,1-.67-.149,1.258,1.258,0,0,1-.149-.67V29.82c-.67,1.042-1.117,1.861-1.489,2.457s-.6.968-.744,1.266a1.842,1.842,0,0,1-.3.447.073.073,0,0,1-.074.074,4.409,4.409,0,0,1-.3.447c-.074.074-.149.074-.372.074h-.372c-.223,0-.372,0-.447-.074a4.41,4.41,0,0,1-.3-.447L32.731,29.82v8.635a1.1,1.1,0,0,1-.074.521c-.074.149-.3.149-.6.149H31.019a1.451,1.451,0,0,1-.6-.074c-.149-.074-.223-.3-.223-.744V26.619a1.486,1.486,0,0,1,.149-.67c.074-.149.3-.149.521-.149h1.191a.944.944,0,0,1,.447.074.878.878,0,0,1,.372.372l3.275,5.211,3.275-5.137a.9.9,0,0,1,.372-.372.809.809,0,0,1,.372-.074h1.34c.3,0,.521.074.521.223a1.652,1.652,0,0,1,.074.67V38.6c0,.223,0,.447-.074.521s-.223.149-.6.149H40.4Z" transform="translate(-7.718 -6.594)"/><path class="d" d="M53.369,39.146a12.844,12.844,0,0,1-2.68-.223,4.723,4.723,0,0,1-1.414-.521c-.074-.074-.074-.223-.074-.447s.074-.447.074-.744l.223-.67c.074-.223.149-.3.223-.3.447.149.893.3,1.414.447A6.7,6.7,0,0,0,53,36.913a5.378,5.378,0,0,0,2.01-.372,1.276,1.276,0,0,0,.819-1.191,1.633,1.633,0,0,0-.521-1.266,5.579,5.579,0,0,0-1.936-1.042c-.521-.223-.968-.447-1.414-.67a6.746,6.746,0,0,1-1.191-.819,3.109,3.109,0,0,1-.819-1.117,3.453,3.453,0,0,1-.3-1.563,3.021,3.021,0,0,1,.3-1.414,2.6,2.6,0,0,1,.893-1.117,3.993,3.993,0,0,1,1.489-.744,6.309,6.309,0,0,1,2.159-.3H55.9c.372,0,.67.074.893.074.223.074.447.074.6.149s.3.074.447.149c.149.149.149.223.149.521a2.3,2.3,0,0,1-.074.744,2.229,2.229,0,0,1-.3.744c-.149.223-.223.3-.372.223-.3-.074-.67-.149-1.117-.3a9.121,9.121,0,0,0-1.414-.149,4.009,4.009,0,0,0-1.936.372,1.126,1.126,0,0,0-.521,1.042,1.414,1.414,0,0,0,.6,1.117,6.161,6.161,0,0,0,1.861.893,7.481,7.481,0,0,1,2.9,1.787A3.817,3.817,0,0,1,58.58,35.2a3.916,3.916,0,0,1-.447,1.936,3.054,3.054,0,0,1-1.191,1.191,4.346,4.346,0,0,1-1.638.6A5.533,5.533,0,0,1,53.369,39.146Z" transform="translate(-12.574 -6.466)"/></g></g><g class="k" transform="translate(-12679.557 -6115.204)"><g transform="translate(-459.443 -2464.796)"><g transform="translate(459.443 2464.796)"><path class="d" d="M47.567,14a15.113,15.113,0,0,0-30.145.012,9.783,9.783,0,0,0-8.659,9.71,9.529,9.529,0,0,0,.15,1.72H6.9a6.9,6.9,0,1,0,0,13.808H18.011V55.36a3.76,3.76,0,0,0,3.752,3.752H37.349A3.76,3.76,0,0,0,41.1,55.36V39.254h5.357A12.649,12.649,0,0,0,47.567,14ZM38.793,55.36A1.444,1.444,0,0,1,37.349,56.8H21.763A1.444,1.444,0,0,1,20.32,55.36V50.73H38.793Zm0-6.939H20.32v-14.2H38.793ZM20.32,31.911V28.228a1.444,1.444,0,0,1,1.443-1.443H37.349a1.444,1.444,0,0,1,1.443,1.443v3.683Zm26.15,5.034H41.1V28.228a3.76,3.76,0,0,0-3.752-3.752H21.763a3.76,3.76,0,0,0-3.752,3.752v8.717H6.9a4.6,4.6,0,0,1,0-9.19h3.5a1.187,1.187,0,0,0,.947-.485,1.174,1.174,0,0,0,.15-1.051,7.6,7.6,0,0,1-.427-2.494,7.475,7.475,0,0,1,7.47-7.47A1.158,1.158,0,0,0,19.7,15.1a12.8,12.8,0,0,1,25.608.012,1.158,1.158,0,0,0,1.155,1.155,10.339,10.339,0,0,1,.012,20.678Z"/><g transform="translate(22.96 4.191)"><path class="d" d="M206.339,37.1a1.147,1.147,0,0,0-1.455-.739,11.531,11.531,0,0,0-5.807,4.26,1.15,1.15,0,0,0,.277,1.6,1.2,1.2,0,0,0,.67.208,1.187,1.187,0,0,0,.947-.485,9.226,9.226,0,0,1,4.63-3.406A1.139,1.139,0,0,0,206.339,37.1Z" transform="translate(-198.865 -36.304)"/></g><g transform="translate(21.443 11.12)"><path class="d" d="M187.227,96.359a1.162,1.162,0,0,0-1.432.785l-.023.069a1.158,1.158,0,0,0,.808,1.42,1.453,1.453,0,0,0,.312.046A1.147,1.147,0,0,0,188,97.836l.012-.046A1.148,1.148,0,0,0,187.227,96.359Z" transform="translate(-185.73 -96.314)"/></g><g transform="translate(28.113 52.601)"><path class="d" d="M244.943,455.6a1.443,1.443,0,1,0,1.443,1.443A1.444,1.444,0,0,0,244.943,455.6Z" transform="translate(-243.5 -455.6)"/></g><g transform="translate(26.843 28.009)"><path class="d" d="M236.772,242.6h-3.117a1.155,1.155,0,0,0,0,2.309h3.117a1.155,1.155,0,0,0,0-2.309Z" transform="translate(-232.5 -242.6)"/></g></g></g></g><g transform="translate(-13417 -8753)"><g transform="translate(740 2706.525)"><g transform="translate(-3.995 -1.52)"><g transform="translate(-0.005 -0.006)"><path class="d" d="M17.7,45.553A23.092,23.092,0,0,1,16.82.873Q10.966,17.022,5.045,33.239H9.553c.269,0,.4-.067.471-.336,2.019-5.518,3.97-10.968,5.989-16.486a.47.47,0,0,1,.538-.4h3.3L13.591,33.171h4.576c.269,0,.336-.067.471-.336,1.884-5.249,3.768-10.5,5.72-15.678a3.393,3.393,0,0,0,.2-1.817,2.752,2.752,0,0,0-2.692-2.355c-1.346-.067-2.692,0-4.037,0h-.471c.067-.2.067-.336.135-.4C18.974,8.544,20.454,4.439,21.934.4a.47.47,0,0,1,.538-.4,23.107,23.107,0,0,1,5.45,45.689,25.863,25.863,0,0,1-5.114.538h-.4c.067-.135.067-.269.135-.4,1.48-4.1,2.961-8.142,4.441-12.247.067-.269.2-.336.471-.336h5.989a3.109,3.109,0,0,0,3.028-2.153c1.682-4.576,3.3-9.151,4.979-13.727a3.589,3.589,0,0,0,.269-1.884,2.7,2.7,0,0,0-2.692-2.422H30.009c-.336,0-.538.067-.606.4C25.568,24.02,21.733,34.517,17.9,45.082,17.83,45.216,17.762,45.418,17.7,45.553Z" transform="translate(0.005 0.006)"/><path class="d" d="M41.9,38c.067-.135.067-.269.135-.4,1.615-4.441,3.23-8.949,4.845-13.39a.47.47,0,0,1,.538-.4h3.23c-.067.135-.067.269-.135.4-1.615,4.441-3.23,8.949-4.845,13.39-.067.269-.2.336-.471.336C44.121,37.931,43.044,38,41.9,38Z" transform="translate(-13.702 -7.781)"/></g><g transform="translate(59.549 10.091)"><path class="d" d="M88.5,22.971l.673-.74a3.223,3.223,0,0,0,2.355,1.077c1.144,0,1.817-.538,1.817-1.413s-.606-1.144-1.413-1.548l-1.211-.538a2.409,2.409,0,0,1-1.75-2.221A2.426,2.426,0,0,1,91.663,15.3a3.719,3.719,0,0,1,2.557,1.077l-.673.74a2.862,2.862,0,0,0-1.951-.807c-.942,0-1.615.471-1.615,1.278s.74,1.144,1.413,1.413l1.211.538a2.323,2.323,0,0,1,1.75,2.288c0,1.346-1.144,2.422-2.961,2.422A3.978,3.978,0,0,1,88.5,22.971Z" transform="translate(-88.5 -15.098)"/><path class="d" d="M99.6,22.064a3.089,3.089,0,0,1,2.893-3.364c1.615,0,2.557,1.144,2.557,2.961a1.671,1.671,0,0,1-.067.606h-4.306a2.089,2.089,0,0,0,2.086,2.221,2.738,2.738,0,0,0,1.615-.538l.4.74a3.841,3.841,0,0,1-2.086.673A3.024,3.024,0,0,1,99.6,22.064Zm4.441-.538c0-1.278-.606-1.951-1.548-1.951a1.975,1.975,0,0,0-1.817,1.951Z" transform="translate(-92.131 -16.21)"/><path class="d" d="M110.6,18.8h.875l.067,1.144h.067a2.244,2.244,0,0,1,1.817-1.346,1.991,1.991,0,0,1,.673.135l-.2.942a1.607,1.607,0,0,0-.606-.135c-.538,0-1.211.4-1.615,1.48v4.1H110.6V18.8Z" transform="translate(-95.729 -16.178)"/><path class="d" d="M117.2,18.9h1.144l1.211,3.634c.2.606.4,1.278.606,1.884h.067c.2-.606.4-1.278.606-1.884l1.211-3.634h1.077l-2.288,6.392h-1.278Z" transform="translate(-97.888 -16.276)"/><path class="d" d="M128,15.673a.744.744,0,1,1,.74.673A.692.692,0,0,1,128,15.673Zm.2,1.951h1.077v6.392H128.2Z" transform="translate(-101.421 -15)"/><path class="d" d="M133,22.064a3.08,3.08,0,0,1,3.1-3.364,2.822,2.822,0,0,1,1.884.74l-.538.74a1.838,1.838,0,0,0-1.278-.538c-1.144,0-2.019,1.009-2.019,2.49s.807,2.422,1.951,2.422a2.27,2.27,0,0,0,1.48-.606l.471.74a3.009,3.009,0,0,1-2.086.807A3.157,3.157,0,0,1,133,22.064Z" transform="translate(-103.057 -16.21)"/><path class="d" d="M142.1,22.064a3.089,3.089,0,0,1,2.893-3.364c1.615,0,2.557,1.144,2.557,2.961a1.671,1.671,0,0,1-.067.606h-4.306a2.089,2.089,0,0,0,2.086,2.221,2.738,2.738,0,0,0,1.615-.538l.4.74a3.841,3.841,0,0,1-2.086.673A3.024,3.024,0,0,1,142.1,22.064Zm4.508-.538c0-1.278-.606-1.951-1.548-1.951a1.975,1.975,0,0,0-1.817,1.951Z" transform="translate(-106.033 -16.21)"/><path class="d" d="M89.4,36.6h1.346l1.682,4.576.606,1.817H93.1l.606-1.817L95.321,36.6h1.346v8.613H95.658V40.5c0-.74.067-1.817.135-2.557h-.067L95.052,39.9l-1.615,4.441H92.7L91.082,39.9l-.673-1.951h-.067c.067.74.135,1.817.135,2.557v4.71H89.467V36.6Z" transform="translate(-88.794 -22.066)"/><path class="d" d="M103.5,44.645c0-1.413,1.211-2.086,3.9-2.355,0-.807-.269-1.615-1.346-1.615a3.343,3.343,0,0,0-1.884.673l-.4-.74a4.561,4.561,0,0,1,2.49-.807c1.548,0,2.221,1.009,2.221,2.624v3.9H107.6l-.067-.74h-.067a3.3,3.3,0,0,1-2.086.942A1.881,1.881,0,0,1,103.5,44.645Zm3.9.067v-1.75c-2.153.269-2.893.807-2.893,1.615,0,.74.471,1.009,1.144,1.009A2.718,2.718,0,0,0,107.4,44.712Z" transform="translate(-93.407 -23.112)"/><path class="d" d="M114.6,39.835h.875l.067.942h.067a3.042,3.042,0,0,1,2.153-1.077c1.346,0,1.951.875,1.951,2.49v4.037h-1.077v-3.9c0-1.211-.336-1.682-1.211-1.682-.673,0-1.077.336-1.749,1.009v4.643H114.6Z" transform="translate(-97.038 -23.08)"/><path class="d" d="M125.3,44.645c0-1.413,1.211-2.086,3.9-2.355,0-.807-.269-1.615-1.346-1.615a3.343,3.343,0,0,0-1.884.673l-.4-.74a4.561,4.561,0,0,1,2.49-.807c1.548,0,2.221,1.009,2.221,2.624v3.9H129.4l-.067-.74h-.067a3.3,3.3,0,0,1-2.086.942A1.881,1.881,0,0,1,125.3,44.645Zm3.9.067v-1.75c-2.153.269-2.893.807-2.893,1.615,0,.74.471,1.009,1.144,1.009A2.718,2.718,0,0,0,129.2,44.712Z" transform="translate(-100.538 -23.112)"/><path class="d" d="M135.6,47.405a1.669,1.669,0,0,1,.942-1.413v-.067A1.147,1.147,0,0,1,136,44.849a1.812,1.812,0,0,1,.673-1.211V43.57a2.25,2.25,0,0,1,1.615-3.97,2.986,2.986,0,0,1,.875.135h2.221v.807h-1.278a1.918,1.918,0,0,1,.538,1.346,2.192,2.192,0,0,1-2.355,2.221,2.149,2.149,0,0,1-.942-.2,1.026,1.026,0,0,0-.4.74c0,.4.269.673,1.144.673H139.3c1.48,0,2.221.471,2.221,1.548,0,1.211-1.278,2.221-3.23,2.221C136.677,49.155,135.6,48.549,135.6,47.405Zm4.845-.336c0-.606-.471-.807-1.278-.807H138.09a3.276,3.276,0,0,1-.807-.067,1.3,1.3,0,0,0-.673,1.077c0,.673.673,1.144,1.817,1.144C139.637,48.415,140.445,47.742,140.445,47.069Zm-.875-5.114a1.352,1.352,0,1,0-2.692,0,1.359,1.359,0,1,0,2.692,0Z" transform="translate(-103.907 -23.047)"/><path class="d" d="M145.8,43.064a3.089,3.089,0,0,1,2.893-3.364c1.615,0,2.557,1.144,2.557,2.961a1.671,1.671,0,0,1-.067.606h-4.306a2.089,2.089,0,0,0,2.086,2.221,2.738,2.738,0,0,0,1.615-.538l.4.74a3.841,3.841,0,0,1-2.086.673A3.024,3.024,0,0,1,145.8,43.064Zm4.508-.538c0-1.278-.606-1.951-1.548-1.951a1.975,1.975,0,0,0-1.817,1.951Z" transform="translate(-107.244 -23.08)"/><path class="d" d="M156.8,39.8h.875l.067,1.144h.067a2.244,2.244,0,0,1,1.817-1.346,1.991,1.991,0,0,1,.673.135l-.2.942a1.607,1.607,0,0,0-.606-.135c-.538,0-1.211.4-1.615,1.48v4.1H156.8Z" transform="translate(-110.842 -23.047)"/></g></g></g></g><g transform="translate(-12680 -5993.97)"><g transform="translate(0 -0.031)"><path class="d" d="M787.553,267.047a.891.891,0,0,1-.891.435c-1.354-.021-2.708-.007-4.062-.007-.449,0-.613-.107-.748-.549q-.716-2.255-1.4-4.518a.387.387,0,0,0-.449-.321c-1.8.007-3.584.007-5.38.007-.691,0-.948-.335-.763-1,.3-1.083.6-2.166.905-3.256a.652.652,0,0,1,.748-.556h3.377a2.5,2.5,0,0,0-.036-.292q-1.2-4.169-2.408-8.337-.193-.673-.684-.663c-.328.007-.563.228-.691.663l-5.387,18.235c-.143.47-.3.584-.791.584-2.758,0-5.508-.007-8.266.007a.867.867,0,0,1-.8-.413c-1.767-2.558-3.556-5.1-5.316-7.66a.975.975,0,0,0-.948-.5c-1.069.036-2.138.014-3.207.014h-.435v7.646c0,.727-.185.912-.9.912h-3.848c-.534,0-.777-.242-.777-.784V241.715c0-.549.257-.8.813-.8,3.634,0,7.268-.021,10.9.014a10.075,10.075,0,0,1,4.746,1.055,5.463,5.463,0,0,1,2.922,4.418,26.838,26.838,0,0,1-.029,7.09,5.586,5.586,0,0,1-3.385,4.482.582.582,0,0,0-.093.05c-.007.007-.014.021-.05.071,1.461,2.1,2.929,4.218,4.439,6.4.249-.784.477-1.489.705-2.2q1.529-4.853,3.05-9.7,1.731-5.5,3.477-11.016c.171-.549.321-.663.891-.663h5.985c.527,0,.691.128.848.627l3.484,11.052q2.095,6.648,4.183,13.289c.078.249.178.485.264.727Zm-37.609-12.969h.435c1.411,0,2.822.007,4.24,0a14.867,14.867,0,0,0,1.6-.071,2.073,2.073,0,0,0,2.166-2.1,31.764,31.764,0,0,0,0-3.948,1.977,1.977,0,0,0-1.76-1.981,5.816,5.816,0,0,0-1.161-.142c-1.71-.014-3.42-.007-5.123-.007-.128,0-.249.014-.378.021C749.944,248.606,749.944,251.321,749.944,254.078Z" transform="translate(-691.357 -223.742)"/><path class="d" d="M0,234.191c.371-.542.6-.591,1.226-.392,1.447.456,2.9.891,4.354,1.318a.985.985,0,0,1,.713.577,16.125,16.125,0,0,0,3.192,4.931c1.112,1.247,2.287,2.444,3.442,3.648a.65.65,0,0,0,1.076.036,47.407,47.407,0,0,0,5.038-5.651,12.383,12.383,0,0,0,1.589-2.886,1.055,1.055,0,0,1,.77-.663q2.213-.641,4.418-1.34c.727-.228,1.183.1,1.1.862a14.3,14.3,0,0,1-2.237,6.121,34.274,34.274,0,0,1-4.432,5.508c-.784.827-1.589,1.632-2.38,2.451-.349.356-.363.556-.043.955a24.869,24.869,0,0,1,2.85,4.368,15.414,15.414,0,0,1,1.646,5.665,2.408,2.408,0,0,1,0,.321.676.676,0,0,1-.748.748H17.194a.671.671,0,0,1-.777-.684,10.167,10.167,0,0,0-1.261-3.969,21.6,21.6,0,0,0-3.278-4.418c-1.753-1.874-3.556-3.691-5.316-5.551A30.126,30.126,0,0,1,1.582,239.6a14.346,14.346,0,0,1-1.511-4.667c-.014-.107-.05-.207-.071-.306Z" transform="translate(0 -217.037)"/><path class="d" d="M418.581,269.339a1.083,1.083,0,0,1-.57-.791c-.257-.9-.534-1.8-.827-2.679-.257-.77.021-1.1.77-1.169a3.107,3.107,0,0,0,2.879-3.221V241.962c0-.784.171-.962.962-.962h3.777c.549,0,.762.207.762.748,0,6.848.043,13.7-.014,20.55a7.14,7.14,0,0,1-5.786,6.883c-.292.057-.584.107-.869.157Z" transform="translate(-387.371 -223.825)"/><path class="d" d="M611.787,254.241v12.434c0,.663-.185.841-.841.841h-3.919a.635.635,0,0,1-.727-.713V241.686a.643.643,0,0,1,.72-.727c1.333-.007,2.658,0,3.99,0,.556,0,.777.214.777.777Z" transform="translate(-563.097 -223.784)"/><path class="d" d="M67.812,491.935H65.674c-.57,0-.812-.271-.791-.841a15.587,15.587,0,0,1,2.366-7.218,9.464,9.464,0,0,1,.613-.955.7.7,0,0,1,1.133-.071c.962,1.062,1.9,2.145,2.843,3.228a1.1,1.1,0,0,1,.1,1.375,9.355,9.355,0,0,0-1.154,3.741.727.727,0,0,1-.812.741C69.258,491.943,68.539,491.935,67.812,491.935Z" transform="translate(-60.259 -448.203)"/><path class="d" d="M474.692,9.009c-.321-1.112-.62-2.159-.934-3.192-.028-.1-.164-.171-.249-.257-.086.1-.221.192-.257.306-.371,1.2-.72,2.4-1.076,3.606-.292,1-.591,2-.877,3a.415.415,0,0,1-.477.356c-.442-.014-.876,0-1.318-.007-.371-.007-.449-.107-.335-.463q1.122-3.559,2.237-7.119c.214-.677.435-1.354.641-2.031a.387.387,0,0,1,.442-.314c.677.014,1.354.021,2.031,0a.432.432,0,0,1,.485.356q1.037,3.324,2.088,6.648c.257.812.52,1.625.762,2.444.121.406.064.485-.37.485-.413,0-.834-.021-1.247.007-.314.021-.442-.114-.52-.4-.121-.449-.278-.884-.4-1.325a.326.326,0,0,0-.378-.271c-.57.014-1.14.007-1.71,0-.385-.007-.477-.128-.385-.477s.2-.684.285-1.026a.374.374,0,0,1,.428-.328C473.916,9.016,474.272,9.009,474.692,9.009Z" transform="translate(-435.694 -2.686)"/><path class="d" d="M1097.8,38.464a7.167,7.167,0,0,1,2.8-.67,1.486,1.486,0,0,1,1.6,1.261,2.934,2.934,0,0,1,.085.705c.007,1.689-.007,3.37.007,5.059,0,.335-.107.442-.427.428-.392-.021-.784-.014-1.176,0-.292.007-.4-.1-.392-.4.007-1.511.007-3.014.007-4.525,0-.534-.178-.691-.706-.563-.449.107-.876.292-1.311.428-.221.071-.2.235-.2.4,0,1.411-.007,2.822.007,4.24,0,.314-.093.428-.406.413-.413-.014-.834-.007-1.247,0-.235,0-.342-.086-.342-.335q.011-3.313,0-6.62c0-.235.1-.356.342-.349.178,0,.356.007.535,0C1097.361,37.915,1097.8,37.844,1097.8,38.464Z" transform="translate(-1017.995 -35.098)"/><path class="d" d="M707.344,44.745c-.577.143-1.126.328-1.7.42a1.884,1.884,0,0,1-2.309-1.981c0-.214-.014-.428.007-.641a1.652,1.652,0,0,1,1.7-1.66c.328-.029.663-.014,1-.021h1.033a6.646,6.646,0,0,0-.014-1.069c-.064-.378-.392-.5-.727-.492-.634.014-1.276.036-1.91.107-.591.071-.613.086-.72-.5-.021-.107-.021-.214-.043-.321-.107-.67-.107-.677.549-.812a8.532,8.532,0,0,1,3.036-.114,1.958,1.958,0,0,1,1.824,2.017c.05,1.66.043,3.321.057,4.981,0,.278-.128.385-.392.378s-.549-.014-.819,0S707.4,45.023,707.344,44.745Zm-.25-2.38c-.47,0-.884-.007-1.3,0-.371.007-.506.157-.52.527-.014.456.121.677.5.648a6.7,6.7,0,0,0,1.168-.249c.064-.014.128-.135.135-.207A5.861,5.861,0,0,0,707.094,42.365Z" transform="translate(-653.217 -34.895)"/><path class="d" d="M1004.515,44.716a13.386,13.386,0,0,1-1.539.413c-1.838.3-2.608-.869-2.473-2.465.107-1.3.713-1.8,2.031-1.81.484,0,.976-.007,1.461,0,.214.007.285-.071.292-.285.021-1.176-.164-1.311-1.383-1.3a13.054,13.054,0,0,0-1.482.15c-.413.05-.463.014-.527-.4-.036-.257-.085-.513-.135-.77a.3.3,0,0,1,.249-.392,7.967,7.967,0,0,1,3.8-.1,1.841,1.841,0,0,1,1.411,1.724,7.343,7.343,0,0,1,.05.884c.007,1.411-.007,2.822.007,4.24,0,.328-.107.456-.435.435a6.289,6.289,0,0,0-.819,0C1004.757,45.051,1004.557,44.979,1004.515,44.716Zm-.235-2.359c-.477,0-.905-.007-1.325,0-.371.007-.492.143-.506.492-.014.485.093.691.463.677a6.443,6.443,0,0,0,1.2-.242.315.315,0,0,0,.157-.235C1004.294,42.842,1004.279,42.628,1004.279,42.357Z" transform="translate(-929.196 -34.887)"/><path class="d" d="M878.959,37c.684.086,1.261.15,1.831.221.285.036.42.178.356.485a6.848,6.848,0,0,0-.114.841c-.021.306-.178.363-.456.335-.613-.064-1.225-.128-1.838-.15-.5-.014-.591.128-.591.613,0,.306.185.413.427.485.542.164,1.09.321,1.632.5a1.432,1.432,0,0,1,1.1,1.475,9.108,9.108,0,0,1-.021,1.169,1.741,1.741,0,0,1-1.675,1.6,7.616,7.616,0,0,1-3.228-.271.316.316,0,0,1-.249-.428c.057-.278.114-.556.157-.841s.164-.363.463-.314a18.852,18.852,0,0,0,1.9.235c.271.021.62.05.691-.378a.626.626,0,0,0-.484-.841c-.335-.121-.684-.2-1.019-.3a1.87,1.87,0,0,1-1.653-2.287,5.376,5.376,0,0,1,.071-.67,1.445,1.445,0,0,1,1.1-1.226C877.9,37.128,878.481,37.078,878.959,37Z" transform="translate(-813.688 -34.361)"/><path class="d" d="M798.179,37.2c.527.064,1.126.143,1.724.214a.316.316,0,0,1,.314.413c-.043.306-.093.606-.114.912s-.192.356-.456.328c-.613-.064-1.226-.128-1.839-.15-.5-.014-.634.171-.591.656.021.278.207.378.435.449.477.143.962.264,1.432.42a1.535,1.535,0,0,1,1.3,1.8,7.1,7.1,0,0,1-.064,1.1,1.633,1.633,0,0,1-1.4,1.375,7.2,7.2,0,0,1-3.477-.221.308.308,0,0,1-.249-.4c.057-.3.128-.606.171-.9.043-.264.164-.314.42-.271.641.1,1.29.185,1.931.242.306.029.634-.007.705-.428s-.064-.641-.52-.8c-.485-.164-.976-.285-1.461-.442a1.509,1.509,0,0,1-1.169-1.475,7.152,7.152,0,0,1,.057-1.411,1.625,1.625,0,0,1,1.5-1.268C797.253,37.257,797.68,37.25,798.179,37.2Z" transform="translate(-738.516 -34.547)"/><path class="d" d="M586.248,15.447h-.741c-.214,0-.328-.093-.321-.321.007-.321.014-.641,0-.962-.014-.271.121-.356.363-.349.221.007.442,0,.7,0,0-.477.014-.9-.007-1.325-.014-.306.085-.463.406-.492.392-.036.777-.093,1.161-.157.307-.05.442.05.435.371-.014.506-.007,1.019-.007,1.6h1.24c.442,0,.463.021.463.463v.713c0,.435-.028.456-.477.456h-1.211c-.007.135-.014.249-.014.363v3.064c0,.591.207.77.784.677.755-.121.755-.121.855.656.107.855.114.876-.748,1a5.053,5.053,0,0,1-1.268.036,1.636,1.636,0,0,1-1.6-1.846c-.007-1.161,0-2.323,0-3.484C586.248,15.775,586.248,15.64,586.248,15.447Z" transform="translate(-543.487 -10.984)"/><path class="d" d="M145.7,264.985c1.6,0,3.192.007,4.788,0a.707.707,0,0,1,.691,1.04,11.038,11.038,0,0,1-1.7,2.779c-.257.313-.527.613-.805.9a.762.762,0,0,1-1.14.007,11.511,11.511,0,0,1-2.508-3.677A.7.7,0,0,1,145.7,264.985Z" transform="translate(-134.614 -246.099)"/><path class="d" d="M665.8,5.162c0,1.539-.014,3.085.007,4.625.007.356-.128.456-.456.442a9.519,9.519,0,0,0-1.1,0c-.349.021-.449-.121-.449-.456q.011-3.965.007-7.938c0-.442.007-.876,0-1.318-.007-.306.135-.428.428-.42q.588.011,1.176,0c.285-.007.392.114.392.406C665.8,2.056,665.8,3.609,665.8,5.162Z" transform="translate(-616.5 -0.087)"/><path class="d" d="M158.559,114.8a2.32,2.32,0,1,1-2.359,2.323A2.291,2.291,0,0,1,158.559,114.8Z" transform="translate(-145.07 -106.618)"/><path class="d" d="M51.216,144.491a2.337,2.337,0,0,1,.036,4.674,2.337,2.337,0,0,1-.036-4.674Z" transform="translate(-45.416 -134.192)"/><path class="d" d="M264,146.837a2.337,2.337,0,1,1,2.323,2.337A2.3,2.3,0,0,1,264,146.837Z" transform="translate(-245.188 -134.201)"/><path class="d" d="M960.9,43.214c0-1.069.014-2.138-.007-3.207-.007-.356.121-.463.456-.442.392.021.784.007,1.176,0,.256-.007.363.107.363.363v6.627c0,.228-.1.328-.321.321-.449,0-.9-.007-1.354,0-.249.007-.321-.121-.321-.356C960.911,45.423,960.9,44.319,960.9,43.214Z" transform="translate(-892.426 -36.742)"/><path class="d" d="M961.857,1.824c-1.183,0-.976.1-.983-.969,0-.976-.142-.869.862-.876a5.14,5.14,0,0,1,.812.014.43.43,0,0,1,.292.292c.036.4.014.805.014,1.2,0,.228-.121.321-.328.328S962.085,1.824,961.857,1.824Z" transform="translate(-892.396 0.031)"/></g></g><g transform="translate(-13709 -8646)"><g transform="translate(1027 2704.936)"><g transform="translate(0 0.065)"><path class="d" d="M0,191.69c.138-.882.308-1.754.425-2.636.3-2.19.585-4.368.893-6.654,2.9.67,5.761,1.329,8.684,2-.223,2.657-.446,5.293-.67,8.035H0C0,192.189,0,191.945,0,191.69Z" transform="translate(0 -163.02)"/><path class="d" d="M1003.34,78.867V99.816H999.8V86.5c-.117.308-.2.489-.266.68-1.4,4.05-2.817,8.089-4.2,12.138a.682.682,0,0,1-.786.563,14.644,14.644,0,0,0-1.807,0,.685.685,0,0,1-.8-.553q-2.089-6.074-4.22-12.138c-.074-.223-.17-.446-.244-.659a.782.782,0,0,0-.149.043,5.086,5.086,0,0,1,.074.563c.053.691.117,1.371.128,2.062.01,3.348-.011,6.7.021,10.044,0,.521-.159.67-.659.648-.8-.043-1.594-.032-2.392,0-.457.021-.606-.106-.606-.585.021-2.817.01-5.633.01-8.45V78.877H985.8c.606,0,1.2.032,1.807-.011.436-.032.617.128.755.531,1.116,3.242,2.264,6.484,3.4,9.725.648,1.849,1.275,3.7,1.86,5.389,1.69-4.815,3.422-9.789,5.176-14.763.361-1.042.138-.85,1.19-.861C1001.087,78.867,1002.182,78.867,1003.34,78.867Z" transform="translate(-879.323 -70.487)"/><path class="d" d="M1292.786,85.725c.032.393.1.787.106,1.18q.032,5.421.064,10.841c0,.531-.011,1.063,0,1.594.011.308-.085.457-.414.446-.935-.011-1.881-.021-2.817,0-.446.011-.415-.266-.415-.553V92.219c0-4.252.011-8.5-.01-12.755,0-.51.1-.723.67-.691,1.063.053,2.126.021,3.189.011a.556.556,0,0,1,.595.393c1.5,3.433,3.029,6.866,4.517,10.31.34.776.563,1.594.925,2.413V79.794c0-1.18-.128-.988,1.021-1,.691-.011,1.382.011,2.073-.011.383-.011.531.1.531.51q-.016,9.98,0,19.972c0,.436-.17.542-.564.531-.776-.021-1.562-.032-2.338,0a.757.757,0,0,1-.84-.531q-2.917-6.521-5.857-13.02c-.085-.191-.181-.372-.266-.553C1292.892,85.7,1292.839,85.714,1292.786,85.725Z" transform="translate(-1152.263 -70.405)"/><path class="d" d="M514.914,99.885H511.3V79.01c.043-.032.074-.064.106-.064a41.824,41.824,0,0,1,7.472.276c3.858.723,5.676,3.826,5.1,7.589a7.178,7.178,0,0,1-1.871,3.911,5.01,5.01,0,0,1-3.04,1.531c.149.181.255.308.372.425,1.616,1.69,3.242,3.369,4.857,5.059.765.8.818.967.616,2.179-1.01,0-2.03.021-3.05-.021-.17-.011-.351-.213-.489-.361q-2.918-3.189-5.835-6.4c-.181-.191-.361-.383-.627-.67Zm.042-17.793c-.032.074-.064.106-.064.138-.011,2.253-.011,4.5,0,6.749a.535.535,0,0,0,.276.372,3.517,3.517,0,0,0,4.974-2.221,5.894,5.894,0,0,0,.223-1.722,2.958,2.958,0,0,0-1.934-2.955A8.4,8.4,0,0,0,514.956,82.093Z" transform="translate(-456.955 -70.536)"/><path class="d" d="M811.1,99.9V79.036c.053-.032.1-.074.138-.074,2.232,0,4.464-.053,6.7.032a6.62,6.62,0,0,1,6.292,4.73A15.745,15.745,0,0,1,824.195,95a7.151,7.151,0,0,1-7.1,4.932c-1.913.021-3.826,0-5.74,0A1.612,1.612,0,0,1,811.1,99.9Zm3.614-3.167c1.031,0,2.041.064,3.04-.011a3.249,3.249,0,0,0,2.657-1.8,7.444,7.444,0,0,0,.67-1.552,16.008,16.008,0,0,0,.372-5.686,7.519,7.519,0,0,0-1.116-3.88,4.14,4.14,0,0,0-1.456-1.329c-1.318-.659-2.763-.287-4.167-.361Z" transform="translate(-724.89 -70.562)"/><path class="d" d="M677.8,87.607v3.242h-5.825c-.021.223-.042.393-.042.563,0,1.626.011,3.263-.011,4.889-.011.436.117.574.563.574,2.253-.021,4.5-.011,6.749-.011h.68v3.284c-.181.011-.361.021-.531.021-3.486,0-6.983-.011-10.469.011-.5,0-.616-.149-.616-.627q.016-9.885.011-19.77c0-.191.021-.383.032-.585h11.267v3.21h-7.621c-.021.213-.042.372-.042.521,0,1.382.011,2.763-.011,4.145-.011.425.138.542.542.531,1.562-.021,3.114-.011,4.677-.011C677.366,87.607,677.568,87.607,677.8,87.607Z" transform="translate(-597.268 -70.789)"/><path class="d" d="M1471.792,90.577h-5.8a1.583,1.583,0,0,0-.064.308c0,1.775,0,3.539-.01,5.314,0,.415.255.393.531.393,2.285,0,4.571.021,6.856-.011.542-.011.712.138.68.68-.042.85-.011,1.69-.011,2.593-.234.011-.425.043-.606.043-3.475,0-6.94-.011-10.416.011-.521,0-.648-.149-.648-.659q.032-9.853,0-19.706c0-.51.138-.659.648-.648,3.369.021,6.728.021,10.1,0,.5,0,.638.159.616.627-.032.7-.032,1.414,0,2.126.021.4-.138.51-.521.51-2.2-.011-4.39.011-6.59-.021-.5-.011-.627.149-.616.638.032,1.329.021,2.657,0,3.986-.011.436.127.585.574.585,1.562-.021,3.114-.011,4.677-.011.213,0,.414.021.648.032C1471.792,88.451,1471.792,89.482,1471.792,90.577Z" transform="translate(-1306.875 -70.516)"/><path class="d" d="M319.912,192.4H310.57c-.223-2.657-.446-5.293-.67-7.993,2.891-.67,5.75-1.329,8.684-2.009C319.03,185.759,319.466,189.054,319.912,192.4Z" transform="translate(-276.961 -163.02)"/><path class="d" d="M1212.5,78.978c1.105,0,2.179-.011,3.253.011.1,0,.234.159.287.276s.011.244.011.372V99.289c0,.68,0,.68-.7.691H1212.5Z" transform="translate(-1083.625 -70.588)"/><path class="d" d="M135.1,1.45A24.993,24.993,0,0,1,139.83.228c2.19-.149,4.453-.425,6.611.436.818.329,1.679.531,2.6.808-.128.181-.213.329-.308.457-1.244,1.722-2.5,3.433-3.72,5.166a.847.847,0,0,1-.787.393c-1.254-.021-2.519,0-3.773-.021a.827.827,0,0,1-.6-.223q-2.36-2.806-4.687-5.633C135.143,1.6,135.143,1.556,135.1,1.45Z" transform="translate(-120.74 -0.065)"/><path class="d" d="M25.852,92.078c-.68,2.37-1.339,4.677-2.009,7.015-2.8-.67-5.538-1.329-8.344-2.009,1.116-2.912,2.221-5.771,3.337-8.684C21.2,89.633,23.514,90.845,25.852,92.078Z" transform="translate(-13.853 -79.011)"/><path class="d" d="M301.453,97.084c-2.806.68-5.538,1.329-8.344,2.009-.67-2.328-1.329-4.645-2.009-7.015,2.317-1.212,4.624-2.423,7.015-3.678C299.22,91.291,300.326,94.14,301.453,97.084Z" transform="translate(-260.16 -79.011)"/><path class="d" d="M60.462,22.6c1.69,1.913,3.337,3.773,5.017,5.686-.872.606-1.69,1.169-2.519,1.743s-1.658,1.159-2.5,1.7a.747.747,0,0,1-.6.074c-2.083-1.127-4.135-2.264-6.186-3.4a1.3,1.3,0,0,1-.181-.159C55.806,26.363,58.113,24.5,60.462,22.6Z" transform="translate(-47.814 -20.205)"/><path class="d" d="M237.8,28.186c1.7-1.924,3.337-3.784,5.017-5.686,2.338,1.892,4.634,3.763,7,5.665-.234.138-.393.234-.553.329-1.892,1.042-3.784,2.073-5.665,3.125a.674.674,0,0,1-.85-.032C241.127,30.461,239.49,29.356,237.8,28.186Z" transform="translate(-212.525 -20.115)"/></g></g></g></g></svg>