<svg xmlns="http://www.w3.org/2000/svg" xmlns:xlink="http://www.w3.org/1999/xlink" viewBox="0 0 100 119"><defs><style>.a,.c,.d{stroke:#00b3ef;stroke-miterlimit:10;}.a{fill:url(#a);}.b,.d{opacity:0.5;}.c,.d{fill:none;}.e{fill:#7ea5e3;}.f{fill:#fff;}</style><linearGradient id="a" x1="0.5" x2="0.277" y2="1.022" gradientUnits="objectBoundingBox"><stop offset="0" stop-color="#00b3ef" stop-opacity="0"/><stop offset="1" stop-color="#fff" stop-opacity="0.502"/></linearGradient></defs><g transform="translate(-912 -812)"><g transform="translate(915 815)"><path class="a" d="M85.1,47.8a37.4,37.4,0,1,0-52,34.4V107H62.4V82.2A37.406,37.406,0,0,0,85.1,47.8Z"/><g class="b"><line class="c" x2="4.8" y2="2.7" transform="translate(83.8 68.6)"/><line class="c" x2="6.5" transform="translate(88.9 47.7)"/><line class="c" y1="3.2" x2="5.8" transform="translate(83.3 23.8)"/><line class="c" y1="5.8" x2="3.2" transform="translate(68.4 6.1)"/><line class="c" y1="6.5" transform="translate(47.7)"/><line class="c" x1="3.3" y1="5.8" transform="translate(23.9 6.3)"/><line class="c" x1="5.8" y1="3.2" transform="translate(6.3 23.8)"/><line class="c" x1="6.5" transform="translate(0 47.7)"/><line class="c" x1="5.8" y2="3.2" transform="translate(6.3 68.4)"/></g><line class="c" x2="16" transform="translate(46.7 94.7)"/><line class="c" x2="37.4" transform="translate(29.3 87)"/><line class="c" x2="16.4" transform="translate(46.2 101.5)"/><path class="d" d="M39.7,107.6v6.2h16v-7.1"/><path class="c" d="M40.3,87V59.2L35.6,46.7V42.1"/><path class="c" d="M24.1,38.2v9.6l5.2,8.8v6.6l10.8,3.1"/><path class="c" d="M55.6,87V59.2l4.7-12.5V42.1"/><path class="c" d="M71.8,38.2v9.6l-5.2,8.8v6.6L55.8,66.3"/><line class="c" y2="32.2" transform="translate(48 54.8)"/></g><circle class="e" cx="2" cy="2" r="2" transform="translate(1003 836)"/><circle class="e" cx="2" cy="2" r="2" transform="translate(919 836)"/><circle class="e" cx="2" cy="2" r="2" transform="translate(936 818)"/><circle class="e" cx="2" cy="2" r="2" transform="translate(985 818)"/><circle class="e" cx="2" cy="2" r="2" transform="translate(961 812)"/><circle class="f" cx="2" cy="2" r="2" transform="translate(961 867)"/><circle class="f" cx="2" cy="2" r="2" transform="translate(949 855)"/><circle class="f" cx="2" cy="2" r="2" transform="translate(973 855)"/><circle class="f" cx="2" cy="2" r="2" transform="translate(980 900)"/><circle class="f" cx="2" cy="2" r="2" transform="translate(942 900)"/><circle class="f" cx="2" cy="2" r="2" transform="translate(946 920)"/><circle class="f" cx="2" cy="2" r="2" transform="translate(975 920)"/><circle class="f" cx="2" cy="2" r="2" transform="translate(937 851)"/><circle class="f" cx="2" cy="2" r="2" transform="translate(985 851)"/><circle class="e" cx="2" cy="2" r="2" transform="translate(1008 861)"/><circle class="e" cx="2" cy="2" r="2" transform="translate(912 861)"/><circle class="e" cx="2" cy="2" r="2" transform="translate(1002 885)"/><circle class="e" cx="2" cy="2" r="2" transform="translate(969 927)"/><circle class="e" cx="2" cy="2" r="2" transform="translate(952 927)"/><circle class="e" cx="2" cy="2" r="2" transform="translate(919 885)"/></g></svg>