<svg xmlns="http://www.w3.org/2000/svg" xmlns:xlink="http://www.w3.org/1999/xlink" viewBox="0 0 174 103"><defs><style>.a,.c{stroke:#00b3ef;stroke-miterlimit:10;}.a{fill:url(#a);}.b{opacity:0.5;}.c{fill:none;}.d{fill:#7ea5e3;}.e{fill:#fff;}</style><linearGradient id="a" x1="1.879" y1="-0.056" x2="0" y2="0.553" gradientUnits="objectBoundingBox"><stop offset="0" stop-color="#00b3ef" stop-opacity="0"/><stop offset="1" stop-color="#fff" stop-opacity="0.502"/></linearGradient></defs><g transform="translate(-476 -831)"><g transform="translate(477.5 832.5)"><path class="a" d="M86.6,34.9a17.7,17.7,0,1,0,17.8,17.7A17.819,17.819,0,0,0,86.6,34.9Z"/><path class="a" d="M.5.5H27.3V27.2H.5Z"/><path class="a" d="M152.5,64.9l17.7,35.2H134.8Z"/><g class="b"><path class="c" d="M35.1,13.8H160.2V47.3H123"/><path class="c" d="M133.5,58.3l-11-11,11-11"/></g><g class="b"><path class="c" d="M123.8,88.8H8.8V55.2H54.1"/><path class="c" d="M113.7,99.7l11.1-11.1-11.1-11"/></g></g><circle class="d" cx="2" cy="2" r="2" transform="translate(512 844)"/><circle class="d" cx="2" cy="2" r="2" transform="translate(636 844)"/><circle class="d" cx="2" cy="2" r="2" transform="translate(636 877)"/><circle class="d" cx="2" cy="2" r="2" transform="translate(598 877)"/><circle class="d" cx="2" cy="2" r="2" transform="translate(608 867)"/><circle class="d" cx="2" cy="2" r="2" transform="translate(608 888)"/><circle class="d" cx="2" cy="2" r="2" transform="translate(529 885)"/><circle class="d" cx="2" cy="2" r="2" transform="translate(600 919)"/><circle class="d" cx="2" cy="2" r="2" transform="translate(590 909)"/><circle class="d" cx="2" cy="2" r="2" transform="translate(590 929)"/><circle class="e" cx="2" cy="2" r="2" transform="translate(610 930)"/><circle class="e" cx="2" cy="2" r="2" transform="translate(646 930)"/><circle class="e" cx="2" cy="2" r="2" transform="translate(628 895)"/><circle class="e" cx="2" cy="2" r="2" transform="translate(503 831)"/><circle class="e" cx="2" cy="2" r="2" transform="translate(503 858)"/><circle class="e" cx="2" cy="2" r="2" transform="translate(476 831)"/><circle class="e" cx="2" cy="2" r="2" transform="translate(476 858)"/></g></svg>