<svg xmlns="http://www.w3.org/2000/svg" xmlns:xlink="http://www.w3.org/1999/xlink" viewBox="0 0 133 120"><defs><style>.a,.b{stroke:#00b3ef;stroke-miterlimit:10;}.a{fill:url(#a);}.b{fill:none;}.c{opacity:0.5;}.d{fill:#fff;}.e{fill:#7ea5e3;}</style><linearGradient id="a" x1="0.5" x2="0.5" y2="0.72" gradientUnits="objectBoundingBox"><stop offset="0" stop-color="#00b3ef" stop-opacity="0"/><stop offset="1" stop-color="#fff" stop-opacity="0.502"/></linearGradient></defs><g transform="translate(1.5 1.669)"><path class="a" d="M5.3,30.472V.5H122.29V37.9H102.267V54.021L85.644,37.9H41.82S31.5,47.509,25.2,54.021V37.776H5.3Z" transform="translate(1.245)"/><path class="b" d="M17.3,11.5h86.767" transform="translate(4.356 2.852)"/><path class="b" d="M30.4,20.9H84.3" transform="translate(7.754 5.29)"/><g class="c" transform="translate(0.5 60.821)"><path class="b" d="M101.716,72.3a11.716,11.716,0,0,1,10.956,11.712h0V96.983a.6.6,0,0,1-.63.63H66.33a.6.6,0,0,1-.63-.63h0V84.012A11.716,11.716,0,0,1,76.656,72.3" transform="translate(16.407 -42.202)"/><path class="b" d="M102.168,63.234A14.734,14.734,0,1,1,87.434,48.5h0A14.673,14.673,0,0,1,102.168,63.234Z" transform="translate(18.223 -48.374)"/><path class="b" d="M22.26,48.4A14.735,14.735,0,1,1,7.4,63.26,15.053,15.053,0,0,1,22.26,48.4Z" transform="translate(1.289 -48.4)"/><path class="b" d="M36.642,72.3A11.716,11.716,0,0,1,47.6,84.012V96.983a.6.6,0,0,1-.63.63H1.13a.6.6,0,0,1-.63-.63h0V84.012A11.716,11.716,0,0,1,11.456,72.3" transform="translate(-0.5 -42.202)"/></g><circle class="d" cx="2" cy="2" r="2" transform="translate(36.5 24.331)"/><circle class="d" cx="2" cy="2" r="2" transform="translate(89.5 24.331)"/><circle class="d" cx="2" cy="2" r="2" transform="translate(19.5 12.331)"/><circle class="d" cx="2" cy="2" r="2" transform="translate(106.5 12.331)"/><circle class="d" cx="2" cy="2" r="2" transform="translate(121.5 -1.669)"/><circle class="d" cx="2" cy="2" r="2" transform="translate(4.5 -1.669)"/><circle class="d" cx="2" cy="2" r="2" transform="translate(121.5 36.331)"/><circle class="d" cx="2" cy="2" r="2" transform="translate(4.5 36.331)"/><circle class="d" cx="2" cy="2" r="2" transform="translate(24.5 36.331)"/><circle class="d" cx="2" cy="2" r="2" transform="translate(40.5 36.331)"/><circle class="d" cx="2" cy="2" r="2" transform="translate(85.5 36.331)"/><circle class="d" cx="2" cy="2" r="2" transform="translate(101.5 36.331)"/><circle class="d" cx="2" cy="2" r="2" transform="translate(101.5 51.331)"/><circle class="d" cx="2" cy="2" r="2" transform="translate(24.5 51.331)"/><circle class="e" cx="2" cy="2" r="2" transform="translate(34.5 89.331)"/><circle class="e" cx="2" cy="2" r="2" transform="translate(116.5 89.331)"/><circle class="e" cx="2" cy="2" r="2" transform="translate(9.5 89.331)"/><circle class="e" cx="2" cy="2" r="2" transform="translate(91.5 89.331)"/><circle class="e" cx="2" cy="2" r="2" transform="translate(-1.5 114.331)"/><circle class="e" cx="2" cy="2" r="2" transform="translate(80.5 114.331)"/><circle class="e" cx="2" cy="2" r="2" transform="translate(45.5 114.331)"/><circle class="e" cx="2" cy="2" r="2" transform="translate(127.5 114.331)"/></g></svg>