<svg xmlns="http://www.w3.org/2000/svg" xmlns:xlink="http://www.w3.org/1999/xlink" viewBox="0 0 160.602 118.563"><defs><style>.a{fill:none;stroke-linecap:round;}.a,.b,.c{stroke:#00b3ef;stroke-miterlimit:10;}.b{fill:url(#a);}.c{fill:url(#b);}.d{fill:#fff;}.e{fill:#7ea5e3;}</style><linearGradient id="a" x1="0.863" y1="0.127" x2="0.5" y2="1" gradientUnits="objectBoundingBox"><stop offset="0" stop-color="#00b3ef" stop-opacity="0"/><stop offset="1" stop-color="#fff" stop-opacity="0.502"/></linearGradient><linearGradient id="b" x1="0.852" y1="0.154" xlink:href="#a"/></defs><g transform="translate(0 2.962)"><g transform="translate(0 -952.362)"><path class="a" d="M46.6,979.5a.215.215,0,0,0-.2-.2l-9.3-14.8m86-.1-9.3,14.8m12.9,21.4L105,995.2l-7.1-5.4a1.431,1.431,0,0,0-1.1-.3H63.1c-.3.1-.5.2-.8.3l-7.1,5.4-21.7,5.4h-.1m21.8,58.9.6-.3c3.8-3.5,14.4-6.6,24.3-6.6s20.5,3.1,24.3,6.6a2.093,2.093,0,0,0,.6.4h.1m-36.4-55.3a1.856,1.856,0,0,0,.3,3.7H91.2a1.851,1.851,0,0,0,.1-3.7H68.7Zm11.5-51.9v24"/></g><path class="b" d="M-20262.1-15688.16a33.182,33.182,0,0,1-13-2.625,33.29,33.29,0,0,1-10.617-7.158,33.321,33.321,0,0,1-7.158-10.618,33.189,33.189,0,0,1-2.625-13,33.175,33.175,0,0,1,2.625-13,33.316,33.316,0,0,1,7.158-10.617,33.309,33.309,0,0,1,10.617-7.157,33.182,33.182,0,0,1,13-2.625,33.163,33.163,0,0,1,13,2.625,33.277,33.277,0,0,1,10.617,7.157,33.316,33.316,0,0,1,7.158,10.617,33.175,33.175,0,0,1,2.625,13,33.189,33.189,0,0,1-2.625,13,33.321,33.321,0,0,1-7.158,10.618,33.285,33.285,0,0,1-10.617,7.158A33.163,33.163,0,0,1-20262.1-15688.16Zm0-50.1a16.716,16.716,0,0,0-16.7,16.7,16.718,16.718,0,0,0,16.7,16.7,16.72,16.72,0,0,0,16.7-16.7A16.718,16.718,0,0,0-20262.1-15738.26Z" transform="translate(20296 15803.262)"/><path class="c" d="M-20262.1-15688.16a33.182,33.182,0,0,1-13-2.625,33.29,33.29,0,0,1-10.617-7.158,33.321,33.321,0,0,1-7.158-10.618,33.189,33.189,0,0,1-2.625-13,33.175,33.175,0,0,1,2.625-13,33.316,33.316,0,0,1,7.158-10.617,33.309,33.309,0,0,1,10.617-7.157,33.182,33.182,0,0,1,13-2.625,33.163,33.163,0,0,1,13,2.625,33.277,33.277,0,0,1,10.617,7.157,33.316,33.316,0,0,1,7.158,10.617,33.175,33.175,0,0,1,2.625,13,33.189,33.189,0,0,1-2.625,13,33.321,33.321,0,0,1-7.158,10.618,33.285,33.285,0,0,1-10.617,7.158A33.163,33.163,0,0,1-20262.1-15688.16Zm0-50.1a16.716,16.716,0,0,0-16.7,16.7,16.718,16.718,0,0,0,16.7,16.7,16.72,16.72,0,0,0,16.7-16.7A16.718,16.718,0,0,0-20262.1-15738.26Z" transform="translate(20388.801 15803.262)"/><circle class="d" cx="2" cy="2" r="2" transform="translate(54.5 104.038)"/><circle class="d" cx="2" cy="2" r="2" transform="translate(101.5 104.038)"/><circle class="e" cx="2" cy="2" r="2" transform="translate(111.5 25.038)"/><circle class="e" cx="2" cy="2" r="2" transform="translate(44.5 25.038)"/><circle class="e" cx="2" cy="2" r="2" transform="translate(35.5 10.038)"/><circle class="e" cx="2" cy="2" r="2" transform="translate(78.5 -2.962)"/><circle class="e" cx="2" cy="2" r="2" transform="translate(121.5 10.038)"/><circle class="e" cx="2" cy="2" r="2" transform="translate(78.5 23.038)"/><circle class="d" cx="2" cy="2" r="2" transform="translate(102.5 41.038)"/><circle class="d" cx="2" cy="2" r="2" transform="translate(95.5 35.038)"/><circle class="d" cx="2" cy="2" r="2" transform="translate(60.5 35.038)"/><circle class="d" cx="2" cy="2" r="2" transform="translate(53.5 41.038)"/></g></svg>