<svg xmlns="http://www.w3.org/2000/svg" xmlns:xlink="http://www.w3.org/1999/xlink" viewBox="0 0 122 121.999"><defs><style>.a{stroke:#00b3ef;fill:url(#a);}.a,.b{stroke-miterlimit:10;}.b{fill:none;stroke:#0385e2;}.c{fill:#7ea5e3;}.d{fill:#fff;}</style><linearGradient id="a" x1="0.5" x2="0.5" y2="1" gradientUnits="objectBoundingBox"><stop offset="0" stop-color="#00b3ef" stop-opacity="0"/><stop offset="1" stop-color="#fff" stop-opacity="0.502"/></linearGradient></defs><g transform="translate(6.8 6.6)"><path class="a" d="M67,65.7c0,2.4-1.1,4.5-2.1,6.6a25.3,25.3,0,0,0-1.5,3.6H52.2a12.634,12.634,0,0,0-2.6-6.7A29.362,29.362,0,0,1,46.5,63l-.1-.1c-.5-1.1-.9-2.4-1.4-3.6a27.837,27.837,0,0,0-1.2-2.6c-1-1.9-2.7-5-1.6-5.9a1.777,1.777,0,0,1,1-.4c1.3,0,3.1,2.2,3.7,4A1.937,1.937,0,0,0,48.8,56h.8l.5-.6a1.8,1.8,0,0,0,.5-1.6V34.3a1.347,1.347,0,0,1,1.3-1.4,1.367,1.367,0,0,1,1.4,1.4v16l2.5-1a1.634,1.634,0,0,1,2.1,1l.5,2.2,2.1-.9a1.555,1.555,0,0,1,2,.7l.6,2.1,1.9-.9a1.469,1.469,0,0,1,2.2,1.1Z"/><path class="a" d="M61,.5a12,12,0,1,1-12,12A11.95,11.95,0,0,1,61,.5Z" transform="translate(-6.599 -6.599)"/><path class="b" d="M61,121.5a12,12,0,1,1,12-12A11.95,11.95,0,0,1,61,121.5Z" transform="translate(-6.6 -6.6)"/><path class="b" d="M109.5,73a12,12,0,1,1,12-12A11.95,11.95,0,0,1,109.5,73Z" transform="translate(-6.8 -6.8)"/><path class="b" d="M12.5,73a12,12,0,1,1,12-12A11.95,11.95,0,0,1,12.5,73Z" transform="translate(-6.8 -6.8)"/><path class="b" d="M95.1,14.9a12,12,0,1,1-12,12A12.241,12.241,0,0,1,95.1,14.9Z" transform="translate(-6.6 -6.6)"/><path class="b" d="M26.9,107.1a12,12,0,1,1,12-12A12.094,12.094,0,0,1,26.9,107.1Z" transform="translate(-6.601 -6.601)"/><path class="b" d="M95.1,107.1a12,12,0,1,1,12-12A11.95,11.95,0,0,1,95.1,107.1Z" transform="translate(-6.6 -6.6)"/><path class="b" d="M26.9,38.9a12,12,0,1,1,12-12A12.242,12.242,0,0,1,26.9,38.9Z" transform="translate(-6.6 -6.6)"/><circle class="c" cx="2.4" cy="2.4" r="2.4" transform="translate(52.1 100.5)"/><circle class="c" cx="2.4" cy="2.4" r="2.4" transform="translate(18.1 86.2)"/><circle class="c" cx="2.4" cy="2.4" r="2.4" transform="translate(18.1 17.9)"/><circle class="c" cx="2.4" cy="2.4" r="2.4" transform="translate(86.1 86.2)"/><circle class="c" cx="2.4" cy="2.4" r="2.4" transform="translate(86.1 17.9)"/><circle class="c" cx="2.4" cy="2.4" r="2.4" transform="translate(100.7 52.2)"/><circle class="c" cx="2.4" cy="2.4" r="2.4" transform="translate(3.601 52.2)"/><circle class="d" cx="2.4" cy="2.4" r="2.4" transform="translate(52.1 3.5)"/><circle class="d" cx="2" cy="2" r="2" transform="translate(61.5 74.5)"/><circle class="d" cx="2" cy="2" r="2" transform="translate(47.5 54.5)"/><circle class="d" cx="2" cy="2" r="2" transform="translate(50.5 74.5)"/></g></svg>