<svg xmlns="http://www.w3.org/2000/svg" xmlns:xlink="http://www.w3.org/1999/xlink" viewBox="0 0 159 111"><defs><style>.a,.d{fill:none;}.a,.b,.d{stroke:#00b3ef;stroke-miterlimit:10;}.a,.c{opacity:0.5;}.b{fill:url(#a);}.e{fill:#fff;}.f{fill:#7ea5e3;}</style><linearGradient id="a" x1="0.5" x2="0.5" y2="1" gradientUnits="objectBoundingBox"><stop offset="0" stop-color="#00b3ef" stop-opacity="0"/><stop offset="1" stop-color="#fff" stop-opacity="0.502"/></linearGradient></defs><g transform="translate(1.5 1.5)"><path class="a" d="M100.5,26.8h55.3V87H129.5v20L101.3,87.3H68.8v-19"/><path class="b" d="M54,60,28,79.5V60H.5V.5H88.3V60Z"/><g class="c"><line class="d" x2="44.2" transform="translate(103.8 46.5)"/><line class="d" x2="39.7" transform="translate(108.3 57.3)"/><line class="d" x2="48.2" transform="translate(99.8 68)"/></g><line class="d" x2="61.5" transform="translate(8.5 17.5)"/><line class="d" x2="29.5" transform="translate(8.5 26.8)"/><line class="d" x2="54.8" transform="translate(8.5 36)"/><line class="d" x2="33.8" transform="translate(8.5 45.3)"/><circle class="e" cx="2" cy="2" r="2" transform="translate(86.5 57.5)"/><circle class="e" cx="2" cy="2" r="2" transform="translate(-1.5 57.5)"/><circle class="e" cx="2" cy="2" r="2" transform="translate(25.5 57.5)"/><circle class="e" cx="2" cy="2" r="2" transform="translate(52.5 57.5)"/><circle class="e" cx="2" cy="2" r="2" transform="translate(25.5 77.5)"/><circle class="e" cx="2" cy="2" r="2" transform="translate(86.5 -1.5)"/><circle class="e" cx="2" cy="2" r="2" transform="translate(-1.5 -1.5)"/><circle class="f" cx="2" cy="2" r="2" transform="translate(99.5 24.5)"/><circle class="f" cx="2" cy="2" r="2" transform="translate(153.5 24.5)"/><circle class="f" cx="2" cy="2" r="2" transform="translate(153.5 84.5)"/><circle class="f" cx="2" cy="2" r="2" transform="translate(127.5 84.5)"/><circle class="f" cx="2" cy="2" r="2" transform="translate(99.5 84.5)"/><circle class="f" cx="2" cy="2" r="2" transform="translate(66.5 84.5)"/><circle class="f" cx="2" cy="2" r="2" transform="translate(66.5 66.5)"/><circle class="f" cx="2" cy="2" r="2" transform="translate(127.5 105.5)"/></g></svg>