<svg xmlns="http://www.w3.org/2000/svg" xmlns:xlink="http://www.w3.org/1999/xlink" viewBox="0 0 139.5 111.5"><defs><style>.a,.b,.c{stroke:#00b3ef;stroke-miterlimit:10;}.a{fill:url(#a);}.b,.c{fill:none;}.c{opacity:0.5;}.d{fill:#fff;}.e{fill:#7ea5e3;}</style><linearGradient id="a" x1="0.257" y1="0.558" x2="0.033" y2="0.243" gradientUnits="objectBoundingBox"><stop offset="0" stop-color="#00b3ef" stop-opacity="0"/><stop offset="1" stop-color="#fff" stop-opacity="0.502"/></linearGradient></defs><g transform="translate(-914.5 -821.5)"><g transform="translate(914.5 821.5)"><path class="a" d="M36.7,55.1l4.5-3.5a1.6,1.6,0,0,1,1,.5,14.068,14.068,0,0,0,10.2,4.5c5.1,0,9.4-2.6,13-7.9,3.9-5.6,5.8-12.3,5.8-20.1,0-7.9-1.9-14.6-5.8-20.2a12.912,12.912,0,0,0-2.7-3.2V5.1A14.064,14.064,0,0,0,52.3.5c-5,0-9.4,2.6-13,7.9-.1.4-.5.6-1.1.6-9,.3-15.4,1.3-19.2,2.9A25.657,25.657,0,0,0,7,22.4C2.7,29.3.5,38.8.5,50.7A74.745,74.745,0,0,0,2.3,67.3c.3,1.4,3.2,13.9,9.9,20.2,7.7,7.3,18.3,8.6,22.4,6.8,4.9-1.8,5.1-4.2,5.1-6.9,0-2.4-2.5-4.3-5.5-5.1-2.7-.7-5.9,1.2-6.7,1.9a5.8,5.8,0,0,0-.9,1,11.441,11.441,0,0,0,4.6.9h.5a1.4,1.4,0,0,1,1.6,1.5,1.5,1.5,0,0,1-.4,1.1,1.656,1.656,0,0,1-1.2.5h-.5c-1.6,0-6.4-.6-9.3-3.6-2.7-2.8-3.7-7.9-3.7-10q0-1.2.3-4.5l.6-2.6M91.7,88.1l2,2.6a28.274,28.274,0,0,1,4.1,15.5l-.2,3.1h18q15.75-37.95,13.4-65l-.3-2.4a51.715,51.715,0,0,0-4.9-16.8Q108.35,2.45,67.1,5.3l-3.7.4m9,78.5a20.11,20.11,0,0,0,3.9,2.6l.1.1A21.233,21.233,0,0,0,85.8,89a23.549,23.549,0,0,0,5.1-.6,17.428,17.428,0,0,0,8.2-4.2M40.5,65.6C50.9,75.2,55.8,89.8,55,109.4H67.7l-.2-3.1a28.779,28.779,0,0,1,4.2-15.7c.1-.2.6-.8,1.5-2l2.3-2.3"/><path class="b" d="M36.9,55.1l3.6,10.6a30.917,30.917,0,0,1-13.8,3.1,61.416,61.416,0,0,1-16.4-2.3,121.044,121.044,0,0,0,16-3.8A23.4,23.4,0,0,0,36.9,55.1Z"/><path class="c" d="M128.7,41.9s7.1,3.8,8.1,10,.5,8.6.5,8.6"/></g><circle class="d" cx="2" cy="2" r="2" transform="translate(940 904)"/><circle class="d" cx="2" cy="2" r="2" transform="translate(922 886)"/><circle class="d" cx="2" cy="2" r="2" transform="translate(949 874)"/><circle class="d" cx="2" cy="2" r="2" transform="translate(952 885)"/><circle class="d" cx="2" cy="2" r="2" transform="translate(954 871)"/><circle class="d" cx="2" cy="2" r="2" transform="translate(951 829)"/><circle class="d" cx="2" cy="2" r="2" transform="translate(976 825)"/><circle class="d" cx="2" cy="2" r="2" transform="translate(967 929)"/><circle class="d" cx="2" cy="2" r="2" transform="translate(980 929)"/><circle class="d" cx="2" cy="2" r="2" transform="translate(984 904)"/><circle class="d" cx="2" cy="2" r="2" transform="translate(1011 904)"/><circle class="d" cx="2" cy="2" r="2" transform="translate(1004 908)"/><circle class="d" cx="2" cy="2" r="2" transform="translate(1010 929)"/><circle class="d" cx="2" cy="2" r="2" transform="translate(1028 929)"/><circle class="e" cx="2" cy="2" r="2" transform="translate(1050 880)"/><circle class="e" cx="2" cy="2" r="2" transform="translate(1041 862)"/></g></svg>