<svg xmlns="http://www.w3.org/2000/svg" xmlns:xlink="http://www.w3.org/1999/xlink" viewBox="0 0 126 103"><defs><style>.a,.b{stroke:#00b3ef;stroke-miterlimit:10;}.a{fill:url(#a);}.b{fill:none;}.c{fill:#fff;}.d{fill:#7ea5e3;}</style><linearGradient id="a" x1="0.43" y1="0.178" x2="0.86" y2="0.822" gradientUnits="objectBoundingBox"><stop offset="0" stop-color="#00b3ef" stop-opacity="0"/><stop offset="1" stop-color="#fff" stop-opacity="0.502"/></linearGradient></defs><g transform="translate(-476.5 -800)"><g transform="translate(478.051 802.348)"><path class="a" d="M121.159,61.977c-8.417-5.611-14.411-14.028-17.6-25.251C98.841,20.275,89.148,11.347,82.007,6.756A44.583,44.583,0,0,0,67.213.507a1.886,1.886,0,0,0-1.658.51L50.124,16.449,32.269,34.3h0L1.024,65.548a1.849,1.849,0,0,0,0,2.678,1.849,1.849,0,0,0,2.678,0l30.48-30.48c4.591,1.02,24.869,7.269,32.393,33.286,3.443,12.116,9.947,21.3,19.13,27.292a1.534,1.534,0,0,0,1.02.255,1.918,1.918,0,0,0,1.4-.51l33.413-33.158a1.752,1.752,0,0,0,.51-1.53A2.425,2.425,0,0,0,121.159,61.977Z" transform="translate(0)"/><line class="b" x1="36.091" y2="35.581" transform="translate(49.996 9.945)"/><line class="b" x1="36.091" y2="35.199" transform="translate(63.77 27.161)"/><line class="b" x1="35.964" y2="35.964" transform="translate(72.059 48.332)"/><path class="b" d="M93.523,76.543A48.93,48.93,0,0,1,74.266,50.271C69.547,33.82,59.854,24.892,52.713,20.3A43.674,43.674,0,0,0,42,15.2" transform="translate(11.439 4.054)"/><line class="b" y1="36.347" x2="35.964" transform="translate(34.182 1.4)"/><circle class="c" cx="2" cy="2" r="2" transform="translate(32.449 35.653)"/><circle class="c" cx="2" cy="2" r="2" transform="translate(47.449 43.653)"/><circle class="c" cx="2" cy="2" r="2" transform="translate(61.449 60.653)"/><circle class="c" cx="2" cy="2" r="2" transform="translate(69.449 82.653)"/><circle class="c" cx="2" cy="2" r="2" transform="translate(84.449 96.653)"/><circle class="c" cx="2" cy="2" r="2" transform="translate(103.449 78.653)"/><circle class="c" cx="2" cy="2" r="2" transform="translate(120.449 61.653)"/><circle class="c" cx="2" cy="2" r="2" transform="translate(106.449 45.653)"/><circle class="c" cx="2" cy="2" r="2" transform="translate(98.449 24.653)"/><circle class="c" cx="2" cy="2" r="2" transform="translate(84.449 7.653)"/><circle class="d" cx="2" cy="2" r="2" transform="translate(66.449 25.653)"/><circle class="d" cx="2" cy="2" r="2" transform="translate(79.449 42.653)"/><circle class="d" cx="2" cy="2" r="2" transform="translate(88.449 63.653)"/><circle class="d" cx="2" cy="2" r="2" transform="translate(51.449 16.653)"/><circle class="c" cx="2" cy="2" r="2" transform="translate(68.449 -0.347)"/><circle class="c" cx="2" cy="2" r="2" transform="translate(64.449 -2.347)"/><circle class="c" cx="2" cy="2" r="2" transform="translate(-1.551 63.653)"/><circle class="c" cx="2" cy="2" r="2" transform="translate(1.449 66.653)"/></g></g></svg>