<svg xmlns="http://www.w3.org/2000/svg" xmlns:xlink="http://www.w3.org/1999/xlink" viewBox="0 0 93.899 108"><defs><style>.a,.b,.c,.d{stroke:#00b3ef;}.a,.b,.d{stroke-miterlimit:10;}.a{fill:url(#a);}.b,.c,.d{fill:none;}.c,.d{opacity:0.5;}.e{fill:#fff;}.f{fill:#7ea5e3;}</style><linearGradient id="a" x1="0.859" y1="0.145" x2="0.143" y2="0.85" gradientUnits="objectBoundingBox"><stop offset="0" stop-color="#00b3ef" stop-opacity="0"/><stop offset="1" stop-color="#fff" stop-opacity="0.502"/></linearGradient></defs><g transform="translate(-477 -825)"><g transform="translate(478.6 826.6)"><path class="a" d="M42.7,3.1A38.35,38.35,0,1,1,4.4,41.5,38.389,38.389,0,0,1,42.7,3.1Z"/><path class="b" d="M42.7,11.9a28.148,28.148,0,0,1,6.5.7h.3"/><path class="b" d="M58,16.2A29,29,0,0,1,70.3,31.7"/><line class="b" x1="15.2" y2="15.3" transform="translate(0.4 68.6)"/><line class="b" x1="14.3" y2="14.2" transform="translate(69.6 0.4)"/><path class="c" d="M0,11.61C0,8.585,0,0,0,0" transform="translate(42.4 91.9)"/><path class="d" d="M6.5,77.9A50.342,50.342,0,0,0,39.6,91.6h3.1A50.6,50.6,0,0,0,91.8,41.1,49.979,49.979,0,0,0,78,6.5"/><path class="c" d="M24.068,104H60.455"/></g><circle class="e" cx="2" cy="2" r="2" transform="translate(492 893)"/><circle class="e" cx="2" cy="2" r="2" transform="translate(547 839)"/><circle class="e" cx="2" cy="2" r="2" transform="translate(560 825)"/><circle class="e" cx="2" cy="2" r="2" transform="translate(477 908)"/><circle class="e" cx="2" cy="2" r="2" transform="translate(547 856)"/><circle class="e" cx="2" cy="2" r="2" transform="translate(534 840)"/><circle class="e" cx="2" cy="2" r="2" transform="translate(527 837)"/><circle class="e" cx="2" cy="2" r="2" transform="translate(518 836)"/><circle class="f" cx="2" cy="2" r="2" transform="translate(519 916)"/><circle class="f" cx="2" cy="2" r="2" transform="translate(500 929)"/><circle class="f" cx="2" cy="2" r="2" transform="translate(536 929)"/><circle class="f" cx="2" cy="2" r="2" transform="translate(483 903)"/><circle class="f" cx="2" cy="2" r="2" transform="translate(554 831)"/></g></svg>