<svg xmlns="http://www.w3.org/2000/svg" xmlns:xlink="http://www.w3.org/1999/xlink" viewBox="0 0 105 100"><defs><style>.a,.b{fill:none;}.a,.b,.c{stroke:#00b3ef;stroke-miterlimit:10;}.a{opacity:0.5;}.c{fill:url(#a);}.d{fill:#fff;}.e{fill:#7ea5e3;}</style><linearGradient id="a" x1="0.5" x2="0.5" y2="1" gradientUnits="objectBoundingBox"><stop offset="0" stop-color="#00b3ef" stop-opacity="0"/><stop offset="1" stop-color="#fff" stop-opacity="0.502"/></linearGradient></defs><g transform="translate(-876.5 -803)"><g transform="translate(878.5 803.9)"><path class="a" d="M.5,64H32V97.4H.5ZM100,97.4H68.6V73.9H100Z"/><path class="a" d="M81.4,50.3a1.445,1.445,0,0,0,1-.7l2-4.1,2,4.1a1.265,1.265,0,0,0,1,.7l4.5.7-3.3,3.2a1.5,1.5,0,0,0-.4,1.1l.8,4.5-4-2.1a1.85,1.85,0,0,0-1.2,0l-4,2.1.8-4.5a1.19,1.19,0,0,0-.4-1.1L76.9,51Z"/><path class="a" d="M12.8,26.4a1.445,1.445,0,0,0,1-.7l2.6-5.2L19,25.7a1.265,1.265,0,0,0,1,.7l5.8.8-4.2,4.1a1.5,1.5,0,0,0-.4,1.1l1,5.8L17,35.5a1.268,1.268,0,0,0-.6-.1,1.268,1.268,0,0,0-.6.1l-5.2,2.7,1-5.8a1.19,1.19,0,0,0-.4-1.1L7,27.2Z"/><path class="b" d="M48.1,9.1a1.445,1.445,0,0,0,1-.7l3.6-7.3,3.6,7.3a1.265,1.265,0,0,0,1,.7l8,1.2L59.5,16a1.5,1.5,0,0,0-.4,1.1l1.4,8-7.2-3.8a1.275,1.275,0,0,0-1.2,0l-7.2,3.8,1.4-8a1.19,1.19,0,0,0-.4-1.1l-5.8-5.7Z"/><path class="c" d="M34.5,51.5V39.2H66V97.4H34.5Z"/><circle class="d" cx="2" cy="2" r="2" transform="translate(64.5 95.1)"/><circle class="d" cx="2" cy="2" r="2" transform="translate(64.5 37.1)"/><circle class="d" cx="2" cy="2" r="2" transform="translate(32.5 95.1)"/><circle class="d" cx="2" cy="2" r="2" transform="translate(32.5 37.1)"/><circle class="d" cx="2" cy="2" r="2" transform="translate(42.5 23.1)"/><circle class="d" cx="2" cy="2" r="2" transform="translate(58.5 23.1)"/><circle class="d" cx="2" cy="2" r="2" transform="translate(63.5 8.1)"/><circle class="d" cx="2" cy="2" r="2" transform="translate(50.5 -0.9)"/><circle class="d" cx="2" cy="2" r="2" transform="translate(37.5 8.1)"/><circle class="e" cx="2" cy="2" r="2" transform="translate(-2 95.1)"/><circle class="e" cx="2" cy="2" r="2" transform="translate(-2 62.1)"/><circle class="e" cx="2" cy="2" r="2" transform="translate(67 72.1)"/><circle class="e" cx="2" cy="2" r="2" transform="translate(30 62.1)"/><circle class="e" cx="2" cy="2" r="2" transform="translate(99 72.1)"/><circle class="e" cx="2" cy="2" r="2" transform="translate(99 95.1)"/><circle class="e" cx="2" cy="2" r="2" transform="translate(87 58.1)"/><circle class="e" cx="2" cy="2" r="2" transform="translate(78 58.1)"/><circle class="e" cx="2" cy="2" r="2" transform="translate(20 36.1)"/><circle class="e" cx="2" cy="2" r="2" transform="translate(24 25.1)"/><circle class="e" cx="2" cy="2" r="2" transform="translate(14 18.1)"/><circle class="e" cx="2" cy="2" r="2" transform="translate(4 25.1)"/><circle class="e" cx="2" cy="2" r="2" transform="translate(8 36.1)"/><circle class="e" cx="2" cy="2" r="2" transform="translate(74 49.1)"/><circle class="e" cx="2" cy="2" r="2" transform="translate(82 43.1)"/><circle class="e" cx="2" cy="2" r="2" transform="translate(90 49.1)"/></g></g></svg>