<svg width="803" height="617" viewBox="0 0 803 617" fill="none" xmlns="http://www.w3.org/2000/svg">
<path d="M423.399 97.4757V4.71152" stroke="white"/>
<path d="M526.804 4.43027H423.398V51.6155H526.804V4.43027Z" stroke="white"/>
<path d="M423.268 56.3641C425.37 56.3641 427.074 54.6602 427.074 52.5582C427.074 50.4562 425.37 48.7523 423.268 48.7523C421.166 48.7523 419.462 50.4562 419.462 52.5582C419.462 54.6602 421.166 56.3641 423.268 56.3641Z" fill="#FC8A23"/>
<path d="M526.674 56.3641C528.776 56.3641 530.48 54.6602 530.48 52.5582C530.48 50.4562 528.776 48.7523 526.674 48.7523C524.572 48.7523 522.868 50.4562 522.868 52.5582C522.868 54.6602 524.572 56.3641 526.674 56.3641Z" fill="#FC8A23"/>
<path d="M423.268 8.17487C425.37 8.17487 427.074 6.47089 427.074 4.36893C427.074 2.26697 425.37 0.562988 423.268 0.562988C421.166 0.562988 419.462 2.26697 419.462 4.36893C419.462 6.47089 421.166 8.17487 423.268 8.17487Z" fill="#FC8A23"/>
<path d="M526.674 8.17487C528.776 8.17487 530.48 6.47089 530.48 4.36893C530.48 2.26697 528.776 0.562988 526.674 0.562988C524.572 0.562988 522.868 2.26697 522.868 4.36893C522.868 6.47089 524.572 8.17487 526.674 8.17487Z" fill="#FC8A23"/>
<path d="M706.59 544.197L798.45 509.059L684.001 406.657L645.349 388.084L584.611 324.836L542.947 245.023L483.715 220.426L422.976 97.9453L327.602 181.774L286.942 189.304L209.227 309.608H126.082L58.1031 458.117L4.76538 498.905L62.8094 547.536L188.556 527.13L208.635 576.323L274.895 581.845H383.321L483.715 569.296L601.678 611.963L711.107 608.449L579.089 543.193L706.59 544.197Z" stroke="white"/>
<path d="M186.548 342.405L126.582 309.608L232.228 425.732M186.548 342.405L208.635 309.608M186.548 342.405L319.068 315.298M186.548 342.405L232.228 425.732M208.635 309.608L319.068 315.298M208.635 309.608L362.74 280.16M319.068 315.298L362.74 280.16M319.068 315.298L232.228 425.732M319.068 315.298L469.66 411.677M362.74 280.16L285.938 190.308M362.74 280.16L328.606 181.774M362.74 280.16L422.976 98.949M362.74 280.16L484.719 219.924L469.66 411.677M362.74 280.16L469.66 411.677M232.228 425.732L186.548 528.134M232.228 425.732L63.3322 548.059L58.626 458.64C110.046 449.576 216.755 430.305 232.228 425.732ZM232.228 425.732L469.66 411.677M232.228 425.732L208.635 575.319M232.228 425.732L275.899 581.845M469.66 411.677L275.899 581.845M469.66 411.677L584.611 324.836L706.59 544.197M469.66 411.677L543.951 247.03M469.66 411.677L706.59 544.197M469.66 411.677L484.719 569.295M469.66 411.677L577.081 544.197M469.66 411.677L452.593 476.933M275.899 581.845L452.593 476.933M706.59 544.197L685.005 406.155M706.59 544.197L645.349 388.084M484.719 569.295L577.081 544.197M484.719 569.295L452.593 476.933M577.081 544.197L603.686 611.963M452.593 476.933L384.927 581.845" stroke="#80c6ff"/>
<path d="M423.268 101.541C425.37 101.541 427.074 99.8374 427.074 97.7354C427.074 95.6335 425.37 93.9295 423.268 93.9295C421.166 93.9295 419.462 95.6335 419.462 97.7354C419.462 99.8374 421.166 101.541 423.268 101.541Z" fill="#FC8A23"/>
<path d="M328.898 184.868C331 184.868 332.704 183.164 332.704 181.062C332.704 178.96 331 177.257 328.898 177.257C326.796 177.257 325.092 178.96 325.092 181.062C325.092 183.164 326.796 184.868 328.898 184.868Z" fill="#FC8A23"/>
<path d="M286.732 193.904C288.834 193.904 290.538 192.2 290.538 190.098C290.538 187.996 288.834 186.292 286.732 186.292C284.63 186.292 282.927 187.996 282.927 190.098C282.927 192.2 284.63 193.904 286.732 193.904Z" fill="#FC8A23"/>
<path d="M208.326 311.468C210.428 311.468 212.132 309.764 212.132 307.662C212.132 305.56 210.428 303.856 208.326 303.856C206.224 303.856 204.521 305.56 204.521 307.662C204.521 309.764 206.224 311.468 208.326 311.468Z" fill="#FC8A23"/>
<path d="M127.388 314.175C129.49 314.175 131.194 312.471 131.194 310.369C131.194 308.267 129.49 306.563 127.388 306.563C125.286 306.563 123.582 308.267 123.582 310.369C123.582 312.471 125.286 314.175 127.388 314.175Z" fill="#FC8A23"/>
<path d="M58.7715 461.023C60.8735 461.023 62.5775 459.319 62.5775 457.217C62.5775 455.115 60.8735 453.411 58.7715 453.411C56.6696 453.411 54.9656 455.115 54.9656 457.217C54.9656 459.319 56.6696 461.023 58.7715 461.023Z" fill="#FC8A23"/>
<path d="M4.38797 502.856C6.48993 502.856 8.19391 501.152 8.19391 499.05C8.19391 496.948 6.48993 495.244 4.38797 495.244C2.28601 495.244 0.582031 496.948 0.582031 499.05C0.582031 501.152 2.28601 502.856 4.38797 502.856Z" fill="#FC8A23"/>
<path d="M484.509 224.022C486.611 224.022 488.315 222.318 488.315 220.216C488.315 218.114 486.611 216.41 484.509 216.41C482.407 216.41 480.703 218.114 480.703 220.216C480.703 222.318 482.407 224.022 484.509 224.022Z" fill="#FC8A23"/>
<path d="M543.741 249.121C545.843 249.121 547.547 247.417 547.547 245.315C547.547 243.213 545.843 241.509 543.741 241.509C541.64 241.509 539.936 243.213 539.936 245.315C539.936 247.417 541.64 249.121 543.741 249.121Z" fill="#FC8A23"/>
<path d="M584.903 328.432C587.005 328.432 588.709 326.728 588.709 324.626C588.709 322.524 587.005 320.82 584.903 320.82C582.801 320.82 581.097 322.524 581.097 324.626C581.097 326.728 582.801 328.432 584.903 328.432Z" fill="#FC8A23"/>
<path d="M646.143 391.68C648.245 391.68 649.949 389.976 649.949 387.874C649.949 385.772 648.245 384.068 646.143 384.068C644.041 384.068 642.337 385.772 642.337 387.874C642.337 389.976 644.041 391.68 646.143 391.68Z" fill="#FC8A23"/>
<path d="M686.301 410.755C688.403 410.755 690.107 409.051 690.107 406.949C690.107 404.848 688.403 403.144 686.301 403.144C684.199 403.144 682.495 404.848 682.495 406.949C682.495 409.051 684.199 410.755 686.301 410.755Z" fill="#FC8A23"/>
<path d="M798.742 512.153C800.844 512.153 802.548 510.449 802.548 508.347C802.548 506.246 800.844 504.542 798.742 504.542C796.641 504.542 794.937 506.246 794.937 508.347C794.937 510.449 796.641 512.153 798.742 512.153Z" fill="#FC8A23"/>
<path d="M363.032 283.255C365.134 283.255 366.838 281.551 366.838 279.449C366.838 277.347 365.134 275.643 363.032 275.643C360.93 275.643 359.226 277.347 359.226 279.449C359.226 281.551 360.93 283.255 363.032 283.255Z" fill="#ffffff"/>
<path d="M318.859 318.393C320.961 318.393 322.665 316.689 322.665 314.587C322.665 312.485 320.961 310.781 318.859 310.781C316.757 310.781 315.053 312.485 315.053 314.587C315.053 316.689 316.757 318.393 318.859 318.393Z" fill="#ffffff"/>
<path d="M469.45 415.775C471.552 415.775 473.256 414.071 473.256 411.969C473.256 409.867 471.552 408.163 469.45 408.163C467.348 408.163 465.644 409.867 465.644 411.969C465.644 414.071 467.348 415.775 469.45 415.775Z" fill="#ffffff"/>
<path d="M186.338 346.503C188.44 346.503 190.144 344.799 190.144 342.697C190.144 340.595 188.44 338.891 186.338 338.891C184.236 338.891 182.532 340.595 182.532 342.697C182.532 344.799 184.236 346.503 186.338 346.503Z" fill="#ffffff"/>
<path d="M231.516 429.83C233.618 429.83 235.322 428.126 235.322 426.024C235.322 423.922 233.618 422.218 231.516 422.218C229.414 422.218 227.71 423.922 227.71 426.024C227.71 428.126 229.414 429.83 231.516 429.83Z" fill="#ffffff"/>
<path d="M452.383 481.031C454.485 481.031 456.189 479.327 456.189 477.225C456.189 475.123 454.485 473.419 452.383 473.419C450.281 473.419 448.577 475.123 448.577 477.225C448.577 479.327 450.281 481.031 452.383 481.031Z" fill="#ffffff"/>
<path d="M484.509 573.393C486.611 573.393 488.315 571.689 488.315 569.587C488.315 567.486 486.611 565.782 484.509 565.782C482.407 565.782 480.703 567.486 480.703 569.587C480.703 571.689 482.407 573.393 484.509 573.393Z" fill="#ffffff"/>
<path d="M578.879 547.291C580.981 547.291 582.685 545.587 582.685 543.486C582.685 541.384 580.981 539.68 578.879 539.68C576.777 539.68 575.073 541.384 575.073 543.486C575.073 545.587 576.777 547.291 578.879 547.291Z" fill="#ffffff"/>
<path d="M603.978 616.563C606.08 616.563 607.784 614.859 607.784 612.757C607.784 610.655 606.08 608.951 603.978 608.951C601.876 608.951 600.172 610.655 600.172 612.757C600.172 614.859 601.876 616.563 603.978 616.563Z" fill="#ffffff"/>
<path d="M706.38 547.291C708.482 547.291 710.186 545.587 710.186 543.486C710.186 541.384 708.482 539.68 706.38 539.68C704.278 539.68 702.574 541.384 702.574 543.486C702.574 545.587 704.278 547.291 706.38 547.291Z" fill="#ffffff"/>
<path d="M710.396 611.543C712.498 611.543 714.201 609.839 714.201 607.738C714.201 605.636 712.498 603.932 710.396 603.932C708.294 603.932 706.59 605.636 706.59 607.738C706.59 609.839 708.294 611.543 710.396 611.543Z" fill="#ffffff"/>
<path d="M384.115 585.441C386.217 585.441 387.921 583.737 387.921 581.635C387.921 579.533 386.217 577.829 384.115 577.829C382.013 577.829 380.309 579.533 380.309 581.635C380.309 583.737 382.013 585.441 384.115 585.441Z" fill="#ffffff"/>
<path d="M276.693 585.441C278.795 585.441 280.499 583.737 280.499 581.635C280.499 579.533 278.795 577.829 276.693 577.829C274.591 577.829 272.887 579.533 272.887 581.635C272.887 583.737 274.591 585.441 276.693 585.441Z" fill="#ffffff"/>
<path d="M208.425 579.417C210.527 579.417 212.231 577.713 212.231 575.611C212.231 573.51 210.527 571.806 208.425 571.806C206.323 571.806 204.619 573.51 204.619 575.611C204.619 577.713 206.323 579.417 208.425 579.417Z" fill="#ffffff"/>
<path d="M186.338 531.228C188.44 531.228 190.144 529.524 190.144 527.422C190.144 525.32 188.44 523.616 186.338 523.616C184.236 523.616 182.532 525.32 182.532 527.422C182.532 529.524 184.236 531.228 186.338 531.228Z" fill="#ffffff"/>
<path d="M62.9549 550.965C65.0568 550.965 66.7608 549.261 66.7608 547.159C66.7608 545.057 65.0568 543.353 62.9549 543.353C60.8529 543.353 59.1489 545.057 59.1489 547.159C59.1489 549.261 60.8529 550.965 62.9549 550.965Z" fill="#ffffff"/>
</svg>
