<svg xmlns="http://www.w3.org/2000/svg" xmlns:xlink="http://www.w3.org/1999/xlink" viewBox="0 0 149 84"><defs><style>.a,.b,.c,.d,.e{stroke:#00b3ef;}.a,.b,.d,.e{stroke-miterlimit:10;}.a{fill:url(#a);}.b{fill:url(#b);}.c,.d,.e{fill:none;}.c,.d,.f{opacity:0.5;}.g{fill:#7ea5e3;}.h{fill:#fff;}</style><linearGradient id="a" x1="2.62" y1="0.519" x2="-0.396" y2="0.5" gradientUnits="objectBoundingBox"><stop offset="0" stop-color="#00b3ef" stop-opacity="0"/><stop offset="1" stop-color="#fff" stop-opacity="0.502"/></linearGradient><linearGradient id="b" x1="1" y1="0.535" x2="0" y2="0.5" xlink:href="#a"/></defs><g transform="translate(-913 -849)"><g transform="translate(915 850.082)"><g transform="translate(52.267 0.5)"><rect class="a" width="13.53" height="61.77" transform="translate(0 9.664)"/><path class="b" d="M89.2,65.457h6.2a98.152,98.152,0,0,0,29.4-4.429l16.188-4.993,3.866-1.208,17.4-5.181V41.483l-17.4-4.052-3.866-1.208L124.8,31.229A100.782,100.782,0,0,0,95.4,26.8H89.2m5.476,27.06V38.4h11.6a7.731,7.731,0,0,1,0,15.463Z" transform="translate(-69.63 -5.619)"/><path class="c" d="M0,0V8.054" transform="translate(73.448 49.69)"/><line class="d" y2="8.215" transform="translate(73.448 23.033)"/><path class="d" d="M74.4,10.325V.5H97.594V15.963H86.078V66.136H97.594V81.518H74.4V71.693" transform="translate(-66.749 -0.5)"/><line class="e" x1="5.799" transform="translate(13.53 65.556)"/><line class="e" x1="5.718" transform="translate(13.61 15.463)"/></g><path class="d" d="M150.564,72H140.9V85.047h23.114V72H150.564Z" transform="translate(-27.426 -13.917)"/><path class="d" d="M154.43,25.747h9.584V12.7H140.9V25.747h13.53Z" transform="translate(-27.426 -2.375)"/><g class="f"><line class="e" x2="30.603" transform="translate(16.268 28.365)"/><line class="e" x2="21.1" transform="translate(25.771 38.835)"/><line class="e" x2="12.322" transform="translate(0 38.835)"/><line class="e" x2="27.301" transform="translate(19.57 49.304)"/></g></g><circle class="g" cx="2" cy="2" r="2" transform="translate(1027 872)"/><circle class="g" cx="2" cy="2" r="2" transform="translate(1027 920)"/><circle class="g" cx="2" cy="2" r="2" transform="translate(1027 858)"/><circle class="g" cx="2" cy="2" r="2" transform="translate(1027 906)"/><circle class="g" cx="2" cy="2" r="2" transform="translate(1049 858)"/><circle class="g" cx="2" cy="2" r="2" transform="translate(1049 906)"/><circle class="g" cx="2" cy="2" r="2" transform="translate(1049 872)"/><circle class="g" cx="2" cy="2" r="2" transform="translate(1049 920)"/><circle class="h" cx="2" cy="2" r="2" transform="translate(1058 870)"/><circle class="h" cx="2" cy="2" r="2" transform="translate(1058 908)"/><circle class="h" cx="2" cy="2" r="2" transform="translate(1058 893)"/><circle class="h" cx="2" cy="2" r="2" transform="translate(1058 884)"/><circle class="h" cx="2" cy="2" r="2" transform="translate(990 881)"/><circle class="h" cx="2" cy="2" r="2" transform="translate(990 897)"/><circle class="g" cx="2" cy="2" r="2" transform="translate(1038.5 871)"/><circle class="g" cx="2" cy="2" r="2" transform="translate(1038.5 906)"/><circle class="h" cx="2" cy="2" r="2" transform="translate(965 920)"/><circle class="h" cx="2" cy="2" r="2" transform="translate(965 858)"/><circle class="g" cx="2" cy="2" r="2" transform="translate(959 876)"/><circle class="g" cx="2" cy="2" r="2" transform="translate(929 876)"/><circle class="g" cx="2" cy="2" r="2" transform="translate(959 887)"/><circle class="g" cx="2" cy="2" r="2" transform="translate(940 887)"/><circle class="g" cx="2" cy="2" r="2" transform="translate(926 887)"/><circle class="g" cx="2" cy="2" r="2" transform="translate(913 887)"/><circle class="g" cx="2" cy="2" r="2" transform="translate(959 897)"/><circle class="g" cx="2" cy="2" r="2" transform="translate(933 897)"/><circle class="h" cx="2" cy="2" r="2" transform="translate(979 858)"/><circle class="g" cx="2" cy="2" r="2" transform="translate(985 914)"/><circle class="g" cx="2" cy="2" r="2" transform="translate(985 864)"/><circle class="g" cx="2" cy="2" r="2" transform="translate(996 914)"/><circle class="g" cx="2" cy="2" r="2" transform="translate(996 864)"/><circle class="g" cx="2" cy="2" r="2" transform="translate(996 929)"/><circle class="g" cx="2" cy="2" r="2" transform="translate(996 849)"/><circle class="g" cx="2" cy="2" r="2" transform="translate(973 929)"/><circle class="g" cx="2" cy="2" r="2" transform="translate(973 849)"/><circle class="h" cx="2" cy="2" r="2" transform="translate(979 920)"/></g></svg>