<svg xmlns="http://www.w3.org/2000/svg" xmlns:xlink="http://www.w3.org/1999/xlink" viewBox="0 0 115.975 116.049"><defs><style>.a,.b,.c,.d,.e{stroke:#00b3ef;stroke-linecap:round;stroke-linejoin:round;stroke-miterlimit:10;}.a{fill:url(#a);}.b{fill:#074ad2;}.c{fill:#0649d1;}.d{fill:#064ad2;}.e{fill:none;opacity:0.5;}.f{fill:#7ea5e3;}.g{fill:#fff;}</style><linearGradient id="a" x1="0.811" y1="0.105" x2="0.163" y2="0.883" gradientUnits="objectBoundingBox"><stop offset="0" stop-color="#00b3ef" stop-opacity="0"/><stop offset="1" stop-color="#fff" stop-opacity="0.502"/></linearGradient></defs><g transform="translate(-0.025 0.074)"><path class="a" d="M98.7,17.3a57.488,57.488,0,1,0,0,81.3A57.4,57.4,0,0,0,98.7,17.3ZM34.2,81.8a33.694,33.694,0,1,1,47.7.1A33.558,33.558,0,0,1,34.2,81.8Z"/><path class="b" d="M88,73.3a31.983,31.983,0,0,1-6.2,8.5A35.537,35.537,0,0,1,73.3,88l13,20a57.068,57.068,0,0,0,21.8-21.8Z"/><path class="c" d="M73.3,28a31.983,31.983,0,0,1,8.5,6.2A35.537,35.537,0,0,1,88,42.7l20-13A57.068,57.068,0,0,0,86.2,7.9Z"/><path class="d" d="M28,42.7a31.983,31.983,0,0,1,6.2-8.5A35.537,35.537,0,0,1,42.7,28L29.7,8A57.068,57.068,0,0,0,7.9,29.8Z"/><path class="d" d="M42.7,88a31.983,31.983,0,0,1-8.5-6.2A35.537,35.537,0,0,1,28,73.3L8,86.3a57.068,57.068,0,0,0,21.8,21.8Z"/><path class="e" d="M113.5,43V32.5a29.96,29.96,0,0,0-30-30H73A57.514,57.514,0,0,1,113.5,43Z"/><path class="e" d="M43,2.5H32.5a29.96,29.96,0,0,0-30,30V43A57.514,57.514,0,0,1,43,2.5Z"/><path class="e" d="M73,113.5H83.5a29.96,29.96,0,0,0,30-30V73A57.514,57.514,0,0,1,73,113.5Z"/><path class="e" d="M2.5,73V83.5a29.96,29.96,0,0,0,30,30H43A57.514,57.514,0,0,1,2.5,73Z"/><circle class="f" cx="2" cy="2" r="2" transform="translate(72.525 0.426)"/><circle class="f" cx="2" cy="2" r="2" transform="translate(111.525 39.426)"/><circle class="f" cx="2" cy="2" r="2" transform="translate(110.525 72.426)"/><circle class="f" cx="2" cy="2" r="2" transform="translate(38.525 111.426)"/><circle class="f" cx="2" cy="2" r="2" transform="translate(0.525 72.426)"/><circle class="f" cx="2" cy="2" r="2" transform="translate(0.525 39.426)"/><circle class="f" cx="2" cy="2" r="2" transform="translate(40.525 0.426)"/><circle class="g" cx="2" cy="2" r="2" transform="translate(40.525 26.426)"/><circle class="g" cx="2" cy="2" r="2" transform="translate(25.525 40.426)"/><circle class="g" cx="2" cy="2" r="2" transform="translate(86.525 40.426)"/><circle class="g" cx="2" cy="2" r="2" transform="translate(25.525 71.426)"/><circle class="g" cx="2" cy="2" r="2" transform="translate(86.525 71.426)"/><circle class="g" cx="2" cy="2" r="2" transform="translate(40.525 86.426)"/><circle class="g" cx="2" cy="2" r="2" transform="translate(71.525 26.426)"/><circle class="g" cx="2" cy="2" r="2" transform="translate(71.525 86.426)"/></g></svg>