<svg xmlns="http://www.w3.org/2000/svg" xmlns:xlink="http://www.w3.org/1999/xlink" viewBox="0 0 106 106"><defs><style>.a,.b,.c{stroke:#00b3ef;stroke-miterlimit:10;}.a{fill:url(#a);}.b,.c{fill:none;}.c{opacity:0.5;}.d{fill:#7ea5e3;}.e{fill:#fff;}</style><linearGradient id="a" x1="1.264" y1="-0.482" x2="0" y2="1" gradientUnits="objectBoundingBox"><stop offset="0" stop-color="#00b3ef" stop-opacity="0"/><stop offset="1" stop-color="#fff" stop-opacity="0.502"/></linearGradient></defs><g transform="translate(2 1.773)"><rect class="a" width="63.862" height="46.342" transform="translate(38.43 16.042)"/><path class="b" d="M104.756,17,73.673,38.664,40.8,17" transform="translate(-2.37 -0.958)"/><path class="c" d="M62.2,62.666v39.56H.5V.5H62.2V15.571" transform="translate(-0.029)"/><line class="c" x2="62.355" transform="translate(0 74.723)"/><line class="c" x2="18.367" transform="translate(22.418 88.569)"/><circle class="d" cx="2" cy="2" r="2" transform="translate(-2 100.227)"/><circle class="d" cx="2" cy="2" r="2" transform="translate(-2 -1.773)"/><circle class="d" cx="2" cy="2" r="2" transform="translate(20 86.227)"/><circle class="d" cx="2" cy="2" r="2" transform="translate(39 86.227)"/><circle class="d" cx="2" cy="2" r="2" transform="translate(60 72.227)"/><circle class="d" cx="2" cy="2" r="2" transform="translate(-2 72.227)"/><circle class="e" cx="2" cy="2" r="2" transform="translate(36 60.227)"/><circle class="e" cx="2" cy="2" r="2" transform="translate(36 14.227)"/><circle class="e" cx="2" cy="2" r="2" transform="translate(100 60.227)"/><circle class="e" cx="2" cy="2" r="2" transform="translate(69 35.227)"/><circle class="e" cx="2" cy="2" r="2" transform="translate(100 14.227)"/><circle class="d" cx="2" cy="2" r="2" transform="translate(60 100.227)"/><circle class="d" cx="2" cy="2" r="2" transform="translate(60 -1.773)"/></g></svg>