<svg xmlns="http://www.w3.org/2000/svg" xmlns:xlink="http://www.w3.org/1999/xlink" viewBox="0 0 107 119"><defs><style>.a{fill:none;opacity:0.5;}.a,.b{stroke:#00b3ef;stroke-miterlimit:10;}.b{fill:url(#a);}.c{fill:#7ea5e3;}.d{fill:#fff;}</style><linearGradient id="a" x1="-0.827" y1="2.299" x2="1.193" y2="2.528" gradientUnits="objectBoundingBox"><stop offset="0" stop-color="#fff" stop-opacity="0.502"/><stop offset="1" stop-color="#00b3ef" stop-opacity="0"/></linearGradient></defs><g transform="translate(1.5 1.3)"><path class="a" d="M55.392,95.716A39.813,39.813,0,0,1,20.8,75.9" transform="translate(2.952 10.935)"/><path class="a" d="M91.2,58.1A40.33,40.33,0,0,1,51,98.3" transform="translate(7.344 8.347)"/><path class="a" d="M65.3,26A40.142,40.142,0,0,1,89.125,62.768" transform="translate(9.423 3.679)"/><path class="a" d="M67.723,21.2A10.1,10.1,0,0,1,57.3,31.852" transform="translate(8.26 2.981)"/><path class="a" d="M58.013,32.507A10.1,10.1,0,0,1,52.4,30.789L67.061,16.7a11.894,11.894,0,0,1,1.375,5.04" transform="translate(7.547 2.327)"/><path class="a" d="M66.06,1.387A2.565,2.565,0,0,1,68.007.7a2.823,2.823,0,0,1,1.947.916L72.7,4.594a2.518,2.518,0,0,1-.229,3.78l-1.26,1.26L64.8,2.876Z" transform="translate(9.35)"/><path class="b" d="M22.94,54.174,17.9,48.905,20.534,46.5l5.04,5.154Z" transform="translate(2.53 6.66)"/><rect class="b" width="71.703" height="14.89" transform="matrix(0.724, -0.689, 0.689, 0.724, 20.273, 50.166)"/><rect class="b" width="38.601" height="5.956" transform="translate(2.333 80.994)"/><rect class="b" width="103.202" height="9.049" transform="translate(0.5 106.651)"/><circle class="c" cx="2" cy="2" r="2" transform="translate(72.5 27.7)"/><circle class="c" cx="2" cy="2" r="2" transform="translate(57.5 31.7)"/><circle class="c" cx="2" cy="2" r="2" transform="translate(21.5 84.7)"/><circle class="c" cx="2" cy="2" r="2" transform="translate(56.5 104.7)"/><circle class="d" cx="2" cy="2" r="2" transform="translate(28.5 58.7)"/><circle class="d" cx="2" cy="2" r="2" transform="translate(18.5 47.7)"/><circle class="d" cx="2" cy="2" r="2" transform="translate(70.5 -1.3)"/><circle class="d" cx="2" cy="2" r="2" transform="translate(80.5 9.7)"/><circle class="d" cx="2" cy="2" r="2" transform="translate(101.5 104.7)"/><circle class="d" cx="2" cy="2" r="2" transform="translate(-1.5 104.7)"/><circle class="d" cx="2" cy="2" r="2" transform="translate(0.5 78.7)"/><circle class="d" cx="2" cy="2" r="2" transform="translate(38.5 78.7)"/><circle class="d" cx="2" cy="2" r="2" transform="translate(101.5 113.7)"/><circle class="d" cx="2" cy="2" r="2" transform="translate(-1.5 113.7)"/><circle class="d" cx="2" cy="2" r="2" transform="translate(0.5 84.7)"/><circle class="d" cx="2" cy="2" r="2" transform="translate(38.5 84.7)"/><circle class="c" cx="2" cy="2" r="2" transform="translate(72.5 16.7)"/></g></svg>