<svg xmlns="http://www.w3.org/2000/svg" xmlns:xlink="http://www.w3.org/1999/xlink" viewBox="0 0 139.197 108.809"><defs><style>.a,.b{stroke:#00b3ef;stroke-miterlimit:10;}.a{fill:url(#a);}.b{fill:none;opacity:0.5;}.c{fill:#7ea5e3;}.d{fill:#fff;}</style><linearGradient id="a" x1="0.639" y1="0.07" x2="0.203" y2="1.129" gradientUnits="objectBoundingBox"><stop offset="0" stop-color="#00b3ef" stop-opacity="0"/><stop offset="1" stop-color="#fff" stop-opacity="0.502"/></linearGradient></defs><g transform="translate(0 0.008)"><path class="a" d="M-19820.8-15994.8a20.785,20.785,0,0,1-17.5-9.3l-.6-.9-1.1.3a8.676,8.676,0,0,1-1.93.213,9.723,9.723,0,0,1-4.672-1.216l-.7-.4-.7.3a17.573,17.573,0,0,1-6.8,1.7l-.266,0a16.391,16.391,0,0,1-14.734-8.9l-.6-1.3-1.4.5a21.366,21.366,0,0,1-6.7,1.1,19.449,19.449,0,0,1-13.437-5.274,17.289,17.289,0,0,1-5.562-12.628,17.266,17.266,0,0,1,3.863-10.838,18.991,18.991,0,0,1,4.363-4,19.758,19.758,0,0,1,5.574-2.562l1.4-.4-.2-1.4a8.108,8.108,0,0,1,1.8-6.9,9.175,9.175,0,0,1,6.928-3.12,9.2,9.2,0,0,1,2.77.424l1.2.4.7-1a13.531,13.531,0,0,1,5.211-4.751,15.252,15.252,0,0,1,7.084-1.751,14.944,14.944,0,0,1,11.3,5l1,1.2,1.2-.9a12.469,12.469,0,0,1,7.646-2.638,12.749,12.749,0,0,1,5.852,1.438l1.2.6.8-1.1c3.582-5.169,9.668-8.595,16.7-9.4a32.606,32.606,0,0,1,3.592-.21,21.65,21.65,0,0,1,8.559,1.622,23.122,23.122,0,0,1,7.25,4.984l.5.6h.6c6.313,0,11.7,4.891,12,10.9l.1,1.9,2-.6a15.574,15.574,0,0,1,4.746-.791,11.726,11.726,0,0,1,7.053,2.294,12.985,12.985,0,0,1,3.936,4.761,13.657,13.657,0,0,1,1.463,6.04,13.139,13.139,0,0,1-1.748,6.512,12.9,12.9,0,0,1-4.748,4.784l-1.8,1.1,1.5,1.5a7.969,7.969,0,0,1,2.5,5.8,8.062,8.062,0,0,1-2.361,5.737,8.054,8.054,0,0,1-5.738,2.362h-.3l-1.1-.1-.5,1a19.521,19.521,0,0,1-4.777,5.75,20.283,20.283,0,0,1-6.723,3.648,21.567,21.567,0,0,1-6.5.993,21.523,21.523,0,0,1-9.9-2.392l-1.3-.7-.8,1.2A20.793,20.793,0,0,1-19820.8-15994.8Zm4.3-59.7a23.025,23.025,0,0,0-23,23,23.026,23.026,0,0,0,23,23,23.027,23.027,0,0,0,23-23A23.027,23.027,0,0,0-19816.5-16054.5Z" transform="translate(19898 16073)"/><line class="b" x1="14.8" y2="43" transform="translate(74.1 20.4)"/><line class="b" x2="20" y2="10.9" transform="translate(81.5 41.5)"/><line class="b" x2="5.6" transform="translate(72 32.5)"/><line class="b" x2="5.6" transform="translate(67.3 37.8)"/><line class="b" x2="5.6" transform="translate(65 43)"/><ellipse class="b" cx="7.7" cy="5.3" rx="7.7" ry="5.3" transform="translate(14.4 78.3)"/><path class="b" d="M8.7,98.1a3.123,3.123,0,1,0,0,6.2,3.123,3.123,0,1,0,0-6.2Z" transform="translate(-3 4)"/><circle class="c" cx="2" cy="2" r="2" transform="translate(86.5 18.492)"/><circle class="c" cx="2" cy="2" r="2" transform="translate(79.5 39.492)"/><circle class="c" cx="2" cy="2" r="2" transform="translate(99.5 50.492)"/><circle class="c" cx="2" cy="2" r="2" transform="translate(72.5 61.492)"/><circle class="d" cx="2" cy="2" r="2" transform="translate(93.5 66.492)"/><circle class="d" cx="2" cy="2" r="2" transform="translate(122.5 58.492)"/><circle class="d" cx="2" cy="2" r="2" transform="translate(128.5 42.492)"/><circle class="d" cx="2" cy="2" r="2" transform="translate(117.5 18.492)"/><circle class="d" cx="2" cy="2" r="2" transform="translate(67.5 9.492)"/><circle class="d" cx="2" cy="2" r="2" transform="translate(51.5 11.492)"/><circle class="d" cx="2" cy="2" r="2" transform="translate(26.5 12.492)"/><circle class="d" cx="2" cy="2" r="2" transform="translate(13.5 22.492)"/><circle class="d" cx="2" cy="2" r="2" transform="translate(25.5 56.492)"/><circle class="d" cx="2" cy="2" r="2" transform="translate(48.5 64.492)"/><circle class="d" cx="2" cy="2" r="2" transform="translate(57.5 66.492)"/><circle class="d" cx="2" cy="2" r="2" transform="translate(104.5 5.492)"/></g></svg>