<svg xmlns="http://www.w3.org/2000/svg" xmlns:xlink="http://www.w3.org/1999/xlink" viewBox="0 0 128.65 112.5"><defs><style>.a,.b{fill:none;}.a,.b,.c,.d{stroke:#00b3ef;stroke-miterlimit:10;}.a{opacity:0.5;}.c{fill:url(#a);}.d{fill:url(#b);}.e{fill:#fff;}.f{fill:#7ea5e3;}</style><linearGradient id="a" x1="0.649" y1="-0.061" x2="0.038" y2="0.656" gradientUnits="objectBoundingBox"><stop offset="0" stop-color="#00b3ef" stop-opacity="0"/><stop offset="1" stop-color="#fff" stop-opacity="0.502"/></linearGradient><linearGradient id="b" x1="0.5" y1="1.749" x2="1.591" y2="0.598" xlink:href="#a"/></defs><g transform="translate(-914.499 -819.5)"><g transform="translate(914.574 819.5)"><path class="a" d="M62.3,87.5l13.8,13.8c2.1,2.1,1.3,6.5-.8,8.6s-6.2,2.6-8.3.5h0l-3.8-3.6M46,11.9c3.3-.1,13.5-.2,23.1,2.4M26.7,70.2c-12-12.7-12.2-25.9-12.1-27.5M87.2,94.5c2.1,2.1,1.7,6.2-.4,8.3s-6.3,2.9-8.4.8l-2.2-2.2-.1-.1h0M98.6,86.5c2.1,2.1,2,7.2-.1,9.3-1,1-3.6,2.5-5,2.5a5.464,5.464,0,0,1-3.8-1.6L65.9,73m34.7-1.6,3.5,4.6a5.313,5.313,0,0,1,0,7.6c-1,1-3,2.7-4.4,2.7a5.464,5.464,0,0,1-3.8-1.6L75,63.9"/><path class="b" d="M126.8,43.5l-4.3,4.3a4.346,4.346,0,0,1-6.2,0l-.4-.4h0L87.3,18.7h0L83,14.4a4.285,4.285,0,0,1,0-6.1L87.2,4a4.387,4.387,0,0,1,3.1-1.3A4.01,4.01,0,0,1,93.4,4l33.4,33.4A4.286,4.286,0,0,1,126.8,43.5Z"/><path class="a" d="M9.1,46.8A4.387,4.387,0,0,1,6,45.5L1.7,41.2a4.285,4.285,0,0,1,0-6.1L35.1,1.8A4.158,4.158,0,0,1,38.2.5a4.387,4.387,0,0,1,3.1,1.3l4.3,4.3a4.346,4.346,0,0,1,0,6.2l-4.3,4.3h0l-29,29A4.717,4.717,0,0,1,9.1,46.8Z"/><path class="c" d="M115.2,47.2c.2.9.7,7.4-14.7,24.4L67.2,38.4a7.424,7.424,0,0,0-10.5,0l-13,13h0a5.374,5.374,0,0,1-7.6-7.6L57.5,22.4h0c.1-.1,6.9-7.6,15.4-8.7,2.7.1,4.7.2,5.4.2h.1a17.416,17.416,0,0,1,8.4,4.9"/><path class="d" d="M27.4,84.5h0a6.362,6.362,0,0,1-4.5-1.9,6.218,6.218,0,0,1,0-8.9l3-3h0L33,63.6a6.267,6.267,0,0,1,4.5-1.8h0A6.713,6.713,0,0,1,42,63.6a6.267,6.267,0,0,1,1.8,4.5A6.713,6.713,0,0,1,42,72.6h0l-1.7,1.8-8.4,8.4A6.622,6.622,0,0,1,27.4,84.5Z"/><path class="d" d="M36.4,93.8h0a6.362,6.362,0,0,1-4.5-1.9,6.458,6.458,0,0,1,0-9.1l7.3-7.3h0l1.6-1.6,1.5-1.5h0a6.435,6.435,0,0,1,9.1,9.1l-3,3h0l-7.3,7.3A6.859,6.859,0,0,1,36.4,93.8Z"/><path class="d" d="M41.3,100.5a6.278,6.278,0,0,1,0-8.8l2.9-2.9h0l5.2-5.2a6.278,6.278,0,0,1,8.8,0h0a6.278,6.278,0,0,1,0,8.8L56,94.6h0l-3,2.9h0l-2.9,2.9A6.188,6.188,0,0,1,41.3,100.5Z"/><path class="d" d="M59.5,110a6.508,6.508,0,0,1-4.7,2h0a6.345,6.345,0,0,1-4.7-2,6.508,6.508,0,0,1-2-4.7,6.345,6.345,0,0,1,2-4.7l3.1-3.2h0L55.6,95h0l.4-.4.4-.4a6.639,6.639,0,0,1,9.4,0,6.508,6.508,0,0,1,2,4.7,6.345,6.345,0,0,1-2,4.7l-3.2,3.2h0Z"/></g><circle class="e" cx="2" cy="2" r="2" transform="translate(1013 888)"/><circle class="e" cx="2" cy="2" r="2" transform="translate(1028 864)"/><circle class="e" cx="2" cy="2" r="2" transform="translate(998 835)"/><circle class="f" cx="2" cy="2" r="2" transform="translate(958 830)"/><circle class="f" cx="2" cy="2" r="2" transform="translate(928 860)"/><circle class="f" cx="2" cy="2" r="2" transform="translate(987 881)"/><circle class="f" cx="2" cy="2" r="2" transform="translate(978 890)"/><circle class="f" cx="2" cy="2" r="2" transform="translate(976 906)"/></g></svg>