<svg xmlns="http://www.w3.org/2000/svg" xmlns:xlink="http://www.w3.org/1999/xlink" viewBox="0 0 104 119"><defs><style>.a,.b{fill:none;}.a,.b,.c,.d{stroke:#00b3ef;stroke-miterlimit:10;}.a{opacity:0.5;}.c{fill:url(#a);}.d{fill:url(#b);}.e{fill:#fff;}.f{fill:#7ea5e3;}</style><linearGradient id="a" y1="0.677" x2="1" y2="0.648" gradientUnits="objectBoundingBox"><stop offset="0" stop-color="#00b3ef" stop-opacity="0"/><stop offset="1" stop-color="#fff" stop-opacity="0.502"/></linearGradient><linearGradient id="b" x1="0" y1="0.5" x2="1" y2="0.5" xlink:href="#a"/></defs><g transform="translate(1.301 2)"><g transform="translate(0.7 22.115)"><path class="a" d="M41.755,63.339H8.3L.7,54.833,8.3,46.1H41.642" transform="translate(-0.7 -15.932)"/><path class="b" d="M60.861,19.5,53.6,26.872l-3.4-3.4" transform="translate(5.939 -19.5)"/></g><line class="b" y2="106.04" transform="translate(41.982)"/><rect class="c" width="44.004" height="9.073" transform="translate(19.98 105.927)"/><path class="a" d="M74.9,14.9l7.6,8.506-7.6,8.733" transform="translate(9.952 1.998)"/><path class="a" d="M82.9,14.9l7.6,8.506-7.6,8.733" transform="translate(11.025 1.998)"/><path class="d" d="M37.3,14.9H70.757l7.6,8.506-7.6,8.733H37.3" transform="translate(4.909 1.998)"/><circle class="e" cx="2" cy="2" r="2" transform="translate(62.699 113)"/><circle class="e" cx="2" cy="2" r="2" transform="translate(17.699 113)"/><circle class="e" cx="2" cy="2" r="2" transform="translate(62.699 104)"/><circle class="e" cx="2" cy="2" r="2" transform="translate(17.699 104)"/><circle class="e" cx="2" cy="2" r="2" transform="translate(39.699 104)"/><circle class="e" cx="2" cy="2" r="2" transform="translate(39.699 32)"/><circle class="e" cx="2" cy="2" r="2" transform="translate(73.699 32)"/><circle class="e" cx="2" cy="2" r="2" transform="translate(80.699 24)"/><circle class="f" cx="2" cy="2" r="2" transform="translate(39.699 68)"/><circle class="f" cx="2" cy="2" r="2" transform="translate(39.699 50)"/><circle class="f" cx="2" cy="2" r="2" transform="translate(83.699 32)"/><circle class="f" cx="2" cy="2" r="2" transform="translate(83.699 16)"/><circle class="f" cx="2" cy="2" r="2" transform="translate(92.699 32)"/><circle class="f" cx="2" cy="2" r="2" transform="translate(98.699 24)"/><circle class="f" cx="2" cy="2" r="2" transform="translate(92.699 16)"/><circle class="f" cx="2" cy="2" r="2" transform="translate(5.699 68)"/><circle class="f" cx="2" cy="2" r="2" transform="translate(5.699 50)"/><circle class="f" cx="2" cy="2" r="2" transform="translate(-1.301 59)"/><circle class="e" cx="2" cy="2" r="2" transform="translate(39.699 15)"/><circle class="e" cx="2" cy="2" r="2" transform="translate(73.699 15)"/><circle class="e" cx="2" cy="2" r="2" transform="translate(39.699 -2)"/></g></svg>