<svg xmlns="http://www.w3.org/2000/svg" viewBox="0 0 751.747 500.77"><defs><style>.a,.b{fill:none;stroke-miterlimit:10;}.a{stroke:#00b3ef;}.b{stroke:#fff;}.c{fill:#6bbdff;}.d{fill:#fc8a23;}</style></defs><g transform="translate(-1156.27 -365.41)"><g transform="translate(1158.48 365.4)"><g transform="translate(28.295 0.832)"><line class="a" x2="250.388" y2="149.843" transform="translate(21.26 87.13)"/><line class="a" x1="248.206" y1="149.657" transform="translate(35.975 78.496)"/><line class="a" x1="243.146" y1="150.91" transform="translate(60.067 65.637)"/><line class="a" x2="251.223" y2="148.775" transform="translate(0 99.338)"/><line class="a" x1="99.338" y2="59.881" transform="translate(190.414 180.34)"/><line class="a" x1="101.798" y2="59.696" transform="translate(147.104 155.599)"/><line class="a" x1="103.655" y2="61.599" transform="translate(104.073 128.954)"/><line class="a" x1="106.765" y2="62.527" transform="translate(60.113 102.959)"/><line class="a" x1="109.226" y2="62.852" transform="translate(15.876 76.964)"/><line class="a" x1="266.542" y1="160.426" transform="translate(400.927 299.593)"/><line class="a" x2="269.188" y2="158.245" transform="translate(423.44 287.57)"/><line class="a" x1="263.06" y1="160.473" transform="translate(367.737 320.064)"/><line class="a" x1="104.908" y2="62.202" transform="translate(379.342 295.925)"/><line class="a" x1="103.516" y2="62.202" transform="translate(423.44 320.064)"/><line class="a" x1="106.765" y2="64.059" transform="translate(461.504 343.738)"/><line class="a" x1="108.622" y2="64.059" transform="translate(503.282 370.197)"/><line class="a" x1="109.086" y2="67.773" transform="translate(547.381 394.335)"/><line class="a" x2="264.685" y2="160.612" transform="translate(388.161 307.066)"/><path class="a" d="M915,334.6" transform="translate(-518.019 -179.79)"/><path class="a" d="M712.1,366.348l78.449-25.067-81.7-17.639L797.98,319l-119.3-48.276,43.17-78.449L647.58,245.657,793.338,274.9l20.425-106.3-52.454,49.669L616.247,240.086l2.321,23.674-18.1-15.086-3.946,24.835,91.447,74.736,20.193-27.388-59.881-45.491,28.548-6.731-3.946,41.546L522.015,345.691,688.2,347.084l-121.62,68,118.834-46.42L552.42,372.614l42.706-97.481,52.918,1.393-2.785-30.869-26.227,19.5L567.506,413.928,506.7,431.8l45.027,19.264V374.7l-41.314,66.38,50.83.928-86.109-58.257,46.652-37.136-31.565-2.553,62.434,104.676L523.175,347.316,480.469,362.17l71.022,10.212-62.667,24.6,12.069,62.342-37.461-74.271-3.992,49.53-42.428-13,41.174,56.957.325-42.706L413.3,446.979l67.169,28.455-21.028-39.317L430.011,473.9l68.1-13.322L461.3,435.188l-26.923-37.739,65.591,16.386,5.9,20.146-43.959-.928" transform="translate(-249.206 -90.847)"/><path class="a" d="M1117.064,138.6,1079,177.593l121.155,11.141L1157.449,300.14,1218.723,263l-68.237-6.035,66.38-28.316" transform="translate(-605.891 -74.773)"/><path class="a" d="M1164.642,200.3l80.306-16.247-62.2-52.454L1160,197.052" transform="translate(-649.291 -71.022)"/><path class="a" d="M1096.222,65.855l-32.494-34.583,13.462-13.23L1044,7.6l28.78,23.442-24.6-5.106L1064.425,1.1" transform="translate(-587.138 -1.1)"/></g><g transform="translate(1 51.847)"><path class="b" d="M1,174.734,257.062,320.725l97.459-58.017L112.732,111Z" transform="translate(-1 -111)"/><path class="b" d="M902.123,588.6l-44.8,26.877L800,649.874l259.579,162.237,113.635-65.22Z" transform="translate(-429.107 -366.9)"/><path class="b" d="M925.01,360.449l127.654-74.271,6.963-7.891,7.427-19.961L1063.8,224.9l-17.639-41.778-31.1-35.279L984.891,131.6l-19.5,1.393L819.312,219.38l-2.414,1.439-13.972,8.263L791.785,250.9,789,267.145l10.212-14.854,20.425-7.891,29.709,12.069,24.6,32.03,16.247,39.457L887.41,348.38" transform="translate(-423.213 -122.038)"/><path class="b" d="M849.1,323.8l30.591,5.013,31.1,23.674,30.637,52.454L947,449.969l-2.321,7.891" transform="translate(-455.415 -225.019)"/><path class="b" d="M1117.447,370.071,1126.73,345l-4.642-43.635L1089.13,246.6l-38.064-25.531L1026,220.6" transform="translate(-550.198 -169.724)"/><path class="b" d="M660.8,420.6l-97.945,58.489-10.677,18.568L548,519.01" transform="translate(-294.084 -276.885)"/><path class="b" d="M507.085,624.261l-.371-1.253-4.271-13.6-13.462-15.318-25.067-13-31.1,12.533-17.175,24.138s-2.785,24.138-1.857,26,18.1,26.459,18.1,26.459l27.388,6.035,21.353-3.714L501.979,654.9l4.178-21.353,5.106,4.178,17.175,4.178,22.746,5.106,4.456-3.481,6.22-4.874,4.642-27.388L552.576,569.95,522.4,542.563,500.586,535.6" transform="translate(-222.068 -338.502)"/><line class="b" x1="37.321" y2="22.049" transform="translate(333.572 282.974)"/></g><path class="b" d="M1087.491,70.694l-24.6-39.457L1047.57,26.6,1042,8.027,1063.353.6l13,16.711-5.106,13,25.531,36.672" transform="translate(-557.771)"/></g><g transform="translate(1225.207 451.328)"><g transform="translate(397.767 231.666)"><ellipse class="c" cx="4.142" cy="4.142" rx="4.142" ry="4.142"/></g><g transform="translate(439.292 256.8)"><ellipse class="c" cx="4.142" cy="4.142" rx="4.142" ry="4.142"/></g><g transform="translate(480.817 281.933)"><ellipse class="c" cx="4.142" cy="4.142" rx="4.142" ry="4.142"/></g><g transform="translate(522.342 307.067)"><ellipse class="c" cx="4.142" cy="4.142" rx="4.142" ry="4.142"/></g><g transform="translate(567.146 334.386)"><ellipse class="c" cx="4.142" cy="4.142" rx="4.142" ry="4.142" transform="translate(0)"/></g><g transform="translate(383.561 240.408)"><ellipse class="c" cx="4.142" cy="4.142" rx="4.142" ry="4.142"/></g><g transform="translate(425.086 265.542)"><ellipse class="c" cx="4.142" cy="4.142" rx="4.142" ry="4.142"/></g><g transform="translate(466.611 290.675)"><ellipse class="c" cx="4.142" cy="4.142" rx="4.142" ry="4.142" transform="translate(0)"/></g><g transform="translate(508.136 315.809)"><ellipse class="c" cx="4.142" cy="4.142" rx="4.142" ry="4.142"/></g><g transform="translate(552.94 343.128)"><ellipse class="c" cx="4.142" cy="4.142" rx="4.142" ry="4.142"/></g><g transform="translate(363.891 252.429)"><ellipse class="c" cx="4.142" cy="4.142" rx="4.142" ry="4.142"/></g><g transform="translate(336.891 268.429)"><ellipse class="c" cx="4.142" cy="4.142" rx="4.142" ry="4.142"/></g><g transform="translate(380.891 294.429)"><ellipse class="c" cx="4.142" cy="4.142" rx="4.142" ry="4.142"/></g><g transform="translate(418.891 317.429)"><ellipse class="c" cx="4.142" cy="4.142" rx="4.142" ry="4.142"/></g><g transform="translate(460.891 344.429)"><ellipse class="c" cx="4.142" cy="4.142" rx="4.142" ry="4.142"/></g><g transform="translate(505.891 372.429)"><ellipse class="c" cx="4.142" cy="4.142" rx="4.142" ry="4.142"/></g><g transform="translate(587.891 391.429)"><ellipse class="c" cx="4.142" cy="4.142" rx="4.142" ry="4.142"/></g><g transform="translate(608.891 378.429)"><ellipse class="c" cx="4.142" cy="4.142" rx="4.142" ry="4.142"/></g><g transform="translate(623.891 370.429)"><ellipse class="c" cx="4.142" cy="4.142" rx="4.142" ry="4.142"/></g><g transform="translate(648.891 355.429)"><ellipse class="c" cx="4.142" cy="4.142" rx="4.142" ry="4.142"/></g><g transform="translate(325.891 231.429)"><ellipse class="c" cx="4.142" cy="4.142" rx="4.142" ry="4.142"/></g><g transform="translate(345.891 217.429)"><ellipse class="c" cx="4.142" cy="4.142" rx="4.142" ry="4.142"/></g><g transform="translate(359.891 209.429)"><ellipse class="c" cx="4.142" cy="4.142" rx="4.142" ry="4.142"/></g><g transform="translate(380.891 198.429)"><ellipse class="c" cx="4.142" cy="4.142" rx="4.142" ry="4.142"/></g><g transform="translate(483.891 231.429)"><ellipse class="c" cx="4.142" cy="4.142" rx="4.142" ry="4.142"/></g><g transform="translate(524.891 254.429)"><ellipse class="c" cx="4.142" cy="4.142" rx="4.142" ry="4.142"/></g><g transform="translate(569.891 281.429)"><ellipse class="c" cx="4.142" cy="4.142" rx="4.142" ry="4.142"/></g><g transform="translate(611.891 306.429)"><ellipse class="c" cx="4.142" cy="4.142" rx="4.142" ry="4.142"/></g><g transform="translate(290.676 190.141)"><ellipse class="c" cx="4.142" cy="4.142" rx="4.142" ry="4.142" transform="translate(0 0)"/></g><g transform="translate(244.78 243.687)"><ellipse class="c" cx="4.142" cy="4.142" rx="4.142" ry="4.142"/></g><g transform="translate(168.286 254.614)"><ellipse class="c" cx="4.142" cy="4.142" rx="4.142" ry="4.142" transform="translate(0)"/></g><g transform="translate(199.976 231.666)"><ellipse class="c" cx="4.142" cy="4.142" rx="4.142" ry="4.142"/></g><g transform="translate(151.895 277.562)"><ellipse class="c" cx="4.142" cy="4.142" rx="4.142" ry="4.142"/></g><g transform="translate(215.275 252.429)"><ellipse class="c" cx="4.142" cy="4.142" rx="4.142" ry="4.142"/></g><g transform="translate(305.975 146.43)"><ellipse class="c" cx="4.142" cy="4.142" rx="4.142" ry="4.142" transform="translate(0)"/></g><g transform="translate(384.654 112.555)"><ellipse class="c" cx="4.142" cy="4.142" rx="4.142" ry="4.142" transform="translate(0 0)"/></g><g transform="translate(397.767 72.122)"><ellipse class="c" cx="4.142" cy="4.142" rx="4.142" ry="4.142" transform="translate(0 0)"/></g><g transform="translate(531.084 78.679)"><ellipse class="c" cx="4.142" cy="4.142" rx="4.142" ry="4.142"/></g><g transform="translate(273.192 165.007)"><ellipse class="c" cx="4.142" cy="4.142" rx="4.142" ry="4.142"/></g><g transform="translate(171.564 135.503)"><ellipse class="c" cx="4.142" cy="4.142" rx="4.142" ry="4.142"/></g><g transform="translate(128.946 110.369)"><ellipse class="c" cx="4.142" cy="4.142" rx="4.142" ry="4.142"/></g><g transform="translate(86.329 85.236)"><ellipse class="c" cx="4.142" cy="4.142" rx="4.142" ry="4.142" transform="translate(0 0)"/></g><g transform="translate(43.711 59.009)"><ellipse class="c" cx="4.142" cy="4.142" rx="4.142" ry="4.142" transform="translate(0 0)"/></g><g transform="translate(0 33.876)"><ellipse class="c" cx="4.142" cy="4.142" rx="4.142" ry="4.142" transform="translate(0 0)"/></g><g transform="translate(209.811 183.584)"><ellipse class="c" cx="4.142" cy="4.142" rx="4.142" ry="4.142" transform="translate(0 0)"/></g><g transform="translate(490.652 17.484)"><ellipse class="c" cx="4.142" cy="4.142" rx="4.142" ry="4.142"/></g><g transform="translate(405.416 277.562)"><ellipse class="c" cx="4.142" cy="4.142" rx="4.142" ry="4.142" transform="translate(0)"/></g><g transform="translate(446.941 302.696)"><ellipse class="c" cx="4.142" cy="4.142" rx="4.142" ry="4.142"/></g><g transform="translate(488.467 327.829)"><ellipse class="c" cx="4.142" cy="4.142" rx="4.142" ry="4.142"/></g><g transform="translate(533.27 355.148)"><ellipse class="c" cx="4.142" cy="4.142" rx="4.142" ry="4.142"/></g><g transform="translate(418.529 219.646)"><ellipse class="c" cx="4.142" cy="4.142" rx="4.142" ry="4.142" transform="translate(0)"/></g><g transform="translate(460.055 244.779)"><ellipse class="c" cx="4.142" cy="4.142" rx="4.142" ry="4.142"/></g><g transform="translate(501.58 269.913)"><ellipse class="c" cx="4.142" cy="4.142" rx="4.142" ry="4.142"/></g><g transform="translate(546.383 293.954)"><ellipse class="c" cx="4.142" cy="4.142" rx="4.142" ry="4.142"/></g><g transform="translate(590.094 320.18)"><ellipse class="c" cx="4.142" cy="4.142" rx="4.142" ry="4.142" transform="translate(0)"/></g><g transform="translate(190.141 103.813)"><ellipse class="c" cx="4.142" cy="4.142" rx="4.142" ry="4.142" transform="translate(0 19.67)"/><ellipse class="c" cx="4.142" cy="4.142" rx="4.142" ry="4.142" transform="translate(14.206 10.928)"/><ellipse class="c" cx="4.142" cy="4.142" rx="4.142" ry="4.142" transform="translate(33.876)"/></g><ellipse class="c" cx="4.142" cy="4.142" rx="4.142" ry="4.142" transform="translate(148.616 98.349)"/><ellipse class="c" cx="4.142" cy="4.142" rx="4.142" ry="4.142" transform="translate(107.091 72.122)"/><ellipse class="c" cx="4.142" cy="4.142" rx="4.142" ry="4.142" transform="translate(63.38 46.989)"/><ellipse class="c" cx="4.142" cy="4.142" rx="4.142" ry="4.142" transform="translate(19.67 21.855)"/><ellipse class="c" cx="4.142" cy="4.142" rx="4.142" ry="4.142" transform="translate(163.915 89.607)"/><ellipse class="c" cx="4.142" cy="4.142" rx="4.142" ry="4.142" transform="translate(121.297 64.473)"/><ellipse class="c" cx="4.142" cy="4.142" rx="4.142" ry="4.142" transform="translate(79.772 38.247)"/><ellipse class="c" cx="4.142" cy="4.142" rx="4.142" ry="4.142" transform="translate(36.061 13.113)"/><ellipse class="c" cx="4.142" cy="4.142" rx="4.142" ry="4.142" transform="translate(183.585 78.679)"/><ellipse class="c" cx="4.142" cy="4.142" rx="4.142" ry="4.142" transform="translate(142.06 52.453)"/><ellipse class="c" cx="4.142" cy="4.142" rx="4.142" ry="4.142" transform="translate(100.535 26.226)"/><ellipse class="c" cx="4.142" cy="4.142" rx="4.142" ry="4.142" transform="translate(59.009 0)"/><g transform="translate(150.709 149.616)"><ellipse class="c" cx="4.142" cy="4.142" rx="4.142" ry="4.142"/></g><g transform="translate(106.999 125.576)"><ellipse class="c" cx="4.142" cy="4.142" rx="4.142" ry="4.142" transform="translate(0 0)"/></g><g transform="translate(63.288 100.442)"><ellipse class="c" cx="4.142" cy="4.142" rx="4.142" ry="4.142" transform="translate(0 0)"/></g><g transform="translate(18.485 75.308)"><ellipse class="c" cx="4.142" cy="4.142" rx="4.142" ry="4.142" transform="translate(0)"/></g><g transform="translate(-26.32 50.174)"><ellipse class="c" cx="4.142" cy="4.142" rx="4.142" ry="4.142"/></g><g transform="translate(-41.619 9.743)"><ellipse class="c" cx="4.142" cy="4.142" rx="4.142" ry="4.142" transform="translate(0)"/></g><g transform="translate(-19.763 -3.371)"><ellipse class="c" cx="4.142" cy="4.142" rx="4.142" ry="4.142"/></g><g transform="translate(-5.556 -12.113)"><ellipse class="c" cx="4.142" cy="4.142" rx="4.142" ry="4.142" transform="translate(0)"/></g><g transform="translate(17.391 -25.226)"><ellipse class="c" cx="4.142" cy="4.142" rx="4.142" ry="4.142"/></g><g transform="translate(83.526 -12.432)"><ellipse class="c" cx="4.142" cy="4.142" rx="4.142" ry="4.142"/></g><g transform="translate(125.526 13.568)"><ellipse class="c" cx="4.142" cy="4.142" rx="4.142" ry="4.142"/></g><g transform="translate(165.526 39.568)"><ellipse class="c" cx="4.142" cy="4.142" rx="4.142" ry="4.142"/></g><g transform="translate(207.526 65.568)"><ellipse class="c" cx="4.142" cy="4.142" rx="4.142" ry="4.142"/></g><g transform="translate(247.526 90.568)"><ellipse class="c" cx="4.142" cy="4.142" rx="4.142" ry="4.142"/></g></g><g transform="translate(1156.27 411.896)"><g transform="translate(255.707 209.811)"><ellipse class="d" cx="4.142" cy="4.142" rx="4.142" ry="4.142"/></g><g transform="translate(0 64.473)"><ellipse class="d" cx="4.142" cy="4.142" rx="4.142" ry="4.142"/></g><g transform="translate(111.462 0)"><ellipse class="d" cx="4.142" cy="4.142" rx="4.142" ry="4.142"/></g><g transform="translate(351.462 152)"><ellipse class="d" cx="4.142" cy="4.142" rx="4.142" ry="4.142"/></g><g transform="translate(364.462 145)"><ellipse class="d" cx="4.142" cy="4.142" rx="4.142" ry="4.142"/></g><g transform="translate(393.462 100)"><ellipse class="d" cx="4.142" cy="4.142" rx="4.142" ry="4.142"/></g><g transform="translate(475.462 51)"><ellipse class="d" cx="4.142" cy="4.142" rx="4.142" ry="4.142"/></g><g transform="translate(536.462 14)"><ellipse class="d" cx="4.142" cy="4.142" rx="4.142" ry="4.142"/></g><g transform="translate(488.462 -25)"><ellipse class="d" cx="4.142" cy="4.142" rx="4.142" ry="4.142"/></g><g transform="translate(591.462 27)"><ellipse class="d" cx="4.142" cy="4.142" rx="4.142" ry="4.142"/></g><g transform="translate(621.462 63)"><ellipse class="d" cx="4.142" cy="4.142" rx="4.142" ry="4.142"/></g><g transform="translate(639.462 104)"><ellipse class="d" cx="4.142" cy="4.142" rx="4.142" ry="4.142"/></g><g transform="translate(635.462 158)"><ellipse class="d" cx="4.142" cy="4.142" rx="4.142" ry="4.142"/></g><g transform="translate(566.462 202)"><ellipse class="d" cx="4.142" cy="4.142" rx="4.142" ry="4.142"/></g><g transform="translate(501.462 240)"><ellipse class="d" cx="4.142" cy="4.142" rx="4.142" ry="4.142"/></g><g transform="translate(485.462 181)"><ellipse class="d" cx="4.142" cy="4.142" rx="4.142" ry="4.142"/></g><g transform="translate(472.462 222)"><ellipse class="d" cx="4.142" cy="4.142" rx="4.142" ry="4.142"/></g><g transform="translate(338.462 303)"><ellipse class="d" cx="4.142" cy="4.142" rx="4.142" ry="4.142"/></g><g transform="translate(251.462 248)"><ellipse class="d" cx="4.142" cy="4.142" rx="4.142" ry="4.142"/></g><g transform="translate(276.462 198)"><ellipse class="d" cx="4.142" cy="4.142" rx="4.142" ry="4.142"/></g><g transform="translate(330.462 232)"><ellipse class="d" cx="4.142" cy="4.142" rx="4.142" ry="4.142"/></g><g transform="translate(209.462 331)"><ellipse class="d" cx="4.142" cy="4.142" rx="4.142" ry="4.142"/></g><g transform="translate(190.462 307)"><ellipse class="d" cx="4.142" cy="4.142" rx="4.142" ry="4.142"/></g><g transform="translate(209.462 256)"><ellipse class="d" cx="4.142" cy="4.142" rx="4.142" ry="4.142"/></g><g transform="translate(259.462 335)"><ellipse class="d" cx="4.142" cy="4.142" rx="4.142" ry="4.142"/></g><g transform="translate(372.462 286)"><ellipse class="d" cx="4.142" cy="4.142" rx="4.142" ry="4.142"/></g><g transform="translate(627.462 446)"><ellipse class="d" cx="4.142" cy="4.142" rx="4.142" ry="4.142"/></g><g transform="translate(743.462 381)"><ellipse class="d" cx="4.142" cy="4.142" rx="4.142" ry="4.142"/></g><g transform="translate(454.462 128)"><ellipse class="d" cx="4.142" cy="4.142" rx="4.142" ry="4.142"/></g></g></g></svg>