<svg xmlns="http://www.w3.org/2000/svg" viewBox="0 0 628.285 738.284"><defs><style>.a,.b{fill:none;stroke-miterlimit:10;}.a{stroke:#00b3ef;}.b{stroke:#fff;}.c{fill:#fc8a23;}.d{fill:#6bbdff;}</style></defs><g transform="translate(-1152.732 -199.896)"><g transform="translate(1155.988 203.331)"><g transform="translate(0.3 0.884)"><path class="a" d="M265.562,437.749,248.5,617.05l9.108,10.067,10.546-5.753L288.289,422.9" transform="translate(-10.535 -18.302)"/><path class="a" d="M148.557,31.9l9.2,52.061-48.993,73.058L69.938,176.29,161.6,189.137,157.761,83.961,174.443,48.2l46.5,28.283-.479,41.994-58.676,70.565,4.794,42.186,41.9-12.847,52.253-77.18,3.835-41.706-44.1,18.984-12.272,97.986L163.9,190.384,68.5,132.762l1.918,42.953" transform="translate(-3.112 -2.178)"/><line class="a" x2="296.258" y2="169.318" transform="translate(110.641 55.8)"/><path class="a" d="M220.468,120.645l85.042,6.04-3.835,41.227-54.937,76.03-80.344-10.067-57.718-74.688L173.3,127.932,157,84.5,68.6,134.931l104.026-7.287,59.443,29.434-11.6-36.433L173.2,127.836,208.2,218.631l27.229,55.417,12.752-29.434-16.107-87.631,69.51,10.93,20.709,48.705-72.1,29.338,25.6,52.061,18.792-25.695,42.281-84.659-2.876-45.829-32.31,26.174-7,104.218-44.774-27.8,10.546-99.711,73.537-2.876L372.144,207.8l5.753-39.885L337.15,187.855l13.519,54.65L322.48,216.809l49.664-8.821-48.13,81.878L294.676,272.13l25.407,50.143,4.123-32.406,85.713-60.306c.1-.1.192-.192.1-.383l-32.31-61.361-76.126.192,22.627,122.051,40.747,14.669,7-96.931" transform="translate(-3.116 -4.347)"/><path class="a" d="M544.207,306.923,456,294.075l88.206,51.2L379.3,308.84l96.547,36.433,23.586,33.173,42.857-69.031-65.963,35.57-20.422-50.719L422.253,237.7l47.363,36.721-89.357,35.858,74.5-16.011L469.9,275.092l73.633,32.6-15.148,59.635" transform="translate(-15.929 -10.665)"/><path class="a" d="M550.97,345.584l53.691,17.258L640.9,406.753,582.9,382.017l41.227,48.705L534,370.8l48.418,10.93,21.86-18.408L535.63,370.8l75.55,58.964L643.011,384.7l-59.731-2.972L551.162,345.2" transform="translate(-22.308 -15.098)"/><line class="a" x2="60.21" y2="3.739" transform="translate(500.283 362.988)"/><path class="a" d="M248,288.1l31.16,132.309,37.1-93.479" transform="translate(-10.514 -12.743)"/><path class="a" d="M113.018,57.179,55.3,72.424,94.322.9" transform="translate(-2.568 -0.9)"/><path class="a" d="M63.008,9.5,54.092,72.778,26,46.6" transform="translate(-1.36 -1.255)"/><path class="a" d="M67.841,133.418,54.227,75.7,22.3,150.963" transform="translate(-1.207 -3.985)"/><line class="a" y1="38.063" x2="52.732" transform="translate(0 71.524)"/></g><g transform="translate(1.259 0.5)"><path class="b" d="M91.424.5,400.145,178.83l7.67,47.363-44.1,75.359-46.692,19.175L21.722,148.821,1.3,112.388,24.31,46.521,63.332,8.841Z" transform="translate(-1.3 -0.5)"/><path class="b" d="M22.6,149.113l45.062-16.874,44.2-74.3L106.588,7.6" transform="translate(-2.178 -0.793)"/><path class="b" d="M422.157,237.4l122.722,70.948v36.433l-15.82,22.531-28.284,14.381L379.3,311.321" transform="translate(-16.888 -10.269)"/><path class="b" d="M550.7,329.4l92.521,54.65-1.438,21.572L623.567,430.55l-12.943-.959L520.5,376.859" transform="translate(-22.71 -14.063)"/><path class="b" d="M248.5,286.9l1.438,120.325,29.242,15.34,37.392-20.613-.479-77.18" transform="translate(-11.494 -12.31)"/><line class="b" x2="0.959" y2="115.531" transform="translate(266.728 293.286)"/><path class="b" d="M264.17,425.5,113.134,744.715,98.273,748.07,93,735.127,249.278,414.9" transform="translate(-5.081 -17.589)"/><path class="b" d="M308.7,412.4,465.454,736.462l-6.232,11.026-14.381-3.356L290,421.029" transform="translate(-13.205 -17.485)"/></g></g><g transform="translate(1261.732 256.896)"><ellipse class="c" cx="4.142" cy="4.142" rx="4.142" ry="4.142"/></g><g transform="translate(1218.732 330.896)"><ellipse class="c" cx="4.142" cy="4.142" rx="4.142" ry="4.142"/></g><g transform="translate(1173.732 346.896)"><ellipse class="c" cx="4.142" cy="4.142" rx="4.142" ry="4.142"/></g><g transform="translate(1152.732 309.896)"><ellipse class="c" cx="4.142" cy="4.142" rx="4.142" ry="4.142"/></g><g transform="translate(1175.732 245.896)"><ellipse class="c" cx="4.142" cy="4.142" rx="4.142" ry="4.142"/></g><g transform="translate(1214.732 207.896)"><ellipse class="c" cx="4.142" cy="4.142" rx="4.142" ry="4.142"/></g><g transform="translate(1243.732 199.896)"><ellipse class="c" cx="4.142" cy="4.142" rx="4.142" ry="4.142"/></g><g transform="translate(1257.732 207.896)"><ellipse class="c" cx="4.142" cy="4.142" rx="4.142" ry="4.142"/></g><g transform="translate(1550.732 376.896)"><ellipse class="c" cx="4.142" cy="4.142" rx="4.142" ry="4.142"/></g><g transform="translate(1558.732 426.896)"><ellipse class="c" cx="4.142" cy="4.142" rx="4.142" ry="4.142"/></g><g transform="translate(1681.732 496.896)"><ellipse class="c" cx="4.142" cy="4.142" rx="4.142" ry="4.142"/></g><g transform="translate(1681.732 533.896)"><ellipse class="c" cx="4.142" cy="4.142" rx="4.142" ry="4.142"/></g><g transform="translate(1665.732 555.896)"><ellipse class="c" cx="4.142" cy="4.142" rx="4.142" ry="4.142"/></g><g transform="translate(1650.732 563.896)"><ellipse class="c" cx="4.142" cy="4.142" rx="4.142" ry="4.142"/></g><g transform="translate(1636.732 570.896)"><ellipse class="c" cx="4.142" cy="4.142" rx="4.142" ry="4.142"/></g><g transform="translate(1739.732 614.896)"><ellipse class="c" cx="4.142" cy="4.142" rx="4.142" ry="4.142"/></g><g transform="translate(1755.732 616.896)"><ellipse class="c" cx="4.142" cy="4.142" rx="4.142" ry="4.142"/></g><g transform="translate(1772.732 592.896)"><ellipse class="c" cx="4.142" cy="4.142" rx="4.142" ry="4.142"/></g><g transform="translate(1772.732 570.896)"><ellipse class="c" cx="4.142" cy="4.142" rx="4.142" ry="4.142"/></g><g transform="translate(1513.732 500.896)"><ellipse class="c" cx="4.142" cy="4.142" rx="4.142" ry="4.142"/></g><g transform="translate(1469.732 519.896)"><ellipse class="c" cx="4.142" cy="4.142" rx="4.142" ry="4.142"/></g><g transform="translate(1457.732 588.896)"><ellipse class="c" cx="4.142" cy="4.142" rx="4.142" ry="4.142"/></g><g transform="translate(1420.732 609.896)"><ellipse class="c" cx="4.142" cy="4.142" rx="4.142" ry="4.142"/></g><g transform="translate(1398.732 598.896)"><ellipse class="c" cx="4.142" cy="4.142" rx="4.142" ry="4.142"/></g><g transform="translate(1412.732 605.896)"><ellipse class="c" cx="4.142" cy="4.142" rx="4.142" ry="4.142"/></g><g transform="translate(1430.732 605.896)"><ellipse class="c" cx="4.142" cy="4.142" rx="4.142" ry="4.142"/></g><g transform="translate(1449.732 594.896)"><ellipse class="c" cx="4.142" cy="4.142" rx="4.142" ry="4.142"/></g><g transform="translate(1583.732 926.896)"><ellipse class="c" cx="4.142" cy="4.142" rx="4.142" ry="4.142"/></g><g transform="translate(1597.732 929.896)"><ellipse class="c" cx="4.142" cy="4.142" rx="4.142" ry="4.142"/></g><g transform="translate(1605.732 918.896)"><ellipse class="c" cx="4.142" cy="4.142" rx="4.142" ry="4.142"/></g><g transform="translate(1390.732 594.896)"><ellipse class="c" cx="4.142" cy="4.142" rx="4.142" ry="4.142"/></g><g transform="translate(1241.732 915.896)"><ellipse class="c" cx="4.142" cy="4.142" rx="4.142" ry="4.142"/></g><g transform="translate(1245.732 929.896)"><ellipse class="c" cx="4.142" cy="4.142" rx="4.142" ry="4.142"/></g><g transform="translate(1261.732 926.896)"><ellipse class="c" cx="4.142" cy="4.142" rx="4.142" ry="4.142"/></g><g transform="translate(1455.732 511.896)"><ellipse class="c" cx="4.142" cy="4.142" rx="4.142" ry="4.142"/></g><g transform="translate(1420.732 492.896)"><ellipse class="c" cx="4.142" cy="4.142" rx="4.142" ry="4.142"/></g><g transform="translate(1390.732 474.896)"><ellipse class="c" cx="4.142" cy="4.142" rx="4.142" ry="4.142"/></g><ellipse class="d" cx="4.142" cy="4.142" rx="4.142" ry="4.142" transform="translate(1205.268 270.781)"/><ellipse class="d" cx="4.142" cy="4.142" rx="4.142" ry="4.142" transform="translate(1306.268 280.781)"/><ellipse class="d" cx="4.142" cy="4.142" rx="4.142" ry="4.142" transform="translate(1323.268 322.781)"/><ellipse class="d" cx="4.142" cy="4.142" rx="4.142" ry="4.142" transform="translate(1369.268 316.781)"/><ellipse class="d" cx="4.142" cy="4.142" rx="4.142" ry="4.142" transform="translate(1310.268 385.781)"/><ellipse class="d" cx="4.142" cy="4.142" rx="4.142" ry="4.142" transform="translate(1258.268 354.781)"/><ellipse class="d" cx="4.142" cy="4.142" rx="4.142" ry="4.142" transform="translate(1358.268 414.781)"/><ellipse class="d" cx="4.142" cy="4.142" rx="4.142" ry="4.142" transform="translate(1410.268 339.781)"/><ellipse class="d" cx="4.142" cy="4.142" rx="4.142" ry="4.142" transform="translate(1380.268 351.781)"/><ellipse class="d" cx="4.142" cy="4.142" rx="4.142" ry="4.142" transform="translate(1398.268 439.781)"/><ellipse class="d" cx="4.142" cy="4.142" rx="4.142" ry="4.142" transform="translate(1451.268 364.781)"/><ellipse class="d" cx="4.142" cy="4.142" rx="4.142" ry="4.142" transform="translate(1471.268 411.781)"/><ellipse class="d" cx="4.142" cy="4.142" rx="4.142" ry="4.142" transform="translate(1443.268 467.781)"/><ellipse class="d" cx="4.142" cy="4.142" rx="4.142" ry="4.142" transform="translate(1520.268 403.781)"/><ellipse class="d" cx="4.142" cy="4.142" rx="4.142" ry="4.142" transform="translate(1486.268 383.781)"/><ellipse class="d" cx="4.142" cy="4.142" rx="4.142" ry="4.142" transform="translate(1500.268 439.781)"/><ellipse class="d" cx="4.142" cy="4.142" rx="4.142" ry="4.142" transform="translate(1473.268 485.781)"/><ellipse class="d" cx="4.142" cy="4.142" rx="4.142" ry="4.142" transform="translate(1592.268 483.781)"/><ellipse class="d" cx="4.142" cy="4.142" rx="4.142" ry="4.142" transform="translate(1604.268 463.781)"/><ellipse class="d" cx="4.142" cy="4.142" rx="4.142" ry="4.142" transform="translate(1612.268 533.781)"/><ellipse class="d" cx="4.142" cy="4.142" rx="4.142" ry="4.142" transform="translate(1713.268 566.781)"/></g></svg>