<svg width="15" height="32" viewBox="0 0 15 32" fill="none" xmlns="http://www.w3.org/2000/svg">
<g clip-path="url(#clip0)">
<path d="M6.24292 1L6.24292 23C6.24292 23.5523 6.69064 24 7.24292 24C7.7952 24 8.24292 23.5523 8.24292 23L8.24292 1C8.24292 0.447716 7.7952 0 7.24292 0C6.69064 0 6.24292 0.447716 6.24292 1Z" fill="#004DC9"/>
<path d="M0.706962 25.121L6.36382 30.7779C6.75434 31.1684 7.38751 31.1684 7.77803 30.7779C8.16855 30.3874 8.16855 29.7542 7.77803 29.3637L2.12118 23.7068C1.73065 23.3163 1.09749 23.3163 0.706962 23.7068C0.316438 24.0974 0.316437 24.7305 0.706962 25.121Z" fill="#004DC9"/>
<path d="M12.364 23.707L6.70711 29.3639C6.31658 29.7544 6.31658 30.3876 6.70711 30.7781C7.09763 31.1686 7.7308 31.1686 8.12132 30.7781L13.7782 25.1213C14.1687 24.7307 14.1687 24.0976 13.7782 23.707C13.3877 23.3165 12.7545 23.3165 12.364 23.707Z" fill="#004DC9"/>
</g>
<defs>
<clipPath id="clip0">
<rect width="14.485" height="31.484" fill="white"/>
</clipPath>
</defs>
</svg>
