<svg width="15" height="32" viewBox="0 0 15 32" fill="none" xmlns="http://www.w3.org/2000/svg">
<g clip-path="url(#clip0)">
<path d="M8.74158 30.9845L8.74158 8.9845C8.74158 8.43221 8.29386 7.9845 7.74158 7.9845C7.18929 7.9845 6.74158 8.43221 6.74158 8.9845L6.74158 30.9845C6.74158 31.5368 7.18929 31.9845 7.74158 31.9845C8.29386 31.9845 8.74158 31.5368 8.74158 30.9845Z" fill="white"/>
<path d="M14.2775 6.86346L8.62068 1.2066C8.23016 0.816079 7.59699 0.816079 7.20647 1.2066C6.81594 1.59713 6.81594 2.23029 7.20647 2.62082L12.8633 8.27767C13.2538 8.6682 13.887 8.66819 14.2775 8.27767C14.6681 7.88715 14.6681 7.25398 14.2775 6.86346Z" fill="white"/>
<path d="M2.62054 8.27746L8.27739 2.6206C8.66791 2.23008 8.66791 1.59692 8.27739 1.20639C7.88687 0.815867 7.2537 0.815867 6.86318 1.20639L1.20632 6.86325C0.815798 7.25377 0.815799 7.88694 1.20632 8.27746C1.59685 8.66798 2.23001 8.66798 2.62054 8.27746Z" fill="white"/>
</g>
<defs>
<clipPath id="clip0">
<rect width="14.485" height="31.484" fill="white" transform="translate(14.9845 31.9845) rotate(180)"/>
</clipPath>
</defs>
</svg>
