<svg width="32" height="15" viewBox="0 0 32 15" fill="none" xmlns="http://www.w3.org/2000/svg">
<g clip-path="url(#clip0)">
<path d="M1 8.242L23 8.242C23.5523 8.242 24 7.79429 24 7.242C24 6.68972 23.5523 6.242 23 6.242L1 6.242C0.447716 6.242 1.85108e-08 6.68972 1.19249e-08 7.242C5.33895e-09 7.79429 0.447716 8.242 1 8.242Z" fill="white"/>
<path d="M25.121 13.778L30.7779 8.12111C31.1684 7.73058 31.1684 7.09742 30.7779 6.70689C30.3874 6.31637 29.7542 6.31637 29.3637 6.70689L23.7068 12.3637C23.3163 12.7543 23.3163 13.3874 23.7068 13.778C24.0973 14.1685 24.7305 14.1685 25.121 13.778Z" fill="white"/>
<path d="M23.7071 2.12104L29.3639 7.77789C29.7545 8.16842 30.3876 8.16842 30.7782 7.77789C31.1687 7.38737 31.1687 6.7542 30.7782 6.36368L25.1213 0.706826C24.7308 0.316302 24.0976 0.316302 23.7071 0.706826C23.3166 1.09735 23.3166 1.73052 23.7071 2.12104Z" fill="white"/>
</g>
<defs>
<clipPath id="clip0">
<rect width="14.485" height="31.484" fill="white" transform="translate(0 14.485) rotate(-90)"/>
</clipPath>
</defs>
</svg>
