<svg width="32" height="15" viewBox="0 0 32 15" fill="none" xmlns="http://www.w3.org/2000/svg">
<path d="M1.50049 8.74149L23.5005 8.74149C24.0528 8.74149 24.5005 8.29377 24.5005 7.74149C24.5005 7.1892 24.0528 6.74149 23.5005 6.74149L1.50049 6.74149C0.948204 6.74149 0.500488 7.18921 0.500488 7.74149C0.500488 8.29378 0.948204 8.74149 1.50049 8.74149Z" fill="#004DC9"/>
<path d="M25.6215 14.2775L31.2784 8.6206C31.6689 8.23007 31.6689 7.59691 31.2784 7.20638C30.8879 6.81586 30.2547 6.81586 29.8642 7.20638L24.2073 12.8632C23.8168 13.2538 23.8168 13.8869 24.2073 14.2775C24.5978 14.668 25.231 14.668 25.6215 14.2775Z" fill="#004DC9"/>
<path d="M24.2075 2.62053L29.8644 8.27738C30.2549 8.66791 30.8881 8.66791 31.2786 8.27738C31.6691 7.88686 31.6691 7.25369 31.2786 6.86317L25.6217 1.20631C25.2312 0.81579 24.5981 0.815791 24.2075 1.20631C23.817 1.59684 23.817 2.23 24.2075 2.62053Z" fill="#004DC9"/>
</svg>
