<svg width="32" height="15" viewBox="0 0 32 15" fill="none" xmlns="http://www.w3.org/2000/svg">
<path d="M30.9845 6.74249L8.9845 6.74249C8.43221 6.74249 7.9845 7.19021 7.9845 7.74249C7.9845 8.29478 8.43221 8.74249 8.9845 8.74249L30.9845 8.74249C31.5368 8.74249 31.9845 8.29478 31.9845 7.74249C31.9845 7.19021 31.5368 6.74249 30.9845 6.74249Z" fill="white"/>
<path d="M6.86347 1.20654L1.20662 6.86339C0.816094 7.25391 0.816094 7.88708 1.20662 8.2776C1.59714 8.66813 2.23031 8.66813 2.62083 8.2776L8.27769 2.62075C8.66821 2.23022 8.66821 1.59706 8.27769 1.20654C7.88716 0.816011 7.254 0.816011 6.86347 1.20654Z" fill="white"/>
<path d="M8.27741 12.8635L2.62056 7.2066C2.23003 6.81608 1.59687 6.81608 1.20635 7.2066C0.815821 7.59713 0.815821 8.23029 1.20635 8.62082L6.8632 14.2777C7.25372 14.6682 7.88689 14.6682 8.27741 14.2777C8.66794 13.8871 8.66794 13.254 8.27741 12.8635Z" fill="white"/>
</svg>
