<svg width="83" height="89" viewBox="0 0 83 89" fill="none" xmlns="http://www.w3.org/2000/svg">
<path d="M10.529 88.7012C8.18271 88.7012 5.91487 87.8542 4.14051 86.3152C2.36614 84.7762 1.20392 82.6481 0.866523 80.3204V80.2036C0.865923 80.157 0.861792 80.1106 0.854168 80.0647V80.0514V80.0399V80.0302V80.0249C0.841798 79.9551 0.835303 79.8843 0.834753 79.8134C0.760624 78.865 0.870053 78.2997 1.18775 77.9812C1.49045 77.6397 1.97494 77.5132 2.97658 77.5132H6.19593V77.2796C6.22523 77.0746 6.23821 76.8675 6.23476 76.6603V67.9345C6.23476 59.2166 6.23476 50.2015 6.19593 41.3155C6.18195 40.6758 6.29516 40.0396 6.52894 39.4442C6.76273 38.8488 7.11242 38.306 7.55763 37.8475C7.97557 37.4259 8.47228 37.091 9.01937 36.8619C9.56646 36.6329 10.1532 36.5141 10.7461 36.5124C10.8705 36.5124 10.9544 36.5124 11.0161 36.5204C16.342 36.5593 21.7376 36.5593 26.9558 36.5593H34.1482C32.7156 35.3189 31.6034 33.7498 30.9062 31.9855C30.2091 30.2213 29.9477 28.3142 30.1443 26.4268C30.3934 23.5415 31.7609 20.869 33.9532 18.9829C36.0711 17.0795 38.8115 16.0204 41.6559 16.006C44.5002 15.9917 47.2511 17.0231 49.3881 18.905C50.6607 20.0023 51.6759 21.3677 52.3613 22.9037C53.0467 24.4398 53.3854 26.1086 53.3531 27.791C53.3432 29.4574 52.9772 31.1022 52.2798 32.6149C51.5825 34.1275 50.57 35.4728 49.3104 36.5602H72.6728C74.879 36.5602 76.3978 37.5175 77.0659 39.3276C77.3164 40.0541 77.436 40.8195 77.4189 41.588V77.5574H80.9568C81.751 77.5574 82.2038 77.676 82.4314 77.9432C82.7605 78.3913 82.9003 78.9513 82.8206 79.502C82.716 81.9046 81.7142 84.18 80.0141 85.8767C78.3139 87.5733 76.0397 88.5673 73.6426 88.6614H50.0058C37.1213 88.6614 23.8035 88.6614 10.7029 88.7003H10.5264L10.529 88.7012ZM35.3599 84.4962C35.9819 85.0494 36.7849 85.3541 37.6164 85.3526H37.6491C39.0611 85.372 40.8049 85.3818 42.839 85.3818C44.8732 85.3818 46.6188 85.372 48.029 85.3526C48.9354 85.3345 49.802 84.9761 50.4573 84.3481C51.1127 83.7201 51.509 82.8684 51.5678 81.9615C51.5689 81.8669 51.575 81.7723 51.5864 81.6784V81.6695C51.5983 81.5724 51.6051 81.4746 51.6067 81.3767V81.1431H79.1724C79.2419 80.9416 79.2939 80.7344 79.3277 80.5238H50.5944V80.7574C50.5932 80.8553 50.5868 80.9531 50.575 81.0502C50.5635 81.1469 50.5571 81.244 50.5556 81.3413C50.5065 82.2515 50.1133 83.1088 49.4561 83.7388C48.7989 84.3688 47.9269 84.724 47.0177 84.7324C45.5986 84.7518 43.8477 84.7616 41.8109 84.7616C39.7741 84.7616 38.0382 84.7518 36.636 84.7324H36.5927C36.1706 84.7312 35.7525 84.6507 35.3599 84.4953V84.4962ZM4.32856 80.4778V80.5557C4.32849 80.6037 4.33593 80.6515 4.35063 80.6972C4.36044 80.7258 4.36609 80.7556 4.36739 80.7857C4.59584 81.7263 5.02767 82.605 5.63232 83.3598C6.23698 84.1146 6.99969 84.7269 7.8665 85.1535C6.64895 84.2148 5.77422 82.8997 5.37786 81.4121C5.34653 81.3381 5.33351 81.2577 5.33991 81.1776V81.1007H33.0592C33.0269 80.9736 33.0138 80.8424 33.0204 80.7114V80.477L4.32856 80.4778ZM36.0915 80.5601C36.0156 81.1378 36.05 81.4528 36.2079 81.612C36.4497 81.7461 36.7215 81.8164 36.9978 81.8164C37.0582 81.8167 37.1187 81.8132 37.1787 81.8058H46.5879C47.0953 81.8058 47.3654 81.727 47.5207 81.5324C47.6637 81.3555 47.6866 81.0741 47.6001 80.5592L36.0915 80.5601ZM11.055 39.5169C9.55913 39.5169 9.14965 39.9274 9.14965 41.4261V77.5167H9.96597V42.0507C9.96597 40.5511 10.3754 40.1406 11.8704 40.1406H25.7106L25.8271 40.0247C25.9856 39.846 26.1545 39.6767 26.3328 39.5178L11.055 39.5169ZM12.7653 74.9051C13.03 75.397 13.5657 75.6067 14.555 75.6067H70.8072C72.3189 75.6067 72.829 75.0953 72.829 73.5798V44.5447C72.829 43.4122 72.5254 42.8593 71.7797 42.6346C71.9568 43.0535 72.0365 43.5073 72.0127 43.9617V72.9968C72.0127 74.5123 71.5026 75.0227 69.9918 75.0227H13.7395H13.6442C13.3459 75.0245 13.0489 74.9843 12.7617 74.9033L12.7653 74.9051ZM14.7067 44.9357V72.0227H15.5231V45.7549H21.3546C21.3899 45.6189 21.4421 45.4878 21.5099 45.3648C21.5461 45.2931 21.5823 45.2294 21.6158 45.1702L21.622 45.1587L21.6264 45.1498L21.645 45.1171L21.6652 45.0808L21.6802 45.0534L21.6935 45.0286L21.7094 44.9994L21.7429 44.9348L14.7067 44.9357ZM20.8136 63.8392C21.0413 64.5204 21.547 64.7743 22.6801 64.7743H62.802C64.0287 64.7743 64.552 64.2621 64.552 63.0598V61.6531C64.552 60.8392 64.552 60.0606 64.5591 59.2299V58.8318C64.5679 56.9916 64.5767 55.0904 64.5503 53.0812C64.533 50.6869 63.9748 48.3276 62.9176 46.1805C62.8823 46.056 62.83 45.9369 62.7623 45.8266L62.7235 45.7488H69.0589V44.9322H61.9045L61.9434 45.01C61.9657 45.0722 61.9922 45.1328 62.0228 45.1914L62.029 45.2038L62.0351 45.217C62.0597 45.2641 62.081 45.3129 62.0987 45.363C63.1595 47.5088 63.7176 49.869 63.7304 52.2637V62.2405C63.7304 63.4101 63.1744 63.9551 61.9813 63.9551H21.7623C21.4435 63.9548 21.1258 63.9158 20.8163 63.8392H20.8136ZM54.9037 51.9886C54.8798 51.9886 54.8551 51.9886 54.8313 51.9886C55.0173 52.1078 55.1737 52.2683 55.2882 52.4575C55.4028 52.6468 55.4726 52.8598 55.4923 53.0803C55.5261 53.3256 55.5391 53.5733 55.5311 53.8208C55.5708 55.1788 55.5708 56.5165 55.5311 57.9126V61.0338H56.3474V54.0163C56.3554 53.7688 56.3424 53.5211 56.3086 53.2758C56.2785 52.9236 56.1172 52.5956 55.8569 52.3571C55.5966 52.1186 55.2563 51.9871 54.9037 51.9886V51.9886ZM30.3993 51.9886C30.372 51.9886 30.3411 51.9886 30.2987 51.9886C30.4838 52.0993 30.6401 52.2523 30.755 52.4351C30.8698 52.6179 30.94 52.8254 30.9597 53.0405C30.9923 53.312 31.0053 53.5855 30.9986 53.8588V60.9904H31.8149V54.0897C31.8216 53.8164 31.8086 53.5429 31.776 53.2714C31.7523 52.9215 31.597 52.5937 31.3414 52.3543C31.0859 52.1148 30.7491 51.9816 30.3993 51.9815V51.9886ZM35.5593 39.4789C32.6965 39.4692 29.9155 40.4361 27.6734 42.2208C25.4313 44.0054 23.8615 46.5016 23.222 49.2991C22.7238 52.1678 22.5934 55.0885 22.8337 57.9904C22.8743 59.0025 22.9113 59.9934 22.9113 60.9913H23.7276C23.7276 60.0509 23.6871 59.0715 23.6509 58.2072V58.185C23.4121 55.2837 23.5426 52.3638 24.0392 49.4955C24.7023 46.6993 26.2866 44.2089 28.5361 42.427C30.7855 40.645 33.5686 39.6755 36.4356 39.6753H38.9305V39.4806H35.5858L35.5593 39.4789ZM47.3539 39.4833C46.9541 39.4833 46.5394 39.4965 46.1184 39.5231C45.6507 39.562 45.1574 39.562 44.6799 39.562V40.3025L44.8741 42.7576C45.0585 44.8959 45.243 47.0696 45.4556 49.599V49.6193L45.5307 50.504V50.5209C45.6586 52.039 45.7901 53.5899 45.9207 55.1169C45.9792 55.5015 45.9424 55.8947 45.8136 56.2617C45.6847 56.6287 45.4679 56.9584 45.1821 57.2216L43.8989 58.508C43.5927 58.7787 43.3076 59.0618 42.9661 59.4042C42.6617 59.7076 42.2646 59.8998 41.8383 59.95C42.1487 60.1406 42.5183 60.2098 42.8764 60.1445C43.2345 60.0793 43.5561 59.884 43.7798 59.5962C44.0745 59.3422 44.3684 59.0468 44.6526 58.761L44.6676 58.746L44.7126 58.7008C44.9773 58.408 45.2897 58.1054 45.5395 57.8621L45.5712 57.8312L45.6498 57.7542C45.761 57.6463 45.8792 57.5304 45.9949 57.4154C46.2807 57.1522 46.4976 56.8225 46.6265 56.4555C46.7553 56.0885 46.792 55.6953 46.7335 55.3106L46.5764 53.4528L46.5641 53.3086C46.5246 52.8308 46.4843 52.3528 46.4432 51.8745L46.4299 51.7099V51.7055C46.1781 48.7152 45.9298 45.7989 45.6851 42.9566L45.4909 40.5016V39.7611H45.5209C45.7539 39.7611 45.9984 39.7513 46.2102 39.7416H46.2367C46.3902 39.7354 46.6779 39.723 46.9294 39.723C47.346 39.6965 47.7598 39.6832 48.1587 39.6832C48.8664 39.6835 49.5734 39.7228 50.2767 39.8009C50.6583 39.8442 51.0374 39.9071 51.4125 39.9893H51.4302H51.4434C50.7921 39.814 50.1296 39.684 49.4604 39.6001C48.7609 39.5223 48.0577 39.4827 47.3539 39.4815V39.4833ZM41.8427 41.1536L41.8065 41.5331V41.5393V41.5544C41.585 43.8174 41.4191 45.6488 41.3008 47.1546L41.2938 47.2368L41.2841 47.3465L41.2761 47.435L41.2664 47.5412L41.2611 47.6004L41.2532 47.6889C41.1093 49.3194 40.9117 51.5533 40.684 53.6987C40.5828 54.1317 40.6056 54.5846 40.7499 55.0051C40.8942 55.4257 41.154 55.7969 41.4994 56.0759C41.3012 55.797 41.1613 55.4808 41.088 55.1464C41.0148 54.8119 41.0097 54.466 41.0732 54.1296C41.2567 52.3867 41.4094 50.7049 41.5903 48.6869L41.6018 48.5674V48.5621C41.6312 48.2348 41.6606 47.9086 41.69 47.5836L41.7218 47.2351V47.2041L41.7289 47.1289V47.1103L41.7368 47.0218L41.743 46.9458L41.7544 46.8175C41.8295 45.9876 41.9415 44.734 42.0739 43.5273C42.0386 43.2097 42.0139 42.908 41.9786 42.486V42.47C41.9459 42.0799 41.9186 41.7552 41.8815 41.4225C41.8514 41.3363 41.8382 41.2449 41.8427 41.1536ZM57.5415 39.5169C57.4641 39.5169 57.3873 39.5307 57.3147 39.5576C57.5043 39.7038 57.686 39.8601 57.8592 40.0256C57.9606 40.1194 58.063 40.2123 58.1645 40.3043L58.2307 40.3636L58.2395 40.3715L58.2483 40.3795L58.2572 40.3874C58.6102 40.7112 58.9843 41.0457 59.3365 41.427C59.4966 41.6293 59.7137 41.7788 59.9595 41.8561L59.7945 41.7083C59.3735 41.3243 59.0408 41.0209 58.6393 40.6511C58.5625 40.5892 58.4901 40.5255 58.416 40.46L58.3975 40.4441L58.3851 40.4334L58.3763 40.4255C58.2942 40.3521 58.1998 40.2662 58.0939 40.184C58.1777 40.158 58.2648 40.1443 58.3525 40.1433H58.3931H73.5676C73.8157 40.1462 74.0629 40.172 74.3063 40.2202C74.0848 39.7354 73.6056 39.5187 72.7513 39.5187H57.545L57.5415 39.5169ZM33.0618 27.6689C33.0332 29.2958 33.4631 30.8977 34.302 32.2905C35.141 33.6834 36.3549 34.8107 37.8044 35.5428C36.285 34.4712 35.1434 32.9445 34.5435 31.1819C33.9435 29.4193 33.916 27.5115 34.465 25.7323C35.0139 23.9531 36.1111 22.394 37.5989 21.2788C39.0868 20.1637 40.8888 19.5498 42.7464 19.5252H42.854C44.1954 19.5256 45.5173 19.8462 46.7106 20.4604C45.2856 19.4435 43.5794 18.8985 41.8303 18.9015H41.728C39.4263 18.9371 37.23 19.8748 35.6095 21.5139C33.989 23.153 33.0733 25.363 33.0583 27.6707V27.6707L33.0618 27.6689Z" fill="#F4F4F4"/>
<path d="M61.0466 26.3058C60.9015 26.2955 60.758 26.2694 60.6186 26.2279C60.2931 26.1264 60.0119 25.9167 59.8212 25.6336C59.6305 25.3504 59.5416 25.0105 59.5693 24.67V20.1093H57.2748C57.2236 20.1093 57.1671 20.1093 57.0983 20.1093C55.95 20.1123 54.8455 19.6683 54.0175 18.8707C53.5876 18.4552 53.245 17.9576 53.01 17.4073C52.7749 16.8569 52.6521 16.265 52.6487 15.6663C52.5728 12.2938 52.5728 8.86473 52.6487 5.18259C52.6982 4.04809 53.1751 2.97464 53.9833 2.17892C54.7914 1.3832 55.8706 0.924467 57.003 0.895307C58.2473 0.85638 59.5119 0.85638 60.7351 0.85638H77.9967C78.1185 0.843994 78.2297 0.843994 78.3365 0.843994C78.9655 0.844207 79.5876 0.974489 80.1641 1.22669C80.7406 1.4789 81.2589 1.84761 81.6868 2.30977C82.1147 2.77193 82.4429 3.3176 82.6508 3.91268C82.8588 4.50776 82.9421 5.13945 82.8955 5.76826C82.8955 9.1151 82.8955 12.277 82.8558 15.3549C82.9 15.969 82.8176 16.5857 82.6136 17.1665C82.4096 17.7472 82.0884 18.2796 81.6701 18.7305C81.2518 19.1813 80.7453 19.5409 80.1822 19.7868C79.6191 20.0327 79.0116 20.1597 78.3974 20.1598C78.2897 20.1598 78.1812 20.1598 78.0744 20.1474H75.5857C73.2736 20.1474 70.882 20.1474 68.5099 20.1863C68.1234 20.2129 67.7557 20.3629 67.4606 20.6145C66.6293 21.3983 65.7891 22.2229 64.9772 23.02L64.9331 23.0634C64.5448 23.4447 64.0938 23.887 63.6552 24.3134C63.432 24.5373 63.2043 24.7558 62.9845 24.9672L62.9563 24.9938L62.9148 25.0336C62.6986 25.2415 62.4736 25.4574 62.2547 25.6777C62.1053 25.8578 61.9214 26.0061 61.7139 26.114C61.5064 26.2219 61.2795 26.2871 61.0466 26.3058V26.3058ZM62.4074 18.1214C62.4896 18.3862 62.529 18.6625 62.5239 18.9397V21.24L62.7957 21.4293C62.9656 21.2132 63.1471 21.0065 63.3393 20.81V19.7581C63.3932 19.4197 63.3302 19.0729 63.1608 18.7753C62.9913 18.4776 62.7255 18.2469 62.4074 18.1214V18.1214ZM57.1009 3.80952C56.8849 3.80963 56.6715 3.85612 56.4749 3.94588C56.2784 4.03564 56.1033 4.16659 55.9615 4.32989C55.8197 4.49319 55.7144 4.68506 55.6528 4.89258C55.5911 5.1001 55.5746 5.31845 55.6042 5.53293V15.3532C55.5578 15.6906 55.6239 16.0339 55.7923 16.3298C55.9607 16.6256 56.2219 16.8574 56.5352 16.989C56.4525 16.7246 56.4132 16.4485 56.4188 16.1715V6.35305C56.3888 6.13819 56.4052 5.91938 56.4669 5.71144C56.5287 5.50349 56.6342 5.31127 56.7765 5.14777C56.9187 4.98428 57.0943 4.85333 57.2915 4.76378C57.4886 4.67424 57.7026 4.62819 57.919 4.62876C57.978 4.62903 58.0369 4.63258 58.0955 4.63938H79.099C79.3466 4.63952 79.5927 4.67924 79.8279 4.75704C79.7021 4.44698 79.4776 4.18724 79.1894 4.01815C78.9012 3.84906 78.5654 3.78008 78.2341 3.82191H57.2757C57.2177 3.81458 57.1594 3.81045 57.1009 3.80952V3.80952Z" fill="#F4F4F4"/>
<path d="M21.5144 45.5609C21.3202 45.9899 21.1614 46.3792 20.9698 46.7694C20.207 48.7302 19.8373 50.8226 19.8817 52.9269V62.1632C19.8817 63.7221 20.3097 64.1512 21.8647 64.1512H61.9848C63.1903 64.1512 63.734 63.6053 63.734 62.4366V52.4589C63.7247 50.0636 63.1661 47.7025 62.1013 45.5582C62.0625 45.4414 61.9848 45.3246 61.946 45.2043L61.9072 45.1265H69.0554V72.2135H14.75V45.1318H21.787C21.6824 45.2656 21.5911 45.4093 21.5144 45.5609V45.5609Z" fill="#F7F8FB"/>
<path d="M41.9995 18.9038C44.2696 18.9025 46.4487 19.7986 48.064 21.3978C48.8949 22.232 49.5528 23.2229 49.9998 24.3133C50.4468 25.4037 50.674 26.572 50.6682 27.7509C50.6646 30.0687 49.7471 32.2912 48.1158 33.9338C46.4846 35.5764 44.2718 36.506 41.9597 36.52C40.8107 36.5223 39.6728 36.2951 38.6123 35.8518C37.5518 35.4085 36.59 34.7579 35.783 33.938C34.976 33.1181 34.3399 32.1453 33.9119 31.0763C33.4839 30.0074 33.2725 28.8637 33.2901 27.7119C33.2957 25.4014 34.2085 23.1859 35.831 21.5449C37.4534 19.9038 39.6551 18.969 41.9597 18.9427C41.9597 18.9038 41.9597 18.9038 41.9995 18.9038Z" fill="#F7F8FB"/>
<path d="M10.8375 85.7435C7.84402 85.7435 5.50981 83.9113 4.57789 80.7936C4.57789 80.7157 4.53906 80.6768 4.53906 80.5591V80.4822H33.23V80.7157C33.23 80.9493 33.2688 81.1448 33.2688 81.335C33.3099 82.2483 33.7005 83.1106 34.3594 83.7426C35.0183 84.3747 35.8948 84.7279 36.8067 84.7288C40.2282 84.7677 43.7273 84.7677 47.1867 84.7288C48.0967 84.7214 48.9696 84.3661 49.6271 83.7354C50.2846 83.1047 50.6772 82.2461 50.7246 81.335C50.7246 81.1404 50.7635 80.9458 50.7635 80.7502V80.5158H79.4932C79.3015 81.5914 78.8324 82.5979 78.1324 83.4353C77.5584 84.1831 76.8142 84.7821 75.9619 85.1823C75.1096 85.5825 74.1741 85.7722 73.2336 85.7355L10.8375 85.7435Z" fill="#CCEFFF"/>
<path d="M25.7949 40.0265C25.1339 40.6458 24.5117 41.2739 23.8534 41.8578C23.6809 41.9276 23.494 41.9544 23.3089 41.9357H13.7064C12.1514 41.9357 11.6458 42.4426 11.6458 44.0006V72.9614C11.6458 74.5202 12.1514 75.0272 13.6676 75.0272H69.9224C71.4386 75.0272 71.9443 74.5202 71.9443 73.0003V43.9643C71.9443 42.4833 71.4386 41.9374 69.9613 41.9374H60.553C60.3212 41.9492 60.0897 41.9099 59.8747 41.8223C59.6597 41.7347 59.4665 41.601 59.3086 41.4305C58.8409 40.9236 58.3379 40.4927 57.8313 40.0274C57.6582 39.8619 57.4764 39.7056 57.2868 39.5593C57.4033 39.5593 57.5198 39.5204 57.5984 39.5204H72.7606C74.0437 39.5204 74.5097 39.9884 74.5097 41.2739V76.9346C74.5161 77.0787 74.5031 77.223 74.4708 77.3637V77.5194H9.15625V41.4296C9.15625 39.9486 9.54455 39.5195 11.0616 39.5195H26.3403C26.1452 39.6752 25.9899 39.8734 25.7949 40.0265Z" fill="#CCEFFF"/>
<path d="M41.4356 56.1233C40.998 55.8716 40.6525 55.4859 40.4495 55.023C40.2465 54.56 40.1968 54.044 40.3077 53.5506C40.5416 51.368 40.7357 49.1465 40.9255 47.0038C41.0808 45.0159 41.2785 42.9899 41.47 41.002C41.4637 41.0945 41.4769 41.1874 41.5088 41.2744C41.5865 42.2476 41.703 43.2624 41.7815 44.2364C41.86 45.2105 41.9368 46.1828 42.0145 47.1206C42.1698 49.3031 42.3675 51.5636 42.5978 53.785C42.6486 54.246 42.5655 54.7119 42.3586 55.1267C42.1516 55.5415 41.8296 55.8876 41.4312 56.1233H41.4356Z" fill="#E1F0F7"/>
<path d="M37.8905 39.0514H38.9786L38.8233 40.8836C38.7068 42.17 38.6291 43.4555 38.5117 44.7418L38.3952 46.3396C38.1599 49.2237 37.9266 52.1079 37.6954 54.992C37.6605 55.2855 37.6951 55.5832 37.7965 55.8608C37.8978 56.1384 38.0631 56.3882 38.2788 56.5898L39.5619 57.8761C39.9511 58.2654 40.3006 58.6556 40.6897 59.0059C40.8349 59.1797 41.0162 59.3195 41.2211 59.4154C41.4259 59.5113 41.6493 59.5611 41.8754 59.5611C42.1015 59.5611 42.3248 59.5113 42.5297 59.4154C42.7345 59.3195 42.9159 59.1797 43.061 59.0059C43.3725 58.6945 43.6788 58.3866 43.9938 58.1097L45.277 56.8233C45.5627 56.56 45.7794 56.2304 45.9082 55.8634C46.037 55.4964 46.0739 55.1033 46.0156 54.7186C45.6626 50.5871 45.3158 46.4174 44.9663 42.3637L44.7722 39.9087V39.1682C45.2381 39.1682 45.7429 39.1682 46.2106 39.1292C47.3254 39.0576 48.4442 39.0837 49.5544 39.2071C52.6205 39.5421 55.4576 40.9926 57.5284 43.2838C59.5993 45.5751 60.7602 48.5481 60.7913 51.6399C60.8689 53.6667 60.8689 55.7316 60.8301 57.7195V60.3737C60.8362 60.4535 60.8229 60.5337 60.7913 60.6072V60.6461H55.619V53.4358C55.6255 53.1883 55.6126 52.9407 55.5801 52.6953C55.5655 52.5073 55.5132 52.3241 55.4264 52.1568C55.3396 51.9895 55.2201 51.8414 55.075 51.7213C54.9298 51.6013 54.7621 51.5117 54.5818 51.4581C54.4014 51.4044 54.2121 51.3877 54.0252 51.4089C53.6496 51.4373 53.3003 51.6126 53.0526 51.897C52.805 52.1814 52.6788 52.552 52.7014 52.9289V60.5674H31.0864V53.4349C31.0921 53.1616 31.0791 52.8881 31.0476 52.6166C31.0321 52.4304 30.9789 52.2493 30.8912 52.0844C30.8036 51.9195 30.6833 51.7742 30.5378 51.6575C30.3922 51.5408 30.2245 51.455 30.0448 51.4054C29.8651 51.3558 29.6772 51.3435 29.4926 51.3691C29.1321 51.41 28.8001 51.5853 28.5624 51.8601C28.3247 52.1349 28.1987 52.4892 28.2094 52.8528V60.5692H23.0389C23.0389 59.5562 23.0001 58.5423 22.9612 57.5683C22.7201 54.6646 22.8506 51.742 23.3495 48.8716C24.0022 46.0689 25.5844 43.5712 27.8373 41.7872C30.0902 40.0033 32.8804 39.0387 35.7513 39.0514H37.8905Z" fill="#CCEFFF"/>
<path d="M62.5436 19.1002C62.5775 18.8622 62.5556 18.6195 62.4798 18.3914C62.404 18.1633 62.2763 17.956 62.1068 17.786C61.9373 17.6159 61.7307 17.4876 61.5032 17.4114C61.2758 17.3352 61.0337 17.313 60.7963 17.3467H57.3748C57.1327 17.3771 56.8869 17.3515 56.6561 17.2721C56.4254 17.1927 56.2158 17.0615 56.0433 16.8885C55.8708 16.7155 55.74 16.5053 55.6609 16.2739C55.5818 16.0425 55.5565 15.7961 55.5869 15.5534V5.7332C55.5548 5.50392 55.5756 5.27034 55.6477 5.05039C55.7198 4.83044 55.8412 4.62998 56.0026 4.4644C56.164 4.29883 56.3611 4.17256 56.5788 4.09528C56.7965 4.01801 57.029 3.99179 57.2583 4.01864H78.2124C78.4436 3.99103 78.6781 4.01639 78.8981 4.09279C79.1181 4.16919 79.318 4.29466 79.4827 4.45972C79.6473 4.62479 79.7725 4.82517 79.8487 5.04576C79.9249 5.26634 79.9502 5.50139 79.9227 5.7332V15.6322C79.9524 15.8678 79.9272 16.1072 79.8492 16.3315C79.7712 16.5559 79.6425 16.759 79.473 16.9251C79.3036 17.0912 79.0981 17.2157 78.8727 17.2888C78.6472 17.362 78.4079 17.3818 78.1735 17.3467H75.8023C73.2757 17.3467 70.6705 17.3467 68.0663 17.3078C67.6223 17.2695 67.1757 17.3378 66.7633 17.507C66.3509 17.6763 65.9847 17.9416 65.695 18.281C64.9952 19.0993 64.2954 19.8787 63.5956 20.6582C63.3237 20.9705 63.0511 21.2775 62.7404 21.5933L62.4686 21.4367V20.7741C62.5323 20.2182 62.5574 19.6586 62.5436 19.0993V19.1002Z" fill="#E1F0F7"/>
<path d="M9.71792 88.0812C7.37108 88.0813 5.10271 87.234 3.32811 85.6944C1.55351 84.1549 0.391407 82.0261 0.0545679 79.6977V79.5818C0.0540807 79.5343 0.049653 79.487 0.0413304 79.4403V79.4323V79.4235V79.4146V79.4031C0.0289593 79.3336 0.0224646 79.2632 0.0219155 79.1925C-0.0513319 78.2433 0.0572154 77.6779 0.374915 77.3603C0.675847 77.0188 1.16034 76.8923 2.16286 76.8923H5.38309V76.6579C5.4134 76.4529 5.42639 76.2457 5.42192 76.0386V67.3118C5.42192 58.594 5.42192 49.5788 5.38309 40.6928C5.36934 40.053 5.48264 39.4168 5.71642 38.8213C5.95019 38.2257 6.29976 37.6828 6.74479 37.2239C7.16291 36.8024 7.65979 36.4676 8.20704 36.2387C8.75428 36.0098 9.34116 35.8912 9.93414 35.8898C10.0489 35.8898 10.138 35.8898 10.2051 35.8977C15.5318 35.9367 20.9274 35.9367 26.1447 35.9367H33.3371C31.9038 34.6966 30.7911 33.1274 30.0937 31.3629C29.3964 29.5984 29.1351 27.6909 29.3323 25.8033C29.5821 22.9181 30.9494 20.2459 33.1412 18.3594C35.2591 16.4559 37.9995 15.3968 40.8439 15.3825C43.6883 15.3681 46.4392 16.3995 48.5761 18.2815C49.8487 19.3788 50.864 20.7442 51.5495 22.2802C52.2351 23.8162 52.574 25.485 52.542 27.1675C52.5316 28.834 52.1654 30.4789 51.4679 31.9916C50.7704 33.5044 49.7579 34.8499 48.4984 35.9376H71.8599C74.0662 35.9376 75.5858 36.8939 76.253 38.704C76.5048 39.4302 76.6243 40.1959 76.606 40.9645V76.9348H80.1439C80.9382 76.9348 81.39 77.0551 81.6204 77.324C81.9508 77.7715 82.0904 78.3322 82.0087 78.8829C81.9042 81.2855 80.9024 83.5609 79.2022 85.2575C77.5021 86.954 75.2277 87.9477 72.8307 88.0414H49.193C36.3085 88.0414 22.9898 88.0414 9.88913 88.0803H9.71792V88.0812ZM21.4084 85.128C24.9463 85.128 28.5566 85.1369 32.1316 85.1537H72.175C72.2518 85.1537 72.3285 85.1581 72.4053 85.1581C73.3071 85.1552 74.1963 84.9462 75.0053 84.5468C75.8143 84.1474 76.5217 83.5683 77.0737 82.8535C77.7734 82.0158 78.2425 81.0094 78.4345 79.9339H49.7048V80.1684C49.7035 80.2663 49.697 80.364 49.6854 80.4612C49.6766 80.5497 49.666 80.6523 49.666 80.7532C49.6162 81.6632 49.2227 82.5202 48.5654 83.1499C47.9081 83.7796 47.0363 84.1348 46.1272 84.1434C44.3666 84.1628 42.6157 84.1725 40.9204 84.1725C39.2251 84.1725 37.4857 84.1628 35.7454 84.1434C34.8336 84.1442 33.9566 83.7921 33.2974 83.1605C32.6382 82.5288 32.2478 81.6664 32.2075 80.7532C32.2075 80.6567 32.1978 80.5576 32.189 80.4709C32.1793 80.3692 32.1687 80.2542 32.1687 80.1294V79.8959H3.48043V79.9737C3.48035 80.0218 3.48779 80.0696 3.50249 80.1153C3.51239 80.1438 3.51804 80.1736 3.51926 80.2038C4.44676 83.3002 6.7845 85.1581 9.77793 85.1581C13.6247 85.1386 17.5377 85.128 21.4084 85.128V85.128ZM35.283 79.9375C35.2062 80.5161 35.2407 80.831 35.3995 80.9894C35.6952 81.1535 36.0344 81.2215 36.3703 81.184H45.7786C46.2869 81.184 46.5569 81.1053 46.7123 80.9106C46.8517 80.7682 46.8755 80.4683 46.7917 79.9375H35.283ZM10.2483 38.896C8.75247 38.896 8.34299 39.3065 8.34299 40.8052V76.8941H73.6558V76.7384C73.6886 76.5984 73.7016 76.4546 73.6946 76.3111V40.6486C73.6946 39.3702 73.2207 38.8951 71.9455 38.8951H56.7833C56.7445 38.8967 56.7058 38.9015 56.6677 38.9093H56.6562H56.6404H56.6324H56.6236C56.5732 38.9186 56.5221 38.9239 56.4709 38.9252C56.6603 39.0714 56.8417 39.2277 57.0145 39.3932C57.1416 39.5112 57.2684 39.6268 57.3949 39.74C57.777 40.0859 58.1371 40.4115 58.4918 40.7964C58.6407 40.9568 58.8208 41.0848 59.021 41.1724C59.2213 41.2601 59.4374 41.3055 59.6559 41.3059H59.737H69.1462C70.6103 41.3059 71.1283 41.8368 71.1283 43.3328V72.3741C71.1283 73.8896 70.6183 74.401 69.1065 74.401H12.8526C12.5727 74.4354 12.2889 74.4134 12.0176 74.3364C11.7463 74.2594 11.4932 74.1288 11.2729 73.9524C10.9196 73.4921 10.7611 72.9108 10.8316 72.3343V43.3788C10.8316 41.8147 11.3329 41.313 12.8923 41.313H22.4974C22.5355 41.317 22.5738 41.3188 22.6121 41.3183C22.7591 41.3191 22.9049 41.2908 23.041 41.2352C23.4778 40.8486 23.882 40.4593 24.31 40.047L24.3321 40.0258L24.3709 39.9877C24.5563 39.8108 24.7663 39.6055 24.9825 39.4038C25.1742 39.2449 25.3571 39.0757 25.5305 38.8969L10.2483 38.896ZM13.9371 44.3095V71.3948H68.2496V44.3095H61.0961L61.1349 44.3874C61.1569 44.4481 61.1831 44.5073 61.2135 44.5643C61.243 44.6214 61.2684 44.6805 61.2894 44.7413C62.3513 46.8866 62.9097 49.247 62.922 51.642V61.6179C62.922 62.7883 62.366 63.3333 61.1729 63.3333H21.0527C19.496 63.3333 19.0706 62.906 19.0706 61.3454V52.1082C19.024 50.0038 19.3938 47.9109 20.1588 45.9506C20.285 45.6914 20.3953 45.4393 20.5118 45.1827C20.5744 45.0394 20.6388 44.8925 20.7068 44.7404C20.7834 44.5866 20.8753 44.4411 20.9813 44.306L13.9371 44.3095ZM53.3601 51.2102C53.7127 51.21 54.0525 51.3432 54.3114 51.5831C54.5704 51.8231 54.7296 52.1521 54.7571 52.5045C54.79 52.7499 54.803 52.9976 54.7959 53.245V60.4554H59.9665V60.4111C59.9971 60.3383 60.0098 60.2591 60.0036 60.1802V57.5261C60.0477 55.2666 60.0353 53.2795 59.9647 51.4464C59.9327 48.3559 58.7723 45.3842 56.7029 43.0931C54.6336 40.8021 51.7986 39.3505 48.7341 39.0128C48.0331 38.9345 47.3284 38.8955 46.6231 38.896C46.226 38.896 45.8112 38.9093 45.3876 38.9358C44.9199 38.9739 44.4257 38.9739 43.9483 38.9739V39.7144L44.1433 42.1703C44.3313 44.3555 44.529 46.6823 44.7478 49.2745V49.309L44.814 50.0858V50.1141C44.9375 51.5844 45.0629 53.0575 45.1882 54.5243C45.2468 54.9091 45.2101 55.3024 45.0812 55.6696C44.9524 56.0368 44.7355 56.3666 44.4495 56.6299L43.1664 57.9163C42.8522 58.1932 42.538 58.5081 42.2336 58.8125C42.0884 58.9862 41.907 59.1258 41.7021 59.2216C41.4973 59.3175 41.274 59.3671 41.0479 59.3671C40.8219 59.3671 40.5986 59.3175 40.3937 59.2216C40.1889 59.1258 40.0075 58.9862 39.8623 58.8125C39.6276 58.5993 39.406 58.3701 39.1916 58.1498L39.1634 58.1206L39.136 58.0923L39.1095 58.064C38.9613 57.9101 38.8536 57.7986 38.7362 57.6809L37.4593 56.3946C37.244 56.1928 37.0791 55.9432 36.9778 55.6658C36.8765 55.3884 36.8416 55.0911 36.8759 54.7977C37.1548 51.3111 37.3772 48.5623 37.5757 46.1453L37.6914 44.5475C37.7505 43.8937 37.8026 43.2107 37.8467 42.6215V42.5985L37.8555 42.4826V42.4508C37.8917 41.9695 37.9437 41.3104 37.9976 40.6902L38.1529 38.8589H37.0692L34.9309 38.8633H34.8762C32.0123 38.854 29.2304 39.8208 26.9868 41.6052C24.7433 43.3896 23.1714 45.8856 22.5292 48.6835C22.031 51.5522 21.9002 54.4729 22.14 57.3748V57.4102V57.4642V57.4916C22.1709 58.2772 22.2132 59.3495 22.2132 60.3758H27.3838V52.6576C27.3756 52.2937 27.5035 51.9399 27.7425 51.6658C27.9814 51.3917 28.314 51.2172 28.6749 51.1766C28.7368 51.1675 28.7994 51.1633 28.862 51.1642C29.2061 51.1637 29.5379 51.2932 29.7912 51.5268C30.0445 51.7604 30.2008 52.081 30.229 52.4249C30.2612 52.6961 30.2741 52.9693 30.2678 53.2424V60.3749H51.8846V52.7354C51.8636 52.359 51.9903 51.9892 52.2377 51.7052C52.485 51.4212 52.8334 51.2454 53.2083 51.2155C53.2719 51.2102 53.3222 51.2102 53.3628 51.2102H53.3601ZM41.0298 40.5725L40.9928 40.9636V40.9963V41.0025L40.9804 41.1246L40.9734 41.1971L40.9592 41.3413C40.803 42.9745 40.6257 44.8235 40.4898 46.5744L40.4536 46.9787V47.0149C40.4371 47.1954 40.4206 47.3768 40.4042 47.559L40.3927 47.69L40.3812 47.8112V47.8165L40.3706 47.9315V47.9695L40.3618 48.0642C40.21 49.7239 40.0538 51.4376 39.8729 53.1221C39.7597 53.6155 39.8083 54.1323 40.0115 54.5958C40.2147 55.0593 40.5616 55.4447 41.0007 55.6948C41.4104 55.4716 41.7418 55.1279 41.9505 54.7099C42.1591 54.2919 42.2348 53.8199 42.1674 53.3574C41.9362 51.1209 41.7403 48.879 41.5841 46.6929C41.5373 46.1249 41.4879 45.518 41.4376 44.8881L41.4173 44.6448V44.6377L41.3502 43.8088C41.3087 43.293 41.2619 42.7799 41.2152 42.3455C41.1781 41.9686 41.1269 41.4033 41.0775 40.8468C41.0429 40.7596 41.0267 40.6663 41.0298 40.5725V40.5725ZM40.9963 18.3178C40.9698 18.3178 40.9442 18.3178 40.9407 18.3284C40.9372 18.339 40.9407 18.3434 40.9575 18.3558C38.6559 18.3914 36.4597 19.3292 34.8393 20.9683C33.219 22.6074 32.3034 24.8174 32.2887 27.125C32.2711 28.2754 32.482 29.4177 32.9089 30.4856C33.3359 31.5536 33.9705 32.5257 34.7757 33.3454C35.5809 34.1652 36.5407 34.8162 37.5993 35.2606C38.6578 35.705 39.794 35.9339 40.9416 35.934H40.9566C43.2671 35.9143 45.4768 34.9827 47.107 33.3412C48.7371 31.6996 49.6565 29.4803 49.666 27.1639C49.6708 24.7844 48.7343 22.5001 47.0617 20.8118C45.4508 19.2093 43.2719 18.3124 41.0025 18.3178H40.9963Z" fill="#2F80ED"/>
<path d="M60.2339 25.6842C60.0891 25.6739 59.9459 25.6478 59.8067 25.6064C59.4813 25.5048 59.2001 25.2951 59.0094 25.012C58.8186 24.7288 58.7298 24.3889 58.7574 24.0484V19.4877H56.4629C56.4056 19.4877 56.3473 19.4877 56.2864 19.4877C55.1382 19.4907 54.0336 19.0467 53.2056 18.2492C52.7758 17.8336 52.4333 17.336 52.1982 16.7856C51.9631 16.2353 51.8403 15.6434 51.8369 15.0448C51.7601 11.6723 51.7601 8.24314 51.8369 4.561C51.8864 3.42659 52.3633 2.35325 53.1715 1.55767C53.9797 0.762095 55.0588 0.303549 56.1911 0.27461C57.4355 0.234798 58.7001 0.234798 59.9232 0.234798H77.1849C77.297 0.222412 77.4108 0.222412 77.5229 0.222412C78.1519 0.222372 78.7741 0.352452 79.3506 0.604515C79.9271 0.856577 80.4456 1.2252 80.8735 1.68732C81.3014 2.14944 81.6296 2.69511 81.8375 3.2902C82.0454 3.88529 82.1286 4.517 82.0819 5.14579C82.0819 8.49263 82.0819 11.6537 82.0422 14.7369C82.0868 15.3511 82.0046 15.9679 81.8008 16.5489C81.5969 17.1298 81.2758 17.6623 80.8574 18.1133C80.439 18.5642 79.9323 18.9237 79.3691 19.1695C78.8058 19.4153 78.1981 19.542 77.5838 19.5417C77.477 19.5417 77.3676 19.5417 77.2608 19.5302H74.7739C72.4609 19.5302 70.0693 19.5302 67.698 19.5691C67.3114 19.5955 66.9435 19.746 66.6487 19.9982C65.7936 20.8042 64.9305 21.6517 64.0957 22.4754L64.0904 22.4807C63.6782 22.885 63.2529 23.3035 62.8399 23.7042C62.6042 23.9405 62.3642 24.1705 62.1339 24.3934C61.9035 24.6164 61.6714 24.8358 61.4411 25.0685C61.2907 25.2463 61.1065 25.3923 60.8993 25.498C60.692 25.6038 60.4658 25.6671 60.2339 25.6842V25.6842ZM60.1818 16.5116C60.3849 16.5111 60.586 16.551 60.7736 16.6291C60.9611 16.7071 61.1313 16.8218 61.2743 16.9663C61.4442 17.1364 61.5724 17.3436 61.6489 17.5717C61.7255 17.7998 61.7483 18.0426 61.7156 18.281C61.7281 18.8407 61.7021 19.4005 61.6379 19.9566V20.6193L61.9106 20.775C62.2142 20.4706 62.4772 20.1716 62.7657 19.8399C63.4532 19.0737 64.1645 18.281 64.8652 17.4627C65.1287 17.1541 65.4557 16.9065 65.8237 16.7368C66.1918 16.5671 66.5922 16.4794 66.9973 16.4797C67.0767 16.4797 67.1579 16.4797 67.2365 16.4904C69.8407 16.5293 72.4494 16.5293 74.9725 16.5293H77.3429C77.4176 16.5404 77.4932 16.546 77.5688 16.5461C77.9706 16.5462 78.3563 16.3872 78.6419 16.1037C78.8109 15.9374 78.9394 15.7343 79.0175 15.5102C79.0955 15.286 79.121 15.0468 79.092 14.8112V4.91135C79.1197 4.67942 79.0945 4.44421 79.0183 4.22347C78.9421 4.00273 78.8169 3.80223 78.6521 3.6371C78.4873 3.47197 78.2872 3.34654 78.067 3.27026C77.8468 3.19398 77.6121 3.16886 77.3808 3.19679H56.425C56.1955 3.16979 55.963 3.1959 55.7452 3.27311C55.5274 3.35032 55.3301 3.47657 55.1686 3.64216C55.0071 3.80775 54.8856 4.00827 54.8135 4.2283C54.7414 4.44832 54.7206 4.68199 54.7527 4.91135V14.7316C54.7219 14.9747 54.747 15.2217 54.8262 15.4536C54.9053 15.6855 55.0364 15.8962 55.2093 16.0695C55.3822 16.2428 55.5925 16.3741 55.8238 16.4533C56.0552 16.5325 56.3016 16.5576 56.5441 16.5266H59.9629C60.0354 16.5165 60.1086 16.5114 60.1818 16.5116V16.5116Z" fill="#2F80ED"/>
<path d="M72.4008 11.3724C72.7782 11.3704 73.1407 11.2248 73.415 10.9649C73.6893 10.7051 73.8548 10.3504 73.8781 9.9728C73.8857 9.7777 73.8542 9.58306 73.7856 9.40034C73.7169 9.21762 73.6125 9.05052 73.4785 8.90888C73.3444 8.76724 73.1834 8.65392 73.005 8.57561C72.8266 8.4973 72.6344 8.45557 72.4396 8.45288V8.45288C72.0596 8.45813 71.6966 8.6117 71.4277 8.88096C71.1587 9.15022 71.0051 9.51397 70.9994 9.89495C70.9911 10.0851 71.0211 10.275 71.0877 10.4532C71.1542 10.6315 71.256 10.7944 71.3868 10.9323C71.5176 11.0703 71.6749 11.1803 71.8491 11.2559C72.0233 11.3315 72.211 11.3712 72.4008 11.3724V11.3724Z" fill="#FF6B00"/>
<path d="M66.9652 11.3812C67.345 11.3755 67.7075 11.2217 67.9761 10.9525C68.2446 10.6833 68.398 10.3198 68.4037 9.93914C68.4042 9.74964 68.3673 9.56191 68.2952 9.38674C68.223 9.21157 68.1171 9.05241 67.9834 8.91841C67.8498 8.7844 67.691 8.6782 67.5163 8.60589C67.3415 8.53359 67.1543 8.49661 66.9652 8.49707C66.5629 8.50458 66.1767 8.65687 65.8771 8.92616C65.7397 9.06244 65.6337 9.22724 65.5667 9.40897C65.4996 9.59069 65.473 9.78495 65.4888 9.97807C65.5238 10.3515 65.6927 10.6995 65.9642 10.9576C66.2357 11.2156 66.5914 11.3661 66.9652 11.3812V11.3812Z" fill="#FF6B00"/>
<path d="M62.9509 9.97978C62.9589 9.79184 62.9287 9.60423 62.8619 9.42843C62.7951 9.25262 62.6933 9.09232 62.5626 8.95733C62.4319 8.82234 62.2751 8.7155 62.1018 8.64335C61.9285 8.5712 61.7424 8.53526 61.5548 8.53772C61.1803 8.5505 60.8251 8.70734 60.5629 8.9757C60.3007 9.24405 60.1516 9.60331 60.1466 9.97892C60.1416 10.3545 60.2811 10.7176 60.536 10.9929C60.791 11.2682 61.1419 11.4345 61.5159 11.4572V11.4572C61.8921 11.4234 62.2438 11.256 62.5075 10.985C62.7713 10.7141 62.9298 10.3576 62.9544 9.97978H62.9509Z" fill="#FF6B00"/>
<path d="M45.0412 39.2549H37.9106L33.8359 54.0624L38.4199 59.6791H43.5133L48.6066 56.6155L45.0412 39.2549Z" fill="#CCEFFF"/>
<path d="M37.9098 25.4557C37.9156 25.3242 37.8936 25.1929 37.8452 25.07C37.7968 24.947 37.7229 24.8348 37.6281 24.7404C37.5332 24.646 37.4195 24.5712 37.2937 24.5208C37.168 24.4703 37.0329 24.4451 36.8968 24.4469C36.6251 24.4558 36.3674 24.5655 36.1771 24.7532C35.9869 24.941 35.8787 25.1923 35.8751 25.455C35.8715 25.7178 35.9727 25.9718 36.1577 26.1644C36.3426 26.3569 36.5972 26.4733 36.8686 26.4892V26.4892C37.1415 26.4656 37.3967 26.3484 37.5881 26.1589C37.7795 25.9693 37.8945 25.7199 37.9123 25.4557H37.9098Z" fill="white"/>
<path d="M46.0563 25.4552C46.0621 25.3237 46.0401 25.1924 45.9917 25.0695C45.9433 24.9465 45.8694 24.8343 45.7745 24.7399C45.6797 24.6455 45.566 24.5707 45.4402 24.5203C45.3145 24.4698 45.1794 24.4447 45.0433 24.4464C44.7716 24.4553 44.5138 24.565 44.3236 24.7528C44.1334 24.9405 44.0252 25.1918 44.0216 25.4546C44.018 25.7173 44.1191 25.9713 44.3041 26.1639C44.4891 26.3564 44.7437 26.4728 45.0151 26.4887V26.4887C45.288 26.4651 45.5432 26.3479 45.7346 26.1584C45.926 25.9689 46.041 25.7194 46.0588 25.4552H46.0563Z" fill="white"/>
<line x1="37.1873" y1="34.3662" x2="44.755" y2="34.3662" stroke="#2F80ED" stroke-width="0.581622" stroke-linecap="round"/>
<path d="M46.0488 31.5428C46.0781 31.0169 45.9682 30.492 45.726 30C45.4839 29.5081 45.1144 29.0595 44.6403 28.6818C44.1662 28.3041 43.5974 28.0051 42.9687 27.8032C42.34 27.6013 41.6647 27.5008 40.984 27.5077C39.6254 27.5434 38.3368 27.9823 37.3856 28.7332C36.4344 29.4841 35.8936 30.4894 35.8755 31.5404C35.8573 32.5914 36.3633 33.6075 37.2883 34.3777C38.2132 35.148 39.4862 35.6132 40.8431 35.677V35.677C42.2077 35.5824 43.4836 35.1138 44.4405 34.3557C45.3974 33.5976 45.9724 32.5999 46.0616 31.5428H46.0488Z" fill="#F7F8FB"/>
<rect x="34.8535" y="23.4263" width="12.224" height="3.06363" rx="1.53182" fill="#FF6B00"/>
<rect x="40" y="16.2625" width="5.0125" height="2" rx="1" transform="rotate(-90 40 16.2625)" fill="#2F80ED"/>
</svg>
