<svg width="85" height="74" viewBox="0 0 85 74" fill="none" xmlns="http://www.w3.org/2000/svg">
<path d="M41.4025 29.1621L26.9723 41.2254" stroke="#2F80ED" stroke-width="0.974501"/>
<path d="M41.2268 30.2843L26.9582 18.7399" stroke="#2F80ED" stroke-opacity="0.5" stroke-width="0.974501"/>
<path d="M70.8279 33.6937C70.3068 34.119 69.6837 34.4563 68.9957 34.6857C68.3078 34.9151 67.569 35.0319 66.8233 35.029H66.7507C65.9201 35.0339 65.0971 34.9025 64.3329 34.6429C63.5688 34.3833 62.8798 34.001 62.3089 33.52C61.7683 33.0872 61.3463 32.5697 61.0696 32.0002C60.7929 31.4306 60.6675 30.8215 60.7013 30.2113C60.7758 29.0081 61.4041 27.8691 62.4662 27.0122C63.5282 26.1554 64.9493 25.6409 66.4574 25.5673H66.53C67.3226 25.5615 68.1085 25.6826 68.8413 25.9234C69.574 26.1641 70.2387 26.5198 70.796 26.9691C71.3532 27.4185 71.7916 27.9525 72.0852 28.5394C72.3789 29.1264 72.5217 29.7544 72.5054 30.3861C72.5604 31.0029 72.4382 31.6215 72.1479 32.1949C71.8577 32.7683 71.4044 33.2802 70.8279 33.6937Z" fill="#FF6B00"/>
<path d="M71.9049 36.1969C70.9401 37.1619 69.7327 37.8481 68.4102 38.183C66.6827 38.6246 64.8544 38.4339 63.2551 37.6454C61.6557 36.8569 60.3908 35.5225 59.6885 33.883C59.5738 33.5548 59.3533 33.2741 59.0615 33.0853C58.7698 32.8964 58.4235 32.8101 58.0773 32.8399C56.5631 32.8614 55.0055 32.8536 53.4997 32.8477C42.8642 32.9559 42.119 32.9541 41.3988 32.9535L40.9873 32.9213C40.6032 32.9382 40.2228 32.84 39.895 32.6391C39.5671 32.4383 39.3067 32.1441 39.1471 31.7941C38.9875 31.4442 38.9361 31.0546 38.9993 30.6752C39.0626 30.2959 39.2377 29.9441 39.5022 29.6649C39.5415 29.6297 39.5839 29.598 39.6289 29.5703C39.6725 29.5432 39.7137 29.5124 39.752 29.4781C40.1509 29.2007 40.6276 29.0571 41.1133 29.0682C43.3918 29.0366 55.6698 28.9237 58.0482 28.9552C58.3957 28.9934 58.7457 28.9105 59.0392 28.7205C59.3327 28.5305 59.5517 28.245 59.6593 27.9122C60.154 26.7433 60.9391 25.7202 61.94 24.9401C62.9408 24.1599 64.1244 23.6486 65.3783 23.4545C66.5602 23.2305 67.7793 23.304 68.9258 23.6683C70.0724 24.0326 71.1104 24.6764 71.9465 25.5417C73.3454 26.9648 74.1258 28.8832 74.1176 30.8792C74.1095 32.8751 73.3136 34.7871 71.9031 36.1987L71.9049 36.1969ZM63.898 28.4138C63.2827 29.1082 62.9454 30.0054 62.9509 30.9333C62.9564 31.8612 63.3043 32.7544 63.9277 33.4415C64.245 33.7884 64.6306 34.0658 65.0603 34.2562C65.49 34.4467 65.9544 34.5461 66.4244 34.5482C66.9292 34.5612 67.4313 34.4715 67.9004 34.2847C68.3696 34.0978 68.7959 33.8176 69.1536 33.4611L69.2167 33.3981C69.5369 33.0757 69.7901 32.693 69.9615 32.2721C70.1329 31.8513 70.2191 31.4005 70.2152 30.9461C70.2424 30.4703 70.1598 29.9946 69.9738 29.5559C69.7877 29.1172 69.5032 28.7272 69.1423 28.4162C68.8075 28.0673 68.4065 27.7887 67.9627 27.5967C67.519 27.4048 67.0414 27.3033 66.558 27.2983C66.0746 27.2932 65.595 27.3847 65.1473 27.5674C64.6997 27.75 64.2929 28.0202 63.9509 28.362L63.898 28.4138Z" fill="#2F80ED"/>
<rect x="11.4461" y="35.4291" width="18.1135" height="11.0254" rx="0.40107" fill="#CCEFFF" stroke="#2F80ED" stroke-width="0.80214"/>
<rect y="-0.707263" width="9.24677" height="9.24677" transform="matrix(0.706951 0.707263 -0.706951 0.707263 40.2659 24.8983)" fill="#FF6B00" stroke="#2F80ED"/>
<path d="M11.045 14.7384C11.045 14.1861 11.4928 13.7384 12.045 13.7384H28.9607C29.513 13.7384 29.9607 14.1861 29.9607 14.7384V24.5659C29.9607 25.1182 29.513 25.5659 28.9607 25.5659H12.045C11.4928 25.5659 11.045 25.1182 11.045 24.5659V14.7384Z" fill="#2F80ED"/>
<path d="M39.9149 68.2412V58.586H5.48957C4.27603 58.6787 3.06968 58.3313 2.09111 57.6073C1.11254 56.8834 0.427124 55.8312 0.160196 54.6432C0.064798 54.1689 0.0165203 53.6863 0.0160672 53.2024V5.70021C-0.0410181 4.99376 0.0544161 4.28329 0.295898 3.61698C0.53738 2.95067 0.919261 2.34411 1.41565 1.83843C1.91203 1.33274 2.51131 0.939762 3.17283 0.68614C3.83436 0.432517 4.54267 0.324183 5.24973 0.368483C10.7671 0.320043 60.4284 0.320043 65.9987 0.368483C66.3489 0.333231 66.7025 0.37141 67.0371 0.480583C67.3717 0.589756 67.6798 0.767524 67.9418 1.00254C68.2039 1.23755 68.414 1.52464 68.5589 1.84549C68.7038 2.16633 68.7803 2.51388 68.7833 2.86593C68.7759 3.22297 68.6953 3.57468 68.5465 3.8993C68.3977 4.22391 68.1839 4.51454 67.9184 4.75318C67.6528 4.99182 67.3411 5.1734 67.0026 5.28669C66.6641 5.39998 66.306 5.44257 65.9503 5.41182H5.1056V53.5427H79.7663V5.41182H63.49C62.8278 5.41081 62.1741 5.26308 61.5758 4.97925C61.1384 4.74492 60.7892 4.37438 60.5811 3.92373C60.3731 3.47309 60.3175 2.96689 60.4227 2.4818C60.5105 1.96361 60.7628 1.48751 61.1422 1.12408C61.5217 0.760661 62.0082 0.529274 62.5295 0.464235C62.88 0.422942 63.2329 0.406755 63.5857 0.415796H79.2867C82.936 0.415796 85 2.48067 85 6.08322V53.0132C85 56.618 82.936 58.6806 79.3351 58.6806H45.0055V68.2874C45.3433 68.2874 45.6811 68.3359 46.0189 68.3359H59.0186C59.4397 68.2863 59.8665 68.3341 60.2661 68.4757C60.6658 68.6173 61.0275 68.8489 61.3235 69.1526C61.6494 69.4694 61.8736 69.8761 61.9677 70.3209C62.0617 70.7656 62.0213 71.2283 61.8516 71.65C61.687 72.1057 61.3966 72.5054 61.0142 72.8027C60.6317 73.0999 60.1729 73.2827 59.6908 73.3296H25.4604C24.999 73.3502 24.5408 73.2448 24.1347 73.0247C23.7287 72.8047 23.3902 72.4782 23.1554 72.0803C22.9596 71.7324 22.851 71.3421 22.8391 70.943C22.8271 70.5438 22.9122 70.1478 23.0869 69.7887C23.2616 69.4297 23.5208 69.1184 23.8422 68.8817C24.1637 68.6449 24.5377 68.4897 24.9323 68.4294C25.2991 68.3906 25.668 68.3748 26.0369 68.382H38.7123C39.1016 68.2638 39.5088 68.2168 39.9149 68.2412Z" fill="#2F80ED"/>
</svg>
