<svg width="85" height="73" viewBox="0 0 85 73" fill="none" xmlns="http://www.w3.org/2000/svg">
<path d="M41.4042 28.8301L26.9739 40.8934" stroke="#2F80ED" stroke-width="0.974501"/>
<path d="M41.2281 29.9523L26.9596 18.4079" stroke="#2F80ED" stroke-opacity="0.5" stroke-width="0.974501"/>
<path d="M70.8273 33.3617C70.3061 33.787 69.6831 34.1243 68.9951 34.3537C68.3072 34.5831 67.5684 34.6998 66.8227 34.697H66.7501C65.9195 34.7019 65.0965 34.5704 64.3323 34.3108C63.5682 34.0512 62.8792 33.669 62.3083 33.188C61.7677 32.7552 61.3457 32.2377 61.069 31.6681C60.7923 31.0986 60.6669 30.4895 60.7007 29.8793C60.7751 28.6761 61.4035 27.537 62.4656 26.6802C63.5276 25.8233 64.9487 25.3089 66.4568 25.2353H66.5294C67.3219 25.2295 68.1079 25.3505 68.8407 25.5913C69.5734 25.8321 70.2381 26.1877 70.7953 26.6371C71.3526 27.0865 71.791 27.6205 72.0846 28.2074C72.3782 28.7944 72.5211 29.4223 72.5048 30.0541C72.5598 30.6709 72.4376 31.2895 72.1473 31.8629C71.8571 32.4363 71.4038 32.9482 70.8273 33.3617Z" fill="#FF6B00"/>
<path d="M71.9044 35.8649C70.9397 36.8299 69.7322 37.5161 68.4097 37.851C66.6822 38.2926 64.8539 38.1019 63.2546 37.3134C61.6552 36.5249 60.3903 35.1905 59.688 33.5509C59.5733 33.2228 59.3528 32.9421 59.061 32.7533C58.7693 32.5644 58.423 32.4781 58.0768 32.5079C56.5626 32.5293 55.005 32.5216 53.4992 32.5156C42.8637 32.6238 42.1185 32.622 41.3983 32.6214L40.9868 32.5893C40.6027 32.6062 40.2223 32.5079 39.8945 32.3071C39.5666 32.1063 39.3062 31.812 39.1466 31.4621C38.987 31.1122 38.9356 30.7226 38.9989 30.3432C39.0621 29.9638 39.2372 29.612 39.5017 29.3329C39.541 29.2976 39.5834 29.266 39.6284 29.2383C39.672 29.2112 39.7132 29.1803 39.7515 29.1461C40.1504 28.8686 40.6271 28.7251 41.1128 28.7361C43.3913 28.7046 55.6694 28.5917 58.0477 28.6232C58.3952 28.6614 58.7452 28.5785 59.0387 28.3884C59.3323 28.1984 59.5513 27.913 59.6588 27.5802C60.1535 26.4113 60.9386 25.3882 61.9395 24.6081C62.9404 23.8279 64.1239 23.3165 65.3778 23.1225C66.5597 22.8985 67.7788 22.9719 68.9253 23.3363C70.0719 23.7006 71.1099 24.3444 71.946 25.2097C73.3449 26.6328 74.1253 28.5512 74.1172 30.5471C74.109 32.5431 73.3131 34.455 71.9026 35.8667L71.9044 35.8649ZM63.8975 28.0817C63.2822 28.7761 62.945 29.6734 62.9504 30.6013C62.9559 31.5292 63.3038 32.4224 63.9272 33.1095C64.2445 33.4563 64.6301 33.7337 65.0598 33.9242C65.4895 34.1147 65.9539 34.2141 66.4239 34.2161C66.9287 34.2291 67.4308 34.1395 67.9 33.9526C68.3691 33.7658 68.7954 33.4856 69.1531 33.1291L69.2162 33.066C69.5364 32.7437 69.7896 32.361 69.961 31.9401C70.1324 31.5192 70.2186 31.0685 70.2147 30.614C70.242 30.1383 70.1593 29.6626 69.9733 29.2239C69.7872 28.7852 69.5027 28.3952 69.1418 28.0841C68.807 27.7352 68.406 27.4567 67.9622 27.2647C67.5185 27.0728 67.0409 26.9713 66.5575 26.9663C66.0741 26.9612 65.5945 27.0527 65.1468 27.2353C64.6992 27.418 64.2924 27.6881 63.9504 28.03L63.8975 28.0817Z" fill="#2F80ED"/>
<rect x="11.446" y="35.0971" width="18.1135" height="11.0254" rx="0.40107" fill="#CCEFFF" stroke="#2F80ED" stroke-width="0.80214"/>
<rect y="-0.707263" width="9.24677" height="9.24677" transform="matrix(0.706951 0.707263 -0.706951 0.707263 40.2656 24.5664)" fill="#FF6B00" stroke="#2F80ED"/>
<path d="M11.0449 14.4065C11.0449 13.8542 11.4926 13.4065 12.0449 13.4065H28.9606C29.5129 13.4065 29.9606 13.8542 29.9606 14.4065V24.234C29.9606 24.7863 29.5129 25.234 28.9606 25.234H12.0449C11.4926 25.234 11.0449 24.7863 11.0449 24.234V14.4065Z" fill="#2F80ED"/>
<path d="M39.9149 67.9091V58.2538H5.48957C4.27603 58.3465 3.06968 57.9991 2.09111 57.2752C1.11254 56.5512 0.427124 55.4991 0.160196 54.3111C0.064798 53.8368 0.0165203 53.3541 0.0160672 52.8703V5.36805C-0.0410181 4.6616 0.0544161 3.95114 0.295898 3.28483C0.53738 2.61852 0.919261 2.01196 1.41565 1.50627C1.91203 1.00059 2.51131 0.607609 3.17283 0.353986C3.83436 0.100364 4.54267 -0.00797048 5.24973 0.0363296C10.7671 -0.0121099 60.4284 -0.0121099 65.9987 0.0363296C66.3489 0.00107776 66.7025 0.0392571 67.0371 0.14843C67.3717 0.257603 67.6798 0.435371 67.9418 0.670383C68.2039 0.905396 68.414 1.19249 68.5589 1.51333C68.7038 1.83418 68.7803 2.18172 68.7833 2.53378C68.7759 2.89082 68.6953 3.24253 68.5465 3.56714C68.3977 3.89176 68.1839 4.18238 67.9184 4.42102C67.6528 4.65966 67.3411 4.84125 67.0026 4.95454C66.6641 5.06783 66.306 5.11042 65.9503 5.07967H5.1056V53.2105H79.7663V5.07967H63.49C62.8278 5.07866 62.1741 4.93093 61.5758 4.64709C61.1384 4.41277 60.7892 4.04223 60.5811 3.59158C60.3731 3.14094 60.3175 2.63474 60.4227 2.14964C60.5105 1.63146 60.7628 1.15535 61.1422 0.791931C61.5217 0.428508 62.0082 0.197121 62.5295 0.132082C62.88 0.090789 63.2329 0.0746013 63.5857 0.0836426H79.2867C82.936 0.0836426 85 2.14852 85 5.75106V52.681C85 56.2858 82.936 58.3485 79.3351 58.3485H45.0055V67.9553C45.3433 67.9553 45.6811 68.0037 46.0189 68.0037H59.0186C59.4397 67.9541 59.8665 68.002 60.2661 68.1436C60.6658 68.2852 61.0275 68.5168 61.3235 68.8204C61.6494 69.1373 61.8736 69.5439 61.9677 69.9887C62.0617 70.4335 62.0213 70.8961 61.8516 71.3179C61.687 71.7735 61.3966 72.1732 61.0142 72.4705C60.6317 72.7678 60.1729 72.9505 59.6908 72.9975H25.4604C24.999 73.0181 24.5408 72.9127 24.1347 72.6926C23.7287 72.4725 23.3902 72.1461 23.1554 71.7482C22.9596 71.4002 22.851 71.01 22.8391 70.6108C22.8271 70.2117 22.9122 69.8156 23.0869 69.4566C23.2616 69.0975 23.5208 68.7863 23.8422 68.5495C24.1637 68.3128 24.5377 68.1575 24.9323 68.0972C25.2991 68.0585 25.668 68.0427 26.0369 68.0499H38.7123C39.1016 67.9316 39.5088 67.8847 39.9149 67.9091Z" fill="#2F80ED"/>
</svg>
