<svg xmlns="http://www.w3.org/2000/svg" xmlns:xlink="http://www.w3.org/1999/xlink" viewBox="0 0 146.5 130"><defs><style>.a,.g{fill:none;}.a,.d,.g{stroke:#00b3ef;}.a,.b,.d{stroke-miterlimit:10;}.b,.d{fill:url(#a);}.c,.i{fill:#00b3ef;}.e{fill:#004dc9;}.f{opacity:0.5;}.h,.i{stroke:none;}</style><linearGradient id="a" x1="0.5" x2="0.5" y2="1" gradientUnits="objectBoundingBox"><stop offset="0" stop-color="#fff" stop-opacity="0"/><stop offset="1" stop-color="#ebf5f8"/></linearGradient></defs><g transform="translate(-810.5 -4893)"><g transform="translate(812 4895)"><circle class="a" cx="5.5" cy="5.5" r="5.5" transform="translate(3 80)"/><path class="a" d="M5.073,0C2.085,3.622,0,10.859,0,12.9c0,2.761,3.806,5,8.5,5s8.5-2.239,8.5-5c0-1.98-1.956-8.832-4.794-12.552" transform="translate(0 89.097)"/><g class="b"><path class="h" d="M 60 59.44098281860352 L 1.118030786514282 30 L 60 0.5590153932571411 L 118.881965637207 30 L 60 59.44098281860352 Z"/><path class="i" d="M 60 1.118026733398438 L 2.236053466796875 30 L 60 58.88197326660156 L 117.7639465332031 30 L 60 1.118026733398438 M 60 0 L 120 30 L 60 60 L 0 30 L 60 0 Z"/></g><path class="a" d="M120,0V10L60,40,0,10V0" transform="translate(0 30)"/><rect class="c" width="1" height="36" transform="translate(8 44)"/><path class="d" d="M0,0V22c0,9.941,17.961,18,39.5,18S79,31.941,79,22V0" transform="translate(20.5 50)"/><circle class="e" cx="2" cy="2" r="2" transform="translate(-1.5 28)"/><circle class="e" cx="2" cy="2" r="2" transform="translate(117.5 28)"/><circle class="e" cx="2" cy="2" r="2" transform="translate(-1.5 38)"/><circle class="e" cx="2" cy="2" r="2" transform="translate(117.5 38)"/><circle class="e" cx="2" cy="2" r="2" transform="translate(58 68)"/><circle class="e" cx="2" cy="2" r="2" transform="translate(6.5 78)"/><circle class="e" cx="2" cy="2" r="2" transform="translate(6.5 42)"/><circle class="e" cx="2" cy="2" r="2" transform="translate(58 57)"/><circle class="e" cx="2" cy="2" r="2" transform="translate(58 -2)"/></g><g class="f"><circle class="a" cx="10" cy="10" r="10" transform="translate(923 4982)"/><path class="a" d="M14,0V21L7,11,0,21V0H0" transform="translate(926 4999)"/><path class="g" d="M3157.086,15732.91h45.786v99.652h-14.813" transform="translate(-2248 -10825)"/><path class="g" d="M3123.15,15815.325v17.507h50.634" transform="translate(-2248 -10825)"/><circle class="e" cx="2" cy="2" r="2" transform="translate(873.5 5006)"/><circle class="e" cx="2" cy="2" r="2" transform="translate(873.5 4988)"/><circle class="e" cx="2" cy="2" r="2" transform="translate(953 5006)"/><circle class="e" cx="2" cy="2" r="2" transform="translate(953 4906)"/><circle class="e" cx="2" cy="2" r="2" transform="translate(908 4906)"/><circle class="e" cx="2" cy="2" r="2" transform="translate(923.5 5019)"/><circle class="e" cx="2" cy="2" r="2" transform="translate(938.5 5019)"/><circle class="e" cx="2" cy="2" r="2" transform="translate(931 5007)"/></g></g></svg>