<svg xmlns="http://www.w3.org/2000/svg" xmlns:xlink="http://www.w3.org/1999/xlink" viewBox="0 0 57.887 52.499"><defs><style>.a,.b,.c{fill:none;}.b,.c{stroke:#6bbdff;stroke-miterlimit:10;}.c{stroke-linecap:square;}.d{clip-path:url(#a);}.e{fill:#fff;}.f{stroke:none;}</style><clipPath id="a"><rect class="a" width="40.868" height="20.868"/></clipPath></defs><g transform="translate(-539 -4893.5)"><g transform="translate(539.981 4894)"><path class="b" d="M55.925,10.615V41.208H0V0H47.689" transform="translate(0 9.811)"/><path class="c" d="M0,1H51.509" transform="translate(0.245 15.434)"/><circle class="b" cx="2.453" cy="2.453" r="2.453" transform="translate(25.509)"/><path class="c" d="M17.66,0,0,7.849" transform="translate(8.094 2.208)"/><path class="c" d="M-36,0l17.66,7.849" transform="translate(66.17 2.208)"/><g class="d" transform="translate(7.396 23.623)"><g transform="translate(-8.396 -23.623)"><g class="b" transform="translate(8.396 23.623)"><rect class="f" width="10.868" height="10.868"/><rect class="a" x="0.5" y="0.5" width="9.868" height="9.868"/></g></g><g transform="translate(1.604 -23.623)"><g class="b" transform="translate(8.396 23.623)"><rect class="f" width="10.868" height="10.868"/><rect class="a" x="0.5" y="0.5" width="9.868" height="9.868"/></g></g><g transform="translate(11.604 -23.623)"><g class="b" transform="translate(8.396 23.623)"><rect class="f" width="10.868" height="10.868"/><rect class="a" x="0.5" y="0.5" width="9.868" height="9.868"/></g></g><g transform="translate(21.604 -23.623)"><g class="b" transform="translate(8.396 23.623)"><rect class="f" width="10.868" height="10.868"/><rect class="a" x="0.5" y="0.5" width="9.868" height="9.868"/></g></g><g transform="translate(31.604 -23.623)"><g class="b" transform="translate(8.396 23.623)"><rect class="f" width="10.868" height="10.868"/><rect class="a" x="0.5" y="0.5" width="9.868" height="9.868"/></g></g><g transform="translate(-8.396 -13.623)"><g class="b" transform="translate(8.396 23.623)"><rect class="f" width="10.868" height="10.868"/><rect class="a" x="0.5" y="0.5" width="9.868" height="9.868"/></g></g><g transform="translate(1.604 -13.623)"><g class="b" transform="translate(8.396 23.623)"><rect class="f" width="10.868" height="10.868"/><rect class="a" x="0.5" y="0.5" width="9.868" height="9.868"/></g></g><g transform="translate(11.604 -13.623)"><g class="b" transform="translate(8.396 23.623)"><rect class="f" width="10.868" height="10.868"/><rect class="a" x="0.5" y="0.5" width="9.868" height="9.868"/></g></g><g transform="translate(21.604 -13.623)"><g class="b" transform="translate(8.396 23.623)"><rect class="f" width="10.868" height="10.868"/><rect class="a" x="0.5" y="0.5" width="9.868" height="9.868"/></g></g><g transform="translate(31.604 -13.623)"><g class="b" transform="translate(8.396 23.623)"><rect class="f" width="10.868" height="10.868"/><rect class="a" x="0.5" y="0.5" width="9.868" height="9.868"/></g></g><g transform="translate(-8.396 -3.623)"><g class="b" transform="translate(8.396 23.623)"><rect class="f" width="10.868" height="10.868"/><rect class="a" x="0.5" y="0.5" width="9.868" height="9.868"/></g></g><g transform="translate(1.604 -3.623)"><g class="b" transform="translate(8.396 23.623)"><rect class="f" width="10.868" height="10.868"/><rect class="a" x="0.5" y="0.5" width="9.868" height="9.868"/></g></g><g transform="translate(11.604 -3.623)"><g class="b" transform="translate(8.396 23.623)"><rect class="f" width="10.868" height="10.868"/><rect class="a" x="0.5" y="0.5" width="9.868" height="9.868"/></g></g><g transform="translate(21.604 -3.623)"><g class="b" transform="translate(8.396 23.623)"><rect class="f" width="10.868" height="10.868"/><rect class="a" x="0.5" y="0.5" width="9.868" height="9.868"/></g></g><g transform="translate(31.604 -3.623)"><g class="b" transform="translate(8.396 23.623)"><rect class="f" width="10.868" height="10.868"/><rect class="a" x="0.5" y="0.5" width="9.868" height="9.868"/></g></g></g></g><circle class="e" cx="0.981" cy="0.981" r="0.981" transform="translate(594.924 4944.038)"/><circle class="e" cx="0.981" cy="0.981" r="0.981" transform="translate(594.924 4913.623)"/><circle class="e" cx="0.981" cy="0.981" r="0.981" transform="translate(591 4909.208)"/><circle class="e" cx="0.981" cy="0.981" r="0.981" transform="translate(586.585 4902.83)"/><circle class="e" cx="0.981" cy="0.981" r="0.981" transform="translate(569.415 4895.472)"/><circle class="e" cx="0.981" cy="0.981" r="0.981" transform="translate(564.509 4895.472)"/><circle class="e" cx="0.981" cy="0.981" r="0.981" transform="translate(547.83 4902.83)"/><circle class="e" cx="0.981" cy="0.981" r="0.981" transform="translate(539 4944.038)"/><circle class="e" cx="0.981" cy="0.981" r="0.981" transform="translate(539 4902.83)"/></g></svg>