<svg xmlns="http://www.w3.org/2000/svg" viewBox="0 0 42.962 67.962"><defs><style>.a,.c,.f{fill:none;}.b{fill:#fff;}.c{stroke:#6bbdff;}.d,.e{stroke:none;}.e{fill:#6bbdff;}</style></defs><g transform="translate(-548.444 -4891.037)"><g class="a" transform="translate(548.943 4892)"><path class="d" d="M0,0H42V48L21.682,66.4,0,48Z"/><path class="e" d="M 1 1 L 1 47.53703308105469 L 21.66071510314941 65.06781005859375 L 41 47.55644226074219 L 41 1 L 1 1 M 0 0 L 42 0 L 42 48 L 21.68213081359863 66.3974609375 L 0 48 L 0 0 Z"/></g><circle class="b" cx="0.981" cy="0.981" r="0.981" transform="translate(569.444 4957.038)"/><circle class="b" cx="0.981" cy="0.981" r="0.981" transform="translate(589.444 4891.038)"/><circle class="b" cx="0.981" cy="0.981" r="0.981" transform="translate(589.444 4939.038)"/><circle class="b" cx="0.981" cy="0.981" r="0.981" transform="translate(548.444 4891.038)"/><circle class="b" cx="0.981" cy="0.981" r="0.981" transform="translate(548.444 4939.038)"/><g class="a" transform="translate(560.944 4907.012)"><path class="d" d="M9.151,0A9.151,9.151,0,0,1,18.3,9.151c0,5.054-9.151,17.157-9.151,17.157S0,14.2,0,9.151A9.151,9.151,0,0,1,9.151,0Z"/><path class="e" d="M 9.150876045227051 0.9999942779541016 C 4.656466484069824 0.9999942779541016 0.9999961853027344 4.65632438659668 0.9999961853027344 9.15057373046875 C 0.9999961853027344 12.65463161468506 6.30012321472168 20.69167327880859 9.148359298706055 24.62182235717773 C 10.0082950592041 23.43078804016113 11.44863891601563 21.38016319274902 12.87849617004395 19.0941047668457 C 15.73087596893311 14.53370475769043 17.30175590515137 11.00235462188721 17.30175590515137 9.15057373046875 C 17.30175590515137 4.65632438659668 13.64528656005859 0.9999942779541016 9.150876045227051 0.9999942779541016 M 9.150876045227051 -5.7220458984375e-06 C 14.20476627349854 -5.7220458984375e-06 18.30175590515137 4.096855163574219 18.30175590515137 9.15057373046875 C 18.30175590515137 14.20430469512939 9.150876045227051 26.30790519714355 9.150876045227051 26.30790519714355 C 9.150876045227051 26.30790519714355 -3.814697265625e-06 14.20430469512939 -3.814697265625e-06 9.15057373046875 C -3.814697265625e-06 4.096855163574219 4.096985816955566 -5.7220458984375e-06 9.150876045227051 -5.7220458984375e-06 Z"/></g><g class="c" transform="translate(567.092 4912.48)"><ellipse class="d" cx="3.074" cy="3.074" rx="3.074" ry="3.074"/><ellipse class="f" cx="3.074" cy="3.074" rx="2.574" ry="2.574"/></g><circle class="b" cx="1.005" cy="1.005" r="1.005" transform="translate(569.143 4931.989)"/></g></svg>