<svg xmlns="http://www.w3.org/2000/svg" xmlns:xlink="http://www.w3.org/1999/xlink" viewBox="0 0 129.8 131"><defs><style>.a{fill:url(#a);}.b{fill:url(#b);}.c{clip-path:url(#c);}.d{clip-path:url(#e);}.e,.f{fill:#00b3ef;}.e{opacity:0.5;}.g{fill:#004dc9;}.h{fill:#74a0e0;}</style><linearGradient id="a" x1="1" y1="0.532" x2="0" y2="0.564" gradientUnits="objectBoundingBox"><stop offset="0" stop-color="#fff"/><stop offset="1" stop-color="#ebf5f8"/></linearGradient><linearGradient id="b" x1="0.5" y1="0" x2="0.5" y2="1" xlink:href="#a"/><clipPath id="c"><path class="a" d="M0-25.327H98.867V0H0Z"/></clipPath><clipPath id="e"><path class="b" d="M0-67.9H79.1V0H0Z"/></clipPath></defs><g transform="translate(0 129.654)"><g class="c"><g transform="translate(75.926 -25.269)"><path class="a" d="M0,0A.5.5,0,0,0-.232-.059H-68.815a7.119,7.119,0,0,0-7.111,7.111V18.158a7.119,7.119,0,0,0,7.111,7.111H-.232A.5.5,0,0,0,0,25.21L22.682,13.039a.493.493,0,0,0,0-.868Z"/></g></g></g><g transform="translate(1 68.811)"><g class="d"><g transform="translate(16.905 -10.121)"><path class="b" d="M0,0A.489.489,0,0,0-.348-.144H-6.929a9.988,9.988,0,0,1-9.976-9.977V-47.808a9.988,9.988,0,0,1,9.976-9.977H52.219A9.989,9.989,0,0,1,62.2-47.808v37.687A9.989,9.989,0,0,1,52.219-.144H20.589A.486.486,0,0,0,20.241,0l-10.12,10.12Z"/></g></g></g><path class="e" d="M129.8,41.3a11.032,11.032,0,0,0-11-11H102.1a.5.5,0,0,0,0,1h16.7a10.029,10.029,0,0,1,10,10V79a10.029,10.029,0,0,1-10,10h-3.7a1.007,1.007,0,0,0-.3.1L104.7,99.2,94.5,89.1a.367.367,0,0,0-.3-.1H59.6a10.029,10.029,0,0,1-10-10V69.6a.5.5,0,0,0-1,0V79a11.032,11.032,0,0,0,11,11H94l10.3,10.3a.483.483,0,0,0,.7,0L115.3,90h3.5a11.032,11.032,0,0,0,11-11Z"/><path class="f" d="M38.7,59.6H70.1a11.032,11.032,0,0,0,11-11V11a11.032,11.032,0,0,0-11-11H11A10.968,10.968,0,0,0,0,11V48.7a11.032,11.032,0,0,0,11,11h6.4L27.7,70a.483.483,0,0,0,.7,0Zm-20.8-.8a.367.367,0,0,0-.3-.1H11a10.029,10.029,0,0,1-10-10V11A10.029,10.029,0,0,1,11,1H70.1a10.029,10.029,0,0,1,10,10V48.7a10.029,10.029,0,0,1-10,10H38.5a1.007,1.007,0,0,0-.3.1L28,68.9Z"/><path class="e" d="M102,71.6c.2-.1.4-.4.3-.6h0L93,49c-.2-.4-.8-.4-.9,0L82.8,71a.419.419,0,0,0,.3.6.446.446,0,0,0,.6-.3l1.9-4.4H99.5l1.9,4.4C101.4,71.7,101.7,71.7,102,71.6ZM85.9,66l6.6-15.5L99,66Z"/><path class="f" d="M49.3,31.9V27.7a9.9,9.9,0,1,0-19.8,0v4.2a9.859,9.859,0,0,0,9.9,9.9,10.264,10.264,0,0,0,6.3-2.2l1.3-1,4,2.9a.367.367,0,0,0,.3.1.4.4,0,0,0,.4-.2.494.494,0,0,0-.1-.7l-3.9-2.9.8-1.6A14.909,14.909,0,0,0,49.3,31.9Zm-1,0a8.422,8.422,0,0,1-.4,2.7L47,37.4l-5.2-3.8a.6.6,0,0,0-.4-.1c-.1,0-.2.1-.3.2a.494.494,0,0,0,.1.7l5.2,3.9-3,1.6a8.566,8.566,0,0,1-4.1,1A8.92,8.92,0,0,1,30.4,32V27.8a8.9,8.9,0,1,1,17.8,0v4.1Z"/><path class="f" d="M75.9,104.5a.349.349,0,0,1-.2-.1H7.1A7.127,7.127,0,0,0,0,111.5v11.1a7.127,7.127,0,0,0,7.1,7.1H75.7c.1,0,.2,0,.2-.1l22.7-12.2a.417.417,0,0,0,0-.8ZM17.1,128.8H7.1A6.061,6.061,0,0,1,1,122.7V111.6a6.061,6.061,0,0,1,6.1-6.1h10Zm58.1,0H18.1V117.4H53.5a.5.5,0,0,0,0-1H18.1v-11H75.2Zm1-.4V105.7L97.3,117Z"/><circle class="g" cx="2" cy="2" r="2" transform="translate(25.5 68)"/><circle class="g" cx="2" cy="2" r="2" transform="translate(49.5 39)"/><circle class="g" cx="2" cy="2" r="2" transform="translate(39.5 32)"/><circle class="g" cx="2" cy="2" r="2" transform="translate(36.5 57)"/><circle class="g" cx="2" cy="2" r="2" transform="translate(15.5 57)"/><circle class="g" cx="2" cy="2" r="2" transform="translate(51.5 115)"/><circle class="g" cx="2" cy="2" r="2" transform="translate(96.5 115)"/><circle class="h" cx="2" cy="2" r="2" transform="translate(102.5 98)"/><circle class="h" cx="2" cy="2" r="2" transform="translate(113.5 87)"/><circle class="h" cx="2" cy="2" r="2" transform="translate(92.5 87)"/><circle class="h" cx="2" cy="2" r="2" transform="translate(80.5 71)"/><circle class="h" cx="2" cy="2" r="2" transform="translate(100.5 71)"/><circle class="h" cx="2" cy="2" r="2" transform="translate(90.5 47)"/><circle class="h" cx="2" cy="2" r="2" transform="translate(99.5 29)"/><circle class="h" cx="2" cy="2" r="2" transform="translate(88.5 29)"/><circle class="g" cx="2" cy="2" r="2" transform="translate(15.5 115)"/><circle class="g" cx="2" cy="2" r="2" transform="translate(15.5 103)"/><circle class="g" cx="2" cy="2" r="2" transform="translate(73.5 103)"/><circle class="g" cx="2" cy="2" r="2" transform="translate(15.5 127)"/><circle class="g" cx="2" cy="2" r="2" transform="translate(73.5 127)"/></svg>