<svg width="215" height="202" viewBox="0 0 215 202" fill="none" xmlns="http://www.w3.org/2000/svg">
<path d="M202.24 163.59V173.59C202.24 175.841 201.797 178.07 200.935 180.149C200.074 182.229 198.811 184.118 197.22 185.71C195.628 187.301 193.739 188.564 191.659 189.425C189.58 190.287 187.351 190.73 185.1 190.73H53.53V201.97H185.1C192.791 201.97 200.168 198.915 205.606 193.476C211.045 188.038 214.1 180.661 214.1 172.97V163.51L202.24 163.59ZM0.0500488 163.51V172.97C0.0500488 180.661 3.10539 188.038 8.54395 193.476C13.9825 198.915 21.3588 201.97 29.05 201.97H160.61V190.78H29C26.7483 190.781 24.5184 190.339 22.4377 189.478C20.3571 188.617 18.4664 187.355 16.8738 185.763C15.2811 184.172 14.0177 182.282 13.1557 180.202C12.2937 178.121 11.85 175.892 11.85 173.64V163.64L0.0500488 163.51ZM214.07 163.64V60.11C214.07 52.4187 211.015 45.0425 205.576 39.6039C200.138 34.1654 192.761 31.11 185.07 31.11H53.53V42.34H185.1C187.352 42.34 189.581 42.7837 191.661 43.6457C193.742 44.5077 195.632 45.7711 197.223 47.3637C198.815 48.9564 200.077 50.8471 200.938 52.9277C201.799 55.0084 202.241 57.2383 202.24 59.49V163.59L214.07 163.64ZM11.85 163.59V59.52C11.8487 57.2674 12.2914 55.0367 13.1528 52.9554C14.0142 50.8741 15.2775 48.983 16.8702 47.3902C18.463 45.7974 20.3541 44.5342 22.4354 43.6728C24.5168 42.8114 26.7475 42.3687 29 42.37H160.56V31.14H29C21.3087 31.14 13.9325 34.1954 8.49396 39.6339C3.0554 45.0725 0 52.4487 0 60.14V163.59H11.85ZM0 68.53V78.65C0 86.3413 3.0554 93.7175 8.49396 99.1561C13.9325 104.595 21.3087 107.65 29 107.65H73.41V96.39H29C26.7475 96.3913 24.5168 95.9486 22.4354 95.0872C20.3541 94.2258 18.463 92.9626 16.8702 91.3698C15.2775 89.777 14.0142 87.8859 13.1528 85.8046C12.2914 83.7233 11.8487 81.4926 11.85 79.24V68.53H0ZM202.24 68.53V79.24C202.241 81.4917 201.799 83.7216 200.938 85.8023C200.077 87.883 198.815 89.7736 197.223 91.3662C195.632 92.9589 193.742 94.2223 191.661 95.0843C189.581 95.9463 187.352 96.39 185.1 96.39H139.46V107.62H185.1C192.791 107.62 200.168 104.565 205.606 99.1261C211.045 93.6875 214.1 86.3112 214.1 78.62V68.53H202.24ZM153.1 39.53V29C153.1 21.3087 150.045 13.9325 144.606 8.4939C139.168 3.05534 131.791 0 124.1 0H106.8V11.24H124.1C128.646 11.24 133.005 13.0458 136.22 16.2602C139.434 19.4746 141.24 23.8342 141.24 28.38V39.54L153.1 39.53ZM72.35 39.54V28.4C72.3553 23.8541 74.1642 19.496 77.3796 16.2825C80.595 13.069 84.9541 11.2626 89.5 11.26H106.8V0.019989H89.5C81.8087 0.019989 74.4325 3.07533 68.994 8.51389C63.5554 13.9524 60.5 21.3287 60.5 29.02V39.58" fill="#82EFFD"/>
<path d="M114.42 82.79H99.2597C98.428 82.7887 97.6043 82.9515 96.8357 83.2692C96.0671 83.5868 95.3688 84.0531 94.7808 84.6411C94.1927 85.2292 93.7265 85.9275 93.4088 86.6961C93.0912 87.4647 92.9284 88.2884 92.9297 89.12V122.41C92.9284 123.242 93.0912 124.065 93.4088 124.834C93.7265 125.603 94.1927 126.301 94.7808 126.889C95.3688 127.477 96.0671 127.943 96.8357 128.261C97.6043 128.579 98.428 128.741 99.2597 128.74H114.42C116.099 128.74 117.709 128.073 118.896 126.886C120.083 125.699 120.75 124.089 120.75 122.41V89.12C120.75 87.4412 120.083 85.8312 118.896 84.6441C117.709 83.4569 116.099 82.79 114.42 82.79ZM109.51 115.08C109.51 115.39 109.386 115.688 109.167 115.907C108.948 116.127 108.65 116.25 108.34 116.25H105.93C105.619 116.25 105.322 116.127 105.102 115.907C104.883 115.688 104.76 115.39 104.76 115.08V96.35C104.76 96.0397 104.883 95.7421 105.102 95.5227C105.322 95.3033 105.619 95.1801 105.93 95.1801H108.34C108.65 95.1801 108.948 95.3033 109.167 95.5227C109.386 95.7421 109.51 96.0397 109.51 96.35V115.08Z" fill="#FFAA00"/>
<path d="M64.9707 107.62H74.9707C76.5123 107.598 77.9896 106.998 79.1107 105.94C80.1993 104.913 80.8358 103.496 80.8807 102C80.8824 101.25 80.7297 100.508 80.4321 99.8199C80.1344 99.1318 79.6983 98.5122 79.1507 98C78.0237 96.9293 76.5252 96.3378 74.9707 96.35H65.5107L64.9707 107.62Z" fill="#82EFFD"/>
<path d="M148.12 96.3799H138.65C137.096 96.3677 135.597 96.9592 134.47 98.03C133.923 98.5422 133.486 99.1617 133.189 99.8499C132.891 100.538 132.739 101.28 132.74 102.03C132.76 102.771 132.927 103.501 133.231 104.177C133.535 104.853 133.969 105.463 134.51 105.97C135.631 107.028 137.109 107.628 138.65 107.65H148.65L148.12 96.3799Z" fill="#82EFFD"/>
</svg>
