<svg viewBox="0 0 64 58" fill="none" xmlns="http://www.w3.org/2000/svg">
<path d="M38.368 42.516L20.394 55.997V42.516H1.383V1.383H62.083V42.516H38.368Z" fill="url(#paint0_linear)" stroke="#00B3EF" stroke-miterlimit="10"/>
<path d="M62.219 43.554C62.9828 43.554 63.602 42.9348 63.602 42.171C63.602 41.4072 62.9828 40.788 62.219 40.788C61.4552 40.788 60.836 41.4072 60.836 42.171C60.836 42.9348 61.4552 43.554 62.219 43.554Z" fill="#004DC9"/>
<path d="M1.383 43.554C2.14681 43.554 2.766 42.9348 2.766 42.171C2.766 41.4072 2.14681 40.788 1.383 40.788C0.61919 40.788 0 41.4072 0 42.171C0 42.9348 0.61919 43.554 1.383 43.554Z" fill="#004DC9"/>
<path d="M20.049 43.554C20.8128 43.554 21.432 42.9348 21.432 42.171C21.432 41.4072 20.8128 40.788 20.049 40.788C19.2852 40.788 18.666 41.4072 18.666 42.171C18.666 42.9348 19.2852 43.554 20.049 43.554Z" fill="#004DC9"/>
<path d="M38.714 43.554C39.4778 43.554 40.097 42.9348 40.097 42.171C40.097 41.4072 39.4778 40.788 38.714 40.788C37.9502 40.788 37.331 41.4072 37.331 42.171C37.331 42.9348 37.9502 43.554 38.714 43.554Z" fill="#004DC9"/>
<path d="M20.049 57.38C20.8128 57.38 21.432 56.7608 21.432 55.997C21.432 55.2332 20.8128 54.614 20.049 54.614C19.2852 54.614 18.666 55.2332 18.666 55.997C18.666 56.7608 19.2852 57.38 20.049 57.38Z" fill="#004DC9"/>
<path d="M62.219 2.766C62.9828 2.766 63.602 2.14681 63.602 1.383C63.602 0.61919 62.9828 0 62.219 0C61.4552 0 60.836 0.61919 60.836 1.383C60.836 2.14681 61.4552 2.766 62.219 2.766Z" fill="#004DC9"/>
<path d="M1.383 2.766C2.14681 2.766 2.766 2.14681 2.766 1.383C2.766 0.61919 2.14681 0 1.383 0C0.61919 0 0 0.61919 0 1.383C0 2.14681 0.61919 2.766 1.383 2.766Z" fill="#004DC9"/>
<defs>
<linearGradient id="paint0_linear" x1="31.733" y1="1.383" x2="31.733" y2="55.997" gradientUnits="userSpaceOnUse">
<stop stop-color="#00B3EF" stop-opacity="0"/>
<stop offset="1" stop-color="white" stop-opacity="0.502"/>
</linearGradient>
</defs>
</svg>
