<svg width="31" height="31" viewBox="0 0 31 31" fill="none" xmlns="http://www.w3.org/2000/svg">
<circle cx="16.0417" cy="16.043" r="13.6364" fill="#E1F0F7"/>
<path fill-rule="evenodd" clip-rule="evenodd" d="M15.2407 30.4813C23.6579 30.4813 30.4813 23.6579 30.4813 15.2407C30.4813 6.82348 23.6579 0 15.2407 0C6.82348 0 0 6.82348 0 15.2407C0 23.6579 6.82348 30.4813 15.2407 30.4813ZM15.2407 28.8771C22.7718 28.8771 28.8771 22.7718 28.8771 15.2407C28.8771 7.7095 22.7718 1.60428 15.2407 1.60428C7.7095 1.60428 1.60428 7.7095 1.60428 15.2407C1.60428 22.7718 7.7095 28.8771 15.2407 28.8771Z" fill="#2F80ED"/>
<path d="M15.2437 17.6472C15.0672 17.6472 14.895 17.5892 14.7515 17.4814C14.608 17.3736 14.5002 17.2213 14.4434 17.046C14.4111 16.9299 14.3984 16.8088 14.4056 16.6881V16.6089C14.4056 16.2723 14.4035 15.9254 14.4014 15.5888C14.3971 14.8971 14.3928 14.1818 14.4056 13.4901C14.4148 13.3455 14.3792 13.2017 14.3042 13.08C14.2292 12.9584 14.1187 12.8654 13.9893 12.8148C13.5837 12.6313 13.2172 12.3644 12.9117 12.0298C12.6061 11.6952 12.3675 11.2997 12.2102 10.8667C12.0618 10.4229 12.0037 9.95142 12.0396 9.48261C12.0754 9.0138 12.2045 8.55805 12.4183 8.14469C12.6255 7.74674 12.9092 7.39832 13.2516 7.12153C13.594 6.84475 13.9874 6.64565 14.4071 6.53689C14.6915 6.45915 14.984 6.41896 15.2779 6.41724H15.325C15.8932 6.41663 16.4494 6.58927 16.9259 6.91416C17.8794 7.57448 18.3464 8.49318 18.4409 9.89384C18.5179 10.8189 17.7899 12.221 16.6229 12.7542C16.437 12.8126 16.2773 12.9391 16.173 13.1107C16.0687 13.2824 16.0267 13.4876 16.0547 13.689C16.0671 14.3796 16.0629 15.0781 16.0589 15.7537C16.0568 16.0869 16.0547 16.4316 16.0547 16.7681V16.8078C16.0556 17.016 15.9822 17.217 15.8489 17.3714C15.7157 17.5258 15.5322 17.6223 15.3346 17.642C15.3044 17.6454 15.2741 17.6471 15.2437 17.6472ZM14.1404 8.58366C13.9977 8.72688 13.8852 8.89984 13.81 9.09142C13.7349 9.283 13.6988 9.48895 13.7041 9.69604C13.6966 10.1254 13.8519 10.5404 14.1361 10.8496C14.4202 11.1588 14.8097 11.337 15.2191 11.345H15.238C15.6416 11.3359 16.0258 11.1613 16.3082 10.8587C16.5905 10.556 16.7487 10.1494 16.7487 9.72595C16.7487 9.30249 16.5905 8.89587 16.3082 8.59324C16.0258 8.2906 15.6416 8.11603 15.238 8.10693C14.828 8.11507 14.4358 8.28534 14.1404 8.58366Z" fill="#2F80ED"/>
<path d="M15.2319 14.4386C15.4084 14.4386 15.5806 14.4966 15.7241 14.6044C15.8676 14.7123 15.9753 14.8645 16.0322 15.0399C16.0644 15.1559 16.0772 15.277 16.0699 15.3977V15.477C16.0699 15.8135 16.0721 16.1605 16.0742 16.497C16.0785 17.1887 16.0828 17.904 16.0699 18.5957C16.0608 18.7403 16.0964 18.8841 16.1714 19.0058C16.2464 19.1274 16.3568 19.2205 16.4863 19.271C16.8919 19.4545 17.2584 19.7215 17.5639 20.0561C17.8695 20.3907 18.108 20.7861 18.2654 21.2191C18.4138 21.6629 18.4719 22.1344 18.436 22.6032C18.4001 23.072 18.2711 23.5278 18.0572 23.9411C17.8501 24.3391 17.5664 24.6875 17.224 24.9643C16.8816 25.2411 16.4881 25.4402 16.0685 25.5489C15.7841 25.6267 15.4916 25.6669 15.1977 25.6686H15.1506C14.5823 25.6692 14.0262 25.4965 13.5497 25.1717C12.5962 24.5113 12.1292 23.5926 12.0347 22.192C11.9577 21.2669 12.6856 19.8648 13.8527 19.3316C14.0386 19.2732 14.1983 19.1467 14.3026 18.9751C14.4069 18.8035 14.4489 18.5982 14.4209 18.3968C14.4084 17.7062 14.4127 17.0077 14.4166 16.3321C14.4188 15.9989 14.4209 15.6542 14.4209 15.3177V15.278C14.42 15.0698 14.4934 14.8688 14.6267 14.7144C14.7599 14.56 14.9434 14.4635 15.141 14.4438C15.1712 14.4404 15.2015 14.4387 15.2319 14.4386ZM16.3352 23.5022C16.4779 23.3589 16.5904 23.186 16.6655 22.9944C16.7407 22.8028 16.7768 22.5969 16.7715 22.3898C16.779 21.9604 16.6236 21.5454 16.3395 21.2362C16.0554 20.927 15.6658 20.7488 15.2565 20.7408H15.2376C14.834 20.7499 14.4498 20.9245 14.1674 21.2271C13.885 21.5298 13.7269 21.9364 13.7269 22.3599C13.7269 22.7833 13.885 23.1899 14.1674 23.4926C14.4498 23.7952 14.834 23.9698 15.2376 23.9789C15.6475 23.9707 16.0398 23.8005 16.3352 23.5022Z" fill="#2F80ED"/>
<path d="M13.6344 16.0247C13.637 15.8481 13.6975 15.6769 13.8075 15.535C13.9175 15.3931 14.0713 15.2877 14.2475 15.2335C14.3641 15.2029 14.4853 15.1919 14.6059 15.201L14.6851 15.2022C15.0216 15.2073 15.3686 15.2103 15.7051 15.2132C16.3968 15.2193 17.1121 15.2257 17.8035 15.2489C17.948 15.2602 18.0923 15.2267 18.2151 15.1535C18.3378 15.0804 18.4325 14.9713 18.485 14.8426C18.6745 14.4398 18.9469 14.0774 19.286 13.7769C19.6252 13.4763 20.0242 13.2437 20.4594 13.0928C20.9054 12.9512 21.3777 12.9001 21.8459 12.943C22.3142 12.9858 22.7679 13.1216 23.1781 13.3417C23.5729 13.5547 23.917 13.8437 24.1886 14.1901C24.4603 14.5366 24.6535 14.933 24.7559 15.3542C24.8294 15.6398 24.8652 15.9329 24.8626 16.2268L24.8619 16.2738C24.854 16.842 24.673 17.3956 24.3411 17.8671C23.6665 18.8107 22.741 19.2639 21.3391 19.3374C20.413 19.4005 19.0218 18.6517 18.5062 17.4768C18.4506 17.2901 18.3265 17.1285 18.1564 17.0217C17.9864 16.9148 17.7818 16.8697 17.58 16.8947C16.8893 16.8969 16.191 16.8821 15.5154 16.8681C15.1824 16.861 14.8377 16.8537 14.5012 16.8487L14.4616 16.8481C14.2534 16.8459 14.0534 16.7695 13.9011 16.6339C13.7487 16.4984 13.655 16.3135 13.6382 16.1156C13.6353 16.0854 13.634 16.055 13.6344 16.0247ZM22.7134 15.057C22.5723 14.9122 22.4011 14.7971 22.2106 14.7191C22.0202 14.6411 21.8148 14.6019 21.6077 14.6041C21.1784 14.5902 20.7612 14.7393 20.4478 15.0188C20.1343 15.2982 19.9503 15.6851 19.9363 16.0943L19.936 16.1132C19.939 16.5169 20.1078 16.9036 20.4062 17.1905C20.7046 17.4774 21.1088 17.6416 21.5322 17.6479C21.9556 17.6542 22.3646 17.5022 22.6714 17.2244C22.9782 16.9465 23.1585 16.565 23.1737 16.1616C23.1716 15.7516 23.0073 15.3568 22.7134 15.057Z" fill="#2F80ED"/>
<path d="M16.8422 16.0612C16.8396 16.2377 16.779 16.409 16.6691 16.5509C16.5591 16.6928 16.4052 16.7982 16.2291 16.8524C16.1125 16.883 15.9912 16.8939 15.8707 16.8848L15.7914 16.8837C15.455 16.8786 15.108 16.8756 14.7715 16.8727C14.0798 16.8666 13.3645 16.8602 12.673 16.837C12.5286 16.8257 12.3843 16.8592 12.2615 16.9323C12.1387 17.0055 12.0441 17.1146 11.9916 17.2432C11.802 17.6461 11.5296 18.0085 11.1905 18.309C10.8514 18.6096 10.4524 18.8422 10.0171 18.993C9.57114 19.1347 9.09884 19.1858 8.63061 19.1429C8.16239 19.1 7.70863 18.9642 7.29851 18.7442C6.9037 18.5311 6.55956 18.2422 6.28792 17.8957C6.01629 17.5493 5.8231 17.1529 5.72062 16.7316C5.64714 16.4461 5.61132 16.153 5.614 15.8591L5.6147 15.8121C5.62259 15.2438 5.80353 14.6903 6.13551 14.2188C6.81001 13.2752 7.73558 12.822 9.1375 12.7485C10.0636 12.6853 11.4547 13.4341 11.9704 14.609C12.026 14.7958 12.1501 14.9573 12.3201 15.0642C12.4902 15.1711 12.6948 15.2161 12.8966 15.1912C13.5873 15.189 14.2856 15.2037 14.9611 15.2178C15.2942 15.2249 15.6389 15.2322 15.9754 15.2372L16.015 15.2378C16.2232 15.24 16.4231 15.3164 16.5755 15.4519C16.7278 15.5875 16.8216 15.7724 16.8383 15.9702C16.8413 16.0005 16.8426 16.0309 16.8422 16.0612ZM7.76318 17.0289C7.90424 17.1737 8.0755 17.2888 8.26594 17.3668C8.45637 17.4448 8.66177 17.484 8.86891 17.4818C9.29813 17.4957 9.71535 17.3466 10.0288 17.0671C10.3422 16.7876 10.5262 16.4008 10.5403 15.9916L10.5406 15.9727C10.5375 15.569 10.3687 15.1823 10.0703 14.8954C9.77196 14.6085 9.36775 14.4443 8.94434 14.438C8.52092 14.4316 8.11198 14.5837 7.80516 14.8615C7.49834 15.1393 7.31804 15.5208 7.30291 15.9243C7.30491 16.3343 7.46931 16.7291 7.76318 17.0289Z" fill="#2F80ED"/>
<path d="M9.57984 22.0831C9.56348 22.0831 9.54657 22.082 9.5257 22.0802V10.3295H21.3602V21.4583C21.3602 21.7116 21.3058 21.8569 21.2222 21.9416C21.1389 22.026 20.9942 22.0831 20.7354 22.0831H9.57984Z" fill="white" stroke="#2F80ED" stroke-width="0.324834"/>
<path d="M13.499 14.3192V18.3299H17.5097V14.3192H13.499Z" fill="#2F80ED"/>
<path d="M18.1307 18.9207H12.4307V13.2343H18.1307V18.9205V18.9207ZM13.5706 14.3609V17.7819H16.9783V14.362L13.5706 14.3609Z" fill="#FE7614"/>
<rect x="9.47096" y="10.2755" width="11.694" height="11.694" stroke="#2F80ED" stroke-width="1.29934"/>
</svg>
