<svg xmlns="http://www.w3.org/2000/svg" xmlns:xlink="http://www.w3.org/1999/xlink" viewBox="0 0 171 134.521"><defs><style>.a,.b{fill:none;stroke:#00b3ef;}.a,.b,.c{stroke-miterlimit:10;}.b{opacity:0.5;}.c{fill:url(#a);}.d{fill:#004dc9;}.e{fill:#7ea5e3;}.f,.g{stroke:none;}.g{fill:#00b3ef;}</style><linearGradient id="a" x1="0.5" x2="0.5" y2="1" gradientUnits="objectBoundingBox"><stop offset="0" stop-color="#fff"/><stop offset="1" stop-color="#ebf5f8"/></linearGradient></defs><g transform="translate(-356 -4585)"><g transform="translate(357 4586)"><path class="a" d="M11.5,17.25,4.74,20.8l1.291-7.527L.563,7.946l7.557-1.1L11.5,0l3.38,6.848,7.557,1.1-5.469,5.331L18.26,20.8Z" transform="matrix(0.966, 0.259, -0.259, 0.966, 146.368, 24.415)"/><path class="a" d="M-11.5,17.25-4.74,20.8l-1.291-7.527L-.563,7.946l-7.557-1.1L-11.5,0l-3.38,6.848-7.557,1.1,5.469,5.331L-18.26,20.8Z" transform="matrix(0.966, -0.259, 0.259, 0.966, 22.632, 92.415)"/><path class="a" d="M7.5,11.25,3.092,13.568l.842-4.909L.367,5.182,5.3,4.466,7.5,0,9.7,4.466l4.929.716L11.066,8.659l.842,4.909Z" transform="matrix(0.985, -0.174, 0.174, 0.985, 76.812, 3.416)"/><g transform="translate(18 9)"><path class="b" d="M-46.485,85.871c2.53,1.358,2.809,23.371,5.875,23.371l28.89-2.528c2.632,0-6.035-19.783-4.175-21.647l6.616-6.616A31.492,31.492,0,0,0,0,56.044V38a2,2,0,0,0-2-2,6.007,6.007,0,0,0-6,6V54a2,2,0,0,1-2,2,2,2,0,0,1-2-2V12a4,4,0,0,0-4-4,4,4,0,0,0-4,4V38a2,2,0,0,1-2,2,2,2,0,0,1-2-2V4a4,4,0,0,0-4-4,4,4,0,0,0-4,4V38a2,2,0,0,1-2,2,2,2,0,0,1-2-2V12a4,4,0,0,0-4-4,4,4,0,0,0-4,4V38a2,2,0,0,1-2,2,2,2,0,0,1-2-2V20a4,4,0,0,0-4-4,4,4,0,0,0-4,4" transform="matrix(0.996, 0.087, -0.087, 0.996, 122.977, 10.713)"/><g class="c" transform="matrix(0.966, -0.259, 0.259, 0.966, 0.815, 14.851)"><path class="f" d="M 32.89622497558594 113.0137023925781 L 4.181169986724854 105.3195266723633 C 4.258737087249756 105.028564453125 4.566864490509033 104.3088073730469 5.698557376861572 102.5821762084961 C 6.706342697143555 101.0445861816406 8.071985244750977 99.14458465576172 9.517800331115723 97.13303375244141 C 15.0851001739502 89.38731384277344 17.40437126159668 85.87185668945313 16.24984359741211 84.71487426757813 L 9.633514404296875 78.09855651855469 C 3.743714332580566 72.20490264892578 0.5 64.37245941162109 0.5 56.04417419433594 L 0.5 37.99990081787109 C 0.5 37.17277526855469 1.17292857170105 36.49984359741211 2.00007152557373 36.49984359741211 C 5.032785892486572 36.49984359741211 7.500085830688477 38.96712875366211 7.500085830688477 41.99984359741211 L 7.500085830688477 53.99984359741211 C 7.500085830688477 55.37838745117188 8.621600151062012 56.49991607666016 10.00014305114746 56.49991607666016 C 11.37868595123291 56.49991607666016 12.50021457672119 55.37838745117188 12.50021457672119 53.99984359741211 L 12.50021457672119 11.99981594085693 C 12.50012874603271 11.06693077087402 12.86432838439941 10.18868732452393 13.52571392059326 9.526816368103027 C 14.18744277954102 8.864587783813477 15.06615734100342 8.499887466430664 15.99997138977051 8.499887466430664 C 17.92984199523926 8.499887466430664 19.49991416931152 10.06994438171387 19.49991416931152 11.99981594085693 L 19.49991416931152 37.99990081787109 C 19.49991416931152 39.37844467163086 20.6214427947998 40.49997329711914 21.99998664855957 40.49997329711914 C 23.3785285949707 40.49997329711914 24.50005722045898 39.37844467163086 24.50005722045898 37.99990081787109 L 24.50005722045898 3.999944925308228 C 24.50005722045898 2.070073366165161 26.07012939453125 0.5000019669532776 28 0.5000019669532776 C 29.92987060546875 0.5000019669532776 31.49994277954102 2.070073366165161 31.49994277954102 3.999944925308228 L 31.49994277954102 37.99990081787109 C 31.49994277954102 39.37844467163086 32.6214714050293 40.49997329711914 34.00001525878906 40.49997329711914 C 35.37855529785156 40.49997329711914 36.50008392333984 39.37844467163086 36.50008392333984 37.99990081787109 L 36.50008392333984 11.99981594085693 C 36.50008392333984 10.06994438171387 38.07015609741211 8.499887466430664 40.00002670288086 8.499887466430664 C 41.92990112304688 8.499887466430664 43.49997329711914 10.06994438171387 43.49997329711914 11.99981594085693 L 43.49997329711914 37.99990081787109 C 43.49997329711914 39.37844467163086 44.62149810791016 40.49997329711914 46.00004196166992 40.49997329711914 C 47.37858581542969 40.49997329711914 48.50011444091797 39.37844467163086 48.50011444091797 37.99990081787109 L 48.50011444091797 19.99988746643066 C 48.50011444091797 18.07001686096191 50.07018661499023 16.49995994567871 52.00005722045898 16.49995994567871 C 53.92992782592773 16.49995994567871 55.5 18.07001686096191 55.5 19.99988746643066 L 55.5 69.99998474121094 C 55.5 77.44563293457031 50.76851272583008 84.09162902832031 43.72629928588867 86.5377197265625 C 43.32194137573242 86.67816162109375 42.80837249755859 87.12347412109375 41.38868713378906 90.80654144287109 C 40.50714111328125 93.09354400634766 39.49037170410156 96.05361938476563 38.41389846801758 99.18748474121094 C 37.28400039672852 102.4769287109375 36.11562728881836 105.8783569335938 35.09488677978516 108.5037155151367 C 34.54791259765625 109.910514831543 34.09270095825195 110.9700012207031 33.7032585144043 111.7426986694336 C 33.25448608398438 112.6330871582031 32.99935150146484 112.9228897094727 32.89622497558594 113.0137023925781 Z"/><path class="g" d="M 32.7248649597168 112.4501419067383 C 33.00167083740234 112.0649261474609 33.60076904296875 110.9956970214844 34.73773193359375 108.0410461425781 C 35.72841644287109 105.4665298461914 36.85324859619141 102.1918792724609 37.94103240966797 99.02504730224609 C 39.01905059814453 95.88666534423828 40.03728485107422 92.92233276367188 40.92216491699219 90.62670135498047 C 42.2932014465332 87.06981658935547 42.88693237304688 86.29996490478516 43.56224822998047 86.06539916992188 C 50.40351486206055 83.68907928466797 55 77.23290252685547 55 69.99998474121094 L 55 19.99989891052246 C 55 18.34571647644043 53.65423202514648 16.99995040893555 52.00004959106445 16.99995040893555 C 50.34586715698242 16.99995040893555 49.00009918212891 18.34571647644043 49.00009918212891 19.99989891052246 L 49.00009918212891 37.99990081787109 C 49.00009918212891 39.65414810180664 47.65428161621094 40.99996566772461 46.00004959106445 40.99996566772461 C 44.34579849243164 40.99996566772461 42.99996566772461 39.65414810180664 42.99996566772461 37.99990081787109 L 42.99996566772461 11.99981594085693 C 42.99996566772461 10.34564971923828 41.65420150756836 8.999882698059082 40.00003433227539 8.999882698059082 C 38.34585189819336 8.999882698059082 37.00008392333984 10.34564971923828 37.00008392333984 11.99981594085693 L 37.00008392333984 37.99990081787109 C 37.00008392333984 39.65414810180664 35.65426635742188 40.99996566772461 34.00001525878906 40.99996566772461 C 32.34576797485352 40.99996566772461 30.99995040893555 39.65414810180664 30.99995040893555 37.99990081787109 L 30.99995040893555 3.999933004379272 C 30.99995040893555 2.345766305923462 29.65418243408203 0.9999995827674866 28 0.9999995827674866 C 26.34581756591797 0.9999995827674866 25.00004959106445 2.345766305923462 25.00004959106445 3.999933004379272 L 25.00004959106445 37.99990081787109 C 25.00004959106445 39.65414810180664 23.65423393249512 40.99996566772461 21.9999828338623 40.99996566772461 C 20.34573364257813 40.99996566772461 18.99991607666016 39.65414810180664 18.99991607666016 37.99990081787109 L 18.99991607666016 11.99981594085693 C 18.99991607666016 10.34564971923828 17.65415000915527 8.999882698059082 15.99996662139893 8.999882698059082 C 15.19978332519531 8.999882698059082 14.44668292999268 9.312533378601074 13.8794002532959 9.880249977111816 C 13.3123836517334 10.44768333435059 13.00014972686768 11.20039939880371 13.00021648406982 11.99981594085693 L 13.00021648406982 53.99985122680664 C 13.00021648406982 55.65409851074219 11.65439987182617 56.99991607666016 10.00014972686768 56.99991607666016 C 8.34589958190918 56.99991607666016 7.000083446502686 55.65409851074219 7.000083446502686 53.99985122680664 L 7.000083446502686 41.99985122680664 C 7.000083446502686 39.24283218383789 4.757083415985107 36.99983215332031 2.000066757202148 36.99983215332031 C 1.448633313179016 36.99983215332031 1 37.44846725463867 1 37.99990081787109 L 1 56.04416656494141 C 1 64.23896789550781 4.191750049591064 71.94588470458984 9.98705005645752 77.74501800537109 L 16.60376739501953 84.36170196533203 C 17.60973358154297 85.36978149414063 16.7767162322998 87.23529815673828 15.10658359527588 89.91851806640625 C 13.73373317718506 92.12415313720703 11.79688358306885 94.81884765625 9.923816680908203 97.42483520507813 C 8.542733192443848 99.3463134765625 7.238249778747559 101.1612319946289 6.249266624450684 102.6550979614258 C 5.453510761260986 103.8570785522461 5.054036140441895 104.5677032470703 4.853890419006348 104.9821395874023 L 32.7248649597168 112.4501419067383 M 32.92119979858398 113.5380325317383 L 3.943433284759521 105.7734680175781 C 1.311483383178711 105.7734680175781 17.75591659545898 86.93199920654297 15.89591693878174 85.06806945800781 L 9.279950141906738 78.45211791992188 C 3.295883417129517 72.46411895751953 0 64.50811767578125 0 56.04416656494141 L 0 37.99990081787109 C 0 36.89590072631836 0.8999999761581421 35.99983215332031 2.000066757202148 35.99983215332031 C 5.308133125305176 35.99983215332031 8.000082969665527 38.6917839050293 8.000082969665527 41.99985122680664 L 8.000082969665527 53.99985122680664 C 8.000082969665527 55.10385131835938 8.896149635314941 55.99991607666016 10.00014972686768 55.99991607666016 C 11.10414981842041 55.99991607666016 12.00021648406982 55.10385131835938 12.00021648406982 53.99985122680664 L 12.00021648406982 11.99981594085693 C 12.00003337860107 9.795949935913086 13.79196643829346 7.999882698059082 15.99996662139893 7.999882698059082 C 18.20798301696777 7.999882698059082 19.99991607666016 9.795949935913086 19.99991607666016 11.99981594085693 L 19.99991607666016 37.99990081787109 C 19.99991607666016 39.10390090942383 20.89598274230957 39.99996566772461 21.9999828338623 39.99996566772461 C 23.10398292541504 39.99996566772461 24.00004959106445 39.10390090942383 24.00004959106445 37.99990081787109 L 24.00004959106445 3.999933004379272 C 24.00004959106445 1.795882940292358 25.79199981689453 -4.007975462627655e-07 28 -4.007975462627655e-07 C 30.20800018310547 -4.007975462627655e-07 31.99995040893555 1.796066284179688 31.99995040893555 3.999933004379272 L 31.99995040893555 37.99990081787109 C 31.99995040893555 39.10390090942383 32.89601516723633 39.99996566772461 34.00001525878906 39.99996566772461 C 35.1040153503418 39.99996566772461 36.00008392333984 39.10390090942383 36.00008392333984 37.99990081787109 L 36.00008392333984 11.99981594085693 C 36.00008392333984 9.795949935913086 37.79201507568359 7.999882698059082 40.00003433227539 7.999882698059082 C 42.20803451538086 7.999882698059082 43.99996566772461 9.795949935913086 43.99996566772461 11.99981594085693 L 43.99996566772461 37.99990081787109 C 43.99996566772461 39.10390090942383 44.89603424072266 39.99996566772461 46.00004959106445 39.99996566772461 C 47.10404968261719 39.99996566772461 48.00009918212891 39.10390090942383 48.00009918212891 37.99990081787109 L 48.00009918212891 19.99989891052246 C 48.00009918212891 17.79583358764648 49.79204940795898 15.99994945526123 52.00004959106445 15.99994945526123 C 54.20806503295898 15.99994945526123 56 17.79601669311523 56 19.99989891052246 L 56 69.99998474121094 C 56 77.86215209960938 50.93118286132813 84.56441497802734 43.89036560058594 87.01003265380859 C 42.04389953613281 87.65138244628906 34.98306655883789 113.5380325317383 32.92119979858398 113.5380325317383 Z"/></g><path class="b" d="M14.887,0S8.395,1.579,4.576,5.888,0,16.8,0,16.8" transform="translate(86.401 66.756)"/><path class="b" d="M22.037,1.338s-5.834.315-11.018,0S0,0,0,0" transform="translate(75.881 61.475)"/></g><circle class="d" cx="2" cy="2" r="2" transform="translate(78 122)"/><circle class="d" cx="2" cy="2" r="2" transform="translate(23 113)"/><circle class="d" cx="2" cy="2" r="2" transform="translate(157 49)"/><circle class="d" cx="2" cy="2" r="2" transform="translate(142 45)"/><circle class="d" cx="2" cy="2" r="2" transform="translate(141 29)"/><circle class="d" cx="2" cy="2" r="2" transform="translate(156 23)"/><circle class="d" cx="2" cy="2" r="2" transform="translate(166 36)"/><circle class="d" cx="2" cy="2" r="2" transform="translate(90 14)"/><circle class="d" cx="2" cy="2" r="2" transform="translate(80 15)"/><circle class="d" cx="2" cy="2" r="2" transform="translate(75 6)"/><circle class="d" cx="2" cy="2" r="2" transform="translate(82 -1)"/><circle class="d" cx="2" cy="2" r="2" transform="translate(91 3)"/><circle class="d" cx="2" cy="2" r="2" transform="translate(8 117)"/><circle class="d" cx="2" cy="2" r="2" transform="translate(24 98)"/><circle class="d" cx="2" cy="2" r="2" transform="translate(9 92)"/><circle class="d" cx="2" cy="2" r="2" transform="translate(-1 104)"/><circle class="d" cx="2" cy="2" r="2" transform="translate(48 122)"/><circle class="e" cx="2" cy="2" r="2" transform="translate(88 122)"/><circle class="e" cx="2" cy="2" r="2" transform="translate(119 122)"/><circle class="e" cx="2" cy="2" r="2" transform="translate(117 74)"/><circle class="e" cx="2" cy="2" r="2" transform="translate(102 91)"/><circle class="e" cx="2" cy="2" r="2" transform="translate(113 70)"/><circle class="e" cx="2" cy="2" r="2" transform="translate(92 68)"/></g></g></svg>