<svg width="71" height="67" viewBox="0 0 71 67" fill="none" xmlns="http://www.w3.org/2000/svg">
<path fill-rule="evenodd" clip-rule="evenodd" d="M1.20026 38.8969L38.1077 38.8969C38.4829 38.8969 38.7871 38.5927 38.7871 38.2175L38.7871 29.1398C38.7871 28.7646 38.4829 28.4604 38.1077 28.4604L1.20026 28.4604C0.825041 28.4604 0.520864 28.7646 0.520864 29.1398L0.520864 38.2175C0.520864 38.5927 0.82504 38.8969 1.20026 38.8969ZM1.39085 56.1019L27.4819 56.1019C27.9622 56.1019 28.3516 56.4913 28.3516 56.9716L28.3516 65.6686C28.3516 66.1489 27.9622 66.5383 27.4819 66.5383L1.39086 66.5383C0.910538 66.5383 0.52116 66.149 0.52116 65.6686L0.521145 56.9716C0.521145 56.4913 0.910523 56.1019 1.39085 56.1019ZM1.39085 0.839735L27.4819 0.839736C27.9622 0.839736 28.3516 1.22911 28.3516 1.70943L28.3516 10.4064C28.3516 10.8868 27.9622 11.2761 27.4819 11.2761L1.39086 11.2761C0.91054 11.2761 0.521163 10.8868 0.521163 10.4064L0.521148 1.70943C0.521148 1.22911 0.910525 0.839735 1.39085 0.839735Z" fill="url(#paint0_linear)"/>
<path d="M43.7268 0.842284L70.0302 0.842285C70.4515 0.842285 70.793 1.18381 70.793 1.60509L70.7929 65.7452C70.7929 66.169 70.4475 66.5115 70.0238 66.508L43.7204 66.2884C43.3017 66.2849 42.964 65.9444 42.964 65.5256L42.964 56.9892C42.964 56.5679 43.3055 56.2264 43.7268 56.2264L59.79 56.2264C60.2113 56.2264 60.5528 55.8849 60.5528 55.4636L60.5528 11.8931C60.5528 11.4718 60.2113 11.1303 59.79 11.1303L43.7268 11.1302C43.3055 11.1302 42.964 10.7887 42.964 10.3674L42.964 1.60509C42.964 1.1838 43.3055 0.842284 43.7268 0.842284Z" fill="url(#paint1_linear)"/>
<defs>
<linearGradient id="paint0_linear" x1="0.521483" y1="33.689" x2="38.7877" y2="33.689" gradientUnits="userSpaceOnUse">
<stop stop-color="#3DAEFF"/>
<stop offset="1" stop-color="#1E5DFF"/>
</linearGradient>
<linearGradient id="paint1_linear" x1="56.8793" y1="0.842285" x2="56.8793" y2="66.5144" gradientUnits="userSpaceOnUse">
<stop offset="0.323435" stop-color="#FF7A00"/>
<stop offset="1" stop-color="#FF4D00"/>
</linearGradient>
</defs>
</svg>
