<svg width="27" height="24" viewBox="0 0 27 24" fill="none" xmlns="http://www.w3.org/2000/svg">
<path d="M25.4619 8.36254C25.3419 8.36254 25.2187 8.37964 25.0958 8.41363L23.8041 8.76939L22.4388 5.44371C22.0297 4.44697 20.8202 3.63597 19.7426 3.63597H18.8341V0.878848C18.8341 0.394193 18.4399 0 17.9552 0H8.64107C8.15642 0 7.76223 0.394193 7.76223 0.878848V3.63597H6.83498C5.75751 3.63597 4.54787 4.44686 4.13879 5.44359L2.77529 8.7647L1.50049 8.41351C1.37757 8.37965 1.25429 8.36242 1.13442 8.36242C0.477156 8.36254 0 8.86477 0 9.5566V10.2634C0 11.0711 0.657144 11.7282 1.46475 11.7282H1.55873L1.36374 12.203C0.983607 13.1291 0.674253 14.6969 0.674253 15.6979V22.3327C0.674253 23.1404 1.33128 23.7975 2.139 23.7975H3.89986C4.70758 23.7975 5.36461 23.1404 5.36461 22.3327V20.702H21.2131V22.3327C21.2131 23.1404 21.8702 23.7975 22.6778 23.7975H24.4383C25.246 23.7975 25.9031 23.1404 25.9031 22.3327V15.6979C25.9031 14.6969 25.5937 13.1291 25.2136 12.203L25.0186 11.7282H25.1314C25.9392 11.7282 26.5962 11.0711 26.5962 10.2634V9.5566C26.5962 8.86477 26.1191 8.36254 25.4619 8.36254ZM16.8284 1.17203C16.8284 1.1527 16.8442 1.13688 16.8636 1.13688H17.5406C17.56 1.13688 17.5758 1.1527 17.5758 1.17203V3.60902C17.5758 3.62074 17.5691 3.62953 17.5603 3.63597H16.8439C16.8351 3.62953 16.8284 3.62074 16.8284 3.60902V1.17203ZM11.9725 1.13688H12.7861C12.8054 1.13688 12.8271 1.15153 12.8342 1.16957L13.7999 3.59707L14.6851 2.50202C14.6973 2.48702 14.6985 2.46148 14.6878 2.44543L13.8382 1.16617C13.8275 1.15 13.8346 1.13688 13.8539 1.13688H14.6063C14.6257 1.13688 14.6498 1.15035 14.6599 1.16676L15.0978 1.8771C15.1079 1.89363 15.1245 1.89363 15.1346 1.8771L15.5728 1.16676C15.5829 1.15024 15.6071 1.13688 15.6264 1.13688H16.3792C16.3985 1.13688 16.4055 1.15 16.3949 1.16617L15.5446 2.44543C15.5338 2.4616 15.5351 2.48702 15.5472 2.50202L16.4485 3.61687C16.4546 3.62425 16.456 3.63117 16.4538 3.63609H15.6549C15.6443 3.63058 15.6348 3.6232 15.6293 3.61441L15.1347 2.82286C15.1244 2.80646 15.1078 2.80646 15.0974 2.82286L14.6039 3.61441C14.5984 3.6232 14.5889 3.63058 14.5783 3.63609H13.0729C13.0626 3.63 13.0537 3.62156 13.0503 3.6109L12.8844 3.1028C12.8784 3.08441 12.8577 3.06941 12.8383 3.06941H11.9161C11.8968 3.06941 11.8757 3.08429 11.8694 3.10257L11.6906 3.61113C11.6868 3.62168 11.6779 3.63011 11.6675 3.63609H10.9434C10.9377 3.63011 10.9352 3.62191 10.9393 3.61172L11.9241 1.16969C11.9315 1.15153 11.9532 1.13688 11.9725 1.13688ZM9.5914 3.60902V1.67321C9.5914 1.65388 9.57558 1.63806 9.55625 1.63806H8.74244C8.7231 1.63806 8.70728 1.62224 8.70728 1.6029V1.17192C8.70728 1.15258 8.7231 1.13676 8.74244 1.13676H11.1927C11.212 1.13676 11.2278 1.15258 11.2278 1.17192V1.6029C11.2278 1.62224 11.212 1.63806 11.1927 1.63806H10.3742C10.3548 1.63806 10.339 1.65388 10.339 1.67321V3.60902C10.339 3.62074 10.3323 3.62953 10.3235 3.63597H9.60687C9.59808 3.62964 9.5914 3.62074 9.5914 3.60902ZM3.81022 10.9118L5.88489 5.85794C6.12968 5.26172 6.85725 4.77391 7.50173 4.77391H19.0758C19.7203 4.77391 20.4479 5.26172 20.6927 5.85794L22.7673 10.9118C23.0121 11.508 22.6851 11.9958 22.0406 11.9958H4.53697C3.89248 11.9958 3.56543 11.508 3.81022 10.9118ZM8.49694 17.4202C8.49694 17.7424 8.23329 18.0061 7.91104 18.0061H3.95107C3.62882 18.0061 3.36517 17.7424 3.36517 17.4202V15.5416C3.36517 15.2193 3.62882 14.9557 3.95107 14.9557H7.91104C8.23329 14.9557 8.49694 15.2193 8.49694 15.5416V17.4202ZM23.1744 17.4202C23.1744 17.7424 22.9108 18.0061 22.5885 18.0061H18.6285C18.3063 18.0061 18.0426 17.7424 18.0426 17.4202V15.5416C18.0426 15.2193 18.3063 14.9557 18.6285 14.9557H22.5885C22.9108 14.9557 23.1744 15.2193 23.1744 15.5416V17.4202Z" fill="#939393"/>
</svg>
