<svg xmlns="http://www.w3.org/2000/svg" viewBox="0 0 15.998 16">
  <defs>
    <style>
      .cls-1 {
        fill: #fff;
      }
    </style>
  </defs>
  <path id="Union_1" data-name="Union 1" class="cls-1" d="M18894.645-623.888l-6.23-6.23-6.232,6.23a1.036,1.036,0,0,1-1.463,0,1.04,1.04,0,0,1,0-1.465l6.229-6.231-6.229-6.229a1.046,1.046,0,0,1,0-1.47,1.036,1.036,0,0,1,1.463,0l6.234,6.231,6.229-6.231a1.038,1.038,0,0,1,1.465,0,1.035,1.035,0,0,1,0,1.47l-6.229,6.228,6.229,6.228a1.035,1.035,0,0,1,0,1.47,1.03,1.03,0,0,1-.73.3A1.039,1.039,0,0,1,18894.645-623.888Z" transform="translate(-18880.418 639.586)"/>
</svg>
