<svg width="22" height="27" viewBox="0 0 22 27" fill="none" xmlns="http://www.w3.org/2000/svg">
<path d="M21.1625 25.2739L17.2061 18.0696C18.328 17.8925 19.1547 16.8886 19.1547 15.7666V5.1374C19.1547 2.30299 16.8517 0 14.0173 0H7.28544C4.45099 0 2.08894 2.30299 2.08894 5.1965V15.7666C2.08894 16.9477 2.91566 17.8925 4.03763 18.0697L0.140258 25.2739C-0.154997 25.8644 0.0221558 26.573 0.612667 26.8682C0.78982 26.9863 0.966973 26.9863 1.14413 26.9863C1.55748 26.9863 1.97084 26.7501 2.14799 26.3958L2.5023 25.8053H18.8004L19.1547 26.3958C19.3909 26.8092 19.7452 26.9863 20.1586 26.9863C20.3357 26.9863 20.5128 26.9273 20.69 26.8682C21.2805 26.573 21.4577 25.8644 21.1625 25.2739ZM15.6116 19.9593H5.69106L6.69493 18.1287H14.6078L15.6116 19.9593ZM15.4345 16.0028C14.4897 16.0028 13.722 15.2352 13.722 14.2903C13.722 13.3455 14.4897 12.5778 15.4345 12.5778C16.3793 12.5778 17.147 13.3455 17.147 14.2903C17.147 15.1761 16.3793 16.0028 15.4345 16.0028ZM4.15573 5.84606C4.15573 4.01547 5.63201 2.5392 7.40354 2.5392H13.8401C15.6116 2.5392 17.147 4.01547 17.147 5.84606V8.68051C17.147 9.33007 16.6155 9.80248 15.9659 9.80248H5.33675C4.68719 9.80248 4.21478 9.27102 4.21478 8.68051L4.15573 5.84606ZM5.86821 12.5188C6.81303 12.5188 7.58069 13.2865 7.58069 14.2314C7.58069 15.1761 6.81303 15.9438 5.86821 15.9438C4.9234 15.9438 4.15573 15.1762 4.15573 14.2314C4.15573 13.2865 4.92344 12.5188 5.86821 12.5188ZM3.44716 24.0338L4.74629 21.7308H16.5565L17.8556 24.0338H3.44716Z" fill="#939393"/>
</svg>
