<svg width="66" height="65" viewBox="0 0 66 65" fill="none" xmlns="http://www.w3.org/2000/svg">
<g filter="url(#filter0_d)">
<path fill-rule="evenodd" clip-rule="evenodd" d="M15.7635 29.0797C15.9137 27.6401 18.0298 27.6401 18.1799 29.0797C18.2945 30.1787 19.7227 30.5614 20.3714 29.667C21.2212 28.4952 23.0538 29.5533 22.464 30.8751C22.0137 31.8841 23.0592 32.9296 24.0682 32.4794C25.3901 31.8896 26.4481 33.7222 25.2764 34.572C24.382 35.2207 24.7647 36.6489 25.8636 36.7635C27.3033 36.9136 27.3033 39.0297 25.8636 39.1798C24.7647 39.2944 24.382 40.7226 25.2764 41.3713C26.4481 42.2211 25.3901 44.0537 24.0682 43.4639C23.0592 43.0136 22.0137 44.0592 22.464 45.0682C23.0538 46.39 21.2212 47.4481 20.3714 46.2763C19.7227 45.3819 18.2945 45.7646 18.1799 46.8635C18.0298 48.3032 15.9137 48.3032 15.7635 46.8635C15.649 45.7646 14.2208 45.3819 13.5721 46.2763C12.7222 47.4481 10.8896 46.39 11.4795 45.0682C11.9297 44.0592 10.8842 43.0136 9.87519 43.4639C8.55335 44.0537 7.49529 42.2211 8.66702 41.3713C9.56146 40.7226 9.17878 39.2944 8.07982 39.1798C6.64015 39.0297 6.64015 36.9136 8.07982 36.7635C9.17878 36.6489 9.56146 35.2207 8.66702 34.572C7.49529 33.7222 8.55335 31.8896 9.87519 32.4794C10.8842 32.9296 11.9297 31.8841 11.4795 30.8751C10.8896 29.5533 12.7222 28.4952 13.5721 29.667C14.2208 30.5614 15.649 30.1787 15.7635 29.0797ZM16.9736 42.7904C14.3123 42.7904 12.1549 40.633 12.1549 37.9717C12.1549 35.3104 14.3123 33.153 16.9736 33.153C19.6349 33.153 21.7923 35.3104 21.7923 37.9717C21.7923 40.633 19.6349 42.7904 16.9736 42.7904Z" fill="#F2F7FF"/>
</g>
<g filter="url(#filter1_d)">
<circle r="1.84666" transform="matrix(-1 0 0 1 16.9756 37.9717)" fill="#F2F7FF"/>
</g>
<path fill-rule="evenodd" clip-rule="evenodd" d="M34.7635 32.0797C34.9137 30.6401 37.0298 30.6401 37.1799 32.0797C37.2945 33.1787 38.7227 33.5614 39.3714 32.667C40.2212 31.4952 42.0538 32.5533 41.464 33.8751C41.0137 34.8841 42.0592 35.9296 43.0682 35.4794C44.3901 34.8896 45.4481 36.7222 44.2764 37.572C43.382 38.2207 43.7647 39.6489 44.8636 39.7635C46.3033 39.9136 46.3033 42.0297 44.8636 42.1798C43.7647 42.2944 43.382 43.7226 44.2764 44.3713C45.4481 45.2211 44.3901 47.0537 43.0682 46.4639C42.0592 46.0136 41.0137 47.0592 41.464 48.0682C42.0538 49.39 40.2212 50.4481 39.3714 49.2763C38.7227 48.3819 37.2945 48.7646 37.1799 49.8635C37.0298 51.3032 34.9137 51.3032 34.7635 49.8635C34.649 48.7646 33.2208 48.3819 32.5721 49.2763C31.7222 50.4481 29.8896 49.39 30.4795 48.0682C30.9297 47.0592 29.8842 46.0136 28.8752 46.4639C27.5534 47.0537 26.4953 45.2211 27.667 44.3713C28.5615 43.7226 28.1788 42.2944 27.0798 42.1798C25.6402 42.0297 25.6402 39.9136 27.0798 39.7635C28.1788 39.6489 28.5615 38.2207 27.667 37.572C26.4953 36.7222 27.5534 34.8896 28.8752 35.4794C29.8842 35.9296 30.9297 34.8841 30.4795 33.8751C29.8896 32.5533 31.7222 31.4952 32.5721 32.667C33.2208 33.5614 34.649 33.1787 34.7635 32.0797ZM35.9736 45.7904C33.3123 45.7904 31.1549 43.633 31.1549 40.9717C31.1549 38.3104 33.3123 36.153 35.9736 36.153C38.6349 36.153 40.7923 38.3104 40.7923 40.9717C40.7923 43.633 38.6349 45.7904 35.9736 45.7904Z" fill="#FF7A00"/>
<mask id="path-4-inside-1" fill="white">
<path fill-rule="evenodd" clip-rule="evenodd" d="M24.2793 47.6551C24.3704 46.7816 25.6422 46.7816 25.7333 47.6551C25.8028 48.3219 26.6583 48.5511 27.0519 48.0084C27.5675 47.2975 28.6689 47.9334 28.311 48.7354C28.0379 49.3476 28.6641 49.9739 29.2763 49.7007C30.0783 49.3428 30.7142 50.4442 30.0033 50.9598C29.4606 51.3534 29.6899 52.2089 30.3566 52.2785C31.2301 52.3695 31.2301 53.6413 30.3566 53.7324C29.6899 53.8019 29.4606 54.6574 30.0033 55.051C30.7142 55.5666 30.0783 56.668 29.2763 56.3101C28.6641 56.037 28.0379 56.6632 28.311 57.2754C28.6689 58.0774 27.5675 58.7133 27.0519 58.0024C26.6583 57.4597 25.8028 57.689 25.7333 58.3557C25.6422 59.2292 24.3704 59.2292 24.2793 58.3557C24.2098 57.689 23.3543 57.4597 22.9607 58.0024C22.4451 58.7133 21.3437 58.0774 21.7016 57.2754C21.9748 56.6632 21.3485 56.037 20.7363 56.3101C19.9343 56.668 19.2984 55.5666 20.0093 55.051C20.552 54.6574 20.3228 53.8019 19.656 53.7324C18.7825 53.6413 18.7825 52.3695 19.656 52.2785C20.3228 52.2089 20.552 51.3534 20.0093 50.9598C19.2984 50.4442 19.9343 49.3428 20.7363 49.7007C21.3485 49.9739 21.9748 49.3476 21.7016 48.7354C21.3437 47.9334 22.4451 47.2975 22.9607 48.0084C23.3543 48.5511 24.2098 48.3219 24.2793 47.6551ZM25.0079 55.9049C23.4065 55.9049 22.1084 54.6068 22.1084 53.0055C22.1084 51.4042 23.4065 50.106 25.0079 50.106C26.6092 50.106 27.9073 51.4042 27.9073 53.0055C27.9073 54.6068 26.6092 55.9049 25.0079 55.9049Z"/>
</mask>
<path fill-rule="evenodd" clip-rule="evenodd" d="M24.2793 47.6551C24.3704 46.7816 25.6422 46.7816 25.7333 47.6551C25.8028 48.3219 26.6583 48.5511 27.0519 48.0084C27.5675 47.2975 28.6689 47.9334 28.311 48.7354C28.0379 49.3476 28.6641 49.9739 29.2763 49.7007C30.0783 49.3428 30.7142 50.4442 30.0033 50.9598C29.4606 51.3534 29.6899 52.2089 30.3566 52.2785C31.2301 52.3695 31.2301 53.6413 30.3566 53.7324C29.6899 53.8019 29.4606 54.6574 30.0033 55.051C30.7142 55.5666 30.0783 56.668 29.2763 56.3101C28.6641 56.037 28.0379 56.6632 28.311 57.2754C28.6689 58.0774 27.5675 58.7133 27.0519 58.0024C26.6583 57.4597 25.8028 57.689 25.7333 58.3557C25.6422 59.2292 24.3704 59.2292 24.2793 58.3557C24.2098 57.689 23.3543 57.4597 22.9607 58.0024C22.4451 58.7133 21.3437 58.0774 21.7016 57.2754C21.9748 56.6632 21.3485 56.037 20.7363 56.3101C19.9343 56.668 19.2984 55.5666 20.0093 55.051C20.552 54.6574 20.3228 53.8019 19.656 53.7324C18.7825 53.6413 18.7825 52.3695 19.656 52.2785C20.3228 52.2089 20.552 51.3534 20.0093 50.9598C19.2984 50.4442 19.9343 49.3428 20.7363 49.7007C21.3485 49.9739 21.9748 49.3476 21.7016 48.7354C21.3437 47.9334 22.4451 47.2975 22.9607 48.0084C23.3543 48.5511 24.2098 48.3219 24.2793 47.6551ZM25.0079 55.9049C23.4065 55.9049 22.1084 54.6068 22.1084 53.0055C22.1084 51.4042 23.4065 50.106 25.0079 50.106C26.6092 50.106 27.9073 51.4042 27.9073 53.0055C27.9073 54.6068 26.6092 55.9049 25.0079 55.9049Z" fill="#F2F7FF"/>
<path d="M25.7333 47.6551L26.9314 47.5302V47.5302L25.7333 47.6551ZM24.2793 47.6551L25.4775 47.78V47.78L24.2793 47.6551ZM27.0519 48.0084L28.0271 48.7157L28.0271 48.7157L27.0519 48.0084ZM28.311 48.7354L29.4111 49.2263L28.311 48.7354ZM29.2763 49.7007L28.7854 48.6006L29.2763 49.7007ZM30.0033 50.9598L30.7106 51.935L30.0033 50.9598ZM30.3566 52.2785L30.2317 53.4766H30.2317L30.3566 52.2785ZM30.3566 53.7324L30.4815 54.9306H30.4815L30.3566 53.7324ZM30.0033 55.051L29.296 56.0262H29.296L30.0033 55.051ZM29.2763 56.3101L29.7672 55.21L29.2763 56.3101ZM28.311 57.2754L29.4111 56.7845L29.4111 56.7845L28.311 57.2754ZM27.0519 58.0024L28.0271 57.2951H28.0271L27.0519 58.0024ZM25.7333 58.3557L24.5351 58.2308L25.7333 58.3557ZM24.2793 58.3557L25.4775 58.2308L24.2793 58.3557ZM22.9607 58.0024L23.9359 58.7097L23.9359 58.7097L22.9607 58.0024ZM21.7016 57.2754L20.6015 56.7845V56.7845L21.7016 57.2754ZM20.7363 56.3101L21.2272 57.4103L20.7363 56.3101ZM20.0093 55.051L19.302 54.0758L20.0093 55.051ZM19.656 53.7324L19.7809 52.5342L19.656 53.7324ZM19.656 52.2785L19.5311 51.0803L19.5311 51.0803L19.656 52.2785ZM20.0093 50.9598L20.7166 49.9846L20.0093 50.9598ZM20.7363 49.7007L20.2454 50.8008L20.2454 50.8008L20.7363 49.7007ZM21.7016 48.7354L22.8017 48.2445V48.2445L21.7016 48.7354ZM22.9607 48.0084L21.9855 48.7157V48.7157L22.9607 48.0084ZM24.5351 47.78C24.5444 47.8697 24.5991 47.9991 24.7177 48.0962C24.8203 48.1801 24.9268 48.2047 25.0063 48.2047C25.0858 48.2047 25.1923 48.1801 25.2949 48.0962C25.4136 47.9991 25.4682 47.8697 25.4775 47.78L23.0812 47.5302C23.3223 45.217 26.6903 45.2171 26.9314 47.5302L24.5351 47.78ZM28.0271 48.7157C26.9848 50.1528 24.7192 49.5458 24.5351 47.78L26.9314 47.5302C26.8864 47.098 26.3318 46.9494 26.0767 47.3011L28.0271 48.7157ZM27.2109 48.2445C27.1742 48.3269 27.1568 48.4662 27.211 48.6096C27.2579 48.7336 27.3378 48.8081 27.4067 48.8479C27.4755 48.8876 27.58 48.9196 27.7109 48.8982C27.8621 48.8735 27.9741 48.7887 28.0271 48.7157L26.0767 47.3012C27.4421 45.4185 30.3589 47.1025 29.4111 49.2263L27.2109 48.2445ZM29.7672 50.8008C28.146 51.5242 26.4875 49.8657 27.2109 48.2445L29.4111 49.2263C29.5882 48.8295 29.1823 48.4235 28.7854 48.6006L29.7672 50.8008ZM29.296 49.9846C29.223 50.0376 29.1382 50.1496 29.1135 50.3008C29.0921 50.4317 29.1241 50.5362 29.1639 50.605C29.2036 50.6739 29.2781 50.7539 29.4021 50.8008C29.5455 50.855 29.6849 50.8376 29.7672 50.8008L28.7854 48.6006C30.9093 47.6529 32.5932 50.5696 30.7106 51.935L29.296 49.9846ZM30.2317 53.4766C28.466 53.2925 27.8589 51.0269 29.296 49.9846L30.7106 51.935C31.0623 51.6799 30.9137 51.1253 30.4815 51.0803L30.2317 53.4766ZM30.2317 52.5342C30.142 52.5435 30.0126 52.5982 29.9155 52.7168C29.8316 52.8194 29.807 52.9259 29.807 53.0054C29.807 53.0849 29.8316 53.1914 29.9155 53.294C30.0126 53.4127 30.142 53.4673 30.2317 53.4766L30.4815 51.0803C32.7947 51.3214 32.7947 54.6894 30.4815 54.9306L30.2317 52.5342ZM29.296 56.0262C27.8589 54.9839 28.466 52.7183 30.2317 52.5342L30.4815 54.9306C30.9137 54.8855 31.0623 54.3309 30.7106 54.0758L29.296 56.0262ZM29.7672 55.21C29.6849 55.1733 29.5455 55.1559 29.4021 55.2101C29.2781 55.257 29.2036 55.3369 29.1639 55.4058C29.1241 55.4746 29.0921 55.5791 29.1135 55.71C29.1382 55.8612 29.223 55.9732 29.296 56.0262L30.7106 54.0758C32.5932 55.4412 30.9093 58.358 28.7854 57.4103L29.7672 55.21ZM27.2109 57.7663C26.4875 56.1451 28.146 54.4866 29.7672 55.21L28.7854 57.4103C29.1823 57.5873 29.5882 57.1814 29.4111 56.7845L27.2109 57.7663ZM28.0271 57.2951C27.9741 57.2221 27.8621 57.1374 27.7109 57.1126C27.58 57.0912 27.4755 57.1232 27.4067 57.163C27.3378 57.2027 27.2579 57.2772 27.211 57.4013C27.1568 57.5446 27.1742 57.684 27.2109 57.7663L29.4111 56.7845C30.3589 58.9084 27.4421 60.5923 26.0767 58.7097L28.0271 57.2951ZM24.5351 58.2308C24.7192 56.4651 26.9848 55.858 28.0271 57.2951L26.0767 58.7097C26.3318 59.0614 26.8864 58.9128 26.9314 58.4806L24.5351 58.2308ZM25.4775 58.2308C25.4682 58.1411 25.4136 58.0117 25.2949 57.9147C25.1923 57.8307 25.0858 57.8062 25.0063 57.8062C24.9268 57.8062 24.8203 57.8307 24.7177 57.9147C24.5991 58.0117 24.5444 58.1411 24.5351 58.2308L26.9314 58.4806C26.6903 60.7938 23.3223 60.7938 23.0812 58.4806L25.4775 58.2308ZM21.9855 57.2951C23.0278 55.858 25.2934 56.4651 25.4775 58.2308L23.0812 58.4806C23.1262 58.9128 23.6808 59.0614 23.9359 58.7097L21.9855 57.2951ZM22.8017 57.7663C22.8385 57.684 22.8559 57.5446 22.8017 57.4013C22.7548 57.2772 22.6748 57.2027 22.6059 57.163C22.5371 57.1232 22.4326 57.0912 22.3017 57.1126C22.1505 57.1374 22.0385 57.2221 21.9855 57.2951L23.9359 58.7097C22.5705 60.5923 19.6538 58.9084 20.6015 56.7845L22.8017 57.7663ZM20.2454 55.21C21.8666 54.4866 23.5251 56.1451 22.8017 57.7663L20.6015 56.7845C20.4244 57.1814 20.8304 57.5873 21.2272 57.4103L20.2454 55.21ZM20.7166 56.0262C20.7896 55.9732 20.8744 55.8612 20.8991 55.71C20.9205 55.5791 20.8885 55.4746 20.8487 55.4058C20.809 55.3369 20.7345 55.257 20.6105 55.2101C20.4671 55.1559 20.3277 55.1733 20.2454 55.21L21.2272 57.4103C19.1034 58.358 17.4194 55.4412 19.302 54.0758L20.7166 56.0262ZM19.7809 52.5342C21.5466 52.7183 22.1537 54.9839 20.7166 56.0262L19.302 54.0758C18.9503 54.3309 19.0989 54.8855 19.5311 54.9306L19.7809 52.5342ZM19.7809 53.4766C19.8706 53.4673 20 53.4127 20.0971 53.294C20.181 53.1914 20.2056 53.0849 20.2056 53.0054C20.2056 52.9259 20.181 52.8194 20.0971 52.7168C20 52.5982 19.8706 52.5435 19.7809 52.5342L19.5311 54.9306C17.2179 54.6894 17.2179 51.3214 19.5311 51.0803L19.7809 53.4766ZM20.7166 49.9846C22.1537 51.0269 21.5466 53.2925 19.7809 53.4766L19.5311 51.0803C19.0989 51.1253 18.9503 51.6799 19.302 51.935L20.7166 49.9846ZM20.2454 50.8008C20.3277 50.8376 20.4671 50.855 20.6105 50.8008C20.7345 50.7539 20.809 50.6739 20.8487 50.605C20.8885 50.5362 20.9205 50.4317 20.8991 50.3008C20.8744 50.1496 20.7896 50.0376 20.7166 49.9846L19.302 51.935C17.4194 50.5696 19.1033 47.6529 21.2272 48.6006L20.2454 50.8008ZM22.8017 48.2445C23.5251 49.8657 21.8666 51.5242 20.2454 50.8008L21.2272 48.6006C20.8304 48.4235 20.4244 48.8295 20.6015 49.2263L22.8017 48.2445ZM21.9855 48.7157C22.0385 48.7887 22.1505 48.8735 22.3017 48.8982C22.4326 48.9196 22.5371 48.8876 22.6059 48.8479C22.6748 48.8081 22.7548 48.7336 22.8017 48.6096C22.8559 48.4662 22.8385 48.3269 22.8017 48.2445L20.6015 49.2263C19.6538 47.1025 22.5705 45.4185 23.9359 47.3012L21.9855 48.7157ZM25.4775 47.78C25.2934 49.5458 23.0278 50.1528 21.9855 48.7157L23.9359 47.3012C23.6808 46.9494 23.1262 47.098 23.0812 47.5302L25.4775 47.78ZM23.3131 53.0055C23.3131 53.9415 24.0719 54.7002 25.0079 54.7002V57.1096C22.7412 57.1096 20.9037 55.2721 20.9037 53.0055H23.3131ZM25.0079 51.3107C24.0719 51.3107 23.3131 52.0695 23.3131 53.0055H20.9037C20.9037 50.7388 22.7412 48.9014 25.0079 48.9014V51.3107ZM26.7026 53.0055C26.7026 52.0695 25.9438 51.3107 25.0079 51.3107V48.9014C27.2745 48.9014 29.112 50.7388 29.112 53.0055H26.7026ZM25.0079 54.7002C25.9438 54.7002 26.7026 53.9415 26.7026 53.0055H29.112C29.112 55.2721 27.2745 57.1096 25.0079 57.1096V54.7002Z" fill="#F74364" mask="url(#path-4-inside-1)"/>
<g filter="url(#filter2_d)">
<circle r="1.84666" transform="matrix(-1 0 0 1 35.9736 40.9717)" fill="#FF7A00"/>
</g>
<path fill-rule="evenodd" clip-rule="evenodd" d="M27.7071 14.7643C28.0217 9.87127 32.09 6 37.0625 6C42.035 6 46.1033 9.87127 46.4179 14.7643C47.4658 13.9708 48.7717 13.5 50.1875 13.5C53.5423 13.5 56.2798 16.1433 56.4309 19.4608C57.0951 18.8635 57.9739 18.5 58.9375 18.5C61.0086 18.5 62.6875 20.1789 62.6875 22.25C62.6875 24.3211 61.0086 26 58.9375 26H50.1875H23.9375H15.1875C13.1164 26 11.4375 24.3211 11.4375 22.25C11.4375 20.1789 13.1164 18.5 15.1875 18.5C16.1511 18.5 17.0298 18.8635 17.6941 19.4608C17.8452 16.1433 20.5827 13.5 23.9375 13.5C25.3533 13.5 26.6592 13.9708 27.7071 14.7643Z" fill="url(#paint0_linear)"/>
<g filter="url(#filter3_d)">
<path fill-rule="evenodd" clip-rule="evenodd" d="M21.1426 26.2346C21.4741 21.079 25.7607 17 31 17C36.2393 17 40.5259 21.079 40.8574 26.2346C41.9616 25.3985 43.3375 24.9024 44.8293 24.9024C48.3641 24.9024 51.2485 27.6875 51.4077 31.183C52.1076 30.5537 53.0335 30.1707 54.0488 30.1707C56.231 30.1707 58 31.9398 58 34.122C58 36.3041 56.231 38.0732 54.0488 38.0732H44.8293H17.1707H7.95122C5.76902 38.0732 4 36.3041 4 34.122C4 31.9398 5.76902 30.1707 7.95122 30.1707C8.96655 30.1707 9.89242 30.5537 10.5923 31.1831C10.7515 27.6875 13.6359 24.9024 17.1707 24.9024C18.6625 24.9024 20.0384 25.3985 21.1426 26.2346Z" fill="#F2F7FF"/>
</g>
<g filter="url(#filter4_d)">
<path fill-rule="evenodd" clip-rule="evenodd" d="M44.7938 30.9593C45.3868 30.5103 46.1257 30.2439 46.9268 30.2439C48.8252 30.2439 50.3742 31.7396 50.4597 33.6168C50.8355 33.2788 51.3328 33.0732 51.878 33.0732C53.05 33.0732 54 34.0232 54 35.1951C54 36.367 53.05 37.3171 51.878 37.3171L46.9268 37.3171H32.0732L27.122 37.3171C25.95 37.3171 25 36.367 25 35.1951C25 34.0232 25.95 33.0732 27.122 33.0732C27.6672 33.0732 28.1644 33.2788 28.5403 33.6168C28.6258 31.7396 30.1748 30.2439 32.0732 30.2439C32.8743 30.2439 33.6132 30.5103 34.2062 30.9593C34.3842 28.1906 36.6863 26 39.5 26C42.3137 26 44.6158 28.1906 44.7938 30.9593Z" fill="#87F2C5"/>
</g>
<defs>
<filter id="filter0_d" x="5.52273" y="27.2614" width="22.8978" height="22.8978" filterUnits="userSpaceOnUse" color-interpolation-filters="sRGB">
<feFlood flood-opacity="0" result="BackgroundImageFix"/>
<feColorMatrix in="SourceAlpha" type="matrix" values="0 0 0 0 0 0 0 0 0 0 0 0 0 0 0 0 0 0 127 0"/>
<feOffset dy="0.738636"/>
<feGaussianBlur stdDeviation="0.738636"/>
<feColorMatrix type="matrix" values="0 0 0 0 0 0 0 0 0 0 0 0 0 0 0 0 0 0 0.6 0"/>
<feBlend mode="normal" in2="BackgroundImageFix" result="effect1_dropShadow"/>
<feBlend mode="normal" in="SourceGraphic" in2="effect1_dropShadow" result="shape"/>
</filter>
<filter id="filter1_d" x="13.6516" y="35.3864" width="6.64787" height="6.64787" filterUnits="userSpaceOnUse" color-interpolation-filters="sRGB">
<feFlood flood-opacity="0" result="BackgroundImageFix"/>
<feColorMatrix in="SourceAlpha" type="matrix" values="0 0 0 0 0 0 0 0 0 0 0 0 0 0 0 0 0 0 127 0"/>
<feOffset dy="0.738636"/>
<feGaussianBlur stdDeviation="0.738636"/>
<feColorMatrix type="matrix" values="0 0 0 0 0 0 0 0 0 0 0 0 0 0 0 0 0 0 0.6 0"/>
<feBlend mode="normal" in2="BackgroundImageFix" result="effect1_dropShadow"/>
<feBlend mode="normal" in="SourceGraphic" in2="effect1_dropShadow" result="shape"/>
</filter>
<filter id="filter2_d" x="32.6497" y="38.3864" width="6.64787" height="6.64787" filterUnits="userSpaceOnUse" color-interpolation-filters="sRGB">
<feFlood flood-opacity="0" result="BackgroundImageFix"/>
<feColorMatrix in="SourceAlpha" type="matrix" values="0 0 0 0 0 0 0 0 0 0 0 0 0 0 0 0 0 0 127 0"/>
<feOffset dy="0.738636"/>
<feGaussianBlur stdDeviation="0.738636"/>
<feColorMatrix type="matrix" values="0 0 0 0 0 0 0 0 0 0 0 0 0 0 0 0 0 0 0.6 0"/>
<feBlend mode="normal" in2="BackgroundImageFix" result="effect1_dropShadow"/>
<feBlend mode="normal" in="SourceGraphic" in2="effect1_dropShadow" result="shape"/>
</filter>
<filter id="filter3_d" x="2.52273" y="16.2614" width="56.9545" height="24.0277" filterUnits="userSpaceOnUse" color-interpolation-filters="sRGB">
<feFlood flood-opacity="0" result="BackgroundImageFix"/>
<feColorMatrix in="SourceAlpha" type="matrix" values="0 0 0 0 0 0 0 0 0 0 0 0 0 0 0 0 0 0 127 0"/>
<feOffset dy="0.738636"/>
<feGaussianBlur stdDeviation="0.738636"/>
<feColorMatrix type="matrix" values="0 0 0 0 0 0 0 0 0 0 0 0 0 0 0 0 0 0 0.6 0"/>
<feBlend mode="normal" in2="BackgroundImageFix" result="effect1_dropShadow"/>
<feBlend mode="normal" in="SourceGraphic" in2="effect1_dropShadow" result="shape"/>
</filter>
<filter id="filter4_d" x="23.5227" y="25.2614" width="31.9545" height="14.2716" filterUnits="userSpaceOnUse" color-interpolation-filters="sRGB">
<feFlood flood-opacity="0" result="BackgroundImageFix"/>
<feColorMatrix in="SourceAlpha" type="matrix" values="0 0 0 0 0 0 0 0 0 0 0 0 0 0 0 0 0 0 127 0"/>
<feOffset dy="0.738636"/>
<feGaussianBlur stdDeviation="0.738636"/>
<feColorMatrix type="matrix" values="0 0 0 0 0 0 0 0 0 0 0 0 0 0 0 0 0 0 0.6 0"/>
<feBlend mode="normal" in2="BackgroundImageFix" result="effect1_dropShadow"/>
<feBlend mode="normal" in="SourceGraphic" in2="effect1_dropShadow" result="shape"/>
</filter>
<linearGradient id="paint0_linear" x1="11.4375" y1="10.9676" x2="62.6875" y2="10.9676" gradientUnits="userSpaceOnUse">
<stop stop-color="#3DAEFF"/>
<stop offset="1" stop-color="#1E5DFF"/>
</linearGradient>
</defs>
</svg>
