<svg width="48" height="50" viewBox="0 0 48 50" fill="none" xmlns="http://www.w3.org/2000/svg">
<circle r="8.5" transform="matrix(-1 0 0 1 9.5 8.5)" fill="#F74364"/>
<circle r="8.5" transform="matrix(-1 0 0 1 37.5 8.5)" fill="#F74364"/>
<circle r="6.5" transform="matrix(-1 0 0 1 9.5 8.5)" fill="#FF7A00"/>
<circle r="6.5" transform="matrix(-1 0 0 1 37.5 8.5)" fill="#FF7A00"/>
<circle cx="24" cy="26" r="24" fill="url(#paint0_linear)"/>
<circle cx="24" cy="26" r="21" fill="#F2F7FF"/>
<circle r="2.98851" transform="matrix(-1 0 0 1 23.9881 9.98851)" fill="#F74364"/>
<g filter="url(#filter0_d)">
<circle r="2.98851" transform="matrix(-1 0 0 1 7.98806 25.9885)" fill="#87F2C5"/>
</g>
<g filter="url(#filter1_d)">
<circle r="2.98851" transform="matrix(-1 0 0 1 23.9881 41.9885)" fill="#87F2C5"/>
</g>
<g filter="url(#filter2_d)">
<circle r="2.98851" transform="matrix(-1 0 0 1 39.9881 25.9885)" fill="#87F2C5"/>
</g>
<circle r="1" transform="matrix(-1 0 0 1 33 12)" fill="#3D8BFF"/>
<circle r="1" transform="matrix(-1 0 0 1 33 39)" fill="#3D8BFF"/>
<circle r="1" transform="matrix(-1 0 0 1 38 17)" fill="#3D8BFF"/>
<circle r="1" transform="matrix(-1 0 0 1 38 35)" fill="#3D8BFF"/>
<circle cx="15" cy="12" r="1" fill="#3D8BFF"/>
<circle cx="15" cy="39" r="1" fill="#3D8BFF"/>
<circle cx="10" cy="17" r="1" fill="#3D8BFF"/>
<circle cx="10" cy="35" r="1" fill="#3D8BFF"/>
<circle r="2.98851" transform="matrix(-1 0 0 1 23.9881 25.9885)" fill="url(#paint1_linear)"/>
<g filter="url(#filter3_d)">
<path fill-rule="evenodd" clip-rule="evenodd" d="M23.2991 9.36942C23.5834 8.87699 24.2942 8.87699 24.5785 9.36941L27.7769 14.9092C28.0612 15.4016 27.7058 16.0171 27.1372 16.0171L25.4169 16.0171L25.4169 25.6604C25.4169 26.4763 24.7555 27.1377 23.9396 27.1377C23.1238 27.1377 22.4624 26.4763 22.4624 25.6604L22.4624 16.0171L20.7404 16.0171C20.1718 16.0171 19.8165 15.4016 20.1008 14.9092L23.2991 9.36942Z" fill="#F74364"/>
</g>
<path fill-rule="evenodd" clip-rule="evenodd" d="M36.233 25.2984C36.7254 25.5827 36.7254 26.2935 36.233 26.5778L30.6932 29.7762C30.2008 30.0605 29.5852 29.7051 29.5852 29.1365V27.4771H24.0007C23.1848 27.4771 22.5234 26.8157 22.5234 25.9999C22.5234 25.184 23.1848 24.5226 24.0007 24.5226H29.5852V22.7397C29.5852 22.1711 30.2008 21.8157 30.6932 22.1L36.233 25.2984Z" fill="#F74364"/>
<defs>
<filter id="filter0_d" x="3.52273" y="22.2614" width="8.93156" height="8.93156" filterUnits="userSpaceOnUse" color-interpolation-filters="sRGB">
<feFlood flood-opacity="0" result="BackgroundImageFix"/>
<feColorMatrix in="SourceAlpha" type="matrix" values="0 0 0 0 0 0 0 0 0 0 0 0 0 0 0 0 0 0 127 0"/>
<feOffset dy="0.738636"/>
<feGaussianBlur stdDeviation="0.738636"/>
<feColorMatrix type="matrix" values="0 0 0 0 0 0 0 0 0 0 0 0 0 0 0 0 0 0 0.6 0"/>
<feBlend mode="normal" in2="BackgroundImageFix" result="effect1_dropShadow"/>
<feBlend mode="normal" in="SourceGraphic" in2="effect1_dropShadow" result="shape"/>
</filter>
<filter id="filter1_d" x="19.5227" y="38.2614" width="8.93156" height="8.93156" filterUnits="userSpaceOnUse" color-interpolation-filters="sRGB">
<feFlood flood-opacity="0" result="BackgroundImageFix"/>
<feColorMatrix in="SourceAlpha" type="matrix" values="0 0 0 0 0 0 0 0 0 0 0 0 0 0 0 0 0 0 127 0"/>
<feOffset dy="0.738636"/>
<feGaussianBlur stdDeviation="0.738636"/>
<feColorMatrix type="matrix" values="0 0 0 0 0 0 0 0 0 0 0 0 0 0 0 0 0 0 0.6 0"/>
<feBlend mode="normal" in2="BackgroundImageFix" result="effect1_dropShadow"/>
<feBlend mode="normal" in="SourceGraphic" in2="effect1_dropShadow" result="shape"/>
</filter>
<filter id="filter2_d" x="35.5227" y="22.2614" width="8.93156" height="8.93156" filterUnits="userSpaceOnUse" color-interpolation-filters="sRGB">
<feFlood flood-opacity="0" result="BackgroundImageFix"/>
<feColorMatrix in="SourceAlpha" type="matrix" values="0 0 0 0 0 0 0 0 0 0 0 0 0 0 0 0 0 0 127 0"/>
<feOffset dy="0.738636"/>
<feGaussianBlur stdDeviation="0.738636"/>
<feColorMatrix type="matrix" values="0 0 0 0 0 0 0 0 0 0 0 0 0 0 0 0 0 0 0.6 0"/>
<feBlend mode="normal" in2="BackgroundImageFix" result="effect1_dropShadow"/>
<feBlend mode="normal" in="SourceGraphic" in2="effect1_dropShadow" result="shape"/>
</filter>
<filter id="filter3_d" x="18.5227" y="8.26136" width="10.8308" height="21.0921" filterUnits="userSpaceOnUse" color-interpolation-filters="sRGB">
<feFlood flood-opacity="0" result="BackgroundImageFix"/>
<feColorMatrix in="SourceAlpha" type="matrix" values="0 0 0 0 0 0 0 0 0 0 0 0 0 0 0 0 0 0 127 0"/>
<feOffset dy="0.738636"/>
<feGaussianBlur stdDeviation="0.738636"/>
<feColorMatrix type="matrix" values="0 0 0 0 0 0 0 0 0 0 0 0 0 0 0 0 0 0 0.6 0"/>
<feBlend mode="normal" in2="BackgroundImageFix" result="effect1_dropShadow"/>
<feBlend mode="normal" in="SourceGraphic" in2="effect1_dropShadow" result="shape"/>
</filter>
<linearGradient id="paint0_linear" x1="0" y1="13.9223" x2="48" y2="13.9223" gradientUnits="userSpaceOnUse">
<stop stop-color="#3DAEFF"/>
<stop offset="1" stop-color="#1E5DFF"/>
</linearGradient>
<linearGradient id="paint1_linear" x1="0" y1="1.48457" x2="5.97701" y2="1.48457" gradientUnits="userSpaceOnUse">
<stop stop-color="#3DAEFF"/>
<stop offset="1" stop-color="#1E5DFF"/>
</linearGradient>
</defs>
</svg>
