<svg xmlns="http://www.w3.org/2000/svg" viewBox="0 0 22.149 22.136">
  <defs>
    <style>
      .cls-1 {
        fill: #fff;
      }
    </style>
  </defs>
  <g id="Group_7595" data-name="Group 7595" transform="translate(-1661 -3909)">
    <g id="Group_7594" data-name="Group 7594" transform="translate(1623 3897)">
      <g id="rotate" transform="translate(38 11.867)">
        <g id="Group_6376" data-name="Group 6376" transform="translate(1.73 0.133)">
          <g id="Group_6375" data-name="Group 6375">
            <g id="Group_6374" data-name="Group 6374">
              <path id="Path_11520" data-name="Path 11520" class="cls-1" d="M57.175,3.376A11.082,11.082,0,0,0,44.219,1.388a11.135,11.135,0,0,0-2.488,1.78V.133H40V6.189h6.056V4.459H42.884a9.342,9.342,0,0,1,15.8,6.748c0,.287-.013.576-.039.86l1.723.157c.031-.335.046-.677.046-1.016h0A11,11,0,0,0,57.175,3.376Z" transform="translate(-40 -0.133)"/>
              <path id="Path_11521" data-name="Path 11521" class="cls-1" d="M512,256.132Z" transform="translate(-491.581 -245.058)"/>
            </g>
          </g>
        </g>
        <g id="Group_6378" data-name="Group 6378" transform="translate(2.448 17.065)">
          <g id="Group_6377" data-name="Group 6377">
            <path id="Path_11522" data-name="Path 11522" class="cls-1" d="M57.926,391.566l-1.347,1.086a11.169,11.169,0,0,0,1.294,1.355l1.146-1.3A9.422,9.422,0,0,1,57.926,391.566Z" transform="translate(-56.579 -391.566)"/>
          </g>
        </g>
        <g id="Group_6380" data-name="Group 6380" transform="translate(0.627 14.313)">
          <g id="Group_6379" data-name="Group 6379">
            <path id="Path_11523" data-name="Path 11523" class="cls-1" d="M16.124,327.943l-1.632.575a11.056,11.056,0,0,0,.772,1.709l1.511-.843A9.319,9.319,0,0,1,16.124,327.943Z" transform="translate(-14.492 -327.943)"/>
          </g>
        </g>
        <g id="Group_6382" data-name="Group 6382" transform="translate(0 11.207)">
          <g id="Group_6381" data-name="Group 6381">
            <path id="Path_11524" data-name="Path 11524" class="cls-1" d="M1.73,256.133H0A11.18,11.18,0,0,0,.157,258l1.706-.29A9.437,9.437,0,0,1,1.73,256.133Z" transform="translate(0 -256.133)"/>
          </g>
        </g>
        <g id="Group_6384" data-name="Group 6384" transform="translate(5.245 19.153)">
          <g id="Group_6383" data-name="Group 6383">
            <path id="Path_11525" data-name="Path 11525" class="cls-1" d="M122.16,439.841l-.912,1.47a11.078,11.078,0,0,0,1.671.849l.65-1.6A9.333,9.333,0,0,1,122.16,439.841Z" transform="translate(-121.248 -439.841)"/>
          </g>
        </g>
        <g id="Group_6386" data-name="Group 6386" transform="translate(19.567 13.622)">
          <g id="Group_6385" data-name="Group 6385">
            <path id="Path_11526" data-name="Path 11526" class="cls-1" d="M452.858,311.981a9.3,9.3,0,0,1-.536,1.486l1.572.724a11.042,11.042,0,0,0,.636-1.764Z" transform="translate(-452.322 -311.981)"/>
          </g>
        </g>
        <g id="Group_6388" data-name="Group 6388" transform="translate(15.242 18.748)">
          <g id="Group_6387" data-name="Group 6387">
            <path id="Path_11527" data-name="Path 11527" class="cls-1" d="M353.691,430.468a9.367,9.367,0,0,1-1.35.824l.773,1.548a11.109,11.109,0,0,0,1.6-.976Z" transform="translate(-352.341 -430.468)"/>
          </g>
        </g>
        <g id="Group_6390" data-name="Group 6390" transform="translate(17.786 16.483)">
          <g id="Group_6389" data-name="Group 6389">
            <path id="Path_11528" data-name="Path 11528" class="cls-1" d="M412.132,378.123a9.428,9.428,0,0,1-1,1.225l1.243,1.2a11.148,11.148,0,0,0,1.186-1.45Z" transform="translate(-411.13 -378.123)"/>
          </g>
        </g>
        <g id="Group_6392" data-name="Group 6392" transform="translate(12.226 20.155)">
          <g id="Group_6391" data-name="Group 6391">
            <path id="Path_11529" data-name="Path 11529" class="cls-1" d="M284.161,462.995a9.32,9.32,0,0,1-1.547.325l.211,1.717a11.059,11.059,0,0,0,1.835-.386Z" transform="translate(-282.614 -462.995)"/>
          </g>
        </g>
        <g id="Group_6394" data-name="Group 6394" transform="translate(8.707 20.336)">
          <g id="Group_6393" data-name="Group 6393">
            <path id="Path_11530" data-name="Path 11530" class="cls-1" d="M201.648,467.185l-.368,1.691a11.112,11.112,0,0,0,1.858.242l.078-1.728A9.387,9.387,0,0,1,201.648,467.185Z" transform="translate(-201.28 -467.185)"/>
          </g>
        </g>
      </g>
    </g>
  </g>
</svg>
