<svg width="31" height="32" viewBox="0 0 31 32" fill="none" xmlns="http://www.w3.org/2000/svg">
<path d="M29.8897 14.7637L16.4306 1.30463L15.126 0L4.99447 10.1315L0.362224 14.7637C0.13028 14.996 0 15.3108 0 15.639C0 15.9672 0.13028 16.282 0.362224 16.5142L9.61846 25.7705L15.126 31.278L25.2575 21.1465L25.4143 20.9896L29.8897 16.5142C30.1216 16.282 30.2519 15.9672 30.2519 15.639C30.2519 15.3108 30.1216 14.996 29.8897 14.7637ZM15.126 20.263L10.502 15.639L15.126 11.015L19.75 15.639L15.126 20.263Z" fill="#2684FF"/>
<path d="M15.1267 11.015C13.6724 9.56048 12.8527 7.58966 12.8465 5.53284C12.8403 3.47603 13.6482 1.50031 15.0937 0.0371094L4.97461 10.1521L10.4821 15.6596L15.1267 11.015Z" fill="url(#paint0_linear)"/>
<path d="M19.7614 15.6265L15.125 20.2628C15.8485 20.9859 16.4225 21.8445 16.8141 22.7895C17.2057 23.7345 17.4072 24.7474 17.4072 25.7703C17.4072 26.7933 17.2057 27.8062 16.8141 28.7512C16.4225 29.6962 15.8485 30.5547 15.125 31.2778L25.2689 21.134L19.7614 15.6265Z" fill="url(#paint1_linear)"/>
<defs>
<linearGradient id="paint0_linear" x1="14.301" y1="6.3373" x2="7.84396" y2="12.7944" gradientUnits="userSpaceOnUse">
<stop offset="0.18" stop-color="#0052CC"/>
<stop offset="1" stop-color="#2684FF"/>
</linearGradient>
<linearGradient id="paint1_linear" x1="408.505" y1="959.092" x2="631.519" y2="814.553" gradientUnits="userSpaceOnUse">
<stop offset="0.18" stop-color="#0052CC"/>
<stop offset="1" stop-color="#2684FF"/>
</linearGradient>
</defs>
</svg>
