<svg width="111" height="124" viewBox="0 0 111 124" fill="none" xmlns="http://www.w3.org/2000/svg">
<path d="M21.4336 0.683668V27.32C21.4336 27.6975 21.7397 28.0036 22.1172 28.0036H31.2513C31.6288 28.0036 31.9349 27.6975 31.9349 27.32V0.68367C31.9349 0.306115 31.6288 4.67358e-05 31.2513 4.67358e-05H22.1172C21.7397 4.67358e-05 21.4336 0.306114 21.4336 0.683668Z" fill="url(#paint0_linear)"/>
<path d="M38.9608 27.3198V0.683623C38.9608 0.306068 39.2668 0 39.6444 0H90.7836C91.1612 0 91.4672 0.30607 91.4672 0.683625V58.8237C91.4672 59.2013 91.1612 59.5073 90.7836 59.5073H39.6444C39.2668 59.5073 38.9608 59.2013 38.9608 58.8237V49.6897C38.9608 49.3121 39.2668 49.006 39.6444 49.006H80.2823C80.6599 49.006 80.9659 48.7 80.9659 48.3224V11.1849C80.9659 10.8074 80.6599 10.5013 80.2823 10.5013H50.1457C49.7681 10.5013 49.462 10.8074 49.462 11.1849V27.3198C49.462 27.6974 49.156 28.0035 48.7784 28.0035H39.6444C39.2668 28.0035 38.9608 27.6974 38.9608 27.3198Z" fill="url(#paint1_linear)"/>
<path d="M31.9251 39.3804L31.9251 65.6336C31.9251 66.1169 31.5333 66.5087 31.05 66.5087L22.2989 66.5087C21.8156 66.5087 21.4238 66.1169 21.4238 65.6336L21.4238 39.3804C21.4238 38.897 21.8156 38.5052 22.2989 38.5052H31.05C31.5333 38.5052 31.9251 38.897 31.9251 39.3804Z" fill="url(#paint2_linear)"/>
<path d="M70.6391 39.3804V65.6336C70.6391 66.1169 70.2473 66.5087 69.764 66.5087L61.013 66.5087C60.5296 66.5087 60.1379 66.1169 60.1379 65.6336L60.1379 39.3804C60.1379 38.897 60.5297 38.5052 61.013 38.5052H69.764C70.2473 38.5052 70.6391 38.897 70.6391 39.3804Z" fill="url(#paint3_linear)"/>
<path d="M7.31363 92.1068C7.73695 92.8829 8.21907 93.8471 8.75998 94.9995C9.3244 96.1283 9.90059 97.363 10.4885 98.7035C11.1 100.021 11.6997 101.373 12.2876 102.76C12.8756 104.148 13.4283 105.453 13.9457 106.676C14.463 105.453 15.0157 104.148 15.6037 102.76C16.1916 101.373 16.7795 100.021 17.3675 98.7035C17.979 97.363 18.5551 96.1283 19.096 94.9995C19.6605 93.8471 20.1543 92.8829 20.5777 92.1068H25.587C25.8221 93.7295 26.0338 95.5521 26.2219 97.5747C26.4336 99.5737 26.61 101.667 26.7511 103.854C26.9157 106.018 27.0568 108.193 27.1744 110.38C27.3155 112.567 27.4331 114.625 27.5272 116.554H22.1651C22.0946 114.178 22.0005 111.591 21.8829 108.793C21.7653 105.994 21.5889 103.172 21.3538 100.326C20.9304 101.314 20.4601 102.408 19.9427 103.607C19.4253 104.806 18.9079 106.006 18.3905 107.205C17.8966 108.405 17.4145 109.557 16.9442 110.662C16.4738 111.744 16.074 112.673 15.7448 113.449H11.8996C11.5704 112.673 11.1706 111.744 10.7002 110.662C10.2298 109.557 9.73596 108.405 9.21857 107.205C8.7247 106.006 8.21907 104.806 7.70168 103.607C7.18428 102.408 6.71393 101.314 6.29061 100.326C6.05543 103.172 5.87905 105.994 5.76146 108.793C5.64387 111.591 5.5498 114.178 5.47924 116.554H0.117188C0.211259 114.625 0.317089 112.567 0.434678 110.38C0.575785 108.193 0.716891 106.018 0.857998 103.854C1.02262 101.667 1.19901 99.5737 1.38715 97.5747C1.59881 95.5521 1.82223 93.7295 2.05741 92.1068H7.31363Z" fill="#333333"/>
<path d="M37.1034 104.313C37.1034 105.512 37.2445 106.594 37.5267 107.558C37.8325 108.522 38.2558 109.357 38.7967 110.063C39.3611 110.745 40.0431 111.274 40.8427 111.65C41.6423 112.026 42.5595 112.214 43.5943 112.214C44.6056 112.214 45.511 112.026 46.3106 111.65C47.1338 111.274 47.8158 110.745 48.3567 110.063C48.9211 109.357 49.3444 108.522 49.6266 107.558C49.9324 106.594 50.0852 105.512 50.0852 104.313C50.0852 103.113 49.9324 102.031 49.6266 101.067C49.3444 100.079 48.9211 99.2444 48.3567 98.5624C47.8158 97.8569 47.1338 97.316 46.3106 96.9397C45.511 96.5634 44.6056 96.3753 43.5943 96.3753C42.5595 96.3753 41.6423 96.5752 40.8427 96.975C40.0431 97.3513 39.3611 97.8922 38.7967 98.5977C38.2558 99.2797 37.8325 100.115 37.5267 101.102C37.2445 102.067 37.1034 103.137 37.1034 104.313ZM55.7648 104.313C55.7648 106.406 55.4473 108.252 54.8123 109.851C54.2009 111.427 53.3542 112.755 52.2724 113.837C51.1906 114.896 49.8971 115.695 48.392 116.236C46.9103 116.777 45.3111 117.047 43.5943 117.047C41.9246 117.047 40.3489 116.777 38.8673 116.236C37.3856 115.695 36.0922 114.896 34.9868 113.837C33.8815 112.755 33.0113 111.427 32.3763 109.851C31.7414 108.252 31.4239 106.406 31.4239 104.313C31.4239 102.219 31.7531 100.385 32.4116 98.8094C33.0701 97.2101 33.952 95.8696 35.0574 94.7878C36.1862 93.706 37.4797 92.8946 38.9378 92.3537C40.4194 91.8128 41.9716 91.5424 43.5943 91.5424C45.2641 91.5424 46.8398 91.8128 48.3214 92.3537C49.803 92.8946 51.0965 93.706 52.2018 94.7878C53.3072 95.8696 54.1773 97.2101 54.8123 98.8094C55.4473 100.385 55.7648 102.219 55.7648 104.313Z" fill="#333333"/>
<path d="M76.7558 116.554C75.1801 113.755 73.4751 110.992 71.6407 108.264C69.8063 105.535 67.8543 102.96 65.7847 100.538V116.554H60.3521V92.1068H64.8323C65.6084 92.8829 66.4668 93.8353 67.4075 94.9642C68.3482 96.0931 69.3007 97.3042 70.2649 98.5977C71.2526 99.8677 72.2286 101.196 73.1928 102.584C74.1571 103.948 75.0625 105.265 75.9091 106.535V92.1068H81.377V116.554H76.7558Z" fill="#333333"/>
<path d="M91.6376 104.313C91.6376 105.512 91.7787 106.594 92.0609 107.558C92.3666 108.522 92.79 109.357 93.3309 110.063C93.8953 110.745 94.5773 111.274 95.3769 111.65C96.1765 112.026 97.0937 112.214 98.1285 112.214C99.1398 112.214 100.045 112.026 100.845 111.65C101.668 111.274 102.35 110.745 102.891 110.063C103.455 109.357 103.879 108.522 104.161 107.558C104.467 106.594 104.619 105.512 104.619 104.313C104.619 103.113 104.467 102.031 104.161 101.067C103.879 100.079 103.455 99.2444 102.891 98.5624C102.35 97.8569 101.668 97.316 100.845 96.9397C100.045 96.5634 99.1398 96.3753 98.1285 96.3753C97.0937 96.3753 96.1765 96.5752 95.3769 96.975C94.5773 97.3513 93.8953 97.8922 93.3309 98.5977C92.79 99.2797 92.3666 100.115 92.0609 101.102C91.7787 102.067 91.6376 103.137 91.6376 104.313ZM110.299 104.313C110.299 106.029 110.087 107.581 109.664 108.969C109.241 110.333 108.641 111.532 107.865 112.567C107.112 113.602 106.207 114.46 105.149 115.142C104.09 115.824 102.926 116.318 101.656 116.624C101.774 117.094 102.032 117.471 102.432 117.753C102.832 118.059 103.338 118.306 103.949 118.494C104.561 118.682 105.266 118.823 106.066 118.917C106.889 119.011 107.771 119.093 108.712 119.164L107.583 123.186C105.748 123.115 104.173 122.927 102.856 122.621C101.562 122.339 100.457 121.939 99.5396 121.422C98.6459 120.904 97.9286 120.269 97.3877 119.517C96.8703 118.764 96.4705 117.894 96.1883 116.906C94.7302 116.718 93.3779 116.318 92.1315 115.707C90.885 115.072 89.8032 114.225 88.886 113.167C87.9688 112.109 87.2515 110.839 86.7341 109.357C86.2167 107.875 85.958 106.194 85.958 104.313C85.958 102.219 86.2873 100.385 86.9458 98.8094C87.6043 97.2101 88.4862 95.8696 89.5915 94.7878C90.7204 93.706 92.0139 92.8946 93.472 92.3537C94.9536 91.8128 96.5058 91.5424 98.1285 91.5424C99.7983 91.5424 101.374 91.8128 102.856 92.3537C104.337 92.8946 105.631 93.706 106.736 94.7878C107.841 95.8696 108.712 97.2101 109.346 98.8094C109.981 100.385 110.299 102.219 110.299 104.313Z" fill="#333333"/>
<defs>
<linearGradient id="paint0_linear" x1="21.4336" y1="14.7805" x2="91.4672" y2="14.7805" gradientUnits="userSpaceOnUse">
<stop stop-color="#3DAEFF"/>
<stop offset="1" stop-color="#1E5DFF"/>
</linearGradient>
<linearGradient id="paint1_linear" x1="21.4336" y1="14.7805" x2="91.4672" y2="14.7805" gradientUnits="userSpaceOnUse">
<stop stop-color="#3DAEFF"/>
<stop offset="1" stop-color="#1E5DFF"/>
</linearGradient>
<linearGradient id="paint2_linear" x1="46.0315" y1="38.5052" x2="46.0315" y2="66.5087" gradientUnits="userSpaceOnUse">
<stop offset="0.323435" stop-color="#FF7A00"/>
<stop offset="1" stop-color="#FF4D00"/>
</linearGradient>
<linearGradient id="paint3_linear" x1="46.0315" y1="38.5052" x2="46.0315" y2="66.5087" gradientUnits="userSpaceOnUse">
<stop offset="0.323435" stop-color="#FF7A00"/>
<stop offset="1" stop-color="#FF4D00"/>
</linearGradient>
</defs>
</svg>
