<svg width="209" height="117" viewBox="0 0 209 117" fill="none" xmlns="http://www.w3.org/2000/svg">
<path d="M7.28671 91.927H10.6498V108.997C10.6498 113.52 8.67102 116.641 4.03402 116.641C2.66276 116.661 1.29816 116.446 0 116.004V112.734C1.10735 113.163 2.28587 113.379 3.4735 113.371C6.3143 113.371 7.2952 111.672 7.2952 109.222L7.28671 91.927Z" fill="#253858"/>
<path d="M16.7774 90.6147C17.0774 90.5933 17.3784 90.6365 17.6602 90.7416C17.942 90.8467 18.1978 91.0111 18.4105 91.2238C18.6231 91.4364 18.7875 91.6923 18.8926 91.974C18.9977 92.2558 19.041 92.5568 19.0195 92.8568C19.0195 93.4514 18.7833 94.0217 18.3628 94.4422C17.9424 94.8626 17.3721 95.0989 16.7774 95.0989C16.1828 95.0989 15.6125 94.8626 15.1921 94.4422C14.7716 94.0217 14.5354 93.4514 14.5354 92.8568C14.5139 92.5568 14.5572 92.2558 14.6623 91.974C14.7674 91.6923 14.9318 91.4364 15.1444 91.2238C15.3571 91.0111 15.6129 90.8467 15.8947 90.7416C16.1764 90.6365 16.4775 90.5933 16.7774 90.6147ZM15.1341 97.791H18.3486V116.475H15.1341V97.791Z" fill="#253858"/>
<path d="M23.202 97.787H26.3401V101.074C27.4229 98.8699 29.3125 97.2987 32.9559 97.5238V100.662C28.8454 100.237 26.3401 101.486 26.3401 105.443V116.484H23.202V97.787Z" fill="#253858"/>
<path d="M48.0132 113.108C46.8157 115.575 44.5737 116.844 41.6989 116.844C36.7307 116.844 34.2253 112.623 34.2253 107.129C34.2253 101.859 36.8411 97.4131 42.0726 97.4131C44.7987 97.4131 46.8922 98.6445 48.0174 101.073V97.7868H51.2319V116.471H48.0174L48.0132 113.108ZM42.5566 113.855C45.4357 113.855 48.0132 112.025 48.0132 107.876V106.364C48.0132 102.216 45.6607 100.386 42.9176 100.386C39.2912 100.386 37.4228 102.776 37.4228 107.112C37.4398 111.613 39.2318 113.855 42.5609 113.855H42.5566Z" fill="#253858"/>
<path d="M70.2471 116.844C65.4997 116.844 63.2959 115.91 61.3893 114.938V111.502C63.6696 112.7 67.1813 113.558 70.4297 113.558C74.1283 113.558 75.5253 112.101 75.5253 109.931C75.5253 107.761 74.1792 106.606 69.5083 105.485C63.988 104.139 61.5124 102.233 61.5124 98.1986C61.5124 94.3769 64.4254 91.5488 70.1452 91.5488C73.6952 91.5488 75.9754 92.3981 77.657 93.3408V96.7039C75.3194 95.4158 72.6818 94.771 70.0136 94.8355C66.7991 94.8355 64.8925 95.9565 64.8925 98.1986C64.8925 100.216 66.4637 101.226 70.7949 102.309C75.9882 103.617 78.9054 105.281 78.9054 109.706C78.8799 113.965 76.3406 116.844 70.2471 116.844Z" fill="#253858"/>
<path d="M81.7207 107.09C81.7207 101.485 85.0074 97.4131 90.6125 97.4131C96.2177 97.4131 99.4322 101.485 99.4322 107.09C99.4322 112.696 96.1795 116.857 90.6125 116.857C85.0456 116.857 81.7207 112.696 81.7207 107.09ZM84.8587 107.09C84.8587 110.64 86.6167 113.855 90.6125 113.855C94.6083 113.855 96.2941 110.64 96.2941 107.09C96.2941 103.541 94.5744 100.419 90.6125 100.419C86.6507 100.419 84.8757 103.541 84.8757 107.09H84.8587Z" fill="#253858"/>
<path d="M107.615 97.7869H112.435V100.759H107.615V116.471H104.477V100.759H101.437V97.7869H104.464V95.7487C104.464 92.2752 106.409 89.9185 110.409 89.9185C111.141 89.9144 111.871 90.0145 112.575 90.2157V93.1881C111.91 93.0617 111.234 92.9991 110.558 93.0013C108.579 93.0013 107.585 94.1605 107.585 95.8421L107.615 97.7869Z" fill="#253858"/>
<path d="M123.309 113.333C123.989 113.312 124.664 113.224 125.326 113.069V116.169C124.622 116.371 123.893 116.471 123.161 116.466C119.16 116.466 117.216 114.114 117.216 110.636V100.776H114.175V97.8038H117.203V93.825H120.341V97.7868H125.309V100.759H120.341V110.568C120.358 112.212 121.33 113.333 123.309 113.333Z" fill="#253858"/>
<path d="M126.227 97.7869H129.777L135.157 113.63L140.609 97.7869H143.675L149.131 113.63L154.516 97.7869H158.066L151.191 116.471H147.08L143.866 107.43L142.167 101.677L140.469 107.43L137.212 116.471H133.102L126.227 97.7869Z" fill="#253858"/>
<path d="M172.745 113.108C171.548 115.575 169.305 116.844 166.431 116.844C161.462 116.844 158.957 112.623 158.957 107.129C158.957 101.859 161.573 97.4131 166.804 97.4131C169.531 97.4131 171.624 98.6445 172.749 101.073V97.7868H175.964V116.471H172.749L172.745 113.108ZM167.288 113.855C170.167 113.855 172.745 112.025 172.745 107.876V106.364C172.745 102.216 170.393 100.386 167.649 100.386C164.04 100.419 162.159 102.793 162.159 107.129C162.159 111.613 163.964 113.855 167.293 113.855H167.288Z" fill="#253858"/>
<path d="M180.818 97.787H183.956V101.074C185.038 98.8699 186.928 97.2987 190.571 97.5238V100.662C186.461 100.237 183.956 101.486 183.956 105.443V116.484H180.818V97.787Z" fill="#253858"/>
<path d="M201.892 116.844C194.903 116.844 191.841 112.81 191.841 107.078C191.841 101.434 194.979 97.4004 200.661 97.4004C206.414 97.4004 208.729 101.4 208.729 107.078V108.534H195.094C195.544 111.711 197.599 113.766 202.007 113.766C203.945 113.764 205.868 113.422 207.688 112.755V115.728C206.155 116.556 203.799 116.844 201.892 116.844ZM195.055 105.804H205.472C205.285 102.33 203.714 100.347 200.503 100.347C197.111 100.33 195.391 102.543 195.055 105.783V105.804Z" fill="#253858"/>
<path d="M135.187 30.9441L106.977 2.73444L104.242 0L83.0072 21.2351L73.2983 30.9441C72.8121 31.4309 72.5391 32.0907 72.5391 32.7786C72.5391 33.4666 72.8121 34.1264 73.2983 34.6131L92.6989 54.0138L104.242 65.5572L125.478 44.3221L125.806 43.9933L135.187 34.6131C135.673 34.1264 135.946 33.4666 135.946 32.7786C135.946 32.0907 135.673 31.4309 135.187 30.9441ZM104.242 42.4703L94.5507 32.7786L104.242 23.0869L113.934 32.7786L104.242 42.4703Z" fill="#2684FF"/>
<path d="M104.243 23.087C101.194 20.0384 99.4762 15.9077 99.4632 11.5967C99.4503 7.2857 101.144 3.14469 104.173 0.0778809L82.9641 21.2784L94.5076 32.8219L104.243 23.087Z" fill="url(#paint0_linear)"/>
<path d="M113.96 32.7526L104.243 42.4702C105.759 43.9858 106.962 45.7853 107.783 47.766C108.604 49.7467 109.026 51.8697 109.026 54.0137C109.026 56.1577 108.604 58.2807 107.783 60.2613C106.962 62.242 105.759 64.0416 104.243 65.5571L125.504 44.296L113.96 32.7526Z" fill="url(#paint1_linear)"/>
<defs>
<linearGradient id="paint0_linear" x1="102.512" y1="13.2828" x2="88.9781" y2="26.8165" gradientUnits="userSpaceOnUse">
<stop offset="0.18" stop-color="#0052CC"/>
<stop offset="1" stop-color="#2684FF"/>
</linearGradient>
<linearGradient id="paint1_linear" x1="928.748" y1="2010.21" x2="1396.18" y2="1707.27" gradientUnits="userSpaceOnUse">
<stop offset="0.18" stop-color="#0052CC"/>
<stop offset="1" stop-color="#2684FF"/>
</linearGradient>
</defs>
</svg>
