<svg width="71" height="67" viewBox="0 0 71 67" fill="none" xmlns="http://www.w3.org/2000/svg">
<path d="M0.433594 0.683668V27.32C0.433594 27.6975 0.739663 28.0036 1.11722 28.0036H10.2513C10.6288 28.0036 10.9349 27.6975 10.9349 27.32V0.68367C10.9349 0.306115 10.6288 4.67358e-05 10.2513 4.67358e-05H1.11722C0.739662 4.67358e-05 0.433594 0.306114 0.433594 0.683668Z" fill="url(#paint0_linear)"/>
<path d="M17.9608 27.3198V0.683623C17.9608 0.306068 18.2668 0 18.6444 0H69.7836C70.1612 0 70.4672 0.30607 70.4672 0.683625V58.8237C70.4672 59.2013 70.1612 59.5073 69.7836 59.5073H18.6444C18.2668 59.5073 17.9608 59.2013 17.9608 58.8237V49.6897C17.9608 49.3121 18.2668 49.006 18.6444 49.006H59.2823C59.6599 49.006 59.9659 48.7 59.9659 48.3224V11.1849C59.9659 10.8074 59.6599 10.5013 59.2823 10.5013H29.1457C28.7681 10.5013 28.462 10.8074 28.462 11.1849V27.3198C28.462 27.6974 28.156 28.0035 27.7784 28.0035H18.6444C18.2668 28.0035 17.9608 27.6974 17.9608 27.3198Z" fill="url(#paint1_linear)"/>
<path d="M10.9251 39.3804L10.9251 65.6336C10.9251 66.1169 10.5333 66.5087 10.05 66.5087L1.29893 66.5087C0.815625 66.5087 0.423828 66.1169 0.423828 65.6336L0.423832 39.3804C0.423832 38.897 0.815631 38.5052 1.29894 38.5052H10.05C10.5333 38.5052 10.9251 38.897 10.9251 39.3804Z" fill="url(#paint2_linear)"/>
<path d="M49.6391 39.3804V65.6336C49.6391 66.1169 49.2473 66.5087 48.764 66.5087L40.013 66.5087C39.5296 66.5087 39.1379 66.1169 39.1379 65.6336L39.1379 39.3804C39.1379 38.897 39.5297 38.5052 40.013 38.5052H48.764C49.2473 38.5052 49.6391 38.897 49.6391 39.3804Z" fill="url(#paint3_linear)"/>
<defs>
<linearGradient id="paint0_linear" x1="0.433594" y1="14.7805" x2="70.4672" y2="14.7805" gradientUnits="userSpaceOnUse">
<stop stop-color="#3DAEFF"/>
<stop offset="1" stop-color="#1E5DFF"/>
</linearGradient>
<linearGradient id="paint1_linear" x1="0.433594" y1="14.7805" x2="70.4672" y2="14.7805" gradientUnits="userSpaceOnUse">
<stop stop-color="#3DAEFF"/>
<stop offset="1" stop-color="#1E5DFF"/>
</linearGradient>
<linearGradient id="paint2_linear" x1="25.0315" y1="38.5052" x2="25.0315" y2="66.5087" gradientUnits="userSpaceOnUse">
<stop offset="0.323435" stop-color="#FF7A00"/>
<stop offset="1" stop-color="#FF4D00"/>
</linearGradient>
<linearGradient id="paint3_linear" x1="25.0315" y1="38.5052" x2="25.0315" y2="66.5087" gradientUnits="userSpaceOnUse">
<stop offset="0.323435" stop-color="#FF7A00"/>
<stop offset="1" stop-color="#FF4D00"/>
</linearGradient>
</defs>
</svg>
