<svg xmlns="http://www.w3.org/2000/svg" viewBox="0 0 16.002 16"><defs><style>.a{fill:#0444ce;}</style></defs><path class="a" d="M18894.6-623.888l-6.23-6.23-6.232,6.23a1.036,1.036,0,0,1-1.463,0,1.039,1.039,0,0,1,0-1.466l6.23-6.231-6.229-6.229a1.046,1.046,0,0,1,0-1.47,1.035,1.035,0,0,1,1.463,0l6.234,6.231,6.229-6.231a1.036,1.036,0,0,1,1.465,0,1.031,1.031,0,0,1,.307.735,1.029,1.029,0,0,1-.307.734l-6.229,6.228,6.229,6.228a1.031,1.031,0,0,1,.309.735,1.039,1.039,0,0,1-.307.735,1.022,1.022,0,0,1-.732.3,1.037,1.037,0,0,1-.734-.3Z" transform="translate(-18880.371 639.586)"/></svg>