<svg width="231" height="118" viewBox="0 0 231 118" fill="none" xmlns="http://www.w3.org/2000/svg">
<path d="M8.48888 112.802C9.26497 112.802 9.89995 112.743 10.3938 112.626C10.9112 112.485 11.3228 112.308 11.6285 112.097C11.9342 111.861 12.1459 111.591 12.2635 111.285C12.3811 110.979 12.4399 110.638 12.4399 110.262C12.4399 109.463 12.0636 108.804 11.311 108.287C10.5584 107.746 9.26497 107.17 7.43058 106.558C6.63097 106.276 5.83137 105.958 5.03176 105.606C4.23216 105.229 3.51487 104.771 2.87989 104.23C2.24491 103.665 1.72751 102.995 1.32771 102.219C0.927909 101.419 0.728008 100.455 0.728008 99.3263C0.728008 98.1975 0.939668 97.1862 1.36299 96.2926C1.78631 95.3754 2.38601 94.5993 3.1621 93.9643C3.93819 93.3293 4.8789 92.8472 5.98423 92.5179C7.08957 92.1652 8.33601 91.9888 9.72356 91.9888C11.3698 91.9888 12.7926 92.1652 13.992 92.5179C15.1915 92.8707 16.1792 93.2588 16.9553 93.6821L15.3678 98.0211C14.6858 97.6683 13.9215 97.3626 13.0748 97.1039C12.2517 96.8217 11.2522 96.6806 10.0763 96.6806C8.75933 96.6806 7.80686 96.8687 7.21892 97.245C6.65449 97.5978 6.37228 98.1505 6.37228 98.903C6.37228 99.3499 6.47811 99.7262 6.68977 100.032C6.90143 100.338 7.1954 100.62 7.57169 100.879C7.97149 101.114 8.41833 101.337 8.9122 101.549C9.42959 101.737 9.99402 101.937 10.6055 102.148C11.8754 102.619 12.9808 103.089 13.9215 103.56C14.8622 104.006 15.6383 104.536 16.2498 105.147C16.8847 105.758 17.3551 106.476 17.6608 107.299C17.9666 108.122 18.1194 109.122 18.1194 110.297C18.1194 112.579 17.3198 114.354 15.7206 115.624C14.1214 116.871 11.7108 117.494 8.48888 117.494C7.40706 117.494 6.43107 117.423 5.56091 117.282C4.69076 117.165 3.91467 117.012 3.23265 116.824C2.57415 116.635 1.99797 116.436 1.50409 116.224C1.03374 116.012 0.633937 115.812 0.304688 115.624L1.85686 111.25C2.58591 111.65 3.47959 112.014 4.53789 112.343C5.61971 112.649 6.93671 112.802 8.48888 112.802Z" fill="#333333"/>
<path d="M32.1959 107.158C32.1959 105.464 31.9725 104.265 31.5257 103.56C31.1023 102.854 30.3615 102.501 29.3032 102.501C28.974 102.501 28.633 102.525 28.2802 102.572C27.9274 102.595 27.5864 102.631 27.2572 102.678V117H22.001V99.0794C22.4478 98.9618 22.9652 98.8442 23.5531 98.7266C24.1646 98.5855 24.7996 98.468 25.4581 98.3739C26.1401 98.2563 26.8339 98.174 27.5394 98.1269C28.2449 98.0564 28.9387 98.0211 29.6207 98.0211C30.9612 98.0211 32.0431 98.1975 32.8662 98.5503C33.7128 98.8795 34.4066 99.2793 34.9475 99.7497C35.7001 99.2088 36.5585 98.7854 37.5227 98.4797C38.5104 98.174 39.4159 98.0211 40.239 98.0211C41.7206 98.0211 42.9318 98.2328 43.8725 98.6561C44.8367 99.0559 45.6011 99.6321 46.1655 100.385C46.7299 101.137 47.118 102.031 47.3296 103.066C47.5413 104.1 47.6471 105.253 47.6471 106.523V117H42.3909V107.158C42.3909 105.464 42.1675 104.265 41.7206 103.56C41.2973 102.854 40.5565 102.501 39.4982 102.501C39.216 102.501 38.8162 102.572 38.2988 102.713C37.8049 102.854 37.3933 103.03 37.0641 103.242C37.2287 103.783 37.3346 104.359 37.3816 104.971C37.4286 105.559 37.4521 106.194 37.4521 106.876V117H32.1959V107.158Z" fill="#333333"/>
<path d="M59.5108 113.331C60.0282 113.331 60.5221 113.319 60.9924 113.296C61.4628 113.272 61.8391 113.237 62.1213 113.19V109.204C61.9096 109.157 61.5921 109.11 61.1688 109.063C60.7455 109.016 60.3575 108.992 60.0047 108.992C59.5108 108.992 59.0405 109.027 58.5936 109.098C58.1703 109.145 57.794 109.251 57.4648 109.415C57.1355 109.58 56.8768 109.804 56.6887 110.086C56.5005 110.368 56.4065 110.721 56.4065 111.144C56.4065 111.967 56.6769 112.543 57.2178 112.873C57.7823 113.178 58.5466 113.331 59.5108 113.331ZM59.0875 97.9506C60.6397 97.9506 61.9332 98.1269 62.9679 98.4797C64.0027 98.8325 64.8258 99.3381 65.4373 99.9966C66.0723 100.655 66.5191 101.455 66.7778 102.395C67.0365 103.336 67.1659 104.383 67.1659 105.535V116.471C66.4133 116.635 65.3667 116.824 64.0262 117.035C62.6857 117.27 61.063 117.388 59.1581 117.388C57.9586 117.388 56.8651 117.282 55.8773 117.071C54.9131 116.859 54.0782 116.518 53.3727 116.048C52.6671 115.554 52.1262 114.919 51.7499 114.143C51.3737 113.366 51.1855 112.414 51.1855 111.285C51.1855 110.203 51.3972 109.286 51.8205 108.534C52.2673 107.781 52.8553 107.181 53.5843 106.734C54.3134 106.288 55.1483 105.97 56.089 105.782C57.0297 105.57 58.0057 105.464 59.0169 105.464C59.699 105.464 60.2987 105.5 60.8161 105.57C61.357 105.617 61.792 105.688 62.1213 105.782V105.288C62.1213 104.394 61.8508 103.677 61.3099 103.136C60.769 102.595 59.8283 102.325 58.4878 102.325C57.5941 102.325 56.7122 102.395 55.842 102.537C54.9719 102.654 54.2193 102.831 53.5843 103.066L52.9141 98.8325C53.2198 98.7384 53.5961 98.6443 54.0429 98.5503C54.5133 98.4327 55.0189 98.3386 55.5598 98.268C56.1007 98.174 56.6652 98.1034 57.2531 98.0564C57.8646 97.9858 58.476 97.9506 59.0875 97.9506Z" fill="#333333"/>
<path d="M83.1016 103.101C82.6312 102.983 82.0785 102.866 81.4436 102.748C80.8086 102.607 80.1266 102.537 79.3975 102.537C79.0683 102.537 78.6684 102.572 78.1981 102.642C77.7513 102.689 77.4102 102.748 77.1751 102.819V117H71.9188V99.4322C72.8596 99.1029 73.9649 98.7972 75.2349 98.515C76.5283 98.2093 77.9629 98.0564 79.5386 98.0564C79.8208 98.0564 80.1618 98.0799 80.5616 98.1269C80.9614 98.1505 81.3612 98.1975 81.761 98.268C82.1608 98.3151 82.5606 98.3856 82.9604 98.4797C83.3603 98.5503 83.7013 98.6443 83.9835 98.7619L83.1016 103.101Z" fill="#333333"/>
<path d="M86.6248 93.8232L91.881 92.9765V98.4444H98.1956V102.819H91.881V109.345C91.881 110.45 92.0692 111.332 92.4455 111.991C92.8453 112.649 93.6331 112.978 94.809 112.978C95.3734 112.978 95.9496 112.931 96.5376 112.837C97.149 112.72 97.7017 112.567 98.1956 112.379L98.9364 116.471C98.3014 116.73 97.5959 116.953 96.8198 117.141C96.0437 117.329 95.0912 117.423 93.9624 117.423C92.5278 117.423 91.3401 117.235 90.3994 116.859C89.4587 116.459 88.7061 115.918 88.1417 115.236C87.5773 114.531 87.1775 113.684 86.9423 112.696C86.7306 111.708 86.6248 110.615 86.6248 109.415V93.8232Z" fill="#333333"/>
<path d="M117.971 112.802C118.747 112.802 119.382 112.743 119.876 112.626C120.393 112.485 120.805 112.308 121.11 112.097C121.416 111.861 121.628 111.591 121.745 111.285C121.863 110.979 121.922 110.638 121.922 110.262C121.922 109.463 121.545 108.804 120.793 108.287C120.04 107.746 118.747 107.17 116.912 106.558C116.113 106.276 115.313 105.958 114.514 105.606C113.714 105.229 112.997 104.771 112.362 104.23C111.727 103.665 111.209 102.995 110.809 102.219C110.41 101.419 110.21 100.455 110.21 99.3263C110.21 98.1975 110.421 97.1862 110.845 96.2926C111.268 95.3754 111.868 94.5993 112.644 93.9643C113.42 93.3293 114.361 92.8472 115.466 92.5179C116.571 92.1652 117.818 91.9888 119.205 91.9888C120.852 91.9888 122.274 92.1652 123.474 92.5179C124.673 92.8707 125.661 93.2588 126.437 93.6821L124.85 98.0211C124.168 97.6683 123.403 97.3626 122.557 97.1039C121.733 96.8217 120.734 96.6806 119.558 96.6806C118.241 96.6806 117.289 96.8687 116.701 97.245C116.136 97.5978 115.854 98.1505 115.854 98.903C115.854 99.3499 115.96 99.7262 116.172 100.032C116.383 100.338 116.677 100.62 117.053 100.879C117.453 101.114 117.9 101.337 118.394 101.549C118.911 101.737 119.476 101.937 120.087 102.148C121.357 102.619 122.463 103.089 123.403 103.56C124.344 104.006 125.12 104.536 125.731 105.147C126.366 105.758 126.837 106.476 127.143 107.299C127.448 108.122 127.601 109.122 127.601 110.297C127.601 112.579 126.802 114.354 125.202 115.624C123.603 116.871 121.193 117.494 117.971 117.494C116.889 117.494 115.913 117.423 115.043 117.282C114.173 117.165 113.396 117.012 112.714 116.824C112.056 116.635 111.48 116.436 110.986 116.224C110.515 116.012 110.116 115.812 109.786 115.624L111.339 111.25C112.068 111.65 112.961 112.014 114.02 112.343C115.101 112.649 116.418 112.802 117.971 112.802Z" fill="#333333"/>
<path d="M130.601 107.863C130.601 106.217 130.848 104.782 131.342 103.56C131.859 102.313 132.529 101.278 133.352 100.455C134.175 99.6321 135.116 99.0089 136.174 98.5855C137.256 98.1622 138.362 97.9506 139.491 97.9506C142.124 97.9506 144.206 98.7619 145.734 100.385C147.263 101.984 148.027 104.347 148.027 107.475C148.027 107.781 148.016 108.122 147.992 108.498C147.969 108.851 147.945 109.169 147.922 109.451H135.998C136.116 110.533 136.621 111.391 137.515 112.026C138.409 112.661 139.608 112.978 141.113 112.978C142.077 112.978 143.018 112.896 143.935 112.731C144.876 112.543 145.64 112.32 146.228 112.061L146.934 116.33C146.652 116.471 146.275 116.612 145.805 116.753C145.335 116.894 144.806 117.012 144.218 117.106C143.653 117.223 143.042 117.317 142.383 117.388C141.725 117.459 141.066 117.494 140.408 117.494C138.738 117.494 137.28 117.247 136.033 116.753C134.81 116.259 133.787 115.589 132.964 114.742C132.165 113.872 131.565 112.849 131.165 111.673C130.789 110.497 130.601 109.227 130.601 107.863ZM142.948 105.853C142.924 105.406 142.842 104.971 142.701 104.547C142.583 104.124 142.383 103.748 142.101 103.418C141.842 103.089 141.501 102.819 141.078 102.607C140.678 102.395 140.173 102.29 139.561 102.29C138.973 102.29 138.467 102.395 138.044 102.607C137.621 102.795 137.268 103.054 136.986 103.383C136.704 103.712 136.48 104.1 136.316 104.547C136.174 104.971 136.069 105.406 135.998 105.853H142.948Z" fill="#333333"/>
<path d="M163.266 103.101C162.796 102.983 162.243 102.866 161.608 102.748C160.973 102.607 160.291 102.537 159.562 102.537C159.233 102.537 158.833 102.572 158.363 102.642C157.916 102.689 157.575 102.748 157.34 102.819V117H152.084V99.4322C153.024 99.1029 154.13 98.7972 155.4 98.515C156.693 98.2093 158.128 98.0564 159.703 98.0564C159.986 98.0564 160.327 98.0799 160.727 98.1269C161.126 98.1505 161.526 98.1975 161.926 98.268C162.326 98.3151 162.726 98.3856 163.125 98.4797C163.525 98.5503 163.866 98.6443 164.148 98.7619L163.266 103.101Z" fill="#333333"/>
<path d="M173.113 117C171.914 114.648 170.691 111.897 169.444 108.745C168.221 105.594 167.057 102.16 165.952 98.4444H171.526C171.761 99.3616 172.031 100.361 172.337 101.443C172.666 102.501 172.995 103.583 173.325 104.688C173.677 105.77 174.018 106.829 174.348 107.863C174.701 108.898 175.042 109.839 175.371 110.685C175.676 109.839 176.006 108.898 176.359 107.863C176.711 106.829 177.052 105.77 177.382 104.688C177.734 103.583 178.064 102.501 178.369 101.443C178.699 100.361 178.981 99.3616 179.216 98.4444H184.649C183.543 102.16 182.367 105.594 181.121 108.745C179.898 111.897 178.687 114.648 177.487 117H173.113Z" fill="#333333"/>
<path d="M192.72 117H187.464V98.4444H192.72V117ZM193.214 93.0824C193.214 94.0466 192.896 94.8109 192.261 95.3754C191.65 95.9163 190.921 96.1867 190.074 96.1867C189.228 96.1867 188.487 95.9163 187.852 95.3754C187.24 94.8109 186.935 94.0466 186.935 93.0824C186.935 92.1181 187.24 91.3656 187.852 90.8247C188.487 90.2602 189.228 89.978 190.074 89.978C190.921 89.978 191.65 90.2602 192.261 90.8247C192.896 91.3656 193.214 92.1181 193.214 93.0824Z" fill="#333333"/>
<path d="M196.779 107.722C196.779 106.382 196.991 105.123 197.414 103.948C197.861 102.748 198.496 101.713 199.319 100.843C200.142 99.9496 201.142 99.244 202.317 98.7266C203.493 98.2093 204.834 97.9506 206.339 97.9506C207.327 97.9506 208.232 98.0446 209.055 98.2328C209.878 98.3974 210.678 98.6443 211.454 98.9736L210.361 103.172C209.867 102.983 209.326 102.819 208.738 102.678C208.15 102.537 207.491 102.466 206.762 102.466C205.21 102.466 204.046 102.948 203.27 103.912C202.517 104.877 202.141 106.147 202.141 107.722C202.141 109.392 202.494 110.685 203.199 111.603C203.928 112.52 205.187 112.978 206.974 112.978C207.609 112.978 208.291 112.92 209.02 112.802C209.749 112.684 210.419 112.496 211.031 112.238L211.772 116.541C211.16 116.8 210.396 117.023 209.479 117.212C208.561 117.4 207.55 117.494 206.445 117.494C204.752 117.494 203.293 117.247 202.071 116.753C200.848 116.236 199.836 115.542 199.037 114.672C198.261 113.802 197.684 112.779 197.308 111.603C196.955 110.403 196.779 109.11 196.779 107.722Z" fill="#333333"/>
<path d="M213.522 107.863C213.522 106.217 213.769 104.782 214.262 103.56C214.78 102.313 215.45 101.278 216.273 100.455C217.096 99.6321 218.037 99.0089 219.095 98.5855C220.177 98.1622 221.283 97.9506 222.411 97.9506C225.045 97.9506 227.127 98.7619 228.655 100.385C230.184 101.984 230.948 104.347 230.948 107.475C230.948 107.781 230.937 108.122 230.913 108.498C230.89 108.851 230.866 109.169 230.843 109.451H218.919C219.037 110.533 219.542 111.391 220.436 112.026C221.33 112.661 222.529 112.978 224.034 112.978C224.998 112.978 225.939 112.896 226.856 112.731C227.797 112.543 228.561 112.32 229.149 112.061L229.855 116.33C229.573 116.471 229.196 116.612 228.726 116.753C228.256 116.894 227.726 117.012 227.138 117.106C226.574 117.223 225.963 117.317 225.304 117.388C224.646 117.459 223.987 117.494 223.329 117.494C221.659 117.494 220.201 117.247 218.954 116.753C217.731 116.259 216.708 115.589 215.885 114.742C215.086 113.872 214.486 112.849 214.086 111.673C213.71 110.497 213.522 109.227 213.522 107.863ZM225.869 105.853C225.845 105.406 225.763 104.971 225.622 104.547C225.504 104.124 225.304 103.748 225.022 103.418C224.763 103.089 224.422 102.819 223.999 102.607C223.599 102.395 223.093 102.29 222.482 102.29C221.894 102.29 221.388 102.395 220.965 102.607C220.542 102.795 220.189 103.054 219.907 103.383C219.625 103.712 219.401 104.1 219.236 104.547C219.095 104.971 218.99 105.406 218.919 105.853H225.869Z" fill="#333333"/>
<path d="M80.7578 39.3039L80.7578 65.7708C80.7578 66.1947 81.1015 66.5383 81.5254 66.5383L150.256 66.5383C150.683 66.5383 151.027 66.1907 151.024 65.7644L150.803 39.2975C150.799 38.8761 150.457 38.5364 150.035 38.5364L141.446 38.5364C141.022 38.5364 140.678 38.88 140.678 39.3039L140.678 55.4669C140.678 55.8908 140.335 56.2345 139.911 56.2345L91.8773 56.2345C91.4534 56.2345 91.1098 55.8909 91.1098 55.467L91.1097 39.3039C91.1097 38.88 90.7661 38.5364 90.3422 38.5364L81.5254 38.5364C81.1015 38.5364 80.7578 38.88 80.7578 39.3039Z" fill="url(#paint0_linear)"/>
<rect x="101.914" width="27.9578" height="27.9578" rx="0.755616" fill="url(#paint1_linear)"/>
<defs>
<linearGradient id="paint0_linear" x1="120.428" y1="38.5364" x2="120.428" y2="66.4941" gradientUnits="userSpaceOnUse">
<stop offset="0.323435" stop-color="#FF7A00"/>
<stop offset="1" stop-color="#FF4D00"/>
</linearGradient>
<linearGradient id="paint1_linear" x1="101.914" y1="6.94418" x2="129.872" y2="6.94418" gradientUnits="userSpaceOnUse">
<stop stop-color="#3DAEFF"/>
<stop offset="1" stop-color="#1E5DFF"/>
</linearGradient>
</defs>
</svg>
