<svg width="180" height="124" viewBox="0 0 180 124" fill="none" xmlns="http://www.w3.org/2000/svg">
<path d="M15.8388 109.839C15.1568 111.391 14.4395 112.673 13.6869 113.684C12.9343 114.672 12.1582 115.448 11.3586 116.012C10.559 116.577 9.74767 116.965 8.92455 117.176C8.10142 117.388 7.26654 117.494 6.4199 117.494C5.6203 117.494 4.78542 117.412 3.91526 117.247C3.06862 117.106 2.26901 116.894 1.51644 116.612L2.50419 112.202C3.65656 112.626 4.79717 112.837 5.92603 112.837C6.65508 112.837 7.34885 112.673 8.00735 112.343C8.68937 112.014 9.33611 111.309 9.94757 110.227C8.98334 108.722 8.05439 107.181 7.16071 105.606C6.29055 104.006 5.45567 102.442 4.65607 100.914C3.87998 99.3616 3.15093 97.88 2.46891 96.4689C1.81041 95.0343 1.22247 93.7291 0.705078 92.5532H6.80795C7.18423 93.4704 7.59579 94.4581 8.04263 95.5165C8.51299 96.5512 9.00686 97.6331 9.52425 98.7619C10.0416 99.8672 10.559 100.984 11.0764 102.113C11.6173 103.219 12.1347 104.3 12.6286 105.359C13.3812 103.289 14.0985 101.172 14.7805 99.0088C15.4625 96.8452 16.121 94.6933 16.756 92.5532H22.6472C22.0357 94.3641 21.436 96.0574 20.8481 97.6331C20.2601 99.2087 19.6839 100.702 19.1195 102.113C18.5551 103.524 17.9907 104.865 17.4262 106.135C16.8853 107.405 16.3562 108.639 15.8388 109.839Z" fill="#333333"/>
<path d="M40.8761 117H35.6199V109.662H30.152V117H24.8958V98.4444H30.152V105.359H35.6199V98.4444H40.8761V117Z" fill="#333333"/>
<path d="M62.7044 98.4444V117H57.4129C57.4129 115.824 57.4247 114.66 57.4482 113.508C57.4717 112.332 57.4952 111.25 57.5187 110.262C57.5423 109.274 57.5658 108.416 57.5893 107.687C57.6363 106.934 57.6598 106.382 57.6598 106.029C56.9778 106.993 56.2958 107.969 55.6138 108.957C54.9318 109.945 54.2733 110.921 53.6383 111.885C53.0268 112.826 52.4389 113.731 51.8745 114.601C51.3336 115.471 50.8514 116.271 50.4281 117H45.8069V98.4444H51.0631C51.0631 99.6203 51.0513 100.749 51.0278 101.831C51.0278 102.889 51.0161 103.854 50.9925 104.724C50.969 105.594 50.9455 106.358 50.922 107.017C50.8985 107.652 50.8867 108.146 50.8867 108.498C52.2978 106.429 53.5913 104.571 54.7672 102.925C55.9666 101.278 57.1307 99.7849 58.2595 98.4444H62.7044Z" fill="#333333"/>
<path d="M76.6084 102.995C75.1973 103.113 74.0802 103.548 73.2571 104.3C72.4575 105.053 72.0577 106.241 72.0577 107.863C72.0577 109.415 72.4457 110.556 73.2218 111.285C73.9979 112.014 75.1268 112.461 76.6084 112.626V102.995ZM81.7235 112.626C82.2644 112.626 82.8053 112.543 83.3462 112.379C83.8871 112.214 84.3693 111.955 84.7926 111.603C85.2394 111.226 85.5922 110.732 85.8509 110.121C86.1331 109.51 86.2742 108.745 86.2742 107.828C86.2742 106.911 86.1331 106.146 85.8509 105.535C85.5922 104.924 85.2394 104.441 84.7926 104.089C84.3693 103.712 83.8871 103.442 83.3462 103.277C82.8053 103.113 82.2644 103.019 81.7235 102.995V112.626ZM81.7235 123.526H76.6084V117.071C74.9857 116.953 73.5511 116.635 72.3046 116.118C71.0817 115.601 70.0587 114.93 69.2356 114.107C68.4124 113.284 67.7892 112.332 67.3659 111.25C66.9661 110.168 66.7662 109.016 66.7662 107.793C66.7662 106.617 66.9543 105.512 67.3306 104.477C67.7304 103.442 68.3301 102.525 69.1297 101.725C69.9293 100.902 70.9524 100.232 72.1988 99.7144C73.4452 99.1735 74.9151 98.8089 76.6084 98.6208V90.5072L81.7235 89.6252V98.6208C83.0405 98.7384 84.2987 99.0088 85.4981 99.4322C86.6975 99.8555 87.7441 100.443 88.6377 101.196C89.5549 101.949 90.2722 102.878 90.7896 103.983C91.3305 105.065 91.601 106.346 91.601 107.828C91.601 109.333 91.3305 110.638 90.7896 111.744C90.2722 112.849 89.5667 113.778 88.673 114.531C87.7793 115.283 86.7328 115.871 85.5334 116.294C84.334 116.694 83.064 116.953 81.7235 117.071V123.526Z" fill="#333333"/>
<path d="M113.012 107.687C113.012 109.145 112.8 110.486 112.377 111.708C111.954 112.908 111.342 113.943 110.543 114.813C109.743 115.659 108.779 116.318 107.65 116.788C106.545 117.259 105.298 117.494 103.911 117.494C102.547 117.494 101.3 117.259 100.171 116.788C99.0659 116.318 98.1135 115.659 97.3139 114.813C96.5143 113.943 95.891 112.908 95.4442 111.708C94.9974 110.486 94.7739 109.145 94.7739 107.687C94.7739 106.229 94.9974 104.9 95.4442 103.701C95.9146 102.501 96.5495 101.478 97.3491 100.632C98.1723 99.7849 99.1365 99.1264 100.242 98.6561C101.371 98.1857 102.594 97.9505 103.911 97.9505C105.251 97.9505 106.474 98.1857 107.579 98.6561C108.708 99.1264 109.672 99.7849 110.472 100.632C111.272 101.478 111.895 102.501 112.342 103.701C112.789 104.9 113.012 106.229 113.012 107.687ZM107.65 107.687C107.65 106.064 107.321 104.794 106.662 103.877C106.027 102.936 105.11 102.466 103.911 102.466C102.711 102.466 101.782 102.936 101.124 103.877C100.465 104.794 100.136 106.064 100.136 107.687C100.136 109.31 100.465 110.603 101.124 111.567C101.782 112.508 102.711 112.978 103.911 112.978C105.11 112.978 106.027 112.508 106.662 111.567C107.321 110.603 107.65 109.31 107.65 107.687Z" fill="#333333"/>
<path d="M128.972 107.863C128.972 106.241 128.607 104.947 127.878 103.983C127.149 102.995 126.067 102.501 124.633 102.501C124.163 102.501 123.727 102.525 123.328 102.572C122.928 102.595 122.599 102.631 122.34 102.678V112.167C122.669 112.379 123.092 112.555 123.61 112.696C124.151 112.837 124.692 112.908 125.233 112.908C127.725 112.908 128.972 111.226 128.972 107.863ZM134.334 107.722C134.334 109.157 134.158 110.462 133.805 111.638C133.452 112.814 132.935 113.825 132.253 114.672C131.571 115.518 130.724 116.177 129.713 116.647C128.701 117.118 127.537 117.353 126.22 117.353C125.491 117.353 124.809 117.282 124.174 117.141C123.539 117 122.928 116.8 122.34 116.541V123.526H117.084V99.0794C117.554 98.9383 118.095 98.8089 118.706 98.6914C119.318 98.5502 119.953 98.4327 120.611 98.3386C121.293 98.2445 121.975 98.174 122.657 98.1269C123.363 98.0564 124.033 98.0211 124.668 98.0211C126.197 98.0211 127.561 98.2563 128.76 98.7266C129.96 99.1735 130.971 99.8202 131.794 100.667C132.617 101.49 133.24 102.501 133.664 103.701C134.111 104.9 134.334 106.241 134.334 107.722Z" fill="#333333"/>
<path d="M143.595 106.311C143.548 107.134 143.501 108.028 143.454 108.992C143.407 109.956 143.36 110.932 143.312 111.92C143.289 112.884 143.254 113.813 143.207 114.707C143.183 115.577 143.16 116.341 143.136 117H138.021C138.068 115.706 138.139 114.248 138.233 112.626C138.35 111.003 138.468 109.357 138.585 107.687C138.727 105.994 138.868 104.347 139.009 102.748C139.173 101.149 139.326 99.7144 139.467 98.4444H143.842C144.853 100.091 145.782 101.796 146.628 103.56C147.475 105.323 148.369 107.264 149.31 109.38C150.297 107.122 151.261 105.041 152.202 103.136C153.143 101.208 153.99 99.6438 154.742 98.4444H159.187C159.352 99.7144 159.504 101.149 159.646 102.748C159.81 104.347 159.951 105.994 160.069 107.687C160.21 109.357 160.328 111.003 160.422 112.626C160.516 114.248 160.586 115.706 160.633 117H155.412C155.365 115.166 155.295 113.343 155.201 111.532C155.13 109.721 155.06 107.969 154.989 106.276L151.109 114.813H147.475L143.595 106.311Z" fill="#333333"/>
<path d="M172.301 113.331C172.818 113.331 173.312 113.319 173.782 113.296C174.253 113.272 174.629 113.237 174.911 113.19V109.204C174.7 109.157 174.382 109.11 173.959 109.063C173.535 109.016 173.147 108.992 172.795 108.992C172.301 108.992 171.83 109.027 171.384 109.098C170.96 109.145 170.584 109.251 170.255 109.415C169.925 109.58 169.667 109.804 169.479 110.086C169.291 110.368 169.196 110.721 169.196 111.144C169.196 111.967 169.467 112.543 170.008 112.873C170.572 113.178 171.337 113.331 172.301 113.331ZM171.877 97.9505C173.43 97.9505 174.723 98.1269 175.758 98.4797C176.793 98.8325 177.616 99.3381 178.227 99.9966C178.862 100.655 179.309 101.455 179.568 102.395C179.826 103.336 179.956 104.383 179.956 105.535V116.471C179.203 116.635 178.157 116.824 176.816 117.035C175.476 117.27 173.853 117.388 171.948 117.388C170.749 117.388 169.655 117.282 168.667 117.071C167.703 116.859 166.868 116.518 166.163 116.047C165.457 115.554 164.916 114.919 164.54 114.143C164.164 113.366 163.975 112.414 163.975 111.285C163.975 110.203 164.187 109.286 164.61 108.534C165.057 107.781 165.645 107.181 166.374 106.734C167.103 106.288 167.938 105.97 168.879 105.782C169.82 105.57 170.796 105.464 171.807 105.464C172.489 105.464 173.089 105.5 173.606 105.57C174.147 105.617 174.582 105.688 174.911 105.782V105.288C174.911 104.394 174.641 103.677 174.1 103.136C173.559 102.595 172.618 102.325 171.278 102.325C170.384 102.325 169.502 102.395 168.632 102.537C167.762 102.654 167.009 102.83 166.374 103.066L165.704 98.8325C166.01 98.7384 166.386 98.6443 166.833 98.5502C167.303 98.4327 167.809 98.3386 168.35 98.268C168.891 98.174 169.455 98.1034 170.043 98.0564C170.655 97.9858 171.266 97.9505 171.877 97.9505Z" fill="#333333"/>
<path fill-rule="evenodd" clip-rule="evenodd" d="M60.2003 38.8969L97.1077 38.8969C97.4829 38.8969 97.7871 38.5927 97.7871 38.2175L97.7871 29.1398C97.7871 28.7646 97.4829 28.4604 97.1077 28.4604L60.2003 28.4604C59.825 28.4604 59.5209 28.7646 59.5209 29.1398L59.5209 38.2175C59.5209 38.5927 59.825 38.8969 60.2003 38.8969ZM60.3908 56.1019L86.4819 56.1019C86.9622 56.1019 87.3516 56.4913 87.3516 56.9716L87.3516 65.6686C87.3516 66.1489 86.9622 66.5383 86.4819 66.5383L60.3909 66.5383C59.9105 66.5383 59.5212 66.149 59.5212 65.6686L59.5211 56.9716C59.5211 56.4913 59.9105 56.1019 60.3908 56.1019ZM60.3908 0.839735L86.4819 0.839736C86.9622 0.839736 87.3516 1.22911 87.3516 1.70943L87.3516 10.4064C87.3516 10.8868 86.9622 11.2761 86.4819 11.2761L60.3909 11.2761C59.9105 11.2761 59.5212 10.8868 59.5212 10.4064L59.5211 1.70943C59.5211 1.22911 59.9105 0.839735 60.3908 0.839735Z" fill="url(#paint0_linear)"/>
<path d="M102.727 0.842284L129.03 0.842285C129.451 0.842285 129.793 1.18381 129.793 1.60509L129.793 65.7452C129.793 66.169 129.448 66.5115 129.024 66.508L102.72 66.2884C102.302 66.2849 101.964 65.9444 101.964 65.5256L101.964 56.9892C101.964 56.5679 102.306 56.2264 102.727 56.2264L118.79 56.2264C119.211 56.2264 119.553 55.8849 119.553 55.4636L119.553 11.8931C119.553 11.4718 119.211 11.1303 118.79 11.1303L102.727 11.1302C102.306 11.1302 101.964 10.7887 101.964 10.3674L101.964 1.60509C101.964 1.1838 102.306 0.842284 102.727 0.842284Z" fill="url(#paint1_linear)"/>
<defs>
<linearGradient id="paint0_linear" x1="59.5215" y1="33.689" x2="97.7877" y2="33.689" gradientUnits="userSpaceOnUse">
<stop stop-color="#3DAEFF"/>
<stop offset="1" stop-color="#1E5DFF"/>
</linearGradient>
<linearGradient id="paint1_linear" x1="115.879" y1="0.842285" x2="115.879" y2="66.5144" gradientUnits="userSpaceOnUse">
<stop offset="0.323435" stop-color="#FF7A00"/>
<stop offset="1" stop-color="#FF4D00"/>
</linearGradient>
</defs>
</svg>
