<svg width="33" height="32" viewBox="0 0 33 32" fill="none" xmlns="http://www.w3.org/2000/svg">
<path d="M1.18272 23.9269C0.84536 24.477 0.466483 25.1154 0.144697 25.6241C0.00624193 25.858 -0.0348942 26.137 0.0301297 26.401C0.0951537 26.6649 0.261147 26.8929 0.492433 27.0358L7.23956 31.1878C7.3568 31.2602 7.48729 31.3086 7.6234 31.33C7.75952 31.3514 7.89854 31.3455 8.03236 31.3127C8.16617 31.2798 8.29211 31.2207 8.40283 31.1386C8.51354 31.0566 8.60682 30.9534 8.67721 30.8349C8.9471 30.3834 9.29484 29.7969 9.67371 29.1689C12.3466 24.7573 15.0351 25.2971 19.8826 27.6119L26.5727 30.7934C26.6981 30.8531 26.8342 30.887 26.9729 30.8931C27.1117 30.8993 27.2503 30.8775 27.3805 30.8291C27.5107 30.7807 27.6298 30.7067 27.7309 30.6114C27.8319 30.5161 27.9128 30.4015 27.9688 30.2744L31.1815 23.0083C31.2906 22.7588 31.2973 22.4765 31.2002 22.2221C31.1031 21.9678 30.91 21.7618 30.6625 21.6484C29.2508 20.9841 26.4429 19.6606 23.9153 18.441C14.8223 14.0242 7.09424 14.3096 1.18272 23.9269Z" fill="url(#paint0_linear)"/>
<path d="M31.4366 7.43802C31.7739 6.88787 32.1528 6.24948 32.4746 5.74086C32.6131 5.50688 32.6542 5.22793 32.5892 4.96395C32.5241 4.69998 32.3582 4.47204 32.1269 4.32915L25.3797 0.177073C25.2616 0.0975143 25.1284 0.0431135 24.9883 0.0172546C24.8483 -0.00860426 24.7044 -0.00536793 24.5657 0.0267622C24.4269 0.0588923 24.2963 0.119229 24.1819 0.204018C24.0674 0.288807 23.9717 0.396235 23.9006 0.519619C23.6307 0.971157 23.2829 1.55764 22.9041 2.18564C20.2312 6.59722 17.5427 6.05745 12.6951 3.74267L6.02587 0.57671C5.90046 0.517018 5.76434 0.483101 5.62559 0.476969C5.48683 0.470837 5.34825 0.492615 5.21806 0.541012C5.08787 0.589409 4.96872 0.663441 4.86767 0.758724C4.76661 0.854006 4.6857 0.968601 4.62974 1.09572L1.41707 8.36185C1.30797 8.61129 1.30123 8.89361 1.39832 9.14796C1.4954 9.40232 1.68852 9.60835 1.93608 9.72166C3.34778 10.386 6.15562 11.7095 8.6832 12.9291C17.797 17.3407 25.5251 17.0449 31.4366 7.43802Z" fill="url(#paint1_linear)"/>
<defs>
<linearGradient id="paint0_linear" x1="30.9998" y1="33.3314" x2="10.5872" y2="21.6017" gradientUnits="userSpaceOnUse">
<stop offset="0.18" stop-color="#0052CC"/>
<stop offset="1" stop-color="#2684FF"/>
</linearGradient>
<linearGradient id="paint1_linear" x1="-8607.96" y1="24485.1" x2="-7901.23" y2="25296.1" gradientUnits="userSpaceOnUse">
<stop offset="0.18" stop-color="#0052CC"/>
<stop offset="1" stop-color="#2684FF"/>
</linearGradient>
</defs>
</svg>
