<svg width="26" height="17" viewBox="0 0 26 17" fill="none" xmlns="http://www.w3.org/2000/svg">
<path d="M19.3037 11.8945C23.6075 11.7215 25.5204 9.76265 25.5204 7.36544C25.5204 5.28318 24.0754 3.53117 20.8748 2.99306C20.8824 2.57773 20.8862 2.17029 20.8882 1.77415C20.8908 1.22187 20.4423 0.77417 19.8901 0.77417H1.47949C0.927206 0.77417 0.478591 1.22094 0.481028 1.77322C0.500806 6.25619 0.775229 12.1826 4.58176 15.1221C2.09539 15.3125 0.479492 15.6153 0.479492 15.9561C0.479492 16.5333 5.04864 17.0002 10.685 17.0002C16.3214 17.0002 20.8901 16.5333 20.8901 15.9561C20.8901 15.6153 19.2742 15.312 16.7883 15.1221C17.9004 14.2637 18.7134 13.1527 19.3037 11.8945ZM20.7988 4.97614C22.5946 5.39238 22.9153 6.27287 22.8948 7.41292C22.8721 8.70754 22.497 9.5838 20.0449 9.88557C20.4886 8.30976 20.6985 6.61789 20.7988 4.97614ZM2.94317 2.35683H6.13382C4.70362 6.57727 7.11613 13.2551 7.11613 13.2551C1.89967 9.25672 2.94317 2.35683 2.94317 2.35683Z" fill="#939393"/>
</svg>
