<svg width="215" height="38" viewBox="0 0 215 38" fill="none" xmlns="http://www.w3.org/2000/svg">
<path d="M145.888 27.9664H165.266V23.6724H152.494C154.256 16.6257 165.046 15.0843 165.046 7.26687C165.046 3.08291 162.183 0 156.127 0C152.384 0 149.081 1.10104 146.879 2.20208L148.2 6.16583C150.182 5.17489 152.494 4.29406 155.357 4.29406C157.559 4.29406 159.651 5.28499 159.651 7.81739C159.651 13.5428 146.989 13.9832 145.888 27.9664ZM165.817 21.14H178.258V27.9664H183.213V21.14H187.397V16.956H183.213V0H179.58L165.817 17.8369V21.14ZM171.432 17.1762L178.479 7.70728C178.479 8.47801 178.258 10.9003 178.258 13.1024V17.0661H174.955C173.964 17.0661 172.093 17.1762 171.432 17.1762Z" fill="#005893"/>
<path d="M5.17489 23.783V15.0847H7.26687C9.13864 15.0847 10.6801 15.305 11.7811 15.9656C12.8822 16.6262 13.5428 17.7272 13.5428 19.4889C13.5428 22.4617 11.7811 23.783 7.59718 23.783H5.17489ZM0.110104 27.9669H7.48708C15.7449 27.9669 18.7177 24.3335 18.7177 19.2687C18.7177 15.8555 17.2863 13.5433 14.7539 12.222C12.7721 11.121 10.2397 10.7907 7.15676 10.7907H5.17489V4.18445H16.2954L17.6166 0.110596H0V27.9669H0.110104ZM22.1309 27.9669H26.9755L33.2514 18.9384C34.4626 17.2868 35.3434 15.6353 35.8939 14.7544H36.004C35.8939 15.9656 35.7838 17.507 35.7838 19.0485V27.8568H40.7385V8.03809H35.8939L29.618 17.0666C28.5169 18.7182 27.526 20.3697 26.9755 21.2506H26.8654C26.9755 20.0394 27.0856 18.498 27.0856 16.9565V8.14819H22.1309V27.9669ZM49.2165 27.9669H54.2813V12.222H60.2269L61.5482 8.03809H43.1608V12.222H49.2165V27.9669ZM63.3098 37.9864H68.2645V27.9669C69.2554 28.2972 70.2464 28.4073 71.3474 28.4073C77.6234 28.4073 81.6972 24.1133 81.6972 17.9475C81.6972 11.5614 77.9537 7.48757 70.7969 7.48757C68.0443 7.48757 65.4018 8.03809 63.1997 8.69871V37.9864H63.3098ZM68.2645 23.6729V12.0018C69.0352 11.7816 69.6959 11.6715 70.5767 11.6715C74.2101 11.6715 76.5223 13.6534 76.5223 17.9475C76.5223 21.8011 74.6505 24.2234 70.907 24.2234C69.9161 24.2234 69.1453 24.0032 68.2645 23.6729ZM84.67 27.9669H89.5146L95.7905 18.9384C97.0017 17.2868 97.8825 15.6353 98.433 14.7544H98.5431C98.433 15.9656 98.3229 17.507 98.3229 19.0485V27.8568H103.278V8.03809H98.433L92.1571 17.0666C91.056 18.7182 90.0651 20.3697 89.5146 21.2506H89.4045C89.5146 20.0394 89.6247 18.498 89.6247 16.9565V8.14819H84.67V27.9669ZM107.241 27.9669H112.306V19.7091H115.279C115.829 19.7091 116.38 20.2596 117.041 21.5809L119.573 27.9669H124.968L121.335 20.3697C120.674 19.0485 120.013 18.2778 119.022 17.9475V17.8373C120.674 16.8464 120.894 13.9837 121.885 12.5524C122.215 12.1119 122.656 11.8917 123.317 11.8917C123.647 11.8917 124.087 11.8917 124.418 12.1119V7.81788C123.867 7.59767 122.876 7.48757 122.326 7.48757C120.564 7.48757 119.463 8.14819 118.692 9.24923C117.041 11.6715 117.041 15.8555 114.618 15.8555H112.306V8.03809H107.241V27.9669ZM136.199 28.4073C138.951 28.4073 141.484 27.5265 143.025 26.4255L141.594 23.0122C140.162 23.783 138.841 24.3335 136.969 24.3335C133.556 24.3335 131.354 22.1314 131.354 18.0576C131.354 14.4241 133.556 11.5614 137.3 11.5614C139.282 11.5614 140.713 12.1119 142.144 13.1029V8.80882C141.043 8.14819 139.282 7.48757 136.749 7.48757C130.804 7.48757 126.179 11.8917 126.179 18.1677C126.179 23.8931 129.703 28.4073 136.199 28.4073Z" fill="#0BBBEF"/>
<path d="M203.803 21.1401C209.198 21.1401 213.602 16.736 213.602 11.3409C213.602 5.94579 209.198 1.54163 203.803 1.54163C198.407 1.54163 194.003 5.94579 194.003 11.3409C194.113 16.736 198.407 21.1401 203.803 21.1401Z" stroke="#005893" stroke-width="1.94752"/>
<path d="M209.968 11.3408H204.573V5.94568H203.142V12.7721H209.968V11.3408Z" fill="#005893"/>
</svg>
