<svg width="174" height="117" viewBox="0 0 174 117" fill="none" xmlns="http://www.w3.org/2000/svg">
<path d="M18.5324 114.601C17.0474 115.58 14.6943 116.012 12.2343 116.012C4.41817 116.012 0 111.306 0 103.815C0 96.5744 4.41817 91.5062 12.1644 91.5062C14.4804 91.5062 16.7964 91.9423 18.4995 93.1517V96.3029C16.7964 95.2168 14.9165 94.6574 12.1644 94.6574C6.59023 94.6574 3.25809 98.3597 3.25809 103.815C3.25809 109.269 6.69718 112.902 12.3454 112.902C14.4886 112.921 16.6051 112.425 18.516 111.454L18.5324 114.601Z" fill="#253858"/>
<path d="M20.8075 106.571C20.8075 101.141 23.9915 97.1954 29.4217 97.1954C34.8518 97.1954 37.9659 101.141 37.9659 106.571C37.9659 112.001 34.8148 116.032 29.4217 116.032C24.0286 116.032 20.8075 112.001 20.8075 106.571ZM23.8476 106.571C23.8476 110.01 25.5506 113.124 29.4217 113.124C33.2927 113.124 34.9259 110.01 34.9259 106.571C34.9259 103.132 33.2804 100.092 29.4258 100.092C25.5712 100.092 23.8558 103.132 23.8558 106.571H23.8476Z" fill="#253858"/>
<path d="M56.9795 115.658H53.8654V104.728C53.8654 101.47 52.5614 100.022 49.5954 100.022C46.7157 100.022 44.7082 101.939 44.7082 105.596V115.658H41.5941V97.5575H44.7082V100.528C45.2623 99.4997 46.0894 98.6447 47.0983 98.0568C48.1072 97.4688 49.2589 97.1708 50.4263 97.1955C54.5894 97.1955 56.9795 100.075 56.9795 105.053V115.658Z" fill="#253858"/>
<path d="M65.6474 97.5576H70.3165V100.437H65.6474V115.658H62.6073V100.437H59.6742V97.5576H62.6073V95.5665C62.6073 92.2015 64.4914 89.9183 68.3665 89.9183C69.076 89.9144 69.7824 90.0113 70.4646 90.2063V93.0859C69.8205 92.9634 69.1662 92.9028 68.5105 92.9049C66.5935 92.9049 65.6309 94.028 65.6309 95.657L65.6474 97.5576Z" fill="#253858"/>
<path d="M78.5191 115.765C75.5489 115.765 73.6689 114.354 73.6689 111.022V89.9924H76.7831V110.66C76.7831 112.305 77.8691 112.869 79.2102 112.869C79.5123 112.874 79.8145 112.862 80.1152 112.832V115.621C79.5909 115.733 79.055 115.782 78.5191 115.765Z" fill="#253858"/>
<path d="M82.7521 97.5575H85.8662V108.488C85.8662 111.746 87.1702 113.194 90.1363 113.194C93.0159 113.194 95.0234 111.277 95.0234 107.62V97.5575H98.1457V115.658H95.0316V112.688C94.4775 113.716 93.6505 114.571 92.6416 115.159C91.6326 115.747 90.481 116.045 89.3135 116.02C85.1504 116.02 82.7603 113.14 82.7603 108.167L82.7521 97.5575Z" fill="#253858"/>
<path d="M111.495 116.02C104.723 116.02 101.757 112.112 101.757 106.558C101.757 101.091 104.798 97.1832 110.302 97.1832C115.876 97.1832 118.118 101.058 118.118 106.558V107.969H104.909C105.345 111.047 107.336 113.038 111.606 113.038C113.484 113.036 115.347 112.705 117.11 112.059V114.938C115.621 115.728 113.342 116.02 111.495 116.02ZM104.872 105.324H114.971C114.79 101.959 113.268 100.038 110.158 100.038C106.863 100.018 105.197 102.153 104.872 105.304V105.324Z" fill="#253858"/>
<path d="M137.198 115.658H134.084V104.728C134.084 101.47 132.78 100.022 129.814 100.022C126.934 100.022 124.927 101.939 124.927 105.596V115.658H121.812V97.5575H124.927V100.528C125.481 99.4997 126.308 98.6447 127.317 98.0568C128.326 97.4688 129.477 97.1708 130.645 97.1955C134.808 97.1955 137.198 100.075 137.198 105.053V115.658Z" fill="#253858"/>
<path d="M154.323 115.185C153.237 115.765 151.571 116.008 149.905 116.008C143.463 116.008 140.443 112.1 140.443 106.546C140.443 101.079 143.446 97.1709 149.905 97.1709C151.389 97.1222 152.863 97.4194 154.212 98.0389V100.919C152.935 100.317 151.535 100.02 150.123 100.051C145.417 100.051 143.5 103.021 143.5 106.53C143.5 110.039 145.454 113.05 150.193 113.05C151.592 113.087 152.987 112.867 154.307 112.4L154.323 115.185Z" fill="#253858"/>
<path d="M166.52 116.02C159.749 116.02 156.783 112.112 156.783 106.558C156.783 101.091 159.823 97.1832 165.327 97.1832C170.902 97.1832 173.144 101.058 173.144 106.558V107.969H159.93C160.366 111.047 162.357 113.038 166.627 113.038C168.505 113.036 170.368 112.705 172.132 112.059V114.938C170.647 115.728 168.368 116.02 166.52 116.02ZM159.897 105.324H169.997C169.816 101.959 168.293 100.038 165.183 100.038C161.888 100.018 160.222 102.153 159.897 105.304V105.324Z" fill="#253858"/>
<path d="M54.6164 50.1499C53.9093 51.303 53.1152 52.6411 52.4407 53.7071C52.1505 54.1975 52.0643 54.7822 52.2006 55.3355C52.3369 55.8888 52.6848 56.3665 53.1696 56.666L67.3112 65.3686C67.557 65.5203 67.8305 65.6216 68.1158 65.6665C68.401 65.7114 68.6924 65.6991 68.9729 65.6302C69.2534 65.5614 69.5173 65.4374 69.7494 65.2654C69.9815 65.0935 70.177 64.8771 70.3245 64.6288C70.8902 63.6824 71.619 62.4532 72.4131 61.1369C78.0154 51.8905 83.6503 53.0218 93.8105 57.8735L107.833 64.5418C108.095 64.6669 108.381 64.738 108.672 64.7509C108.962 64.7637 109.253 64.7181 109.526 64.6166C109.799 64.5152 110.048 64.36 110.26 64.1603C110.472 63.9606 110.641 63.7204 110.759 63.454L117.492 48.2245C117.721 47.7017 117.735 47.11 117.532 46.5769C117.328 46.0437 116.923 45.6119 116.405 45.3744C113.446 43.982 107.561 41.2081 102.263 38.6517C83.2043 29.3943 67.0066 29.9926 54.6164 50.1499Z" fill="url(#paint0_linear)"/>
<path d="M118.026 15.5897C118.733 14.4367 119.527 13.0986 120.201 12.0326C120.491 11.5422 120.578 10.9575 120.441 10.4042C120.305 9.85094 119.957 9.3732 119.472 9.0737L105.331 0.371136C105.083 0.204386 104.804 0.0903639 104.51 0.0361649C104.217 -0.0180341 103.915 -0.0112509 103.624 0.0560923C103.334 0.123436 103.06 0.249898 102.82 0.427613C102.58 0.605327 102.379 0.830491 102.23 1.0891C101.665 2.0355 100.936 3.26474 100.142 4.581C94.5395 13.8275 88.9046 12.6961 78.7444 7.84446L64.7659 1.20876C64.503 1.08365 64.2177 1.01256 63.9269 0.999706C63.6361 0.986853 63.3456 1.0325 63.0727 1.13394C62.7999 1.23537 62.5501 1.39054 62.3383 1.59025C62.1265 1.78996 61.9569 2.03014 61.8396 2.29658L55.106 17.5261C54.8774 18.0489 54.8632 18.6406 55.0667 19.1737C55.2702 19.7068 55.675 20.1387 56.1939 20.3762C59.1527 21.7686 65.0378 24.5425 70.3355 27.0989C89.4376 36.3454 105.635 35.7253 118.026 15.5897Z" fill="url(#paint1_linear)"/>
<defs>
<linearGradient id="paint0_linear" x1="117.112" y1="69.8613" x2="74.3277" y2="45.2765" gradientUnits="userSpaceOnUse">
<stop offset="0.18" stop-color="#0052CC"/>
<stop offset="1" stop-color="#2684FF"/>
</linearGradient>
<linearGradient id="paint1_linear" x1="-17989.8" y1="51319.6" x2="-16508.5" y2="53019.5" gradientUnits="userSpaceOnUse">
<stop offset="0.18" stop-color="#0052CC"/>
<stop offset="1" stop-color="#2684FF"/>
</linearGradient>
</defs>
</svg>
