<svg width="25" height="27" viewBox="0 0 25 27" fill="none" xmlns="http://www.w3.org/2000/svg">
<path d="M24.9276 4.14091H22.9739V10.8622H23.755V13.9485H22.2703V3.75064C22.2708 1.67903 20.5912 0 18.5196 0H6.17263C4.10159 0 2.42199 1.67903 2.42199 3.75064V13.7531H1.13265V10.4702H1.95308V3.75064H0V10.4702H0.820435V14.0665H2.42199V21.4122C2.42199 22.8311 3.21178 24.0678 4.37565 24.7044V26.6459H7.65739V25.1623H16.9562V26.6465H20.2391V24.742C21.4452 24.1198 22.2703 22.8623 22.2703 21.4117V14.2602H24.0678V10.8617H24.9276V4.14091ZM8.04881 0.78054H16.8001V2.81341H8.04881V0.78054ZM8.98604 21.255H4.14149V19.0683H8.98604V21.255ZM20.7074 21.255H15.8629V19.0683H20.7074V21.255ZM20.7074 14.222C20.7074 14.222 19.7696 17.1921 12.2684 17.1921C4.76592 17.1921 3.98422 14.222 3.98422 14.222V3.90617H20.7074V14.222Z" fill="#939393"/>
</svg>
