<svg width="252" height="226" viewBox="0 0 252 226" fill="none" xmlns="http://www.w3.org/2000/svg">
<path d="M125.5 0H108.52C103.798 0 99.9697 3.82797 99.9697 8.55V13.45C99.9697 18.172 103.798 22 108.52 22H125.5C130.222 22 134.05 18.172 134.05 13.45V8.55C134.05 3.82797 130.222 0 125.5 0Z" fill="#FFAA00"/>
<path d="M117 118.75C122.622 118.75 127.18 114.192 127.18 108.57C127.18 102.948 122.622 98.3901 117 98.3901C111.378 98.3901 106.82 102.948 106.82 108.57C106.82 114.192 111.378 118.75 117 118.75Z" fill="#FFAA00"/>
<path d="M129.943 103.305L160.893 72.3554L152.528 63.9902L121.599 94.9191L129.943 103.305Z" fill="#FFAA00"/>
<path d="M122.285 94.2334L115.179 101.34C114.092 102.459 113.484 103.958 113.484 105.519C113.484 107.079 114.092 108.578 115.179 109.698C116.288 110.807 117.791 111.43 119.36 111.432C120.928 111.433 122.433 110.812 123.544 109.705L130.233 103.016L122.285 94.2334Z" fill="#FFAA00"/>
<path d="M157.591 75.6576L164.697 68.5512C165.77 67.4214 166.368 65.9229 166.368 64.3651C166.368 62.8072 165.77 61.3088 164.697 60.179C163.586 59.0719 162.081 58.4509 160.513 58.4522C158.945 58.4535 157.441 59.0771 156.332 60.1861L149.643 66.8753L157.591 75.6576Z" fill="#FFAA00"/>
<path d="M111.09 20.71V30.7599C111.128 32.3164 111.762 33.7987 112.862 34.9005C113.962 36.0023 115.444 36.6394 117 36.6799C118.57 36.6799 120.076 36.0562 121.186 34.946C122.296 33.8358 122.92 32.33 122.92 30.7599V21.3199L111.09 20.71Z" fill="#FFAA00"/>
<path d="M174.95 42.3201L167.84 49.4201C166.768 50.5498 166.17 52.0477 166.17 53.6051C166.17 55.1624 166.768 56.6604 167.84 57.7901C168.951 58.8972 170.456 59.5188 172.025 59.5188C173.594 59.5188 175.099 58.8972 176.21 57.7901L182.9 51.1001L174.95 42.3201Z" fill="#FFAA00"/>
<path d="M204.87 102.66H194.82C193.263 102.701 191.78 103.337 190.679 104.439C189.577 105.54 188.94 107.023 188.9 108.58C188.903 110.148 189.527 111.652 190.637 112.76C191.747 113.868 193.251 114.49 194.82 114.49H204.28L204.87 102.66Z" fill="#FFAA00"/>
<path d="M183.31 166.53L176.21 159.42C175.084 158.341 173.584 157.739 172.025 157.739C170.465 157.739 168.966 158.341 167.84 159.42C167.291 159.969 166.855 160.62 166.558 161.338C166.261 162.055 166.108 162.824 166.108 163.6C166.108 164.376 166.261 165.145 166.558 165.862C166.855 166.58 167.291 167.231 167.84 167.78L174.53 174.47L183.31 166.53Z" fill="#FFAA00"/>
<path d="M122.92 196.44V186.44C122.879 184.884 122.242 183.402 121.14 182.302C120.039 181.202 118.556 180.568 117 180.53C115.432 180.53 113.929 181.153 112.821 182.261C111.713 183.369 111.09 184.873 111.09 186.44V195.9L122.92 196.44Z" fill="#FFAA00"/>
<path d="M29.1396 114.49H39.1396C40.6998 114.467 42.1896 113.837 43.293 112.733C44.3963 111.63 45.0265 110.14 45.0497 108.58C45.0497 107.012 44.4273 105.508 43.3192 104.398C42.2112 103.288 40.708 102.663 39.1396 102.66H29.6796L29.1396 114.49Z" fill="#FFAA00"/>
<path d="M50.6899 50.6299L57.8 57.74C58.9281 58.8112 60.4243 59.4085 61.98 59.4085C63.5357 59.4085 65.032 58.8112 66.16 57.74C67.2672 56.6285 67.8887 55.1237 67.8887 53.5549C67.8887 51.9862 67.2672 50.4814 66.16 49.3699L59.47 42.6799L50.6899 50.6299Z" fill="#FFAA00"/>
<path d="M6 196.38H245.53L217.11 173.32" stroke="#FFAA00" stroke-width="12" stroke-linecap="round" stroke-linejoin="round"/>
<path d="M16.23 160.22L51.33 166.86C37.993 151.834 30.2122 132.689 29.2859 112.619C28.3595 92.5488 34.3437 72.7681 46.2399 56.5773C58.136 40.3865 75.2246 28.7649 94.6543 23.6515C114.084 18.5382 134.68 20.2424 153.005 28.4799C171.33 36.7173 186.276 50.9897 195.349 68.9157C204.422 86.8416 207.073 107.337 202.861 126.982C198.648 146.626 187.826 164.232 172.201 176.862C156.575 189.491 137.091 196.381 117 196.38" stroke="#82EFFD" stroke-width="12" stroke-linecap="round" stroke-linejoin="round"/>
<path d="M56.3896 134.74L51.3296 166.86" stroke="#82EFFD" stroke-width="12" stroke-linecap="round" stroke-linejoin="round"/>
<path d="M6 196.38H245.53L217.11 219.44" stroke="#FFAA00" stroke-width="12" stroke-linecap="round" stroke-linejoin="round"/>
</svg>
