<svg width="190" height="197" viewBox="0 0 190 197" fill="none" xmlns="http://www.w3.org/2000/svg">
<path d="M177.421 29.6009C177.394 36.4084 175.029 42.9998 170.721 48.271C166.404 53.5549 160.402 57.1948 153.721 58.581V11.861H177.371L177.421 29.6009ZM94.641 106.471C82.1083 106.433 70.1 101.436 61.241 92.571C52.376 83.7119 47.3785 71.7037 47.3409 59.171V11.861H141.951V59.171C141.909 71.7028 136.912 83.7095 128.051 92.571C119.189 101.438 107.177 106.436 94.641 106.471V106.471ZM11.861 29.6009V11.861H35.5209V58.581C28.8398 57.1948 22.838 53.5549 18.5209 48.271C14.2319 42.992 11.8814 36.4026 11.861 29.6009ZM100.561 147.861V117.701C113.194 116.542 125.106 111.297 134.491 102.761C143.88 94.2277 150.234 82.8679 152.591 70.401C162.66 69.3264 171.974 64.5638 178.741 57.0309C185.512 49.4995 189.256 39.7285 189.251 29.6009V5.95098C189.301 5.16156 189.181 4.37061 188.901 3.63098C188.622 2.88034 188.186 2.19829 187.621 1.63098C187.051 1.0713 186.37 0.638463 185.621 0.360958C184.881 0.0805936 184.09 -0.038705 183.301 0.0109827H5.95092C5.1615 -0.038705 4.37061 0.0805936 3.63098 0.360958C2.88272 0.639543 2.20134 1.07224 1.63098 1.63098C1.07224 2.20134 0.639543 2.88272 0.360958 3.63098C0.0805936 4.37061 -0.038705 5.16156 0.0109827 5.95098V29.6009C0.00627705 39.7285 3.74998 49.4995 10.5209 57.0309C17.2875 64.5638 26.6023 69.3264 36.6709 70.401C39.0275 82.8679 45.3814 94.2277 54.7709 102.761C64.156 111.297 76.0675 116.542 88.7009 117.701V147.861H100.561Z" fill="#82EFFD"/>
<path d="M59.171 160.311C55.2776 160.271 51.4155 161.009 47.811 162.481C44.2063 163.951 40.9321 166.127 38.181 168.881C35.426 171.633 33.2469 174.907 31.7709 178.511C30.3005 182.116 29.5629 185.978 29.601 189.871C29.601 193.421 35.521 196.381 38.471 196.381L42.0209 183.961C43.2413 180.532 45.4816 177.559 48.441 175.441C51.4034 173.328 54.9422 172.172 58.581 172.131H129.581C133.239 172.089 136.815 173.214 139.791 175.341C142.769 177.467 144.993 180.486 146.141 183.961L150.231 196.311C153.771 196.311 159.101 193.311 159.101 189.801C159.136 185.907 158.395 182.045 156.921 178.441C155.452 174.836 153.276 171.561 150.521 168.811C147.768 166.059 144.494 163.883 140.891 162.411C137.281 160.964 133.419 160.25 129.531 160.311H59.171Z" fill="#FFAA00"/>
</svg>
