<svg width="201" height="239" viewBox="0 0 201 239" fill="none" xmlns="http://www.w3.org/2000/svg">
<path d="M115.41 118.19C124.644 118.201 133.497 121.874 140.027 128.403C146.557 134.933 150.23 143.786 150.24 153.02C150.232 162.255 146.56 171.11 140.03 177.64C133.5 184.17 124.645 187.842 115.41 187.85C106.176 187.839 97.3228 184.166 90.7932 177.637C84.2636 171.107 80.5907 162.254 80.5801 153.02C80.5933 143.787 84.2671 134.935 90.7961 128.406C97.3252 121.877 106.177 118.203 115.41 118.19V118.19ZM115.41 106.19C102.99 106.19 91.0786 111.124 82.2963 119.906C73.5139 128.688 68.5801 140.6 68.5801 153.02C68.5801 165.44 73.5139 177.351 82.2963 186.134C91.0786 194.916 102.99 199.85 115.41 199.85C127.83 199.85 139.742 194.916 148.524 186.134C157.306 177.351 162.24 165.44 162.24 153.02C162.24 140.6 157.306 128.688 148.524 119.906C139.742 111.124 127.83 106.19 115.41 106.19V106.19Z" fill="#FFAA00"/>
<path d="M144.8 183.14C144.8 183.14 175.58 256.24 196.74 235.08C217.9 213.92 144.8 183.14 144.8 183.14Z" fill="#FFAA00"/>
<path d="M174.43 212.76C185.43 220.41 187.94 225.05 188.43 226.37L188.23 226.58L188.01 226.79C186.69 226.27 182.01 223.79 174.4 212.79L174.43 212.76ZM144.8 183.14C144.8 183.14 168.29 238.92 188.34 238.92C189.928 238.886 191.492 238.528 192.937 237.868C194.381 237.208 195.675 236.259 196.74 235.08C217.9 213.92 144.8 183.14 144.8 183.14Z" fill="#FFAA00"/>
<path d="M149.24 194.56C147.649 194.559 146.124 193.926 145 192.8C143.876 191.675 143.245 190.15 143.245 188.56C143.245 186.97 143.876 185.445 145 184.32L152.46 176.85C153.017 176.292 153.679 175.85 154.407 175.548C155.136 175.246 155.916 175.09 156.705 175.09C157.493 175.09 158.274 175.246 159.003 175.548C159.731 175.85 160.393 176.292 160.95 176.85C161.508 177.407 161.95 178.069 162.252 178.797C162.554 179.526 162.71 180.307 162.71 181.095C162.71 181.884 162.554 182.664 162.252 183.393C161.95 184.121 161.508 184.783 160.95 185.34L153.48 192.8C152.356 193.926 150.831 194.559 149.24 194.56V194.56Z" fill="#FFAA00"/>
<path d="M142.95 200.85C141.359 200.849 139.834 200.216 138.71 199.09C137.586 197.965 136.955 196.44 136.955 194.85C136.955 193.26 137.586 191.735 138.71 190.61L146.17 183.14C146.727 182.582 147.389 182.14 148.117 181.838C148.845 181.536 149.626 181.38 150.415 181.38C151.203 181.38 151.984 181.536 152.712 181.838C153.441 182.14 154.103 182.582 154.66 183.14C155.218 183.697 155.66 184.359 155.962 185.087C156.264 185.816 156.419 186.597 156.419 187.385C156.419 188.174 156.264 188.954 155.962 189.683C155.66 190.411 155.218 191.073 154.66 191.63L147.19 199.09C146.066 200.216 144.54 200.849 142.95 200.85V200.85Z" fill="#FFAA00"/>
<path d="M55.58 19.51V44.94C55.5784 47.918 54.3952 50.7737 52.29 52.88C51.2399 53.9296 49.9923 54.7607 48.6191 55.3254C47.246 55.8901 45.7747 56.1772 44.29 56.17H17.6799L55.58 19.51ZM170.88 107.02V28.97C170.869 21.2904 167.812 13.9287 162.38 8.5C156.951 3.06805 149.59 0.0111811 141.91 0H59.12L0 57.95V185.07C0.00853339 192.753 3.0656 200.119 8.5 205.55C13.9287 210.982 21.2903 214.039 28.97 214.05H38.4299C39.9956 214.041 41.4957 213.42 42.61 212.32C43.7237 211.213 44.353 209.71 44.36 208.14C44.321 206.587 43.6874 205.109 42.59 204.01C41.4937 202.901 40.0088 202.263 38.45 202.23H28.45C26.1988 202.234 23.969 201.794 21.8877 200.937C19.8064 200.079 17.9144 198.819 16.3199 197.23C13.1142 194.007 11.3163 189.646 11.3199 185.1V68.59H44.36C50.4761 68.5889 56.3419 66.1613 60.67 61.84C64.9913 57.5119 67.4189 51.6461 67.42 45.53V11.83H141.93C146.473 11.8246 150.832 13.623 154.05 16.83C155.639 18.4226 156.898 20.3128 157.756 22.3924C158.614 24.4721 159.054 26.7004 159.05 28.95V107L170.88 107.02ZM76.14 202.2H32.8099C32.0336 202.199 31.2649 202.352 30.5476 202.648C29.8303 202.945 29.1787 203.381 28.63 203.93C27.5227 205.039 26.9006 206.543 26.9 208.11C26.877 208.889 27.0236 209.664 27.33 210.38C27.6374 211.092 28.0945 211.73 28.67 212.25C29.1913 212.831 29.8327 213.292 30.5499 213.6C31.2641 213.903 32.0346 214.049 32.8099 214.03H76.14V202.2ZM71.48 214.03H81.53C83.0861 213.994 84.5686 213.36 85.67 212.26C86.7692 211.157 87.4058 209.676 87.45 208.12C87.4472 206.548 86.8215 205.041 85.71 203.93C84.6 202.824 83.0972 202.202 81.53 202.2H72.0699L71.48 214.03ZM159.05 105.03V115.14C159.091 116.697 159.728 118.179 160.83 119.28C161.931 120.382 163.413 121.019 164.97 121.06C166.539 121.056 168.042 120.43 169.15 119.32C169.699 118.771 170.135 118.12 170.432 117.402C170.728 116.685 170.881 115.916 170.88 115.14V105.68L159.05 105.03Z" fill="#82EFFD"/>
</svg>
