<svg width="210" height="205" viewBox="0 0 210 205" fill="none" xmlns="http://www.w3.org/2000/svg">
<path d="M38.2299 168.64C26.9952 155.985 19.657 140.353 17.0983 123.625C14.5397 106.898 16.8696 89.7868 23.8077 74.3522C30.7459 58.9176 41.9966 45.8168 56.2059 36.6265C70.4151 27.4362 86.9775 22.5479 103.9 22.55" stroke="#82EFFD" stroke-width="12" stroke-linecap="round" stroke-linejoin="round"/>
<path d="M69.7402 29.4199C85.3307 22.8389 102.491 20.903 119.156 23.8452C135.82 26.7874 151.28 34.4823 163.674 46.0041C176.069 57.5258 184.87 72.3837 189.019 88.7898C193.168 105.196 192.488 122.451 187.06 138.48" stroke="#FFAA00" stroke-width="12" stroke-linecap="round" stroke-linejoin="round"/>
<path d="M191.55 115.58C190.705 129.775 186.424 143.551 179.077 155.726C171.73 167.901 161.536 178.109 149.372 185.473C137.208 192.838 123.437 197.138 109.244 198.004C95.0505 198.87 80.8592 196.276 67.8898 190.445C54.9205 184.614 43.5612 175.721 34.7885 164.53C26.0158 153.339 20.0921 140.185 17.5268 126.198C14.9614 112.212 15.8311 97.8117 20.0611 84.2357C24.291 70.6597 31.7547 58.314 41.8104 48.26" stroke="#82EFFD" stroke-width="12" stroke-linecap="round" stroke-linejoin="round"/>
<path d="M147.56 162.42V134.52C147.56 131.52 146.369 128.644 144.248 126.523C142.127 124.402 139.25 123.21 136.25 123.21H75.5102C72.5106 123.21 69.6339 124.402 67.5128 126.523C65.3918 128.644 64.2002 131.52 64.2002 134.52V162.42" stroke="#82EFFD" stroke-width="12" stroke-linecap="round" stroke-linejoin="round"/>
<path d="M105.88 105.9C118.886 105.9 129.43 95.3564 129.43 82.35C129.43 69.3437 118.886 58.8 105.88 58.8C92.8738 58.8 82.3301 69.3437 82.3301 82.35C82.3301 95.3564 92.8738 105.9 105.88 105.9Z" stroke="#82EFFD" stroke-width="12" stroke-linecap="round" stroke-linejoin="round"/>
<path d="M168.58 137.96L192.25 114.65L203.19 145.16" stroke="#82EFFD" stroke-width="12" stroke-linecap="round" stroke-linejoin="round"/>
<path d="M100.52 39.59L68.5098 30.69L89.5198 6" stroke="#FFAA00" stroke-width="12" stroke-linecap="round" stroke-linejoin="round"/>
<path d="M35.75 130.7L35.18 163.92L6 149.8" stroke="#82EFFD" stroke-width="12" stroke-linecap="round" stroke-linejoin="round"/>
</svg>
