<svg xmlns="http://www.w3.org/2000/svg" viewBox="0 0 69 71"><defs><style>.a{fill:none;opacity:0.5;}.b,.d{fill:#fff;}.c,.d{stroke:none;}</style></defs><g transform="translate(5977 -2742)"><g transform="translate(-6106 1772)"><g class="a" transform="translate(129 971)"><path class="c" d="M34.5,0A34.5,34.5,0,1,1,0,34.5,34.655,34.655,0,0,1,34.5,0Z"/><path class="d" d="M 34.5 1 C 29.97708892822266 1 25.59000015258789 1.885589599609375 21.46059036254883 3.632179260253906 C 17.47156143188477 5.319400787353516 13.88882064819336 7.735019683837891 10.81192016601563 10.81192016601563 C 7.735019683837891 13.88882064819336 5.319400787353516 17.47156143188477 3.632179260253906 21.46059036254883 C 1.885589599609375 25.59000015258789 1 29.97708892822266 1 34.5 C 1 39.02291107177734 1.885589599609375 43.40999984741211 3.632179260253906 47.53939819335938 C 5.319400787353516 51.5284423828125 7.735019683837891 55.11116790771484 10.81192016601563 58.18807983398438 C 13.88882064819336 61.26498031616211 17.47156143188477 63.68059158325195 21.46059036254883 65.36781311035156 C 25.59000015258789 67.11440277099609 29.97708892822266 68 34.5 68 C 39.02291107177734 68 43.40999984741211 67.11440277099609 47.53939819335938 65.36781311035156 C 51.5284423828125 63.68059158325195 55.11116790771484 61.26498031616211 58.18807983398438 58.18807983398438 C 61.26498031616211 55.11116790771484 63.68059158325195 51.5284423828125 65.36781311035156 47.53939819335938 C 67.11440277099609 43.40999984741211 68 39.02291107177734 68 34.5 C 68 28.28435134887695 66.29019927978516 22.21081161499023 63.0554313659668 16.93595886230469 C 59.92314147949219 11.82822036743164 55.51607894897461 7.686321258544922 50.31035995483398 4.957862854003906 C 45.30418014526367 2.331619262695313 39.98480224609375 1 34.5 1 M 34.5 0 C 40.27330017089844 0 45.71538925170898 1.4180908203125 50.77491760253906 4.072319030761719 C 61.49610137939453 9.691581726074219 69 21.21947860717773 69 34.5 C 69 53.55381774902344 53.55381774902344 69 34.5 69 C 15.44617080688477 69 0 53.55381774902344 0 34.5 C 0 15.44617080688477 15.44617080688477 0 34.5 0 Z"/></g><circle class="b" cx="2" cy="2" r="2" transform="translate(161 970)"/><circle class="b" cx="2" cy="2" r="2" transform="translate(161 1037)"/></g></g></svg>