<svg  viewBox="0 0 37 45" fill="none" xmlns="http://www.w3.org/2000/svg">
<path d="M18.0859 36.1695C28.0745 36.1695 36.1719 28.0727 36.1719 18.0848C36.1719 8.09683 28.0745 0 18.0859 0C8.09735 0 0 8.09683 0 18.0848C0 28.0727 8.09735 36.1695 18.0859 36.1695Z" fill="url(#paint0_linear)"/>
<circle cx="17.9887" cy="18.5" r="17.125" stroke="#00B3EF" stroke-width="0.75"/>
<path d="M29.4696 31C29.4696 29.4459 27.7247 22.9057 27.7247 22.9057C27.7247 21.9525 26.4636 20.853 23.9857 20.2222C23.1489 19.9875 22.3529 19.6266 21.625 19.1518C21.4638 19.0637 21.4929 18.2284 21.4929 18.2284L20.7009 18.1112C20.7009 18.038 20.6277 17.0408 20.6277 17.0408C21.581 16.7183 21.4783 14.8413 21.4783 14.8413C22.0796 15.1787 22.4756 13.6828 22.4756 13.6828C23.1941 11.6151 22.1236 11.7327 22.1236 11.7327C22.461 10.1785 22.1236 7.9201 22.1236 7.9201C21.6396 3.74032 14.4399 4.88391 15.2902 6.24591C13.1948 5.86484 13.6625 10.6143 13.6625 10.6143L14.1171 11.8459C13.2225 12.4177 13.8386 13.1217 13.8685 13.9282C13.9125 15.1158 14.6455 14.8665 14.6455 14.8665C14.6896 16.8316 15.6574 17.0805 15.6574 17.0805C15.835 18.3122 15.7305 18.1069 15.7305 18.1069L14.8654 18.2096C14.8791 18.4901 14.8545 18.7713 14.7922 19.0452C13.7658 19.4998 13.5606 19.7637 12.5487 20.2037C10.5986 21.0543 8.4723 22.1539 8.09122 23.6487C7.73856 25.1194 6.60953 31 6.60953 31" stroke="#00B3EF" stroke-width="0.75" stroke-miterlimit="10"/>
<path d="M1 21L1 44" stroke="#00B3EF" stroke-width="0.75"/>
<path d="M6 32C6.55228 32 7 31.5523 7 31C7 30.4477 6.55228 30 6 30C5.44772 30 5 30.4477 5 31C5 31.5523 5.44772 32 6 32Z" fill="#004DC9"/>
<path d="M1 22C1.55228 22 2 21.5523 2 21C2 20.4477 1.55228 20 1 20C0.447715 20 0 20.4477 0 21C0 21.5523 0.447715 22 1 22Z" fill="#004DC9"/>
<path d="M30 32C30.5523 32 31 31.5523 31 31C31 30.4477 30.5523 30 30 30C29.4477 30 29 30.4477 29 31C29 31.5523 29.4477 32 30 32Z" fill="#004DC9"/>
<path d="M2 44C2 43.4477 1.55228 43 1 43C0.447715 43 -6.78525e-08 43.4477 -4.37114e-08 44C-1.95703e-08 44.5523 0.447715 45 1 45C1.55228 45 2 44.5523 2 44Z" fill="#004DC9"/>
<defs>
<linearGradient id="paint0_linear" x1="18.0859" y1="0" x2="18.0859" y2="36.1695" gradientUnits="userSpaceOnUse">
<stop stop-color="white"/>
<stop offset="1" stop-color="#EBF5F8"/>
</linearGradient>
</defs>
</svg>
