<svg xmlns="http://www.w3.org/2000/svg" viewBox="0 0 16 21">
  <defs>
    <style>
      .cls-1 {
        fill: none;
      }

      .cls-2, .cls-4 {
        fill: #00b3ef;
      }

      .cls-3, .cls-4 {
        stroke: none;
      }
    </style>
  </defs>
  <g id="Group_5730" data-name="Group 5730" transform="translate(-1030 -4610)">
    <g id="Path_11080" data-name="Path 11080" class="cls-1" transform="translate(1030 4610)">
      <path class="cls-3" d="M8,0a8,8,0,0,1,8,8c0,4.418-8,13-8,13S0,12.418,0,8A8,8,0,0,1,8,0Z"/>
      <path class="cls-4" d="M 8 2 C 4.691590309143066 2 2 4.69158935546875 2 8 C 2 8.629480361938477 2.349360466003418 10.56552982330322 5.585399627685547 14.93708038330078 C 6.441986083984375 16.09424591064453 7.305871963500977 17.15402984619141 8.000221252441406 17.97319793701172 C 8.687623977661133 17.16218566894531 9.542072296142578 16.11402893066406 10.39336967468262 14.96574974060059 C 13.64857006072998 10.57495021820068 14 8.631679534912109 14 8 C 14 4.69158935546875 11.30841064453125 2 8 2 M 8 0 C 12.41827964782715 0 16 3.581720352172852 16 8 C 16 12.41827964782715 8 21 8 21 C 8 21 0 12.41827964782715 0 8 C 0 3.581720352172852 3.581720352172852 0 8 0 Z"/>
    </g>
    <circle id="Ellipse_108" data-name="Ellipse 108" class="cls-2" cx="2" cy="2" r="2" transform="translate(1036 4616)"/>
  </g>
</svg>
