<svg width="235" height="236" viewBox="0 0 235 236" fill="none" xmlns="http://www.w3.org/2000/svg">
<path d="M128.902 117.672V121.212C128.902 121.812 128.902 121.812 128.312 122.402C128.312 122.992 127.722 122.992 127.722 123.582V124.172C127.72 124.33 127.656 124.481 127.542 124.592C127.434 124.701 127.286 124.762 127.132 124.762L126.532 125.352L125.943 125.952L125.352 126.542H124.762C124.172 126.542 124.172 127.132 123.582 127.132C122.992 127.132 122.992 127.132 122.992 127.722H115.302C114.712 127.722 114.712 127.722 114.122 127.132C113.532 127.132 113.532 126.542 112.932 126.542H112.342C112.187 126.538 112.04 126.474 111.932 126.362C111.875 126.31 111.83 126.247 111.799 126.176C111.768 126.106 111.752 126.029 111.752 125.952C111.68 125.967 111.605 125.967 111.532 125.952C111.457 125.925 111.388 125.88 111.332 125.822C111.281 125.767 111.24 125.702 111.212 125.632C111.197 125.556 111.197 125.478 111.212 125.402L110.622 124.812L110.032 124.222V123.632C110.032 123.042 109.443 123.042 109.443 122.452C109.441 122.373 109.424 122.295 109.392 122.222C109.364 122.15 109.32 122.084 109.262 122.032C109.21 121.975 109.145 121.93 109.073 121.902C109 121.888 108.925 121.888 108.852 121.902V114.212C108.852 113.622 108.853 113.622 109.443 113.032C109.443 112.442 110.032 112.442 110.032 111.842L110.622 111.252L111.212 110.662L112.392 109.482L113.582 108.302C114.172 108.302 114.172 107.712 114.762 107.712C115.352 107.712 115.353 107.712 115.943 107.112H123.042C123.632 107.112 123.632 107.112 124.222 107.712C124.812 107.712 124.812 108.302 125.402 108.302L125.992 108.892L126.582 109.482L127.182 110.072L127.772 110.662L128.952 111.842C128.952 112.442 129.542 112.442 129.542 113.032C129.542 113.622 129.542 113.622 130.132 114.212V116.572C128.902 116.482 128.902 117.082 128.902 117.672ZM154.332 177.392L133.042 134.812L133.632 134.222C133.708 134.237 133.786 134.237 133.862 134.222C133.934 134.192 133.998 134.148 134.052 134.092C134.107 134.037 134.151 133.973 134.182 133.902C134.198 133.826 134.198 133.748 134.182 133.672L134.772 133.082L177.352 153.782C178.394 149.911 180.203 146.289 182.672 143.132L140.672 121.852V112.392L182.672 91.1021C180.205 87.9471 178.396 84.3291 177.352 80.4622L135.352 101.742L134.762 101.152L134.172 100.562L133.582 99.9722L154.872 57.4021C151.003 56.353 147.382 54.5408 144.222 52.0721L122.352 94.6521H112.882L91.6024 52.0721C88.4455 54.5387 84.8282 56.3507 80.9624 57.4021L102.242 99.9722L99.8824 102.332L57.3025 81.0521C56.2589 84.919 54.4498 88.5372 51.9824 91.6921L94.5525 112.982V122.442L51.9824 143.722C54.4519 146.88 56.2612 150.501 57.3025 154.372L99.8824 133.082L101.652 134.852L80.9624 177.432C84.8293 178.476 88.4474 180.285 91.6024 182.752L112.882 140.182H122.943L144.222 182.752C147.093 180.15 150.568 178.307 154.332 177.392Z" fill="#FFAA00"/>
<path d="M164.382 0.0020752C159.702 0.00554256 155.129 1.39765 151.242 4.00208C147.353 6.59984 144.322 10.2921 142.532 14.6121C140.742 18.9354 140.272 23.6921 141.182 28.2821C142.098 32.8681 144.349 37.0812 147.652 40.3921C150.963 43.6949 155.176 45.9458 159.762 46.8621C164.352 47.772 169.108 47.3023 173.432 45.5121C177.752 43.7216 181.444 40.6906 184.042 36.8021C186.646 32.9145 188.038 28.3415 188.042 23.6621C188.009 17.3888 185.492 11.3841 181.042 6.96216C176.622 2.5385 170.635 0.0373206 164.382 0.0020752V0.0020752ZM164.382 11.8322C166.721 11.8345 169.008 12.5305 170.952 13.8322C172.895 15.1333 174.408 16.9811 175.302 19.1421C176.198 21.3015 176.435 23.6783 175.982 25.9722C175.512 28.246 174.385 30.3321 172.742 31.9722C171.088 33.6299 168.979 34.7579 166.682 35.2122C164.389 35.6686 162.012 35.4354 159.852 34.5421C157.69 33.6451 155.842 32.128 154.542 30.1821C153.243 28.2368 152.547 25.9512 152.542 23.6121C152.553 20.4783 153.804 17.4763 156.022 15.2621C158.244 13.0566 161.251 11.8231 164.382 11.8322V11.8322Z" fill="#82EFFD"/>
<path d="M164.382 188.032C159.702 188.036 155.129 189.428 151.242 192.032C147.353 194.63 144.322 198.322 142.532 202.642C140.742 206.965 140.272 211.722 141.182 216.312C142.098 220.898 144.349 225.111 147.652 228.422C150.963 231.725 155.176 233.976 159.762 234.892C164.352 235.802 169.108 235.332 173.432 233.542C177.752 231.752 181.444 228.721 184.042 224.832C186.646 220.945 188.038 216.371 188.042 211.692C188.006 205.419 185.49 199.415 181.042 194.992C176.622 190.568 170.635 188.067 164.382 188.032V188.032ZM164.382 199.862C166.721 199.864 169.008 200.56 170.952 201.862C172.895 203.163 174.408 205.011 175.302 207.172C176.198 209.332 176.435 211.708 175.982 214.002C175.521 216.294 174.394 218.398 172.742 220.052C171.088 221.71 168.979 222.838 166.682 223.292C164.389 223.749 162.012 223.515 159.852 222.622C157.69 221.725 155.842 220.208 154.542 218.262C153.243 216.317 152.547 214.031 152.542 211.692C152.553 208.558 153.804 205.556 156.022 203.342C158.244 201.137 161.251 199.903 164.382 199.912V199.862Z" fill="#82EFFD"/>
<path d="M70.9524 0.00204865C67.8345 -0.0393009 64.7401 0.545677 61.8524 1.72214C58.9647 2.8939 56.3427 4.63518 54.1424 6.84214C51.9355 9.04235 50.1942 11.6644 49.0225 14.5521C47.8496 17.4409 47.2649 20.5345 47.3025 23.6521C47.306 28.3314 48.6981 32.9045 51.3025 36.7921C53.9002 40.6805 57.5925 43.7115 61.9125 45.502C66.2358 47.2922 70.9924 47.762 75.5824 46.852C80.1692 45.9381 84.383 43.6868 87.6925 40.3821C90.9992 37.074 93.2508 32.8597 94.1625 28.2721C95.0724 23.6821 94.6027 18.9254 92.8125 14.602C91.022 10.282 87.9909 6.5898 84.1024 3.99204C80.2109 1.38925 75.6341 0.000577193 70.9524 0.00204865ZM70.9524 11.8321C73.2922 11.8327 75.5792 12.5288 77.5225 13.8321C79.4683 15.1327 80.9854 16.9803 81.8824 19.1421C82.7757 21.3025 83.0089 23.6793 82.5525 25.9721C82.0904 28.2467 80.9667 30.334 79.3225 31.9721C77.6661 33.626 75.5577 34.7533 73.2624 35.2121C70.9696 35.6686 68.5929 35.4354 66.4325 34.5421C64.2708 33.645 62.423 32.1279 61.1224 30.1821C59.8191 28.2388 59.123 25.9519 59.1224 23.612C59.1343 20.4803 60.3812 17.4798 62.5924 15.2621C64.8166 13.0594 67.8221 11.8264 70.9524 11.8321V11.8321Z" fill="#82EFFD"/>
<path d="M70.9518 188.032C66.2727 188.037 61.7003 189.429 57.8119 192.032C53.9234 194.63 50.8923 198.322 49.1018 202.642C47.3097 206.965 46.8433 211.723 47.7618 216.312C48.6735 220.9 50.9251 225.114 54.2318 228.422C57.5413 231.727 61.755 233.978 66.3418 234.892C70.9285 235.802 75.6821 235.333 80.0018 233.542C84.3265 231.755 88.0228 228.723 90.6218 224.832C93.2268 220.945 94.619 216.372 94.6218 211.692C94.6079 205.427 92.1126 199.422 87.6819 194.992C83.2448 190.551 77.2293 188.049 70.9518 188.032V188.032ZM70.9518 199.862C73.2916 199.863 75.5786 200.559 77.5219 201.862C79.4677 203.163 80.9848 205.01 81.8818 207.172C82.7751 209.333 83.0083 211.709 82.5519 214.002C82.0991 216.294 80.9748 218.4 79.3219 220.052C77.6655 221.706 75.5571 222.833 73.2618 223.292C70.969 223.749 68.5923 223.515 66.4319 222.622C64.2702 221.725 62.4224 220.208 61.1218 218.262C59.8185 216.319 59.1224 214.032 59.1218 211.692C59.1337 208.56 60.3806 205.56 62.5918 203.342C64.816 201.14 67.8215 199.906 70.9518 199.912V199.862Z" fill="#82EFFD"/>
<path d="M211.092 140.732C206.412 140.735 201.839 142.127 197.951 144.732C194.062 147.333 191.031 151.029 189.242 155.352C187.452 159.672 186.982 164.425 187.892 169.012C188.803 173.6 191.055 177.814 194.362 181.122C197.672 184.428 201.885 186.682 206.472 187.602C211.062 188.512 215.818 188.042 220.142 186.252C224.463 184.464 228.156 181.433 230.752 177.542C233.356 173.655 234.748 169.081 234.752 164.402C234.718 158.129 232.201 152.124 227.752 147.702C223.337 143.269 217.348 140.763 211.092 140.732ZM211.092 152.552C213.431 152.555 215.717 153.251 217.662 154.552C219.604 155.849 221.118 157.694 222.012 159.852C222.908 162.015 223.145 164.395 222.692 166.692C222.226 168.967 221.098 171.055 219.451 172.692C217.814 174.339 215.727 175.466 213.451 175.932C211.154 176.386 208.774 176.149 206.612 175.252C204.453 174.359 202.609 172.845 201.312 170.902C200.01 168.958 199.315 166.672 199.312 164.332C199.321 161.198 200.572 158.195 202.792 155.982C205 153.793 207.982 152.561 211.092 152.552V152.552Z" fill="#82EFFD"/>
<path d="M211.092 47.3021C206.413 47.3056 201.84 48.6977 197.952 51.3021C194.064 53.8999 191.033 57.5921 189.242 61.9121C187.453 66.2356 186.983 70.9921 187.892 75.5822C188.806 80.169 191.057 84.3826 194.362 87.6921C197.67 90.9989 201.885 93.2504 206.472 94.1621C211.061 95.0807 215.819 94.6143 220.142 92.8221C224.462 91.0311 228.154 88.0001 230.752 84.1121C233.355 80.2237 234.747 75.6513 234.752 70.9722C234.72 64.6958 232.203 58.6878 227.752 54.2621C223.334 49.8366 217.346 47.3352 211.092 47.3021V47.3021ZM211.092 59.1321C213.432 59.1344 215.718 59.8304 217.662 61.1321C219.605 62.4333 221.119 64.2811 222.012 66.4421C222.909 68.6016 223.146 70.9783 222.692 73.2721C222.236 75.5682 221.108 77.6772 219.452 79.3322C217.814 80.9764 215.727 82.1001 213.452 82.5621C211.156 83.0243 208.775 82.7909 206.612 81.8921C204.454 80.9986 202.609 79.4847 201.312 77.5421C200.012 75.5973 199.316 73.3115 199.312 70.9722C199.322 67.8351 200.573 64.8294 202.792 62.6121C204.996 60.4084 207.976 59.1586 211.092 59.1321V59.1321Z" fill="#82EFFD"/>
<path d="M23.6521 140.732C18.9727 140.735 14.3995 142.127 10.5121 144.732C6.62297 147.333 3.59204 151.029 1.80217 155.352C0.0122136 159.672 -0.457658 164.425 0.452076 169.012C1.36714 173.601 3.62227 177.815 6.93218 181.122C10.2393 184.432 14.4536 186.687 19.0422 187.602C23.6289 188.512 28.3822 188.042 32.7021 186.252C37.0251 184.462 40.7209 181.431 43.3222 177.542C45.9228 173.653 47.3145 169.081 47.3222 164.402C47.2934 158.128 44.7758 152.122 40.3222 147.702C35.9052 143.267 29.9116 140.761 23.6521 140.732V140.732ZM23.6521 152.552C25.9919 152.553 28.2786 153.249 30.2221 154.552C32.1648 155.852 33.6813 157.695 34.5821 159.852C35.4756 162.016 35.7088 164.396 35.2521 166.692C34.7861 168.967 33.6591 171.055 32.0121 172.692C30.3746 174.339 28.2874 175.466 26.0121 175.932C23.715 176.385 21.3352 176.148 19.1722 175.252C17.0139 174.359 15.1693 172.845 13.8721 170.902C12.571 168.958 11.8751 166.672 11.8721 164.332C11.8812 161.198 13.1326 158.195 15.3521 155.982C17.561 153.793 20.5424 152.561 23.6521 152.552V152.552Z" fill="#82EFFD"/>
<path d="M23.6519 47.3021C18.9725 47.3056 14.3995 48.6977 10.5119 51.3021C6.62343 53.8999 3.59243 57.5921 1.80192 61.9121C0.012314 66.2356 -0.457518 70.9921 0.451824 75.5822C1.36916 80.1699 3.62396 84.3836 6.93193 87.6921C10.2371 91.0028 14.4526 93.255 19.0419 94.1621C23.6274 95.0799 28.3821 94.6135 32.7018 92.8221C37.0227 91.0286 40.7175 87.9984 43.3219 84.1121C45.9209 80.2219 47.3125 75.6506 47.3219 70.9722C47.2936 64.6949 44.7761 58.6853 40.3219 54.2621C35.9008 49.8342 29.9091 47.3326 23.6519 47.3021V47.3021ZM23.6519 59.1321C25.9918 59.1326 28.2786 59.8288 30.2218 61.1321C32.1652 62.4353 33.6817 64.2823 34.5818 66.4421C35.4751 68.6026 35.7083 70.9792 35.2519 73.2721C34.7953 75.5682 33.6677 77.6772 32.0119 79.3322C30.3738 80.9764 28.2864 82.1001 26.0119 82.5621C23.716 83.0237 21.3346 82.7903 19.1719 81.8921C17.0136 80.9986 15.169 79.4847 13.8719 77.5421C12.5718 75.5973 11.876 73.3115 11.8719 70.9722C11.8816 67.8351 13.1327 64.8294 15.3518 62.6121C17.555 60.4084 20.5359 59.1586 23.6519 59.1321V59.1321Z" fill="#82EFFD"/>
</svg>
