<?xml version="1.0" standalone="no"?><!DOCTYPE svg PUBLIC "-//W3C//DTD SVG 1.1//EN" "http://www.w3.org/Graphics/SVG/1.1/DTD/svg11.dtd"><svg class="icon" style="fill: white;" height="512" viewBox="0 0 1024 1024" version="1.1" xmlns="http://www.w3.org/2000/svg"><path d="M512.084934 199.025892c105.588827 0 211.177654-0.013303 316.771597 0.004093 37.719066 0.008186 69.325925 11.07115 86.149079 48.296983 7.496741 16.57449 5.90857 28.004821-12.196787 39.287795C777.952164 364.462782 653.800563 443.451788 529.892509 522.806113c-13.412474 8.590656-22.379707 8.692986-35.882232 0.039909-125.211746-80.294744-250.858398-159.904896-376.730177-239.166101-11.536754-7.269567-14.867616-14.144138-10.911514-27.214828 8.978489-29.642111 28.02324-48.030923 58.020438-54.196343 12.401448-2.550079 25.388227-3.087315 38.117133-3.118014C305.696354 198.919469 408.890644 199.021799 512.084934 199.025892L512.084934 199.025892zM512.084934 199.025892M510.988973 824.958758c-107.185184 0-214.372416 0.124843-321.5576-0.061398-43.303248-0.075725-72.027453-20.283975-82.814124-55.598272-3.889587-12.739139-1.934049-20.193925 9.860579-27.569916 98.279351-61.524239 196.035792-123.872239 294.523897-185.049576 6.609535-4.102435 19.542078-3.857864 26.687826-0.155543 20.519336 10.640338 39.994899 23.491017 59.043744 36.685527 10.738575 7.438413 19.156292 7.832386 30.082132 0.292666 19.071358-13.155624 39.687908-24.088628 58.635445-37.404911 11.044544-7.757684 18.827811-6.515391 29.780257 0.488117 96.323812 61.629639 192.864566 122.918517 289.915949 183.395914 14.968923 9.331529 16.406668 19.587104 11.425214 33.978882-11.221576 32.396851-41.044812 50.869574-84.019579 50.941206C725.366506 825.074392 618.175181 824.958758 510.988973 824.958758L510.988973 824.958758zM510.988973 824.958758M105.393375 344.342536c88.158852 56.111972 174.705997 111.195521 263.888156 167.955246-88.910982 56.600089-175.061085 111.440092-263.888156 167.985946L105.393375 344.342536 105.393375 344.342536zM105.393375 344.342536M918.647557 344.564593l0 335.419306c-88.942705-56.609299-175.238117-111.542422-263.430738-167.675884C743.626381 456.008778 829.593312 401.272129 918.647557 344.564593L918.647557 344.564593zM918.647557 344.564593" /></svg>