<svg xmlns="http://www.w3.org/2000/svg" xmlns:xlink="http://www.w3.org/1999/xlink" viewBox="0 0 160 126"><defs><style>.a,.d{stroke:#00b3ef;}.a,.c,.d{stroke-miterlimit:10;}.a{fill:url(#a);}.b,.i{fill:#00b3ef;}.c,.d,.h{fill:none;}.e{fill:#004dc9;}.f{opacity:0.5;}.g,.i{stroke:none;}</style><linearGradient id="a" x1="0.5" x2="0.5" y2="1" gradientUnits="objectBoundingBox"><stop offset="0" stop-color="#fff" stop-opacity="0"/><stop offset="1" stop-color="#ebf5f8"/></linearGradient></defs><g transform="translate(1.5 1.5)"><g transform="translate(0 37)"><g class="a"><rect class="g" width="106" height="69"/><rect class="h" x="0.5" y="0.5" width="105" height="68"/></g><rect class="b" width="106" height="1" transform="translate(0 58)"/><rect class="b" width="1" height="16" transform="translate(53 69)"/><rect class="b" width="50" height="1" transform="translate(28 85)"/></g><g transform="translate(111 59)"><g class="c" transform="translate(9 36)"><path class="g" d="M0,0H26L22,28H4Z"/><path class="i" d="M 1.153009414672852 1 L 4.86729621887207 27 L 21.13270378112793 27 L 24.84699058532715 1 L 1.153009414672852 1 M 0 0 L 26 0 L 22 28 L 4 28 L 0 0 Z"/></g><path class="d" d="M7.253,18.708a52.147,52.147,0,0,1,3.586-9.023C13.3,4.843,18.761,0,18.761,0S11.32,3.425,6.88,7.853A35.148,35.148,0,0,0,0,18.708" transform="translate(24.595 17.105)"/><path class="d" d="M-7.253,18.708a52.147,52.147,0,0,0-3.586-9.023C-13.3,4.843-18.761,0-18.761,0S-11.32,3.425-6.88,7.853A35.148,35.148,0,0,1,0,18.708" transform="translate(19.356 17.105)"/><path class="d" d="M0,29.987A100.438,100.438,0,0,1,3.957,13.834,74.8,74.8,0,0,1,10.346,0S8.223,10.328,7.852,13.718s-.706,7.392-.706,7.392" transform="translate(21.9 5.937)"/><path class="d" d="M0,29.987A100.438,100.438,0,0,0-3.957,13.834,74.8,74.8,0,0,0-10.346,0s2.123,10.328,2.493,13.718.706,7.392.706,7.392" transform="translate(22.246 5.937)"/><path class="d" d="M0,22.182,2.732,0,5.418,22.182" transform="translate(19.268 0.39)"/></g><circle class="e" cx="2" cy="2" r="2" transform="translate(26 120.5)"/><circle class="e" cx="2" cy="2" r="2" transform="translate(76 120.5)"/><circle class="e" cx="2" cy="2" r="2" transform="translate(51.5 120.5)"/><circle class="e" cx="2" cy="2" r="2" transform="translate(51.5 103.5)"/><circle class="e" cx="2" cy="2" r="2" transform="translate(-1.5 103.5)"/><circle class="e" cx="2" cy="2" r="2" transform="translate(-1.5 93.5)"/><circle class="e" cx="2" cy="2" r="2" transform="translate(-1.5 35.5)"/><circle class="e" cx="2" cy="2" r="2" transform="translate(103.5 103.5)"/><path class="e" d="M2,0A2,2,0,1,1,0,2,2,2,0,0,1,2,0Z" transform="translate(103.5 93.5)"/><path class="e" d="M2,0A2,2,0,1,1,0,2,2,2,0,0,1,2,0Z" transform="translate(122.5 120.5)"/><path class="e" d="M2,0A2,2,0,1,1,0,2,2,2,0,0,1,2,0Z" transform="translate(139.5 120.5)"/><path class="e" d="M2,0A2,2,0,1,1,0,2,2,2,0,0,1,2,0Z" transform="translate(143.5 93.5)"/><path class="e" d="M2,0A2,2,0,1,1,0,2,2,2,0,0,1,2,0Z" transform="translate(118.5 93.5)"/><path class="e" d="M2,0A2,2,0,1,1,0,2,2,2,0,0,1,2,0Z" transform="translate(107.5 72.5)"/><path class="e" d="M2,0A2,2,0,1,1,0,2,2,2,0,0,1,2,0Z" transform="translate(154.5 72.5)"/><path class="e" d="M2,0A2,2,0,1,1,0,2,2,2,0,0,1,2,0Z" transform="translate(120.5 61.5)"/><path class="e" d="M2,0A2,2,0,1,1,0,2,2,2,0,0,1,2,0Z" transform="translate(141.5 61.5)"/><path class="e" d="M2,0A2,2,0,1,1,0,2,2,2,0,0,1,2,0Z" transform="translate(131 54.5)"/><circle class="e" cx="2" cy="2" r="2" transform="translate(103.5 35.5)"/><g class="f"><path class="d" d="M49.051,13,37,0,22,14l-9-4L0,15" transform="translate(77 14)"/><path class="d" d="M0,32V0H59V47H39" transform="translate(72)"/><path class="d" d="M0,27V0H49V37H34" transform="translate(77 5)"/><circle class="e" cx="2" cy="2" r="2" transform="translate(108.5 40)"/><circle class="e" cx="2" cy="2" r="2" transform="translate(70 30.5)"/><path class="e" d="M2,0A2,2,0,1,1,0,2,2,2,0,0,1,2,0Z" transform="translate(70 -1.5)"/><circle class="e" cx="2" cy="2" r="2" transform="translate(129 -1.5)"/><circle class="e" cx="2" cy="2" r="2" transform="translate(108.5 45)"/><circle class="e" cx="2" cy="2" r="2" transform="translate(129 45)"/><circle class="e" cx="2" cy="2" r="2" transform="translate(75 30.5)"/><circle class="e" cx="2" cy="2" r="2" transform="translate(75 3.5)"/><circle class="e" cx="2" cy="2" r="2" transform="translate(124 3.5)"/><circle class="e" cx="2" cy="2" r="2" transform="translate(124 40)"/><circle class="d" cx="4" cy="4" r="4" transform="translate(83 11)"/></g></g></svg>