<svg xmlns="http://www.w3.org/2000/svg" viewBox="0 0 24 54"><defs><style>.a{opacity:0.55;}.b{fill:#00b3ef;fill-rule:evenodd;}</style></defs><g class="a" transform="translate(-28 -1)"><g transform="translate(28 1)"><path class="b" d="M30.182,13.136h0V27.47a9.819,9.819,0,1,0,19.636,0V13.136a9.819,9.819,0,1,0-19.636,0Zm-2.182,0a12,12,0,1,1,24,0V27.47a12,12,0,1,1-24,0V13.136Z" transform="translate(-28 -1)"/><path class="b" d="M44.691,90.869l4.788-4.558a1.155,1.155,0,0,1,1.577,0,1.026,1.026,0,0,1,0,1.5L45.48,93.121a1.155,1.155,0,0,1-1.577,0l-5.576-5.309a1.026,1.026,0,0,1,0-1.5,1.155,1.155,0,0,1,1.577,0Z" transform="translate(-32.691 -39.432)"/><path class="b" d="M44.691,77.869l4.788-4.558a1.155,1.155,0,0,1,1.577,0,1.026,1.026,0,0,1,0,1.5L45.48,80.121a1.155,1.155,0,0,1-1.577,0l-5.576-5.309a1.026,1.026,0,0,1,0-1.5,1.155,1.155,0,0,1,1.577,0Z" transform="translate(-32.691 -33.333)"/></g></g></svg>