<svg xmlns="http://www.w3.org/2000/svg" viewBox="0 0 23.357 52.554"><defs><style>.a{opacity:0.55;}.b{fill:#00b3ef;fill-rule:evenodd;}</style></defs><g class="a" transform="translate(-28 -1)"><g transform="translate(28 1)"><path class="b" d="M30.123,12.681h0v13.8a9.555,9.555,0,1,0,19.111,0v-13.8a9.555,9.555,0,1,0-19.111,0Zm-2.123,0a11.679,11.679,0,1,1,23.357,0v13.8a11.679,11.679,0,1,1-23.357,0v-13.8Z" transform="translate(-28 -1)"/><path class="b" d="M48,16.066a1.062,1.062,0,1,1,2.123,0V20.3A1.062,1.062,0,1,1,48,20.3Z" transform="translate(-37.383 -7.568)"/><path class="b" d="M44.37,90.869l4.558-4.558a1.062,1.062,0,1,1,1.5,1.5l-5.309,5.309a1.062,1.062,0,0,1-1.5,0l-5.309-5.309a1.062,1.062,0,0,1,1.5-1.5Z" transform="translate(-32.691 -40.878)"/><path class="b" d="M44.37,77.869l4.558-4.558a1.062,1.062,0,1,1,1.5,1.5l-5.309,5.309a1.062,1.062,0,0,1-1.5,0l-5.309-5.309a1.062,1.062,0,0,1,1.5-1.5Z" transform="translate(-32.691 -34.779)"/></g></g></svg>