<svg xmlns="http://www.w3.org/2000/svg" xmlns:xlink="http://www.w3.org/1999/xlink" viewBox="0 0 128.3 130.5"><defs><style>.a{fill:none;}.b{clip-path:url(#a);}.c{fill:url(#b);}.d{fill:#00b3ef;}.e{fill:#004dc9;}</style><clipPath id="a"><rect class="a" width="128.3" height="130.5"/></clipPath><linearGradient id="b" x1="0.5" x2="0.5" y2="1" gradientUnits="objectBoundingBox"><stop offset="0" stop-color="#fff"/><stop offset="1" stop-color="#ebf5f8"/></linearGradient></defs><g class="b"><g transform="translate(-356 -4318)"><circle class="c" cx="22.5" cy="22.5" r="22.5" transform="translate(410 4318)"/><circle class="c" cx="22.5" cy="22.5" r="22.5" transform="translate(356 4347)"/><circle class="c" cx="22.5" cy="22.5" r="22.5" transform="translate(439 4376)"/><circle class="c" cx="22.5" cy="22.5" r="22.5" transform="translate(385 4403)"/><g transform="translate(356 4318)"><path class="d" d="M14.5,108.2H29l.1,1.6a22.9,22.9,0,0,0,21.2,20.7h2.9A22.993,22.993,0,0,0,74,112.8l.5-2.1,17.9,8.7.7-.8-18.6-9v-1.9a23.4,23.4,0,0,0-1.2-7.4l-.4-1.2,11.6-8.7,1,1.7a22.8,22.8,0,0,0,18.4,11.5h3A22.822,22.822,0,0,0,105.5,58h-1.9l-13-17.3,1.2-1.1a22.76,22.76,0,0,0,7.5-15.7l.1-2.6,17.8,8.6.7-.8-18.7-9-.2-.8a22.848,22.848,0,0,0-45.4,2.6v.8L38.7,35.4l-1.1-.9A22.891,22.891,0,0,0,25,29.2L23.3,29V14.5h-1V29l-1.6.1a22.879,22.879,0,0,0,.6,45.6h2.9a22.675,22.675,0,0,0,21-18.8l.5-2.8L59.1,63.5l.6-.8-14.1-11v-.8a21.921,21.921,0,0,0-5.2-13.4l-1.1-1.3,14-12L54,27A22.753,22.753,0,0,0,74.9,45.6h2.9a21.419,21.419,0,0,0,10.5-3.4l1.3-.8,12.5,16.7-2.5.6A22.788,22.788,0,0,0,82.5,80.8a23.4,23.4,0,0,0,1.2,7.4l.4,1.2L72.5,98.1l-1-1.7a22.819,22.819,0,0,0-42.6,9.2l-.1,1.6H14.5Zm19-37.3-1,.5a21.6,21.6,0,0,1-19.4,0l-1-.5V65.3a4.122,4.122,0,0,1,4.2-4h13a4.122,4.122,0,0,1,4.2,4Zm11.2-19a22.139,22.139,0,0,1-7.3,16.3l-2.9,2.6V65.4a5.061,5.061,0,0,0-5.2-5h-13a5.061,5.061,0,0,0-5.2,5v5.4L8.2,68.2A22.417,22.417,0,0,1,1,51.9a21.85,21.85,0,1,1,43.7,0Zm42.4-10-1,.5a21.6,21.6,0,0,1-19.4,0l-1-.5V36.3a4.122,4.122,0,0,1,4.2-4h13a4.122,4.122,0,0,1,4.2,4Zm1-.2V36.3a5.061,5.061,0,0,0-5.2-5H70a5.061,5.061,0,0,0-5.2,5v5.4l-2.9-2.6a21.924,21.924,0,0,1-7.3-16.2v-.1a21.8,21.8,0,1,1,43.6,0,22.139,22.139,0,0,1-7.3,16.3ZM62.5,126.8l-1,.5a21.6,21.6,0,0,1-19.4,0l-1-.5v-5.6a4.122,4.122,0,0,1,4.2-4h13a4.122,4.122,0,0,1,4.2,4Zm11.2-19.1A22.139,22.139,0,0,1,66.4,124l-2.9,2.6v-5.4a5.061,5.061,0,0,0-5.2-5h-13a5.061,5.061,0,0,0-5.2,5v5.4L37.2,124a21.862,21.862,0,1,1,36.5-16.3Zm42.4-7.7-1,.5a21.6,21.6,0,0,1-19.4,0l-1-.5V94.4a4.122,4.122,0,0,1,4.2-4h13a4.122,4.122,0,0,1,4.2,4Zm3.9-2.8-2.9,2.6V94.4a5.061,5.061,0,0,0-5.2-5H99a5.061,5.061,0,0,0-5.2,5v5.4l-2.9-2.6a21.807,21.807,0,1,1,36.3-16.3A21.681,21.681,0,0,1,120,97.2Z"/><path class="d" d="M105.5,72a7.2,7.2,0,1,0,7.2,7.2A7.17,7.17,0,0,0,105.5,72Zm0,13.4a6.2,6.2,0,1,1,6.2-6.2A6.231,6.231,0,0,1,105.5,85.4Z"/><path class="d" d="M51.9,98.8a7.2,7.2,0,1,0,7.2,7.2A7.17,7.17,0,0,0,51.9,98.8Zm0,13.4a6.2,6.2,0,1,1,6.2-6.2A6.231,6.231,0,0,1,51.9,112.2Z"/><path class="d" d="M22.8,43A7.2,7.2,0,1,0,30,50.2,7.17,7.17,0,0,0,22.8,43Zm0,13.4A6.2,6.2,0,1,1,29,50.2,6.167,6.167,0,0,1,22.8,56.4Z"/><path class="d" d="M76.4,13.9a7.2,7.2,0,1,0,7.2,7.2A7.17,7.17,0,0,0,76.4,13.9Zm0,13.4a6.2,6.2,0,1,1,6.2-6.2A6.105,6.105,0,0,1,76.4,27.3Z"/></g><circle class="e" cx="2" cy="2" r="2" transform="translate(368 4423.5)"/><circle class="e" cx="2" cy="2" r="2" transform="translate(447 4435.5)"/><circle class="e" cx="2" cy="2" r="2" transform="translate(414 4379.5)"/><circle class="e" cx="2" cy="2" r="2" transform="translate(376.5 4329.5)"/><circle class="e" cx="2" cy="2" r="2" transform="translate(471.5 4345.5)"/><circle class="e" cx="2" cy="2" r="2" transform="translate(470.5 4416.5)"/><circle class="e" cx="2" cy="2" r="2" transform="translate(416.5 4443.5)"/><circle class="e" cx="2" cy="2" r="2" transform="translate(387.5 4387.5)"/><circle class="e" cx="2" cy="2" r="2" transform="translate(441.5 4358.5)"/><circle class="e" cx="2" cy="2" r="2" transform="translate(448.5 4416.5)"/><circle class="e" cx="2" cy="2" r="2" transform="translate(394.5 4443.5)"/><circle class="e" cx="2" cy="2" r="2" transform="translate(365.5 4387.5)"/><circle class="e" cx="2" cy="2" r="2" transform="translate(419.5 4358.5)"/></g></g></svg>