<svg viewBox="0 0 69 69" fill="none" xmlns="http://www.w3.org/2000/svg">
    <path d="M21.333 8.533H11.377C10.6235 8.53537 9.90147 8.83577 9.36863 9.36861C8.83579 9.90145 8.53539 10.6235 8.53302 11.377C8.53184 17.7271 9.78163 24.0153 12.211 29.8823C14.6404 35.7493 18.2018 41.0803 22.6918 45.5707C27.1817 50.0612 32.5123 53.6231 38.3791 56.0531C44.2459 58.4831 50.5339 59.7335 56.884 59.733C57.6393 59.7319 58.3633 59.4314 58.8974 58.8974C59.4315 58.3633 59.732 57.6393 59.733 56.884V46.958C59.7306 46.2045 59.4303 45.4824 58.8974 44.9496C58.3646 44.4168 57.6426 44.1164 56.889 44.114C53.439 44.1171 50.0106 43.5699 46.733 42.493C46.4506 42.3906 46.1513 42.3424 45.851 42.351C45.0966 42.3542 44.3728 42.6499 43.832 43.176L37.572 49.433C29.5114 45.3092 22.9547 38.7507 18.833 30.689L25.086 24.433C25.4607 24.0624 25.7255 23.5953 25.851 23.0834C25.9765 22.5715 25.9578 22.0349 25.797 21.533C24.7179 18.2559 24.1707 14.8272 24.176 11.377C24.1736 10.6236 23.8734 9.90177 23.3408 9.36896C22.8081 8.83615 22.0864 8.53563 21.333 8.533V8.533Z" fill="#333333"/>
    <defs>
    </defs>
</svg>
