<svg width="199" height="220" viewBox="0 0 199 220" fill="none" xmlns="http://www.w3.org/2000/svg">
<path d="M41.1176 150.104C33.4561 150.258 25.9557 147.894 19.7677 143.374C-2.08234 127.194 -0.112346 92.144 0.167654 88.374V30.9939C0.161055 29.8028 0.509169 28.6366 1.16765 27.6439C1.82323 26.6502 2.75961 25.8739 3.85766 25.4139C4.95762 24.9567 6.16737 24.8316 7.33764 25.0539C8.50512 25.2827 9.57962 25.8495 10.4276 26.6839L56.8476 72.374C57.8519 73.3585 58.4783 74.6645 58.6176 76.064C58.7595 77.473 58.4059 78.8874 57.6176 80.064C57.5376 80.194 48.1376 94.5639 55.1776 103.064C60.1076 109.004 65.6776 106.004 66.3176 105.634L71.5377 102.634L76.6876 113.064L72.3976 116.064C68.0835 118.513 63.0317 119.326 58.1671 118.354C53.3024 117.383 48.9504 114.692 45.9076 110.774C36.4776 99.4039 41.5477 84.9539 45.1077 77.7739L12.3176 45.3939V88.6539C12.3276 88.8271 12.3276 89.0007 12.3176 89.1739C12.3176 89.4839 9.86766 121.004 27.0477 133.744C42.3677 145.084 66.0477 130.604 66.2977 130.454L71.4076 127.274L76.8776 137.484L72.6977 140.684C71.7777 141.164 57.2576 150.104 41.1176 150.104Z" fill="#82EFFD"/>
<path d="M157.747 150.104C141.597 150.104 127.107 141.164 126.177 140.634L121.987 137.424L127.467 127.214L132.587 130.434C132.997 130.674 156.587 145.024 171.837 133.724C189.097 120.924 186.607 89.4839 186.577 89.1539C186.567 88.9807 186.567 88.8072 186.577 88.634V45.3939L153.667 77.744C157.227 84.924 162.297 99.374 152.867 110.744C149.825 114.662 145.473 117.353 140.608 118.324C135.743 119.296 130.691 118.483 126.377 116.034L123.017 113.034L127.247 102.614L132.447 105.614C133.857 106.384 138.947 108.614 143.597 103.044C150.597 94.604 141.257 80.184 141.157 80.044C140.362 78.8706 140.008 77.4536 140.157 76.044C140.297 74.6445 140.923 73.3385 141.927 72.354L188.357 26.664C189.203 25.8395 190.275 25.2859 191.437 25.0739C192.595 24.8568 193.792 24.9855 194.877 25.444C195.966 25.9048 196.897 26.6727 197.557 27.6539C198.205 28.6403 198.553 29.7938 198.557 30.9739V88.3439C198.837 92.1239 200.807 127.174 178.957 143.344C172.815 147.853 165.366 150.227 157.747 150.104Z" fill="#82EFFD"/>
<path d="M79.7174 159.474C78.873 159.616 78.0626 159.915 77.3274 160.354C76.7874 160.694 75.3274 161.604 75.3274 165.664C75.3774 166.004 75.5674 166.794 75.6974 167.384C76.7874 172.134 78.7874 180.954 73.3774 187.734C69.6574 192.384 63.3274 194.794 54.6074 194.794H48.6074V182.724H54.6074C59.3274 182.724 62.6074 181.794 63.9474 180.214C65.7374 177.964 64.5974 173.024 63.9474 170.074C63.5759 168.696 63.3645 167.28 63.3174 165.854C63.3174 156.854 67.4574 152.394 70.9274 150.184C72.4089 149.255 74.0197 148.551 75.7074 148.094L79.7174 159.474Z" fill="#82EFFD"/>
<path d="M123.747 147.914C125.64 148.366 127.447 149.123 129.097 150.154C132.577 152.364 136.717 156.864 136.717 165.824C136.647 167.261 136.419 168.686 136.037 170.074C135.367 173.024 134.237 177.964 136.037 180.214C137.337 181.834 140.677 182.724 145.377 182.724H151.377V194.794H145.377C136.657 194.794 130.377 192.414 126.607 187.734C121.187 180.954 123.207 172.134 124.277 167.384C124.407 166.794 124.597 166.004 124.657 165.664C124.657 161.604 123.187 160.664 122.657 160.354C121.584 159.745 120.381 159.402 119.147 159.354L123.747 147.914Z" fill="#82EFFD"/>
<path d="M99.8776 169.264C99.8776 169.264 58.0176 199.484 58.0176 205.064C58.0176 210.644 76.7676 219.374 99.8776 219.374C122.988 219.374 141.738 210.014 141.738 205.064C141.738 200.114 99.8776 169.264 99.8776 169.264ZM99.8076 184.264C108.668 190.974 117.618 198.094 123.748 203.334C116.071 205.993 108.002 207.345 99.8776 207.334C91.6292 207.384 83.4292 206.073 75.6076 203.454C81.6776 198.184 90.7976 191.004 99.8076 184.284V184.264Z" fill="#82EFFD"/>
<path d="M113.318 5.85393C110.868 3.25393 106.018 4.51395 102.858 5.75395C103.187 5.28386 103.399 4.74229 103.478 4.17393C103.56 3.6026 103.505 3.01989 103.318 2.47392C103.132 1.93179 102.82 1.44162 102.408 1.04393C101.995 0.642686 101.495 0.341611 100.948 0.163923C100.401 -0.00738062 99.8217 -0.0450881 99.2577 0.0539376C98.689 0.144822 98.1505 0.371165 97.6877 0.713911C97.2234 1.05417 96.8464 1.49968 96.5877 2.0139C96.3296 2.52553 96.196 3.09089 96.1977 3.66392C96.1971 4.41195 96.4276 5.14193 96.8577 5.75395C93.6877 4.51395 88.8577 3.25393 86.3977 5.85393C77.3277 15.4939 92.8977 33.4139 92.8977 33.4139H106.748C106.748 33.4139 122.378 15.5139 113.318 5.85393Z" fill="#82EFFD"/>
<path d="M145.537 37.2439C144.036 35.475 142.123 34.1015 139.967 33.2439C140.837 32.2439 147.777 23.6239 143.307 18.8639C142.027 17.5039 139.467 18.1639 137.807 18.8639C137.98 18.6127 138.093 18.3254 138.137 18.0239C138.177 17.7276 138.147 17.426 138.047 17.1439C137.95 16.8558 137.786 16.5952 137.567 16.3839C137.355 16.1741 137.094 16.0196 136.807 15.9339C136.52 15.8414 136.215 15.8174 135.917 15.8639C135.618 15.916 135.334 16.0356 135.087 16.2139C134.846 16.3916 134.65 16.6248 134.517 16.8939C134.379 17.1629 134.307 17.4613 134.307 17.7639C134.306 18.1581 134.429 18.5427 134.657 18.8639C132.987 18.2139 130.447 17.5539 129.157 18.8639C125.757 22.4739 128.947 28.2939 131.017 31.3439C128.829 31.3074 126.645 31.5494 124.517 32.0639C113.317 34.7439 102.757 45.8939 99.4474 62.9939C96.1274 45.8939 85.5773 34.7439 74.3773 32.0639C72.249 31.5549 70.0655 31.313 67.8773 31.3439C69.9973 28.2939 73.1874 22.4739 69.7374 18.8639C68.4574 17.5039 65.8974 18.1639 64.2374 18.8639C64.4659 18.5427 64.5882 18.1581 64.5873 17.7639C64.5848 17.253 64.3799 16.7639 64.0174 16.4039C63.8386 16.2258 63.6265 16.0846 63.3931 15.9885C63.1597 15.8924 62.9097 15.8433 62.6573 15.8439C62.1481 15.8448 61.6596 16.046 61.2974 16.4039C61.1192 16.5827 60.978 16.7948 60.882 17.0282C60.7859 17.2615 60.7367 17.5115 60.7374 17.7639C60.7365 18.1581 60.8588 18.5427 61.0873 18.8639C59.4273 18.2139 56.8773 17.5539 55.5873 18.8639C51.1073 23.6239 58.0673 32.2039 58.9373 33.2439C56.776 34.0915 54.8611 35.4667 53.3673 37.2439C51.3863 39.7382 50.3677 42.8613 50.4973 46.0439C50.4973 52.2539 57.3273 55.6539 57.6173 55.7939L58.7173 56.3339L63.0474 49.8339C64.1974 49.3239 67.9774 48.3339 70.0474 48.8339C76.7274 50.5539 85.3473 62.2339 82.6473 81.8339L81.3473 91.2139L98.0573 85.9839L99.3973 85.0639L100.757 85.9839L117.467 91.2139L116.147 81.8539C113.437 62.2439 122.067 50.5639 128.747 48.8539C130.747 48.3339 134.547 49.3239 135.747 49.8539L140.087 56.3539L141.177 55.8139C141.467 55.6739 148.307 52.2739 148.307 46.0639C148.471 42.887 147.488 39.7569 145.537 37.2439V37.2439Z" fill="#82EFFD"/>
<path d="M99.848 76.6539L66.6681 84.7239C66.6681 84.7239 63.948 128.444 68.908 148.294C70.7667 155.996 74.5991 163.082 80.028 168.854C85.4569 174.621 92.2949 178.874 99.868 181.194C107.438 178.874 114.273 174.621 119.698 168.854C125.129 163.094 128.965 156.018 130.828 148.324C135.828 128.474 133.068 84.7539 133.068 84.7539L99.868 76.7539L99.848 76.6539ZM99.848 89.0939L121.418 94.3239C121.958 109.324 122.078 133.434 119.098 145.384C117.887 150.442 115.522 155.152 112.188 159.144C108.848 163.134 104.627 166.294 99.8581 168.374C97.7502 167.431 95.7405 166.282 93.8581 164.944C87.1673 160.281 82.44 153.306 80.588 145.364C77.588 133.434 77.7281 109.294 78.2681 94.3039L99.838 89.0739L99.848 89.0939Z" fill="#FFAA00"/>
<path d="M156.587 169.234C157.236 168.724 157.711 168.025 157.947 167.234C158.174 166.429 158.15 165.574 157.877 164.784C157.6 163.995 157.082 163.313 156.397 162.834C155.717 162.35 154.902 162.091 154.067 162.094C153.233 162.095 152.42 162.354 151.737 162.834C151.08 163.314 150.584 163.984 150.317 164.754C150.045 165.544 150.02 166.399 150.247 167.204C150.481 167.994 150.952 168.692 151.597 169.204C148.238 169.834 145.235 171.695 143.177 174.424C141.114 177.15 140.147 180.55 140.467 183.954C140.78 187.356 142.357 190.518 144.887 192.814C147.408 195.119 150.701 196.397 154.117 196.394C157.518 196.399 160.798 195.137 163.317 192.854C165.844 190.555 167.42 187.395 167.737 183.994C168.053 180.591 167.086 177.192 165.027 174.464C162.965 171.729 159.955 169.863 156.587 169.234V169.234Z" fill="#FFAA00"/>
<path d="M47.7573 176.184C47.353 176.174 46.9485 176.194 46.5473 176.244L16.2472 135.164C15.7781 134.524 15.1867 133.984 14.5073 133.574C13.8275 133.163 13.0729 132.891 12.2873 132.774C11.5041 132.66 10.7064 132.698 9.93725 132.884C9.16721 133.071 8.44276 133.411 7.80724 133.884C7.17102 134.354 6.63406 134.945 6.22726 135.624C5.8175 136.301 5.5456 137.052 5.42724 137.834C5.30847 138.617 5.34587 139.416 5.53725 140.184C5.72673 140.953 6.0666 141.677 6.53725 142.314L36.7472 183.314C35.6792 185.688 35.4056 188.342 35.9672 190.884C36.5363 193.429 37.911 195.722 39.8873 197.424C41.8516 199.111 44.305 200.124 46.8873 200.314C49.4857 200.49 52.0713 199.82 54.2573 198.404C56.4502 196.995 58.1246 194.909 59.0272 192.464C59.9476 190.026 60.0494 187.355 59.3173 184.854C58.5816 182.357 57.0594 180.165 54.9773 178.604C52.8921 177.044 50.3611 176.196 47.7573 176.184V176.184Z" fill="#FFAA00"/>
</svg>
