<svg width="95" height="95" viewBox="0 0 95 95" fill="none" xmlns="http://www.w3.org/2000/svg">
<path d="M47.9161 59.7263C44.6023 59.7012 41.4326 58.3681 39.0969 56.0172C36.7613 53.6663 35.4488 50.4879 35.4453 47.174C35.4418 43.8601 36.7475 40.679 39.0782 38.3231C41.4089 35.9673 44.5758 34.6275 47.8896 34.5955H47.9398C49.5977 34.5967 51.2388 34.9267 52.7683 35.5664C54.2978 36.206 55.6853 37.1425 56.8505 38.3218C58.0176 39.4841 58.9436 40.8655 59.5753 42.3867C60.2069 43.9079 60.5319 45.5389 60.5313 47.186C60.4852 50.5064 59.1422 53.677 56.7893 56.0203C54.4365 58.3636 51.2604 59.6937 47.9398 59.7263H47.9161ZM39.7771 47.1367C39.7807 48.2063 39.9964 49.2646 40.4116 50.2503C40.8268 51.236 41.4334 52.1296 42.1963 52.8793L42.4484 53.1324C41.0529 51.645 40.2769 49.6815 40.2786 47.642C40.2866 45.4804 41.1489 43.4096 42.6775 41.8812C44.206 40.3528 46.2769 39.4908 48.4385 39.483H48.4878C50.5269 39.4799 52.4905 40.2545 53.9782 41.6491L53.7261 41.3969C52.9763 40.6345 52.0828 40.0283 51.0973 39.6134C50.1117 39.1985 49.0537 38.9831 47.9844 38.9797H47.9342C45.7746 38.9931 43.7073 39.8569 42.1801 41.3839C40.6529 42.9109 39.7889 44.9781 39.7752 47.1377L39.7771 47.1367Z" fill="#F4F4F4"/>
<path d="M62.6488 34.7297C62.4041 34.7299 62.1615 34.6849 61.9331 34.597C61.5142 34.4679 61.1429 34.2174 60.8664 33.8772C60.5898 33.537 60.4204 33.1225 60.3794 32.686C60.3516 32.3284 60.4153 31.9697 60.5645 31.6436C60.7138 31.3175 60.9437 31.0349 61.2326 30.8223L62.8953 29.1606C64.1769 27.8761 65.5429 26.5064 66.924 25.1792C67.211 24.9182 67.4087 24.5736 67.4892 24.1941C67.5696 23.8146 67.5288 23.4194 67.3724 23.0644C66.7438 21.5088 66.5603 19.8089 66.8425 18.155C67.1805 16.5732 67.9798 15.127 69.1393 13.9992C69.89 13.1792 70.799 12.5199 71.8116 12.0611C72.8242 11.6023 73.9194 11.3535 75.0308 11.3298H75.0384C76.048 11.3296 77.0505 11.4998 78.0035 11.8332C79.6658 12.4118 81.1067 13.4937 82.126 14.9286C83.1452 16.3636 83.6923 18.0803 83.6912 19.8404C83.7204 21.8549 83.0242 23.8126 81.7298 25.3564C80.4354 26.9002 78.629 27.9271 76.6404 28.2496C75.1297 28.5423 73.5657 28.3667 72.1576 27.7463C71.7934 27.551 71.3724 27.4895 70.9675 27.5722C70.5627 27.655 70.1996 27.8769 69.9413 28.1994C68.7943 29.3928 67.4994 30.7446 66.214 31.9779L64.2006 33.9922C64.0134 34.2232 63.7769 34.4094 63.5084 34.537C63.2398 34.6646 62.9461 34.7305 62.6488 34.7297V34.7297ZM75.1616 15.7615C74.6412 15.7604 74.1256 15.8625 73.6449 16.0618C73.1641 16.2612 72.7275 16.5537 72.3604 16.9227C71.5935 17.7073 71.1453 18.7488 71.1025 19.8452C71.1079 20.7814 71.4291 21.6885 72.014 22.4196C72.5988 23.1507 73.4133 23.6631 74.3255 23.8739C73.5556 23.4226 72.9547 22.7315 72.6147 21.9063C72.2746 21.0812 72.2142 20.1674 72.4427 19.3047C72.6711 18.4419 73.1758 17.6777 73.8796 17.129C74.5834 16.5802 75.4475 16.277 76.3399 16.2658H76.3901C76.7279 16.2713 77.0646 16.3046 77.3969 16.3653C76.7403 15.9782 75.9939 15.7697 75.2318 15.7605H75.1626L75.1616 15.7615Z" fill="#F4F4F4"/>
<path d="M33.1416 34.5591C32.9161 34.5587 32.6922 34.5225 32.478 34.452C32.0645 34.2707 31.6887 34.0134 31.3699 33.6937C29.6636 31.9874 27.7241 30.0517 25.777 28.0534C25.6294 27.8734 25.4454 27.7265 25.2372 27.6223C25.0289 27.5181 24.8011 27.4589 24.5684 27.4486C24.2911 27.4736 24.0193 27.5414 23.7627 27.6496C22.4939 28.1891 21.1103 28.4024 19.7379 28.2699C18.3656 28.1374 17.0483 27.6635 15.9061 26.8912L15.9118 26.8969C14.7474 26.1183 13.7869 25.0716 13.1111 23.8446C12.4353 22.6177 12.0639 21.2464 12.0281 19.8462C12.0007 17.8131 12.7016 15.8374 14.0042 14.2763C15.3068 12.7152 17.125 11.6717 19.1301 11.3346C19.3607 11.2992 19.5936 11.2815 19.8268 11.2815H19.9823H20.5226C22.7498 11.2769 24.8895 12.1485 26.4795 13.7082C28.1007 15.3008 29.0242 17.4713 29.0474 19.7438C28.98 20.7195 28.7941 21.6833 28.4938 22.6141L28.3934 23.018C28.2666 23.3535 28.242 23.7191 28.3226 24.0686C28.4033 24.4181 28.5855 24.736 28.8465 24.9821C30.6608 26.7453 32.5008 28.5843 34.6374 30.774C34.9927 31.1219 35.2206 31.5792 35.2846 32.0723C35.3485 32.5654 35.2448 33.0657 34.9901 33.4927C34.8018 33.8163 34.5321 34.085 34.2079 34.2721C33.8836 34.4592 33.516 34.5581 33.1416 34.5591V34.5591ZM17.8172 16.917C17.4211 17.2805 17.1082 17.7252 16.8997 18.2208C16.6913 18.7163 16.5923 19.251 16.6095 19.7883C16.5978 20.7086 16.9011 21.6052 17.4691 22.3293C18.037 23.0535 18.8355 23.5617 19.732 23.7697C19.1381 23.3946 18.6502 22.8735 18.3149 22.2561C17.9797 21.6388 17.8083 20.9458 17.8172 20.2433C17.8192 19.173 18.2459 18.1472 19.0035 17.3911C19.7612 16.6351 20.7879 16.2105 21.8583 16.2108H21.8933C22.1647 16.2195 22.4348 16.2532 22.7 16.3113C21.9312 15.8621 21.0359 15.6784 20.1523 15.7883C19.2687 15.8983 18.4458 16.2959 17.8106 16.9199L17.8172 16.917Z" fill="#F4F4F4"/>
<path d="M9.12106 55.6401C8.43572 55.6406 7.75277 55.5592 7.08678 55.3974C5.45115 54.964 3.98248 54.0515 2.86948 52.777C1.75647 51.5025 1.04999 49.9243 0.840804 48.2452C0.584034 46.6256 0.82165 44.9663 1.52262 43.4838C2.22359 42.0014 3.35533 40.7648 4.77002 39.9356C6.11047 39.0857 7.66378 38.6319 9.25093 38.6265H9.3097C10.1091 38.6261 10.904 38.7452 11.6682 38.98C12.816 39.3295 13.8764 39.9188 14.7793 40.709C15.6822 41.4991 16.4069 42.472 16.9055 43.5633C17.0431 43.9773 17.3075 44.3374 17.6613 44.5926C18.015 44.8478 18.4401 44.9852 18.8763 44.9852C18.9408 44.9852 19.0071 44.9852 19.0716 44.9758C21.0888 44.9255 23.161 44.9255 25.1649 44.9255H26.9272C26.9869 44.9208 27.0476 44.9179 27.1073 44.9179C27.6893 44.9151 28.2486 45.1435 28.6622 45.553C29.0758 45.9625 29.3098 46.5195 29.3127 47.1015C29.3156 47.6835 29.0871 48.2429 28.6776 48.6564C28.2681 49.07 27.7111 49.304 27.1291 49.3069C26.4655 49.3515 25.7887 49.3742 25.1176 49.3742C24.7829 49.3742 24.4426 49.3685 24.107 49.3571H22.0424V49.4074H18.7199C18.3748 49.3503 18.0207 49.4211 17.724 49.6064C17.4274 49.7917 17.2085 50.0789 17.1084 50.4141C16.4496 51.9821 15.3372 53.3175 13.914 54.2486C12.4907 55.1798 10.8217 55.6644 9.12106 55.6401V55.6401ZM9.49455 43.0078C8.38586 43.006 7.32114 43.4413 6.53129 44.2193C6.13757 44.5789 5.8192 45.0131 5.59463 45.4967C5.37007 45.9804 5.24379 46.5038 5.22313 47.0366C5.21361 47.9896 5.53452 48.9165 6.13127 49.6596C6.72802 50.4028 7.56377 50.9162 8.49637 51.1127C7.85591 50.7526 7.32523 50.2254 6.96095 49.5874C6.59667 48.9493 6.41246 48.2243 6.42796 47.4897C6.48878 46.4166 6.95865 45.4077 7.74086 44.6705C8.11695 44.2886 8.56503 43.9851 9.05918 43.7775C9.55334 43.5698 10.0838 43.4623 10.6198 43.461H10.7145C10.8142 43.4838 10.9152 43.5005 11.0169 43.5112C11.1187 43.5218 11.2196 43.5386 11.3193 43.5614C10.7815 43.2047 10.1513 43.0123 9.50592 43.0078H9.49455Z" fill="#F4F4F4"/>
<path d="M75.2137 82.9296C73.6762 82.9294 72.1673 82.5138 70.8465 81.7266C69.1186 80.7016 67.8138 79.0929 67.1674 77.1907C66.521 75.2885 66.5755 73.2179 67.3211 71.3524C67.4912 70.9996 67.539 70.6002 67.4569 70.2173C67.3749 69.8344 67.1677 69.4896 66.868 69.2375C65.6556 68.0611 64.4318 66.8231 63.2478 65.6277C62.6658 65.04 62.0648 64.4343 61.479 63.8485L61.1756 63.4958C60.8564 63.2031 60.6318 62.8217 60.5307 62.4005C60.4297 61.9793 60.4567 61.5375 60.6083 61.1317C60.76 60.726 61.0293 60.3748 61.3819 60.1231C61.7344 59.8715 62.1541 59.7308 62.5871 59.7192C62.6465 59.7222 62.7055 59.7304 62.7634 59.7439C62.8201 59.7575 62.8778 59.766 62.936 59.7695C63.4746 59.8665 63.9685 60.1321 64.3465 60.5278C66.2139 62.3441 68.0956 64.2248 69.9394 66.1207C70.1852 66.4289 70.5303 66.6425 70.9158 66.7251C71.3014 66.8077 71.7036 66.7543 72.0542 66.5738C73.3797 66.0374 74.8201 65.8486 76.2391 66.0251C77.658 66.2016 79.0083 66.7377 80.1619 67.5824V67.5758C81.2926 68.3298 82.2137 69.3583 82.839 70.565C83.4643 71.7717 83.7735 73.1172 83.7376 74.4758C83.7173 76.724 82.8105 78.8734 81.2141 80.4566C79.6178 82.0398 77.461 82.9288 75.2127 82.9305L75.2137 82.9296ZM75.0819 70.3513C74.0385 70.4141 73.0549 70.8601 72.3201 71.6037C71.5853 72.3472 71.151 73.3359 71.1006 74.3801C71.1143 75.4537 71.5053 76.4882 72.2049 77.3026C72.775 77.8692 73.4888 78.2697 74.2695 78.461C73.9633 78.2537 73.6776 78.0175 73.4164 77.7557C72.7111 76.9654 72.3175 75.9455 72.3092 74.8863C72.3483 73.8382 72.7788 72.8429 73.5159 72.0969C74.253 71.3509 75.2431 70.9083 76.2906 70.8566H76.3408C76.6622 70.8624 76.9826 70.896 77.2982 70.9571C76.6387 70.5762 75.8936 70.3682 75.1322 70.3523L75.0819 70.3513Z" fill="#F4F4F4"/>
<path d="M47.9488 94.1887C46.6286 94.1885 45.3263 93.8828 44.1439 93.2955C42.9615 92.7083 41.931 91.8554 41.1331 90.8036C40.4419 89.8952 39.9463 88.8535 39.6776 87.7441C39.4089 86.6347 39.3729 85.4817 39.5718 84.3576C39.7671 82.994 40.3095 81.7035 41.1472 80.6099C41.9848 79.5163 43.0895 78.6563 44.3551 78.1126C44.8036 77.9534 45.186 77.6489 45.4417 77.2476C45.6974 76.8463 45.8118 76.371 45.7666 75.8973C45.7164 73.8279 45.7164 71.7557 45.7164 69.7518V68.0407C45.6979 67.7419 45.7398 67.4424 45.8394 67.1601C45.939 66.8778 46.0944 66.6184 46.2963 66.3973C46.4982 66.1762 46.7425 65.998 47.0146 65.8732C47.2868 65.7484 47.5812 65.6796 47.8805 65.6709C48.1797 65.672 48.4757 65.7335 48.7506 65.8517C49.0255 65.9698 49.2738 66.1421 49.4806 66.3584C49.6874 66.5747 49.8485 66.8304 49.9542 67.1104C50.0599 67.3903 50.1081 67.6887 50.0959 67.9877V73.1748C50.0959 73.4933 50.1015 73.8175 50.1072 74.1313C50.1186 74.7588 50.13 75.4072 50.0959 76.0452C50.0476 76.4607 50.1406 76.8804 50.3599 77.2366C50.5791 77.5929 50.9118 77.865 51.3045 78.0093C53.4199 78.9311 55.0851 80.6519 55.9371 82.7964C56.335 83.8597 56.5134 84.9925 56.4614 86.1267C56.4094 87.2608 56.1282 88.3726 55.6347 89.395C54.9924 90.7071 54.025 91.8329 52.8244 92.6652C51.6239 93.4975 50.2303 94.0086 48.7763 94.1499C48.5033 94.1755 48.2246 94.1887 47.9488 94.1887ZM47.9289 81.6352C46.8579 81.6414 45.8319 82.0664 45.0702 82.8193C44.3085 83.5721 43.8715 84.5931 43.8527 85.6639C43.8195 86.61 44.1264 87.5366 44.7177 88.2759C45.3089 89.0151 46.1455 89.5181 47.0757 89.6936C46.4611 89.3208 45.9529 88.796 45.6 88.1697C45.2472 87.5434 45.0617 86.8368 45.0613 86.118C45.076 85.0458 45.5116 84.0223 46.2742 83.2684C47.0368 82.5145 48.0652 82.0907 49.1375 82.0883H49.1877C49.4588 82.097 49.7285 82.1306 49.9935 82.1888C49.381 81.8303 48.685 81.6394 47.9753 81.6352H47.9289Z" fill="#F4F4F4"/>
<path d="M47.9916 28.5644C47.5224 28.5643 47.065 28.4172 46.6836 28.1439C46.3023 27.8705 46.0161 27.4845 45.8654 27.0401C45.7799 26.7458 45.746 26.4389 45.7649 26.1329V25.932C45.7649 25.0788 45.7592 24.2001 45.7545 23.346C45.7431 21.5923 45.7327 19.7789 45.7649 18.0252C45.789 17.6588 45.6943 17.2945 45.4948 16.9862C45.2954 16.678 45.0018 16.4423 44.6577 16.3142C43.5681 15.8661 42.5842 15.1951 41.7692 14.3442C40.9543 13.4934 40.3263 12.4815 39.9256 11.3735C39.5316 10.2482 39.3774 9.05293 39.4727 7.86447C39.568 6.67601 39.9109 5.52062 40.4792 4.4725C41.0298 3.46347 41.7844 2.58002 42.6948 1.87828C43.6053 1.17655 44.6517 0.671886 45.7677 0.396363C46.5242 0.200174 47.3021 0.0982873 48.0836 0.0930217H48.2087C49.7199 0.0914681 51.1989 0.529157 52.4659 1.35283C55.0016 3.03164 56.2444 5.35693 56.4937 8.90887C56.6984 11.2541 54.7627 14.8098 51.6592 16.1616C51.1649 16.3095 50.7402 16.6303 50.4628 17.0654C50.1854 17.5005 50.0737 18.0208 50.1482 18.5314C50.1814 20.2813 50.17 22.053 50.1596 23.7659C50.1539 24.6124 50.1482 25.4864 50.1482 26.3377V26.4382C50.1506 26.9659 49.9555 27.4755 49.6014 27.8668C49.2473 28.2581 48.7597 28.5029 48.2343 28.553C48.1537 28.5612 48.0726 28.565 47.9916 28.5644V28.5644ZM47.9802 4.4289C46.8892 4.44928 45.846 4.88095 45.0596 5.63752C44.6738 5.99881 44.3671 6.43626 44.1591 6.92218C43.9511 7.40811 43.8461 7.93193 43.851 8.46049C43.8398 9.40638 44.1538 10.3274 44.7405 11.0694C45.3272 11.8115 46.151 12.3294 47.074 12.5366C46.4577 12.1529 45.9494 11.6184 45.5969 10.9837C45.2445 10.3489 45.0596 9.63488 45.0596 8.90887C45.0557 8.38105 45.1612 7.85815 45.3694 7.37311C45.5775 6.88807 45.8839 6.45141 46.2692 6.09064C46.6511 5.70626 47.1054 5.4015 47.606 5.19403C48.1065 4.98656 48.6432 4.88051 49.1851 4.88202H49.1917C49.463 4.88775 49.733 4.92142 49.9975 4.9825C49.3853 4.6242 48.6896 4.43328 47.9802 4.4289V4.4289Z" fill="#F4F4F4"/>
<path d="M20.6379 82.939H20.6323C18.7224 82.9428 16.8671 82.3027 15.3659 81.1221C13.8647 79.9415 12.8052 78.2894 12.3585 76.4325C11.9119 74.5757 12.1042 72.6225 12.9044 70.8883C13.7045 69.1542 15.0658 67.7404 16.7685 66.8753C17.9488 66.2539 19.2614 65.9261 20.5953 65.9197H20.6076C21.6947 65.9184 22.7705 66.1407 23.768 66.5729C24.113 66.7403 24.5044 66.7867 24.879 66.7045C25.2535 66.6223 25.5895 66.4163 25.8327 66.1197C27.6337 64.2732 29.4055 62.5005 31.2814 60.6217L31.471 60.4321C31.7973 60.0489 32.2397 59.7826 32.7311 59.6738C33.2225 59.565 33.736 59.6196 34.1935 59.8292C34.5092 59.9815 34.7837 60.2074 34.994 60.4878C35.2043 60.7682 35.3443 61.095 35.4021 61.4407C35.4456 61.8276 35.3999 62.2193 35.2684 62.5857C35.1369 62.9522 34.9233 63.2836 34.6438 63.5546C34.447 63.7257 34.2605 63.9084 34.0854 64.1016C33.9906 64.2011 33.8958 64.3044 33.7906 64.4078C32.7109 65.5339 31.3677 66.935 30.0131 68.1341C29.3586 68.6075 28.8831 69.2879 28.6636 70.0652C28.444 70.8425 28.4933 71.6711 28.8035 72.4169C29.1457 73.6246 29.201 74.8956 28.965 76.1284C28.729 77.3613 28.2082 78.522 27.4442 79.5179C26.6653 80.5762 25.649 81.4371 24.4769 82.0312C23.3049 82.6254 22.0098 82.9363 20.6958 82.939H20.6379ZM20.4427 70.4044H20.3943C19.864 70.4152 19.3412 70.5321 18.8568 70.7483C18.3724 70.9645 17.9363 71.2757 17.5742 71.6633C17.0653 72.1861 16.7055 72.8355 16.5323 73.5443C16.3591 74.253 16.3788 74.9952 16.5893 75.6938C16.7998 76.3924 17.1934 77.0219 17.7293 77.517C18.2652 78.0121 18.9239 78.3547 19.6369 78.5093C18.8718 78.0597 18.2741 77.3731 17.9341 76.5534C17.5942 75.7338 17.5305 74.8256 17.7528 73.9665C17.9751 73.1074 18.4712 72.3442 19.1661 71.7922C19.861 71.2403 20.7168 70.9298 21.6039 70.9078C21.925 70.9139 22.245 70.9476 22.5604 71.0083C21.9248 70.6131 21.1911 70.4039 20.4427 70.4044V70.4044Z" fill="#F4F4F4"/>
<path d="M86.6116 55.5337C86.2062 55.5334 85.8013 55.5036 85.4001 55.4445C83.9416 55.2804 82.5542 54.726 81.3843 53.8396C80.2144 52.9533 79.3051 51.7678 78.7522 50.4081C78.6357 50.0693 78.4161 49.7753 78.1243 49.5672C77.8325 49.3592 77.483 49.2475 77.1246 49.2479H77.0374H68.688C68.13 49.2491 67.5931 49.0355 67.1884 48.6514C66.7837 48.2674 66.5423 47.7424 66.5143 47.1851C66.4924 46.9069 66.526 46.6271 66.6132 46.362C66.7003 46.0969 66.8393 45.8518 67.0221 45.6409C67.2049 45.43 67.4277 45.2575 67.6778 45.1335C67.9278 45.0095 68.2 44.9365 68.4785 44.9186C69.7373 44.8684 71.018 44.8684 72.256 44.8684H74.3206C74.6211 44.8684 74.933 44.8627 75.2344 44.858C75.5359 44.8532 75.8591 44.8466 76.171 44.8466C76.5189 44.8466 76.8194 44.8542 77.0905 44.8684C77.1471 44.8748 77.2041 44.878 77.2611 44.8779C77.5711 44.8786 77.8731 44.7804 78.1233 44.5974C78.3735 44.4144 78.5586 44.1563 78.6518 43.8607C79.2299 42.4132 80.2008 41.1559 81.4551 40.2306C82.7094 39.3052 84.1972 38.7486 85.7509 38.6233C86.8511 38.5115 87.9627 38.6234 89.0185 38.9525C90.0743 39.2816 91.0526 39.821 91.8945 40.5382C92.7715 41.2458 93.4959 42.1239 94.0239 43.1194C94.552 44.1149 94.8727 45.2072 94.9667 46.3301C95.0812 47.6275 94.8955 48.9337 94.4238 50.1477C93.9522 51.3617 93.2074 52.4508 92.2471 53.3306C90.7133 54.7488 88.7006 55.5356 86.6116 55.5337ZM86.5576 43.0047C85.5401 42.997 84.5561 43.3682 83.7973 44.0461C83.0385 44.724 82.5592 45.6601 82.4527 46.6721C82.3463 47.684 82.6202 48.6994 83.2213 49.5204C83.8224 50.3414 84.7076 50.9092 85.7044 51.1134C85.0892 50.749 84.5767 50.2342 84.215 49.6174C83.8534 49.0006 83.6545 48.3019 83.637 47.5871C83.6585 46.4986 84.1005 45.4607 84.8702 44.6908C85.6399 43.9209 86.6777 43.4787 87.7662 43.4569H87.8155C88.0871 43.4626 88.3575 43.4963 88.6222 43.5574C88.0097 43.1991 87.3136 43.0085 86.604 43.0047H86.5576Z" fill="#F4F4F4"/>
<path d="M15.6482 49.1661C15.3038 49.508 14.8946 49.7776 14.4446 49.9592C13.9945 50.1408 13.5128 50.2307 13.0276 50.2237H12.9358C11.9497 50.1701 11.0221 49.7391 10.3453 49.0199C9.66852 48.3007 9.29451 47.3486 9.30086 46.3611C9.31839 45.8739 9.43316 45.3952 9.63842 44.953C9.84368 44.5108 10.1353 44.1142 10.4961 43.7863C11.2208 43.0769 12.1952 42.6806 13.2093 42.6829C14.1657 42.7502 15.0615 43.1757 15.7178 43.8746C16.3742 44.5734 16.7427 45.4942 16.75 46.4529C16.7645 46.9568 16.6741 47.4582 16.4844 47.9253C16.2947 48.3924 16.01 48.815 15.6482 49.1661V49.1661Z" fill="#CCEFFF"/>
<path d="M20.7976 18.867C21.1379 18.5199 21.5461 18.2468 21.9967 18.0645C22.4473 17.8822 22.9306 17.7948 23.4165 17.8076C24.4004 17.8318 25.3359 18.2397 26.0232 18.9443C26.7105 19.6489 27.095 20.5942 27.0947 21.5785C27.0977 22.0644 27.0049 22.5461 26.8216 22.9962C26.6383 23.4462 26.3682 23.8557 26.0266 24.2013C25.685 24.5469 25.2787 24.8218 24.8309 25.0103C24.383 25.1989 23.9024 25.2973 23.4165 25.3V25.3C22.9213 25.3081 22.4297 25.2157 21.9713 25.0284C21.5129 24.8411 21.0972 24.5628 20.7494 24.2104C20.4015 23.8579 20.1288 23.4386 19.9475 22.9778C19.7663 22.5169 19.6804 22.0241 19.6949 21.5292C19.6982 20.53 20.0953 19.5725 20.8002 18.8644L20.7976 18.867Z" fill="#CCEFFF"/>
<path d="M45.5796 7.32622C46.6059 6.34679 47.9652 5.78673 49.3876 5.75716C50.4498 5.75141 51.4893 6.06288 52.3713 6.6512C53.2534 7.23953 53.9374 8.07761 54.3348 9.05688C54.7322 10.0361 54.8246 11.1115 54.6001 12.1435C54.3755 13.1756 53.8444 14.1169 53.0755 14.8454C52.0969 15.8234 50.7749 16.3859 49.3876 16.4145H49.3269C48.6229 16.4017 47.9283 16.2511 47.2828 15.9714C46.6373 15.6918 46.0535 15.2884 45.5648 14.7845C45.0761 14.2805 44.6921 13.6858 44.4346 13.0343C44.1772 12.3828 44.0513 11.6872 44.0643 10.9874C44.0457 10.3059 44.1709 9.62807 44.4316 8.99754C44.6924 8.367 45.083 7.79769 45.5783 7.32622H45.5796Z" fill="#CCEFFF"/>
<path d="M70.6351 18.8675C70.9727 18.5303 71.3737 18.2632 71.8151 18.0817C72.2564 17.9002 72.7292 17.8078 73.2064 17.8098H73.2523C74.2401 17.8098 75.1874 18.2023 75.8859 18.9007C76.5844 19.5992 76.9768 20.5466 76.9768 21.5344C76.9768 22.5222 76.5844 23.4696 75.8859 24.1681C75.1874 24.8665 74.2401 25.259 73.2523 25.259C72.7664 25.2562 72.2857 25.1578 71.8379 24.9693C71.39 24.7808 70.9837 24.5059 70.6421 24.1603C70.3005 23.8147 70.0304 23.4051 69.8471 22.9551C69.6639 22.5051 69.571 22.0233 69.574 21.5374C69.5454 21.0419 69.6256 20.5462 69.8089 20.0849C69.9922 19.6237 70.2742 19.2082 70.6351 18.8675V18.8675Z" fill="#CCEFFF"/>
<path d="M86.1249 49.167C85.4677 49.8311 84.5762 50.2109 83.6419 50.2246H83.596C82.5998 50.1985 81.651 49.7942 80.9421 49.0938C80.2332 48.3934 79.8174 47.4495 79.7793 46.4537C79.795 45.4477 80.2082 44.4887 80.9286 43.7863C81.6247 43.0905 82.5652 42.6945 83.5493 42.6829H83.5952C84.5783 42.721 85.5101 43.1319 86.2013 43.8321C86.8925 44.5323 87.2913 45.4693 87.3167 46.4529C87.3114 46.9623 87.2031 47.4653 86.9983 47.9318C86.7935 48.3982 86.4964 48.8184 86.1249 49.167V49.167Z" fill="#CCEFFF"/>
<path d="M77.5612 73.9021C77.2088 74.2613 76.7876 74.5463 76.3224 74.7401C75.8573 74.9338 75.3578 75.0325 74.8537 75.03H74.8046C74.243 75.0342 73.6866 74.9231 73.1699 74.7038C72.6533 74.4845 72.1875 74.1617 71.8015 73.7553C71.436 73.3897 71.1507 72.9525 70.9636 72.4714C70.7765 71.9903 70.6917 71.4757 70.7146 70.9603C70.7649 69.9439 71.1898 68.9817 71.9078 68.2578C72.6258 67.534 73.5866 67.0994 74.6063 67.0373H74.6554C75.1912 67.0323 75.7226 67.1346 76.218 67.338C76.7134 67.5414 77.1628 67.8418 77.5396 68.2214C77.9163 68.6011 78.2127 69.0521 78.4112 69.548C78.6098 70.0438 78.7064 70.5743 78.6953 71.108C78.7325 71.629 78.6499 72.1516 78.4536 72.6359C78.2574 73.1203 77.9528 73.5537 77.563 73.903L77.5612 73.9021Z" fill="#CCEFFF"/>
<path d="M50.9102 84.3894C50.2141 85.0852 49.2736 85.4812 48.2895 85.4929H48.1978C47.7087 85.4899 47.2249 85.3905 46.7742 85.2006C46.3235 85.0106 45.9146 84.7337 45.5708 84.3858C45.2271 84.0378 44.9553 83.6255 44.7709 83.1725C44.5865 82.7194 44.4932 82.2345 44.4962 81.7454C44.4992 81.2563 44.5985 80.7725 44.7885 80.3218C44.9784 79.8711 45.2553 79.4622 45.6033 79.1185C45.9513 78.7747 46.3635 78.5029 46.8166 78.3185C47.2696 78.1341 47.7545 78.0408 48.2437 78.0438H48.2895C49.2703 78.0637 50.2054 78.4622 50.899 79.1558C51.5927 79.8495 51.9911 80.7845 52.011 81.7653C52.0178 82.2546 51.9232 82.74 51.7333 83.191C51.5434 83.642 51.2623 84.0488 50.9076 84.3859L50.9102 84.3894Z" fill="#CCEFFF"/>
<path d="M25.8904 74.1341C25.5739 74.4622 25.1956 74.7245 24.7773 74.906C24.3591 75.0875 23.9091 75.1846 23.4533 75.1917V75.1917C22.7044 75.225 21.9628 75.0326 21.3245 74.6394C20.6863 74.2463 20.1808 73.6705 19.8736 72.9867C19.5664 72.3029 19.4716 71.5426 19.6016 70.8044C19.7315 70.0661 20.0802 69.3839 20.6024 68.8461C20.9326 68.491 21.3311 68.2062 21.7739 68.0087C22.2168 67.8112 22.695 67.7051 23.1798 67.6967V67.6967C24.1713 67.6866 25.1271 68.0665 25.841 68.7546C26.555 69.4427 26.97 70.3838 26.9965 71.375C27.0166 71.8868 26.9285 72.3971 26.7379 72.8726C26.5473 73.348 26.2585 73.7779 25.8904 74.1341V74.1341Z" fill="#CCEFFF"/>
<path d="M47.6462 53.9054C45.6846 53.8843 43.8105 53.0902 42.4308 51.6956C41.0512 50.301 40.2773 48.4184 40.2773 46.4567C40.2773 44.495 41.0512 42.6125 42.4308 41.2179C43.8105 39.8233 45.6846 39.0292 47.6462 39.0081H47.692C49.6677 39.0141 51.5599 39.8048 52.9526 41.2061C54.3453 42.6073 55.1243 44.5045 55.1182 46.4801C55.1121 48.4557 54.3215 50.348 52.9202 51.7407C51.5189 53.1334 49.6218 53.9123 47.6462 53.9063V53.9054Z" fill="#E1F0F7"/>
<path d="M47.1907 57.4871C44.9217 57.4869 42.7038 56.814 40.8172 55.5533C38.9307 54.2927 37.4603 52.501 36.592 50.4047C35.7237 48.3084 35.4965 46.0018 35.9392 43.7764C36.3818 41.551 37.4743 39.5068 39.0787 37.9023C40.1509 36.8317 41.4247 35.9841 42.8264 35.4085C44.2281 34.8329 45.7299 34.5407 47.2451 34.5487C48.7604 34.5568 50.259 34.8649 51.6545 35.4554C53.05 36.0459 54.3146 36.9069 55.3755 37.9889C56.4387 39.04 57.2797 40.2943 57.8484 41.677C58.4171 43.0597 58.7019 44.5427 58.6859 46.0378C58.6442 49.0693 57.4183 51.9642 55.2703 54.1037C53.1222 56.2432 50.2224 57.4575 47.1907 57.4871V57.4871ZM47.1102 38.5895C45.1346 38.5895 43.2399 39.3743 41.8429 40.7713C40.4459 42.1683 39.6611 44.063 39.6611 46.0386C39.6611 48.0142 40.4459 49.909 41.8429 51.3059C43.2399 52.7029 45.1346 53.4877 47.1102 53.4877H47.1907C49.1558 53.4656 51.0356 52.6815 52.4339 51.3007C53.8322 49.9198 54.6398 48.05 54.6866 46.0854C54.6796 44.0999 53.8856 42.1983 52.4787 40.7973C51.7941 40.1013 50.9784 39.548 50.0786 39.1691C49.1788 38.7903 48.2129 38.5936 47.2366 38.5904H47.1102V38.5895Z" fill="#2F80ED"/>
<path d="M60.667 34.6658C60.4433 34.666 60.2215 34.6249 60.0127 34.5446C59.6616 34.4459 59.3451 34.2509 59.0991 33.9817C58.8531 33.7124 58.6874 33.3797 58.6208 33.0211C58.5541 32.6625 58.5892 32.2925 58.722 31.9528C58.8548 31.6131 59.0801 31.3174 59.3722 31.0992L60.8903 29.582C62.0708 28.398 63.3274 27.1422 64.5685 25.947C64.8303 25.7086 65.0107 25.3939 65.0841 25.0475C65.1576 24.7011 65.1204 24.3403 64.9779 24.0162C64.4044 22.5958 64.2372 21.0438 64.495 19.5339C64.8036 18.0897 65.5333 16.7693 66.592 15.7397C67.2774 14.9909 68.1076 14.3889 69.0322 13.97C69.9569 13.5511 70.9569 13.324 71.9718 13.3025H71.9787C72.9002 13.3023 73.8152 13.4577 74.685 13.7621C76.2026 14.2905 77.5179 15.2783 78.4485 16.5884C79.379 17.8985 79.8786 19.4658 79.8778 21.0727C79.9041 22.9119 79.2683 24.6992 78.0863 26.1087C76.9044 27.5181 75.2552 28.4556 73.4396 28.7503C72.0607 29.0175 70.633 28.8572 69.3477 28.2907C69.0152 28.1125 68.6308 28.0563 68.2611 28.1318C67.8915 28.2074 67.56 28.41 67.3242 28.7044C66.2744 29.7984 65.0835 31.0412 63.9212 32.1533L62.082 33.9933C61.9112 34.2038 61.6955 34.3735 61.4507 34.4898C61.2058 34.6062 60.9381 34.6663 60.667 34.6658V34.6658ZM72.0912 17.3468C71.6159 17.3459 71.1451 17.4393 70.7061 17.6216C70.2671 17.8039 69.8686 18.0714 69.5337 18.4088V18.4088C69.1772 18.7517 68.8984 19.1671 68.7159 19.6269C68.5335 20.0867 68.4517 20.5803 68.4761 21.0744C68.4732 21.5603 68.566 22.0421 68.7492 22.4921C68.9325 22.9421 69.2026 23.3516 69.5442 23.6972C69.8858 24.0428 70.2921 24.3178 70.74 24.5063C71.1879 24.6948 71.6685 24.7932 72.1544 24.7959C73.1423 24.7959 74.0898 24.4035 74.7883 23.7049C75.4869 23.0063 75.8794 22.0589 75.8794 21.071C75.8794 20.083 75.4869 19.1356 74.7883 18.437C74.0898 17.7384 73.1423 17.346 72.1544 17.346H72.0912V17.3468Z" fill="#2F80ED"/>
<path d="M33.7246 34.5574C33.5188 34.557 33.3143 34.524 33.1188 34.4596C32.7414 34.2938 32.3982 34.059 32.107 33.7672C30.3172 31.98 28.6971 30.3582 27.0007 28.6177C26.866 28.4532 26.698 28.3191 26.5079 28.2239C26.3178 28.1288 26.1097 28.0748 25.8973 28.0655C25.644 28.0881 25.3958 28.15 25.1616 28.249C24.0032 28.7416 22.74 28.9363 21.487 28.8154C20.2341 28.6944 19.0314 28.2617 17.9886 27.5566V27.5636C16.9263 26.8523 16.0503 25.8964 15.4341 24.7762C14.818 23.656 14.4798 22.4042 14.448 21.1262C14.4231 19.2701 15.0631 17.4663 16.2523 16.0411C17.4416 14.6158 19.1015 13.6631 20.9321 13.3551C21.1426 13.3228 21.3552 13.3066 21.5682 13.3067H21.7101H22.2034C24.2369 13.3024 26.1904 14.0983 27.6421 15.5223C29.1222 16.9763 29.9654 18.9579 29.9866 21.0327C29.9251 21.9235 29.7554 22.8036 29.4812 23.6534L29.3894 24.022C29.2739 24.3284 29.2516 24.6622 29.3252 24.9812C29.3988 25.3003 29.5651 25.5905 29.8031 25.8153C31.4475 27.4156 33.1326 29.0954 35.0912 31.1025C35.4152 31.4203 35.6231 31.8377 35.6815 32.2879C35.7399 32.738 35.6454 33.1947 35.4131 33.5846C35.241 33.88 34.9946 34.1252 34.6984 34.2958C34.4022 34.4665 34.0664 34.5567 33.7246 34.5574ZM22.2095 17.3475C21.7399 17.3488 21.2751 17.443 20.8421 17.6249C20.4091 17.8067 20.0164 18.0725 19.6867 18.4069C18.9975 19.1247 18.6044 20.0759 18.5858 21.0708C18.5713 21.5607 18.6553 22.0486 18.8328 22.5055C19.0103 22.9624 19.2778 23.379 19.6192 23.7306C19.9607 24.0822 20.3693 24.3618 20.8208 24.5526C21.2722 24.7435 21.7574 24.8417 22.2476 24.8416H22.3073C22.7932 24.8389 23.2738 24.7405 23.7217 24.552C24.1695 24.3635 24.5759 24.0885 24.9175 23.7429C25.259 23.3973 25.5292 22.9878 25.7124 22.5378C25.8957 22.0878 25.9885 21.606 25.9856 21.1201C25.9914 20.1343 25.6087 19.1858 24.9202 18.4802C24.2317 17.7746 23.293 17.3686 22.3073 17.3501L22.2095 17.3475Z" fill="#2F80ED"/>
<path d="M11.8589 53.7883C9.97352 53.7887 8.1531 53.0993 6.74101 51.85C5.32892 50.6007 4.42277 48.8778 4.19346 47.0064C3.95894 45.5278 4.17576 44.0129 4.81558 42.6594C5.45541 41.306 6.48851 40.1769 7.77997 39.4197C9.02351 38.6492 10.4549 38.2355 11.9178 38.2236H11.9714C12.7013 38.2234 13.427 38.3322 14.1247 38.5465C15.1726 38.8656 16.1408 39.4036 16.9651 40.125C17.7895 40.8464 18.4512 41.7347 18.9065 42.731C19.0318 43.1091 19.2732 43.438 19.5962 43.6711C19.9192 43.9041 20.3075 44.0294 20.7058 44.0292C20.7646 44.0292 20.8252 44.0292 20.8849 44.0206C22.7266 43.9747 24.6186 43.9747 26.4482 43.9747H28.0562C28.1107 43.9704 28.1661 43.9678 28.2206 43.9678C28.752 43.9651 29.2627 44.1737 29.6403 44.5476C30.0179 44.9214 30.2315 45.43 30.2342 45.9614C30.2368 46.4927 30.0282 47.0034 29.6544 47.381C29.2805 47.7586 28.7719 47.9722 28.2406 47.9749C27.6347 48.0156 27.0168 48.0363 26.404 48.0363C26.0985 48.0363 25.7878 48.0311 25.4814 48.0208H23.5964V48.0666H20.5612C20.5232 48.0666 20.4842 48.0666 20.4461 48.0666C20.1421 48.0671 19.8445 48.1542 19.5882 48.3178C19.3319 48.4813 19.1275 48.7145 18.9991 48.9901C18.4205 50.4096 17.4324 51.6246 16.1606 52.4802C14.8887 53.3359 13.3909 53.7933 11.8581 53.7943L11.8589 53.7883ZM12.09 42.2247C11.0767 42.222 10.1033 42.6191 9.38109 43.3299C9.02215 43.6586 8.73206 44.0553 8.52763 44.497C8.3232 44.9387 8.20851 45.4166 8.1902 45.903C8.18279 46.8908 8.55644 47.8435 9.23345 48.5629C9.91045 49.2823 10.8387 49.713 11.8252 49.7655H11.9688C12.4456 49.7667 12.9179 49.6738 13.3586 49.4922C13.7994 49.3106 14.2 49.0438 14.5376 48.7071C14.9077 48.3627 15.198 47.9415 15.3883 47.4732C15.5786 47.0048 15.6643 46.5005 15.6393 45.9956C15.6283 45.0379 15.2585 44.1192 14.6029 43.421C13.9474 42.7228 13.0537 42.2959 12.0987 42.2247H12.09Z" fill="#2F80ED"/>
<path d="M72.1362 78.6773C70.7325 78.6772 69.3548 78.2977 68.149 77.579C66.5709 76.6432 65.3792 75.1742 64.789 73.4371C64.1988 71.6999 64.2489 69.809 64.9303 68.1056C65.0856 67.7835 65.1292 67.4189 65.0543 67.0692C64.9794 66.7196 64.7902 66.4049 64.5166 66.1747C63.3993 65.0885 62.2716 63.9496 61.1802 62.8496C60.661 62.3234 60.12 61.7798 59.5964 61.2554L59.3203 60.9325C59.0286 60.6654 58.8233 60.3172 58.7308 59.9325C58.6383 59.5479 58.6628 59.1444 58.8012 58.7738C58.9396 58.4032 59.1855 58.0824 59.5075 57.8525C59.8294 57.6227 60.2127 57.4942 60.6082 57.4836C60.6624 57.4866 60.7163 57.4944 60.7691 57.507C60.8206 57.5191 60.873 57.5266 60.9258 57.5295C61.4178 57.618 61.8691 57.8604 62.2145 58.2219C63.8952 59.8568 65.6132 61.5747 67.3207 63.3282C67.5458 63.6088 67.8608 63.8032 68.2126 63.8785C68.5643 63.9539 68.9313 63.9056 69.2516 63.7419C70.4617 63.2517 71.777 63.0788 73.0726 63.2397C74.3683 63.4006 75.6014 63.8898 76.6548 64.661C77.6778 65.3581 78.5114 66.2985 79.0806 67.3978C79.6499 68.497 79.9369 69.7205 79.9159 70.9582C79.8988 73.011 79.0714 74.974 77.6138 76.4198C76.1563 77.8655 74.1866 78.6769 72.1336 78.6773H72.1362ZM71.9709 67.1908C71.0182 67.2481 70.1203 67.6553 69.4494 68.3341C68.7785 69.013 68.382 69.9157 68.3359 70.869C68.3145 71.3521 68.3933 71.8345 68.5675 72.2856C68.7416 72.7368 69.0072 73.147 69.3477 73.4905C69.7055 73.8673 70.1361 74.1674 70.6133 74.3729C71.0906 74.5783 71.6045 74.6848 72.1241 74.6857H72.2158C72.6833 74.6843 73.1458 74.5902 73.5766 74.4088C74.0075 74.2274 74.398 73.9624 74.7257 73.629C75.0916 73.3028 75.3774 72.8967 75.5611 72.4423C75.7448 71.9878 75.8214 71.4972 75.785 71.0084C75.7952 70.511 75.706 70.0166 75.5227 69.5541C75.3394 69.0916 75.0657 68.6703 74.7177 68.3149C74.3696 67.9595 73.9541 67.6771 73.4955 67.4842C73.037 67.2913 72.5446 67.1919 72.0471 67.1916H71.9692L71.9709 67.1908Z" fill="#2F80ED"/>
<path d="M47.2423 89C46.037 88.9997 44.8481 88.7205 43.7685 88.1844C42.689 87.6482 41.7482 86.8696 41.0196 85.9094C40.3884 85.0801 39.9359 84.129 39.6905 83.116C39.4452 82.1031 39.4124 81.0504 39.5942 80.0242C39.7724 78.7792 40.2677 77.6009 41.0325 76.6024C41.7972 75.604 42.8058 74.8189 43.9613 74.3224C44.3708 74.1771 44.7199 73.8991 44.9534 73.5327C45.1869 73.1663 45.2913 72.7324 45.25 72.2998C45.2042 70.4105 45.2042 68.5186 45.2042 66.689V65.1268C45.1871 64.8539 45.2251 64.5804 45.316 64.3225C45.4069 64.0647 45.5487 63.8277 45.7331 63.6258C45.9175 63.4239 46.1406 63.2612 46.3892 63.1473C46.6378 63.0335 46.9067 62.9708 47.18 62.9631C47.4533 62.9642 47.7236 63.0203 47.9748 63.1281C48.2259 63.236 48.4528 63.3933 48.6418 63.5907C48.8308 63.7881 48.9781 64.0216 49.0749 64.2772C49.1717 64.5328 49.216 64.8052 49.2052 65.0783V69.8142C49.2052 70.1041 49.2104 70.3993 49.2156 70.6849C49.2251 71.2595 49.2355 71.8524 49.2052 72.434C49.1608 72.8133 49.2455 73.1965 49.4455 73.5218C49.6456 73.8472 49.9493 74.0957 50.3078 74.2272C52.2269 75.0871 53.7412 76.6529 54.5365 78.5996C54.8997 79.5702 55.0624 80.6044 55.015 81.6397C54.9675 82.675 54.7109 83.6899 54.2604 84.6233C53.6738 85.821 52.7904 86.8487 51.6944 87.6085C50.5984 88.3684 49.3262 88.8352 47.9988 88.9645C47.7486 88.9878 47.4942 89 47.2423 89ZM47.1142 77.5844C46.1266 77.5816 45.1782 77.9714 44.4779 78.6678C43.7775 79.3643 43.3825 80.3104 43.3797 81.2981C43.377 82.2858 43.7667 83.2342 44.4632 83.9345C45.1596 84.6349 46.1058 85.0299 47.0935 85.0326H47.18C48.1645 85.0235 49.1058 84.6275 49.8007 83.93C50.1621 83.5975 50.4475 83.191 50.6375 82.7381C50.8275 82.2853 50.9176 81.7968 50.9015 81.3059C50.884 80.3244 50.4863 79.388 49.7921 78.6938C49.098 77.9997 48.1615 77.6019 47.18 77.5844H47.1142Z" fill="#2F80ED"/>
<path d="M47.2437 29.0866C46.8151 29.0866 46.3972 28.9524 46.0487 28.7028C45.7002 28.4532 45.4387 28.1007 45.3007 27.6949C45.2224 27.4262 45.1913 27.1459 45.209 26.8666V26.6831C45.209 25.9042 45.2038 25.1011 45.1986 24.3221C45.1882 22.721 45.1778 21.0654 45.209 19.4643C45.2312 19.1296 45.1448 18.7968 44.9627 18.5152C44.7806 18.2336 44.5124 18.0182 44.1981 17.9012V17.9012C43.2133 17.4765 42.3237 16.8586 41.5817 16.0841C40.8398 15.3096 40.2607 14.3943 39.8786 13.3921C39.5185 12.3648 39.3774 11.2734 39.4644 10.1883C39.5515 9.10318 39.8647 8.04828 40.384 7.09149C40.8869 6.17038 41.5758 5.36388 42.4071 4.72322C43.2383 4.08256 44.1936 3.62172 45.2125 3.36997C45.903 3.19003 46.6132 3.097 47.3268 3.09302H47.441C48.8208 3.0916 50.1711 3.49121 51.3279 4.24323C53.643 5.77165 54.7768 7.89811 55.0061 11.1402C55.1931 13.2813 53.4258 16.5269 50.5922 17.761C50.1409 17.8961 49.7532 18.189 49.4999 18.5862C49.2467 18.9834 49.1447 19.4585 49.2127 19.9247C49.243 21.5232 49.2326 23.1399 49.2231 24.7038C49.2179 25.475 49.2127 26.2729 49.2127 27.0518V27.1436C49.2148 27.6256 49.0367 28.0909 48.7132 28.4482C48.3897 28.8055 47.9442 29.0289 47.4644 29.0744C47.3911 29.0824 47.3175 29.0864 47.2437 29.0866V29.0866ZM44.5651 8.10756C44.2186 8.43905 43.9454 8.8394 43.7629 9.28284C43.5805 9.72628 43.4929 10.203 43.5058 10.6823C43.4875 11.6762 43.8647 12.6367 44.5545 13.3524C45.2443 14.0682 46.1901 14.4806 47.184 14.4991H47.2299C48.2098 14.478 49.1425 14.0739 49.8281 13.3734C50.5137 12.6729 50.8977 11.7317 50.8977 10.7516C50.8977 9.77139 50.5137 8.83021 49.8281 8.12972C49.1425 7.42922 48.2098 7.02514 47.2299 7.00408C46.2345 7.02292 45.2831 7.41705 44.566 8.10756H44.5651Z" fill="#2F80ED"/>
<path d="M22.2928 78.7267C20.5496 78.7293 18.8564 78.1445 17.4864 77.0665C16.1164 75.9885 15.1497 74.4804 14.7422 72.7855C14.3347 71.0906 14.5102 69.3078 15.2404 67.7249C15.9707 66.142 17.213 64.8514 18.7669 64.0613C19.8447 63.4944 21.043 63.1949 22.2608 63.188H22.272C23.2647 63.1867 24.2469 63.39 25.1575 63.7852C25.4725 63.9381 25.8298 63.9804 26.1718 63.9054C26.5138 63.8303 26.8205 63.6423 27.0425 63.3715C28.7146 61.6553 30.3607 60.01 32.1029 58.2652L32.1895 58.1787C32.4874 57.8286 32.8913 57.5852 33.3401 57.4855C33.7889 57.3859 34.2579 57.4354 34.676 57.6265C34.9591 57.7726 35.2055 57.9809 35.3967 58.2356C35.5879 58.4904 35.7191 58.7852 35.7803 59.0978C35.8199 59.4512 35.7781 59.8089 35.6581 60.1435C35.538 60.4782 35.343 60.781 35.0879 61.0287C34.9079 61.1845 34.7377 61.3513 34.5782 61.5281C34.4916 61.6189 34.4051 61.7141 34.309 61.8076C33.3215 62.8375 32.0925 64.1193 30.8601 65.2098C30.2626 65.6419 29.8284 66.2632 29.628 66.9728C29.4276 67.6825 29.4726 68.4391 29.7558 69.12C30.0677 70.2227 30.1178 71.383 29.9022 72.5086C29.6866 73.6341 29.2112 74.6938 28.5138 75.6032C27.8026 76.5694 26.8747 77.3553 25.8047 77.8978C24.7346 78.4402 23.5522 78.7241 22.3525 78.7267H22.2928ZM22.1145 67.2826H22.0756C21.5917 67.2917 21.1145 67.3977 20.6723 67.5943C20.23 67.791 19.8317 68.0743 19.5008 68.4276C18.9879 68.9549 18.6419 69.6218 18.506 70.3447C18.37 71.0677 18.4502 71.8147 18.7365 72.4923C19.0228 73.1699 19.5025 73.7481 20.1157 74.1545C20.7288 74.561 21.4481 74.7777 22.1838 74.7775C22.24 74.7775 22.2971 74.7775 22.3569 74.7775C23.2771 74.7608 24.1533 74.3806 24.794 73.7199C25.1578 73.3606 25.4434 72.9302 25.6332 72.4554C25.8229 71.9806 25.9126 71.4718 25.8966 70.9608C25.8758 69.9746 25.4679 69.0361 24.7611 68.3479C24.0543 67.6598 23.1053 67.2771 22.1189 67.2826H22.1145Z" fill="#2F80ED"/>
<path d="M82.5556 53.7049C82.1854 53.7046 81.8158 53.6774 81.4496 53.6235C80.1179 53.4736 78.8513 52.9674 77.7831 52.1582C76.7149 51.349 75.8848 50.2667 75.38 49.0253C75.2739 48.7156 75.0736 48.447 74.8071 48.257C74.5406 48.067 74.2213 47.9652 73.894 47.9659H73.8135H66.1913C65.6821 47.967 65.192 47.7722 64.8225 47.4217C64.453 47.0713 64.2326 46.5921 64.2068 46.0835C64.1874 45.8295 64.2184 45.5742 64.298 45.3323C64.3776 45.0903 64.5043 44.8665 64.6707 44.6737C64.8372 44.4807 65.0405 44.323 65.2688 44.2097C65.4971 44.0965 65.7457 44.03 66 44.0142C67.1494 43.9683 68.3186 43.9683 69.4489 43.9683H71.3339C71.6083 43.9683 71.893 43.9631 72.1682 43.9588C72.4435 43.9545 72.7386 43.9484 73.0233 43.9484C73.341 43.9484 73.6153 43.9553 73.8628 43.9683C73.9148 43.9745 73.9671 43.9777 74.0195 43.9778C74.3023 43.9784 74.5779 43.8886 74.8061 43.7215C75.0344 43.5545 75.2033 43.3189 75.2883 43.0492C75.8158 41.7274 76.7021 40.5793 77.8474 39.7344C78.9926 38.8895 80.3512 38.3814 81.7698 38.2675C82.7744 38.1649 83.7894 38.2668 84.7536 38.5671C85.7177 38.8674 86.6111 39.3599 87.3798 40.0148C88.2393 40.7155 88.9376 41.5932 89.427 42.5883C89.9165 43.5833 90.1857 44.6721 90.2162 45.7806C90.2466 46.8891 90.0377 47.9911 89.6036 49.0115C89.1696 50.0319 88.5206 50.9467 87.7008 51.6935C86.3005 52.9883 84.4629 53.7066 82.5556 53.7049ZM82.508 42.2209C81.5141 42.2392 80.566 42.6423 79.8633 43.3454C79.1606 44.0486 78.7582 44.997 78.7406 45.9909C78.7808 46.986 79.1972 47.9288 79.9056 48.6287C80.6141 49.3287 81.5618 49.7336 82.5574 49.7618H82.6032C83.5378 49.7503 84.43 49.3705 85.0863 48.705C85.8106 47.9822 86.2363 47.0133 86.2789 45.9909C86.2512 45.0081 85.8517 44.0724 85.161 43.3726C84.4702 42.6729 83.5397 42.2613 82.5574 42.2209H82.508Z" fill="#2F80ED"/>
<path d="M48.3758 44.0168H46.0304C45.77 44.0207 45.513 44.0764 45.2744 44.1806C45.0358 44.2848 44.8203 44.4355 44.6405 44.6238C44.4607 44.8122 44.3202 45.0344 44.2272 45.2776C44.1341 45.5208 44.0904 45.7801 44.0986 46.0403C44.0996 46.5566 44.302 47.0522 44.6628 47.4215C45.0235 47.7909 45.5142 48.0048 46.0304 48.0179H48.3758C48.8966 48.0062 49.3929 47.7941 49.7612 47.4258C50.1296 47.0574 50.3417 46.5611 50.3534 46.0403C50.3435 45.5146 50.1333 45.0125 49.7658 44.6364C49.3983 44.2604 48.9011 44.0388 48.3758 44.0168V44.0168Z" fill="#FF6B00"/>
</svg>
