<svg width="213" height="212" viewBox="0 0 213 212" fill="none" xmlns="http://www.w3.org/2000/svg">
<path d="M137.477 12C154.163 12.0185 170.16 18.6559 181.958 30.4557C193.756 42.2556 200.391 58.2539 200.407 74.94C200.388 91.6244 193.752 107.62 181.955 119.418C170.157 131.215 154.161 137.851 137.477 137.87C120.792 137.851 104.797 131.215 92.9991 119.418C81.2014 107.62 74.5654 91.6244 74.5469 74.94C74.5628 58.2539 81.1976 42.2556 92.9955 30.4557C104.793 18.6559 120.791 12.0185 137.477 12V12ZM137.477 0C127.636 -8.76372e-08 117.892 1.93844 108.8 5.70465C99.7085 9.47086 91.4478 14.9911 84.4898 21.95C77.5318 28.909 72.0127 37.1704 68.2477 46.2625C64.4827 55.3545 62.5456 65.0992 62.5469 74.94C62.5469 84.78 64.485 94.5235 68.2505 103.614C72.0161 112.705 77.5355 120.966 84.4933 127.923C91.4512 134.881 99.7114 140.401 108.802 144.166C117.893 147.932 127.637 149.87 137.477 149.87C147.317 149.87 157.06 147.932 166.151 144.166C175.242 140.401 183.502 134.881 190.46 127.923C197.418 120.966 202.938 112.705 206.703 103.614C210.469 94.5235 212.407 84.78 212.407 74.94C212.407 55.0664 204.513 36.0066 190.461 21.9529C176.409 7.89925 157.35 0.00265193 137.477 0Z" fill="#82EFFD"/>
<path d="M63.3164 147.95C61.0764 152.08 58.6565 156.36 56.0865 160.62C33.9765 197.37 21.8464 199.23 19.6364 199.23C19.0064 199.23 17.3064 199.23 14.6364 196.59C11.7564 193.72 11.8364 191.87 12.1264 190.36C12.7764 187.04 17.6465 174.57 52.9765 153.76C56.4465 151.76 59.9165 149.76 63.2765 147.95H63.3164ZM89.2765 121.95C89.2765 121.95 -27.7235 171.21 6.15647 205.07C10.4365 209.35 14.9665 211.22 19.6065 211.22C51.6865 211.22 89.2765 121.95 89.2765 121.95Z" fill="#82EFFD"/>
<path d="M80.6113 120.596L72.126 129.081L92.5543 149.51L101.04 141.024L80.6113 120.596Z" fill="#82EFFD"/>
<path d="M70.5468 110.519L62.0615 119.004L82.4898 139.433L90.9751 130.947L70.5468 110.519Z" fill="#82EFFD"/>
<path d="M137.476 90.6599C146.158 90.6599 153.196 83.6219 153.196 74.94C153.196 66.2581 146.158 59.22 137.476 59.22C128.794 59.22 121.756 66.2581 121.756 74.94C121.756 83.6219 128.794 90.6599 137.476 90.6599Z" fill="#FFAA00"/>
<path d="M137.476 71.22C138.463 71.22 139.409 71.6119 140.107 72.3095C140.804 73.0071 141.196 73.9534 141.196 74.94C141.194 75.9258 140.801 76.8704 140.104 77.5675C139.407 78.2646 138.462 78.6573 137.476 78.66C136.491 78.6573 135.546 78.2646 134.849 77.5675C134.152 76.8704 133.759 75.9258 133.756 74.94C133.756 73.9534 134.148 73.0071 134.846 72.3095C135.544 71.6119 136.49 71.22 137.476 71.22ZM137.476 59.22C133.307 59.22 129.309 60.8762 126.361 63.8243C123.413 66.7724 121.756 70.7708 121.756 74.94C121.756 79.1092 123.413 83.1076 126.361 86.0557C129.309 89.0037 133.307 90.66 137.476 90.66C141.646 90.66 145.644 89.0037 148.592 86.0557C151.54 83.1076 153.196 79.1092 153.196 74.94C153.196 70.7708 151.54 66.7724 148.592 63.8243C145.644 60.8762 141.646 59.22 137.476 59.22V59.22Z" fill="#FFAA00"/>
<path d="M137.477 105.83C108.477 105.83 85.7265 79.97 84.7665 78.83C83.8209 77.739 83.3003 76.3437 83.3003 74.9C83.3003 73.4562 83.8209 72.0609 84.7665 70.97C85.7665 69.87 108.467 43.97 137.477 43.97C166.487 43.97 189.227 69.84 190.177 70.97C191.122 72.0609 191.643 73.4562 191.643 74.9C191.643 76.3437 191.122 77.739 190.177 78.83C189.227 79.97 166.487 105.83 137.477 105.83ZM97.7266 74.94C104.667 81.46 120.107 93.83 137.477 93.83C154.847 93.83 170.277 81.47 177.227 74.94C170.227 68.41 154.837 56.04 137.477 56.04C120.117 56.04 104.647 68.41 97.7266 74.94Z" fill="#FFAA00"/>
</svg>
