<svg width="70" height="92" viewBox="0 0 70 92" fill="none" xmlns="http://www.w3.org/2000/svg">
<path d="M21.4955 91.5669C21.1378 91.5677 20.7862 91.4743 20.4759 91.2962C20.1657 91.1181 19.9078 90.8615 19.728 90.5522C19.5689 90.2694 19.4808 89.9522 19.4712 89.6279C19.4616 89.3035 19.5308 88.9816 19.6729 88.6899C19.815 88.3982 20.0257 88.1452 20.287 87.9528C20.5483 87.7604 20.8524 87.6342 21.1731 87.5851C21.4164 87.558 21.661 87.5443 21.9058 87.5439C21.9598 87.5439 22.0138 87.5439 22.0679 87.5439H33.3228V79.6966H5.32464C5.22024 79.7048 5.11401 79.7094 5.00778 79.7094C4.0723 79.7086 3.16491 79.3896 2.43478 78.8048C1.70465 78.2199 1.19522 77.4041 0.990251 76.4913C0.891311 76.1092 0.851774 75.7142 0.873031 75.3201V36.7007C0.834471 36.1453 0.910556 35.588 1.09655 35.0634C1.28255 34.5387 1.57449 34.0579 1.95421 33.6509C2.33394 33.2438 2.79333 32.9192 3.30384 32.6973C3.81434 32.4754 4.36504 32.3608 4.9217 32.3608C4.99038 32.3608 5.0609 32.3608 5.12958 32.3654C6.51149 32.3534 7.98957 32.348 9.64896 32.348C11.2131 32.348 12.7434 32.3525 14.0932 32.3571H14.1619H14.7572C15.9587 32.3571 17.3214 32.3635 18.6419 32.3635C18.7088 32.3571 18.7784 32.3534 18.8471 32.3534C19.3899 32.3534 19.9108 32.5678 20.2963 32.9499C20.6819 33.3321 20.9009 33.851 20.9057 34.3938C20.8881 34.9503 20.6546 35.4781 20.2546 35.8655C19.8546 36.2528 19.3196 36.4692 18.7628 36.469C18.7005 36.469 18.6483 36.469 18.6016 36.4635H5.01236V75.5939H6.65252V37.8719H24.2355V23.2671C24.2995 22.7483 24.2074 22.2223 23.9708 21.7563C23.7343 21.2902 23.3641 20.9053 22.9076 20.6507C22.4745 20.4212 21.9921 20.3005 21.5019 20.299C20.8609 20.2798 20.2024 20.2798 19.5687 20.2798C18.935 20.2798 18.2802 20.2798 17.6355 20.2606H17.5677C17.3997 20.2602 17.2359 20.3132 17.0999 20.412C16.964 20.5107 16.8629 20.6501 16.8113 20.81C16.2237 22.0626 15.2327 23.0818 13.9971 23.7043C12.7615 24.3268 11.3527 24.5166 9.99638 24.2434C8.64006 23.9702 7.41465 23.2498 6.5164 22.1974C5.61816 21.1451 5.09904 19.8218 5.04218 18.4394C4.98532 17.057 5.39401 15.6955 6.2028 14.5729C7.01159 13.4504 8.17369 12.6317 9.503 12.2481C10.8323 11.8644 12.2519 11.9379 13.5345 12.4569C14.817 12.9758 15.8883 13.9101 16.5768 15.1102C16.6811 15.3788 16.8637 15.6098 17.1011 15.7731C17.3384 15.9364 17.6194 16.0245 17.9075 16.026C17.9721 16.0264 18.0367 16.0221 18.1007 16.0132C18.6795 15.9775 19.2637 15.9601 19.8407 15.9601C20.751 15.9601 21.6649 16.004 22.556 16.091C24.2162 16.2677 25.7466 17.0707 26.8354 18.3365C27.9036 19.6679 28.4641 21.3355 28.417 23.0418V37.8362H33.4538V13.5863C33.4894 13.3401 33.439 13.0891 33.3111 12.8757C33.1831 12.6623 32.9854 12.4996 32.7514 12.4151C31.4128 11.7954 30.3495 10.7041 29.7648 9.34987C29.1801 7.99563 29.1149 6.4734 29.5819 5.07417C30.0428 3.65865 31.0002 2.45764 32.2773 1.69281C33.5545 0.927976 35.0652 0.650948 36.5307 0.912858C37.9961 1.17477 39.3173 1.95793 40.2505 3.11781C41.1837 4.27768 41.6658 5.73597 41.6079 7.2235C41.586 8.39802 41.2022 9.53716 40.509 10.4855C39.7219 11.5018 38.6896 12.3016 37.5089 12.8098V37.839H42.39C42.39 36.6888 42.3945 35.5193 42.3991 34.3883V34.3819V33.9936V33.6273V33.5669C42.4147 30.151 42.4312 26.6197 42.3469 23.1544C42.3185 22.2183 42.4816 21.2862 42.8263 20.4153C43.171 19.5444 43.6901 18.7532 44.3516 18.0902C44.9863 17.4517 45.7414 16.9455 46.5731 16.6009C47.4048 16.2563 48.2967 16.0802 49.197 16.0828C49.2885 16.0828 49.3563 16.0828 49.4149 16.0828C50.077 16.1029 50.7025 16.1121 51.328 16.1121C51.9535 16.1121 52.5799 16.102 53.242 16.0828C53.3769 16.0627 53.5059 16.014 53.6204 15.9399C53.7349 15.8658 53.8323 15.7681 53.9059 15.6533C54.3401 14.6927 55.0119 13.8587 55.8579 13.2299C56.7039 12.6011 57.6963 12.1984 58.7412 12.0597C59.7862 11.921 60.8492 12.0509 61.83 12.4373C62.8108 12.8236 63.6769 13.4535 64.3465 14.2675C65.0162 15.0816 65.4673 16.0529 65.6573 17.0897C65.8473 18.1266 65.7698 19.1947 65.4323 20.1933C65.0947 21.1919 64.5082 22.088 63.7282 22.797C62.9481 23.5059 62.0001 24.0043 60.9739 24.2451C59.6102 24.5813 58.172 24.4342 56.9046 23.8289C55.6371 23.2235 54.6188 22.1974 54.0231 20.9254C53.969 20.7525 53.8609 20.6014 53.7148 20.4943C53.5686 20.3872 53.392 20.3297 53.2108 20.3302C53.1689 20.3304 53.1269 20.3335 53.0854 20.3393C52.5176 20.3686 51.9452 20.3833 51.3866 20.3833C50.828 20.3833 50.2556 20.3686 49.6878 20.3393C49.5908 20.3393 49.5138 20.3329 49.4451 20.3329C47.5898 20.3329 46.5247 21.5033 46.5247 23.5446C46.5641 28.3121 46.5641 33.1538 46.5641 37.8362H65.7406V36.3957H64.9164C63.4777 36.3957 62.0729 36.4003 60.8329 36.4049H60.777H60.2276C59.1176 36.4049 57.8603 36.4113 56.6359 36.4113C55.112 36.4113 53.7585 36.4058 52.4965 36.3939H52.4691C51.9373 36.3935 51.4125 36.2737 50.9333 36.0431C50.5747 35.8556 50.2883 35.5546 50.1188 35.1872C49.9493 34.8197 49.9063 34.4064 49.9964 34.0119C50.0741 33.5927 50.2819 33.2085 50.5903 32.9141C50.8987 32.6197 51.292 32.4299 51.7144 32.3718C51.9562 32.3445 52.1992 32.3308 52.4425 32.3306H52.5735H65.3449C65.968 32.2909 66.5928 32.3757 67.1827 32.5801C67.7727 32.7845 68.316 33.1044 68.7809 33.5211C69.2032 33.9794 69.5282 34.5185 69.7363 35.1059C69.9444 35.6933 70.0312 36.3168 69.9916 36.9388C69.9916 49.4364 69.9916 62.359 69.9788 75.0059C70.0264 76.1412 69.6817 77.2581 69.0026 78.1691V79.2625H67.519C66.9068 79.5229 66.2483 79.6568 65.583 79.6563C65.5281 79.6563 65.4731 79.6563 65.4182 79.6563H37.4942V87.4661C37.6297 87.4661 37.7689 87.4761 37.8907 87.4844H37.9063C38.04 87.4944 38.181 87.5045 38.3184 87.5045H48.9003C48.9881 87.4938 49.0765 87.4886 49.1649 87.489C49.4649 87.4897 49.7618 87.5502 50.0382 87.6669C50.3146 87.7836 50.565 87.9541 50.7749 88.1685C51.0388 88.4267 51.2204 88.7573 51.297 89.1185C51.3736 89.4798 51.3417 89.8556 51.2053 90.1988C51.0703 90.5688 50.8338 90.8933 50.5228 91.135C50.2117 91.3766 49.8389 91.5257 49.447 91.5651H21.6072C21.5706 91.5669 21.5321 91.5669 21.4955 91.5669ZM11.1582 16.1982C10.6862 16.202 10.2306 16.3714 9.87076 16.6768C9.51093 16.9822 9.26976 17.4043 9.18931 17.8694C9.10885 18.3344 9.19422 18.813 9.43053 19.2215C9.66684 19.6301 10.0391 19.9427 10.4823 20.1049C10.1366 19.7117 9.95606 19.2002 9.97824 18.6771C10.0004 18.154 10.2236 17.6596 10.6014 17.2971C10.9719 16.9447 11.4637 16.748 11.975 16.7476H12.0776H12.0968C12.3046 16.7474 12.5104 16.7872 12.7031 16.8648C12.5224 16.6585 12.3002 16.4928 12.051 16.3783C11.8018 16.2639 11.5313 16.2034 11.2571 16.2009L11.1582 16.1982ZM59.603 16.0846C59.1826 16.0864 58.7727 16.2161 58.4277 16.4563C58.0827 16.6965 57.8189 17.036 57.6714 17.4296C57.5239 17.8233 57.4995 18.2525 57.6016 18.6603C57.7037 19.0681 57.9274 19.4352 58.2431 19.7129C58.1629 19.4872 58.1232 19.2491 58.1258 19.0096C58.1304 18.4814 58.3433 17.9764 58.7181 17.6043C59.093 17.2322 59.5995 17.0231 60.1277 17.0224H60.2303C60.7084 17.023 61.1686 17.2042 61.5188 17.5297C61.3914 17.1193 61.1381 16.7594 60.7947 16.501C60.4514 16.2426 60.0354 16.0988 59.6057 16.0901L59.603 16.0846ZM35.3659 4.92215C35.101 4.92225 34.8388 4.97492 34.5944 5.07713C34.35 5.17933 34.1283 5.32902 33.9421 5.51753C33.756 5.70604 33.6092 5.92961 33.5101 6.17529C33.411 6.42098 33.3617 6.68388 33.3649 6.94877C33.3783 7.3519 33.4973 7.74445 33.7101 8.08711C33.9229 8.42977 34.222 8.71051 34.5774 8.90121C34.3264 8.5324 34.1906 8.09731 34.1873 7.65117C34.19 7.12141 34.4022 6.61425 34.7777 6.24051C35.1531 5.86676 35.6613 5.65684 36.191 5.6566H36.2936C36.5478 5.66757 36.7985 5.72048 37.0354 5.8132C36.8526 5.53812 36.6044 5.31271 36.313 5.15719C36.0216 5.00167 35.6962 4.92091 35.3659 4.92215V4.92215Z" fill="#F4F4F4"/>
<path d="M11.1457 19.9558C11.6737 19.9518 12.1807 19.7481 12.5647 19.3855C12.9486 19.023 13.1811 18.5285 13.2153 18.0015C13.2307 17.5987 13.1258 17.2004 12.914 16.8574C12.7023 16.5144 12.3932 16.2422 12.0261 16.0755C11.6591 15.9088 11.2508 15.8552 10.8531 15.9214C10.4555 15.9876 10.0866 16.1706 9.79334 16.4472C9.50011 16.7239 9.29587 17.0815 9.20663 17.4746C9.11739 17.8677 9.14719 18.2785 9.29223 18.6546C9.43728 19.0307 9.691 19.3551 10.0211 19.5865C10.3512 19.8179 10.7427 19.9458 11.1457 19.954V19.9558Z" fill="#E1F0F7"/>
<path d="M35.3605 8.82713C35.8886 8.82315 36.3956 8.6194 36.7795 8.25685C37.1635 7.8943 37.396 7.39982 37.4302 6.87285C37.4456 6.47004 37.3407 6.07176 37.1289 5.72876C36.9171 5.38577 36.608 5.11358 36.241 4.94688C35.874 4.78018 35.4656 4.7265 35.068 4.7927C34.6703 4.8589 34.3014 5.04196 34.0082 5.31858C33.715 5.5952 33.5107 5.95284 33.4215 6.34595C33.3322 6.73906 33.362 7.14984 33.5071 7.52595C33.6521 7.90206 33.9058 8.22648 34.2359 8.45788C34.566 8.68928 34.9575 8.81719 35.3605 8.8253V8.82713Z" fill="#E1F0F7"/>
<path d="M59.1531 19.7359C59.8864 19.7303 60.5904 19.4475 61.1235 18.9443C61.6567 18.441 61.9795 17.7546 62.027 17.0231C62.0484 16.464 61.9027 15.9111 61.6087 15.435C61.3146 14.9589 60.8854 14.5811 60.3757 14.3497C59.8661 14.1183 59.2991 14.0438 58.7469 14.1357C58.1947 14.2276 57.6824 14.4817 57.2753 14.8657C56.8681 15.2496 56.5845 15.7461 56.4606 16.2917C56.3367 16.8374 56.378 17.4076 56.5794 17.9297C56.7809 18.4518 57.1332 18.9021 57.5915 19.2233C58.0499 19.5445 58.5935 19.7221 59.1531 19.7333V19.7359Z" fill="#FF6B00"/>
<path d="M68.1803 36.9841H5.81836V78.4544H68.1803V36.9841Z" fill="#F7F8FB"/>
<path d="M32.4629 86.7316V78.8825H4.46468C3.4777 78.9578 2.49658 78.6754 1.70071 78.0869C0.90483 77.4983 0.347381 76.643 0.130287 75.6773C0.0527004 75.2916 0.013436 74.8993 0.0130675 74.506V35.8893C-0.0333602 35.315 0.0442568 34.7374 0.240654 34.1958C0.437052 33.6541 0.747638 33.161 1.15135 32.7499C1.55506 32.3388 2.04245 32.0193 2.58047 31.8132C3.1185 31.607 3.69457 31.5189 4.26962 31.5549C8.75694 31.5155 13.2507 31.5155 17.781 31.5549C18.0658 31.5263 18.3534 31.5573 18.6255 31.6461C18.8977 31.7348 19.1483 31.8793 19.3614 32.0704C19.5745 32.2614 19.7454 32.4948 19.8633 32.7556C19.9811 33.0165 20.0433 33.299 20.0458 33.5852C20.0397 33.8755 19.9741 34.1614 19.8531 34.4253C19.7321 34.6892 19.5583 34.9254 19.3423 35.1194C19.1263 35.3134 18.8728 35.4611 18.5975 35.5532C18.3222 35.6453 18.0309 35.6799 17.7417 35.6549H4.1524V74.7825H64.8742V35.6549H51.6366C51.098 35.6541 50.5663 35.534 50.0797 35.3032C49.724 35.1127 49.44 34.8115 49.2708 34.4451C49.1016 34.0788 49.0563 33.6673 49.142 33.2729C49.2133 32.8517 49.4185 32.4646 49.7271 32.1692C50.0358 31.8737 50.4314 31.6856 50.8554 31.6328C51.1404 31.5992 51.4275 31.586 51.7144 31.5934H64.484C67.4521 31.5934 69.1307 33.272 69.1307 36.2007V74.3521C69.1307 77.2826 67.4521 78.9594 64.5234 78.9594H36.6031V86.7692C36.8778 86.7692 37.1526 86.8086 37.4273 86.8086H48C48.3424 86.7683 48.6896 86.8072 49.0146 86.9223C49.3396 87.0374 49.6338 87.2257 49.8746 87.4725C50.1396 87.7301 50.322 88.0607 50.3985 88.4223C50.4749 88.7838 50.4421 89.16 50.3041 89.5028C50.1702 89.8732 49.934 90.1981 49.623 90.4398C49.3119 90.6815 48.9388 90.83 48.5467 90.8682H20.707C20.3318 90.885 19.9591 90.7993 19.6288 90.6204C19.2986 90.4415 19.0233 90.1761 18.8324 89.8526C18.6731 89.5698 18.5848 89.2525 18.5751 88.928C18.5654 88.6035 18.6345 88.2815 18.7766 87.9897C18.9187 87.6978 19.1295 87.4448 19.391 87.2523C19.6524 87.0598 19.9566 86.9336 20.2775 86.8846C20.5758 86.8531 20.8759 86.8402 21.1758 86.8461H31.4848C31.8014 86.75 32.1326 86.7109 32.4629 86.7307V86.7316Z" fill="#2F80ED"/>
<path d="M34.6077 65.412C34.1752 65.4118 33.7545 65.2706 33.4095 65.0098C33.0644 64.749 32.8138 64.3829 32.6955 63.9669C32.5964 63.558 32.557 63.137 32.5783 62.7169V12.7729C32.6104 12.5268 32.5583 12.2771 32.4304 12.0645C32.3025 11.8518 32.1064 11.6887 31.8741 11.6016C30.5455 10.9705 29.492 9.87761 28.9102 8.52682C28.3283 7.17603 28.2578 5.65966 28.7119 4.26072C29.1722 2.84441 30.1295 1.64253 31.4069 0.877045C32.6843 0.111564 34.1956 -0.165796 35.6616 0.0961934C37.1276 0.358183 38.4493 1.14182 39.3826 2.30237C40.3158 3.46293 40.7975 4.92198 40.7388 6.41005C40.6994 8.85153 39.2955 10.782 36.6782 11.9963V62.9513C36.7439 63.4089 36.6615 63.8756 36.4431 64.2831C36.2246 64.6906 35.8815 65.0175 35.4639 65.216C35.1966 65.3441 34.9041 65.411 34.6077 65.412V65.412ZM34.571 4.06382C34.0386 4.08296 33.5332 4.30315 33.1566 4.68006C32.78 5.05696 32.5603 5.56257 32.5417 6.09503C32.5518 6.65049 32.7769 7.18039 33.1698 7.57322C33.5626 7.96606 34.0925 8.19122 34.648 8.20132H34.713C35.2142 8.20208 35.6966 8.01068 36.061 7.66651C36.4395 7.30768 36.6613 6.81411 36.6782 6.29284C36.664 5.72735 36.4409 5.18718 36.0519 4.77643C35.663 4.36569 35.1358 4.11348 34.5719 4.0684L34.571 4.06382Z" fill="#2F80ED"/>
<path d="M43.4547 55.6574C42.9548 55.6574 42.4751 55.46 42.1201 55.108C41.765 54.7561 41.5634 54.2781 41.559 53.7782V37.5332C41.559 36.0863 41.5664 34.6183 41.5728 33.1988C41.5874 29.6465 41.6076 25.9724 41.516 22.3431C41.4835 21.4262 41.6361 20.512 41.9647 19.6554C42.2933 18.7987 42.7912 18.017 43.4286 17.3569C44.066 16.6969 44.8298 16.1721 45.6745 15.8138C46.5192 15.4555 47.4274 15.271 48.345 15.2715C48.4256 15.2715 48.508 15.2715 48.5886 15.2715C49.2388 15.2907 49.8643 15.3008 50.5016 15.3008C51.139 15.3008 51.7645 15.2916 52.4147 15.2715C52.5515 15.2596 52.6833 15.2148 52.7991 15.141C52.9149 15.0671 53.0111 14.9665 53.0796 14.8475C53.6613 13.5208 54.6945 12.4432 55.9955 11.8061C57.2966 11.169 58.7813 11.0136 60.186 11.3675C61.5461 11.6904 62.757 12.4638 63.622 13.5619C64.487 14.66 64.9553 16.0184 64.9507 17.4163C64.9462 18.8142 64.469 20.1694 63.5969 21.2619C62.7247 22.3543 61.5088 23.1198 60.1467 23.4338C58.7832 23.7603 57.349 23.6089 56.0838 23.0048C54.8186 22.4007 53.7992 21.3806 53.1959 20.115C53.1376 19.9202 53.0103 19.7533 52.8379 19.6454C52.6655 19.5376 52.4597 19.4962 52.259 19.5289C51.6958 19.5582 51.1244 19.5729 50.5603 19.5729C49.9961 19.5729 49.4247 19.5582 48.8615 19.5289C48.7516 19.5207 48.6417 19.517 48.5364 19.517C46.7323 19.517 45.6975 20.6892 45.6975 22.7342C45.7359 32.7611 45.7497 42.929 45.7368 52.955V53.6583C45.7544 53.9109 45.7199 54.1644 45.6354 54.4031C45.551 54.6418 45.4184 54.8607 45.2459 55.046C45.0734 55.2314 44.8647 55.3794 44.6327 55.4808C44.4006 55.5821 44.1502 55.6348 43.897 55.6354C43.8558 55.6354 43.8146 55.6354 43.7743 55.6354C43.6686 55.6517 43.5617 55.6591 43.4547 55.6574V55.6574ZM58.7748 15.3145C58.5052 15.3147 58.2383 15.3687 57.9899 15.4733C57.7414 15.578 57.5163 15.7312 57.3278 15.9239C57.1393 16.1167 56.9912 16.3452 56.8922 16.5959C56.7931 16.8466 56.7451 17.1146 56.7509 17.3842C56.7383 17.6463 56.779 17.9082 56.8706 18.154C56.9622 18.3999 57.1027 18.6246 57.2838 18.8145C57.4648 19.0045 57.6825 19.1557 57.9237 19.2589C58.1649 19.3622 58.4245 19.4154 58.6869 19.4154H58.7785C59.3043 19.4162 59.8099 19.2132 60.1891 18.8489C60.5682 18.4846 60.7914 17.9874 60.8115 17.462C60.8218 17.187 60.7771 16.9127 60.6801 16.6551C60.5831 16.3975 60.4358 16.1619 60.2467 15.9619C60.0575 15.762 59.8304 15.6017 59.5787 15.4906C59.3269 15.3794 59.0555 15.3196 58.7803 15.3145H58.7748Z" fill="#2F80ED"/>
<path d="M25.4987 55.6931C25.4511 55.6931 25.4072 55.6931 25.355 55.6885C24.8549 55.6742 24.378 55.4744 24.0171 55.1279C23.6562 54.7814 23.4371 54.313 23.4025 53.8139V22.3788C23.4661 21.86 23.3737 21.334 23.1373 20.8679C22.9008 20.4017 22.5308 20.0166 22.0746 19.7615C21.6354 19.5486 21.1567 19.4292 20.6689 19.4107C20.0279 19.3906 19.3694 19.3906 18.7357 19.3906C18.102 19.3906 17.4472 19.3906 16.8034 19.3704C16.6233 19.3501 16.4418 19.3941 16.2909 19.4946C16.1401 19.5952 16.0297 19.7458 15.9792 19.9199C15.3913 21.1811 14.3969 22.2082 13.1554 22.8365C11.9139 23.4649 10.4974 23.658 9.13299 23.3849C7.76862 23.1118 6.53552 22.3883 5.63152 21.3306C4.72751 20.2728 4.20501 18.9421 4.14783 17.5518C4.09064 16.1616 4.5021 14.7924 5.31618 13.664C6.13026 12.5355 7.29979 11.7133 8.63712 11.329C9.97446 10.9448 11.4021 11.021 12.691 11.5452C13.9799 12.0695 15.0553 13.0115 15.7448 14.2201C15.8599 14.489 16.0514 14.7181 16.2956 14.8791C16.5398 15.0401 16.8259 15.1259 17.1184 15.1258C17.1679 15.1258 17.2173 15.1258 17.2668 15.1185C17.841 15.0827 18.4243 15.0653 19.0004 15.0653C19.9033 15.0653 20.8182 15.1093 21.7193 15.1963C25.2799 15.6615 27.5803 18.3896 27.5803 22.148C27.5418 27.2617 27.5418 32.4423 27.5418 37.4534V52.9942C27.5484 53.3461 27.5353 53.698 27.5025 54.0483C27.4093 54.5115 27.159 54.9282 26.7938 55.2279C26.4287 55.5277 25.9712 55.692 25.4987 55.6931V55.6931ZM10.3197 15.4069C9.79029 15.4044 9.28106 15.6098 8.90154 15.9788C8.52202 16.3479 8.30253 16.8512 8.2903 17.3804C8.28728 17.6444 8.33633 17.9064 8.43464 18.1514C8.53296 18.3964 8.67861 18.6196 8.86326 18.8082C9.04792 18.9969 9.26796 19.1473 9.51079 19.2508C9.75362 19.3544 10.0145 19.409 10.2785 19.4116C10.8057 19.4058 11.3113 19.2016 11.6948 18.8399C12.0783 18.4781 12.3116 17.9852 12.3481 17.4592C12.3521 16.9242 12.1454 16.4091 11.7727 16.0252C11.4 15.6414 10.8912 15.4196 10.3563 15.4079L10.3197 15.4069Z" fill="#2F80ED"/>
<path d="M27.6727 45.3295C27.6727 44.0651 26.6476 43.04 25.3832 43.04C24.1188 43.04 23.0938 44.0651 23.0938 45.3295V53.5715C23.0938 54.836 24.1188 55.861 25.3832 55.861C26.6476 55.861 27.6727 54.836 27.6727 53.5715V45.3295Z" fill="#CCEFFF"/>
<path d="M36.8309 55.4047C36.8309 54.1403 35.8058 53.1152 34.5414 53.1152C33.277 53.1152 32.252 54.1403 32.252 55.4047V63.6467C32.252 64.9111 33.277 65.9362 34.5414 65.9362C35.8058 65.9362 36.8309 64.9111 36.8309 63.6467V55.4047Z" fill="#FF6B00"/>
<path d="M45.9832 45.3295C45.9832 44.0651 44.9582 43.04 43.6937 43.04C42.4293 43.04 41.4043 44.0651 41.4043 45.3295V53.5715C41.4043 54.836 42.4293 55.861 43.6937 55.861C44.9582 55.861 45.9832 54.836 45.9832 53.5715V45.3295Z" fill="#CCEFFF"/>
</svg>
