<svg xmlns="http://www.w3.org/2000/svg" xmlns:xlink="http://www.w3.org/1999/xlink" viewBox="0 0 147.5 116.5"><defs><style>.a{fill:url(#a);}.b{fill:#00b3ef;}.c,.d,.h{fill:none;}.c,.d{stroke:#00b3ef;stroke-miterlimit:10;}.d{stroke-linecap:square;}.e{opacity:0.5;}.f{fill:#004dc9;}.g{stroke:none;}</style><linearGradient id="a" x1="0.5" x2="0.5" y2="1" gradientUnits="objectBoundingBox"><stop offset="0" stop-color="#fff"/><stop offset="1" stop-color="#ebf5f8"/></linearGradient></defs><g transform="translate(-354 -4894.5)"><g transform="translate(-185 1)"><rect class="a" width="114" height="84" transform="translate(541 4914)"/><g transform="translate(656 4914)"><rect class="b" width="1" height="16" transform="translate(18.803 0.99) rotate(45)"/><rect class="b" width="1" height="10" transform="translate(0.611 5.818) rotate(-45)"/></g><circle class="c" cx="20" cy="20" r="20" transform="translate(646 4901)"/><g transform="translate(541 4894)"><path class="c" d="M114,21.638V84H0V0H97.211" transform="translate(0 20)"/><path class="d" d="M0,1H105" transform="translate(0.5 32.5)"/><circle class="c" cx="5" cy="5" r="5" transform="translate(52)"/><path class="d" d="M36,0,0,16" transform="translate(16.5 4.5)"/><path class="d" d="M-36,0,0,16" transform="translate(97.5 4.5)"/><g class="e"><g class="c" transform="translate(11 40)"><rect class="g" width="14" height="14"/><rect class="h" x="0.5" y="0.5" width="13" height="13"/></g><g class="c" transform="translate(24 40)"><rect class="g" width="14" height="14"/><rect class="h" x="0.5" y="0.5" width="13" height="13"/></g><g class="c" transform="translate(37 40)"><rect class="g" width="14" height="14"/><rect class="h" x="0.5" y="0.5" width="13" height="13"/></g><g class="c" transform="translate(50 40)"><rect class="g" width="14" height="14"/><rect class="h" x="0.5" y="0.5" width="13" height="13"/></g><g class="c" transform="translate(63 40)"><rect class="g" width="14" height="14"/><rect class="h" x="0.5" y="0.5" width="13" height="13"/></g><g class="c" transform="translate(76 40)"><rect class="g" width="14" height="14"/><rect class="h" x="0.5" y="0.5" width="13" height="13"/></g><g class="c" transform="translate(89 40)"><rect class="g" width="14" height="14"/><rect class="h" x="0.5" y="0.5" width="13" height="13"/></g><g class="c" transform="translate(11 53)"><rect class="g" width="14" height="14"/><rect class="h" x="0.5" y="0.5" width="13" height="13"/></g><g class="c" transform="translate(24 53)"><rect class="g" width="14" height="14"/><rect class="h" x="0.5" y="0.5" width="13" height="13"/></g><g class="c" transform="translate(37 53)"><rect class="g" width="14" height="14"/><rect class="h" x="0.5" y="0.5" width="13" height="13"/></g><g class="c" transform="translate(50 53)"><rect class="g" width="14" height="14"/><rect class="h" x="0.5" y="0.5" width="13" height="13"/></g><g class="c" transform="translate(63 53)"><rect class="g" width="14" height="14"/><rect class="h" x="0.5" y="0.5" width="13" height="13"/></g><g class="c" transform="translate(76 53)"><rect class="g" width="14" height="14"/><rect class="h" x="0.5" y="0.5" width="13" height="13"/></g><g class="c" transform="translate(89 53)"><rect class="g" width="14" height="14"/><rect class="h" x="0.5" y="0.5" width="13" height="13"/></g><g class="c" transform="translate(11 66)"><rect class="g" width="14" height="14"/><rect class="h" x="0.5" y="0.5" width="13" height="13"/></g><g class="c" transform="translate(24 66)"><rect class="g" width="14" height="14"/><rect class="h" x="0.5" y="0.5" width="13" height="13"/></g><g class="c" transform="translate(37 66)"><rect class="g" width="14" height="14"/><rect class="h" x="0.5" y="0.5" width="13" height="13"/></g><g class="c" transform="translate(50 66)"><rect class="g" width="14" height="14"/><rect class="h" x="0.5" y="0.5" width="13" height="13"/></g><g class="c" transform="translate(63 66)"><rect class="g" width="14" height="14"/><rect class="h" x="0.5" y="0.5" width="13" height="13"/></g><g class="c" transform="translate(76 66)"><rect class="g" width="14" height="14"/><rect class="h" x="0.5" y="0.5" width="13" height="13"/></g><g class="c" transform="translate(89 66)"><rect class="g" width="14" height="14"/><rect class="h" x="0.5" y="0.5" width="13" height="13"/></g><g class="c" transform="translate(11 79)"><rect class="g" width="14" height="14"/><rect class="h" x="0.5" y="0.5" width="13" height="13"/></g><g class="c" transform="translate(24 79)"><rect class="g" width="14" height="14"/><rect class="h" x="0.5" y="0.5" width="13" height="13"/></g><g class="c" transform="translate(37 79)"><rect class="g" width="14" height="14"/><rect class="h" x="0.5" y="0.5" width="13" height="13"/></g><g class="c" transform="translate(50 79)"><rect class="g" width="14" height="14"/><rect class="h" x="0.5" y="0.5" width="13" height="13"/></g><g class="c" transform="translate(63 79)"><rect class="g" width="14" height="14"/><rect class="h" x="0.5" y="0.5" width="13" height="13"/></g><g class="c" transform="translate(76 79)"><rect class="g" width="14" height="14"/><rect class="h" x="0.5" y="0.5" width="13" height="13"/></g><g class="c" transform="translate(89 79)"><rect class="g" width="14" height="14"/><rect class="h" x="0.5" y="0.5" width="13" height="13"/></g></g></g><circle class="f" cx="2" cy="2" r="2" transform="translate(653 4996)"/><circle class="f" cx="2" cy="2" r="2" transform="translate(653 4935)"/><circle class="f" cx="2" cy="2" r="2" transform="translate(655 4917)"/><circle class="f" cx="2" cy="2" r="2" transform="translate(662 4925)"/><circle class="f" cx="2" cy="2" r="2" transform="translate(674 4912)"/><circle class="f" cx="2" cy="2" r="2" transform="translate(645 4925)"/><circle class="f" cx="2" cy="2" r="2" transform="translate(636 4912)"/><circle class="f" cx="2" cy="2" r="2" transform="translate(601 4897)"/><circle class="f" cx="2" cy="2" r="2" transform="translate(591 4897)"/><circle class="f" cx="2" cy="2" r="2" transform="translate(557 4912)"/><circle class="f" cx="2" cy="2" r="2" transform="translate(539 4996)"/><circle class="f" cx="2" cy="2" r="2" transform="translate(539 4912)"/><g class="e"><path class="c" d="M114,0V61H0" transform="translate(551 4947)"/><circle class="f" cx="2" cy="2" r="2" transform="translate(663 4944)"/><circle class="f" cx="2" cy="2" r="2" transform="translate(549 5006)"/><circle class="f" cx="2" cy="2" r="2" transform="translate(663 5006)"/></g></g></g></svg>