<svg xmlns="http://www.w3.org/2000/svg" >
<symbol id="facebook-icon" viewBox="0 0 13 24">

<path d="M3.48935 23.8079H8.1087C8.50504 23.8079 8.82639 23.4866 8.82639 23.0902V12.692H11.2263C11.5942 12.692 11.9025 12.4138 11.9402 12.0479L12.3448 8.12102C12.3656 7.91898 12.2998 7.71749 12.1637 7.56669C12.0276 7.41579 11.834 7.32976 11.6309 7.32976H8.82639V5.73917C8.82639 5.41064 8.93037 5.38606 9.08907 5.38606H11.5725C11.9688 5.38606 12.2902 5.06472 12.2902 4.66837V0.855622C12.2902 0.460352 11.9706 0.139543 11.5753 0.137929L8.15041 0.124023C5.75044 0.124023 4.46963 1.17993 3.81779 2.06565C2.90757 3.30251 2.77166 4.75171 2.77166 5.50547V7.32967H1.2924C0.896054 7.32967 0.574707 7.65102 0.574707 8.04736V11.9742C0.574707 12.3706 0.896054 12.6919 1.2924 12.6919H2.77166V23.0902C2.77166 23.4866 3.09291 23.8079 3.48935 23.8079ZM2.01 11.2566V8.76514H3.48926C3.88561 8.76514 4.20696 8.4438 4.20696 8.04745V5.50556C4.20696 5.0404 4.28169 3.85702 4.97372 2.91648C5.63633 2.01604 6.70516 1.5595 8.14736 1.5595L10.8546 1.57045V3.95077H9.08889C8.24371 3.95077 7.39083 4.50375 7.39083 5.73926V8.04754C7.39083 8.44389 7.71217 8.76523 8.10852 8.76523H10.8353L10.5786 11.2567H8.10852C7.71217 11.2567 7.39083 11.5781 7.39083 11.9744V22.3725H4.20687V11.9743C4.20687 11.578 3.88552 11.2566 3.48917 11.2566H2.01Z" />

</symbol>
<symbol id="linkedin-icon" viewBox="0 0 16 16.001">
<path  d="M8.394,16H5c0-.081.049-9.59,0-10.6H8.394L8.37,6.811A3.7,3.7,0,0,1,11.734,5a4.088,4.088,0,0,1,3.047,1.18A5.107,5.107,0,0,1,16,9.837V16H12.6V10A1.985,1.985,0,0,0,10.417,7.82a2.054,2.054,0,0,0-1.9,1.307A2.279,2.279,0,0,0,8.394,10v6ZM3,16H0V5H3V16ZM1.491,3H1.474A1.438,1.438,0,0,1,0,1.5,1.439,1.439,0,0,1,1.508,0,1.436,1.436,0,0,1,3,1.5,1.439,1.439,0,0,1,1.491,3Z"/>
</symbol>
<symbol id="instagram-icon" viewBox="0 0 512 512">
<g>
	<g>
		<path d="M373.659,0H138.341C62.06,0,0,62.06,0,138.341v235.318C0,449.94,62.06,512,138.341,512h235.318    C449.94,512,512,449.94,512,373.659V138.341C512,62.06,449.94,0,373.659,0z M470.636,373.659    c0,53.473-43.503,96.977-96.977,96.977H138.341c-53.473,0-96.977-43.503-96.977-96.977V138.341    c0-53.473,43.503-96.977,96.977-96.977h235.318c53.473,0,96.977,43.503,96.977,96.977V373.659z" />
	</g>
</g>
<g>
	<g>
		<path d="M370.586,238.141c-3.64-24.547-14.839-46.795-32.386-64.342c-17.547-17.546-39.795-28.746-64.341-32.385    c-11.176-1.657-22.507-1.657-33.682,0c-30.336,4.499-57.103,20.541-75.372,45.172c-18.269,24.631-25.854,54.903-21.355,85.237    c4.499,30.335,20.541,57.102,45.172,75.372c19.996,14.831,43.706,22.619,68.153,22.619c5.667,0,11.375-0.418,17.083-1.265    c30.336-4.499,57.103-20.541,75.372-45.172C367.5,298.747,375.085,268.476,370.586,238.141z M267.791,327.632    c-19.405,2.882-38.77-1.973-54.527-13.66c-15.757-11.687-26.019-28.811-28.896-48.216c-2.878-19.405,1.973-38.77,13.66-54.527    c11.688-15.757,28.811-26.019,48.217-28.897c3.574-0.53,7.173-0.795,10.772-0.795s7.199,0.265,10.773,0.796    c32.231,4.779,57.098,29.645,61.878,61.877C335.608,284.268,307.851,321.692,267.791,327.632z"/>
	</g>
</g>
<g>
	<g>
		<path d="M400.049,111.951c-3.852-3.851-9.183-6.058-14.625-6.058c-5.442,0-10.773,2.206-14.625,6.058    c-3.851,3.852-6.058,9.174-6.058,14.625c0,5.451,2.207,10.773,6.058,14.625c3.852,3.851,9.183,6.058,14.625,6.058    c5.442,0,10.773-2.206,14.625-6.058c3.851-3.852,6.058-9.183,6.058-14.625C406.107,121.133,403.9,115.802,400.049,111.951z" />
	</g>
</g>
<g>
</g>
<g>
</g>
<g>
</g>
<g>
</g>
<g>
</g>
<g>
</g>
<g>
</g>
<g>
</g>
<g>
</g>
<g>
</g>
<g>
</g>
<g>
</g>
<g>
</g>
<g>
</g>
<g>
</g>
</symbol>
<symbol id="telegram-icon" viewBox="0 0 32 32">
<g id="surface1">
<path style=" " d="M 26.070313 3.996094 C 25.734375 4.011719 25.417969 4.109375 25.136719 4.21875 L 25.132813 4.21875 C 24.847656 4.332031 23.492188 4.902344 21.433594 5.765625 C 19.375 6.632813 16.703125 7.757813 14.050781 8.875 C 8.753906 11.105469 3.546875 13.300781 3.546875 13.300781 L 3.609375 13.277344 C 3.609375 13.277344 3.25 13.394531 2.875 13.652344 C 2.683594 13.777344 2.472656 13.949219 2.289063 14.21875 C 2.105469 14.488281 1.957031 14.902344 2.011719 15.328125 C 2.101563 16.050781 2.570313 16.484375 2.90625 16.722656 C 3.246094 16.964844 3.570313 17.078125 3.570313 17.078125 L 3.578125 17.078125 L 8.460938 18.722656 C 8.679688 19.425781 9.949219 23.597656 10.253906 24.558594 C 10.433594 25.132813 10.609375 25.492188 10.828125 25.765625 C 10.933594 25.90625 11.058594 26.023438 11.207031 26.117188 C 11.265625 26.152344 11.328125 26.179688 11.390625 26.203125 C 11.410156 26.214844 11.429688 26.21875 11.453125 26.222656 L 11.402344 26.210938 C 11.417969 26.214844 11.429688 26.226563 11.441406 26.230469 C 11.480469 26.242188 11.507813 26.246094 11.558594 26.253906 C 12.332031 26.488281 12.953125 26.007813 12.953125 26.007813 L 12.988281 25.980469 L 15.871094 23.355469 L 20.703125 27.0625 L 20.8125 27.109375 C 21.820313 27.550781 22.839844 27.304688 23.378906 26.871094 C 23.921875 26.433594 24.132813 25.875 24.132813 25.875 L 24.167969 25.785156 L 27.902344 6.65625 C 28.007813 6.183594 28.035156 5.742188 27.917969 5.3125 C 27.800781 4.882813 27.5 4.480469 27.136719 4.265625 C 26.769531 4.046875 26.40625 3.980469 26.070313 3.996094 Z M 25.96875 6.046875 C 25.964844 6.109375 25.976563 6.101563 25.949219 6.222656 L 25.949219 6.234375 L 22.25 25.164063 C 22.234375 25.191406 22.207031 25.25 22.132813 25.308594 C 22.054688 25.371094 21.992188 25.410156 21.667969 25.28125 L 15.757813 20.75 L 12.1875 24.003906 L 12.9375 19.214844 C 12.9375 19.214844 22.195313 10.585938 22.59375 10.214844 C 22.992188 9.84375 22.859375 9.765625 22.859375 9.765625 C 22.886719 9.3125 22.257813 9.632813 22.257813 9.632813 L 10.082031 17.175781 L 10.078125 17.15625 L 4.242188 15.191406 L 4.242188 15.1875 C 4.238281 15.1875 4.230469 15.183594 4.226563 15.183594 C 4.230469 15.183594 4.257813 15.171875 4.257813 15.171875 L 4.289063 15.15625 L 4.320313 15.144531 C 4.320313 15.144531 9.53125 12.949219 14.828125 10.71875 C 17.480469 9.601563 20.152344 8.476563 22.207031 7.609375 C 24.261719 6.746094 25.78125 6.113281 25.867188 6.078125 C 25.949219 6.046875 25.910156 6.046875 25.96875 6.046875 Z "/>
</g>
</symbol>
</svg>



