<svg width="201" height="235" viewBox="0 0 201 235" fill="none" xmlns="http://www.w3.org/2000/svg">
<path d="M56.5101 25.3599C64.7692 25.3678 72.6877 28.6522 78.5277 34.4922C84.3677 40.3323 87.6522 48.2508 87.6601 56.5099C87.6495 64.7672 84.3639 72.6831 78.5242 78.521C72.6844 84.3589 64.7675 87.6419 56.5101 87.6499C48.2545 87.6393 40.3401 84.3551 34.5025 78.5175C28.6649 72.6799 25.3807 64.7654 25.3701 56.5099C25.3781 48.2525 28.6611 40.3355 34.499 34.4958C40.3368 28.656 48.2528 25.3705 56.5101 25.3599ZM56.5101 13.3599C50.8441 13.3599 45.2335 14.476 39.9988 16.6447C34.7642 18.8133 30.0081 21.9918 26.002 25.9988C21.996 30.0058 18.8185 34.7627 16.6511 39.9978C14.4837 45.233 13.3688 50.8438 13.3701 56.5099C13.3688 62.1755 14.4838 67.7858 16.6513 73.0204C18.8188 78.255 21.9964 83.0112 26.0026 87.0174C30.0088 91.0236 34.765 94.2012 39.9996 96.3687C45.2342 98.5362 50.8445 99.6512 56.5101 99.6499C62.1762 99.6512 67.787 98.5363 73.0222 96.3689C78.2573 94.2015 83.0142 91.024 87.0212 87.018C91.0282 83.0119 94.2067 78.2558 96.3753 73.0211C98.5439 67.7865 99.6601 62.1759 99.6601 56.5099C99.6601 45.0658 95.114 34.0904 87.0218 25.9982C78.9296 17.906 67.9542 13.3599 56.5101 13.3599V13.3599Z" fill="#FFAA00"/>
<path d="M70.1703 15.67H42.8604L47.6403 0H65.3903L70.1703 15.67Z" fill="#FFAA00"/>
<path d="M95.0502 37.29L75.7402 17.98L90.2002 10.27L102.75 22.83L95.0502 37.29Z" fill="#FFAA00"/>
<path d="M97.3496 70.1599V42.8599L113.03 47.6299V65.3899L97.3496 70.1599Z" fill="#FFAA00"/>
<path d="M75.7402 95.04L95.0502 75.73L102.75 90.19L90.2002 102.74L75.7402 95.04Z" fill="#FFAA00"/>
<path d="M42.8604 97.3501H70.1703L65.3903 113.02H47.6403L42.8604 97.3501Z" fill="#FFAA00"/>
<path d="M17.9803 75.73L37.2903 95.04L22.8303 102.74L10.2803 90.19L17.9803 75.73Z" fill="#FFAA00"/>
<path d="M15.68 42.8599V70.1599L0 65.3899V47.6299L15.68 42.8599Z" fill="#FFAA00"/>
<path d="M37.2903 17.98L17.9803 37.29L10.2803 22.83L22.8303 10.27L37.2903 17.98Z" fill="#FFAA00"/>
<path d="M145.06 214.86V189.43C145.062 186.452 146.245 183.596 148.351 181.49C149.401 180.44 150.648 179.609 152.021 179.045C153.394 178.48 154.866 178.193 156.351 178.2H182.961L145.06 214.86ZM29.7605 127.35V205.35C29.7717 213.03 32.8285 220.391 38.2605 225.82C43.6892 231.252 51.0508 234.309 58.7305 234.32H141.52L200.64 176.32V49.2801C200.632 41.597 197.575 34.2312 192.14 28.8C186.712 23.3681 179.35 20.3112 171.67 20.3H162.211C160.645 20.3092 159.145 20.9301 158.03 22.0301C156.922 23.1425 156.299 24.6494 156.3 26.22C156.333 27.774 156.968 29.2546 158.07 30.35C159.167 31.4588 160.652 32.0972 162.211 32.13H172.26C174.512 32.126 176.742 32.5656 178.823 33.4235C180.904 34.2814 182.796 35.5409 184.39 37.13C187.596 40.3527 189.394 44.7145 189.39 49.26V165.76H156.28C150.164 165.761 144.299 168.189 139.971 172.51C135.649 176.838 133.222 182.704 133.221 188.82V222.52H58.6805C54.1375 222.525 49.7782 220.727 46.5605 217.52C44.9716 215.927 43.7122 214.037 42.8543 211.958C41.9964 209.878 41.5567 207.65 41.5605 205.4V127.4L29.7605 127.35ZM124.471 32.2H167.8C168.577 32.2009 169.346 32.0485 170.063 31.7516C170.78 31.4547 171.432 31.0192 171.981 30.47C173.088 29.3607 173.71 27.8575 173.711 26.29C173.734 25.5111 173.587 24.7366 173.28 24.0201C172.973 23.3079 172.516 22.6701 171.94 22.1501C171.419 21.569 170.778 21.1083 170.06 20.8C169.346 20.4975 168.576 20.3509 167.8 20.3701H124.471V32.2ZM129.13 20.3701H119.13C117.574 20.4065 116.092 21.0403 114.991 22.14C113.891 23.2428 113.255 24.7237 113.211 26.2801C113.213 27.8519 113.839 29.3586 114.951 30.47C116.06 31.5764 117.563 32.1984 119.13 32.2H128.591L129.13 20.3701ZM41.5605 129.37V119.26C41.5194 117.703 40.8822 116.221 39.7805 115.12C38.6825 114.015 37.198 113.38 35.6405 113.35C34.0731 113.351 32.5699 113.973 31.4605 115.08C30.9113 115.629 30.4758 116.28 30.179 116.998C29.8821 117.715 29.7297 118.484 29.7305 119.26V128.72L41.5605 129.37Z" fill="#82EFFD"/>
</svg>
