<svg xmlns="http://www.w3.org/2000/svg" xmlns:xlink="http://www.w3.org/1999/xlink" viewBox="0 0 186.736 129.707"><defs><style>.a{fill:none;}.a,.e{stroke:#00b3ef;stroke-miterlimit:10;}.b{opacity:0.5;}.c{fill:#00b3ef;}.d{fill:#004dc9;}.e{fill:url(#a);}</style><linearGradient id="a" x1="0.5" x2="0.5" y2="1" gradientUnits="objectBoundingBox"><stop offset="0" stop-color="#fff" stop-opacity="0"/><stop offset="1" stop-color="#ebf5f8"/></linearGradient></defs><g transform="translate(-351.542 -5184.293)"><circle class="a" cx="10" cy="10" r="10" transform="translate(463 5292)"/><g class="b" transform="translate(488.074 5185) rotate(45)"><path class="a" d="M35,76c19.33,0,35-7.013,35-38C70,17.013,54.33,0,35,0S0,16.013,0,38C0,65.667,11.724,73.9,27.4,75.622A69.93,69.93,0,0,0,35,76Z"/><rect class="c" width="60" height="1" transform="translate(5 62)"/><path class="a" d="M16,0V34H0V0H0" transform="translate(27 75)"/><circle class="d" cx="2" cy="2" r="2" transform="translate(39.545 108.947) rotate(-45)"/><circle class="d" cx="2" cy="2" r="2" transform="translate(23.989 108.947) rotate(-45)"/><circle class="d" cx="2" cy="2" r="2" transform="translate(40.252 75.713) rotate(-45)"/><circle class="d" cx="2" cy="2" r="2" transform="translate(23.989 75.006) rotate(-45)"/><circle class="d" cx="2" cy="2" r="2" transform="translate(2.068 62.985) rotate(-45)"/><circle class="d" cx="2" cy="2" r="2" transform="translate(61.465 62.985) rotate(-45)"/></g><g transform="translate(390.225 5196.588) rotate(30)"><path class="e" d="M35,76c19.33,0,35-7.013,35-38C70,17.013,54.33,0,35,0S0,16.013,0,38C0,65.667,11.724,73.9,27.4,75.622A69.93,69.93,0,0,0,35,76Z"/><rect class="c" width="60" height="1" transform="translate(5 62)"/><path class="e" d="M16,0V34H0V0H0" transform="translate(27 75)"/><circle class="d" cx="2" cy="2" r="2" transform="translate(40.057 107.83) rotate(-30)"/><circle class="d" cx="2" cy="2" r="2" transform="translate(40.279 74.216) rotate(-30)"/><circle class="d" cx="2" cy="2" r="2" transform="translate(24.798 107.402) rotate(-30)"/><circle class="d" cx="2" cy="2" r="2" transform="translate(24.655 75.153) rotate(-30)"/><circle class="d" cx="2" cy="2" r="2" transform="translate(1.896 61.735) rotate(-30)"/><circle class="d" cx="2" cy="2" r="2" transform="translate(61.93 61.716) rotate(-30)"/></g></g></svg>