<svg xmlns="http://www.w3.org/2000/svg" xmlns:xlink="http://www.w3.org/1999/xlink" viewBox="0 0 142 139"><defs><style>.a,.b,.e{stroke:#00b3ef;}.a,.b{stroke-miterlimit:10;}.a{fill:url(#a);}.b,.e{fill:none;}.c{fill:#004dc9;}.d{opacity:0.5;}</style><linearGradient id="a" x1="0.5" x2="0.5" y2="1" gradientUnits="objectBoundingBox"><stop offset="0" stop-color="#fff"/><stop offset="1" stop-color="#ebf5f8"/></linearGradient></defs><g transform="translate(-809.5 -4038)"><g transform="translate(811.5 4054.5)"><path class="a" d="M.5.5V92.469l34.594.023L60.5,120.5,85.906,92.492H120.43L120.5.617Z"/><path class="b" d="M186.434,67.152l-.047-.047A24.807,24.807,0,0,1,177.9,48.589c0-.328,0-.609.023-.937a27.972,27.972,0,0,1,1.289-7.219,13.4,13.4,0,0,1,1.828-3.633,17.006,17.006,0,0,0-4.641,1.688A32.2,32.2,0,0,0,164.075,49.2a28.3,28.3,0,0,0-4.9,15.422,2.547,2.547,0,0,0-.023.422,27.788,27.788,0,0,0,.633,5.906c-2.2-2.2-3.01-6.584-3.01-6.584s-.459.256-1.068.584A24.762,24.762,0,0,0,143.989,78.4h0v.023h0a21.776,21.776,0,0,0-1.289,7.453c0,13.453,11.977,24.4,26.7,24.4a25.623,25.623,0,0,0,3.8-.258h0A26.118,26.118,0,0,0,194.52,94.081a22.267,22.267,0,0,0,1.547-8.2,22.626,22.626,0,0,0-2.648-10.617A32.113,32.113,0,0,0,186.434,67.152Z" transform="translate(-108.872 -27.792)"/><circle class="c" cx="2" cy="2" r="2" transform="translate(119 90.5)"/><circle class="c" cx="2" cy="2" r="2" transform="translate(70 6.5)"/><circle class="c" cx="2" cy="2" r="2" transform="translate(49 42.5)"/><circle class="c" cx="2" cy="2" r="2" transform="translate(119 -1.5)"/><circle class="c" cx="2" cy="2" r="2" transform="translate(33 90.5)"/><circle class="c" cx="2" cy="2" r="2" transform="translate(59 118.5)"/><circle class="c" cx="2" cy="2" r="2" transform="translate(84 90.5)"/><circle class="c" cx="2" cy="2" r="2" transform="translate(-2 90.5)"/><circle class="c" cx="2" cy="2" r="2" transform="translate(-2 -1.5)"/></g><g class="d"><path class="e" d="M-20843.883,22447.969h105.43v94.793" transform="translate(21688 -18408)"/><circle class="c" cx="2" cy="2" r="2" transform="translate(947.5 4133)"/><circle class="c" cx="2" cy="2" r="2" transform="translate(840.5 4038)"/></g></g></svg>