<svg width="65" height="65" viewBox="0 0 65 65" fill="none" xmlns="http://www.w3.org/2000/svg">
<g filter="url(#filter0_d)">
<path d="M38.4094 31.8694C39.2253 31.8694 39.8867 32.5308 39.8867 33.3467L39.8867 56.2444C39.8867 57.0603 39.2253 57.7217 38.4094 57.7217L25.114 57.7217C24.2981 57.7217 23.6367 57.0603 23.6367 56.2444L23.6367 33.3467C23.6367 32.5308 24.2981 31.8694 25.114 31.8694L38.4094 31.8694Z" fill="#F2F7FF"/>
</g>
<circle cx="35.8228" cy="36.6705" r="1.10795" fill="#87F2C5"/>
<circle cx="32.1314" cy="36.6705" r="1.10795" fill="#F74364"/>
<circle cx="28.438" cy="36.6705" r="1.10795" fill="#FF7A00"/>
<path d="M27.3301 43.6875H36.1937" stroke="url(#paint0_linear)" stroke-width="1.47727" stroke-linecap="round"/>
<path d="M27.3301 48.1194H36.1937" stroke="url(#paint1_linear)" stroke-width="1.47727" stroke-linecap="round"/>
<path d="M27.3301 52.5513H36.1937" stroke="url(#paint2_linear)" stroke-width="1.47727" stroke-linecap="round"/>
<path d="M19.9426 31.8694C20.7585 31.8694 21.4199 32.5308 21.4199 33.3467L21.4199 56.2444C21.4199 57.0603 20.7585 57.7217 19.9426 57.7217L6.6472 57.7217C5.83132 57.7217 5.16992 57.0603 5.16992 56.2444L5.16992 33.3467C5.16992 32.5308 5.83132 31.8694 6.6472 31.8694L19.9426 31.8694Z" fill="#F2F7FF"/>
<path d="M8.86328 43.6875H17.7269" stroke="url(#paint3_linear)" stroke-width="1.47727" stroke-linecap="round"/>
<path d="M8.86328 48.1194H17.7269" stroke="url(#paint4_linear)" stroke-width="1.47727" stroke-linecap="round"/>
<path d="M8.86328 52.5513H17.7269" stroke="url(#paint5_linear)" stroke-width="1.47727" stroke-linecap="round"/>
<path d="M56.8743 31.8694C57.6902 31.8694 58.3516 32.5308 58.3516 33.3467L58.3516 56.2444C58.3516 57.0603 57.6902 57.7217 56.8743 57.7217L43.5788 57.7217C42.763 57.7217 42.1016 57.0603 42.1016 56.2444L42.1016 33.3467C42.1016 32.5308 42.763 31.8694 43.5788 31.8694L56.8743 31.8694Z" fill="#F2F7FF"/>
<path d="M45.7949 43.6875H54.6586" stroke="url(#paint6_linear)" stroke-width="1.47727" stroke-linecap="round"/>
<path d="M45.7949 48.1194H54.6586" stroke="url(#paint7_linear)" stroke-width="1.47727" stroke-linecap="round"/>
<path d="M45.7949 52.5513H54.6586" stroke="url(#paint8_linear)" stroke-width="1.47727" stroke-linecap="round"/>
<circle cx="17.358" cy="36.6705" r="1.10795" fill="#87F2C5"/>
<circle cx="13.6646" cy="36.6705" r="1.10795" fill="#F74364"/>
<circle cx="9.97124" cy="36.6705" r="1.10795" fill="#FF7A00"/>
<circle cx="54.2896" cy="36.6705" r="1.10795" fill="#87F2C5"/>
<circle cx="50.5962" cy="36.6705" r="1.10795" fill="#F74364"/>
<circle cx="46.9029" cy="36.6705" r="1.10795" fill="#FF7A00"/>
<circle cx="13.2953" cy="30.7613" r="8.86364" fill="#87F2C5"/>
<path d="M9.60156 31.3445L12.7613 35.1931L17.7266 28.5454" stroke="#F2F7FF" stroke-width="2.95455" stroke-linecap="round" stroke-linejoin="round"/>
<circle cx="50.2269" cy="30.7613" r="8.86364" fill="#87F2C5"/>
<path d="M46.5352 31.3445L49.6949 35.1931L54.6602 28.5454" stroke="#F2F7FF" stroke-width="2.95455" stroke-linecap="round" stroke-linejoin="round"/>
<g filter="url(#filter1_d)">
<circle cx="31.7621" cy="24.8524" r="8.86364" fill="#87F2C5"/>
</g>
<path d="M28.0684 25.4353L31.2281 29.284L36.1934 22.6362" stroke="#F2F7FF" stroke-width="2.95455" stroke-linecap="round" stroke-linejoin="round"/>
<path fill-rule="evenodd" clip-rule="evenodd" d="M31.9059 8.23278C31.6216 7.74035 30.9109 7.74035 30.6266 8.23278L27.4282 13.7726C27.1439 14.265 27.4993 14.8805 28.0679 14.8805L29.7888 14.8805L29.7888 19.6817C29.7888 20.4975 30.4502 21.1589 31.2661 21.1589C32.082 21.1589 32.7434 20.4975 32.7434 19.6817L32.7434 14.8805L34.4646 14.8805C35.0332 14.8805 35.3886 14.265 35.1043 13.7726L31.9059 8.23278Z" fill="url(#paint9_linear)"/>
<path fill-rule="evenodd" clip-rule="evenodd" d="M13.4411 14.142C13.1568 13.6495 12.446 13.6495 12.1617 14.142L8.96334 19.6817C8.67904 20.1742 9.03442 20.7897 9.60302 20.7897L11.324 20.7897L11.324 25.5908C11.324 26.4067 11.9854 27.0681 12.8013 27.0681C13.6171 27.0681 14.2785 26.4067 14.2785 25.5908L14.2785 20.7897L15.9998 20.7897C16.5684 20.7897 16.9238 20.1742 16.6395 19.6817L13.4411 14.142Z" fill="url(#paint10_linear)"/>
<path fill-rule="evenodd" clip-rule="evenodd" d="M50.3727 14.142C50.0884 13.6495 49.3777 13.6495 49.0934 14.142L45.895 19.6817C45.6107 20.1742 45.9661 20.7897 46.5347 20.7897L48.2556 20.7897L48.2556 25.5908C48.2556 26.4067 48.917 27.0681 49.7329 27.0681C50.5488 27.0681 51.2102 26.4067 51.2102 25.5908L51.2102 20.7897L52.9314 20.7897C53.5 20.7897 53.8554 20.1742 53.5711 19.6817L50.3727 14.142Z" fill="url(#paint11_linear)"/>
<defs>
<filter id="filter0_d" x="22.1594" y="31.1307" width="19.2045" height="28.8068" filterUnits="userSpaceOnUse" color-interpolation-filters="sRGB">
<feFlood flood-opacity="0" result="BackgroundImageFix"/>
<feColorMatrix in="SourceAlpha" type="matrix" values="0 0 0 0 0 0 0 0 0 0 0 0 0 0 0 0 0 0 127 0"/>
<feOffset dy="0.738636"/>
<feGaussianBlur stdDeviation="0.738636"/>
<feColorMatrix type="matrix" values="0 0 0 0 0 0 0 0 0 0 0 0 0 0 0 0 0 0 0.6 0"/>
<feBlend mode="normal" in2="BackgroundImageFix" result="effect1_dropShadow"/>
<feBlend mode="normal" in="SourceGraphic" in2="effect1_dropShadow" result="shape"/>
</filter>
<filter id="filter1_d" x="21.4212" y="15.2501" width="20.6818" height="20.6818" filterUnits="userSpaceOnUse" color-interpolation-filters="sRGB">
<feFlood flood-opacity="0" result="BackgroundImageFix"/>
<feColorMatrix in="SourceAlpha" type="matrix" values="0 0 0 0 0 0 0 0 0 0 0 0 0 0 0 0 0 0 127 0"/>
<feOffset dy="0.738636"/>
<feGaussianBlur stdDeviation="0.738636"/>
<feColorMatrix type="matrix" values="0 0 0 0 0 0 0 0 0 0 0 0 0 0 0 0 0 0 0.6 0"/>
<feBlend mode="normal" in2="BackgroundImageFix" result="effect1_dropShadow"/>
<feBlend mode="normal" in="SourceGraphic" in2="effect1_dropShadow" result="shape"/>
</filter>
<linearGradient id="paint0_linear" x1="27.3301" y1="43.9359" x2="36.1937" y2="43.9359" gradientUnits="userSpaceOnUse">
<stop stop-color="#3DAEFF"/>
<stop offset="1" stop-color="#1E5DFF"/>
</linearGradient>
<linearGradient id="paint1_linear" x1="27.3301" y1="48.3678" x2="36.1937" y2="48.3678" gradientUnits="userSpaceOnUse">
<stop stop-color="#3DAEFF"/>
<stop offset="1" stop-color="#1E5DFF"/>
</linearGradient>
<linearGradient id="paint2_linear" x1="27.3301" y1="52.7997" x2="36.1937" y2="52.7996" gradientUnits="userSpaceOnUse">
<stop stop-color="#3DAEFF"/>
<stop offset="1" stop-color="#1E5DFF"/>
</linearGradient>
<linearGradient id="paint3_linear" x1="8.86328" y1="43.9359" x2="17.7269" y2="43.9359" gradientUnits="userSpaceOnUse">
<stop stop-color="#3DAEFF"/>
<stop offset="1" stop-color="#1E5DFF"/>
</linearGradient>
<linearGradient id="paint4_linear" x1="8.86328" y1="48.3678" x2="17.7269" y2="48.3678" gradientUnits="userSpaceOnUse">
<stop stop-color="#3DAEFF"/>
<stop offset="1" stop-color="#1E5DFF"/>
</linearGradient>
<linearGradient id="paint5_linear" x1="8.86328" y1="52.7997" x2="17.7269" y2="52.7996" gradientUnits="userSpaceOnUse">
<stop stop-color="#3DAEFF"/>
<stop offset="1" stop-color="#1E5DFF"/>
</linearGradient>
<linearGradient id="paint6_linear" x1="45.7949" y1="43.9359" x2="54.6586" y2="43.9359" gradientUnits="userSpaceOnUse">
<stop stop-color="#3DAEFF"/>
<stop offset="1" stop-color="#1E5DFF"/>
</linearGradient>
<linearGradient id="paint7_linear" x1="45.7949" y1="48.3678" x2="54.6586" y2="48.3678" gradientUnits="userSpaceOnUse">
<stop stop-color="#3DAEFF"/>
<stop offset="1" stop-color="#1E5DFF"/>
</linearGradient>
<linearGradient id="paint8_linear" x1="45.7949" y1="52.7997" x2="54.6586" y2="52.7996" gradientUnits="userSpaceOnUse">
<stop stop-color="#3DAEFF"/>
<stop offset="1" stop-color="#1E5DFF"/>
</linearGradient>
<linearGradient id="paint9_linear" x1="29.2844" y1="21.1589" x2="29.2844" y2="7.86348" gradientUnits="userSpaceOnUse">
<stop stop-color="#3DAEFF"/>
<stop offset="1" stop-color="#1E5DFF"/>
</linearGradient>
<linearGradient id="paint10_linear" x1="10.8196" y1="27.0681" x2="10.8196" y2="13.7727" gradientUnits="userSpaceOnUse">
<stop stop-color="#3DAEFF"/>
<stop offset="1" stop-color="#1E5DFF"/>
</linearGradient>
<linearGradient id="paint11_linear" x1="47.7512" y1="27.0681" x2="47.7512" y2="13.7727" gradientUnits="userSpaceOnUse">
<stop stop-color="#3DAEFF"/>
<stop offset="1" stop-color="#1E5DFF"/>
</linearGradient>
</defs>
</svg>
