<svg xmlns="http://www.w3.org/2000/svg" xmlns:xlink="http://www.w3.org/1999/xlink" viewBox="0 0 184.999 109.5"><defs><style>.a,.b{stroke:#00b3ef;stroke-miterlimit:10;}.a{fill:url(#a);}.b,.h{fill:none;}.c{opacity:0.5;}.d{fill:#28a4cf;}.e{fill:#004dc9;}.f{fill:#7ea5e3;}.g{stroke:none;}</style><linearGradient id="a" x1="0.5" x2="0.5" y2="1" gradientUnits="objectBoundingBox"><stop offset="0" stop-color="#fff" stop-opacity="0"/><stop offset="1" stop-color="#ebf5f8"/></linearGradient></defs><g transform="translate(-809.5 -4587.5)"><path class="a" d="M130,54.707V90H0V0H130V35.619" transform="translate(812 4605)"/><g class="b" transform="translate(907 4640)"><rect class="g" width="40" height="20"/><rect class="h" x="0.5" y="0.5" width="39" height="19"/></g><g class="c" transform="translate(883.292 4587.5)"><path class="b" d="M0,12V8A8,8,0,0,1,8,0h94a8,8,0,0,1,8,8V62a8,8,0,0,1-8,8H68" transform="translate(0.708 0.5)"/><circle class="b" cx="8" cy="8" r="8" transform="translate(72.232 47.17)"/><circle class="b" cx="8" cy="8" r="8" transform="translate(82.863 47.17)"/><rect class="d" width="47" height="1" transform="translate(63.708 30.5)"/><rect class="d" width="47" height="1" transform="translate(63.708 17.5)"/></g><circle class="e" cx="2" cy="2" r="2" transform="translate(809.5 4693)"/><circle class="e" cx="2" cy="2" r="2" transform="translate(939.5 4693)"/><circle class="e" cx="2" cy="2" r="2" transform="translate(905.5 4658)"/><circle class="e" cx="2" cy="2" r="2" transform="translate(944.5 4658)"/><circle class="f" cx="2" cy="2" r="2" transform="translate(950.5 4656)"/><circle class="f" cx="2" cy="2" r="2" transform="translate(945.5 4603)"/><circle class="f" cx="2" cy="2" r="2" transform="translate(945.5 4616)"/><circle class="f" cx="2" cy="2" r="2" transform="translate(882 4597)"/><circle class="e" cx="2" cy="2" r="2" transform="translate(905.5 4638)"/><circle class="e" cx="2" cy="2" r="2" transform="translate(944.5 4638)"/><circle class="e" cx="2" cy="2" r="2" transform="translate(809.5 4603)"/><circle class="e" cx="2" cy="2" r="2" transform="translate(939.5 4603)"/></g></svg>