<svg xmlns="http://www.w3.org/2000/svg" xmlns:xlink="http://www.w3.org/1999/xlink" viewBox="0 0 173 120"><defs><style>.a,.b{stroke:#00b3ef;}.a,.b,.c,.d{stroke-miterlimit:10;}.a{fill:url(#a);}.b,.c,.d{fill:none;}.b,.d{stroke-linecap:round;stroke-linejoin:round;}.c,.d{stroke:#7ed8f6;}.e{fill:#004dc9;}.f{fill:#7ea5e3;}</style><linearGradient id="a" x1="0.5" x2="0.5" y2="1" gradientUnits="objectBoundingBox"><stop offset="0" stop-color="#fff" stop-opacity="0"/><stop offset="1" stop-color="#ebf5f8"/></linearGradient></defs><g transform="translate(-293 -7841)"><g transform="translate(294.5 7842.5)"><path class="a" d="M46.8,14.5v90.4l11.8,11,8.9-6.8,8.8,6.8,8.8-6.8,8.8,6.8,8.9-6.8,8.8,6.8,11.8-11V14.7Z"/><circle class="b" cx="20.5" cy="20.5" r="20.5" transform="translate(64.6 44.7)"/><path class="c" d="M131.6,95.1l8.8,6.8,8.8-6.8,8.9,6.8,11.8-11V.7L93.3.5"/><line class="d" x1="15.2" y2="15.2" transform="translate(124 41.6)"/><line class="d" x2="15.2" y2="15.2" transform="translate(124 41.6)"/><path class="d" d="M131.6,30.6a20.5,20.5,0,1,1,0,41" transform="translate(0 -2)"/><path class="d" d="M29,48.4l4.9,5.2,9.5-13.7"/><path class="c" d="M77.6.7.5.5V89.1L12.4,99.9l8.9-6.6,8.9,6.6L39,93.3"/><path class="d" d="M38.8,69.7a20.5,20.5,0,0,1,0-41"/><path class="b" d="M85.3,51V65.5H95.6"/></g><circle class="e" cx="2" cy="2" r="2" transform="translate(339 7855)"/><circle class="e" cx="2" cy="2" r="2" transform="translate(416 7855)"/><circle class="e" cx="2" cy="2" r="2" transform="translate(339 7945)"/><circle class="e" cx="2" cy="2" r="2" transform="translate(351 7957)"/><circle class="e" cx="2" cy="2" r="2" transform="translate(369 7957)"/><circle class="e" cx="2" cy="2" r="2" transform="translate(386 7957)"/><circle class="e" cx="2" cy="2" r="2" transform="translate(404 7957)"/><circle class="e" cx="2" cy="2" r="2" transform="translate(360 7949)"/><circle class="e" cx="2" cy="2" r="2" transform="translate(378 7949)"/><circle class="e" cx="2" cy="2" r="2" transform="translate(395 7949)"/><circle class="e" cx="2" cy="2" r="2" transform="translate(416 7945)"/><circle class="f" cx="2" cy="2" r="2" transform="translate(386 7841)"/><circle class="f" cx="2" cy="2" r="2" transform="translate(370 7841)"/><circle class="f" cx="2" cy="2" r="2" transform="translate(331 7869)"/><circle class="f" cx="2" cy="2" r="2" transform="translate(331 7910)"/><circle class="f" cx="2" cy="2" r="2" transform="translate(331 7934)"/><circle class="f" cx="2" cy="2" r="2" transform="translate(314 7934)"/><circle class="f" cx="2" cy="2" r="2" transform="translate(305 7940)"/><circle class="f" cx="2" cy="2" r="2" transform="translate(323 7940)"/><circle class="f" cx="2" cy="2" r="2" transform="translate(293 7930)"/><circle class="f" cx="2" cy="2" r="2" transform="translate(293 7841)"/><circle class="f" cx="2" cy="2" r="2" transform="translate(462 7841)"/><circle class="f" cx="2" cy="2" r="2" transform="translate(462 7932)"/><circle class="f" cx="2" cy="2" r="2" transform="translate(451 7942)"/><circle class="f" cx="2" cy="2" r="2" transform="translate(442 7936)"/><circle class="f" cx="2" cy="2" r="2" transform="translate(433 7942)"/><circle class="f" cx="2" cy="2" r="2" transform="translate(425 7936)"/><circle class="f" cx="2" cy="2" r="2" transform="translate(425 7910)"/><circle class="f" cx="2" cy="2" r="2" transform="translate(425 7869)"/></g></svg>