<svg xmlns="http://www.w3.org/2000/svg" xmlns:xlink="http://www.w3.org/1999/xlink" viewBox="0 0 321.043 233.002"><defs><style>.a,.f,.g{fill:none;}.a{stroke:#6bbdff;opacity:0.7;}.a,.e,.f{stroke-miterlimit:10;}.b{fill:#004dc9;}.c{opacity:0.5;}.d{fill:#ebf5f8;}.d,.e,.f,.g{stroke:#004dc9;}.e{fill:url(#a);}</style><radialGradient id="a" cx="0.5" cy="0.5" r="0.5" gradientUnits="objectBoundingBox"><stop offset="0" stop-color="#fff"/><stop offset="1" stop-color="#d4e4fe"/></radialGradient></defs><g transform="translate(-799.979 -3280.998)"><g transform="translate(799.979 3311)"><path class="a" d="M159.107,183.032,1,91.816,159.107.6,317.214,91.816l-90.582,52.259Z" transform="translate(2.041 2.53)"/><circle class="b" cx="1.789" cy="1.789" r="1.789" transform="translate(159.18 185.114)"/><circle class="b" cx="1.789" cy="1.789" r="1.789" transform="translate(159.18 0)"/><circle class="b" cx="1.789" cy="1.789" r="1.789" transform="translate(0 93.004)"/><circle class="b" cx="1.789" cy="1.789" r="1.789" transform="translate(317.466 93.004)"/></g><g class="c" transform="translate(799.979 3325.309)"><path class="a" d="M159.107,183.032,1,91.816,159.107.6,317.214,91.816l-90.582,52.259Z" transform="translate(2.041 2.53)"/><circle class="b" cx="1.789" cy="1.789" r="1.789" transform="translate(159.18 185.114)"/><circle class="b" cx="1.789" cy="1.789" r="1.789" transform="translate(159.18 0)"/><circle class="b" cx="1.789" cy="1.789" r="1.789" transform="translate(0 93.004)"/><circle class="b" cx="1.789" cy="1.789" r="1.789" transform="translate(317.466 93.004)"/></g><path class="d" d="M427.225,5915.44l-20.84-11.646-98.9,57.782v90.536" transform="translate(599 -2621)"/><g transform="translate(926.414 3294.931)"><g transform="translate(0.672 0)"><path class="e" d="M.7,57.786l.134,90.776L99.679,91.542,99.545.9ZM32.976,38.824ZM54.359,71.369l-8.472,4.841V56.173l8.472-4.841Z" transform="translate(-0.7 -0.9)"/></g><line class="f" y1="26.224" x2="45.455" transform="translate(54.331 34.293)"/><line class="f" y1="26.359" x2="45.993" transform="translate(0 65.359)"/><circle class="b" cx="1.79" cy="1.79" r="1.79" transform="translate(-0.932 55.066)"/><circle class="b" cx="1.79" cy="1.79" r="1.79" transform="translate(44.068 64.066)"/><circle class="b" cx="1.79" cy="1.79" r="1.79" transform="translate(53.068 59.066)"/><circle class="b" cx="1.79" cy="1.79" r="1.79" transform="translate(53.068 49.066)"/><circle class="b" cx="1.79" cy="1.79" r="1.79" transform="translate(44.068 54.066)"/><circle class="b" cx="1.79" cy="1.79" r="1.79" transform="translate(53.068 69.066)"/><circle class="b" cx="1.79" cy="1.79" r="1.79" transform="translate(44.068 74.066)"/><circle class="b" cx="1.79" cy="1.79" r="1.79" transform="translate(98.068 -1.934)"/><circle class="b" cx="1.79" cy="1.79" r="1.79" transform="translate(77.068 -13.934)"/><circle class="b" cx="1.79" cy="1.79" r="1.79" transform="translate(52.068 9.066)"/><circle class="b" cx="1.79" cy="1.79" r="1.79" transform="translate(27.068 24.066)"/><circle class="b" cx="1.79" cy="1.79" r="1.79" transform="translate(27.068 12.066)"/><circle class="b" cx="1.79" cy="1.79" r="1.79" transform="translate(52.068 -1.934)"/><circle class="b" cx="1.79" cy="1.79" r="1.79" transform="translate(-0.932 90.066)"/><circle class="b" cx="1.79" cy="1.79" r="1.79" transform="translate(98.068 33.066)"/><circle class="b" cx="1.79" cy="1.79" r="1.79" transform="translate(-0.932 146.066)"/><circle class="b" cx="1.79" cy="1.79" r="1.79" transform="translate(98.068 89.066)"/></g><path class="g" d="M427.225,5915.44l-20.84-11.646" transform="translate(500 -2473)"/><path class="g" d="M427.225,5915.44l-20.84-11.646" transform="translate(500 -2563)"/><path class="f" d="M25.9,11.9V.9L.5,15.5V26.4" transform="translate(954.5 3294.1)"/><circle class="b" cx="1.789" cy="1.789" r="1.789" transform="translate(904.979 3339.004)"/><circle class="b" cx="1.789" cy="1.789" r="1.789" transform="translate(904.979 3429.004)"/><g transform="translate(-441 -95)"><g transform="translate(1419 3457.036)"><path class="b" d="M15.7,13.4c-1-.6-2.6.2-3.5,1.8s-.9,3.4.1,4,2.6-.2,3.5-1.8C16.8,15.8,16.8,14,15.7,13.4ZM13,18c-.6-.4-.6-1.4-.1-2.4.6-1,1.5-1.4,2.1-1.1.6.4.6,1.4.1,2.4S13.6,18.4,13,18Z"/><path class="b" d="M24.3,21.5l-1.1-.7a22.051,22.051,0,0,0,2.9-10.2l1.5-.8a.891.891,0,0,0,.5-.8c0-.3-.2-.4-.5-.3L26,9.6a9.112,9.112,0,0,0-3.4-7l1-1.8c.2-.3.2-.7,0-.8s-.5,0-.7.4l-1,1.8c-2.2-1.1-5-.9-7.8.4L14,.8c0-.3-.2-.4-.5-.3a.891.891,0,0,0-.5.8L13.1,3a20.671,20.671,0,0,0-7.5,7.5L4.5,9.9c-.2-.1-.5,0-.7.4-.2.3-.2.7,0,.8l1.1.7A20.762,20.762,0,0,0,2,21.9l-1.5.8a.891.891,0,0,0-.5.8c0,.2.1.3.2.3s.2.1.4,0L2,23a9.112,9.112,0,0,0,3.4,7l-1,1.8c-.2.3-.2.7,0,.8s.5,0,.7-.4l1-1.8c2.2,1.1,5,.9,7.8-.4l.1,1.7c0,.2.1.3.2.3s.2.1.4,0a.891.891,0,0,0,.5-.8L15,29.5A20.671,20.671,0,0,0,22.5,22l1.1.7c.2.1.5,0,.7-.4S24.5,21.7,24.3,21.5ZM6.5,29C2.1,26.4,1.8,18.6,6,11.5S17.1.9,21.6,3.5,26.3,14,22.1,21,11,31.7,6.5,29Z"/></g><g transform="translate(1383.935 3467.574)"><path class="b" d="M32.6,6.475a.873.873,0,0,0,.229-.99c-.152-.229-.533-.229-.838.076l-1.524,1.6a13.616,13.616,0,0,0-1.676-1.9l1.219-1.9c.229-.381.229-.762,0-.914a.58.58,0,0,0-.838.229l-1.219,1.9a12.138,12.138,0,0,0-2.209-1.143l.914-2.057c.152-.381.076-.762-.229-.838s-.609.152-.838.533l-.914,1.981a10.03,10.03,0,0,0-2.59-.3L22.548.609A.455.455,0,0,0,22.091,0c-.381,0-.609.381-.686.762l-.457,2.133A13.4,13.4,0,0,0,18.13,3.5V1.447c0-.381-.229-.609-.609-.457a1.129,1.129,0,0,0-.609.914V3.961a16.489,16.489,0,0,0-2.819,1.447l-.381-1.9a.409.409,0,0,0-.686-.229.87.87,0,0,0-.381.99L13.1,6.094a22.63,22.63,0,0,0-2.59,2.133L9.6,6.78c-.152-.229-.533-.229-.838.076a.873.873,0,0,0-.229.99l.914,1.447a26.709,26.709,0,0,0-2.209,2.742l-1.219-.99a.614.614,0,0,0-.838.3c-.229.381-.229.762,0,.914l1.219.99a24.627,24.627,0,0,0-1.676,3.123L3.2,15.921c-.3-.076-.609.152-.838.533-.152.381-.076.762.229.838l1.524.457A18.973,18.973,0,0,0,3.047,21.1l-1.676.076c-.3,0-.609.381-.686.762s.076.686.381.686l1.676-.076a25.447,25.447,0,0,0-.381,3.276l-1.752.609A.99.99,0,0,0,0,27.347c0,.381.229.609.609.457l1.752-.609a13.349,13.349,0,0,0,.381,3.047L.99,31.385a.87.87,0,0,0-.381.99.409.409,0,0,0,.686.229l1.752-1.219a15.426,15.426,0,0,0,1.066,2.59l-1.524,1.6a.873.873,0,0,0-.229.99c.152.229.533.229.838-.076l1.524-1.6a13.615,13.615,0,0,0,1.676,1.9L5.18,38.7c-.229.381-.229.762,0,.914s.457.076.686-.152l.152-.152,1.219-1.9a12.138,12.138,0,0,0,2.209,1.143L8.532,40.6c-.152.381-.076.762.229.838.152.076.381,0,.609-.229.076-.076.152-.229.229-.3l.914-2.057a9.654,9.654,0,0,0,2.59.3l-.457,2.133c-.076.381.076.686.381.686a.658.658,0,0,0,.457-.229,1.228,1.228,0,0,0,.3-.533l.457-2.133a13.4,13.4,0,0,0,2.819-.609v2.057c0,.381.229.609.609.457.076-.076.229-.076.3-.229a1.134,1.134,0,0,0,.3-.686V38.012A16.488,16.488,0,0,0,21.1,36.565l.457,1.828a.409.409,0,0,0,.686.229c.076,0,.076-.076.152-.152a.973.973,0,0,0,.3-.838l-.609-1.676a22.631,22.631,0,0,0,2.59-2.133L25.6,35.27c.152.229.533.229.838-.076a.873.873,0,0,0,.229-.99l-.99-1.447a26.709,26.709,0,0,0,2.209-2.742L29.1,31c.229.152.457.076.686-.152l.152-.152c.229-.381.229-.762,0-.914l-1.219-.99a24.628,24.628,0,0,0,1.676-3.123l1.524.457c.152.076.381,0,.609-.229.076-.076.152-.229.229-.3.152-.381.076-.762-.229-.838L31,24.3a18.974,18.974,0,0,0,1.066-3.352l1.676-.076a.658.658,0,0,0,.457-.229,1.228,1.228,0,0,0,.3-.533c.076-.381-.076-.686-.381-.686l-1.676.076a25.445,25.445,0,0,0,.381-3.276l1.752-.609c.076-.076.229-.076.3-.229a1.134,1.134,0,0,0,.3-.686c0-.381-.229-.609-.609-.457l-1.752.609a13.349,13.349,0,0,0-.381-3.047L34.2,10.665c.076,0,.076-.076.152-.152a.973.973,0,0,0,.3-.838.409.409,0,0,0-.686-.229l-1.752,1.143A15.426,15.426,0,0,0,31.156,8C31.08,8.075,32.6,6.475,32.6,6.475ZM29.785,24.6c-3.809,8.836-12.036,14.473-18.663,12.95l3.809-8.913A7.031,7.031,0,0,0,20.872,26.2a12.864,12.864,0,0,0,2.361-3.5,11.533,11.533,0,0,0,.838-3.276l7.618-2.742A24.929,24.929,0,0,1,29.785,24.6ZM5.409,17.368a24.712,24.712,0,0,1,4.647-7.161l3.809,6.17a13.2,13.2,0,0,0-1.9,2.971c-1.676,3.885-.838,7.846,1.9,8.989L10.055,37.25C3.733,34.965,1.6,26.2,5.409,17.368ZM22.167,22.4c-1.447,3.428-4.723,5.561-7.237,4.8s-3.352-4.114-1.9-7.541,4.647-5.561,7.237-4.8C22.7,15.616,23.615,18.968,22.167,22.4ZM24,18.054a4.845,4.845,0,0,0-3.2-4.571,6.612,6.612,0,0,0-5.942,1.828l-3.809-6.17C15.159,5.18,20.263,3.276,24.6,4.571s6.78,5.485,7.008,10.665Z"/><path class="b" d="M21.081,22.72a5.757,5.757,0,0,0-2.133,2.666,5.271,5.271,0,0,0-.381,3.2,2.416,2.416,0,0,0,1.676,1.828,3.194,3.194,0,0,0,2.666-.533,8.1,8.1,0,0,0,.838-.686,6.489,6.489,0,0,0,1.295-1.9,5.271,5.271,0,0,0,.381-3.2,2.417,2.417,0,0,0-1.676-1.828A3.143,3.143,0,0,0,21.081,22.72Zm3.2,2.057a3.566,3.566,0,0,1-.229,2.133A3.691,3.691,0,0,1,22.6,28.662a2.205,2.205,0,0,1-1.752.381,1.6,1.6,0,0,1-1.066-1.219,3.566,3.566,0,0,1,.229-2.133,7.548,7.548,0,0,1,.838-1.295c.152-.152.381-.3.533-.457a2.205,2.205,0,0,1,1.752-.381A1.835,1.835,0,0,1,24.28,24.777Z" transform="translate(-4.398 -5.276)"/></g><g transform="translate(1443 3469.138)"><path class="b" d="M8.2,6.7c-.6-.4-1.6.1-2.1,1s-.5,2,.2,2.3a.9.9,0,0,0,.5.1c.5.1,1.2-.4,1.6-1.1a2.2,2.2,0,0,0,.4-1.3A1.7,1.7,0,0,0,8.2,6.7ZM7.2,9q-.3.15-.3,0h0c-.1,0-.1-.1-.1-.3A1.421,1.421,0,0,1,7,8.1c.2-.3.4-.5.6-.5h.1c.2.1.2.5,0,.8A1.649,1.649,0,0,1,7.2,9Z"/><path class="b" d="M14.3,4.4a.3.3,0,0,0-.4,0l-.4.2a4.7,4.7,0,0,0-1.6-3.2l.4-.7a.6.6,0,0,0,.1-.4.52.52,0,0,0-.2-.4.585.585,0,0,0-.7.3l-.4.8a4.729,4.729,0,0,0-3.5.1V.6A.52.52,0,0,0,7.4.2a.749.749,0,0,0-.5.1.822.822,0,0,0-.4.6v.7A11.933,11.933,0,0,0,2.9,5.1L2.6,5a.585.585,0,0,0-.7.3A.494.494,0,0,0,2,6l.3.2A10.81,10.81,0,0,0,1,11l-.6.3A.842.842,0,0,0,0,12a.52.52,0,0,0,.2.4.3.3,0,0,0,.4,0l.4-.2a4.7,4.7,0,0,0,1.6,3.2l-.4.7a.9.9,0,0,0-.1.5c0,.1.1.2.2.3.1,0,.1.1.2.1a.55.55,0,0,0,.5-.3l.4-.7a4.729,4.729,0,0,0,3.5-.1v.5a.52.52,0,0,0,.2.4.3.3,0,0,0,.4,0c.3-.5.5-.7.5-1v-.7a11.933,11.933,0,0,0,3.6-3.5l.3.2a.3.3,0,0,0,.4,0l.3-.3a.467.467,0,0,0-.1-.7l-.3-.2a11.214,11.214,0,0,0,1.3-4.9l.6-.3a.822.822,0,0,0,.4-.6A.52.52,0,0,0,14.3,4.4ZM3.6,14.5c-2.1-1.2-2.2-5-.2-8.4S8.7,1,10.8,2.2s2.2,5,.2,8.4C9.1,14,5.7,15.8,3.6,14.5Z"/></g></g></g></svg>