<svg xmlns="http://www.w3.org/2000/svg" xmlns:xlink="http://www.w3.org/1999/xlink" viewBox="0 0 109 126"><defs><style>.a,.b,.e{fill:none;}.a,.b,.c,.e{stroke:#00b3ef;stroke-miterlimit:10;}.a{stroke-linecap:round;stroke-linejoin:round;}.c{fill:url(#a);}.d{fill:#004dc9;}.e{opacity:0.5;}.f{fill:#7ea5e3;}</style><linearGradient id="a" x1="0.5" x2="0.5" y2="1" gradientUnits="objectBoundingBox"><stop offset="0" stop-color="#fff" stop-opacity="0"/><stop offset="1" stop-color="#ebf5f8"/></linearGradient></defs><g transform="translate(-810.5 -6807)"><g transform="translate(471.5 -1028)"><g transform="translate(340.5 7843.5)"><path class="a" d="M41.8,38.5a20.45,20.45,0,1,1-6.1,0"/><line class="a" y2="19.5" transform="translate(38.7 31.7)"/><circle class="b" cx="18.1" cy="18.1" r="18.1" transform="translate(54.3 0.5)"/><path class="c" d="M.5,103.7V13.3H55.1a18.42,18.42,0,0,0-.6,7.8,17.993,17.993,0,0,0,22.6,15v67.6L65.3,114.6l-8.8-6.7-8.8,6.7-8.8-6.7-8.8,6.7-8.8-6.7-8.8,6.7Z"/><path class="a" d="M77.3,13.2l-1.1,1.1a.6.6,0,0,0-.1.4.451.451,0,0,0,.3.3l5.4,1a.6.6,0,0,0,.4-.1c.1-.1.1-.2.1-.4l-1-5.4a.265.265,0,0,0-.3-.3.6.6,0,0,0-.4.1l-1.9,1.9a9.263,9.263,0,0,0-15.5,6.5"/><path class="a" d="M67.5,24.1,68.6,23a.6.6,0,0,0,.1-.4.451.451,0,0,0-.3-.3l-5.4-1a.6.6,0,0,0-.4.1c-.1.1-.1.2-.1.4l1,5.4a.265.265,0,0,0,.3.3.6.6,0,0,0,.4-.1l1.9-1.9a9.305,9.305,0,0,0,6.2,2.4,9.079,9.079,0,0,0,6.5-2.7A9.252,9.252,0,0,0,81.5,19"/><line class="a" x1="15.3" y2="15.3" transform="translate(31.1 53.5)"/><line class="a" x2="15.3" y2="15.3" transform="translate(31.1 53.5)"/></g><circle class="d" cx="2" cy="2" r="2" transform="translate(339 7855)"/><circle class="d" cx="2" cy="2" r="2" transform="translate(394 7855)"/><circle class="d" cx="2" cy="2" r="2" transform="translate(402 7859)"/><circle class="d" cx="2" cy="2" r="2" transform="translate(420 7861)"/><circle class="d" cx="2" cy="2" r="2" transform="translate(416 7878)"/><circle class="d" cx="2" cy="2" r="2" transform="translate(377 7874)"/><circle class="d" cx="2" cy="2" r="2" transform="translate(385.5 7911)"/><circle class="d" cx="2" cy="2" r="2" transform="translate(368.5 7911)"/><circle class="d" cx="2" cy="2" r="2" transform="translate(385.5 7894)"/><circle class="d" cx="2" cy="2" r="2" transform="translate(368.5 7894)"/><circle class="d" cx="2" cy="2" r="2" transform="translate(339 7945)"/><circle class="d" cx="2" cy="2" r="2" transform="translate(351 7957)"/><circle class="d" cx="2" cy="2" r="2" transform="translate(369 7957)"/><circle class="d" cx="2" cy="2" r="2" transform="translate(386 7957)"/><circle class="d" cx="2" cy="2" r="2" transform="translate(404 7957)"/><circle class="d" cx="2" cy="2" r="2" transform="translate(360 7949)"/><circle class="d" cx="2" cy="2" r="2" transform="translate(378 7949)"/><circle class="d" cx="2" cy="2" r="2" transform="translate(395 7949)"/><circle class="d" cx="2" cy="2" r="2" transform="translate(416 7945)"/></g><g transform="translate(433.5 -1027)"><path class="e" d="M56.4,95.3l8.8,6.7L77,91.1V.7S.4.4.4.7V11.9" transform="translate(406.6 7835.434)"/><circle class="f" cx="2" cy="2" r="2" transform="translate(461 7929)"/><circle class="f" cx="2" cy="2" r="2" transform="translate(469 7935)"/><circle class="f" cx="2" cy="2" r="2" transform="translate(482 7924)"/><circle class="f" cx="2" cy="2" r="2" transform="translate(482 7834)"/><circle class="f" cx="2" cy="2" r="2" transform="translate(405 7834)"/><circle class="f" cx="2" cy="2" r="2" transform="translate(405 7845)"/></g></g></svg>