<svg xmlns="http://www.w3.org/2000/svg" xmlns:xlink="http://www.w3.org/1999/xlink" viewBox="0 0 148.5 130"><defs><style>.a,.b{stroke:#00b3ef;}.a,.b,.c{stroke-miterlimit:10;}.a{fill:url(#a);}.b,.c{fill:none;}.b{stroke-linecap:round;stroke-linejoin:round;}.c{stroke:#7ed8f6;}.d{fill:#7ea5e3;}.e{fill:#004dc9;}</style><linearGradient id="a" x1="0.5" x2="0.5" y2="1" gradientUnits="objectBoundingBox"><stop offset="0" stop-color="#fff" stop-opacity="0"/><stop offset="1" stop-color="#ebf5f8"/></linearGradient></defs><g transform="translate(-271.5 -7831)"><g transform="translate(273 7832)"><path class="a" d="M68.1,24.8v90.4l11.8,11,8.8-6.7,8.8,6.7,8.9-6.7,8.8,6.7,8.8-6.7,8.8,6.7,11.8-11V25Z"/><circle class="b" cx="20.5" cy="20.5" r="20.5" transform="translate(85.9 55)"/><line class="b" y2="12.8" transform="translate(106.4 73.5)"/><g transform="translate(8)"><path class="c" d="M52.1,64H31.2V43.1H52.1V64Z"/></g><path class="c" d="M120.9,8.6H.5V93.8H59.2"/><line class="c" y2="17.6" transform="translate(28.4)"/><line class="c" y2="17.6" transform="translate(49.9)"/><line class="c" y2="17.6" transform="translate(71.4)"/><line class="c" y2="17.6" transform="translate(92.9)"/><circle class="d" cx="2" cy="2" r="2" transform="translate(47.5 52)"/><circle class="d" cx="2" cy="2" r="2" transform="translate(47.5 34)"/><circle class="d" cx="2" cy="2" r="2" transform="translate(47.5 72)"/><circle class="d" cx="2" cy="2" r="2" transform="translate(25.5 52)"/><circle class="d" cx="2" cy="2" r="2" transform="translate(25.5 34)"/><circle class="d" cx="2" cy="2" r="2" transform="translate(25.5 72)"/><circle class="d" cx="2" cy="2" r="2" transform="translate(56.5 92)"/><circle class="d" cx="2" cy="2" r="2" transform="translate(-1.5 92)"/><circle class="d" cx="2" cy="2" r="2" transform="translate(-1.5 7)"/><circle class="d" cx="2" cy="2" r="2" transform="translate(118.5 7)"/><circle class="d" cx="2" cy="2" r="2" transform="translate(91 -1)"/><circle class="d" cx="2" cy="2" r="2" transform="translate(69.5 -1)"/><circle class="d" cx="2" cy="2" r="2" transform="translate(48 -1)"/><circle class="d" cx="2" cy="2" r="2" transform="translate(26.5 -1)"/></g><circle class="e" cx="2" cy="2" r="2" transform="translate(339 7855)"/><circle class="e" cx="2" cy="2" r="2" transform="translate(416 7855)"/><circle class="e" cx="2" cy="2" r="2" transform="translate(377.5 7898)"/><circle class="e" cx="2" cy="2" r="2" transform="translate(339 7945)"/><circle class="e" cx="2" cy="2" r="2" transform="translate(351 7957)"/><circle class="e" cx="2" cy="2" r="2" transform="translate(369 7957)"/><circle class="e" cx="2" cy="2" r="2" transform="translate(386 7957)"/><circle class="e" cx="2" cy="2" r="2" transform="translate(404 7957)"/><circle class="e" cx="2" cy="2" r="2" transform="translate(360 7949)"/><circle class="e" cx="2" cy="2" r="2" transform="translate(378 7949)"/><circle class="e" cx="2" cy="2" r="2" transform="translate(395 7949)"/><circle class="e" cx="2" cy="2" r="2" transform="translate(416 7945)"/></g></svg>