<svg xmlns="http://www.w3.org/2000/svg" xmlns:xlink="http://www.w3.org/1999/xlink" viewBox="0 0 321.043 233.002"><defs><style>.a,.f,.g{fill:none;}.a{stroke:#6bbdff;opacity:0.7;}.a,.e,.f{stroke-miterlimit:10;}.b{fill:#004dc9;}.c{opacity:0.5;}.d{fill:#ebf5f8;}.d,.e,.f,.g{stroke:#004dc9;}.e{fill:url(#a);}</style><radialGradient id="a" cx="0.5" cy="0.5" r="0.5" gradientUnits="objectBoundingBox"><stop offset="0" stop-color="#fff"/><stop offset="1" stop-color="#d4e4fe"/></radialGradient></defs><g transform="translate(-360.979 -3280.998)"><g transform="translate(360.979 3311)"><path class="a" d="M159.107,183.032,1,91.816,159.107.6,317.214,91.816l-90.582,52.259Z" transform="translate(2.041 2.53)"/><circle class="b" cx="1.789" cy="1.789" r="1.789" transform="translate(159.18 185.114)"/><circle class="b" cx="1.789" cy="1.789" r="1.789" transform="translate(159.18 0)"/><circle class="b" cx="1.789" cy="1.789" r="1.789" transform="translate(0 93.004)"/><circle class="b" cx="1.789" cy="1.789" r="1.789" transform="translate(317.466 93.004)"/></g><g class="c" transform="translate(360.979 3325.309)"><path class="a" d="M159.107,183.032,1,91.816,159.107.6,317.214,91.816l-90.582,52.259Z" transform="translate(2.041 2.53)"/><circle class="b" cx="1.789" cy="1.789" r="1.789" transform="translate(159.18 185.114)"/><circle class="b" cx="1.789" cy="1.789" r="1.789" transform="translate(159.18 0)"/><circle class="b" cx="1.789" cy="1.789" r="1.789" transform="translate(0 93.004)"/><circle class="b" cx="1.789" cy="1.789" r="1.789" transform="translate(317.466 93.004)"/></g><path class="d" d="M427.225,5915.44l-20.84-11.646-98.9,57.782v90.536" transform="translate(160 -2621)"/><g transform="translate(487.414 3294.931)"><g transform="translate(0.672 0)"><path class="e" d="M.7,57.786l.134,90.776L99.679,91.542,99.545.9ZM32.976,38.824ZM54.359,71.369l-8.472,4.841V56.173l8.472-4.841Z" transform="translate(-0.7 -0.9)"/></g><line class="f" y1="26.224" x2="45.455" transform="translate(54.331 34.293)"/><line class="f" y1="26.359" x2="45.993" transform="translate(0 65.359)"/><circle class="b" cx="1.79" cy="1.79" r="1.79" transform="translate(-0.932 55.066)"/><circle class="b" cx="1.79" cy="1.79" r="1.79" transform="translate(44.068 64.066)"/><circle class="b" cx="1.79" cy="1.79" r="1.79" transform="translate(53.068 59.066)"/><circle class="b" cx="1.79" cy="1.79" r="1.79" transform="translate(53.068 49.066)"/><circle class="b" cx="1.79" cy="1.79" r="1.79" transform="translate(44.068 54.066)"/><circle class="b" cx="1.79" cy="1.79" r="1.79" transform="translate(53.068 69.066)"/><circle class="b" cx="1.79" cy="1.79" r="1.79" transform="translate(44.068 74.066)"/><circle class="b" cx="1.79" cy="1.79" r="1.79" transform="translate(98.068 -1.934)"/><circle class="b" cx="1.79" cy="1.79" r="1.79" transform="translate(77.068 -13.934)"/><circle class="b" cx="1.79" cy="1.79" r="1.79" transform="translate(52.068 9.066)"/><circle class="b" cx="1.79" cy="1.79" r="1.79" transform="translate(27.068 24.066)"/><circle class="b" cx="1.79" cy="1.79" r="1.79" transform="translate(27.068 12.066)"/><circle class="b" cx="1.79" cy="1.79" r="1.79" transform="translate(52.068 -1.934)"/><circle class="b" cx="1.79" cy="1.79" r="1.79" transform="translate(-0.932 90.066)"/><circle class="b" cx="1.79" cy="1.79" r="1.79" transform="translate(98.068 33.066)"/><circle class="b" cx="1.79" cy="1.79" r="1.79" transform="translate(-0.932 146.066)"/><circle class="b" cx="1.79" cy="1.79" r="1.79" transform="translate(98.068 89.066)"/></g><path class="g" d="M427.225,5915.44l-20.84-11.646" transform="translate(61 -2473)"/><path class="g" d="M427.225,5915.44l-20.84-11.646" transform="translate(61 -2563)"/><path class="f" d="M25.9,11.9V.9L.5,15.5V26.4" transform="translate(515.5 3294.1)"/><circle class="b" cx="1.789" cy="1.789" r="1.789" transform="translate(465.979 3339.004)"/><circle class="b" cx="1.789" cy="1.789" r="1.789" transform="translate(465.979 3429.004)"/></g></svg>