<svg xmlns="http://www.w3.org/2000/svg" xmlns:xlink="http://www.w3.org/1999/xlink" viewBox="0 0 125 131"><defs><style>.a,.c,.e{fill:none;}.a,.b,.c,.e{stroke:#00b3ef;stroke-miterlimit:10;}.b{fill:url(#a);}.c{stroke-linecap:round;stroke-linejoin:round;}.d{fill:#004dc9;}.e{opacity:0.5;}.f{fill:#7ea5e3;}.g{opacity:0.7;}</style><linearGradient id="a" x1="0.5" x2="0.5" y2="1" gradientUnits="objectBoundingBox"><stop offset="0" stop-color="#fff" stop-opacity="0"/><stop offset="1" stop-color="#ebf5f8"/></linearGradient></defs><g transform="translate(-1268.5 -6803)"><g transform="translate(929.5 -1027)"><g transform="translate(340.5 7843.5)"><circle class="a" cx="18.1" cy="18.1" r="18.1" transform="translate(54.3 0.5)"/><path class="b" d="M.5,103.7V13.3H55.1a18.42,18.42,0,0,0-.6,7.8,17.993,17.993,0,0,0,22.6,15v67.6L65.3,114.6l-8.8-6.7-8.8,6.7-8.8-6.7-8.8,6.7-8.8-6.7-8.8,6.7Z"/><line class="c" x1="15.2" y2="15.2" transform="translate(64.8 11)"/><line class="c" x2="15.2" y2="15.2" transform="translate(64.8 11)"/></g><circle class="d" cx="2" cy="2" r="2" transform="translate(339 7855)"/><circle class="d" cx="2" cy="2" r="2" transform="translate(394 7855)"/><circle class="d" cx="2" cy="2" r="2" transform="translate(416 7878)"/><circle class="d" cx="2" cy="2" r="2" transform="translate(339 7945)"/><circle class="d" cx="2" cy="2" r="2" transform="translate(351 7957)"/><circle class="d" cx="2" cy="2" r="2" transform="translate(369 7957)"/><circle class="d" cx="2" cy="2" r="2" transform="translate(386 7957)"/><circle class="d" cx="2" cy="2" r="2" transform="translate(404 7957)"/><circle class="d" cx="2" cy="2" r="2" transform="translate(360 7949)"/><circle class="d" cx="2" cy="2" r="2" transform="translate(378 7949)"/><circle class="d" cx="2" cy="2" r="2" transform="translate(395 7949)"/><circle class="d" cx="2" cy="2" r="2" transform="translate(416 7945)"/></g><g transform="translate(885.5 -1023)"><path class="e" d="M65.2,102,77,91.1V.7S.4.4.4.7" transform="translate(406.6 7835.434)"/><circle class="f" cx="2" cy="2" r="2" transform="translate(469 7935)"/><circle class="f" cx="2" cy="2" r="2" transform="translate(482 7924)"/><circle class="f" cx="2" cy="2" r="2" transform="translate(482 7834)"/><circle class="f" cx="2" cy="2" r="2" transform="translate(405 7834)"/></g><g class="g" transform="translate(907.5 -1031)"><path class="e" d="M65.2,102,77,91.1V.7S.4.4.4.7" transform="translate(406.6 7835.434)"/><circle class="f" cx="2" cy="2" r="2" transform="translate(469 7935)"/><circle class="f" cx="2" cy="2" r="2" transform="translate(482 7924)"/><circle class="f" cx="2" cy="2" r="2" transform="translate(482 7834)"/><circle class="f" cx="2" cy="2" r="2" transform="translate(405 7834)"/></g></g></svg>