<svg xmlns="http://www.w3.org/2000/svg" xmlns:xlink="http://www.w3.org/1999/xlink" viewBox="0 0 764 1206"><defs><style>.a{opacity:0.4;}.b,.d,.g{stroke:#00b3ef;}.b,.d,.g,.i,.j,.k{stroke-miterlimit:10;}.b,.d{fill:url(#a);}.c{fill:#fff;}.d,.e{opacity:0.5;}.f{opacity:0.8;}.g{opacity:0.7;fill:url(#f);}.h{opacity:0.6;}.i,.j,.k{fill:none;stroke:#fff;stroke-width:2px;}.j,.k{stroke-linecap:round;}.j{stroke-linejoin:round;}</style><linearGradient id="a" x1="0.528" y1="0.301" x2="0.747" y2="0.761" gradientUnits="objectBoundingBox"><stop offset="0" stop-color="#004dc9" stop-opacity="0"/><stop offset="1" stop-color="#00b3ef" stop-opacity="0.502"/></linearGradient><radialGradient id="f" cx="0.5" cy="0.5" r="0.606" gradientTransform="matrix(0.577, 0, 0, 0.577, 0.212, 0.212)" gradientUnits="objectBoundingBox"><stop offset="0" stop-color="#004dc9" stop-opacity="0"/><stop offset="1" stop-color="#00bfff"/></radialGradient></defs><g transform="translate(-1259 -5257)"><g transform="translate(219 -1471)"><g class="a" transform="translate(930 6412)"><path class="b" d="M177.8,204.6,1,102.6,177.8.6l176.8,102Z" transform="translate(315.4 1313.9)"/><circle class="c" cx="2" cy="2" r="2" transform="translate(491 1518)"/><circle class="c" cx="2" cy="2" r="2" transform="translate(491 1311)"/><circle class="c" cx="2" cy="2" r="2" transform="translate(313 1415)"/><circle class="c" cx="2" cy="2" r="2" transform="translate(668 1415)"/></g><g transform="translate(930 6361)"><path class="d" d="M177.8,204.6,1,102.6,177.8.6l176.8,102Z" transform="translate(315.4 1313.9)"/><circle class="c" cx="2" cy="2" r="2" transform="translate(491 1518)"/><circle class="c" cx="2" cy="2" r="2" transform="translate(491 1311)"/><circle class="c" cx="2" cy="2" r="2" transform="translate(313 1415)"/><circle class="c" cx="2" cy="2" r="2" transform="translate(668 1415)"/></g><g class="e" transform="translate(930 6317)"><path class="b" d="M177.8,204.6,1,102.6,177.8.6l176.8,102Z" transform="translate(315.4 1313.9)"/><circle class="c" cx="2" cy="2" r="2" transform="translate(491 1518)"/><circle class="c" cx="2" cy="2" r="2" transform="translate(491 1311)"/><circle class="c" cx="2" cy="2" r="2" transform="translate(313 1415)"/><circle class="c" cx="2" cy="2" r="2" transform="translate(668 1415)"/></g><g class="f" transform="translate(930 6261)"><path class="b" d="M177.8,204.6,1,102.6,177.8.6l176.8,102Z" transform="translate(315.4 1313.9)"/><circle class="c" cx="2" cy="2" r="2" transform="translate(491 1518)"/><circle class="c" cx="2" cy="2" r="2" transform="translate(491 1311)"/><circle class="c" cx="2" cy="2" r="2" transform="translate(313 1415)"/><circle class="c" cx="2" cy="2" r="2" transform="translate(668 1415)"/></g><g transform="translate(930 6206)"><path class="b" d="M177.8,204.6,1,102.6,177.8.6l176.8,102Z" transform="translate(315.4 1313.9)"/><circle class="c" cx="2" cy="2" r="2" transform="translate(491 1518)"/><circle class="c" cx="2" cy="2" r="2" transform="translate(491 1311)"/><circle class="c" cx="2" cy="2" r="2" transform="translate(313 1415)"/><circle class="c" cx="2" cy="2" r="2" transform="translate(668 1415)"/></g><g transform="translate(930 6151)"><path class="g" d="M177.8,204.6,1,102.6,177.8.6l176.8,102L253.308,161.038Z" transform="translate(315.4 1313.9)"/><circle class="c" cx="2" cy="2" r="2" transform="translate(491 1518)"/><circle class="c" cx="2" cy="2" r="2" transform="translate(491 1311)"/><circle class="c" cx="2" cy="2" r="2" transform="translate(313 1415)"/><circle class="c" cx="2" cy="2" r="2" transform="translate(668 1415)"/></g><g class="h" transform="translate(930 5996)"><path class="d" d="M177.8,204.6,1,102.6,177.8.6l176.8,102Z" transform="translate(315.4 1313.9)"/><circle class="c" cx="2" cy="2" r="2" transform="translate(491 1518)"/><circle class="c" cx="2" cy="2" r="2" transform="translate(491 1311)"/><circle class="c" cx="2" cy="2" r="2" transform="translate(313 1415)"/><circle class="c" cx="2" cy="2" r="2" transform="translate(668 1415)"/></g><g class="f" transform="translate(930 5947)"><path class="b" d="M177.8,204.6,1,102.6,177.8.6l176.8,102Z" transform="translate(315.4 1313.9)"/><circle class="c" cx="2" cy="2" r="2" transform="translate(491 1518)"/><circle class="c" cx="2" cy="2" r="2" transform="translate(491 1311)"/><circle class="c" cx="2" cy="2" r="2" transform="translate(313 1415)"/><circle class="c" cx="2" cy="2" r="2" transform="translate(668 1415)"/></g><g transform="translate(930 5897)"><path class="b" d="M177.8,204.6,1,102.6,177.8.6l176.8,102Z" transform="translate(315.4 1313.9)"/><circle class="c" cx="2" cy="2" r="2" transform="translate(491 1518)"/><circle class="c" cx="2" cy="2" r="2" transform="translate(491 1311)"/><circle class="c" cx="2" cy="2" r="2" transform="translate(313 1415)"/><circle class="c" cx="2" cy="2" r="2" transform="translate(668 1415)"/></g><g transform="translate(930 5848)"><path class="g" d="M177.8,204.6,1,102.6,177.8.6l176.8,102L253.308,161.038Z" transform="translate(315.4 1313.9)"/><circle class="c" cx="2" cy="2" r="2" transform="translate(491 1518)"/><circle class="c" cx="2" cy="2" r="2" transform="translate(491 1311)"/><circle class="c" cx="2" cy="2" r="2" transform="translate(313 1415)"/><circle class="c" cx="2" cy="2" r="2" transform="translate(668 1415)"/></g><g class="h" transform="translate(930 5691)"><path class="d" d="M177.8,204.6,1,102.6,177.8.6l176.8,102Z" transform="translate(315.4 1313.9)"/><circle class="c" cx="2" cy="2" r="2" transform="translate(491 1518)"/><circle class="c" cx="2" cy="2" r="2" transform="translate(491 1311)"/><circle class="c" cx="2" cy="2" r="2" transform="translate(313 1415)"/><circle class="c" cx="2" cy="2" r="2" transform="translate(668 1415)"/></g><g class="f" transform="translate(930 5642)"><path class="b" d="M177.8,204.6,1,102.6,177.8.6l176.8,102Z" transform="translate(315.4 1313.9)"/><circle class="c" cx="2" cy="2" r="2" transform="translate(491 1518)"/><circle class="c" cx="2" cy="2" r="2" transform="translate(491 1311)"/><circle class="c" cx="2" cy="2" r="2" transform="translate(313 1415)"/><circle class="c" cx="2" cy="2" r="2" transform="translate(668 1415)"/></g><g transform="translate(1132 5417)"><path class="b" d="M177.8,204.6,1,102.6,177.8.6l176.8,102Z" transform="translate(315.4 1313.9)"/><circle class="c" cx="2" cy="2" r="2" transform="translate(491 1518)"/><circle class="c" cx="2" cy="2" r="2" transform="translate(491 1311)"/><circle class="c" cx="2" cy="2" r="2" transform="translate(313 1415)"/><circle class="c" cx="2" cy="2" r="2" transform="translate(668 1415)"/></g><g transform="translate(930 5592)"><path class="b" d="M177.8,204.6,1,102.6,177.8.6l176.8,102Z" transform="translate(315.4 1313.9)"/><circle class="c" cx="2" cy="2" r="2" transform="translate(491 1518)"/><circle class="c" cx="2" cy="2" r="2" transform="translate(491 1311)"/><circle class="c" cx="2" cy="2" r="2" transform="translate(313 1415)"/><circle class="c" cx="2" cy="2" r="2" transform="translate(668 1415)"/></g><g transform="translate(930 5543)"><path class="g" d="M177.8,204.6,1,102.6,177.8.6l176.8,102L253.308,161.038Z" transform="translate(315.4 1313.9)"/><circle class="c" cx="2" cy="2" r="2" transform="translate(491 1518)"/><circle class="c" cx="2" cy="2" r="2" transform="translate(491 1311)"/><circle class="c" cx="2" cy="2" r="2" transform="translate(313 1415)"/><circle class="c" cx="2" cy="2" r="2" transform="translate(668 1415)"/></g><g transform="translate(727 5417)"><path class="b" d="M177.8,204.6,1,102.6,177.8.6l176.8,102Z" transform="translate(315.4 1313.9)"/><circle class="c" cx="2" cy="2" r="2" transform="translate(491 1518)"/><circle class="c" cx="2" cy="2" r="2" transform="translate(491 1311)"/><circle class="c" cx="2" cy="2" r="2" transform="translate(313 1415)"/><circle class="c" cx="2" cy="2" r="2" transform="translate(668 1415)"/></g><g transform="translate(1374 6924.4)"><path class="i" d="M40.344,39.409l.2-23.209L2.2,16.4" transform="translate(1.222 15.884)"/><path class="i" d="M28.2,1.2,28,23.6H67.758" transform="translate(27.491 0.611)"/><path class="i" d="M2.2,31.573H52.049a2.372,2.372,0,0,0,2.422-1.413V23.7l.2-22.4" transform="translate(1.222 0.713)"/><path class="i" d="M74.784,12.3H35.026v6.458c-.2.807-1.009,1.211-2.422,1.413H21.3l-.2,23.007" transform="translate(20.466 11.913)"/><path class="i" d="M54.684.6,1,31.68,43.18,56.1,96.864,25.222Z"/></g><g transform="translate(1171.503 6798.541)"><path class="i" d="M2.507,34.735l25.2,14.718a9.822,9.822,0,0,0,8.808.223l46.16-26.759L95.5,22.8l-6.355-3.679L59.371,1.62A9.822,9.822,0,0,0,50.563,1.4L2.173,29.606C-.169,30.944-.057,33.285,2.507,34.735Z" transform="translate(0 0)"/><line class="i" y1="21.631" x2="37.24" transform="translate(19.567 12.435)"/><line class="i" y1="21.631" x2="37.129" transform="translate(25.03 15.557)"/><line class="i" y1="21.631" x2="37.24" transform="translate(30.382 18.79)"/></g><g transform="translate(1589.886 6798.526)"><g transform="translate(0.5 0.474)"><path class="j" d="M3.394,45.8,68.07,38.276c.723-.145,1.158-.434,1.158-1.013v-.145c0-.579-.434-1.013-1.013-1.447L44.775,21.058,31.174,1.669A3.216,3.216,0,0,0,29.293.512a1.743,1.743,0,0,0-1.736.579L.645,43.34a1.452,1.452,0,0,0,.434,1.736A4,4,0,0,0,3.394,45.8Z" transform="translate(-0.5 -0.474)"/></g><line class="k" x1="43.696" y2="24.018" transform="translate(1.079 21.058)"/></g></g><g transform="translate(1593.479 5761.509)"><path class="j" d="M62.1,15l-8.127-4.751C43.1,4.125,26.216,3.875,16.213,9.752s-9.253,15.754,1.5,22.006l8.127,4.626c4.876,2.751,7.377,6.752,6.627,10.5l-.125.75L44.221,54.39,61.6,44.137c4.376,2.251,10.878,2.376,14.754,0,3.876-2.251,3.751-6.127-.375-8.627L93.36,25.256,81.481,18.5l-1.25.125A33.579,33.579,0,0,1,62.1,15Z" transform="translate(2.162 1.253)"/><path class="k" d="M2.5,11.3c-4.751,8-.75,17.13,10.128,23.382" transform="translate(0 2.706)"/><path class="k" d="M58.986,7.254C48.108,1,32.229-1.123,18.6,1.753" transform="translate(4.526)"/><line class="k" y1="29.383" x2="49.764" transform="translate(35.755 20.508)"/><line class="k" y1="8.627" x2="14.504" transform="translate(63.762 36.763)"/></g><g transform="translate(1593.496 6056.539)"><path class="j" d="M10.425,25.677c-.5-7.943,4.137-15.72,12.079-20.518C35.742-2.453,55.433-.633,67.678,9.3L69.5,10.95m-9.6,4.8.165-.165a35.705,35.705,0,0,1,6.784-3.971c7.943-2.978,18.367-.993,24.159,4.633C97.793,22.7,96.8,31.634,88.692,36.432L74.3,44.706c-.165,0-.165.165-.331.165l-.331.165L73.3,45.2l-.165.165L37.562,66.217c-8.77,5.13-21.842,3.64-29.123-3.309C3.31,58.109,1.987,50.828,5.3,45.533l.5-.827-.827-.662c-.331-.331-.331-.5-.5-.662L4.3,43.217l-.331-.165-.331-.331C-1.157,38.253-.33,31.965,5.3,28.655a5.878,5.878,0,0,1,1.489-.662.578.578,0,0,0,.331-.165c.5-.165.827-.331,1.324-.5h.165A4.9,4.9,0,0,1,10.26,27h.5c.5,0,.993-.165,1.489-.165,4.3-.165,8.935,1.158,11.914,4.137" transform="translate(0)"/></g></g></svg>