<svg xmlns="http://www.w3.org/2000/svg" xmlns:xlink="http://www.w3.org/1999/xlink" viewBox="0 0 764 1593"><defs><style>.a{opacity:0.6;}.b,.e,.i,.j,.l,.n,.o,.p{stroke:#00b3ef;}.b,.e,.g,.h,.l,.p{stroke-miterlimit:10;}.b,.r{opacity:0.5;}.b,.e{fill:url(#a);}.c{fill:#fff;}.d,.l{opacity:0.7;}.f{opacity:0.8;}.g,.h,.i,.j,.m{fill:none;stroke-width:2px;}.g,.h,.m{stroke:#fff;}.h,.i,.j,.m{stroke-linecap:round;}.h{stroke-linejoin:round;}.j{stroke-dasharray:0 7;}.k{opacity:0.9;}.l{fill:url(#i);}.n{fill:url(#k);}.o{fill:url(#l);}.p{fill:url(#m);}.q{opacity:0.3;}</style><linearGradient id="a" x1="0.528" y1="0.301" x2="0.747" y2="0.761" gradientUnits="objectBoundingBox"><stop offset="0" stop-color="#004dc9" stop-opacity="0"/><stop offset="1" stop-color="#00b3ef" stop-opacity="0.502"/></linearGradient><radialGradient id="i" cx="0.5" cy="0.5" r="0.606" gradientTransform="matrix(0.577, 0, 0, 0.577, 0.212, 0.212)" gradientUnits="objectBoundingBox"><stop offset="0" stop-color="#004dc9" stop-opacity="0"/><stop offset="1" stop-color="#00bfff"/></radialGradient><linearGradient id="k" x1="1" y1="0.5" x2="0" y2="0.429" gradientUnits="objectBoundingBox"><stop offset="0" stop-color="#004dc9" stop-opacity="0"/><stop offset="1" stop-color="#00b3ef" stop-opacity="0.4"/></linearGradient><linearGradient id="l" x1="1" y1="0.581" x2="0" y2="0.631" gradientUnits="objectBoundingBox"><stop offset="0" stop-color="#004dc9" stop-opacity="0.502"/><stop offset="1" stop-color="#00b3ef" stop-opacity="0.4"/></linearGradient><radialGradient id="m" cx="0.5" cy="0.5" r="0.627" gradientTransform="translate(0.212 0.212) scale(0.577)" gradientUnits="objectBoundingBox"><stop offset="0" stop-color="#004dc9" stop-opacity="0"/><stop offset="1" stop-color="#00b3ef" stop-opacity="0.8"/></radialGradient></defs><g transform="translate(-1078 -935)"><g class="a" transform="translate(968 -102)"><path class="b" d="M177.8,204.6,1,102.6,177.8.6l176.8,102Z" transform="translate(315.4 1313.9)"/><circle class="c" cx="2" cy="2" r="2" transform="translate(491 1518)"/><circle class="c" cx="2" cy="2" r="2" transform="translate(491 1311)"/><circle class="c" cx="2" cy="2" r="2" transform="translate(313 1415)"/><circle class="c" cx="2" cy="2" r="2" transform="translate(668 1415)"/></g><g class="d" transform="translate(968 -127)"><path class="e" d="M177.8,204.6,1,102.6,177.8.6l176.8,102Z" transform="translate(315.4 1313.9)"/><circle class="c" cx="2" cy="2" r="2" transform="translate(491 1518)"/><circle class="c" cx="2" cy="2" r="2" transform="translate(491 1311)"/><circle class="c" cx="2" cy="2" r="2" transform="translate(313 1415)"/><circle class="c" cx="2" cy="2" r="2" transform="translate(668 1415)"/></g><g class="f" transform="translate(968 -151)"><path class="e" d="M177.8,204.6,1,102.6,177.8.6l176.8,102Z" transform="translate(315.4 1313.9)"/><circle class="c" cx="2" cy="2" r="2" transform="translate(491 1518)"/><circle class="c" cx="2" cy="2" r="2" transform="translate(491 1311)"/><circle class="c" cx="2" cy="2" r="2" transform="translate(313 1415)"/><circle class="c" cx="2" cy="2" r="2" transform="translate(668 1415)"/></g><g transform="translate(765 -376)"><path class="e" d="M177.8,204.6,1,102.6,177.8.6l176.8,102Z" transform="translate(315.4 1313.9)"/><circle class="c" cx="2" cy="2" r="2" transform="translate(491 1518)"/><circle class="c" cx="2" cy="2" r="2" transform="translate(491 1311)"/><circle class="c" cx="2" cy="2" r="2" transform="translate(313 1415)"/><circle class="c" cx="2" cy="2" r="2" transform="translate(668 1415)"/></g><g transform="translate(1170 -376)"><path class="e" d="M177.8,204.6,1,102.6,177.8.6l176.8,102Z" transform="translate(315.4 1313.9)"/><circle class="c" cx="2" cy="2" r="2" transform="translate(491 1518)"/><circle class="c" cx="2" cy="2" r="2" transform="translate(491 1311)"/><circle class="c" cx="2" cy="2" r="2" transform="translate(313 1415)"/><circle class="c" cx="2" cy="2" r="2" transform="translate(668 1415)"/></g><g transform="translate(1614 1012.4)"><path class="g" d="M40.344,39.409l.2-23.209L2.2,16.4" transform="translate(1.222 15.884)"/><path class="g" d="M28.2,1.2,28,23.6H67.758" transform="translate(27.491 0.611)"/><path class="g" d="M2.2,31.573H52.049a2.372,2.372,0,0,0,2.422-1.413V23.7l.2-22.4" transform="translate(1.222 0.713)"/><path class="g" d="M74.784,12.3H35.026v6.458c-.2.807-1.009,1.211-2.422,1.413H21.3l-.2,23.007" transform="translate(20.466 11.913)"/><path class="g" d="M54.684.6,1,31.68,43.18,56.1,96.864,25.222Z"/></g><g transform="translate(1214.93 1012.993)"><g transform="translate(0.473 0.5)"><path class="g" d="M83.791,19.543,3.189.5A4.915,4.915,0,0,0,1.2.721C.754.943.311,1.607.532,2.05L23.118,54.308a2.191,2.191,0,0,0,1.55,1.107,2.961,2.961,0,0,0,1.993-.221L84.9,21.979h0a.923.923,0,0,0,0-1.771A1.218,1.218,0,0,0,83.791,19.543Z" transform="translate(-0.473 -0.5)"/><path class="h" d="M9.4,6.6,30.657,21.214" transform="translate(10.366 6.907)"/><path class="c" d="M20.864,14.369a1.255,1.255,0,0,0,0,2.214,3.436,3.436,0,0,0,3.543.221,1.255,1.255,0,0,0,0-2.214A3.961,3.961,0,0,0,20.864,14.369Z" transform="translate(23.481 15.967)"/></g></g><g transform="translate(495 -348)"><path class="i" d="M761.791,4107l-5.582,5.582L750.628,4107" transform="translate(-82.972 -2535.986)"/><path class="j" d="M762.237,4107V3970.42" transform="translate(-89 -2531)"/></g><g transform="translate(1081 -348)"><path class="i" d="M761.791,4107l-5.582,5.582L750.628,4107" transform="translate(-82.972 -2535.986)"/><path class="j" d="M762.237,4107V3970.42" transform="translate(-89 -2531)"/></g><g transform="translate(968 -225)"><path class="e" d="M177.8,204.6,1,102.6,177.8.6l176.8,102Z" transform="translate(315.4 1313.9)"/><circle class="c" cx="2" cy="2" r="2" transform="translate(491 1518)"/><circle class="c" cx="2" cy="2" r="2" transform="translate(491 1311)"/><circle class="c" cx="2" cy="2" r="2" transform="translate(313 1415)"/><circle class="c" cx="2" cy="2" r="2" transform="translate(668 1415)"/></g><g class="k" transform="translate(968 -201)"><path class="e" d="M177.8,204.6,1,102.6,177.8.6l176.8,102Z" transform="translate(315.4 1313.9)"/><circle class="c" cx="2" cy="2" r="2" transform="translate(491 1518)"/><circle class="c" cx="2" cy="2" r="2" transform="translate(491 1311)"/><circle class="c" cx="2" cy="2" r="2" transform="translate(313 1415)"/><circle class="c" cx="2" cy="2" r="2" transform="translate(668 1415)"/></g><g class="f" transform="translate(968 -176)"><path class="e" d="M177.8,204.6,1,102.6,177.8.6l176.8,102Z" transform="translate(315.4 1313.9)"/><circle class="c" cx="2" cy="2" r="2" transform="translate(491 1518)"/><circle class="c" cx="2" cy="2" r="2" transform="translate(491 1311)"/><circle class="c" cx="2" cy="2" r="2" transform="translate(313 1415)"/><circle class="c" cx="2" cy="2" r="2" transform="translate(668 1415)"/></g><g transform="translate(968 -250)"><path class="l" d="M177.8,204.6,1,102.6,177.8.6l176.8,102L253.308,161.038Z" transform="translate(315.4 1313.9)"/><circle class="c" cx="2" cy="2" r="2" transform="translate(491 1518)"/><circle class="c" cx="2" cy="2" r="2" transform="translate(491 1311)"/><circle class="c" cx="2" cy="2" r="2" transform="translate(313 1415)"/><circle class="c" cx="2" cy="2" r="2" transform="translate(668 1415)"/></g><g transform="translate(1002.536 -274.57)"><g transform="translate(402.942 1409.059)"><g transform="translate(0.522 0.511)"><path class="g" d="M12.563,27.518,1.892,33.684c-1.66.949-1.9,2.609-.237,3.557L46.237,63.563a6.35,6.35,0,0,0,6.166-.237l55.728-32.251c1.9-.949,1.9-2.609.237-3.557L63.786,1.2a6.35,6.35,0,0,0-6.166.237L46.949,7.6,44.577,9.021,14.935,26.1Z" transform="translate(-0.522 -0.511)"/></g><line class="g" x1="61.419" y2="35.808" transform="translate(11.378 6.65)"/><line class="h" x2="11.62" y2="6.877" transform="translate(9.481 24.198)"/><line class="h" x2="11.62" y2="6.877" transform="translate(41.494 5.701)"/></g><g transform="translate(19)"><path class="m" d="M8.637,30.773,0,35.808" transform="translate(433.32 1404.709)"/><path class="m" d="M8.637,30.773,0,35.808" transform="translate(450.32 1394.709)"/></g><g transform="translate(36 12)"><path class="m" d="M8.637,30.773,0,35.808" transform="translate(433.32 1404.709)"/><path class="m" d="M8.637,30.773,0,35.808" transform="translate(450.32 1394.709)"/></g><g transform="translate(11 16)"><path class="m" d="M8.637,30.773,0,35.808" transform="translate(433.32 1404.709)"/><path class="m" d="M8.637,30.773,0,35.808" transform="translate(450.32 1394.709)"/></g></g><g transform="translate(968 312)"><path class="e" d="M177.8,204.6,1,102.6,177.8.6l176.8,102Z" transform="translate(315.4 1313.9)"/><circle class="c" cx="2" cy="2" r="2" transform="translate(491 1518)"/><circle class="c" cx="2" cy="2" r="2" transform="translate(491 1311)"/><circle class="c" cx="2" cy="2" r="2" transform="translate(313 1415)"/><circle class="c" cx="2" cy="2" r="2" transform="translate(668 1415)"/></g><g transform="translate(979 -11)"><path class="g" d="M1.6,31.935a1.412,1.412,0,0,1,.687-1.03l5.322-3.09a53.047,53.047,0,0,1,2.4-5.494L8.3,17.515c-.172-.172,0-.687.172-1.2l3.777-5.15.343-.343a.322.322,0,0,1,.515,0l3.777,2.06A34.213,34.213,0,0,1,21,9.618l2.232-6.867a1.141,1.141,0,0,1,.687-.858h.172L28.554.519a.379.379,0,0,1,.515.515v6.18a7.814,7.814,0,0,1,3.433.858l4.978-4.979.343-.343c.172-.172.515-.172.515,0l2.575,2.918c.172.172.172.687-.172,1.2L37.31,13.394A11.853,11.853,0,0,1,38,17.686l4.807-.172c.343-.172.515.172.515.687l-1.03,5.665A1.412,1.412,0,0,1,41.6,24.9l-5.322,3.09a50.083,50.083,0,0,1-2.4,5.322l1.888,4.635c.172.172,0,.687-.172,1.2L31.816,44.3l-.343.343a.322.322,0,0,1-.515,0l-3.777-2.06a34.213,34.213,0,0,1-4.12,3.262l-2.232,6.867a1.141,1.141,0,0,1-.687.858h-.172l-4.807,1.717a.379.379,0,0,1-.515-.515v-6.18a7.814,7.814,0,0,1-3.433-.858l-5.15,5.15-.343.343c-.172.172-.515.172-.515,0l-2.4-3.09c-.172-.172-.172-.687.172-1.2L6.58,42.407a17.306,17.306,0,0,1-.858-4.292l-4.807.172C.572,38.459.4,38.115.4,37.6Zm18.541,6.524a9.2,9.2,0,0,0,1.888-.858c3.948-2.232,7.382-7.382,8.24-12.36,1.03-5.837-1.888-9.27-6.524-7.9a9.2,9.2,0,0,0-1.888.858c-3.948,2.232-7.382,7.382-8.24,12.36-.858,5.837,2.06,9.442,6.524,7.9Z" transform="translate(408.911 1640.625)"/><path class="g" d="M1.849,38.4a1.7,1.7,0,0,1,.828-1.242l6.416-3.725a63.948,63.948,0,0,1,2.9-6.622L9.92,21.017c-.207-.207,0-.828.207-1.449L14.68,13.36l.414-.414a.388.388,0,0,1,.621,0l4.553,2.483A41.244,41.244,0,0,1,25.234,11.5l2.69-8.278a1.375,1.375,0,0,1,.828-1.035h.207L34.34.528a.457.457,0,0,1,.621.621V8.6A9.42,9.42,0,0,1,39.1,9.634l6-6,.414-.414c.207-.207.621-.207.621,0l3.1,3.518c.207.207.207.828-.207,1.449L44.895,16.05a14.289,14.289,0,0,1,.828,5.174l5.795-.207c.414-.207.621.207.621.828L50.9,28.674a1.7,1.7,0,0,1-.828,1.242l-6.416,3.725a60.374,60.374,0,0,1-2.9,6.416l2.276,5.588c.207.207,0,.828-.207,1.449L38.272,53.3l-.414.414a.388.388,0,0,1-.621,0l-4.553-2.483a41.243,41.243,0,0,1-4.967,3.932l-2.69,8.278a1.375,1.375,0,0,1-.828,1.035h-.207L18.2,66.546a.457.457,0,0,1-.621-.621v-7.45a9.42,9.42,0,0,1-4.139-1.035L7.229,63.649l-.414.414c-.207.207-.621.207-.621,0L3.3,60.338c-.207-.207-.207-.828.207-1.449L7.85,51.025a20.863,20.863,0,0,1-1.035-5.174l-5.795.207C.607,46.265.4,45.851.4,45.23ZM24.2,46.265a11.091,11.091,0,0,0,2.276-1.035c4.76-2.69,8.9-8.9,9.934-14.9,1.242-7.036-2.276-11.175-7.864-9.52a11.091,11.091,0,0,0-2.276,1.035c-4.76,2.69-8.9,8.9-9.934,14.9-1.035,7.036,2.483,11.382,7.864,9.52Z" transform="translate(425.911 1681.352)"/><path class="g" d="M2.832,64.141a2.856,2.856,0,0,1,1.39-2.084L14.991,55.8a107.348,107.348,0,0,1,4.864-11.117l-3.474-9.727c-.347-.347,0-1.39.347-2.432L24.371,22.1l.695-.695a.651.651,0,0,1,1.042,0l7.643,4.169a69.236,69.236,0,0,1,8.338-6.6L46.6,5.082a2.308,2.308,0,0,1,1.39-1.737h.347L57.375.566a.768.768,0,0,1,1.042,1.042V14.115a15.814,15.814,0,0,1,6.948,1.737L75.44,5.777l.695-.695c.347-.347,1.042-.347,1.042,0l5.211,5.906c.347.347.347,1.39-.347,2.432l-6.948,13.2a23.987,23.987,0,0,1,1.39,8.685l9.727-.347c.695-.347,1.042.347,1.042,1.39L85.167,47.813a2.856,2.856,0,0,1-1.39,2.084l-10.77,6.253a101.349,101.349,0,0,1-4.864,10.77l3.821,9.38c.347.347,0,1.39-.347,2.432L63.975,89.154l-.695.695a.651.651,0,0,1-1.042,0L54.6,85.68a69.234,69.234,0,0,1-8.338,6.6l-4.516,13.9a2.308,2.308,0,0,1-1.39,1.737H40l-9.727,3.474a.768.768,0,0,1-1.042-1.042V97.839A15.814,15.814,0,0,1,22.287,96.1L11.864,106.525l-.695.695c-.347.347-1.042.347-1.042,0l-4.864-6.253c-.347-.347-.347-1.39.347-2.432l7.3-13.2a35.022,35.022,0,0,1-1.737-8.685L1.442,77C.747,77.343.4,76.648.4,75.605Zm37.52,13.2a18.618,18.618,0,0,0,3.821-1.737c7.99-4.516,14.938-14.938,16.675-25.013,2.084-11.812-3.821-18.76-13.2-15.981a18.619,18.619,0,0,0-3.821,1.737c-7.99,4.516-14.938,14.938-16.675,25.013-1.737,11.812,4.169,19.107,13.2,15.981Z" transform="translate(479.911 1619.472)"/></g><path class="n" d="M2314.759,4000.832l-.222,206.569,176.507,101.965-.183-206.922Z" transform="translate(-1030 -2479)"/><path class="o" d="M2666.012,4000.832v207.187l-176.117,101.272V4102.238Z" transform="translate(-1029 -2479)"/><g transform="translate(968 105)"><path class="p" d="M177.8,204.6,1,102.6,177.8.6l176.8,102Z" transform="translate(315.4 1313.9)"/><circle class="c" cx="2" cy="2" r="2" transform="translate(491 1518)"/><circle class="c" cx="2" cy="2" r="2" transform="translate(491 1311)"/><circle class="c" cx="2" cy="2" r="2" transform="translate(313 1415)"/><circle class="c" cx="2" cy="2" r="2" transform="translate(668 1415)"/></g><g class="f" transform="translate(968 587)"><path class="b" d="M177.8,204.6,1,102.6,177.8.6l176.8,102Z" transform="translate(315.4 1313.9)"/><circle class="c" cx="2" cy="2" r="2" transform="translate(491 1518)"/><circle class="c" cx="2" cy="2" r="2" transform="translate(491 1311)"/><circle class="c" cx="2" cy="2" r="2" transform="translate(313 1415)"/><circle class="c" cx="2" cy="2" r="2" transform="translate(668 1415)"/></g><g class="q" transform="translate(968 1006)"><path class="b" d="M177.8,204.6,1,102.6,177.8.6l176.8,102Z" transform="translate(315.4 1313.9)"/><circle class="c" cx="2" cy="2" r="2" transform="translate(491 1518)"/><circle class="c" cx="2" cy="2" r="2" transform="translate(491 1311)"/><circle class="c" cx="2" cy="2" r="2" transform="translate(313 1415)"/><circle class="c" cx="2" cy="2" r="2" transform="translate(668 1415)"/></g><g class="r" transform="translate(968 975)"><path class="b" d="M177.8,204.6,1,102.6,177.8.6l176.8,102Z" transform="translate(315.4 1313.9)"/><circle class="c" cx="2" cy="2" r="2" transform="translate(491 1518)"/><circle class="c" cx="2" cy="2" r="2" transform="translate(491 1311)"/><circle class="c" cx="2" cy="2" r="2" transform="translate(313 1415)"/><circle class="c" cx="2" cy="2" r="2" transform="translate(668 1415)"/></g><g class="d" transform="translate(968 937)"><path class="b" d="M177.8,204.6,1,102.6,177.8.6l176.8,102Z" transform="translate(315.4 1313.9)"/><circle class="c" cx="2" cy="2" r="2" transform="translate(491 1518)"/><circle class="c" cx="2" cy="2" r="2" transform="translate(491 1311)"/><circle class="c" cx="2" cy="2" r="2" transform="translate(313 1415)"/><circle class="c" cx="2" cy="2" r="2" transform="translate(668 1415)"/></g><g class="k" transform="translate(968 901)"><path class="b" d="M177.8,204.6,1,102.6,177.8.6l176.8,102Z" transform="translate(315.4 1313.9)"/><circle class="c" cx="2" cy="2" r="2" transform="translate(491 1518)"/><circle class="c" cx="2" cy="2" r="2" transform="translate(491 1311)"/><circle class="c" cx="2" cy="2" r="2" transform="translate(313 1415)"/><circle class="c" cx="2" cy="2" r="2" transform="translate(668 1415)"/></g><g transform="translate(968 551)"><path class="l" d="M177.8,204.6,1,102.6,177.8.6l176.8,102L253.308,161.038Z" transform="translate(315.4 1313.9)"/><circle class="c" cx="2" cy="2" r="2" transform="translate(491 1518)"/><circle class="c" cx="2" cy="2" r="2" transform="translate(491 1311)"/><circle class="c" cx="2" cy="2" r="2" transform="translate(313 1415)"/><circle class="c" cx="2" cy="2" r="2" transform="translate(668 1415)"/></g><g transform="translate(968 870)"><path class="l" d="M177.8,204.6,1,102.6,177.8.6l176.8,102L253.308,161.038Z" transform="translate(315.4 1313.9)"/><circle class="c" cx="2" cy="2" r="2" transform="translate(491 1518)"/><circle class="c" cx="2" cy="2" r="2" transform="translate(491 1311)"/><circle class="c" cx="2" cy="2" r="2" transform="translate(313 1415)"/><circle class="c" cx="2" cy="2" r="2" transform="translate(668 1415)"/></g><g transform="translate(1406.027 1489.975)"><g transform="translate(-0.027 0.025)"><path class="c" d="M62.05.9,1.668,35.869c-2.1,1.166-2.331,3.264-.233,4.43L38.969,61.98a8.184,8.184,0,0,0,7.693-.233L70.209,48.226l5.129,3.031c-2.1,1.865-2.331,4.2-.233,5.828l-4.2,2.331c-.7.466-.7,1.166,0,1.4a2.526,2.526,0,0,0,2.564,0L105.413,42.4c.7-.466.7-1.166,0-1.4a2.526,2.526,0,0,0-2.564,0l-4.2,2.331a14.817,14.817,0,0,0-10.025.233L83.5,40.532l23.78-13.522c2.1-1.166,2.331-3.264.233-4.43L69.743.9C67.878-.266,64.381-.266,62.05.9ZM96.321,44.962,78.136,55.453c-.933-1.166-.466-2.564,1.166-3.73l10.724-6.061A8.3,8.3,0,0,1,96.321,44.962ZM78.136,49.624l-5.129-3.031,7.927-4.663,5.129,2.8ZM104.713,23.98c.7.466.7,1.166,0,1.4L44.332,60.349a2.526,2.526,0,0,1-2.564,0l-6.295-3.73L98.419,20.249Zm-8.859-5.129L32.908,55.22,4.232,38.667c-.7-.466-.7-1.166,0-1.4L64.614,2.3a2.526,2.526,0,0,1,2.564,0Z" transform="translate(0.027 -0.025)"/></g><g transform="translate(66.421 38.084)"><path class="c" d="M34.362,16.7,29,19.73c-.7.466-.7,1.166,0,1.4a2.526,2.526,0,0,0,2.564,0L36.926,18.1c.7-.466.7-1.166,0-1.4A2.526,2.526,0,0,0,34.362,16.7Z" transform="translate(-28.475 -16.35)"/></g><g transform="translate(37.041 9.458)"><path class="c" d="M34.354,5.071c-2.1,1.166-2.331,3.264-.233,4.43a10.839,10.839,0,0,0,2.1.7l-.7,11.89-2.1.7c-.7.466-1.166.7-1.4,1.166H26.893a2.809,2.809,0,0,0-1.166-1.166,8.184,8.184,0,0,0-7.693.233c-2.1,1.166-2.331,3.264-.233,4.43a10.839,10.839,0,0,0,2.1.7l-.233,6.061-2.1.7c-2.1,1.166-2.331,3.264-.233,4.43a8.184,8.184,0,0,0,7.693-.233c2.1-1.166,2.331-3.264.233-4.43a10.838,10.838,0,0,0-2.1-.7l.233-6.061,2.1-.7c.7-.466,1.166-.7,1.4-1.166h5.129a2.809,2.809,0,0,0,1.166,1.166,8.184,8.184,0,0,0,7.693-.233c2.1-1.166,2.331-3.264.233-4.43a10.839,10.839,0,0,0-2.1-.7l.7-11.89,2.1-.7c2.331-1.166,2.331-3.031.233-4.43A8.911,8.911,0,0,0,34.354,5.071ZM22.231,38.176a2.526,2.526,0,0,1-2.564,0c-.7-.466-.7-1.166,0-1.4a2.526,2.526,0,0,1,2.564,0C22.93,37.01,22.93,37.71,22.231,38.176Zm.7-12.123a2.526,2.526,0,0,1-2.564,0c-.7-.466-.7-1.166,0-1.4a3.266,3.266,0,0,1,2.564,0C23.629,25.12,23.629,25.82,22.93,26.053Zm15.387-.233a2.526,2.526,0,0,1-2.564,0c-.7-.466-.7-1.166,0-1.4a2.526,2.526,0,0,1,2.564,0Q39.366,25.12,38.317,25.82Zm.933-17.951a2.526,2.526,0,0,1-2.564,0c-.7-.466-.7-1.166,0-1.4a2.526,2.526,0,0,1,2.564,0C40.182,6.936,39.949,7.635,39.249,7.868Z" transform="translate(-15.873 -4.071)"/></g></g><g transform="translate(1411.819 1943)"><path class="c" d="M31.871,13.476,18.014,21.329l9.238,5.543L42.5,18.1l2.771,1.848L25.4,31.49,0,15.786,18.938,4.7,21.71,6.548,7.39,14.862,15.7,19.481l13.4-7.852Z" transform="translate(0 17.01)"/><path class="c" d="M18.657,11.624l-10.624,6L4.8,16.243,31.129,1,33.9,2.848l-10.624,6,23.1,13.4-4.619,2.771Z" transform="translate(17.371 3.619)"/><path class="c" d="M11.3,2.771,15.919,0l23.1,13.4L53.8,4.619l2.771,1.848-19.4,11.086Z" transform="translate(40.895)"/></g><g transform="translate(1408.544 2255.5)"><path class="h" d="M52.6,56.5l-6.5,3.9L30.2,51l6.5-3.9Z"/><path class="h" d="M91.6,33.4l-6.5,3.9L60.7,22.7l6.5-3.9Z"/><path class="h" d="M78.6,41.1,72.1,45,53,33.6l6.5-3.9Z"/><path class="h" d="M65.6,48.8l-6.5,3.9L27.4,33.8l6.5-3.9Z"/><path class="h" d="M104.5,25.6,98,29.5,87.4,23.2l6.5-3.9Z"/><path class="h" d="M63.2,4.9,59.5,7.1,38.9,4.8c-.9-.1-1.7.3-1.8.8v.3l5.6,17.4L2.6,14a3.21,3.21,0,0,0-1.7.2c-.4.3-.6.7-.3,1L21.1,43.8l-4.7,2.8M65.3,6.2"/><path class="h" d="M63.9,5.5,66,6.8a2.562,2.562,0,0,0,2.1,0,.723.723,0,0,0,.4-.6l.7-4.7c.1-.5-.5-.9-1.4-1h-.4l-7,1c-.8.1-1.3.6-1.2,1.1a.781.781,0,0,0,.4.4l2.1,1.3Z"/></g></g></svg>