<svg xmlns="http://www.w3.org/2000/svg" xmlns:xlink="http://www.w3.org/1999/xlink" viewBox="0 0 321.043 233.002"><defs><style>.a,.f,.g{fill:none;}.a{stroke:#6bbdff;opacity:0.7;}.a,.e,.f,.h,.i,.j{stroke-miterlimit:10;}.b{fill:#004dc9;}.c{opacity:0.5;}.d{fill:#ebf5f8;}.d,.e,.f,.g,.h,.i,.j{stroke:#004dc9;}.e{fill:url(#a);}.h{fill:url(#b);}.i{fill:url(#c);}.j{fill:url(#d);}</style><radialGradient id="a" cx="0.5" cy="0.5" r="0.5" gradientUnits="objectBoundingBox"><stop offset="0" stop-color="#fff"/><stop offset="1" stop-color="#d4e4fe"/></radialGradient><linearGradient id="b" x1="0.891" y1="0.307" x2="0" y2="0.894" gradientUnits="objectBoundingBox"><stop offset="0" stop-color="#fff"/><stop offset="1" stop-color="#d7e6fe"/></linearGradient><linearGradient id="c" y1="0.869" x2="0.815" y2="0.36" gradientUnits="objectBoundingBox"><stop offset="0" stop-color="#fff" stop-opacity="0.702"/><stop offset="1" stop-color="#d7e6fe"/></linearGradient><linearGradient id="d" x1="0.211" y1="0.793" x2="1" y2="0.083" xlink:href="#a"/></defs><g transform="translate(-1243.979 -3280.998)"><g transform="translate(1243.979 3311)"><path class="a" d="M159.107,183.032,1,91.816,159.107.6,317.214,91.816l-90.582,52.259Z" transform="translate(2.041 2.53)"/><circle class="b" cx="1.789" cy="1.789" r="1.789" transform="translate(159.18 185.114)"/><circle class="b" cx="1.789" cy="1.789" r="1.789" transform="translate(159.18 0)"/><circle class="b" cx="1.789" cy="1.789" r="1.789" transform="translate(0 93.004)"/><circle class="b" cx="1.789" cy="1.789" r="1.789" transform="translate(317.466 93.004)"/></g><g class="c" transform="translate(1243.979 3325.309)"><path class="a" d="M159.107,183.032,1,91.816,159.107.6,317.214,91.816l-90.582,52.259Z" transform="translate(2.041 2.53)"/><circle class="b" cx="1.789" cy="1.789" r="1.789" transform="translate(159.18 185.114)"/><circle class="b" cx="1.789" cy="1.789" r="1.789" transform="translate(159.18 0)"/><circle class="b" cx="1.789" cy="1.789" r="1.789" transform="translate(0 93.004)"/><circle class="b" cx="1.789" cy="1.789" r="1.789" transform="translate(317.466 93.004)"/></g><path class="d" d="M427.225,5915.44l-20.84-11.646-98.9,57.782v90.536" transform="translate(1043 -2621)"/><g transform="translate(1370.414 3294.931)"><g transform="translate(0.672 0)"><path class="e" d="M.7,57.786l.134,90.776L99.679,91.542,99.545.9ZM32.976,38.824ZM54.359,71.369l-8.472,4.841V56.173l8.472-4.841Z" transform="translate(-0.7 -0.9)"/></g><line class="f" y1="26.224" x2="45.455" transform="translate(54.331 34.293)"/><line class="f" y1="26.359" x2="45.993" transform="translate(0 65.359)"/><circle class="b" cx="1.79" cy="1.79" r="1.79" transform="translate(-0.932 55.066)"/><circle class="b" cx="1.79" cy="1.79" r="1.79" transform="translate(44.068 64.066)"/><circle class="b" cx="1.79" cy="1.79" r="1.79" transform="translate(53.068 59.066)"/><circle class="b" cx="1.79" cy="1.79" r="1.79" transform="translate(53.068 49.066)"/><circle class="b" cx="1.79" cy="1.79" r="1.79" transform="translate(44.068 54.066)"/><circle class="b" cx="1.79" cy="1.79" r="1.79" transform="translate(53.068 69.066)"/><circle class="b" cx="1.79" cy="1.79" r="1.79" transform="translate(44.068 74.066)"/><circle class="b" cx="1.79" cy="1.79" r="1.79" transform="translate(98.068 -1.934)"/><circle class="b" cx="1.79" cy="1.79" r="1.79" transform="translate(77.068 -13.934)"/><circle class="b" cx="1.79" cy="1.79" r="1.79" transform="translate(52.068 9.066)"/><circle class="b" cx="1.79" cy="1.79" r="1.79" transform="translate(27.068 24.066)"/><circle class="b" cx="1.79" cy="1.79" r="1.79" transform="translate(27.068 12.066)"/><circle class="b" cx="1.79" cy="1.79" r="1.79" transform="translate(52.068 -1.934)"/><circle class="b" cx="1.79" cy="1.79" r="1.79" transform="translate(-0.932 90.066)"/><circle class="b" cx="1.79" cy="1.79" r="1.79" transform="translate(98.068 33.066)"/><circle class="b" cx="1.79" cy="1.79" r="1.79" transform="translate(-0.932 146.066)"/><circle class="b" cx="1.79" cy="1.79" r="1.79" transform="translate(98.068 89.066)"/></g><path class="g" d="M427.225,5915.44l-20.84-11.646" transform="translate(944 -2473)"/><path class="g" d="M427.225,5915.44l-20.84-11.646" transform="translate(944 -2563)"/><path class="f" d="M25.9,11.9V.9L.5,15.5V26.4" transform="translate(1398.5 3294.1)"/><circle class="b" cx="1.789" cy="1.789" r="1.789" transform="translate(1348.979 3339.004)"/><circle class="b" cx="1.789" cy="1.789" r="1.789" transform="translate(1348.979 3429.004)"/><g transform="translate(1347.501 3382.555)"><g transform="translate(0.499 0.445)"><path class="h" d="M24.192,37.867l16.7-9.326C43.672,34.107,50.968,33.2,57.21,26.51a30.223,30.223,0,0,0,5.34-8.2c.3-.752.15-1.354-.3-1.5a.716.716,0,0,0-.526.15l-8.875,4.964-2.557-4.513,2.632-7.371L61.8,5.074a2.185,2.185,0,0,0,1.053-1.805.877.877,0,0,0-.15-.526C59.016-1.77,51.419.562,45.628,8.008a31.166,31.166,0,0,0-4.663,8.65l-16.7,9.326C22.312,22,17.949,21.17,13.06,23.878,6.216,27.638.575,37.19.5,45.088S5.915,56.37,12.835,52.609C17.648,49.9,22.161,44.11,24.192,37.867Z" transform="translate(-0.499 -0.445)"/></g><g transform="translate(6.216 29.143)"><path class="f" d="M8.1,55.974l.075-9.1L14.944,38.6l6.694.827-.075,9.026-6.769,8.273Z" transform="translate(-8.1 -38.6)"/></g><g transform="translate(24.342 22.674)"><path class="i" d="M48.747,30,32.2,39.176" transform="translate(-32.2 -30)"/></g></g><g transform="translate(1440.5 3317.639)"><path class="j" d="M39,30.1,38.9,33c0,.5.6.6,1.4.2l4.3-2.3a3.126,3.126,0,0,0,1.1-.9,6.549,6.549,0,0,1,1.8-1.5,3.777,3.777,0,0,1,1.8-.5,2.236,2.236,0,0,0,1-.3L73.1,15.4c5.5-3,8.1-7.4,8.3-11.1.1-3.7-2.3-5.4-7.9-2.4L50.7,14.3a3.126,3.126,0,0,0-1.1.9,6.549,6.549,0,0,1-1.8,1.5,3.777,3.777,0,0,1-1.8.5,2.236,2.236,0,0,0-1,.3l-4.3,2.3a2.965,2.965,0,0,0-1.5,1.7l-.1,2.9ZM.5,49.7l.1-3.6,7-5H10a1.421,1.421,0,0,0,.6-.2L39.1,25.5,39,28.6,10.5,44.1a2.651,2.651,0,0,0-.6.5L7.4,47.2Z"/><line class="f" y1="12.6" x2="23.4" transform="translate(51 8.3)"/></g></g></svg>