<svg xmlns="http://www.w3.org/2000/svg" xmlns:xlink="http://www.w3.org/1999/xlink" viewBox="0 0 145.5 141"><defs><style>.a,.e,.f{fill:none;}.b{clip-path:url(#a);}.c,.d,.e{stroke:#00b3ef;}.c,.d,.e,.f{stroke-miterlimit:10;}.c,.d{fill:url(#b);}.d,.e,.f{stroke-linecap:round;stroke-linejoin:round;}.f{stroke:#7ed8f6;}.g{fill:#004dc9;}.h{fill:#7ea5e3;}</style><clipPath id="a"><rect class="a" width="145.5" height="141"/></clipPath><linearGradient id="b" x1="0.5" x2="0.5" y2="1" gradientUnits="objectBoundingBox"><stop offset="0" stop-color="#fff"/><stop offset="1" stop-color="#ebf5f8"/></linearGradient></defs><g class="b"><g transform="translate(-274.5 -7820)"><g transform="translate(276 7819.517)"><path class="c" d="M64.7,37.1v90.4l11.9,10.9,8.8-6.7,8.8,6.7,8.8-6.7,8.8,6.7,8.9-6.7,8.8,6.7,11.8-10.9V37.3Z"/><circle class="d" cx="20.5" cy="20.5" r="20.5" transform="translate(82.5 67.3)"/><line class="e" y2="12.8" transform="translate(103 85.8)"/><path class="f" d="M105.2,24.4H.5V93.8H58.8"/><path class="f" d="M27.8,109.8H52.5V94.4"/><line class="f" x1="5.8" transform="translate(52.5 109.8)"/><line class="f" x2="57.6" transform="translate(1.2 83.1)"/><path class="f" d="M133.4,23.4a24.1,24.1,0,0,0-6.9-16,23.656,23.656,0,0,0-32.7-.7L89,1.9a1.128,1.128,0,0,0-1.1-.3.849.849,0,0,0-.7.8L84.6,16.1a1.015,1.015,0,0,0,.3,1,.959.959,0,0,0,1,.3l13.7-2.6a1.143,1.143,0,0,0,.8-.7,1.191,1.191,0,0,0-.3-1.1l-2.8-2.8"/></g><circle class="g" cx="2" cy="2" r="2" transform="translate(339 7855)"/><circle class="g" cx="2" cy="2" r="2" transform="translate(415 7855)"/><circle class="g" cx="2" cy="2" r="2" transform="translate(377 7899)"/><circle class="g" cx="2" cy="2" r="2" transform="translate(339 7945)"/><circle class="g" cx="2" cy="2" r="2" transform="translate(351 7957)"/><circle class="g" cx="2" cy="2" r="2" transform="translate(369 7957)"/><circle class="g" cx="2" cy="2" r="2" transform="translate(386 7957)"/><circle class="g" cx="2" cy="2" r="2" transform="translate(404 7957)"/><circle class="g" cx="2" cy="2" r="2" transform="translate(360 7949)"/><circle class="g" cx="2" cy="2" r="2" transform="translate(378 7949)"/><circle class="g" cx="2" cy="2" r="2" transform="translate(395 7949)"/><circle class="g" cx="2" cy="2" r="2" transform="translate(416 7945)"/><circle class="h" cx="2" cy="2" r="2" transform="translate(274.5 7911)"/><circle class="h" cx="2" cy="2" r="2" transform="translate(274.5 7901)"/><circle class="h" cx="2" cy="2" r="2" transform="translate(274.5 7842)"/><circle class="h" cx="2" cy="2" r="2" transform="translate(379.5 7842)"/><circle class="h" cx="2" cy="2" r="2" transform="translate(407.5 7842)"/><circle class="h" cx="2" cy="2" r="2" transform="translate(371.5 7827)"/><circle class="h" cx="2" cy="2" r="2" transform="translate(332.5 7901)"/><circle class="h" cx="2" cy="2" r="2" transform="translate(332.5 7911)"/><circle class="h" cx="2" cy="2" r="2" transform="translate(332.5 7927)"/><circle class="h" cx="2" cy="2" r="2" transform="translate(301.5 7927)"/></g></g></svg>