<svg xmlns="http://www.w3.org/2000/svg" viewBox="0 0 31 39">
  <defs>
    <style>
      .cls-1 {
        fill: none;
        stroke: #027bc5;
        stroke-miterlimit: 10;
      }

      .cls-2 {
        fill: #00b3ef;
      }
    </style>
  </defs>
  <g id="Group_6539" data-name="Group 6539" transform="translate(-524.5 -7506)">
    <g id="Group_6537" data-name="Group 6537" transform="translate(526.264 7507.855)">
      <path id="Path_11598" data-name="Path 11598" class="cls-1" d="M25.689,22.5H11.5" transform="translate(-4.757 -9.557)"/>
      <path id="Path_11599" data-name="Path 11599" class="cls-1" d="M17.176,14.5H11.5" transform="translate(-4.757 -6.097)"/>
      <path id="Path_11600" data-name="Path 11600" class="cls-1" d="M25.689,30.5H11.5" transform="translate(-4.757 -13.016)"/>
      <path id="Path_11601" data-name="Path 11601" class="cls-1" d="M25.689,38.5H11.5" transform="translate(-4.757 -16.476)"/>
      <path id="Path_11602" data-name="Path 11602" class="cls-1" d="M25.689,46.5H11.5" transform="translate(-4.757 -19.935)"/>
      <path id="Path_11603" data-name="Path 11603" class="cls-1" d="M18.889.457H.5V34.51H27.175V8.743L22.919,4.486Zm8.286,8.457H18.662V.4" transform="translate(0 0)"/>
    </g>
    <circle id="Ellipse_287" data-name="Ellipse 287" class="cls-2" cx="2" cy="2" r="2" transform="translate(551.5 7541)"/>
    <circle id="Ellipse_284" data-name="Ellipse 284" class="cls-2" cx="2" cy="2" r="2" transform="translate(551.5 7515)"/>
    <circle id="Ellipse_289" data-name="Ellipse 289" class="cls-2" cx="2" cy="2" r="2" transform="translate(542.5 7515)"/>
    <circle id="Ellipse_285" data-name="Ellipse 285" class="cls-2" cx="2" cy="2" r="2" transform="translate(542.5 7506)"/>
    <circle id="Ellipse_286" data-name="Ellipse 286" class="cls-2" cx="2" cy="2" r="2" transform="translate(524.5 7506)"/>
    <circle id="Ellipse_288" data-name="Ellipse 288" class="cls-2" cx="2" cy="2" r="2" transform="translate(524.5 7541)"/>
  </g>
</svg>
