<svg width="499" height="604" viewBox="0 0 499 604" fill="none" xmlns="http://www.w3.org/2000/svg">
    <path opacity="0.4" d="M836.526 125.446L532.918 281.812L390.61 133.314L296.073 103.336L479.136 27.6049L565.403 34.0931L576.491 80.6935L711.131 17.0932L756.787 -106.19L623.667 -27.0463L576.491 80.6935L296.078 103.34L521.299 -20.7348L711.131 17.0932L836.526 125.446Z" stroke="#7EFBFC"/>
    <path opacity="0.4" d="M712.164 15.9835L757.048 -105.139L575.01 81.1973L836.314 125.066L192.729 217.03L204.501 144.439L373.789 203.036L296.152 103.933L192.73 217.03" stroke="#648CC1"/>
    <path opacity="0.5" d="M387.756 132.912L480.161 27.7347L624.264 -25.3029L566.066 34.3497L522.511 -22.5445" stroke="#B4CAE1"/>
    <path opacity="0.1" d="M795.142 56.8604L755.639 -104.672L688.907 -30.1207L712.829 17.5132L566.879 33.5803L387.827 132.159L522.051 -20.8673L689.111 -31.2388L300.513 102.566L205.224 143.974L386.933 131.064L193.794 215.88L128.089 270.782" stroke="#B4CAE1"/>
    <path opacity="0.5" d="M387.912 131.11C387.128 131.38 386.712 132.233 386.982 133.017C387.251 133.8 388.105 134.216 388.888 133.946C389.672 133.677 390.088 132.823 389.818 132.04C389.549 131.257 388.695 130.84 387.912 131.11Z" fill="#6392B9"/>
    <path d="M295.604 102.61C294.821 102.879 294.404 103.733 294.674 104.516C294.944 105.3 295.797 105.716 296.581 105.446C297.364 105.177 297.78 104.323 297.511 103.54C297.241 102.756 296.387 102.34 295.604 102.61Z" fill="#6392B9"/>
    <path opacity="0.5" d="M203.983 143.676C203.2 143.946 202.783 144.8 203.053 145.583C203.323 146.366 204.176 146.782 204.96 146.513C205.743 146.243 206.159 145.389 205.89 144.606C205.62 143.823 204.766 143.407 203.983 143.676Z" fill="#6392B9"/>
    <path d="M192.671 215.259C191.888 215.528 191.472 216.382 191.741 217.165C192.011 217.949 192.865 218.365 193.648 218.095C194.431 217.826 194.848 216.972 194.578 216.189C194.308 215.405 193.455 214.989 192.671 215.259Z" fill="#6392B9"/>
</svg>
