<svg width="103" height="116" viewBox="0 0 103 116" fill="none" xmlns="http://www.w3.org/2000/svg">
    <path fill-rule="evenodd" clip-rule="evenodd" d="M82.9253 97.46C82.7474 97.46 82.3515 98.8285 82.759 99.799C82.9758 100.316 83.4856 100.534 83.9121 100.389C84.3323 100.247 84.4546 99.8407 84.4663 99.5242C84.5058 98.4607 83.5878 97.46 82.9252 97.46H82.9253ZM79.869 81.9415L80.0026 83.4442L78.7263 83.2993V85.0103L80.0026 84.866L79.8689 86.4353H81.6024L81.4685 84.866L82.7446 85.0104V83.2995L81.4685 83.4443L81.6024 81.9415H79.8689H79.869ZM80.7379 87.863C80.3927 87.863 80.1128 88.154 80.1128 88.5129C80.1128 88.8717 80.3928 89.1628 80.7379 89.1628C81.0831 89.1628 81.363 88.8718 81.363 88.5129C81.363 88.1539 81.083 87.863 80.7379 87.863ZM80.7379 90.4943C80.3927 90.4943 80.1128 90.7853 80.1128 91.1442C80.1128 91.5032 80.3928 91.7941 80.7379 91.7941C81.0831 91.7941 81.363 91.5031 81.363 91.1442C81.363 90.7853 81.083 90.4943 80.7379 90.4943ZM80.7379 93.1634C80.3927 93.1634 80.1128 93.4544 80.1128 93.8132C80.1128 94.1726 80.3928 94.4634 80.7379 94.4634C81.0831 94.4634 81.363 94.1724 81.363 93.8132C81.363 93.4544 81.083 93.1633 80.7379 93.1633V93.1634ZM82.7565 93.8132C82.7565 94.1726 83.0365 94.4634 83.3817 94.4634C83.7268 94.4634 84.0067 94.1724 84.0067 93.8132C84.0067 93.4544 83.7267 93.1633 83.3816 93.1633C83.0363 93.1633 82.7565 93.4543 82.7565 93.8131L82.7565 93.8132ZM85.3765 93.8132C85.3765 94.1726 85.6567 94.4634 86.0018 94.4634C86.347 94.4634 86.6269 94.1724 86.6269 93.8132C86.6269 93.4544 86.347 93.1633 86.0018 93.1633C85.6567 93.1633 85.3765 93.4543 85.3765 93.8131V93.8132ZM80.7379 96.7365C80.2029 96.7365 78.8827 99.4979 79.8667 100.894C80.0549 101.162 80.3848 101.312 80.7379 101.312C81.0909 101.312 81.4209 101.162 81.6091 100.894C82.5932 99.4979 81.273 96.7365 80.7379 96.7365ZM78.5506 97.4598C77.8879 97.4598 76.97 98.4605 77.0093 99.524C77.0208 99.8404 77.1434 100.247 77.5636 100.389C77.9901 100.534 78.5 100.316 78.7169 99.7988C79.1242 98.8283 78.7285 97.4598 78.5506 97.4598V97.4598ZM77.5335 93.8131C77.5335 94.1725 77.8131 94.4633 78.1585 94.4633C78.504 94.4633 78.7836 94.1724 78.7836 93.8131C78.7836 93.4543 78.5039 93.1632 78.1584 93.1632C77.8129 93.1632 77.5334 93.4542 77.5334 93.813L77.5335 93.8131ZM74.9777 93.8131C74.9777 94.1725 75.2575 94.4633 75.6027 94.4633C75.9479 94.4633 76.228 94.1724 76.228 93.8131C76.228 93.4543 75.948 93.1632 75.6027 93.1632C75.2575 93.1632 74.9777 93.4542 74.9777 93.813V93.8131ZM74.3614 93.8131C74.3614 93.2591 74.4556 92.7598 74.4556 92.7598H79.6502V92.3018L79.6503 88.4403L79.6502 88.4399V87.3421C77.1428 87.7892 75.1374 89.7579 74.5397 92.301C74.3941 92.5124 73.9229 92.6207 73.5907 92.5828C71.6738 92.3438 67.7945 91.632 67.7945 90.7909C67.7945 89.6093 68.5805 89.1364 69.3357 89.1364C70.413 89.1364 71.6032 89.7303 72.5943 88.2699C69.0672 88.4342 71.7709 83.2471 68.878 82.2629C69.0215 83.5874 68.8792 85.9178 68.4229 87.1495C68.4229 87.1495 67.3864 86.0223 66.2222 85.5972C66.3096 86.5588 66.1326 88.5517 65.7102 89.4591C65.7102 89.4591 64.4776 88.2973 63.1991 87.8629C64.3785 89.6034 64.3381 92.0872 64.0207 93.5981C63.9288 94.0352 64.2488 94.5793 65.1481 94.5391C66.5549 94.476 71.3597 94.6916 73.4436 95.5591C74.0916 95.8288 74.6465 96.1382 74.9178 96.6084C75.1385 97.2416 75.6846 98.2225 76.357 98.7254C76.6587 97.6308 77.9454 96.4583 78.7836 96.5005C79.0339 96.5131 79.3108 96.9388 79.3682 97.356C79.4422 96.968 80.0605 95.8963 80.7378 95.8963C81.3629 95.8963 81.9635 96.7929 82.1721 97.5336C82.235 97.0578 82.5113 96.5491 82.7617 96.5491C83.6035 96.5491 84.662 97.3093 85.0609 98.5647C85.384 98.1549 86.8674 96.2142 87.0348 94.9408H74.4553C74.4553 94.9408 74.3612 94.3899 74.3612 93.8135L74.3614 93.8131ZM81.8256 87.3431V92.7599H87.0247C86.5727 89.9982 84.4799 87.8181 81.8255 87.3431H81.8256ZM20.4731 91.8032C20.5821 91.8405 20.6926 91.814 20.8014 91.7552C20.451 92.2518 20.4655 92.5786 20.6163 92.7317C20.8534 92.9706 21.029 92.5314 21.6282 91.8839C22.2279 91.2374 22.6427 91.0402 22.4066 90.8003C22.2543 90.6462 21.9388 90.642 21.4677 91.0327C21.5197 90.9185 21.5398 90.8046 21.5018 90.6933C21.3036 90.1095 20.3808 89.3321 19.8722 89.3305C19.7988 89.3312 19.7262 89.3467 19.6587 89.3761C19.8825 89.0105 19.8247 88.7343 19.675 88.5828C19.5102 88.4164 19.4158 88.5331 19.2308 88.7739C19.2561 88.6056 19.2136 88.4084 19.0576 88.1677C18.294 86.9918 14.2557 83.1193 13.3387 82.7302C12.7914 82.4971 12.6118 82.8196 12.6118 82.8196C12.6118 82.8196 12.3089 83.0183 12.5483 83.5833C12.9491 84.5286 16.8296 88.572 17.9776 89.3331C18.213 89.4887 18.4021 89.5267 18.562 89.4955C18.3389 89.6942 18.232 89.7969 18.3959 89.9628C18.5457 90.1143 18.8124 90.1657 19.1553 89.9195C19.1295 89.9914 19.1174 90.0675 19.1195 90.1439C19.137 90.6748 19.9085 91.6144 20.4732 91.8031L20.4731 91.8032ZM10.7662 80.3468C10.6466 80.3468 10.4767 80.3757 10.3517 80.5103C10.2251 80.6468 10.1806 80.858 10.2267 81.1029C10.2773 81.3691 10.4263 81.6391 10.6471 81.863C10.9115 82.1311 11.2441 82.2911 11.5355 82.2911C11.656 82.2911 11.8247 82.2633 11.9499 82.1285C12.2226 81.8338 12.088 81.2142 11.6549 80.7755C11.3898 80.5079 11.0581 80.347 10.7663 80.347L10.7662 80.3468ZM23.3257 94.7213C23.3223 94.3122 22.5621 93.6259 21.6605 93.6259C20.3213 93.6259 19.7416 94.4914 19.7416 94.9323C19.7416 95.7626 20.5285 95.8695 20.7697 95.8832C21.7122 95.9427 23.2321 94.9602 23.3257 94.7213ZM22.1721 96.7945C21.8163 97.2593 21.683 97.7132 21.7751 98.1433C21.8872 98.6644 22.3924 98.8983 22.8438 98.8983C23.3195 98.8983 23.7456 98.6695 23.9834 98.2855C24.495 97.4632 24.5176 95.6413 24.3451 95.4421C23.9163 95.4421 22.7758 96.0067 22.1722 96.7946L22.1721 96.7945ZM10.4194 77.8278C10.0409 77.4442 9.26692 78.0158 8.80435 77.7498C9.00942 76.5786 9.82237 77.8078 10.6081 76.961C10.9213 76.6228 10.7532 76.0948 10.5734 75.9355C10.2349 76.2854 9.71104 76.1641 9.67077 75.9697C10.5625 73.8209 8.82018 71.4252 7.14727 71.7254C7.47546 72.1733 7.57359 73.7301 7.43061 74.1508C8.06753 74.6173 7.61226 75.716 6.90934 75.3968C6.43788 75.201 5.60638 73.9991 6.5626 73.1524C6.53507 72.8472 6.00902 72.7731 5.45001 73.5084C5.86014 72.1586 3.34937 72.5818 2.83343 72.9058C2.54007 73.4544 2.21487 76.0916 3.49169 75.6207C2.80684 76.2282 2.89429 76.7752 3.18672 76.7949C3.96596 75.7695 5.13998 76.6013 5.34251 77.0878C5.66987 77.8131 4.63331 78.3219 4.16775 77.6713C3.76933 77.8344 2.27816 77.7808 1.83948 77.4518C1.60567 79.209 3.95005 80.954 5.97681 79.9556C6.16361 79.9918 6.29611 80.534 5.97259 80.8993C6.13084 81.083 6.64022 81.2416 6.95391 80.9031C7.73858 80.0563 6.53779 79.2449 7.65131 78.9933C7.92005 79.4687 7.39849 80.2955 7.7765 80.6791C8.38205 81.2924 9.14266 80.1026 9.88969 80.0549C9.91161 79.2728 11.0249 78.4414 10.4195 77.8276L10.4194 77.8278ZM4.1434 75.1148C4.1434 75.1148 3.75172 74.8311 4.2214 74.3114C4.7027 73.8039 4.98707 74.2049 4.98707 74.2049C4.98707 74.2049 5.42829 75.2063 5.55872 75.6672C5.11376 75.5454 4.1435 75.1148 4.1435 75.1148H4.1434ZM8.0193 78.1605C7.77622 78.1919 7.20036 78.7146 6.91158 78.422L5.59009 77.0839L6.25079 76.369L6.91411 75.6557L8.23439 76.9954C8.52316 77.2872 8.0415 77.9058 8.0193 78.1604V78.1605ZM29.9151 98.6694C29.9598 98.4691 29.9291 98.3081 29.8261 98.204C29.7938 98.1711 29.7648 98.1527 29.7473 98.1527C29.6729 98.1527 29.5073 98.3613 29.3477 98.5634C29.2147 98.731 29.049 98.9397 28.8376 99.1668C28.6271 99.3953 28.4322 99.5744 28.276 99.7192C28.0904 99.8904 27.898 100.068 27.8958 100.148C27.8958 100.166 27.9148 100.197 27.9485 100.23C28.0169 100.3 28.1085 100.335 28.2196 100.335C28.3895 100.335 28.7576 100.246 29.3114 99.6477C29.732 99.1948 29.8723 98.8658 29.9152 98.6695L29.9151 98.6694ZM29.9231 100.267C29.6351 100.578 29.3425 100.799 29.1805 100.912C29.2954 101.031 29.622 101.241 30.0302 101.241C30.2631 101.241 30.4807 101.171 30.6794 101.033C31.0868 100.349 30.6937 99.6485 30.5169 99.4701C30.4135 99.6435 30.2107 99.9564 29.923 100.266L29.9231 100.267ZM25.4635 96.4587C25.2538 96.6589 24.7687 98.0487 24.9804 98.8951C25.0715 99.2577 25.2678 99.4127 25.6002 99.3944C25.9441 99.3723 26.1315 99.1898 26.1895 98.8182C26.3213 97.973 25.6923 96.6295 25.4634 96.4586L25.4635 96.4587ZM25.1981 92.5961C25.2099 92.6199 27.686 94.8381 28.5167 95.6411C28.7124 95.8307 28.9824 95.8744 29.2565 95.7322C29.4128 95.6508 29.6076 95.5572 29.8089 95.4631C32.2849 94.572 36.3577 94.4716 37.8515 94.5389C38.7509 94.5788 39.0685 94.0357 38.9789 93.5979C38.6863 92.168 38.621 89.6033 39.8005 87.8628C38.5222 88.2973 37.2896 89.459 37.2896 89.459C36.8669 88.5516 36.6899 86.5587 36.7772 85.5971C35.6133 86.0221 34.5764 87.1495 34.5764 87.1495C34.1204 85.9178 33.9781 83.5875 34.1217 82.263C31.2285 83.2471 33.9326 88.4343 30.4053 88.27C31.3964 89.7304 32.5867 89.1367 33.6638 89.1367C34.4191 89.1367 35.3573 89.6404 35.2053 90.791C35.095 91.6244 30.3624 92.6619 28.459 92.6619C27.1287 92.6619 26.2378 92.2435 25.5702 91.3032C25.249 90.851 24.9215 90.6464 24.5546 90.7039C24.0992 90.7754 23.5667 91.2494 23.5667 92.3473C23.5667 93.125 23.8754 94.8298 24.7922 94.8298C25.4363 94.8298 25.4647 93.4825 25.198 92.5964L25.1981 92.5961ZM28.2581 98.5803C28.6902 98.1129 28.8415 97.7728 28.7347 97.5074C28.5802 97.1243 27.5973 96.0099 26.3106 94.7527C26.2723 95.0124 26.2149 95.2688 26.1391 95.5198C27.0062 96.6865 27.3302 97.9395 27.0378 98.9919C27.1436 99.0635 27.2092 99.0961 27.2476 99.1113C27.5805 99.246 27.996 98.8631 28.2579 98.5803H28.2581ZM21.9972 92.2349C21.9909 92.2415 21.8308 92.4022 21.7272 92.6188C21.9963 92.6205 22.3099 92.6676 22.592 92.745C22.5732 92.4906 22.5547 92.1464 22.5791 91.8493C22.3411 91.9039 22.0855 92.1374 21.9973 92.2349H21.9972ZM65.2447 100.249C66.0598 99.8717 66.6476 98.8469 66.8023 97.8444C66.2858 98.1018 65.7035 98.2272 65.0321 98.2272C63.1852 98.2272 60.8648 97.1844 58.7618 96.2389C58.7618 96.2389 58.3083 96.6262 57.5569 96.7072C59.6789 97.3696 63.8488 99.7198 64.1553 101.227C64.3601 102.236 63.7129 102.621 63.7129 102.621C62.7852 101.083 60.394 98.696 57.2027 97.5019C57.2092 98.0639 57.103 98.4583 57.103 98.4583C57.103 98.4583 56.4554 98.6199 55.0798 98.3774C56.2826 99.3965 59.4421 102.996 59.7851 105.727C60.0137 107.551 58.7591 107.635 58.7591 107.635C58.58 104.893 57.1635 102.055 54.6072 99.205C54.6072 99.205 54.1881 99.8725 53.631 100.209C53.631 100.209 52.6869 100.039 51.9034 99.513C52.2051 103.131 52.3833 107.832 52.1961 109.254C52.0654 110.245 51.5002 110.66 51.5002 110.66C51.5002 110.66 50.9329 110.245 50.802 109.254C50.6151 107.832 50.793 103.131 51.0947 99.513C50.3115 100.039 49.3672 100.209 49.3672 100.209C48.81 99.8727 48.3915 99.2052 48.3915 99.2052C45.8346 102.055 44.4182 104.893 44.2393 107.635C44.2393 107.635 42.9846 107.551 43.2134 105.727C43.5563 102.996 46.7159 99.3966 47.9185 98.3775C46.543 98.62 45.8953 98.4584 45.8953 98.4584C45.8953 98.4584 45.7892 98.064 45.7959 97.502C42.6047 98.6961 40.2138 101.083 39.2856 102.621C39.2856 102.621 38.6386 102.236 38.8436 101.227C39.1498 99.7199 43.3197 97.3697 45.442 96.7072C44.6905 96.6264 44.2367 96.239 44.2367 96.239C42.134 97.1844 39.8133 98.2273 37.9664 98.2273C37.2952 98.2273 36.7126 98.1018 36.1965 97.8445C36.351 98.847 36.9391 99.8717 37.7537 100.25C34.9006 102.288 36.6624 107.066 32.8359 106.168C34.9697 110.191 39.2856 110.595 39.2856 110.595C38.3296 108.467 39.5215 101.974 45.2498 99.0239C41.7237 102.594 40.1172 106.922 41.0528 109.975C41.9112 112.778 44.7014 113.914 46.8024 113.962C45.3167 109.329 46.2324 104.022 49.3156 100.681C47.9943 104.345 46.1366 114.124 51.5006 116C56.8641 114.124 55.0049 104.345 53.6832 100.681C56.767 104.021 57.6822 109.329 56.1966 113.962C58.2975 113.914 61.0878 112.778 61.9464 109.975C62.8818 106.922 61.2752 102.594 57.7494 99.0239C63.4778 101.974 64.6694 108.467 63.7131 110.595C63.7131 110.595 68.0295 110.191 70.1632 106.168C66.3364 107.066 68.0985 102.288 65.245 100.25L65.2447 100.249ZM51.9555 19.6488C51.9555 19.3616 51.7322 19.1277 51.4585 19.1277C51.1842 19.1277 50.9615 19.3616 50.9615 19.6488C50.9615 19.9367 51.1841 20.1707 51.4585 20.1707C51.7322 20.1707 51.9555 19.9367 51.9555 19.6488ZM54.4631 19.6488C54.4631 19.3616 54.2407 19.1277 53.9661 19.1277C53.6922 19.1277 53.4696 19.3616 53.4696 19.6488C53.4696 19.9367 53.6922 20.1707 53.9661 20.1707C54.2407 20.1707 54.4631 19.9367 54.4631 19.6488ZM50.5671 6.12194C50.5671 6.65962 50.9843 7.09862 51.4972 7.09862C52.0109 7.09862 52.4279 6.65962 52.4279 6.12194C52.4279 5.58349 52.0109 5.14488 51.4972 5.14488C50.9843 5.14488 50.5671 5.58339 50.5671 6.12184V6.12194ZM50.8665 4.04668H52.133L51.9961 2.48981L53.3719 2.6389V1.4074L51.996 1.55601L52.1329 0H50.8664L51.0027 1.55601L49.6272 1.4074V2.6389L51.0027 2.48981L50.8664 4.04659L50.8665 4.04668ZM49.4479 19.6487C49.4479 19.3615 49.2245 19.1276 48.9505 19.1276C48.6765 19.1276 48.4534 19.3615 48.4534 19.6487C48.4534 19.9366 48.6765 20.1707 48.9505 20.1707C49.2245 20.1707 49.4479 19.9366 49.4479 19.6487V19.6487ZM46.4627 21.5807C46.5973 21.63 46.7526 21.6568 46.9365 21.6568H56.0633C56.2473 21.6568 56.4026 21.63 56.5366 21.5807C56.8313 21.4733 57.0104 21.2481 57.08 20.8883H45.9195C45.9887 21.2481 46.168 21.4731 46.4627 21.5808V21.5807ZM46.9646 19.6487C46.9646 19.3615 46.7418 19.1276 46.4674 19.1276C46.1933 19.1276 45.97 19.3615 45.97 19.6487C45.97 19.9366 46.1933 20.1707 46.4672 20.1707C46.7416 20.1707 46.9644 19.9366 46.9644 19.6487H46.9646ZM56.9468 19.6487C56.9468 19.3615 56.7234 19.1276 56.4502 19.1276C56.1758 19.1276 55.9527 19.3615 55.9527 19.6487C55.9527 19.9366 56.1758 20.1707 56.4503 20.1707C56.7235 20.1707 56.9468 19.9366 56.9468 19.6487H56.9468ZM57.5432 18.4126C57.8005 18.0876 59.0798 15.5704 59.0798 13.0292C59.0798 10.7422 56.2553 9.48317 54.5749 9.42565C54.3805 12.6927 53.1301 17.821 51.5003 17.821C49.9578 17.821 48.6174 12.7222 48.4253 9.42555C46.7451 9.48327 43.9208 10.7422 43.9208 13.0293C43.9208 15.5705 45.1995 18.0877 45.457 18.4126H57.5434H57.5432ZM51.5003 16.1984C52.2677 16.1984 53.2597 12.9449 53.5131 9.8655C53.5131 9.24205 52.7453 8.28838 51.5004 8.26356C50.255 8.28828 49.4872 9.24195 49.4872 9.8655C49.7097 12.7372 50.7445 16.1984 51.5004 16.1984H51.5003ZM27.1007 32.8064C25.6114 34.8906 27.671 37.1716 27.7981 37.3291C27.8876 37.4404 27.9644 37.3902 27.9507 37.2654C27.9399 37.1584 29.0225 33.9445 35.2553 35.6369C35.3885 35.6731 35.4703 35.6759 35.3454 35.5444C34.194 34.6158 32.8279 32.5341 32.3864 30.8598C32.3864 30.8598 28.5904 30.7222 27.1007 32.8064H27.1007ZM30.442 32.3704C30.442 31.7882 31.2744 31.6276 31.7529 31.6276C31.7529 31.6276 31.9629 32.1899 32.1737 32.5011C31.6881 32.2801 31.0135 32.2576 30.442 32.3704V32.3704ZM33.7504 29.6508C33.3358 29.6508 33.1809 29.9193 33.3163 30.3842C34.7484 35.296 38.6525 36.4609 40.194 38.5882C40.194 38.5882 40.183 37.9255 40.8981 36.3441C41.3846 37.1574 42.7029 38.6805 43.5596 38.8744C43.3548 38.4363 43.1113 36.7068 43.3012 35.5446C45.3243 37.3457 47.8184 37.6997 49.1568 36.6605C48.0173 36.7049 46.5333 35.4143 45.7864 34.2694C46.8292 34.5147 48.265 34.2618 48.5608 33.9569C47.9021 33.7934 47.1032 33.1988 46.6221 32.6337C47.3621 32.5814 48.9677 31.9643 49.4267 31.0943C48.7829 31.2431 47.8283 30.9755 47.2068 30.641C47.6802 30.3804 48.8616 29.0918 49.145 27.9609C47.4673 28.7981 44.82 29.631 40.8985 29.631C40.8985 29.631 33.969 29.6507 33.7503 29.6507L33.7504 29.6508ZM38.0795 31.89C36.9708 32.3368 36.4152 32.9403 36.4152 32.9403C36.4152 32.9403 35.8832 32.0517 35.7133 31.7661C35.5435 31.4806 35.4903 31.1307 36.0634 31.1307H39.5003C39.5003 31.3692 39.1879 31.4429 38.0794 31.8899L38.0795 31.89ZM26.3466 39.8821C26.7052 40.3662 27.7202 41.8449 29.9469 40.5229C32.1731 39.2007 33.3213 38.4809 33.3213 38.4809C33.3213 38.4809 32.9735 39.1632 33.2375 39.9813C33.2529 40.0283 33.3052 40.0262 33.3253 39.9775C33.5471 39.4481 35.4807 37.9162 37.9463 37.7041C37.0424 36.9002 36.0506 36.1838 36.0506 36.1838C34.9972 36.3568 32.9552 37.0897 30.3139 38.8349C27.6722 40.5802 26.4553 39.8514 26.4047 39.8186C26.3544 39.7857 26.2828 39.7961 26.3465 39.8821H26.3466ZM57.8977 95.6057C58.2781 95.4823 58.5964 95.2848 58.7601 95.0634C57.0541 94.9883 55.6458 93.4898 55.13 92.5652C54.5633 93.5191 53.5516 94.2643 53.5516 94.2643C52.8312 94.071 51.8467 93.2726 51.5 92.662C51.1535 93.2727 50.169 94.0711 49.4484 94.2644C49.4484 94.2644 48.4368 93.5191 47.8699 92.5653C47.3544 93.4899 45.946 94.9883 44.2398 95.0634C44.4037 95.2849 44.722 95.4823 45.1024 95.6057C45.3571 95.6888 45.6389 95.74 45.9226 95.74C46.2232 95.74 46.525 95.6844 46.7956 95.5555C46.6252 96.1854 46.5685 96.9631 46.6933 97.4963C46.6933 97.4963 47.6006 97.5691 48.5372 97.2092C48.6047 97.785 48.8631 98.4823 49.2871 98.9539C49.3704 99.0461 49.4575 99.133 49.5534 99.2049C50.0565 99.2049 51.2712 98.6088 51.5001 98.2413C51.7288 98.6086 52.9435 99.2049 53.4468 99.2049C53.5423 99.1329 53.6296 99.046 53.713 98.9537C54.1368 98.4823 54.3953 97.7849 54.4626 97.209C54.8839 97.4242 55.3734 97.5101 55.9151 97.5101C56.0456 97.5099 56.1762 97.5053 56.3065 97.4962C56.4316 96.963 56.3748 96.1853 56.2042 95.5554C56.475 95.6843 56.7768 95.7399 57.0771 95.7399C57.3615 95.7399 57.6429 95.6887 57.8976 95.6056L57.8977 95.6057ZM40.8699 58.6008C40.5356 58.6008 40.3287 58.8179 40.3287 59.1673V80.3836C40.3287 82.4065 41.1124 83.4329 42.658 83.4329L46.5254 83.4481C49.1753 83.4481 50.7386 84.3758 51.5 85.5256C52.1475 84.4534 53.9671 83.4481 56.4747 83.4481L60.341 83.4329C61.8869 83.4329 62.6707 82.4065 62.6707 80.3836V59.1673C62.6707 58.8179 62.4633 58.6008 62.1299 58.6008H40.8697H40.8699ZM44.6472 78.4505C44.6101 78.92 45.1466 79.774 46.0321 79.5068C46.0054 79.6801 46.0551 80.154 46.2531 80.5094C44.6843 80.8709 44.0077 79.5586 44.6472 78.4505V78.4505ZM58.8701 71.4271C58.6542 71.1941 58.4412 70.9582 58.2313 70.7197C58.0075 70.4667 57.8478 70.3684 57.6195 70.3684C57.1061 70.3684 56.5568 70.6544 56.263 70.8524C56.2435 70.8605 56.2287 70.8797 56.2214 70.9313C56.5336 70.903 56.8467 70.8797 57.158 70.8438C57.4312 70.8118 57.6864 70.8229 57.9218 71.0013C58.1072 71.1411 58.2118 71.3141 58.2218 71.5401C58.2515 72.2623 58.8183 73.7822 58.8535 74.2384C58.8977 74.4178 58.6855 74.4701 58.3917 75.309C58.1747 75.5556 57.5883 74.7727 57.6732 74.5895C58.015 74.1362 58.1092 73.8538 58.0224 73.5162C57.9532 73.2447 57.823 72.7599 57.7266 72.4971C57.5977 72.1465 57.3076 72.0151 56.9472 72.1408C55.5331 72.6181 55.3151 71.982 53.9136 72.5802L55.5277 75.1208C55.5218 74.9367 55.435 74.6043 55.1739 74.3654C55.2209 74.109 55.7301 74.0028 55.9204 74.243C56.1539 74.5476 56.6094 74.9818 56.9843 75.0514C57.7046 75.1869 57.6501 76.2991 59.5748 76.6713C59.3355 76.9235 58.8017 76.838 58.5691 76.7239C58.7096 76.9445 58.8711 77.1527 59.1612 77.228C58.8627 77.5326 58.0066 76.8188 58.0942 77.537C58.2423 77.4499 58.4474 77.4358 58.6208 77.4802C59.0049 77.5776 59.6349 79.7983 58.3079 80.7687C58.5904 80.8549 58.8942 80.7031 59.1807 80.7031C59.3487 80.7031 59.5057 80.8688 59.5223 81.0537C59.6461 81.1503 59.7274 81.2689 59.7995 81.4209C59.6996 81.4546 59.5067 81.4234 59.3997 81.351C59.4427 81.4742 59.4324 81.7704 59.3875 81.7761C59.2674 81.7926 59.1749 81.7224 59.0523 81.648C58.8814 81.7371 58.32 81.7006 58.161 81.556C57.7372 81.661 57.3189 81.8017 56.8773 81.8017C56.6389 81.8017 56.3248 81.7861 56.3361 81.4899C56.3415 81.3453 56.4119 81.271 56.4671 81.113C56.264 80.9004 55.9253 81.1063 55.5214 81.1459C54.974 81.1994 54.7483 81.113 54.6295 80.9994C55.1464 80.5126 54.8344 79.3264 54.0362 79.2214C54.6928 79.8617 54.6071 80.8975 53.872 81.1302C54.0844 81.2002 54.1896 81.2975 54.2709 81.4514C54.5293 81.5607 54.5331 81.7512 54.5137 81.8364C54.3723 81.7345 54.1176 81.6336 53.9144 81.661C53.8998 81.7513 53.8627 81.9204 53.7861 81.9857C53.6984 81.9662 53.5839 81.8844 53.5394 81.8193C53.3047 81.636 51.8422 81.9857 51.7533 81.741C51.6971 81.5137 52.0876 81.3224 52.4478 81.2418C51.5214 80.8957 50.7178 79.1203 49.2916 78.8197C48.6301 78.6807 47.734 78.9832 47.734 79.8591C47.734 80.2895 48.0739 80.6207 48.4415 80.6207C48.7798 80.6207 48.949 80.3826 48.949 80.1415C48.8945 80.1835 48.8608 80.2095 48.8275 80.2372C48.6206 80.41 48.3569 80.399 48.1661 80.2096C47.9981 80.0428 47.9981 79.7532 48.1611 79.5573C48.2952 79.3944 48.4563 79.3025 48.6714 79.2702C49.2298 79.1875 49.6865 79.3687 49.994 79.825C50.1407 80.0427 50.2216 80.2755 50.2216 80.501C50.2216 81.5101 49.2289 81.7393 48.6794 81.7393C47.2962 81.7393 46.4811 80.731 46.4811 79.5646C46.4811 79.4286 46.4876 79.2907 46.5105 79.1519C46.727 77.8391 47.8785 77.2902 48.8748 77.126C48.7477 76.669 48.5023 76.2997 48.1501 75.9983C47.9747 75.8484 47.9569 75.7259 48.0674 75.5347C48.2179 75.2732 48.3759 75.0159 48.4424 74.7213C48.4576 74.6552 48.4645 74.5853 48.4693 74.5135C47.9732 74.9661 47.2797 75.381 46.3201 75.6771C46.0175 75.8196 45.8574 76.1003 45.8189 76.4231C45.7752 76.7977 45.765 77.1777 45.7583 77.5557C45.7566 77.6429 45.8186 77.7377 45.8657 77.8213C46.0443 78.1332 46.2415 78.4369 46.2855 78.826C46.2855 79.0144 45.3538 79.0339 45.3538 78.8828C45.3451 78.1986 44.8964 77.9328 44.9446 77.481C45.0686 76.7784 45.0963 76.0755 44.9833 75.3693C44.9548 75.1915 45.0477 75.0745 45.1721 74.9799C45.3701 74.8263 45.5804 74.689 45.778 74.5365C46.2443 74.1738 46.4372 73.7011 46.3276 73.1151C46.3136 73.0388 46.2804 72.9653 46.248 72.8935C46.0158 72.3721 45.8463 71.844 45.8463 71.256C45.8463 70.6112 45.0613 70.648 45.1126 71.2817C45.1287 71.4797 45.2738 71.7565 45.3554 71.9468C46.1603 73.8319 44.713 75.1895 43.216 75.1885C44.7896 74.634 42.8482 72.5835 42.8482 71.0536C42.8482 70.1154 43.5604 69.4218 44.4102 69.4218C45.3904 69.4218 46.0119 70.0647 46.1899 70.1752C46.6641 69.4098 48.116 69.2718 48.6611 69.1835C48.6196 68.7714 48.6766 68.4052 48.9248 68.0889C48.941 68.0675 48.9512 68.0279 48.9424 68.0051C48.865 67.8102 48.7825 67.6177 48.6756 67.4292C48.2285 67.9426 48.1212 68.6236 48.1212 68.9757C46.4659 68.951 45.7358 68.2131 45.2466 67.9225C45.2485 67.7942 45.6888 66.9875 46.0794 66.4551C45.6513 66.8285 45.2994 67.249 45.041 67.7532C44.8043 67.5792 44.5555 67.4218 44.3123 67.3189C44.6853 66.5056 45.1797 65.8727 45.8097 65.2112C44.9226 65.5443 44.1505 66.5652 43.8579 67.2065C43.6048 67.177 43.2309 67.167 43.0221 67.2084C43.9889 66.0051 44.4307 63.6345 46.5564 63.1028C46.024 65.3012 47.348 66.1946 48.2596 65.6209C48.141 65.6209 48.0597 65.6401 47.9832 65.6209C46.2057 65.1619 47.2591 62.6567 46.8287 62.1352C46.6652 61.9374 46.5808 61.7561 46.6074 61.5058C46.617 61.4177 46.5913 61.3156 46.5516 61.2345L45.6062 59.6284C45.4873 59.4261 45.8553 59.2823 45.9346 59.3753L46.8987 60.9815C46.9237 61.0217 46.9544 61.0806 46.9903 61.0873C47.3428 61.1504 47.4519 61.4477 47.5944 61.7108C47.6396 61.7956 47.6751 61.893 47.6834 61.9889C47.6901 62.0621 47.6705 62.1644 47.6225 62.2142C47.4692 62.3721 47.4989 62.5273 47.6175 62.7321C47.8077 63.0604 53.5188 72.7314 53.5188 72.7314C52.2784 73.2477 50.0346 73.2895 49.3846 73.2255C49.2497 73.5611 49.0389 73.9153 48.7272 74.2565C49.0384 74.0505 49.279 73.7891 49.5014 73.505C49.7524 73.5345 50.1286 73.6367 50.5133 73.6652C50.2857 74.1599 49.944 74.6522 49.5052 75.0644C49.2988 75.2712 49.0432 75.4543 49.1372 75.7854C49.2432 76.1582 49.925 76.8684 50.1737 77.3292C50.4206 77.3822 50.8373 77.4716 51.1429 77.5958C51.3172 77.9767 51.9069 78.455 52.6177 78.2074C51.1888 78.1892 51.2942 76.7007 51.7382 75.9134C51.6902 76.6446 52.0375 77.2516 52.4773 77.3208C51.8178 76.7089 51.8838 75.319 52.5262 74.5565C52.6176 75.7945 52.9869 76.4451 53.5152 76.5922C52.8169 75.939 52.3978 74.4278 53.4522 73.3266C53.5337 76.1525 56.0787 75.6428 56.31 78.914C57.2527 78.914 57.3063 77.6235 56.7808 77.3862C56.4742 77.2695 56.1971 77.0641 56.0402 76.7846C55.9748 76.6669 55.907 76.4572 55.8536 76.3339C55.5735 75.4933 54.7824 75.5466 54.8016 75.345C54.8204 75.2768 54.9449 75.2456 55.1196 75.2456L53.6289 72.9043L53.5512 72.782C53.731 72.7449 53.7709 72.6386 53.5862 72.3425C53.5862 72.3425 47.9924 62.8857 47.9657 62.8315C48.4858 62.7397 48.9854 62.8831 49.4719 63.0745C49.3421 62.9521 49.2362 62.781 49.2135 62.6045C49.1948 62.4627 49.2 62.3798 49.3124 62.2898C49.4313 62.1911 49.5455 62.0772 49.6289 61.9485C49.9066 61.5191 50.4169 61.3092 50.8806 61.4436C51.5803 61.6456 51.8278 62.45 51.3135 62.8729C51.0398 63.4865 50.7003 63.4092 50.6305 63.6842C50.7678 63.7488 51.7247 64.5003 51.7886 64.8166C51.5034 65.4201 51.3616 66.3636 51.6091 66.8902C51.7939 64.3814 53.2799 63.1544 54.7272 63.1544C55.0708 63.1544 55.4124 63.2152 55.755 63.3338C55.9425 63.3982 56.13 63.4909 56.286 63.6114C56.5122 63.7874 56.7225 63.9836 56.9143 64.1976C57.1967 64.513 57.4555 64.8499 57.9358 64.8718C57.7954 65.0752 57.6354 65.2241 57.4718 65.3704C57.3538 65.4778 57.2945 65.6068 57.28 65.7688C57.2466 66.1172 57.1339 66.4364 56.8819 66.6929C56.848 66.7277 56.8218 66.7694 56.8051 66.8153C56.6445 67.2892 56.4818 67.7611 56.3307 68.2377C56.2933 68.3537 56.3017 68.5138 56.1476 68.5119C56.0137 68.51 55.852 68.4703 55.7522 68.3875C55.5401 68.2129 55.464 67.9587 55.54 67.6903C55.6156 67.4234 55.54 67.1942 55.4569 66.946C55.3717 66.6976 55.3421 66.4291 55.2849 66.1457C54.8897 66.0049 54.148 66.8679 54.7142 67.5909C55.0819 68.1243 55.4123 69.1059 55.4696 69.5078C55.4815 69.5474 55.1351 69.7692 54.6578 69.7074C53.0444 69.4977 52.0241 68.3592 51.7141 67.3986C51.6888 69.0258 53.0175 70.2319 54.9867 70.1151C55.0669 70.4941 55.3715 70.7516 55.7264 70.7636C55.8001 70.5189 55.7985 70.0054 55.7383 69.679C55.7115 69.5354 55.7856 69.4619 55.9165 69.4278C56.347 69.3165 56.9074 69.3598 57.3868 69.1859C57.812 69.0305 58.0131 69.1215 58.2773 69.6442C58.4777 70.0385 58.8201 70.4629 59.1435 70.7554C59.2792 70.8777 59.415 71.0019 59.5433 71.1325C59.7068 71.2989 59.7918 71.4948 59.8045 71.7368C59.7624 72.1159 59.812 72.8792 59.812 72.8912C59.7187 73.1415 59.038 72.8766 58.9281 72.6079C58.8866 72.5077 59.2193 71.804 58.87 71.4267L58.8701 71.4271ZM70.6137 30.8598C70.1723 32.5341 68.8062 34.6158 67.6549 35.5444C67.5299 35.6758 67.6117 35.6732 67.745 35.6369C73.9775 33.9445 75.0604 37.1583 75.0492 37.2655C75.0359 37.3903 75.1126 37.4405 75.2019 37.3292C75.3292 37.1717 77.3888 34.8906 75.8994 32.8065C74.4097 30.7223 70.6137 30.8598 70.6137 30.8598V30.8598ZM70.8266 32.5011C71.0371 32.1899 71.2476 31.6276 71.2476 31.6276C71.7258 31.6276 72.558 31.7883 72.558 32.3704C71.9863 32.2575 71.3121 32.2801 70.8265 32.5011H70.8266ZM76.6536 39.8821C76.7173 39.7961 76.6454 39.7857 76.5951 39.8186C76.5447 39.8514 75.3276 40.5802 72.6863 38.8349C70.0446 37.0897 68.0029 36.3567 66.9495 36.1838C66.9495 36.1838 65.9576 36.9002 65.0533 37.7041C67.5192 37.9162 69.453 39.4481 69.6747 39.9775C69.6951 40.0262 69.747 40.0283 69.7623 39.9813C70.0266 39.1632 69.6785 38.4809 69.6785 38.4809C69.6785 38.4809 70.8267 39.2007 73.053 40.5228C75.2797 41.8448 76.2947 40.3661 76.6535 39.882L76.6536 39.8821ZM55.7932 30.6411C55.1718 30.9756 54.2173 31.2431 53.5734 31.0944C54.0325 31.9644 55.6381 32.5815 56.3778 32.6338C55.897 33.1988 55.0978 33.7934 54.4392 33.9569C54.7352 34.2618 56.1707 34.5146 57.2138 34.2694C56.4666 35.4142 54.9828 36.7049 53.8432 36.6605C55.182 37.6997 57.6763 37.3457 59.6992 35.5447C59.8888 36.7068 59.6455 38.4362 59.4405 38.8745C60.2973 38.6805 61.6157 37.1573 62.1023 36.3442C62.8171 37.9256 62.8064 38.5884 62.8064 38.5884C64.3481 36.461 68.2519 35.2962 69.684 30.3843C69.8194 29.9194 69.6644 29.6508 69.2499 29.6508C69.0311 29.6508 62.102 29.6311 62.102 29.6311C58.18 29.6311 55.5327 28.7982 53.855 27.961C54.1384 29.0919 55.3198 30.3806 55.7936 30.641L55.7932 30.6411ZM66.9367 31.1307C67.5095 31.1307 67.4564 31.4806 67.2867 31.7662C67.1168 32.0517 66.5847 32.9404 66.5847 32.9404C66.5847 32.9404 66.0292 32.3368 64.9207 31.8898C63.8121 31.4429 63.4997 31.3692 63.4997 31.1307H66.9367V31.1307ZM41.2934 38.4877C41.0701 39.1304 41.0043 39.8394 41.123 40.7616C41.8436 42.3513 42.1922 45.3031 41.9698 46.9533C43.1178 45.3268 43.6275 43.4977 43.956 42.0342C44.6143 42.7182 45.4684 43.6972 46.0643 44.4904C46.1667 43.6313 46.3482 42.5705 46.5072 41.8043C47.3647 42.636 49.1442 43.6803 50.3475 44.0506C49.5376 40.5798 48.1515 38.3673 48.1515 38.3673C46.9752 38.4876 45.0806 38.1965 44.2288 37.3456C44.3809 38.6031 45.2328 40.0489 45.2328 40.0489C43.4076 40.2298 42.1147 39.5971 41.2935 38.4877H41.2934ZM61.7065 38.4877C60.8853 39.5973 59.5925 40.2299 57.7672 40.0489C57.7672 40.0489 58.6189 38.6032 58.771 37.3458C57.9193 38.1967 56.0251 38.4877 54.8485 38.3673C54.8485 38.3673 53.4627 40.5797 52.6522 44.0505C53.856 43.6802 55.6352 42.6359 56.4926 41.8042C56.6518 42.5704 56.8331 43.6312 56.9355 44.4903C57.5315 43.6973 58.3854 42.718 59.0442 42.0341C59.3725 43.4976 59.8823 45.3268 61.0302 46.9532C60.8077 45.303 61.1565 42.3512 61.8767 40.7615C61.9956 39.8392 61.9297 39.1303 61.7063 38.4876L61.7065 38.4877ZM46.0064 49.423C46.6952 50.5476 47.3082 51.8999 47.5205 53.1043C48.1809 52.2929 48.8783 50.8823 49.3509 49.1974C49.9303 49.933 50.9424 51.4312 51.5 52.667C52.0571 51.4312 53.0695 49.933 53.6488 49.1974C54.1216 50.8823 54.819 52.2929 55.4794 53.1043C55.6916 51.8999 56.3046 50.5476 56.9933 49.4231C57.5172 51.6117 59.538 53.7406 61.6232 53.9007C60.2667 52.1121 60.2106 49.0204 60.3066 47.9907C59.4034 46.5643 58.8084 45.2775 58.5238 44.403C57.9112 45.0182 56.9635 46.2138 56.1132 47.5959C56.1132 47.579 56.0889 45.863 55.7497 43.7793C54.8731 44.5839 53.2856 45.1663 52.437 45.3925C51.9014 46.2795 51.7547 46.9714 51.5 48.0846C51.2453 46.9714 51.0981 46.2795 50.5629 45.3925C49.7141 45.1662 48.1268 44.5839 47.25 43.7794C46.9111 45.863 46.8864 47.579 46.8864 47.5958C46.0358 46.2138 45.0886 45.0181 44.4757 44.4029C44.1913 45.2775 43.5964 46.5643 42.6928 47.9908C42.7893 49.0206 42.7328 52.1122 41.3763 53.9009C43.462 53.7408 45.4825 51.6119 46.0062 49.4233L46.0064 49.423ZM27.1117 75.3064C28.2822 74.5309 29.0228 73.1219 29.8659 71.3985C29.3751 71.6049 28.6638 71.8283 27.9511 71.9785C27.2557 73.3446 26.2709 72.8147 26.2453 72.6209C26.4581 72.3813 26.7011 72.0272 26.8839 71.7191C26.5875 71.1559 26.2305 70.317 26.0337 69.7982C25.0388 71.9254 23.2115 74.0861 21.6812 74.9291C22.5816 76.2004 25.3721 76.459 27.1116 75.3063L27.1117 75.3064ZM30.7291 71.7213C29.899 73.5005 30.0942 76.2424 32.737 76.3201C32.5177 74.3785 33.379 72.552 34.2995 71.7214C33.5077 71.9196 32.2186 72.9745 32.2186 72.9745C32.2186 72.9745 32.0245 73.4266 31.9855 74.0117C31.4323 74.1121 31.1266 73.6793 31.3563 72.7766C31.3563 72.7766 30.9564 72.3123 30.7291 71.7214V71.7213ZM17.6467 73.753C18.0363 73.7525 18.4244 73.7043 18.8026 73.6094C21.3546 72.969 23.7847 70.7528 25.2292 68.892C24.4041 69.1573 23.5707 69.3296 22.6467 69.4246C22.6467 69.4246 21.9997 70.1934 21.5016 70.4776C21.2491 70.6229 20.9969 70.6923 20.7578 70.6923C20.0359 70.6923 19.7293 70.0909 19.7293 70.0909C19.7293 70.0909 20.8938 69.5242 21.6348 68.719C21.488 68.1257 21.3946 67.3038 21.3777 66.4843C19.3682 68.5343 15.5913 70.5261 12.9532 70.9127C13.4753 72.0166 15.3278 73.753 17.6468 73.753H17.6467ZM12.5375 69.4047C12.6699 69.4046 12.8022 69.3981 12.934 69.3853C15.5568 69.1219 18.7222 67.416 20.7606 65.9395C20.1117 66.0734 18.4057 66.1121 17.5962 65.9975C17.3162 66.188 16.0819 66.9803 15.0549 67.1125C13.1816 67.3536 12.9834 66.1766 12.9834 66.1766C14.187 66.0273 15.5744 65.6146 16.9005 64.9875C17.0337 63.9733 17.2648 63.0693 17.4624 62.4029C14.5709 64.0383 9.85364 65.1886 7.05531 65.2265C7.61526 66.5769 9.78623 69.4046 12.5375 69.4046L12.5375 69.4047ZM12.9499 59.8106C13.353 59.0865 13.991 58.2306 14.5717 57.5325C12.2633 58.1781 9.29154 58.3131 7.71611 58.3131C5.85873 58.3131 4.05398 58.18 3.01855 57.9689C3.1105 59.8639 4.88538 63.1328 8.3873 63.4517C8.56989 63.4688 8.77195 63.477 8.98807 63.477C11.1728 63.477 14.6473 62.5792 17.0382 61.7178C15.3334 61.495 13.6869 61.0841 13.3115 60.9241C12.4224 61.1832 10.2985 61.545 9.60878 61.5062C8.04318 61.419 7.87557 60.1983 7.87557 60.1983C7.87557 60.1983 10.6931 60.3192 12.9497 59.8106H12.9499ZM4.54351 56.3383C5.8445 56.7652 7.9193 57.01 10.2363 57.01C11.6499 57.01 13.1411 56.8816 14.354 56.7065C13.044 56.2535 11.4275 55.5688 10.377 54.8904C9.06391 54.8638 7.28163 54.826 6.13711 54.4702C4.454 53.9469 4.47787 52.7777 4.50784 52.5153C5.96295 53.1096 8.43833 53.678 10.2679 53.7887C10.9424 53.1289 11.9843 52.3425 13.0835 51.6579C8.74199 51.6965 3.19955 49.9503 0.0854772 48.2759C-0.626535 54.1599 3.30789 55.9321 4.54351 56.3382V56.3383ZM14.0871 44.1374C13.4172 42.8319 12.7639 41.0757 12.6776 39.562C10.6471 37.9416 8.32933 35.8798 6.98827 33.5231C6.21324 32.1608 6.4993 30.967 7.0482 30.5561C7.46675 32.036 10.1935 36.1801 12.6651 38.2582C12.6846 36.9301 12.9045 35.4026 13.2454 34.2537C10.3717 31.0775 7.15064 25.8166 6.37252 23.7555C5.49795 24.4912 3.9904 26.3417 3.61988 28.9494C3.24674 31.5741 4.08469 34.2704 6.11024 36.9638C7.66807 39.0356 11.0973 42.1246 14.0871 44.1374V44.1374ZM13.2613 50.8126C11.2857 49.4821 9.91629 48.2476 9.18648 47.139C7.53567 46.4869 5.40123 45.4915 4.34969 44.5944C2.90487 43.3631 3.36229 42.2547 3.53074 42.0333C4.80279 43.3526 7.55768 45.254 9.51431 46.0999C10.7359 45.6164 12.4333 45.2621 14.087 45.0554C9.18592 43.0886 3.92486 39.3966 1.1755 35.9161C0.617988 37.0155 -1.64671 42.1875 2.59915 46.4286C4.83519 48.6627 9.44118 50.204 13.261 50.8127L13.2613 50.8126ZM76.9663 69.7983C76.7693 70.3171 76.4122 71.1561 76.1157 71.7192C76.2983 72.0272 76.5418 72.3813 76.7545 72.621C76.7287 72.8148 75.7442 73.3446 75.049 71.9785C74.3361 71.8285 73.6248 71.6049 73.1339 71.3985C73.9772 73.122 74.7175 74.531 75.8882 75.3064C77.6278 76.4591 80.4183 76.2005 81.3185 74.9292C79.7883 74.0861 77.9609 71.9254 76.9662 69.7982L76.9663 69.7983ZM72.2708 71.7214C72.0435 72.3123 71.6437 72.7765 71.6437 72.7765C71.8734 73.6793 71.5676 74.1121 71.0141 74.0116C70.9753 73.4266 70.7809 72.9744 70.7809 72.9744C70.7809 72.9744 69.4919 71.9195 68.7001 71.7213C69.6206 72.5519 70.482 74.3785 70.2629 76.3201C72.9056 76.2425 73.101 73.5005 72.2708 71.7214V71.7214ZM81.3654 68.7191C82.1061 69.5242 83.2703 70.091 83.2703 70.091C83.2703 70.091 82.9639 70.6924 82.2422 70.6924C82.0029 70.6924 81.7508 70.623 81.498 70.4777C81 70.1934 80.3531 69.4247 80.3531 69.4247C79.4291 69.3297 78.5955 69.1576 77.7703 68.8921C79.2151 70.7528 81.6452 72.9692 84.197 73.6094C84.5752 73.7043 84.9634 73.7525 85.3531 73.753C87.6718 73.753 89.5246 72.0166 90.0466 70.9129C87.4086 70.5262 83.6316 68.5345 81.6221 66.4844C81.6051 67.3038 81.5117 68.1257 81.3654 68.7191V68.7191ZM86.0991 64.9877C87.4255 65.6148 88.813 66.0274 90.0168 66.1767C90.0168 66.1767 89.8183 67.3539 87.9449 67.1126C86.918 66.9803 85.6833 66.188 85.4037 65.9975C84.5943 66.1121 82.8877 66.0734 82.2392 65.9395C84.2777 67.416 87.4431 69.1219 90.0656 69.3853C90.1975 69.3981 90.3299 69.4046 90.4624 69.4047C93.2138 69.4047 95.3845 66.5769 95.9444 65.2266C93.1461 65.1886 88.4291 64.0383 85.5376 62.403C85.7352 63.0695 85.966 63.9734 86.0991 64.9876V64.9877ZM88.4278 57.5325C89.0087 58.2307 89.6466 59.0866 90.0496 59.8106C92.3064 60.3193 95.1238 60.1983 95.1238 60.1983C95.1238 60.1983 94.9564 61.419 93.3912 61.5061C92.7011 61.5448 90.5774 61.1831 89.6885 60.924C89.3126 61.084 87.6665 61.4949 85.9617 61.7178C88.3523 62.5792 91.8274 63.4771 94.0118 63.4771C94.2282 63.4771 94.43 63.4689 94.6124 63.4518C98.1144 63.1329 99.8895 59.864 99.9814 57.9691C98.9463 58.18 97.141 58.3133 95.2838 58.3133C93.7088 58.3133 90.7364 58.1783 88.4279 57.5325H88.4278ZM102.915 48.2761C99.8003 49.9505 94.2579 51.6967 89.9162 51.6581C91.0155 52.3427 92.0574 53.1291 92.7318 53.7889C94.5612 53.6781 97.0367 53.1097 98.4916 52.5154C98.5216 52.7778 98.5455 53.947 96.8626 54.4703C95.7182 54.8261 93.9359 54.8639 92.6228 54.8905C91.5722 55.5689 89.9558 56.2536 88.6455 56.7066C89.8586 56.8816 91.3498 57.0101 92.7635 57.0101C95.0805 57.0101 97.1552 56.7654 98.4562 56.3383C99.6917 55.9323 103.627 54.16 102.915 48.2761H102.915ZM95.9518 30.5562C96.5008 30.9671 96.7867 32.1609 96.0117 33.5232C94.6703 35.8799 92.353 37.9416 90.3222 39.5621C90.236 41.0758 89.5825 42.832 88.9125 44.1374C91.9023 42.1246 95.3319 39.0356 96.8894 36.964C98.915 34.2705 99.753 31.5742 99.3798 28.9496C99.0091 26.3417 97.502 24.4912 96.627 23.7556C95.8492 25.8167 92.6278 31.0776 89.7541 34.2538C90.0951 35.4027 90.3154 36.9302 90.3348 38.2583C92.8061 36.1801 95.533 32.0361 95.9518 30.5562V30.5562ZM93.4854 46.1001C95.4422 45.2541 98.1972 43.3526 99.4688 42.0335C99.6373 42.2548 100.095 43.3632 98.65 44.5945C97.5984 45.4916 95.4639 46.487 93.8134 47.1391C93.0834 48.2477 91.7141 49.4822 89.7386 50.8127C93.5583 50.2041 98.1645 48.6627 100.401 46.4287C104.646 42.1877 102.382 37.0156 101.824 35.9163C99.0751 39.3968 93.8139 43.0888 88.9125 45.0556C90.5665 45.2623 92.2639 45.6165 93.4853 46.1002L93.4854 46.1001ZM82.065 40.1461C80.4732 43.8988 76.4377 47.2445 73.8272 48.9197C72.6361 49.6836 73.0708 51.1324 73.4517 51.7754C77.008 57.7795 70.541 62.2543 64.6998 59.2787C65.9743 59.2929 67.2611 58.1922 67.4393 57.2113C67.0342 57.5669 65.3755 57.3715 64.8853 56.9111C65.6377 56.511 65.8167 56.1056 65.8556 55.7264C64.9251 56.3069 63.0441 56.3868 62.4898 55.4062C59.4036 55.3215 57.3506 52.8737 57.1235 52.1673C56.8948 52.9188 56.5252 54.232 56.4039 55.528C55.5668 54.952 54.1375 53.6486 53.3922 51.8809C52.5488 53.1051 51.9128 54.4841 51.4998 55.9371C51.0869 54.4841 50.4513 53.1051 49.6074 51.8809C48.8621 53.6485 47.4326 54.9521 46.5959 55.5281C46.4742 54.2321 46.1052 52.919 45.8763 52.1675C45.6492 52.8739 43.5962 55.3218 40.51 55.4064C39.9556 56.387 38.0749 56.3071 37.1443 55.7265C37.183 56.1059 37.3621 56.5112 38.1144 56.9112C37.6242 57.3717 35.9657 57.5673 35.5603 57.2115C35.7385 58.1923 37.0255 59.293 38.2999 59.2788C32.4586 62.2544 25.9915 57.7797 29.548 51.7756C29.9291 51.1326 30.3636 49.6838 29.1728 48.9198C26.5622 47.2444 22.5265 43.8988 20.9347 40.146C20.7455 41.6763 20.8897 45.4738 22.5067 47.8368C21.3253 48.296 19.8103 49.041 18.7918 49.732C19.436 50.4762 20.9359 51.7616 21.9436 52.4604C21.121 53.204 19.844 54.6277 19.1739 55.5598C20.023 56.0733 21.7339 56.6965 23.0413 57.117C22.4369 58.1307 21.5076 59.9594 21.274 61.0477C22.7379 61.2642 24.2325 61.2443 25.5513 61.202C25.3831 62.471 25.4938 64.0645 25.6259 65.2255C26.9845 65.0269 28.4792 64.4664 29.4708 63.9357C29.659 64.8114 30.1774 66.4278 30.6422 67.293C31.9311 66.0493 33.6312 65.4802 35.2051 65.8097C38.4276 66.4845 39.3855 69.7984 39.3855 69.7984L39.3905 59.7178V58.5925C39.3905 57.964 39.7231 57.6315 40.3198 57.6317H62.6802C63.2771 57.6315 63.6095 57.9641 63.6095 58.5924V59.7176L63.6145 69.7982C63.6145 69.7982 64.5724 66.4843 67.7948 65.8095C69.3689 65.48 71.0691 66.0492 72.3582 67.2928C72.8231 66.4276 73.3414 64.8112 73.5294 63.9355C74.5208 64.4662 76.0156 65.0267 77.3743 65.2254C77.5063 64.0644 77.6168 62.471 77.4489 61.202C78.7527 61.3394 80.2524 61.3394 81.726 61.0476C81.4928 59.9594 80.5632 58.1308 79.9586 57.1171C81.3185 56.7462 82.977 56.0734 83.8263 55.5599C83.1565 54.6278 81.8793 53.2041 81.0568 52.4605C82.0641 51.7617 83.5639 50.4762 84.2086 49.7321C83.1898 49.0411 81.6748 48.296 80.4934 47.8369C82.1102 45.4739 82.2547 41.6764 82.0652 40.1461H82.065ZM41.4256 28.3455L41.2926 28.6992C45.1996 28.6992 48.9553 27.3401 49.9574 22.6073H46.9648C46.4337 26.0169 44.4624 28.3455 41.4255 28.3455H41.4256ZM24.5345 20.6455C24.5345 20.6455 26.6715 21.1489 27.5078 24.2063C28.3443 27.2638 30.4461 28.7261 32.6026 28.7261L32.4698 28.3095C31.215 28.1507 29.446 26.3339 29.1151 22.9691C28.7813 19.5816 27.9641 19.1452 27.9641 19.1452C27.1198 18.5515 24.9973 20.1196 24.5342 20.6456L24.5345 20.6455ZM18.2833 22.0131C20.0658 21.9537 21.2653 22.5301 23.5057 20.4553C26.1503 18.0049 27.4059 18.4237 27.4059 18.4237C26.0562 17.5311 24.1741 17.1344 23.5278 17.6499C22.8814 18.1659 22.0065 19.5499 20.5361 20.5353C18.4639 21.9239 16.3355 21.5574 16.2403 22.8517H16.298C16.298 22.8517 16.501 22.073 18.2831 22.0131H18.2833ZM19.9275 30.1354C21.0111 31.2214 21.1106 33.453 21.1106 33.453C21.1106 33.453 22.4082 31.0877 21.3389 28.5728C20.2699 26.0586 18.0849 24.1294 20.2269 22.6609C18.9185 22.6722 17.5007 22.3662 16.878 23.268C16.6842 23.5488 16.5046 24.245 17.1567 25.2355C17.9854 26.4942 20.0554 29.421 18.3592 31.37C19.5993 31.1373 19.9274 30.1353 19.9274 30.1353L19.9275 30.1354ZM33.3106 28.7127H40.6521C40.6521 28.7127 40.8338 28.2597 41.0652 27.6053H32.8979C33.1295 28.2597 33.3106 28.7127 33.3106 28.7127V28.7127ZM37.7038 18.1144C37.7038 17.7069 37.3869 17.3759 36.9964 17.3759C36.6055 17.3759 36.2885 17.7068 36.2885 18.1144C36.2885 18.5223 36.6055 18.8527 36.9964 18.8527C37.3868 18.8527 37.7038 18.5224 37.7038 18.1144V18.1144ZM41.3706 26.7697C41.6843 25.7687 42.0379 24.2462 42.0379 23.5116C42.0379 22.1691 41.3272 20.6828 38.7618 20.2252C38.7618 21.8478 37.9863 25.8233 37.0488 25.8233H36.9434C36.0063 25.8233 35.2307 21.8774 35.2307 20.2249C32.6567 20.6818 31.9248 22.1686 31.9248 23.5116C31.9248 24.2463 32.2788 25.7687 32.5929 26.7697H41.3707H41.3706ZM36.9964 24.7099C37.4848 24.7099 37.8806 22.1141 37.8806 20.8218C37.8806 20.1157 37.4849 19.6526 36.9964 19.6526C36.5077 19.6526 36.1116 20.1157 36.1116 20.8218C36.1116 22.1141 36.5077 24.7099 36.9964 24.7099H36.9964ZM36.5242 16.3914H37.4679L37.3501 15.1607L38.5294 15.2839V14.2993L37.3501 14.4225L37.4679 13.1916H36.5242L36.6422 14.4225L35.4631 14.2993V15.2839L36.6423 15.1607L36.5243 16.3915L36.5242 16.3914ZM56.0348 22.6073H53.0422C54.0446 27.3402 57.8002 28.6992 61.707 28.6992L61.5745 28.3455C58.5376 28.3455 56.566 26.0171 56.0349 22.6073H56.0348ZM70.3973 28.7262C72.5535 28.7262 74.6554 27.2639 75.492 24.2063C76.3282 21.149 78.4656 20.6457 78.4656 20.6457C78.0024 20.1199 75.8803 18.5517 75.0357 19.1453C75.0357 19.1453 74.2186 19.5817 73.8849 22.9693C73.554 26.334 71.7849 28.1509 70.5302 28.3097L70.3973 28.7263V28.7262ZM79.4942 20.4554C81.7344 22.5301 82.9339 21.9539 84.7166 22.0131C86.4985 22.0731 86.7016 22.8518 86.7016 22.8518H86.7593C86.6641 21.5575 84.5356 21.924 82.4639 20.5354C80.9934 19.55 80.1181 18.1659 79.472 17.65C78.8254 17.1344 76.9433 17.5312 75.5937 18.4238C75.5937 18.4238 76.8494 18.005 79.4942 20.4554H79.4942ZM86.1217 23.2682C85.499 22.3664 84.0813 22.6724 82.7728 22.661C84.9149 24.1294 82.7304 26.0586 81.6608 28.5728C80.5918 31.0878 81.8891 33.453 81.8891 33.453C81.8891 33.453 81.9889 31.2214 83.0723 30.1354C83.0723 30.1354 83.4004 31.1374 84.6407 31.3701C82.9442 29.4212 85.0143 26.4943 85.8434 25.2356C86.4953 24.2451 86.3157 23.5488 86.1218 23.2681L86.1217 23.2682ZM69.6891 28.7128C69.6891 28.7128 69.8701 28.2598 70.102 27.6054H61.9347C62.166 28.2598 62.3476 28.7128 62.3476 28.7128H69.6891V28.7128ZM66.7111 18.1145C66.7111 17.707 66.3942 17.376 66.0034 17.376C65.6129 17.376 65.2959 17.7069 65.2959 18.1145C65.2959 18.5224 65.6128 18.8528 66.0034 18.8528C66.3942 18.8528 66.7111 18.5225 66.7111 18.1145V18.1145ZM70.4069 26.7698C70.7212 25.7688 71.0751 24.2463 71.0751 23.5117C71.0751 22.1687 70.3429 20.6819 67.769 20.225C67.769 21.8773 66.9937 25.8233 66.0564 25.8233H65.9511C65.0136 25.8233 64.2379 21.8479 64.2379 20.2252C61.6723 20.6828 60.962 22.1691 60.962 23.5116C60.962 24.2463 61.3155 25.7687 61.6291 26.7697H70.407L70.4069 26.7698ZM66.0034 24.71C66.4922 24.71 66.8882 22.1142 66.8882 20.8219C66.8882 20.1158 66.4922 19.6527 66.0034 19.6527C65.5149 19.6527 65.1191 20.1158 65.1191 20.8219C65.1191 22.1142 65.5149 24.71 66.0034 24.71V24.71ZM65.532 16.3915H66.4754L66.3577 15.1608L67.537 15.284V14.2994L66.3577 14.4226L66.4755 13.1916H65.5322L65.6502 14.4226L64.4704 14.2994V15.284L65.6502 15.1608L65.5322 16.3916L65.532 16.3915ZM17.4993 45.976C15.5923 46.0227 12.2344 46.4097 10.529 46.961C11.6882 48.3787 14.7153 50.4142 16.5292 51.2787C15.1186 51.823 12.5885 53.2045 11.5334 54.2015C12.8928 55.0572 15.8786 56.035 17.2898 56.3547C16.4682 57.0336 14.7764 58.9965 14.1558 60.0549C15.3244 60.4261 17.7271 60.749 19.2528 60.8403C18.7636 61.8786 18.2065 63.7113 18.0589 64.9054C18.8152 64.9834 21.3418 64.8505 22.5928 64.5646C22.4855 65.6053 22.5263 67.4985 22.6955 68.3147C23.9298 68.1342 25.6922 67.6285 26.5122 67.3057C26.7496 68.2334 27.5983 70.231 27.8966 70.7058C28.8854 70.5123 30.0658 70.1011 30.9335 69.638C31.2077 70.3816 31.8308 71.494 32.0031 71.7749C34.8935 68.7995 39.0209 71.2124 39.0209 74.3787C38.7244 76.4648 35.8319 76.3481 34.3093 77.3287C32.3071 78.618 32.6536 81.6072 30.5928 82.0662C32.54 83.3201 33.1066 80.9667 35.1291 80.8997C34.8592 82.169 34.8849 84.4227 35.0875 85.3666C35.9199 84.7123 37.0873 84.2128 37.8511 84.1621C37.6624 84.9025 37.5151 86.6352 37.7881 87.7144C38.3247 87.3003 40.3285 85.526 45.0862 86.6668C45.663 86.8048 41.859 86.6525 42.3336 87.9022C42.7075 88.8872 42.8133 89.5721 42.3662 90.9703C42.5679 91.0441 42.8019 91.0792 43.054 91.0792C44.1208 91.0792 45.504 90.4488 46.0534 89.459C46.478 89.7803 46.478 92.0699 45.0555 92.6385C46.575 92.7514 47.7322 91.4944 47.9567 90.722C47.9567 90.722 48.6995 92.5203 49.5804 93.1107C50.1335 92.9133 51.119 91.9795 51.4999 91.0097C51.8804 91.9796 52.8661 92.9133 53.4189 93.1107C54.2998 92.5202 55.0427 90.722 55.0427 90.722C55.2673 91.4944 56.4248 92.7514 57.9443 92.6385C56.5216 92.0699 56.5216 89.7803 56.9461 89.459C57.4957 90.4488 58.8788 91.0792 59.9458 91.0792C60.1977 91.0792 60.432 91.044 60.6338 90.9703C60.1867 89.5721 60.2924 88.8873 60.6663 87.9022C61.141 86.6526 57.3369 86.8049 57.9137 86.6668C62.6705 85.526 64.6752 87.3003 65.2118 87.7144C65.4848 86.6352 65.3375 84.9025 65.1488 84.1621C65.9125 84.2128 67.0798 84.7123 67.9123 85.3665C68.1144 84.4226 68.1405 82.1689 67.8702 80.8996C69.8928 80.9666 70.4593 83.32 72.4067 82.0661C70.346 81.6071 70.6922 78.6178 68.6901 77.3286C67.1676 76.348 64.2749 76.4647 63.9785 74.3786C63.9785 71.2124 68.106 68.7994 70.9965 71.7748C71.1685 71.4938 71.7915 70.3814 72.0659 69.6378C72.9334 70.1011 74.1141 70.5122 75.1029 70.7058C75.401 70.2309 76.2499 68.2332 76.487 67.3055C77.3073 67.6283 79.0697 68.134 80.3039 68.3146C80.473 67.4984 80.514 65.6052 80.4066 64.5645C81.6575 64.8504 84.1838 64.9834 84.9402 64.9053C84.7929 63.7111 84.236 61.8785 83.7463 60.8401C85.2723 60.7488 87.6749 60.4259 88.8439 60.0547C88.2228 58.9962 86.531 57.0333 85.7098 56.3544C87.1207 56.0348 90.1065 55.057 91.4661 54.2011C90.4111 53.2042 87.8806 51.8227 86.4702 51.2785C88.2843 50.4139 91.311 48.3785 92.4706 46.9608C90.7648 46.4093 87.4069 46.0224 85.5001 45.9758C89.4472 43.2332 89.5688 37.2845 88.432 34.0519C87.6678 36.0116 85.1338 39.231 83.4981 40.9668C83.6432 42.6189 83.1155 45.5493 82.2106 47.3379C83.5061 47.8377 85.0417 48.5916 86.1296 49.4321C85.4077 50.3548 83.8546 51.7866 82.8804 52.5624C83.7049 53.4381 85.0914 55.0466 85.7092 55.9765C84.7962 56.6709 82.8095 57.4676 81.7911 57.8334C82.2923 58.8774 83.0202 60.7819 83.2084 62.0965C82.0486 62.2914 80.4521 62.4232 78.7829 62.4027C78.8639 63.6615 78.6897 65.6107 78.4739 66.7779C76.9257 66.6528 75.0992 66.0072 74.2849 65.5925C73.8539 67.3323 72.7893 69.0202 72.7427 69.1099C67.9035 63.7521 63.6144 68.8066 63.6144 73.529V79.9641C63.6144 83.0078 62.6704 84.3975 59.9535 84.3975H56.4376C54.2488 84.3975 52.4147 85.3407 51.4996 87.1529C50.5843 85.3407 48.7503 84.3975 46.5615 84.3975H43.0455C40.3285 84.3975 39.3843 83.0078 39.3843 79.964V73.5289C39.3843 68.8066 35.0954 63.7521 30.2563 69.1099C30.2098 69.0202 29.1448 67.3323 28.7139 65.5925C27.8996 66.0072 26.0731 66.6528 24.5256 66.778C24.3091 65.6108 24.1351 63.6616 24.2162 62.403C22.547 62.4234 20.9505 62.2917 19.7904 62.0968C19.9788 60.7821 20.7067 58.8776 21.208 57.8336C20.1898 57.4678 18.2029 56.6711 17.2899 55.9767C17.9074 55.0468 19.2941 53.4383 20.1185 52.5625C19.1442 51.7866 17.5912 50.3548 16.8695 49.4321C17.957 48.5916 19.493 47.8376 20.7884 47.3378C19.8835 45.5493 19.3556 42.6189 19.5009 40.9667C17.8651 39.2309 15.3311 36.0114 14.5668 34.0518C13.4301 37.2844 13.5518 43.2331 17.499 45.9756L17.4993 45.976ZM6.60726 76.701L6.25144 77.0867C6.25144 77.0867 6.98949 78.0665 7.58539 77.6938C7.92464 77.0577 6.96486 76.317 6.96486 76.317L6.60717 76.701H6.60726Z" fill="#FFDB96"/>
</svg>
