<svg width="1920" height="1004" viewBox="0 0 1920 1004" fill="none" xmlns="http://www.w3.org/2000/svg">
<g clip-path="url(#clip0)">
<path d="M1688.17 663.274C1693.52 663.274 1707.5 670.5 1718.5 686.5C1729.5 702.5 1736.5 722.5 1700.01 725" stroke="#D0D0D0" stroke-width="6.88049" stroke-linecap="round"/>
<path d="M1597.1 663.274C1591.75 663.274 1576 670.016 1576 697.5C1576 718.5 1586.21 736.5 1601 749" stroke="#D0D0D0" stroke-width="6.88049" stroke-linecap="round"/>
<rect width="6.88049" height="21.406" rx="3.058" transform="matrix(-1 0 0 1 1612.1 593)" fill="#E5E5E5"/>
<rect width="6.88049" height="21.406" rx="3.058" transform="matrix(-1 0 0 1 1680.14 593)" fill="#E5E5E5"/>
<rect x="1625.09" y="639.192" width="35.167" height="13.761" rx="3.058" fill="#C7C7C7"/>
<rect x="1610.57" y="737.048" width="64.2179" height="13.761" rx="3.058" fill="#BEBEBE"/>
<path d="M1611.84 592.277C1611.99 590.704 1613.31 589.5 1614.89 589.5H1670.47C1672.05 589.5 1673.37 590.704 1673.51 592.277L1677.95 640.441C1678.12 642.233 1676.71 643.779 1674.91 643.779H1610.45C1608.65 643.779 1607.24 642.233 1607.41 640.441L1611.84 592.277Z" fill="#D0D0D0"/>
<path d="M1612.1 593.5C1612.1 593.5 1607.34 641.5 1642.68 641.5C1678.02 641.5 1673.26 593.5 1673.26 593.5V640.721C1673.26 642.41 1671.89 643.779 1670.2 643.779H1615.16C1613.47 643.779 1612.1 642.41 1612.1 640.721V593.5Z" fill="#E5E5E5"/>
<rect width="18.348" height="21.406" rx="3.058" transform="matrix(-1 0 0 1 1689.31 652.953)" fill="#E6E6E6"/>
<rect width="18.348" height="21.406" rx="3.058" transform="matrix(-1 0 0 1 1613.63 652.953)" fill="#E6E6E6"/>
<path d="M1600.76 653.082C1600.69 651.344 1602.08 649.896 1603.82 649.896H1681.54C1683.28 649.896 1684.66 651.344 1684.59 653.082L1681.03 737.941C1680.96 739.579 1679.61 740.871 1677.97 740.871H1607.39C1605.75 740.871 1604.4 739.579 1604.33 737.941L1600.76 653.082Z" fill="#E6E6E6"/>
<path d="M1608.89 659.193C1608.78 656.91 1610.61 655 1612.89 655H1674.49C1676.78 655 1678.6 656.91 1678.49 659.193L1675.69 717.193C1675.59 719.324 1673.83 721 1671.7 721H1615.69C1613.55 721 1611.79 719.324 1611.69 717.193L1608.89 659.193Z" fill="#F0F0F0"/>
<path d="M1601.19 656.896C1610.69 694 1588.66 733.608 1642.68 733.608C1696.69 733.608 1675.19 697 1684.19 656.896C1683.33 679.916 1681.5 725.973 1681.02 737.963C1680.95 739.603 1679.61 740.871 1677.96 740.871H1607.42C1605.76 740.871 1604.41 739.573 1604.36 737.923C1603.92 724.392 1602.07 668.396 1601.19 656.896Z" fill="#C7C7C7"/>
<circle cx="1666.48" cy="568.783" r="12.7831" fill="#E3FCF2"/>
<rect x="1660.67" y="560.067" width="12.2021" height="18.0126" rx="3.48631" fill="#87F2C5"/>
<path d="M1664.15 578.08H1669.38C1670.27 578.08 1671.09 577.744 1671.71 577.192C1671.71 577.192 1666.92 577.357 1664.15 574.594C1660.67 571.107 1661.25 561.626 1661.25 561.626C1660.88 562.178 1660.67 562.841 1660.67 563.554V574.594C1660.67 576.519 1662.23 578.08 1664.15 578.08Z" fill="#65D3A5"/>
<rect x="1664.61" y="577.961" width="4.06736" height="11.621" fill="#D0D0D0"/>
<rect x="1664.03" y="577.961" width="5.22946" height="1.1621" fill="#D0D0D0"/>
<rect x="1664.03" y="588.42" width="5.22946" height="1.1621" fill="#D0D0D0"/>
<path d="M1596.54 744.232C1597.19 743.546 1598.1 743.233 1599.04 743.348C1604.82 744.061 1626.47 746.605 1641.15 746.605C1655.83 746.605 1677.48 744.061 1683.26 743.348C1684.2 743.233 1685.11 743.546 1685.76 744.233C1688.69 747.361 1697.01 756.89 1699.25 766.482C1700.97 773.837 1698.3 786.436 1696.62 793.068C1695.96 795.682 1693.6 797.444 1690.9 797.444C1681.37 797.444 1658.68 797.444 1641.15 797.444C1623.62 797.444 1600.92 797.444 1591.4 797.444C1588.7 797.444 1586.34 795.682 1585.68 793.068C1584 786.436 1581.33 773.837 1583.05 766.482C1585.29 756.89 1593.61 747.361 1596.54 744.232Z" fill="#F0F0F0"/>
<path d="M1583.05 766.481C1581.33 773.837 1584 786.436 1585.68 793.068C1586.34 795.681 1588.7 797.444 1591.4 797.444H1641.15H1690.9C1693.6 797.444 1695.96 795.681 1696.62 793.068C1698.3 786.436 1700.97 773.837 1699.25 766.481C1693.52 766.481 1667.45 774.5 1641.15 774.5C1614.85 774.5 1591.52 770 1583.05 766.481Z" fill="#C7C7C7"/>
<circle cx="1633.5" cy="628.5" r="3.5" fill="#919191"/>
<circle cx="1652.5" cy="628.5" r="3.5" fill="#919191"/>
<path d="M1684.28 710C1685.03 710 1685.72 710.419 1686.06 711.086L1702.5 743.086C1703.19 744.417 1702.22 746 1700.72 746L1577.96 746C1576.54 746 1575.58 744.567 1576.11 743.253L1589 711.253C1589.3 710.496 1590.03 710 1590.85 710L1684.28 710Z" fill="#F7DAC5"/>
<circle cx="1658.16" cy="719.541" r="22.1562" fill="#89C599"/>
<circle cx="1659.54" cy="718.156" r="22.1562" fill="#87F2C5"/>
<rect width="5.02972" height="20.6925" rx="2.51486" transform="matrix(0.899592 -0.436732 0.56603 0.824385 1644.87 713.432)" fill="white"/>
<rect width="5.02972" height="27.3343" rx="2.51486" transform="matrix(0.899592 0.436732 -0.56603 0.824385 1669.74 706.231)" fill="white"/>
<path d="M996.166 678.274C1001.52 678.274 1008.01 685.684 1008.01 703C1008.01 720.316 1003 727 1028.5 727" stroke="#D0D0D0" stroke-width="6.88049" stroke-linecap="round"/>
<path d="M905.098 678.274C899.746 678.274 884 685.016 884 712.5C884 733.5 894.212 751.5 909 764" stroke="#D0D0D0" stroke-width="6.88049" stroke-linecap="round"/>
<rect width="6.88049" height="21.406" rx="3.058" transform="matrix(-1 0 0 1 920.098 608)" fill="#E5E5E5"/>
<rect width="6.88049" height="21.406" rx="3.058" transform="matrix(-1 0 0 1 988.139 608)" fill="#E5E5E5"/>
<rect x="933.095" y="654.192" width="35.167" height="13.761" rx="3.058" fill="#C7C7C7"/>
<rect x="918.569" y="752.048" width="64.2179" height="13.761" rx="3.058" fill="#BEBEBE"/>
<path d="M919.842 607.277C919.987 605.704 921.307 604.5 922.887 604.5H978.469C980.049 604.5 981.369 605.704 981.514 607.277L985.951 655.441C986.116 657.233 984.705 658.779 982.905 658.779H918.451C916.651 658.779 915.241 657.233 915.406 655.441L919.842 607.277Z" fill="#D0D0D0"/>
<path d="M920.098 608.5C920.098 608.5 915.338 624 950.678 624C986.018 624 981.258 608.5 981.258 608.5V655.721C981.258 657.41 979.889 658.779 978.2 658.779H923.156C921.467 658.779 920.098 657.41 920.098 655.721V608.5Z" fill="#E5E5E5"/>
<rect width="18.348" height="21.406" rx="3.058" transform="matrix(-1 0 0 1 997.312 667.953)" fill="#E6E6E6"/>
<rect width="18.348" height="21.406" rx="3.058" transform="matrix(-1 0 0 1 921.627 667.953)" fill="#E6E6E6"/>
<path d="M908.764 668.082C908.691 666.344 910.08 664.896 911.82 664.896H989.536C991.275 664.896 992.664 666.344 992.591 668.082L989.026 752.941C988.957 754.579 987.61 755.871 985.971 755.871H915.385C913.746 755.871 912.399 754.579 912.33 752.941L908.764 668.082Z" fill="#E6E6E6"/>
<path d="M916.895 674.193C916.784 671.91 918.605 670 920.89 670H982.495C984.78 670 986.6 671.91 986.49 674.193L983.694 732.193C983.591 734.324 981.833 736 979.699 736H923.686C921.552 736 919.793 734.324 919.691 732.193L916.895 674.193Z" fill="#F0F0F0"/>
<path d="M909.192 671.896C918.692 709 896.664 748.608 950.678 748.608C1004.69 748.608 983.192 712 992.192 671.896C991.327 694.916 989.496 740.973 989.019 752.963C988.954 754.603 987.606 755.871 985.965 755.871H915.415C913.764 755.871 912.412 754.573 912.358 752.923C911.919 739.392 910.07 683.396 909.192 671.896Z" fill="#C7C7C7"/>
<circle cx="974.476" cy="583.783" r="12.7831" fill="#E3FCF2"/>
<rect x="968.665" y="575.067" width="12.2021" height="18.0126" rx="3.48631" fill="#87F2C5"/>
<path d="M972.151 593.08H977.381C978.274 593.08 979.088 592.744 979.705 592.192C979.705 592.192 974.915 592.357 972.151 589.594C968.665 586.107 969.246 576.626 969.246 576.626C968.879 577.178 968.665 577.841 968.665 578.554V589.594C968.665 591.519 970.226 593.08 972.151 593.08Z" fill="#65D3A5"/>
<rect x="972.612" y="592.961" width="4.06736" height="11.621" fill="#D0D0D0"/>
<rect x="972.031" y="592.961" width="5.22946" height="1.1621" fill="#D0D0D0"/>
<rect x="972.031" y="603.42" width="5.22946" height="1.1621" fill="#D0D0D0"/>
<path d="M904.542 759.232C905.186 758.546 906.102 758.233 907.036 758.348C912.818 759.061 934.471 761.605 949.149 761.605C963.827 761.605 985.481 759.061 991.262 758.348C992.196 758.233 993.113 758.546 993.756 759.233C996.687 762.361 1005.01 771.89 1007.25 781.482C1008.97 788.837 1006.3 801.436 1004.62 808.068C1003.96 810.682 1001.6 812.444 998.903 812.444C989.373 812.444 966.675 812.444 949.149 812.444C931.623 812.444 908.925 812.444 899.395 812.444C896.699 812.444 894.34 810.682 893.678 808.068C892 801.436 889.325 788.837 891.047 781.482C893.292 771.89 901.611 762.361 904.542 759.232Z" fill="#F0F0F0"/>
<path d="M891.047 781.481C889.325 788.837 892 801.436 893.678 808.068C894.34 810.681 896.699 812.444 899.395 812.444H949.149H998.903C1001.6 812.444 1003.96 810.681 1004.62 808.068C1006.3 801.436 1008.97 788.837 1007.25 781.481C1001.52 781.481 975.448 789.5 949.149 789.5C922.85 789.5 899.518 785 891.047 781.481Z" fill="#C7C7C7"/>
<circle cx="953.5" cy="645.5" r="3.5" fill="#919191"/>
<circle cx="972.5" cy="645.5" r="3.5" fill="#919191"/>
<g opacity="0.24">
<rect x="1330.86" y="143.707" width="58.6192" height="58.6192" rx="4.58488" fill="#F3A2B8"/>
<rect x="1333.67" y="145.4" width="58.6192" height="58.6192" rx="4.58488" fill="#F74364"/>
<rect x="1342.83" y="159.895" width="7.49791" height="49.9861" rx="3.74895" transform="rotate(-45 1342.83 159.895)" fill="#EFF3FF"/>
<rect x="1378.18" y="154.594" width="7.49791" height="49.9861" rx="3.74895" transform="rotate(45 1378.18 154.594)" fill="#EFF3FF"/>
</g>
<g opacity="0.24">
<rect x="1357.86" y="82.7068" width="58.6192" height="58.6192" rx="4.58488" fill="#F3A2B8"/>
<rect x="1360.67" y="84.3999" width="58.6192" height="58.6192" rx="4.58488" fill="#F74364"/>
<rect x="1369.83" y="98.895" width="7.49791" height="49.9861" rx="3.74895" transform="rotate(-45 1369.83 98.895)" fill="#EFF3FF"/>
<rect x="1405.18" y="93.5935" width="7.49791" height="49.9861" rx="3.74895" transform="rotate(45 1405.18 93.5935)" fill="#EFF3FF"/>
</g>
<g opacity="0.24">
<rect x="1211.86" y="44.7068" width="58.6192" height="58.6192" rx="4.58488" fill="#F3A2B8"/>
<rect x="1214.67" y="46.3999" width="58.6192" height="58.6192" rx="4.58488" fill="#F74364"/>
<rect x="1223.83" y="60.895" width="7.49791" height="49.9861" rx="3.74895" transform="rotate(-45 1223.83 60.895)" fill="#EFF3FF"/>
<rect x="1259.18" y="55.5935" width="7.49791" height="49.9861" rx="3.74895" transform="rotate(45 1259.18 55.5935)" fill="#EFF3FF"/>
</g>
<g opacity="0.24">
<rect x="1136.86" y="80.7068" width="58.6192" height="58.6192" rx="4.58488" fill="#F3A2B8"/>
<rect x="1139.67" y="82.3999" width="58.6192" height="58.6192" rx="4.58488" fill="#F74364"/>
<rect x="1148.83" y="96.895" width="7.49791" height="49.9861" rx="3.74895" transform="rotate(-45 1148.83 96.895)" fill="#EFF3FF"/>
<rect x="1184.18" y="91.5935" width="7.49791" height="49.9861" rx="3.74895" transform="rotate(45 1184.18 91.5935)" fill="#EFF3FF"/>
</g>
<g opacity="0.24">
<rect x="1266.45" y="127.347" width="37.9989" height="37.9989" rx="4.58488" fill="#F3A2B8"/>
<rect x="1268.27" y="128.445" width="37.9989" height="37.9989" rx="4.58488" fill="#F74364"/>
<rect x="1274.21" y="137.841" width="4.8604" height="32.4027" rx="2.4302" transform="rotate(-45 1274.21 137.841)" fill="#EFF3FF"/>
<rect x="1297.12" y="134.405" width="4.8604" height="32.4027" rx="2.4302" transform="rotate(45 1297.12 134.405)" fill="#EFF3FF"/>
</g>
<g opacity="0.24">
<rect x="1209.11" y="112.6" width="40.2039" height="40.2039" rx="4.58488" fill="#F3A2B8"/>
<rect x="1211.03" y="113.761" width="40.2039" height="40.2039" rx="4.58488" fill="#F74364"/>
<rect x="1217.32" y="123.702" width="5.14244" height="34.2829" rx="2.57122" transform="rotate(-45 1217.32 123.702)" fill="#EFF3FF"/>
<rect x="1241.56" y="120.066" width="5.14244" height="34.2829" rx="2.57122" transform="rotate(45 1241.56 120.066)" fill="#EFF3FF"/>
</g>
<g opacity="0.24">
<rect x="1198.86" y="192.707" width="58.6192" height="58.6192" rx="4.58488" fill="#F3A2B8"/>
<rect x="1201.67" y="194.4" width="58.6192" height="58.6192" rx="4.58488" fill="#F74364"/>
<rect x="1210.83" y="208.895" width="7.49791" height="49.9861" rx="3.74895" transform="rotate(-45 1210.83 208.895)" fill="#EFF3FF"/>
<rect x="1246.18" y="203.594" width="7.49791" height="49.9861" rx="3.74895" transform="rotate(45 1246.18 203.594)" fill="#EFF3FF"/>
</g>
<g opacity="0.24">
<rect x="1094.4" y="142.765" width="55.5796" height="55.5796" rx="4.58488" fill="#F3A2B8"/>
<rect x="1097.06" y="144.37" width="55.5796" height="55.5796" rx="4.58488" fill="#F74364"/>
<rect x="1105.75" y="158.114" width="7.10912" height="47.3941" rx="3.55456" transform="rotate(-45 1105.75 158.114)" fill="#EFF3FF"/>
<rect x="1139.27" y="153.087" width="7.10912" height="47.3941" rx="3.55456" transform="rotate(45 1139.27 153.087)" fill="#EFF3FF"/>
</g>
<g opacity="0.24">
<rect x="1071.36" y="75.8628" width="50.4656" height="50.4656" rx="4.58488" fill="#F3A2B8"/>
<rect x="1073.78" y="77.3203" width="50.4656" height="50.4656" rx="4.58488" fill="#F74364"/>
<rect x="1081.67" y="89.7993" width="6.45499" height="43.0333" rx="3.2275" transform="rotate(-45 1081.67 89.7993)" fill="#EFF3FF"/>
<rect x="1112.1" y="85.2351" width="6.45499" height="43.0333" rx="3.2275" transform="rotate(45 1112.1 85.2351)" fill="#EFF3FF"/>
</g>
<g opacity="0.24">
<rect x="1287.86" y="61.7068" width="58.6192" height="58.6192" rx="4.58488" fill="#F3A2B8"/>
<rect x="1290.67" y="63.3999" width="58.6192" height="58.6192" rx="4.58488" fill="#F74364"/>
<rect x="1299.83" y="77.895" width="7.49791" height="49.9861" rx="3.74895" transform="rotate(-45 1299.83 77.895)" fill="#EFF3FF"/>
<rect x="1335.18" y="72.5935" width="7.49791" height="49.9861" rx="3.74895" transform="rotate(45 1335.18 72.5935)" fill="#EFF3FF"/>
</g>
<g opacity="0.24">
<rect x="1267.86" y="173.707" width="58.6192" height="58.6192" rx="4.58488" fill="#F3A2B8"/>
<rect x="1270.67" y="175.4" width="58.6192" height="58.6192" rx="4.58488" fill="#F74364"/>
<rect x="1279.83" y="189.895" width="7.49791" height="49.9861" rx="3.74895" transform="rotate(-45 1279.83 189.895)" fill="#EFF3FF"/>
<rect x="1315.18" y="184.594" width="7.49791" height="49.9861" rx="3.74895" transform="rotate(45 1315.18 184.594)" fill="#EFF3FF"/>
</g>
<g opacity="0.24">
<rect x="1161.37" y="150.271" width="37.3356" height="37.3356" rx="4.58488" fill="#F3A2B8"/>
<rect x="1163.16" y="151.35" width="37.3356" height="37.3356" rx="4.58488" fill="#F74364"/>
<rect x="1168.99" y="160.582" width="4.77555" height="31.837" rx="2.38777" transform="rotate(-45 1168.99 160.582)" fill="#EFF3FF"/>
<rect x="1191.51" y="157.206" width="4.77555" height="31.837" rx="2.38777" transform="rotate(45 1191.51 157.206)" fill="#EFF3FF"/>
</g>
<rect x="1150.72" y="683.719" width="420.561" height="34.5613" rx="16.6202" fill="#F6F9FF" stroke="#2F80ED" stroke-width="3.43866"/>
<path d="M1557.07 685L1165.16 685.5C1160.1 685.5 1152.5 691.315 1152.5 700.352V701.5C1152.5 712 1161.44 716.5 1166.5 716.5C1166.5 716.5 1159.88 691.315 1183.84 691.315C1319.78 687.467 1562 687.296 1562 687.296C1562 687.296 1560.94 686.148 1559.53 685.574C1558.15 685.01 1557.07 685 1557.07 685Z" fill="#D8E2F4"/>
<path d="M1167 720H1550V812.854C1550 813.487 1549.49 814 1548.86 814H1168.15C1167.51 814 1167 813.487 1167 812.854V720Z" fill="#2F80ED"/>
<path d="M1167 720H1550C1550 720 1437.53 727.61 1325.88 737.419C1213.16 747.324 1174.78 747.972 1168.11 748.001C1167.48 748.004 1167 747.496 1167 746.869V720Z" fill="#216ACD"/>
<rect x="1167" y="798" width="383" height="6" rx="1.14622" fill="#E5E5E5"/>
<circle cx="1167.91" cy="700.856" r="9.74288" stroke="#2F80ED" stroke-opacity="0.25" stroke-width="6.87733"/>
<circle cx="1210.32" cy="700.856" r="9.74288" stroke="#2F80ED" stroke-opacity="0.25" stroke-width="6.87733"/>
<circle cx="1252.74" cy="700.856" r="9.74288" stroke="#2F80ED" stroke-opacity="0.25" stroke-width="6.87733"/>
<circle cx="1295.15" cy="700.856" r="9.74288" stroke="#2F80ED" stroke-opacity="0.25" stroke-width="6.87733"/>
<circle cx="1337.56" cy="700.856" r="9.74288" stroke="#2F80ED" stroke-opacity="0.25" stroke-width="6.87733"/>
<circle cx="1379.97" cy="700.856" r="9.74288" stroke="#2F80ED" stroke-opacity="0.25" stroke-width="6.87733"/>
<circle cx="1422.38" cy="700.856" r="9.74288" stroke="#2F80ED" stroke-opacity="0.25" stroke-width="6.87733"/>
<circle cx="1464.79" cy="700.856" r="9.74288" stroke="#2F80ED" stroke-opacity="0.25" stroke-width="6.87733"/>
<circle cx="1507.2" cy="700.856" r="9.74288" stroke="#2F80ED" stroke-opacity="0.25" stroke-width="6.87733"/>
<circle cx="1549.61" cy="700.856" r="9.74288" stroke="#2F80ED" stroke-opacity="0.25" stroke-width="6.87733"/>
<circle cx="1344.16" cy="658.234" r="22.1562" fill="#89C599"/>
<circle cx="1345.54" cy="656.849" r="22.1562" fill="#87F2C5"/>
<rect width="5.02972" height="20.6925" rx="2.51486" transform="matrix(0.899592 -0.436732 0.56603 0.824385 1330.87 652.125)" fill="white"/>
<rect width="5.02972" height="27.3343" rx="2.51486" transform="matrix(0.899592 0.436732 -0.56603 0.824385 1355.74 644.924)" fill="white"/>
<circle cx="1239.16" cy="646.541" r="22.1562" fill="#89C599"/>
<circle cx="1240.54" cy="645.156" r="22.1562" fill="#87F2C5"/>
<rect width="5.02972" height="20.6925" rx="2.51486" transform="matrix(0.899592 -0.436732 0.56603 0.824385 1225.87 640.432)" fill="white"/>
<rect width="5.02972" height="27.3343" rx="2.51486" transform="matrix(0.899592 0.436732 -0.56603 0.824385 1250.74 633.231)" fill="white"/>
<path d="M1240.5 596.5C1230 596.5 1235.5 616 1222 632.5L1258 632C1243 615 1251 596.5 1240.5 596.5Z" fill="#87F2C5"/>
<path d="M1228.5 616C1239 616 1233.5 596.5 1247 580L1211 580.5C1226 597.5 1218 616 1228.5 616Z" fill="#87F2C5"/>
<path d="M1253.32 613C1257.11 613 1255.13 607.583 1260 603L1247 603.139C1252.42 607.861 1249.53 613 1253.32 613Z" fill="#87F2C5"/>
<circle cx="1421.46" cy="658.234" r="22.1562" fill="#89C599"/>
<circle cx="1422.84" cy="656.849" r="22.1562" fill="#87F2C5"/>
<rect width="5.02972" height="20.6925" rx="2.51486" transform="matrix(0.899592 -0.436732 0.56603 0.824385 1408.17 652.125)" fill="white"/>
<rect width="5.02972" height="27.3343" rx="2.51486" transform="matrix(0.899592 0.436732 -0.56603 0.824385 1433.04 644.924)" fill="white"/>
<circle cx="1499.16" cy="658.234" r="22.1562" fill="#89C599"/>
<circle cx="1500.54" cy="656.849" r="22.1562" fill="#87F2C5"/>
<rect width="5.02972" height="20.6925" rx="2.51486" transform="matrix(0.899592 -0.436732 0.56603 0.824385 1485.87 652.125)" fill="white"/>
<rect width="5.02972" height="27.3343" rx="2.51486" transform="matrix(0.899592 0.436732 -0.56603 0.824385 1510.74 644.924)" fill="white"/>
<circle cx="1673.4" cy="740.57" r="22.1562" transform="rotate(-17.6463 1673.4 740.57)" fill="#89C599"/>
<circle cx="1674.3" cy="738.83" r="22.1562" transform="rotate(-17.6463 1674.3 738.83)" fill="#87F2C5"/>
<rect width="5.02972" height="20.6925" rx="2.51486" transform="matrix(0.724871 -0.688884 0.7893 0.614008 1658.88 738.777)" fill="white"/>
<rect width="5.02972" height="27.3343" rx="2.51486" transform="matrix(0.989653 0.14348 -0.289492 0.957181 1680.4 724.374)" fill="white"/>
<circle cx="1632.16" cy="737.541" r="22.1562" fill="#89C599"/>
<circle cx="1633.54" cy="736.156" r="22.1562" fill="#87F2C5"/>
<rect width="5.02972" height="20.6925" rx="2.51486" transform="matrix(0.899592 -0.436732 0.56603 0.824385 1618.87 731.432)" fill="white"/>
<rect width="5.02972" height="27.3343" rx="2.51486" transform="matrix(0.899592 0.436732 -0.56603 0.824385 1643.74 724.231)" fill="white"/>
<circle cx="1576.94" cy="662.903" r="22.1562" transform="rotate(23.3294 1576.94 662.903)" fill="#89C599"/>
<circle cx="1578.76" cy="662.18" r="22.1562" transform="rotate(23.3294 1578.76 662.18)" fill="#87F2C5"/>
<rect width="5.02972" height="20.6925" rx="2.51486" transform="matrix(0.998997 -0.0447723 0.193282 0.981143 1567.15 652.031)" fill="white"/>
<rect width="5.02972" height="27.3343" rx="2.51486" transform="matrix(0.653091 0.75728 -0.846223 0.532828 1592.85 655.269)" fill="white"/>
<circle cx="1599.12" cy="744.391" r="22.1562" transform="rotate(23.3294 1599.12 744.391)" fill="#89C599"/>
<circle cx="1600.94" cy="743.667" r="22.1562" transform="rotate(23.3294 1600.94 743.667)" fill="#87F2C5"/>
<rect width="5.02972" height="20.6925" rx="2.51486" transform="matrix(0.998997 -0.0447723 0.193282 0.981143 1589.33 733.518)" fill="white"/>
<rect width="5.02972" height="27.3343" rx="2.51486" transform="matrix(0.653091 0.75728 -0.846223 0.532828 1615.03 736.757)" fill="white"/>
<circle cx="1686.16" cy="758.541" r="22.1562" fill="#89C599"/>
<circle cx="1687.54" cy="757.156" r="22.1562" fill="#87F2C5"/>
<rect width="5.02972" height="20.6925" rx="2.51486" transform="matrix(0.899592 -0.436732 0.56603 0.824385 1672.87 752.432)" fill="white"/>
<rect width="5.02972" height="27.3343" rx="2.51486" transform="matrix(0.899592 0.436732 -0.56603 0.824385 1697.74 745.231)" fill="white"/>
<path d="M149.5 479L152 477.5" stroke="#323232" stroke-linecap="round"/>
<line x1="1.03187" y1="-1.03187" x2="21.1233" y2="-1.03187" transform="matrix(-0.465746 0.884918 0.884918 0.465746 1762.56 585.41)" stroke="#8A8A8A" stroke-width="2.06374" stroke-linecap="round"/>
<path d="M1783.66 548.756C1782.91 547.836 1781.75 547.355 1780.57 547.479L1755.16 550.155C1752.57 550.427 1751.18 553.323 1752.58 555.514L1780.58 599.383C1781.62 601.011 1783.78 601.488 1785.41 600.449L1808.56 585.672C1810.32 584.549 1810.71 582.145 1809.39 580.523L1783.66 548.756Z" fill="#DADADA"/>
<path d="M1783.3 552.75C1782.56 551.83 1781.4 551.35 1780.22 551.474L1761.42 553.452C1758.84 553.724 1757.44 556.621 1758.84 558.812L1780.23 592.315C1781.26 593.943 1783.43 594.42 1785.05 593.381L1802.3 582.375C1804.06 581.252 1804.45 578.847 1803.13 577.226L1783.3 552.75Z" fill="#F5F5F5"/>
<path d="M1777.78 549.088C1777.24 548.053 1776.19 547.383 1775.02 547.329L1766.26 546.922C1764.15 546.824 1762.43 548.619 1762.62 550.731L1762.69 551.483C1762.86 553.407 1764.56 554.825 1766.48 554.651L1775.17 553.865C1777.49 553.655 1778.86 551.155 1777.78 549.088Z" fill="#E4E4E4"/>
<line x1="0.437133" y1="-0.437133" x2="13.66" y2="-0.437133" transform="matrix(-0.992278 0.124035 0.124035 0.992278 1790.88 571.323)" stroke="#AEAEAE" stroke-width="0.874267" stroke-linecap="round"/>
<path d="M1824.67 611.752C1835.66 611.167 1885.85 561.356 1868.64 550.669C1857.82 543.951 1833.13 579.967 1822.64 596.207C1811.3 595.808 1805.65 587.135 1795.27 594.138C1792.33 596.119 1808.41 612.618 1824.67 611.752Z" fill="#FFDED2"/>
<path d="M1824.67 611.752C1835.66 611.167 1885.85 561.355 1868.64 550.668C1806.17 581.498 1874.88 569.745 1824.46 610.071C1813.11 609.672 1798.7 598.649 1795.27 594.138C1792.33 596.118 1808.41 612.617 1824.67 611.752Z" fill="#F5D1C4"/>
<path d="M1820.79 615.267C1867.92 600.168 1882.19 544.004 1876.47 538.471C1867.02 529.99 1825.8 586.873 1822 592.954C1818.2 599.034 1815.76 616.879 1820.79 615.267Z" fill="white"/>
<path d="M1789.56 581.782C1786.3 583.049 1788.47 592.048 1795.37 594.367L1804.05 593.149C1803.46 590.787 1801.84 585.672 1800 584.109C1797.7 582.156 1793.63 580.198 1789.56 581.782Z" fill="#FDA98B"/>
<path d="M1853.87 516.146C1852.58 512.728 1853.33 507.244 1853.87 504.93L1842.65 507.6L1831.43 524.158H1864.55C1861.52 522.911 1855.15 519.564 1853.87 516.146Z" fill="#FFDED2"/>
<path d="M1829.66 519.376L1838.07 516.786L1857.05 500.57C1853.63 495.868 1844.61 486.901 1836.39 485.403C1825.97 483.505 1824.65 491.371 1821.6 495.323L1819.72 507.563L1825.84 506.976L1829.66 519.376Z" fill="#FFDED2"/>
<path d="M1828.93 533.686L1840.1 518.304L1855.22 495.622C1844.22 503.476 1839.84 518.658 1827.16 509.687L1825.77 532.553C1825.67 534.298 1827.9 535.101 1828.93 533.686Z" fill="#DCC5BF"/>
<path d="M1839.24 477.13C1827.45 477 1822.34 486.529 1822.34 486.529C1822.34 486.529 1821.52 487.396 1821.89 488.399C1822.25 489.403 1821.02 489.215 1826.13 489.129C1826.13 489.129 1832.48 484.548 1837.07 487.312C1841.12 489.752 1840.76 495.273 1840.76 495.273C1842.87 495.757 1843 497.117 1844.91 495.561C1849.82 491.559 1849.09 503.392 1843.85 505.953L1846.19 518.416C1852.39 517.556 1848.19 510.068 1855.9 505.953C1867.19 499.934 1860.41 485.184 1855.9 481.471C1853.67 479.628 1852.76 480.271 1852.14 481.016C1851.13 479.97 1851.02 477.26 1839.24 477.13Z" fill="#DCC5BF"/>
<path d="M1830.13 801.522L1829.51 791.116L1820.19 781.053L1819.68 804.512L1825.57 808.074L1830.13 801.522Z" fill="#FFDED2"/>
<path d="M1880.74 805.512L1878.93 794.461L1867.26 785.873L1869.91 799.699L1870.99 804.924L1880.74 805.512Z" fill="#FFDED2"/>
<path d="M1875.54 643.099C1873.73 614.222 1867.84 591.986 1860.05 579.54L1846.52 606.327C1835.97 633.212 1841.25 680.487 1848.14 707.217C1852.27 723.281 1858.85 762.19 1867.05 788.296L1879.82 792.117C1879.41 774.588 1881 759.053 1878.96 740.132C1877.61 727.628 1876.22 723.548 1873.15 716.737C1879.27 699.093 1876.71 661.709 1875.54 643.099Z" fill="#A9DDCE"/>
<path d="M1820.29 602.626C1824.16 595.406 1856.22 593.498 1867 590.756C1868.95 600.589 1871.57 605.96 1864.86 626.541C1858.15 647.122 1831.15 681.053 1826.08 687.118C1827.63 690.014 1831.3 699.062 1833.61 712.084C1835.92 725.105 1833.32 778.068 1830.98 792.054L1820.15 786.24C1814.7 763.677 1802.41 724.01 1800.55 682.711C1799.78 665.656 1816.41 609.846 1820.29 602.626Z" fill="#A9DDCE"/>
<ellipse rx="22.9668" ry="18.6655" transform="matrix(-0.964456 -0.264242 -0.264242 0.964456 1839.7 640.189)" fill="#4D68C9"/>
<path d="M1819.97 603.861C1822.23 599.653 1839.81 596.823 1854.08 595.195C1856.61 594.907 1858.25 600.651 1856.17 602.113C1851.47 605.408 1846.38 609.801 1841.74 615.545C1826.46 634.469 1811.84 668.108 1810.75 684.574C1809.66 701.041 1814.58 749.621 1816.89 762.642C1819.2 775.664 1826.91 785.847 1831.4 789.033L1819.84 787.476C1814.38 764.912 1802.09 725.245 1800.23 683.946C1799.47 666.891 1816.1 611.081 1819.97 603.861Z" fill="#95C8B9"/>
<path d="M1817.97 786.469L1831.23 793.588C1831.85 793.924 1832.63 793.568 1832.78 792.874L1833.35 790.252C1833.46 789.756 1833.2 789.253 1832.74 789.048L1818.82 782.904C1818.1 782.584 1817.29 783.139 1817.33 783.933L1817.4 785.579C1817.42 785.954 1817.64 786.292 1817.97 786.469Z" fill="#B5FFEA"/>
<path d="M1866.59 793.574L1881.06 795.949C1881.88 796.085 1882.54 795.262 1882.22 794.488L1881.38 792.461C1881.25 792.138 1880.97 791.901 1880.63 791.825L1865.58 788.483C1864.71 788.291 1864 789.181 1864.38 789.984L1865.8 792.978C1865.95 793.294 1866.25 793.517 1866.59 793.574Z" fill="#B5FFEA"/>
<path d="M1817.55 523.624C1839.98 517.749 1862.94 526.294 1862.94 518.283C1867.75 518.283 1875.36 524.99 1875.76 527.897C1877.32 539.01 1874.56 549.51 1872.56 562.614C1872.11 565.568 1868.16 558.289 1867.75 561.012C1866.21 571.341 1871.53 607.819 1872.02 611.218C1883.78 691.335 1885.91 720.177 1883.78 725.518C1882.97 727.537 1871.56 734.829 1866.97 737.699C1866.05 738.274 1864.86 737.745 1864.64 736.682C1864.3 734.979 1861.85 735.026 1861.58 736.742L1861.1 739.73C1860.93 740.768 1860.05 741.524 1859 741.499C1850.13 741.28 1811.61 740.255 1809.53 738.871C1804.73 735.667 1798.32 675.312 1799.39 659.288C1800.24 646.47 1804.83 620.832 1809.53 609.616C1814.24 598.4 1812.91 579.094 1809.53 564.751C1805.26 546.591 1809.53 530.567 1809.53 530.567C1809.53 530.567 1811.29 525.262 1817.55 523.624Z" fill="white"/>
<path d="M1867.75 561.012C1828.03 561.012 1855.13 576.569 1872.02 611.218C1871.53 607.819 1866.21 571.341 1867.75 561.012Z" fill="#FAFAFA"/>
<path d="M1791.57 608.054C1801.33 604.187 1831.57 543.894 1812.77 539.459C1800.94 536.672 1789.56 576.743 1785.01 594.615C1774.63 597.702 1766.89 591.577 1759.63 601.063C1757.58 603.747 1777.13 613.779 1791.57 608.054Z" fill="#FFDED2"/>
<path d="M1791.57 608.054C1801.33 604.187 1831.57 543.893 1812.77 539.459C1765.65 586.322 1824.2 554.814 1790.87 606.601C1780.49 609.688 1764.11 604.098 1759.63 601.063C1757.58 603.747 1777.13 613.779 1791.57 608.054Z" fill="#F5D1C4"/>
<path d="M1809.53 530.567C1809.53 530.567 1811.29 525.262 1817.54 523.624C1817.54 535.908 1818.4 661.639 1832.5 690.267C1846.6 718.895 1876.3 725.696 1883.77 725.518C1882.97 727.537 1871.56 734.829 1866.97 737.699C1866.05 738.274 1864.86 737.745 1864.64 736.682C1864.3 734.979 1861.85 735.026 1861.58 736.742L1861.1 739.73C1860.93 740.768 1860.05 741.524 1859 741.499C1850.13 741.28 1811.61 740.255 1809.53 738.871C1804.73 735.667 1798.32 675.312 1799.38 659.288C1800.24 646.47 1804.83 620.832 1809.53 609.616C1814.24 598.4 1812.91 579.094 1809.53 564.75C1805.26 546.591 1809.53 530.567 1809.53 530.567Z" fill="#FAFAFA"/>
<path d="M1789.13 612.414C1827.16 584.438 1822.99 529.317 1816.14 526.051C1805.02 521.253 1785.03 585.216 1783.44 591.869C1781.86 598.522 1785.07 615.4 1789.13 612.414Z" fill="white"/>
<path d="M1750.71 591.626C1748.15 593.763 1752.85 601.24 1759.79 601.24L1767.27 597.501C1766.02 595.543 1763 591.412 1760.86 590.558C1758.19 589.49 1753.92 588.955 1750.71 591.626Z" fill="#FFDED2"/>
<circle r="5.2456" transform="matrix(-0.939781 0.341777 0.341777 0.939781 1830.35 495.336)" fill="#D1D1D1" stroke="#323232" stroke-width="0.874267"/>
<path d="M1825.72 492.834L1823.22 492.349" stroke="#323232" stroke-width="0.874267" stroke-linecap="round"/>
<path d="M1884.23 801.382C1884.84 802.696 1884.44 804.674 1883.84 806.481C1883.08 808.767 1880.7 810.144 1878.3 809.947L1854.15 807.961C1851.89 807.775 1850.13 805.838 1850.62 803.622C1850.74 803.046 1850.9 802.478 1851.09 801.96C1851.96 799.543 1854.1 802.205 1859.02 800.709C1862.47 799.661 1864.88 796.868 1866.72 795.496C1867.14 795.187 1867.71 795.308 1868.09 795.652C1869.74 797.111 1872.88 798.511 1874.58 798.556C1875.97 798.593 1878.27 798.581 1879.78 798.081C1880.5 797.841 1881.59 797.884 1882.1 798.454L1882.12 798.478C1882.87 799.331 1883.72 800.303 1884.23 801.382Z" fill="#A9DDCE"/>
<path d="M1834.84 801.731C1835.67 803.394 1835.71 806.548 1835.47 809.159C1835.27 811.449 1833.29 812.948 1830.99 812.948L1800.17 812.948C1797.81 812.948 1795.87 811.021 1796.29 808.698C1796.42 807.977 1796.59 807.258 1796.8 806.609C1797.71 803.892 1803.14 804.798 1808.58 802.987C1812.43 801.701 1815.05 798.451 1817.07 796.892C1817.48 796.576 1818.04 796.694 1818.44 797.026C1819.78 798.147 1821.28 797.992 1823.15 797.992C1824.78 797.992 1827.36 797.34 1828.93 796.379C1829.58 795.983 1830.61 795.976 1831.08 796.566C1832.33 798.114 1834.16 800.369 1834.84 801.731Z" fill="#A9DDCE"/>
<line x1="0.437133" y1="-0.437133" x2="13.66" y2="-0.437133" transform="matrix(-0.992278 0.124035 0.124035 0.992278 1781.26 557.335)" stroke="#AEAEAE" stroke-width="0.874267" stroke-linecap="round"/>
<line x1="0.437133" y1="-0.437133" x2="13.66" y2="-0.437133" transform="matrix(-0.992278 0.124035 0.124035 0.992278 1786.5 563.455)" stroke="#AEAEAE" stroke-width="0.874267" stroke-linecap="round"/>
<circle cx="1058.22" cy="343.217" r="25.2169" fill="#F74364" fill-opacity="0.096"/>
<rect x="1046.75" y="326.024" width="24.0706" height="35.5329" rx="6.87733" fill="#F74364"/>
<path d="M1053.63 361.556H1063.95C1065.71 361.556 1067.32 360.894 1068.53 359.805C1068.53 359.805 1059.08 360.131 1053.63 354.679C1046.75 347.802 1047.9 329.098 1047.9 329.098C1047.18 330.187 1046.75 331.495 1046.75 332.901V354.679C1046.75 358.477 1049.83 361.556 1053.63 361.556Z" fill="#D12E4C"/>
<rect x="1054.54" y="361.321" width="8.02355" height="22.9244" fill="#2F80ED"/>
<rect x="1053.39" y="361.321" width="10.316" height="2.29244" fill="#2F80ED"/>
<rect x="1053.39" y="381.953" width="10.316" height="2.29244" fill="#2F80ED"/>
<path fill-rule="evenodd" clip-rule="evenodd" d="M1100.82 240H1377.18C1379.68 240 1381.57 242.278 1381.11 244.74L1323.07 552.953C1322.74 554.746 1321.23 556.084 1319.41 556.204L1284.68 558.491L1279.2 606.228C1279.09 607.238 1278.23 608 1277.22 608H1200.78C1199.77 608 1198.91 607.238 1198.8 606.228L1193.32 558.491L1158.59 556.204C1156.77 556.084 1155.26 554.746 1154.93 552.953L1096.89 244.74C1096.43 242.278 1098.32 240 1100.82 240Z" fill="#EBF2FF"/>
<g filter="url(#filter0_f)">
<path d="M1238.5 598C1201.5 599.5 1113 297.5 1129 271C1145 245.5 1194 262.5 1238.5 262.5C1283 262.5 1339.19 244.423 1349.5 271C1359 295.5 1311.5 532.5 1291.5 535.5C1271.5 538.5 1275.5 596.5 1238.5 598Z" fill="url(#paint0_linear)"/>
</g>
<g filter="url(#filter1_f)">
<path d="M1260.5 597.5C1250.46 597.5 1244 570.5 1283 522C1328.75 465.109 1322 272.5 1333.5 263C1342.7 255.397 1351.24 260.886 1354 287.5C1360.9 353.975 1317.5 544.5 1290 544.5C1258.81 544.5 1288.5 597.5 1260.5 597.5Z" fill="url(#paint1_linear)"/>
</g>
<path d="M1223.01 608C1224.03 608 1224.88 607.238 1225 606.228C1221.5 556 1227.2 540.486 1193.32 536.5C1150.82 531.5 1115 240 1137 240H1100.82C1098.32 240 1096.43 242.278 1096.89 244.74L1154.93 552.953C1155.26 554.746 1156.77 556.084 1158.59 556.204L1193.32 558.491L1198.8 606.228C1198.91 607.238 1199.77 608 1200.78 608H1223.01Z" fill="#D8E2F4" fill-opacity="0.5"/>
<path d="M1028 412C1028 410.895 1028.9 410 1030 410H1357C1358.1 410 1359 410.895 1359 412V420C1359 421.105 1358.1 422 1357 422H1030C1028.9 422 1028 421.105 1028 420V412Z" fill="#F0F0F0"/>
<path d="M1028 416L1359 420C1359 421.105 1358.1 422 1357 422H1030C1028.9 422 1028 421.105 1028 420V416Z" fill="#E5E5E5"/>
<path d="M1088 240C1088 238.895 1088.9 238 1090 238H1387C1388.1 238 1389 238.895 1389 240V248C1389 249.105 1388.1 250 1387 250H1090C1088.9 250 1088 249.105 1088 248V240Z" fill="#C4DBFB"/>
<path d="M1196 603C1196 601.895 1196.9 601 1198 601H1280C1281.1 601 1282 601.895 1282 603V606C1282 607.105 1281.1 608 1280 608H1198C1196.9 608 1196 607.105 1196 606V603Z" fill="#C4DBFB"/>
<path d="M1065 384C1066.1 384 1067 384.895 1067 386L1067 633C1067 634.105 1066.1 635 1065 635L1053 635C1051.9 635 1051 634.105 1051 633L1051 386C1051 384.895 1051.9 384 1053 384L1065 384Z" fill="#F0F0F0"/>
<path d="M1058 535C1061.69 592.123 1065.59 624.266 1066.69 632.726C1066.85 633.933 1065.91 635 1064.7 635L1053 635C1051.9 635 1051 634.105 1051 633L1051 388C1051 388 1055 488.5 1058 535Z" fill="#E5E5E5"/>
<path d="M1069 407C1070.1 407 1071 407.895 1071 409L1071 423C1071 424.105 1070.1 425 1069 425L1049 425C1047.9 425 1047 424.105 1047 423L1047 409C1047 407.895 1047.9 407 1049 407L1069 407Z" fill="#E5E5E5"/>
<path d="M1071 415.5L1071 423C1071 424.105 1070.1 425 1069 425L1049 425C1047.9 425 1047 424.105 1047 423L1047 415.5C1047 415.5 1054.25 417.5 1059 417.5C1063.75 417.5 1071 415.5 1071 415.5Z" fill="#C7C7C7" fill-opacity="0.292"/>
<path d="M1166 629C1167.1 629 1168 629.895 1168 631L1168 812C1168 813.105 1167.1 814 1166 814L1030 814C1028.9 814 1028 813.105 1028 812L1028 631C1028 629.895 1028.9 629 1030 629L1166 629Z" fill="#E5E5E5"/>
<path d="M1120.29 715.471L1120.32 715.866C1120.57 715.56 1120.9 715.406 1121.33 715.406C1121.79 715.406 1122.1 715.586 1122.27 715.944C1122.51 715.586 1122.87 715.406 1123.33 715.406C1123.71 715.406 1123.99 715.518 1124.18 715.742C1124.37 715.964 1124.46 716.299 1124.46 716.747V719H1123.52V716.75C1123.52 716.55 1123.48 716.404 1123.4 716.313C1123.32 716.219 1123.18 716.173 1122.98 716.173C1122.7 716.173 1122.51 716.307 1122.4 716.577L1122.4 719H1121.46V716.753C1121.46 716.549 1121.42 716.401 1121.34 716.31C1121.26 716.218 1121.12 716.173 1120.93 716.173C1120.66 716.173 1120.47 716.284 1120.35 716.505V719H1119.4V715.471H1120.29ZM1125.04 717.203C1125.04 716.853 1125.11 716.541 1125.24 716.267C1125.38 715.993 1125.57 715.781 1125.82 715.631C1126.08 715.481 1126.37 715.406 1126.71 715.406C1127.18 715.406 1127.57 715.552 1127.87 715.843C1128.18 716.135 1128.34 716.53 1128.38 717.03L1128.38 717.272C1128.38 717.813 1128.23 718.248 1127.93 718.576C1127.63 718.902 1127.22 719.065 1126.72 719.065C1126.21 719.065 1125.8 718.902 1125.5 718.576C1125.19 718.25 1125.04 717.806 1125.04 717.246V717.203ZM1125.98 717.272C1125.98 717.606 1126.05 717.863 1126.17 718.041C1126.3 718.217 1126.48 718.305 1126.72 718.305C1126.94 718.305 1127.12 718.218 1127.25 718.044C1127.38 717.868 1127.44 717.588 1127.44 717.203C1127.44 716.875 1127.38 716.62 1127.25 716.44C1127.12 716.26 1126.94 716.169 1126.71 716.169C1126.48 716.169 1126.3 716.26 1126.17 716.44C1126.05 716.618 1125.98 716.896 1125.98 717.272ZM1129.83 715.471L1129.86 715.879C1130.11 715.564 1130.45 715.406 1130.88 715.406C1131.25 715.406 1131.53 715.516 1131.71 715.736C1131.89 715.955 1131.99 716.284 1131.99 716.72V719H1131.05V716.743C1131.05 716.543 1131.01 716.399 1130.92 716.31C1130.83 716.218 1130.69 716.173 1130.48 716.173C1130.22 716.173 1130.02 716.286 1129.89 716.512V719H1128.95V715.471H1129.83ZM1136.66 716.734C1136.66 717.177 1136.59 717.563 1136.45 717.891C1136.31 718.217 1136.11 718.479 1135.85 718.677L1136.64 719.297L1136.02 719.848L1135.01 719.036C1134.89 719.055 1134.77 719.065 1134.65 719.065C1134.26 719.065 1133.9 718.971 1133.6 718.782C1133.29 718.592 1133.05 718.323 1132.88 717.973C1132.71 717.621 1132.62 717.216 1132.62 716.76V716.525C1132.62 716.057 1132.7 715.647 1132.87 715.292C1133.04 714.936 1133.28 714.663 1133.59 714.474C1133.89 714.282 1134.25 714.187 1134.64 714.187C1135.04 714.187 1135.39 714.282 1135.7 714.474C1136 714.663 1136.24 714.936 1136.41 715.292C1136.58 715.647 1136.66 716.056 1136.66 716.522V716.734ZM1135.67 716.518C1135.67 716.02 1135.58 715.642 1135.41 715.383C1135.23 715.125 1134.97 714.995 1134.64 714.995C1134.31 714.995 1134.06 715.124 1133.88 715.38C1133.7 715.635 1133.61 716.008 1133.61 716.502V716.734C1133.61 717.218 1133.7 717.594 1133.88 717.862C1134.06 718.129 1134.31 718.263 1134.65 718.263C1134.98 718.263 1135.23 718.135 1135.41 717.878C1135.58 717.619 1135.67 717.243 1135.67 716.75V716.518Z" fill="#C4C4C4"/>
<path d="M1059.89 717.888L1060.81 715.471H1062V719H1061.05V716.835L1060.21 719H1059.58L1058.75 716.871V719H1057.8V715.471H1058.98L1059.89 717.888ZM1066.78 716.734C1066.78 717.201 1066.7 717.611 1066.53 717.963C1066.37 718.315 1066.13 718.587 1065.82 718.778C1065.51 718.97 1065.16 719.065 1064.76 719.065C1064.37 719.065 1064.02 718.971 1063.71 718.782C1063.4 718.592 1063.16 718.323 1062.99 717.973C1062.82 717.621 1062.74 717.216 1062.74 716.76V716.525C1062.74 716.057 1062.82 715.647 1062.99 715.292C1063.16 714.936 1063.39 714.663 1063.7 714.474C1064.01 714.282 1064.36 714.187 1064.76 714.187C1065.15 714.187 1065.5 714.282 1065.81 714.474C1066.12 714.663 1066.36 714.936 1066.53 715.292C1066.69 715.647 1066.78 716.056 1066.78 716.522V716.734ZM1065.79 716.518C1065.79 716.02 1065.7 715.642 1065.52 715.383C1065.34 715.125 1065.09 714.995 1064.76 714.995C1064.43 714.995 1064.18 715.124 1064 715.38C1063.82 715.635 1063.73 716.008 1063.73 716.502V716.734C1063.73 717.218 1063.82 717.594 1063.99 717.862C1064.17 718.129 1064.43 718.263 1064.76 718.263C1065.09 718.263 1065.34 718.135 1065.52 717.878C1065.7 717.619 1065.79 717.243 1065.79 716.75V716.518ZM1070.49 719H1069.54V717.643H1068.37V719H1067.43V715.471H1068.37V716.887H1069.54V715.471H1070.49V719ZM1072.6 717.699H1072.22V719H1071.28V715.471H1072.22V716.799H1072.56L1073.33 715.471H1074.52L1073.36 717.151L1074.63 719H1073.37L1072.6 717.699Z" fill="#C4C4C4"/>
<path d="M1028 629L1028 812C1028 813.105 1028.9 814 1030 814L1168 814C1168 814 1085.57 807.224 1061 773.5C1035.5 738.5 1028 629 1028 629Z" fill="#D0D0D0"/>
<path d="M1707.88 744C1709.03 744 1709.94 744.967 1709.88 746.114L1706.11 812.114C1706.05 813.173 1705.17 814 1704.11 814L1575.89 814C1574.83 814 1573.95 813.173 1573.89 812.114L1570.12 746.114C1570.06 744.967 1570.97 744 1572.12 744L1707.88 744Z" fill="#FFD2B1"/>
<path d="M1048 658C1048 656.895 1048.9 656 1050 656H1142C1143.1 656 1144 656.895 1144 658V702C1144 703.105 1143.1 704 1142 704H1050C1048.9 704 1048 703.105 1048 702V658Z" fill="white"/>
<path d="M1048 658C1048 658 1050 676.29 1067 690C1082.5 702.5 1142 704 1142 704H1050C1048.9 704 1048 703.105 1048 702V658Z" fill="#F9F9F9"/>
<path d="M1359 393C1359 390.791 1360.79 389 1363 389H1430C1432.21 389 1434 390.791 1434 393V439C1434 441.209 1432.21 443 1430 443H1363C1360.79 443 1359 441.209 1359 439V393Z" fill="#2F80ED"/>
<path d="M1362 401C1362 399.895 1362.9 399 1364 399H1429C1430.1 399 1431 399.895 1431 401V431C1431 432.105 1430.1 433 1429 433H1364C1362.9 433 1362 432.105 1362 431V401Z" fill="white"/>
<g opacity="0.716">
<rect x="1363" y="408" width="8.24615" height="21" fill="#C4DBFB" stroke="white" stroke-width="0.0709342"/>
<rect x="1371.5" y="415.823" width="8.24615" height="13.1765" fill="#C4DBFB" stroke="white" stroke-width="0.0709342"/>
<rect x="1404.87" y="424.13" width="8.39015" height="4.66739" fill="#C4DBFB" stroke="white" stroke-width="0.0709342"/>
<rect x="1413.25" y="415.823" width="8.50384" height="13.1765" fill="#C4DBFB" stroke="white" stroke-width="0.0709342"/>
<rect x="1421.75" y="410.059" width="8.24615" height="18.9412" fill="#C4DBFB" stroke="white" stroke-width="0.0709342"/>
<rect x="1379.77" y="420.483" width="8.39015" height="8.31378" fill="#C4DBFB" stroke="white" stroke-width="0.0709342"/>
<rect x="1396.5" y="422" width="8.24615" height="7" fill="#C4DBFB" stroke="white" stroke-width="0.0709342"/>
<rect x="1388.25" y="422.823" width="8.24615" height="6.17647" fill="#C4DBFB" stroke="white" stroke-width="0.0709342"/>
</g>
<path d="M1094.14 417H1093.2V413.367L1092.07 413.716V412.95L1094.04 412.246H1094.14V417ZM1098.94 417H1095.68V416.355L1097.22 414.717C1097.43 414.487 1097.59 414.286 1097.69 414.114C1097.79 413.942 1097.84 413.779 1097.84 413.625C1097.84 413.414 1097.79 413.249 1097.68 413.129C1097.57 413.008 1097.42 412.947 1097.22 412.947C1097.01 412.947 1096.84 413.021 1096.72 413.168C1096.6 413.314 1096.54 413.507 1096.54 413.746H1095.59C1095.59 413.457 1095.66 413.192 1095.8 412.953C1095.93 412.714 1096.13 412.527 1096.38 412.392C1096.63 412.255 1096.92 412.187 1097.24 412.187C1097.73 412.187 1098.11 412.304 1098.38 412.539C1098.65 412.774 1098.79 413.105 1098.79 413.534C1098.79 413.768 1098.73 414.008 1098.6 414.251C1098.48 414.495 1098.27 414.778 1097.98 415.102L1096.9 416.24H1098.94V417ZM1100.48 414.209H1100.98C1101.22 414.209 1101.4 414.149 1101.51 414.029C1101.63 413.91 1101.69 413.751 1101.69 413.553C1101.69 413.362 1101.63 413.213 1101.51 413.106C1101.4 413 1101.24 412.947 1101.04 412.947C1100.86 412.947 1100.71 412.997 1100.59 413.097C1100.47 413.195 1100.41 413.323 1100.41 413.482H1099.46C1099.46 413.234 1099.53 413.012 1099.66 412.816C1099.8 412.618 1099.99 412.464 1100.22 412.353C1100.47 412.242 1100.73 412.187 1101.02 412.187C1101.52 412.187 1101.92 412.308 1102.2 412.549C1102.49 412.788 1102.63 413.118 1102.63 413.54C1102.63 413.758 1102.56 413.958 1102.43 414.14C1102.3 414.323 1102.12 414.463 1101.91 414.561C1102.17 414.657 1102.37 414.8 1102.5 414.991C1102.64 415.183 1102.7 415.409 1102.7 415.67C1102.7 416.091 1102.55 416.43 1102.24 416.684C1101.93 416.938 1101.53 417.065 1101.02 417.065C1100.55 417.065 1100.16 416.94 1099.86 416.69C1099.56 416.44 1099.41 416.11 1099.41 415.699H1100.35C1100.35 415.877 1100.41 416.023 1100.55 416.136C1100.68 416.249 1100.85 416.306 1101.04 416.306C1101.27 416.306 1101.44 416.247 1101.57 416.13C1101.7 416.01 1101.76 415.852 1101.76 415.657C1101.76 415.183 1101.5 414.946 1100.98 414.946H1100.48V414.209Z" fill="#AEAEAE" fill-opacity="0.648"/>
<path d="M1128.53 415.102C1128.28 415.343 1128 415.464 1127.67 415.464C1127.25 415.464 1126.91 415.321 1126.66 415.034C1126.41 414.744 1126.28 414.355 1126.28 413.866C1126.28 413.555 1126.35 413.27 1126.49 413.012C1126.62 412.751 1126.81 412.549 1127.06 412.405C1127.3 412.259 1127.57 412.187 1127.88 412.187C1128.19 412.187 1128.47 412.265 1128.71 412.421C1128.96 412.578 1129.15 412.803 1129.28 413.096C1129.42 413.39 1129.48 413.726 1129.49 414.104V414.453C1129.49 415.244 1129.29 415.866 1128.9 416.318C1128.5 416.771 1127.94 417.012 1127.22 417.042L1126.99 417.046V416.26L1127.2 416.256C1128.02 416.22 1128.46 415.835 1128.53 415.102ZM1127.9 414.743C1128.05 414.743 1128.18 414.704 1128.29 414.626C1128.4 414.548 1128.49 414.453 1128.54 414.342V413.954C1128.54 413.635 1128.48 413.387 1128.36 413.211C1128.24 413.035 1128.08 412.946 1127.87 412.946C1127.68 412.946 1127.53 413.033 1127.41 413.207C1127.28 413.379 1127.22 413.595 1127.22 413.856C1127.22 414.115 1127.28 414.328 1127.4 414.495C1127.52 414.661 1127.69 414.743 1127.9 414.743ZM1133.36 415.037C1133.36 415.693 1133.22 416.196 1132.95 416.543C1132.68 416.891 1132.28 417.065 1131.76 417.065C1131.24 417.065 1130.84 416.895 1130.57 416.553C1130.29 416.212 1130.15 415.723 1130.15 415.086V414.212C1130.15 413.549 1130.28 413.045 1130.56 412.702C1130.83 412.358 1131.23 412.187 1131.75 412.187C1132.27 412.187 1132.66 412.357 1132.94 412.699C1133.21 413.038 1133.35 413.526 1133.36 414.163V415.037ZM1132.41 414.078C1132.41 413.685 1132.36 413.399 1132.25 413.22C1132.14 413.04 1131.98 412.95 1131.75 412.95C1131.53 412.95 1131.36 413.036 1131.26 413.207C1131.15 413.377 1131.1 413.643 1131.09 414.006V415.161C1131.09 415.548 1131.14 415.836 1131.25 416.025C1131.35 416.212 1131.52 416.305 1131.76 416.305C1131.99 416.305 1132.15 416.215 1132.25 416.035C1132.36 415.854 1132.41 415.578 1132.41 415.206V414.078Z" fill="#AEAEAE" fill-opacity="0.648"/>
<path d="M1256.42 414.665L1256.7 412.252H1259.36V413.038H1257.47L1257.35 414.058C1257.58 413.939 1257.81 413.879 1258.07 413.879C1258.52 413.879 1258.87 414.019 1259.13 414.3C1259.39 414.58 1259.51 414.973 1259.51 415.477C1259.51 415.784 1259.45 416.059 1259.32 416.302C1259.19 416.543 1259.01 416.732 1258.76 416.866C1258.52 416.999 1258.24 417.065 1257.91 417.065C1257.62 417.065 1257.36 417.008 1257.11 416.892C1256.87 416.775 1256.67 416.611 1256.53 416.4C1256.39 416.189 1256.31 415.949 1256.3 415.679H1257.24C1257.25 415.877 1257.32 416.031 1257.44 416.142C1257.56 416.251 1257.72 416.305 1257.91 416.305C1258.12 416.305 1258.28 416.229 1258.4 416.077C1258.51 415.923 1258.57 415.705 1258.57 415.425C1258.57 415.155 1258.51 414.949 1258.37 414.805C1258.24 414.662 1258.05 414.59 1257.81 414.59C1257.59 414.59 1257.4 414.649 1257.26 414.766L1257.17 414.851L1256.42 414.665ZM1263.31 415.037C1263.31 415.693 1263.18 416.196 1262.91 416.543C1262.63 416.891 1262.24 417.065 1261.71 417.065C1261.2 417.065 1260.8 416.895 1260.53 416.553C1260.25 416.212 1260.11 415.723 1260.1 415.086V414.212C1260.1 413.549 1260.24 413.045 1260.52 412.702C1260.79 412.358 1261.19 412.187 1261.71 412.187C1262.22 412.187 1262.62 412.357 1262.89 412.699C1263.17 413.038 1263.31 413.526 1263.31 414.163V415.037ZM1262.37 414.078C1262.37 413.685 1262.32 413.399 1262.21 413.22C1262.1 413.04 1261.93 412.95 1261.71 412.95C1261.48 412.95 1261.32 413.036 1261.21 413.207C1261.11 413.377 1261.05 413.643 1261.05 414.006V415.161C1261.05 415.548 1261.1 415.836 1261.2 416.025C1261.31 416.212 1261.48 416.305 1261.71 416.305C1261.94 416.305 1262.11 416.215 1262.21 416.035C1262.31 415.854 1262.37 415.578 1262.37 415.206V414.078Z" fill="#AEAEAE" fill-opacity="0.648"/>
<path d="M1321.77 417H1320.83V413.367L1319.7 413.716V412.95L1321.67 412.245H1321.77V417ZM1325.61 417H1324.66V413.367L1323.54 413.716V412.95L1325.51 412.245H1325.61V417ZM1330.38 412.78L1328.55 417H1327.55L1329.39 413.015H1327.03V412.252H1330.38V412.78Z" fill="#AEAEAE" fill-opacity="0.648"/>
<path d="M1161.98 413.514C1161.98 413.744 1161.92 413.949 1161.81 414.127C1161.69 414.305 1161.53 414.448 1161.33 414.554C1161.56 414.665 1161.74 414.818 1161.88 415.014C1162.01 415.207 1162.08 415.436 1162.08 415.699C1162.08 416.121 1161.94 416.454 1161.65 416.7C1161.36 416.943 1160.97 417.065 1160.48 417.065C1159.99 417.065 1159.59 416.942 1159.31 416.697C1159.02 416.451 1158.87 416.118 1158.87 415.699C1158.87 415.436 1158.94 415.206 1159.07 415.011C1159.21 414.815 1159.39 414.663 1159.62 414.554C1159.42 414.448 1159.26 414.305 1159.14 414.127C1159.03 413.949 1158.97 413.744 1158.97 413.514C1158.97 413.11 1159.11 412.788 1159.38 412.549C1159.65 412.307 1160.01 412.187 1160.48 412.187C1160.94 412.187 1161.3 412.306 1161.57 412.545C1161.84 412.782 1161.98 413.105 1161.98 413.514ZM1161.14 415.63C1161.14 415.424 1161.08 415.259 1160.96 415.135C1160.84 415.011 1160.68 414.949 1160.47 414.949C1160.27 414.949 1160.11 415.011 1159.99 415.135C1159.87 415.256 1159.81 415.422 1159.81 415.63C1159.81 415.833 1159.87 415.996 1159.99 416.12C1160.11 416.243 1160.27 416.305 1160.48 416.305C1160.68 416.305 1160.84 416.246 1160.96 416.126C1161.08 416.006 1161.14 415.841 1161.14 415.63ZM1161.04 413.56C1161.04 413.375 1160.99 413.227 1160.89 413.116C1160.79 413.003 1160.65 412.946 1160.48 412.946C1160.3 412.946 1160.16 413.001 1160.07 413.11C1159.97 413.218 1159.92 413.368 1159.92 413.56C1159.92 413.749 1159.97 413.901 1160.07 414.016C1160.16 414.131 1160.3 414.189 1160.48 414.189C1160.66 414.189 1160.79 414.131 1160.89 414.016C1160.99 413.901 1161.04 413.749 1161.04 413.56ZM1165.95 412.78L1164.11 417H1163.12L1164.96 413.015H1162.6V412.252H1165.95V412.78Z" fill="#AEAEAE" fill-opacity="0.648"/>
<path d="M1291.05 415.102C1290.8 415.343 1290.51 415.464 1290.19 415.464C1289.77 415.464 1289.43 415.321 1289.18 415.034C1288.93 414.744 1288.8 414.355 1288.8 413.866C1288.8 413.555 1288.87 413.27 1289 413.012C1289.14 412.751 1289.33 412.549 1289.57 412.405C1289.82 412.259 1290.09 412.187 1290.39 412.187C1290.71 412.187 1290.99 412.265 1291.23 412.421C1291.47 412.578 1291.66 412.803 1291.8 413.096C1291.93 413.39 1292 413.726 1292 414.104V414.453C1292 415.244 1291.81 415.866 1291.41 416.318C1291.02 416.771 1290.46 417.012 1289.74 417.042L1289.51 417.046V416.26L1289.72 416.256C1290.54 416.22 1290.98 415.835 1291.05 415.102ZM1290.42 414.743C1290.57 414.743 1290.7 414.704 1290.81 414.626C1290.92 414.548 1291 414.453 1291.06 414.342V413.954C1291.06 413.635 1291 413.387 1290.88 413.211C1290.76 413.035 1290.59 412.946 1290.39 412.946C1290.2 412.946 1290.04 413.033 1289.92 413.207C1289.8 413.379 1289.74 413.595 1289.74 413.856C1289.74 414.115 1289.8 414.328 1289.91 414.495C1290.03 414.661 1290.2 414.743 1290.42 414.743ZM1295.87 415.037C1295.87 415.693 1295.74 416.196 1295.47 416.543C1295.19 416.891 1294.8 417.065 1294.27 417.065C1293.75 417.065 1293.36 416.895 1293.08 416.553C1292.81 416.212 1292.67 415.723 1292.66 415.086V414.212C1292.66 413.549 1292.8 413.045 1293.07 412.702C1293.35 412.358 1293.75 412.187 1294.27 412.187C1294.78 412.187 1295.18 412.357 1295.45 412.699C1295.73 413.038 1295.87 413.526 1295.87 414.163V415.037ZM1294.93 414.078C1294.93 413.685 1294.88 413.399 1294.77 413.22C1294.66 413.04 1294.49 412.95 1294.27 412.95C1294.04 412.95 1293.88 413.036 1293.77 413.207C1293.67 413.377 1293.61 413.643 1293.61 414.006V415.161C1293.61 415.548 1293.66 415.836 1293.76 416.025C1293.87 416.212 1294.04 416.305 1294.27 416.305C1294.5 416.305 1294.67 416.215 1294.77 416.035C1294.87 415.854 1294.93 415.578 1294.93 415.206V414.078Z" fill="#AEAEAE" fill-opacity="0.648"/>
<path d="M1226.96 413.514C1226.96 413.744 1226.9 413.949 1226.79 414.127C1226.67 414.305 1226.51 414.448 1226.31 414.554C1226.54 414.665 1226.72 414.818 1226.86 415.014C1226.99 415.207 1227.06 415.436 1227.06 415.699C1227.06 416.121 1226.92 416.454 1226.63 416.7C1226.34 416.943 1225.95 417.065 1225.46 417.065C1224.96 417.065 1224.57 416.942 1224.28 416.697C1223.99 416.451 1223.85 416.118 1223.85 415.699C1223.85 415.436 1223.92 415.206 1224.05 415.011C1224.19 414.815 1224.37 414.663 1224.6 414.554C1224.39 414.448 1224.24 414.305 1224.12 414.127C1224.01 413.949 1223.95 413.744 1223.95 413.514C1223.95 413.11 1224.09 412.788 1224.36 412.549C1224.63 412.307 1224.99 412.187 1225.45 412.187C1225.92 412.187 1226.28 412.306 1226.55 412.545C1226.82 412.782 1226.96 413.105 1226.96 413.514ZM1226.11 415.63C1226.11 415.424 1226.05 415.259 1225.93 415.135C1225.81 415.011 1225.65 414.949 1225.45 414.949C1225.25 414.949 1225.09 415.011 1224.97 415.135C1224.85 415.256 1224.79 415.422 1224.79 415.63C1224.79 415.833 1224.85 415.996 1224.97 416.12C1225.09 416.243 1225.25 416.305 1225.46 416.305C1225.66 416.305 1225.82 416.246 1225.94 416.126C1226.05 416.006 1226.11 415.841 1226.11 415.63ZM1226.02 413.56C1226.02 413.375 1225.97 413.227 1225.87 413.116C1225.77 413.003 1225.63 412.946 1225.45 412.946C1225.28 412.946 1225.14 413.001 1225.04 413.11C1224.95 413.218 1224.9 413.368 1224.9 413.56C1224.9 413.749 1224.95 413.901 1225.04 414.016C1225.14 414.131 1225.28 414.189 1225.46 414.189C1225.64 414.189 1225.77 414.131 1225.87 414.016C1225.97 413.901 1226.02 413.749 1226.02 413.56ZM1230.89 415.037C1230.89 415.693 1230.76 416.196 1230.49 416.543C1230.21 416.891 1229.82 417.065 1229.29 417.065C1228.78 417.065 1228.38 416.895 1228.11 416.553C1227.83 416.212 1227.69 415.723 1227.69 415.086V414.212C1227.69 413.549 1227.82 413.045 1228.1 412.702C1228.37 412.358 1228.77 412.187 1229.29 412.187C1229.8 412.187 1230.2 412.357 1230.47 412.699C1230.75 413.038 1230.89 413.526 1230.89 414.163V415.037ZM1229.95 414.078C1229.95 413.685 1229.9 413.399 1229.79 413.22C1229.68 413.04 1229.51 412.95 1229.29 412.95C1229.06 412.95 1228.9 413.036 1228.79 413.207C1228.69 413.377 1228.63 413.643 1228.63 414.006V415.161C1228.63 415.548 1228.68 415.836 1228.78 416.025C1228.89 416.212 1229.06 416.305 1229.29 416.305C1229.52 416.305 1229.69 416.215 1229.79 416.035C1229.89 415.854 1229.95 415.578 1229.95 415.206V414.078Z" fill="#AEAEAE" fill-opacity="0.648"/>
<path d="M1194.67 412.78L1192.84 417H1191.84L1193.68 413.015H1191.32V412.252H1194.67V412.78ZM1198.51 412.78L1196.67 417H1195.68L1197.52 413.015H1195.15V412.252H1198.51V412.78Z" fill="#AEAEAE" fill-opacity="0.648"/>
<path d="M1587.88 786C1587.06 786 1586.32 785.497 1586.02 784.732L1571.07 746.732C1570.56 745.42 1571.53 744 1572.94 744L1703.12 744C1704.51 744 1705.48 745.392 1704.99 746.699L1690.81 784.699C1690.51 785.482 1689.77 786 1688.93 786L1587.88 786Z" fill="#F4BD95"/>
<path d="M1591.25 780C1590.53 780 1589.86 779.607 1589.51 778.974L1571.66 746.974C1570.92 745.641 1571.88 744 1573.41 744L1706.94 744C1708.39 744 1709.35 745.48 1708.78 746.801L1694.79 778.801C1694.47 779.529 1693.75 780 1692.96 780L1591.25 780Z" fill="#FFF1E7"/>
<circle cx="1053.5" cy="643.5" r="3.5" fill="#F0F0F0"/>
<circle cx="1064.5" cy="643.5" r="3.5" fill="#F0F0F0"/>
<circle cx="1075.5" cy="643.5" r="3.5" fill="#F0F0F0"/>
<path d="M1058 686.473H1069.84C1070.28 686.473 1070.67 686.226 1070.87 685.836L1071.86 683.823C1072.32 682.896 1073.68 683.003 1073.99 683.992L1075.71 689.548C1076.05 690.629 1077.58 690.621 1077.9 689.536L1082.63 673.719C1082.96 672.598 1084.56 672.64 1084.84 673.777L1088.65 689.485C1088.93 690.649 1090.59 690.655 1090.88 689.493L1092.25 683.988C1092.54 682.812 1094.22 682.838 1094.48 684.023L1096.98 695.506C1097.26 696.793 1099.13 696.67 1099.24 695.357L1101.8 664.426C1101.92 663.06 1103.9 663.008 1104.08 664.365L1106.75 683.928C1106.88 684.911 1108.12 685.271 1108.76 684.515L1110.39 682.597C1110.92 681.965 1111.93 682.094 1112.29 682.841L1114.86 688.149C1115.21 688.876 1116.18 689.022 1116.73 688.429L1118.2 686.841C1118.42 686.607 1118.72 686.473 1119.04 686.473H1137" stroke="url(#paint2_linear)" stroke-opacity="0.388" stroke-width="2.29244" stroke-linecap="round" stroke-linejoin="round"/>
<path d="M1356 408.5C1356 407.672 1356.67 407 1357.5 407C1358.33 407 1359 407.672 1359 408.5V423.5C1359 424.328 1358.33 425 1357.5 425C1356.67 425 1356 424.328 1356 423.5V408.5Z" fill="#216ACD"/>
<path d="M1434 408.5C1434 407.672 1434.67 407 1435.5 407C1436.33 407 1437 407.672 1437 408.5V423.5C1437 424.328 1436.33 425 1435.5 425C1434.67 425 1434 424.328 1434 423.5V408.5Z" fill="#216ACD"/>
</g>
<defs>
<filter id="filter0_f" x="1112.09" y="241.496" width="253.656" height="371.51" filterUnits="userSpaceOnUse" color-interpolation-filters="sRGB">
<feFlood flood-opacity="0" result="BackgroundImageFix"/>
<feBlend mode="normal" in="SourceGraphic" in2="BackgroundImageFix" result="shape"/>
<feGaussianBlur stdDeviation="7.5" result="effect1_foregroundBlur"/>
</filter>
<filter id="filter1_f" x="1242.84" y="249.863" width="121.891" height="357.637" filterUnits="userSpaceOnUse" color-interpolation-filters="sRGB">
<feFlood flood-opacity="0" result="BackgroundImageFix"/>
<feBlend mode="normal" in="SourceGraphic" in2="BackgroundImageFix" result="shape"/>
<feGaussianBlur stdDeviation="5" result="effect1_foregroundBlur"/>
</filter>
<linearGradient id="paint0_linear" x1="1238.91" y1="256.496" x2="1238.91" y2="598.006" gradientUnits="userSpaceOnUse">
<stop stop-color="#FF002F" stop-opacity="0.07"/>
<stop offset="1" stop-color="#00FF94" stop-opacity="0.06"/>
</linearGradient>
<linearGradient id="paint1_linear" x1="1321" y1="256" x2="1321" y2="598" gradientUnits="userSpaceOnUse">
<stop stop-color="white" stop-opacity="0.78"/>
<stop offset="1" stop-color="white" stop-opacity="0.19"/>
</linearGradient>
<linearGradient id="paint2_linear" x1="1057.63" y1="687.343" x2="1136.63" y2="686.873" gradientUnits="userSpaceOnUse">
<stop offset="0.292746" stop-color="#F74364"/>
<stop offset="0.626391" stop-color="#87F2C5"/>
</linearGradient>
<clipPath id="clip0">
<rect width="1920" height="1004" fill="white"/>
</clipPath>
</defs>
</svg>
