<svg width="1920" height="1004" viewBox="0 0 1920 1004" fill="none" xmlns="http://www.w3.org/2000/svg">
<g clip-path="url(#clip0)">
<g opacity="0.476">
<rect x="72" y="215" width="199" height="369" rx="8" fill="#F9F9F9"/>
<rect x="82" y="233" width="179" height="333" rx="8" fill="#F2F2F2"/>
<rect x="86" y="243" width="171" height="21" rx="4" fill="white"/>
<rect x="86" y="272" width="171" height="21" rx="4" fill="white"/>
<rect x="86" y="301" width="171" height="21" rx="4" fill="white"/>
<rect x="86" y="330" width="171" height="21" rx="4" fill="white"/>
<rect x="86" y="359" width="171" height="21" rx="4" fill="white"/>
<rect x="86" y="388" width="171" height="21" rx="4" fill="white"/>
<rect x="86" y="417" width="171" height="21" rx="4" fill="white"/>
<rect x="86" y="446" width="171" height="21" rx="4" fill="white"/>
<rect x="86" y="475" width="171" height="21" rx="4" fill="white"/>
<rect x="86" y="504" width="171" height="21" rx="4" fill="white"/>
<rect x="86" y="533" width="171" height="21" rx="4" fill="white"/>
<circle cx="94" cy="224" r="4" fill="#EFEFEF"/>
<circle cx="106" cy="224" r="4" fill="#EFEFEF"/>
<circle cx="118" cy="224" r="4" fill="#EFEFEF"/>
<circle cx="257" cy="576" r="7" fill="#F6F6F6"/>
</g>
<g opacity="0.504">
<rect x="319" y="215" width="199" height="369" rx="8" fill="#F9F9F9"/>
<rect x="329" y="233" width="179" height="333" rx="8" fill="#F2F2F2"/>
<rect x="333" y="243" width="171" height="21" rx="4" fill="white"/>
<rect x="333" y="272" width="171" height="21" rx="4" fill="white"/>
<rect x="333" y="301" width="171" height="21" rx="4" fill="white"/>
<rect x="333" y="330" width="171" height="21" rx="4" fill="white"/>
<rect x="333" y="359" width="171" height="21" rx="4" fill="white"/>
<rect x="333" y="388" width="171" height="21" rx="4" fill="white"/>
<rect x="333" y="417" width="171" height="21" rx="4" fill="white"/>
<rect x="333" y="446" width="171" height="21" rx="4" fill="white"/>
<rect x="333" y="475" width="171" height="21" rx="4" fill="white"/>
<rect x="333" y="504" width="171" height="21" rx="4" fill="white"/>
<rect x="333" y="533" width="171" height="21" rx="4" fill="white"/>
<circle cx="341" cy="224" r="4" fill="#EFEFEF"/>
<circle cx="353" cy="224" r="4" fill="#EFEFEF"/>
<circle cx="506" cy="574" r="7" fill="#EFEFEF"/>
</g>
<g opacity="0.504">
<rect x="566" y="215" width="199" height="369" rx="8" fill="#F9F9F9"/>
<rect x="576" y="233" width="179" height="333" rx="8" fill="#F2F2F2"/>
<rect x="580" y="243" width="171" height="21" rx="4" fill="white"/>
<rect x="580" y="272" width="171" height="21" rx="4" fill="white"/>
<rect x="580" y="301" width="171" height="21" rx="4" fill="white"/>
<rect x="580" y="330" width="171" height="21" rx="4" fill="white"/>
<rect x="580" y="359" width="171" height="21" rx="4" fill="white"/>
<rect x="580" y="388" width="171" height="21" rx="4" fill="white"/>
<rect x="580" y="417" width="171" height="21" rx="4" fill="white"/>
<rect x="580" y="446" width="171" height="21" rx="4" fill="white"/>
<rect x="580" y="475" width="171" height="21" rx="4" fill="white"/>
<rect x="580" y="504" width="171" height="21" rx="4" fill="white"/>
<rect x="580" y="533" width="171" height="21" rx="4" fill="white"/>
<circle cx="588" cy="224" r="4" fill="#EFEFEF"/>
<circle cx="600" cy="224" r="4" fill="#EFEFEF"/>
<circle cx="612" cy="224" r="4" fill="#EFEFEF"/>
<circle cx="756" cy="571" r="7" fill="#EFEFEF"/>
</g>
<g opacity="0.504">
<rect x="807" y="215" width="199" height="369" rx="8" fill="#F9F9F9"/>
<rect x="817" y="233" width="179" height="333" rx="8" fill="#F2F2F2"/>
<rect x="821" y="243" width="171" height="21" rx="4" fill="white"/>
<rect x="821" y="272" width="171" height="21" rx="4" fill="white"/>
<rect x="821" y="301" width="171" height="21" rx="4" fill="white"/>
<rect x="821" y="330" width="171" height="21" rx="4" fill="white"/>
<rect x="821" y="359" width="171" height="21" rx="4" fill="white"/>
<rect x="821" y="388" width="171" height="21" rx="4" fill="white"/>
<rect x="821" y="417" width="171" height="21" rx="4" fill="white"/>
<rect x="821" y="446" width="171" height="21" rx="4" fill="white"/>
<rect x="821" y="475" width="171" height="21" rx="4" fill="white"/>
<rect x="821" y="504" width="171" height="21" rx="4" fill="white"/>
<rect x="821" y="533" width="171" height="21" rx="4" fill="white"/>
<circle cx="829" cy="224" r="4" fill="#EFEFEF"/>
<circle cx="841" cy="224" r="4" fill="#EFEFEF"/>
<circle cx="994" cy="574" r="7" fill="#EFEFEF"/>
</g>
<g opacity="0.504">
<rect x="1054" y="215" width="199" height="369" rx="8" fill="#F9F9F9"/>
<rect x="1064" y="233" width="179" height="333" rx="8" fill="#F2F2F2"/>
<rect x="1068" y="243" width="171" height="21" rx="4" fill="white"/>
<rect x="1068" y="272" width="171" height="21" rx="4" fill="white"/>
<rect x="1068" y="301" width="171" height="21" rx="4" fill="white"/>
<rect x="1068" y="330" width="171" height="21" rx="4" fill="white"/>
<rect x="1068" y="359" width="171" height="21" rx="4" fill="white"/>
<rect x="1068" y="388" width="171" height="21" rx="4" fill="white"/>
<rect x="1068" y="417" width="171" height="21" rx="4" fill="white"/>
<rect x="1068" y="446" width="171" height="21" rx="4" fill="white"/>
<rect x="1068" y="475" width="171" height="21" rx="4" fill="white"/>
<rect x="1068" y="504" width="171" height="21" rx="4" fill="white"/>
<rect x="1068" y="533" width="171" height="21" rx="4" fill="white"/>
<circle cx="1076" cy="224" r="4" fill="#EFEFEF"/>
<circle cx="1088" cy="224" r="4" fill="#EFEFEF"/>
<circle cx="1100" cy="224" r="4" fill="#EFEFEF"/>
<circle cx="1244" cy="571" r="7" fill="#EFEFEF"/>
</g>
<g opacity="0.4">
<rect x="1301" y="215" width="199" height="369" rx="8" fill="#F9F9F9"/>
<rect x="1311" y="233" width="179" height="333" rx="8" fill="#F2F2F2"/>
<rect x="1315" y="243" width="171" height="21" rx="4" fill="white"/>
<rect x="1315" y="272" width="171" height="21" rx="4" fill="white"/>
<rect x="1315" y="301" width="171" height="21" rx="4" fill="white"/>
<rect x="1315" y="330" width="171" height="21" rx="4" fill="white"/>
<rect x="1315" y="359" width="171" height="21" rx="4" fill="white"/>
<rect x="1315" y="388" width="171" height="21" rx="4" fill="white"/>
<rect x="1315" y="417" width="171" height="21" rx="4" fill="white"/>
<rect x="1315" y="446" width="171" height="21" rx="4" fill="white"/>
<rect x="1315" y="475" width="171" height="21" rx="4" fill="white"/>
<rect x="1315" y="504" width="171" height="21" rx="4" fill="white"/>
<rect x="1315" y="533" width="171" height="21" rx="4" fill="white"/>
<circle cx="1323" cy="224" r="4" fill="#EFEFEF"/>
<circle cx="1335" cy="224" r="4" fill="#EFEFEF"/>
<circle cx="1488" cy="574" r="7" fill="#EFEFEF"/>
</g>
<g opacity="0.3">
<rect x="1548" y="215" width="199" height="369" rx="8" fill="#F9F9F9"/>
<rect x="1558" y="233" width="179" height="333" rx="8" fill="#F2F2F2"/>
<rect x="1562" y="243" width="171" height="21" rx="4" fill="white"/>
<rect x="1562" y="272" width="171" height="21" rx="4" fill="white"/>
<rect x="1562" y="301" width="171" height="21" rx="4" fill="white"/>
<rect x="1562" y="330" width="171" height="21" rx="4" fill="white"/>
<rect x="1562" y="359" width="171" height="21" rx="4" fill="white"/>
<rect x="1562" y="388" width="171" height="21" rx="4" fill="white"/>
<rect x="1562" y="417" width="171" height="21" rx="4" fill="white"/>
<rect x="1562" y="446" width="171" height="21" rx="4" fill="white"/>
<rect x="1562" y="475" width="171" height="21" rx="4" fill="white"/>
<rect x="1562" y="504" width="171" height="21" rx="4" fill="white"/>
<rect x="1562" y="533" width="171" height="21" rx="4" fill="white"/>
<circle cx="1570" cy="224" r="4" fill="#EFEFEF"/>
<circle cx="1582" cy="224" r="4" fill="#EFEFEF"/>
<circle cx="1594" cy="224" r="4" fill="#EFEFEF"/>
<circle cx="1738" cy="571" r="7" fill="#EFEFEF"/>
</g>
<g opacity="0.2">
<rect x="1796" y="215" width="199" height="369" rx="8" fill="#F9F9F9"/>
<rect x="1806" y="233" width="179" height="333" rx="8" fill="#F2F2F2"/>
<rect x="1810" y="243" width="171" height="21" rx="4" fill="white"/>
<rect x="1810" y="272" width="171" height="21" rx="4" fill="white"/>
<rect x="1810" y="301" width="171" height="21" rx="4" fill="white"/>
<rect x="1810" y="330" width="171" height="21" rx="4" fill="white"/>
<rect x="1810" y="359" width="171" height="21" rx="4" fill="white"/>
<rect x="1810" y="388" width="171" height="21" rx="4" fill="white"/>
<rect x="1810" y="417" width="171" height="21" rx="4" fill="white"/>
<rect x="1810" y="446" width="171" height="21" rx="4" fill="white"/>
<rect x="1810" y="475" width="171" height="21" rx="4" fill="white"/>
<rect x="1810" y="504" width="171" height="21" rx="4" fill="white"/>
<rect x="1810" y="533" width="171" height="21" rx="4" fill="white"/>
<circle cx="1818" cy="224" r="4" fill="#EFEFEF"/>
<circle cx="1830" cy="224" r="4" fill="#EFEFEF"/>
<circle cx="1842" cy="224" r="4" fill="#EFEFEF"/>
</g>
<path d="M258 575C226 718 -48.4998 719.105 185.5 744.5C314.5 758.5 466.5 735.064 685 744.5C953.5 756.095 918.5 645 963.5 606M963.5 606C860.5 662 940 734.5 532 701.5C342.12 686.142 550 651 505.5 575M963.5 606C930.5 602 895 656 804 656C713 656 651.5 604.5 755.5 569" stroke="#EFEFEF" stroke-opacity="0.724" stroke-width="6"/>
<path d="M1932.5 575C1961.5 595.5 1794 667 1700 686.5C1593.22 708.652 1495.51 685.072 1436.5 707.5C1215.5 791.5 1100.83 626.333 1029 603.5M1029 603.5C1098.17 611.333 1190.5 686.564 1436.5 666C1493.24 661.257 1778 603 1739.5 575M1029 603.5C1053 603.5 1117.5 621.5 1163 611C1208.5 600.5 1225 585.5 1241.5 565.5" stroke="#EFEFEF" stroke-width="6"/>
<path d="M1725.76 528.452C1729.1 532.829 1740.53 536.019 1744.56 536.674L1749.05 528.452C1747.23 525.6 1746.18 524.881 1744.56 522.173C1741.13 516.468 1736.1 510.016 1733.98 511.552C1731.87 513.088 1740.99 522.461 1738.93 522.173C1732.28 521.242 1725.25 510.999 1721.52 514.071C1717.79 517.142 1721.59 522.98 1725.76 528.452Z" fill="#FDC2BA"/>
<path d="M1725.76 528.452C1729.09 532.83 1740.53 536.019 1744.56 536.674L1749.05 528.452C1747.23 525.6 1746.18 524.881 1744.56 522.173C1747.41 526.919 1747.84 531.502 1739.12 531.502C1732.71 531.502 1728.73 531.003 1725.76 528.452Z" fill="#E3ADA6"/>
<path d="M322 614H308C307.448 614 307 614.448 307 615C307 615.552 307.448 616 308 616H322C322.552 616 323 615.552 323 615C323 614.448 322.552 614 322 614Z" fill="white"/>
<path d="M329.778 614.121L324.121 608.464C323.731 608.074 323.097 608.074 322.707 608.464C322.316 608.855 322.316 609.488 322.707 609.878L328.364 615.535C328.754 615.926 329.387 615.926 329.778 615.535C330.169 615.145 330.169 614.512 329.778 614.121Z" fill="white"/>
<path d="M328.364 614.464L322.707 620.121C322.317 620.512 322.317 621.145 322.707 621.535C323.098 621.926 323.731 621.926 324.121 621.535L329.778 615.878C330.169 615.488 330.169 614.855 329.778 614.464C329.388 614.074 328.755 614.074 328.364 614.464Z" fill="white"/>
<rect x="980.576" y="637.192" width="35.167" height="13.761" rx="3.058" fill="#C7C7C7"/>
<rect x="966.051" y="735.048" width="64.2179" height="13.761" rx="3.058" fill="#BEBEBE"/>
<path d="M967.324 590.277C967.469 588.704 968.789 587.5 970.369 587.5H1025.95C1027.53 587.5 1028.85 588.704 1029 590.277L1033.43 638.441C1033.6 640.233 1032.19 641.779 1030.39 641.779H965.933C964.133 641.779 962.723 640.233 962.888 638.441L967.324 590.277Z" fill="#D0D0D0"/>
<path d="M967.58 591.5C967.58 591.5 962.82 603 998.16 603C1033.5 603 1028.74 591.5 1028.74 591.5V638.721C1028.74 640.41 1027.37 641.779 1025.68 641.779H970.638C968.949 641.779 967.58 640.41 967.58 638.721V591.5Z" fill="#E5E5E5"/>
<circle cx="988.5" cy="626.5" r="3.5" fill="#919191"/>
<circle cx="1007.5" cy="626.5" r="3.5" fill="#919191"/>
<rect width="6.88049" height="21.406" rx="3.058" transform="matrix(-1 0 0 1 967.58 591)" fill="#BEBEBE"/>
<rect width="6.88049" height="21.406" rx="3.058" transform="matrix(-1 0 0 1 1035.62 591)" fill="#BEBEBE"/>
<rect width="18.348" height="21.406" rx="3.058" transform="matrix(-1 0 0 1 1044.79 650.953)" fill="#E6E6E6"/>
<rect width="18.348" height="21.406" rx="3.058" transform="matrix(-1 0 0 1 969.108 650.953)" fill="#E6E6E6"/>
<path d="M956.246 651.082C956.173 649.344 957.562 647.896 959.301 647.896H1037.02C1038.76 647.896 1040.15 649.344 1040.07 651.082L1036.51 735.941C1036.44 737.579 1035.09 738.871 1033.45 738.871H962.867C961.228 738.871 959.881 737.579 959.812 735.941L956.246 651.082Z" fill="#E6E6E6"/>
<path d="M964.376 657.193C964.266 654.91 966.087 653 968.371 653H1029.98C1032.26 653 1034.08 654.91 1033.97 657.193L1031.18 715.193C1031.07 717.324 1029.31 719 1027.18 719H971.167C969.033 719 967.275 717.324 967.172 715.193L964.376 657.193Z" fill="#858585"/>
<path d="M956.674 654.896C966.174 692 944.145 731.608 998.16 731.608C1052.17 731.608 1030.67 695 1039.67 654.896C1038.81 677.916 1036.98 723.973 1036.5 735.963C1036.44 737.603 1035.09 738.871 1033.45 738.871H962.897C961.246 738.871 959.893 737.573 959.839 735.923C959.4 722.392 957.551 666.396 956.674 654.896Z" fill="#C7C7C7"/>
<path d="M1058.94 692.619L1062.36 692.223L1058.94 692.619ZM1003.63 713.036C1001.81 713.606 1000.81 715.538 1001.38 717.35C1001.95 719.163 1003.88 720.17 1005.69 719.6L1003.63 713.036ZM1043.65 664.714C1043.54 664.714 1044.19 664.737 1045.53 666.133C1046.75 667.408 1048.13 669.403 1049.49 672.061C1052.19 677.357 1054.57 684.794 1055.52 693.014L1062.36 692.223C1061.32 683.243 1058.72 675.007 1055.62 668.931C1054.07 665.903 1052.33 663.287 1050.5 661.372C1048.78 659.579 1046.43 657.834 1043.65 657.834V664.714ZM1055.52 693.014C1056.5 701.495 1054.66 705.953 1052.06 708.469C1049.3 711.135 1044.9 712.422 1039.08 712.789C1033.3 713.154 1026.92 712.583 1020.61 712.192C1014.6 711.818 1008.3 711.568 1003.63 713.036L1005.69 719.6C1008.92 718.584 1013.88 718.668 1020.18 719.059C1026.19 719.432 1033.18 720.056 1039.52 719.656C1045.82 719.259 1052.29 717.822 1056.84 713.416C1061.55 708.861 1063.48 701.899 1062.36 692.223L1055.52 693.014Z" fill="#D0D0D0"/>
<path d="M937.29 692.619L933.872 692.223L937.29 692.619ZM992.602 713.036C994.414 713.606 995.421 715.538 994.851 717.35C994.281 719.163 992.35 720.17 990.537 719.6L992.602 713.036ZM952.58 664.714C952.683 664.714 952.036 664.737 950.697 666.133C949.475 667.408 948.097 669.403 946.739 672.061C944.033 677.357 941.659 684.794 940.707 693.014L933.872 692.223C934.912 683.243 937.508 675.007 940.611 668.931C942.158 665.903 943.894 663.287 945.73 661.372C947.448 659.579 949.801 657.834 952.58 657.834V664.714ZM940.707 693.014C939.725 701.495 941.564 705.953 944.167 708.469C946.924 711.135 951.324 712.422 957.145 712.789C962.927 713.154 969.306 712.583 975.618 712.192C981.63 711.818 987.932 711.568 992.602 713.036L990.537 719.6C987.307 718.584 982.349 718.668 976.045 719.059C970.041 719.432 963.049 720.056 956.711 719.656C950.411 719.259 943.942 717.822 939.384 713.416C934.673 708.861 932.752 701.899 933.872 692.223L940.707 693.014Z" fill="#D0D0D0"/>
<circle cx="1021.96" cy="566.783" r="12.7831" fill="#F74364" fill-opacity="0.096"/>
<rect x="1016.15" y="558.067" width="12.2021" height="18.0126" rx="3.48631" fill="#F74364"/>
<path d="M1019.63 576.08H1024.86C1025.76 576.08 1026.57 575.744 1027.19 575.192C1027.19 575.192 1022.4 575.357 1019.63 572.594C1016.15 569.107 1016.73 559.626 1016.73 559.626C1016.36 560.178 1016.15 560.841 1016.15 561.554V572.594C1016.15 574.519 1017.71 576.08 1019.63 576.08Z" fill="#D12E4C"/>
<rect x="1020.09" y="575.961" width="4.06736" height="11.621" fill="#D0D0D0"/>
<rect x="1019.51" y="575.961" width="5.22946" height="1.1621" fill="#D0D0D0"/>
<rect x="1019.51" y="586.42" width="5.22946" height="1.1621" fill="#D0D0D0"/>
<rect x="968.037" y="655.707" width="58.6192" height="58.6192" rx="4.58488" fill="#F3A2B8"/>
<rect x="970.843" y="657.4" width="58.6192" height="58.6192" rx="4.58488" fill="#F74364"/>
<rect x="980.006" y="671.895" width="7.49791" height="49.9861" rx="3.74895" transform="rotate(-45 980.006 671.895)" fill="#EFF3FF"/>
<rect x="1015.35" y="666.594" width="7.49791" height="49.9861" rx="3.74895" transform="rotate(45 1015.35 666.594)" fill="#EFF3FF"/>
<path d="M952.025 742.232C952.668 741.546 953.585 741.233 954.518 741.348C960.3 742.061 981.954 744.605 996.632 744.605C1011.31 744.605 1032.96 742.061 1038.74 741.348C1039.68 741.233 1040.6 741.546 1041.24 742.233C1044.17 745.361 1052.49 754.89 1054.73 764.482C1056.46 771.837 1053.78 784.436 1052.1 791.068C1051.44 793.682 1049.08 795.444 1046.39 795.444C1036.86 795.444 1014.16 795.444 996.632 795.444C979.106 795.444 956.407 795.444 946.878 795.444C944.182 795.444 941.822 793.682 941.161 791.068C939.482 784.436 936.808 771.837 938.53 764.482C940.775 754.89 949.094 745.361 952.025 742.232Z" fill="#F0F0F0"/>
<path d="M938.53 764.481C936.808 771.837 939.482 784.436 941.161 791.068C941.822 793.681 944.182 795.444 946.878 795.444H996.632H1046.39C1049.08 795.444 1051.44 793.681 1052.1 791.068C1053.78 784.436 1056.46 771.837 1054.73 764.481C1049 764.481 1022.93 772.5 996.632 772.5C970.333 772.5 947 768 938.53 764.481Z" fill="#C7C7C7"/>
<path d="M-44.2314 640.074C-41.3748 642.859 -28.6087 638.793 -31.8733 635.609C-33.0064 634.504 -37.2883 640.24 -40.8774 637.022C-43.3258 634.827 -43.6219 629.053 -44.7237 626.917L-36.2451 628.02C-35.4492 627.204 -42.3461 623.663 -46.7945 622.51C-50.1506 621.639 -70.9854 588.7 -73.0259 586.711C-74.6582 585.119 -63.9863 554.398 -66.907 546.508L-74.7452 533.785C-81.5842 547.808 -87.9258 591.267 -86.2854 593.504C-84.2348 596.299 -55.2122 626.243 -51.9678 627.815C-48.7234 629.386 -47.0879 637.288 -44.2314 640.074Z" fill="#D9B8AC"/>
<path opacity="0.692" fill-rule="evenodd" clip-rule="evenodd" d="M901 532C899.895 532 899 532.895 899 534V566C899 567.105 899.895 568 901 568H940.34L949.872 575.687C950.526 576.215 951.5 575.749 951.5 574.909V568H952C953.105 568 954 567.105 954 566V534C954 532.895 953.105 532 952 532H901Z" fill="#D6E1DD"/>
<path fill-rule="evenodd" clip-rule="evenodd" d="M903 534C901.895 534 901 534.895 901 536V568C901 569.105 901.895 570 903 570H942.34L951.872 577.687C952.526 578.215 953.5 577.749 953.5 576.909V570H954C955.105 570 956 569.105 956 568V536C956 534.895 955.105 534 954 534H903Z" fill="#E1E1E1"/>
<line x1="910" y1="544" x2="947" y2="544" stroke="white" stroke-width="2" stroke-linecap="round" stroke-linejoin="round"/>
<line x1="910" y1="552" x2="947" y2="552" stroke="white" stroke-width="2" stroke-linecap="round" stroke-linejoin="round"/>
<line x1="910" y1="560" x2="947" y2="560" stroke="white" stroke-width="2" stroke-linecap="round" stroke-linejoin="round"/>
<path d="M1817.43 786.303V773.747L1800.09 772.85C1795.08 776.299 1790.68 777.024 1788.25 776.472C1785.83 775.92 1772.9 778.369 1769.8 781.182L1767.04 786.303L1797.86 786.303L1802.39 784.233L1803.77 786.303H1817.43Z" fill="#5F6474"/>
<path d="M1842.22 788.913C1840.29 788.913 1832.24 790.326 1827.94 791.127C1827.57 791.195 1827.28 791.455 1827.17 791.806L1826.56 793.724C1826.36 794.369 1826.84 795.026 1827.51 795.026H1851.94C1852.17 795.026 1852.4 794.947 1852.58 794.801L1864.25 785.275C1864.78 784.844 1865.58 785.057 1865.82 785.694L1866.34 787.064C1866.54 787.575 1867.11 787.834 1867.62 787.648L1877.18 784.175C1877.73 783.974 1877.99 783.344 1877.74 782.812L1871.62 769.702C1871.41 769.258 1870.91 769.029 1870.44 769.163L1851.99 774.373C1851.69 774.458 1851.45 774.678 1851.33 774.967C1849.49 779.391 1844.17 788.913 1842.22 788.913Z" fill="#696E80"/>
<path d="M1791.08 546.169C1787.59 538.246 1773.72 484.455 1823.86 487.129L1819.76 521.429C1812.24 532.293 1813.51 573.312 1803.18 575.945C1790.84 579.09 1742.63 547.537 1744.45 537.256L1747.71 525.445C1756.82 522.08 1786.31 535.34 1791.08 546.169Z" fill="#3B4772"/>
<path d="M1803.18 575.945C1790.84 579.09 1742.63 547.537 1744.45 537.256C1747.86 546.687 1770.8 559.79 1783.44 556.539C1787.79 555.421 1786.68 540.161 1786.68 540.161L1803.18 575.945Z" fill="#323B5C"/>
<path d="M1846.15 602.031C1845.73 593.408 1840.38 581.995 1837.76 577.366C1825.93 580.199 1805.69 574.154 1802.21 580.118C1797.86 587.574 1787.41 655.469 1786.89 663.841C1786.37 672.212 1792.18 771.462 1794.05 773.797C1795.92 776.133 1814.71 776.492 1816.97 773.797C1819.23 771.103 1816.92 677.004 1816.97 672.836C1817.02 668.668 1846.67 612.81 1846.15 602.031Z" fill="#1F2C5C"/>
<path d="M1846.15 602.031C1845.73 593.408 1840.38 581.995 1837.76 577.366C1825.93 580.199 1805.73 575.096 1802.25 581.06C1802.25 595.102 1801.91 675.549 1811.89 672.836C1811.37 681.208 1819.65 770.146 1799.51 772.233C1801.38 774.568 1813.58 770.992 1815.84 768.297C1818.11 765.602 1816.92 677.004 1816.97 672.836C1817.02 668.668 1846.67 612.81 1846.15 602.031Z" fill="#162148"/>
<path d="M1852.01 605.653C1852.01 597.02 1840.38 581.995 1837.76 577.366C1825.93 580.199 1808.76 571.402 1805.28 577.366C1800.93 584.822 1798.04 663.449 1805.28 685.555C1812.52 707.66 1844.14 778.308 1846.01 780.643C1847.88 782.978 1871.56 778.088 1873.82 775.393C1876.09 772.699 1831.68 685.775 1831.73 681.608C1831.79 677.44 1852.01 627.67 1852.01 605.653Z" fill="#2B396A"/>
<path d="M1852.01 605.653C1852.01 597.02 1840.38 581.995 1837.76 577.366C1825.93 580.199 1825.93 678.505 1831.73 681.608C1831.79 677.44 1852.01 627.67 1852.01 605.653Z" fill="#1F2C5C"/>
<path d="M1811.1 700.292C1811.09 701.084 1811.97 703.664 1813.6 707.448C1815.85 713.418 1818.52 719.375 1824.32 732.828C1834.55 756.512 1844.96 779.332 1846.01 780.643C1847.88 782.978 1864.76 778.995 1867.02 776.3C1841.48 761.649 1820.59 723.591 1813.6 707.448C1812.76 705.199 1811.97 702.947 1811.1 700.292Z" fill="#1F2C5C"/>
<path d="M1824.74 473.483H1815.32L1806.95 480.614C1807.36 481.426 1807.93 484.093 1806.95 488.267C1805.97 492.441 1802.12 499.862 1800.32 503.051L1831.37 491.398C1830.15 489.195 1827.36 484.441 1825.96 483.049C1824.57 481.658 1824.57 476.092 1824.74 473.483Z" fill="#FDC2BA"/>
<path d="M1824.74 472.005L1815.32 473.483C1827.92 492.692 1803.03 486.049 1800.32 503.05L1831.37 491.397C1830.15 489.194 1827.36 484.441 1825.96 483.049C1824.57 481.658 1824.57 474.614 1824.74 472.005Z" fill="#E3ADA6"/>
<path d="M1798.97 463.815L1798.83 468.928L1799.12 476.245C1799.12 476.245 1796.18 481.995 1800.35 482.525C1825.42 485.719 1832.26 464.407 1825.42 447.509C1822.74 440.874 1816.3 438.798 1810.69 439.669C1800.64 441.229 1795.75 458.995 1795.46 463.815H1798.97Z" fill="#FDC2BA"/>
<path d="M1825.42 447.509C1832.26 464.407 1825.42 485.719 1800.35 482.525C1796.18 481.995 1822.99 479.889 1825.42 447.509Z" fill="#E3ADA6"/>
<path d="M1820.91 454.655C1814.86 457.734 1818.32 449.468 1799.35 449.468C1799.35 432.02 1824.99 437.38 1827.08 437.571C1843.89 445.795 1830.62 472.917 1825.31 473.967C1824.07 474.212 1824.62 470.578 1823.03 463.404C1825.44 459.175 1827.1 451.505 1820.91 454.655Z" fill="#B49B76"/>
<path d="M1825.31 473.967C1824.07 474.212 1824.62 470.578 1823.03 463.404C1824.61 460.624 1825.87 456.358 1824.79 454.655C1825.92 454.032 1828.41 451.061 1828.41 445.394C1828.41 441.945 1827.6 438.865 1827.08 437.571C1843.89 445.795 1830.62 472.917 1825.31 473.967Z" fill="#968060"/>
<path d="M1838.75 490.966C1835.77 485.048 1828.64 484.091 1826.84 483.29L1801.71 500.304C1801.71 500.304 1778.21 504.649 1790.47 554.157C1793.84 567.75 1800.24 572.823 1797.47 590.032C1797.47 603.717 1846.72 609.137 1849.84 598.996C1852.96 588.856 1851.28 490.966 1838.75 490.966Z" fill="#1F2C5C"/>
<path d="M1838.75 490.966C1841.36 512.733 1832.22 495.123 1830.42 494.321C1830.42 494.321 1808.23 508.436 1823.32 572.16C1826.9 587.303 1799.17 596.975 1814.11 600.961C1829.05 604.946 1847.97 605.053 1849.84 598.995C1852.96 588.855 1851.28 490.966 1838.75 490.966Z" fill="#182249"/>
<path d="M1792.39 536.345C1792.39 535.084 1791.11 533.948 1789.77 533.89C1788.42 533.832 1789.77 556.906 1796.74 571.847C1793.38 561.544 1792.39 537.606 1792.39 536.345Z" fill="#4A588B"/>
<path d="M1819.36 487.211C1830.62 482.405 1824.24 483.636 1824.8 480.598C1826.66 483.512 1834.02 480.857 1834.02 485.049C1834.02 489.241 1829.64 488.125 1812.57 495.855C1807.78 498.026 1788.86 510.007 1792.13 528.314C1791.65 530.311 1790.24 532.959 1789.81 535.059C1788.81 539.973 1793.6 562.671 1798.24 575.739C1798.24 575.739 1791.78 567.035 1785.38 536.113C1780.79 513.893 1792.76 500.73 1798.24 497.766C1803.72 494.801 1813.84 489.57 1819.36 487.211Z" fill="#4A588B"/>
<path d="M1819.24 467.703C1821.22 464.197 1816.03 469.054 1819.24 454.079L1816.74 450.492C1816.74 451.919 1816.4 455.801 1815.04 459.912C1813.34 465.05 1807 465.714 1803.32 465.2C1798.52 464.53 1797.8 464.779 1797.8 467.703C1797.8 469.655 1803.68 467.3 1803.68 469.054C1803.68 470.807 1800.98 470.525 1798.52 470.525C1796.05 470.525 1794.06 480.631 1794.28 483.43C1794.49 486.229 1798.52 486.441 1801.86 486.441C1805.2 486.441 1812.12 482.656 1815.89 480.403C1820.16 477.85 1821.29 474.583 1819.24 467.703Z" fill="#B49B76"/>
<path d="M1815.89 480.403C1820.16 477.85 1821.29 474.583 1819.24 467.703C1819.24 471.089 1816.53 474.249 1812.89 477.683C1809 481.348 1798.8 488.398 1794.28 483.43C1794.49 486.229 1798.52 486.44 1801.86 486.44C1805.2 486.44 1812.12 482.656 1815.89 480.403Z" fill="#968060"/>
<path d="M1798.75 652.729V687.122C1798.75 687.919 1799.4 688.566 1800.2 688.566H1849.75C1850.55 688.566 1851.2 687.919 1851.2 687.122V652.729C1851.2 651.931 1850.55 651.284 1849.75 651.284H1800.2C1799.4 651.284 1798.75 651.931 1798.75 652.729Z" fill="#696E80"/>
<path d="M1798.75 653.969V687.122C1798.75 687.919 1799.4 688.566 1800.2 688.566H1848.51C1848.51 688.566 1827.01 686.983 1813.84 676.585C1802.19 667.382 1798.75 653.969 1798.75 653.969Z" fill="#5F6474"/>
<path d="M1799.89 652.499L1815.66 669.31C1815.93 669.601 1816.31 669.766 1816.71 669.766L1833.35 669.767C1833.75 669.767 1834.13 669.601 1834.41 669.307L1850.07 652.498C1850.5 652.036 1850.17 651.283 1849.54 651.283H1800.42C1799.79 651.283 1799.46 652.038 1799.89 652.499Z" fill="#7A7F8E"/>
<path fill-rule="evenodd" clip-rule="evenodd" d="M1820.29 646.171L1814.31 649.952C1813.69 650.338 1813.97 651.284 1814.69 651.284H1820.3C1819.6 651.269 1819.33 650.349 1819.92 649.959L1822.22 648.451C1822.45 648.296 1822.73 648.214 1823.01 648.214L1826.97 648.214C1827.25 648.214 1827.53 648.297 1827.76 648.453L1830.04 649.96C1830.64 650.351 1830.37 651.269 1829.66 651.284H1835.27C1835.99 651.284 1836.27 650.34 1835.66 649.953L1829.72 646.173C1829.48 646.026 1829.22 645.947 1828.94 645.947L1821.06 645.947C1820.79 645.947 1820.52 646.025 1820.29 646.171Z" fill="#A7ABC2"/>
<rect x="1821.56" y="665.859" width="7.70105" height="7.47137" rx="1.44412" fill="#A7ABC2"/>
<path d="M1821.56 667.872C1821.56 667.872 1821.56 670.525 1825.28 670.525C1829.26 670.525 1829.26 667.872 1829.26 667.872V671.886C1829.26 672.684 1828.62 673.33 1827.82 673.33H1823.01C1822.21 673.33 1821.56 672.684 1821.56 671.886V667.872Z" fill="#8A8EA3"/>
<path d="M1812.7 644.85C1813.36 641.739 1818.16 637.999 1820.47 636.518L1831.79 639.568C1833.03 641.885 1835.35 646.906 1834.7 648.46C1834.05 650.014 1831.09 651.045 1829.69 651.367H1820.47L1819.09 644.85C1818.35 645.498 1816.7 647.127 1816.03 648.46C1815.2 650.127 1811.86 648.738 1812.7 644.85Z" fill="#FDC2BA"/>
<path d="M1820.47 651.367L1819.09 644.85C1819.74 646.208 1821.62 648.832 1823.89 648.46C1826.16 648.089 1835.4 649.831 1831.79 639.568C1833.03 641.885 1835.35 646.906 1834.7 648.46C1834.05 650.014 1831.09 651.045 1829.69 651.367H1820.47Z" fill="#E3ADA6"/>
<path d="M1829.8 568.485C1825.4 561.437 1793.5 500.269 1834.21 492.117C1863.28 487.712 1859.75 568.485 1859.75 575.972C1859.75 583.46 1838.02 639.137 1834.05 640.459C1830.88 641.516 1823 638.969 1818.45 635.886C1824.32 612.395 1833.33 574.122 1829.8 568.485Z" fill="#4A588B"/>
<path d="M1857.73 575.972C1859.95 567.963 1859.75 488.246 1834.21 492.117C1863.28 487.712 1859.75 568.484 1859.75 575.972C1859.75 583.46 1838.02 639.137 1834.05 640.459C1830.88 641.516 1823 638.969 1818.45 635.886C1831.88 635.886 1854.32 588.318 1857.73 575.972Z" fill="#424E7B"/>
<rect x="1203.82" y="619.654" width="67.6271" height="6.87733" rx="1.14622" fill="#2F80ED"/>
<rect x="1382.78" y="619.654" width="67.6271" height="6.87733" rx="1.14622" fill="#2F80ED"/>
<rect x="1536.38" y="619.654" width="67.6271" height="6.87733" rx="1.14622" fill="#2F80ED"/>
<rect x="1689.97" y="619.654" width="67.6271" height="6.87733" rx="1.14622" fill="#2F80ED"/>
<rect x="1059.55" y="624.041" width="67.6271" height="6.87733" rx="1.14622" transform="rotate(-6.6443 1059.55 624.041)" fill="#2F80ED"/>
<rect x="1059.75" y="663" width="67.6271" height="6.87733" rx="1.14622" transform="rotate(9.0095 1059.75 663)" fill="#2F80ED"/>
<path d="M1740.84 419.065C1746.17 442.5 1736.73 472 1725.82 524.5C1716.67 568.5 1717.08 597.744 1725.82 617.362" stroke="#89C599" stroke-width="2.29244" stroke-linecap="round" stroke-linejoin="round"/>
<path d="M1580.11 528C1589.82 550.628 1569.69 566.27 1556.79 560.308C1522.76 544.582 1554.72 606.786 1569.69 617" stroke="#89C599" stroke-width="2.29244" stroke-linecap="round" stroke-linejoin="round"/>
<circle cx="1586.75" cy="490.582" r="40.0766" fill="#89C599"/>
<circle cx="1589.25" cy="488.077" r="40.0766" fill="#87F2C5"/>
<rect width="9.09788" height="37.4291" rx="4.54894" transform="matrix(0.899592 -0.436732 0.56603 0.824385 1563.72 481.139)" fill="white"/>
<rect width="9.09788" height="49.443" rx="4.54894" transform="matrix(0.899592 0.436732 -0.56603 0.824385 1608.71 468.114)" fill="white"/>
<rect x="1209.53" y="557.588" width="58.6192" height="58.6192" rx="4.58488" fill="#F3A2B8"/>
<rect x="1212.34" y="559.281" width="58.6192" height="58.6192" rx="4.58488" fill="#F74364"/>
<rect x="1221.5" y="573.776" width="7.49791" height="49.9861" rx="3.74895" transform="rotate(-45 1221.5 573.776)" fill="#EFF3FF"/>
<rect x="1256.85" y="568.475" width="7.49791" height="49.9861" rx="3.74895" transform="rotate(45 1256.85 568.475)" fill="#EFF3FF"/>
<path d="M1230.67 445L1268.93 616L1270.67 445H1230.67Z" fill="#2F80ED"/>
<path d="M1259.67 445L1268.93 617L1270.67 445H1259.67Z" fill="#216ACD"/>
<path d="M1586.67 445L1549.37 616L1547.67 445H1586.67Z" fill="#2F80ED"/>
<path d="M1558.67 445L1549.41 617L1547.67 445H1558.67Z" fill="#216ACD"/>
<path d="M1268.16 440.67C1268.16 435.605 1272.27 431.5 1277.33 431.5H1542.11C1547.17 431.5 1551.28 435.605 1551.28 440.67V613.923C1551.28 618.987 1547.17 623.093 1542.11 623.093H1277.33C1272.27 623.093 1268.16 618.987 1268.16 613.923L1268.16 440.67Z" fill="white"/>
<path d="M1267.67 599H1550.67V600.83C1550.67 605.894 1546.56 610 1541.5 610H1276.84C1271.78 610 1267.67 605.894 1267.67 600.83L1267.67 599Z" fill="#E8E8E8"/>
<path d="M1267.92 601.957H1551.04V613.688C1551.04 618.752 1546.93 622.858 1541.87 622.858H1277.09C1272.03 622.858 1267.92 618.752 1267.92 613.688L1267.92 601.957Z" fill="#2F80ED"/>
<path d="M1267.67 432.17C1267.67 427.105 1271.78 423 1276.84 423H1541.5C1546.56 423 1550.67 427.105 1550.67 432.17V448H1267.67V432.17Z" fill="#929292" fill-opacity="0.156"/>
<path d="M1267.92 431.934C1267.92 426.87 1272.03 422.765 1277.09 422.765H1541.87C1546.93 422.765 1551.04 426.87 1551.04 431.934V444.543H1267.92V431.934Z" fill="#2F80ED"/>
<circle cx="1537.52" cy="613.438" r="3.43866" fill="#C4C4C4"/>
<path d="M1511.96 612.471L1511.99 612.866C1512.24 612.559 1512.57 612.406 1513 612.406C1513.46 612.406 1513.77 612.585 1513.94 612.944C1514.18 612.585 1514.54 612.406 1515 612.406C1515.38 612.406 1515.66 612.518 1515.85 612.742C1516.04 612.964 1516.13 613.298 1516.13 613.746V616H1515.19V613.75C1515.19 613.55 1515.15 613.404 1515.07 613.313C1514.99 613.219 1514.85 613.172 1514.65 613.172C1514.37 613.172 1514.18 613.307 1514.07 613.577L1514.07 616H1513.13V613.753C1513.13 613.548 1513.09 613.401 1513.01 613.309C1512.93 613.218 1512.79 613.172 1512.6 613.172C1512.33 613.172 1512.14 613.283 1512.02 613.505V616H1511.07V612.471H1511.96ZM1516.71 614.203C1516.71 613.853 1516.78 613.541 1516.91 613.267C1517.05 612.993 1517.24 612.781 1517.49 612.631C1517.75 612.481 1518.04 612.406 1518.38 612.406C1518.85 612.406 1519.24 612.552 1519.54 612.843C1519.84 613.134 1520.01 613.53 1520.05 614.03L1520.05 614.271C1520.05 614.813 1519.9 615.248 1519.6 615.576C1519.3 615.902 1518.89 616.065 1518.39 616.065C1517.88 616.065 1517.47 615.902 1517.17 615.576C1516.86 615.25 1516.71 614.806 1516.71 614.245V614.203ZM1517.65 614.271C1517.65 614.606 1517.72 614.863 1517.84 615.041C1517.97 615.217 1518.15 615.305 1518.39 615.305C1518.61 615.305 1518.79 615.218 1518.92 615.044C1519.05 614.868 1519.11 614.588 1519.11 614.203C1519.11 613.875 1519.05 613.62 1518.92 613.44C1518.79 613.259 1518.61 613.169 1518.38 613.169C1518.15 613.169 1517.97 613.259 1517.84 613.44C1517.72 613.618 1517.65 613.895 1517.65 614.271ZM1521.5 612.471L1521.53 612.879C1521.78 612.564 1522.12 612.406 1522.55 612.406C1522.92 612.406 1523.2 612.516 1523.38 612.735C1523.56 612.955 1523.66 613.283 1523.66 613.72V616H1522.72V613.743C1522.72 613.543 1522.68 613.398 1522.59 613.309C1522.5 613.218 1522.36 613.172 1522.15 613.172C1521.89 613.172 1521.69 613.285 1521.56 613.512V616H1520.62V612.471H1521.5ZM1528.33 613.733C1528.33 614.177 1528.26 614.563 1528.12 614.891C1527.98 615.217 1527.78 615.479 1527.52 615.677L1528.31 616.297L1527.69 616.848L1526.68 616.036C1526.56 616.055 1526.44 616.065 1526.32 616.065C1525.93 616.065 1525.57 615.97 1525.27 615.781C1524.96 615.592 1524.72 615.323 1524.55 614.973C1524.38 614.62 1524.29 614.216 1524.29 613.759V613.525C1524.29 613.057 1524.37 612.646 1524.54 612.292C1524.71 611.935 1524.95 611.662 1525.26 611.473C1525.56 611.282 1525.92 611.186 1526.31 611.186C1526.71 611.186 1527.06 611.282 1527.37 611.473C1527.67 611.662 1527.91 611.935 1528.08 612.292C1528.25 612.646 1528.33 613.056 1528.33 613.521V613.733ZM1527.34 613.518C1527.34 613.02 1527.25 612.642 1527.08 612.383C1526.9 612.124 1526.64 611.995 1526.31 611.995C1525.98 611.995 1525.73 612.123 1525.55 612.38C1525.37 612.634 1525.28 613.008 1525.28 613.502V613.733C1525.28 614.218 1525.37 614.594 1525.55 614.862C1525.73 615.129 1525.98 615.263 1526.32 615.263C1526.65 615.263 1526.9 615.134 1527.08 614.878C1527.25 614.619 1527.34 614.243 1527.34 613.75V613.518Z" fill="#C4C4C4"/>
<path d="M1278.56 614.888L1279.48 612.471H1280.67V616H1279.72V613.834L1278.88 616H1278.25L1277.42 613.87V616H1276.47V612.471H1277.65L1278.56 614.888ZM1285.45 613.733C1285.45 614.201 1285.37 614.611 1285.2 614.963C1285.04 615.315 1284.8 615.587 1284.49 615.778C1284.18 615.969 1283.83 616.065 1283.43 616.065C1283.04 616.065 1282.69 615.97 1282.38 615.781C1282.07 615.592 1281.83 615.323 1281.66 614.973C1281.49 614.62 1281.41 614.216 1281.41 613.759V613.525C1281.41 613.057 1281.49 612.646 1281.66 612.292C1281.83 611.935 1282.06 611.662 1282.37 611.473C1282.68 611.282 1283.03 611.186 1283.43 611.186C1283.82 611.186 1284.17 611.282 1284.48 611.473C1284.79 611.662 1285.03 611.935 1285.19 612.292C1285.36 612.646 1285.45 613.056 1285.45 613.521V613.733ZM1284.46 613.518C1284.46 613.02 1284.37 612.642 1284.19 612.383C1284.01 612.124 1283.76 611.995 1283.43 611.995C1283.1 611.995 1282.85 612.123 1282.67 612.38C1282.49 612.634 1282.4 613.008 1282.4 613.502V613.733C1282.4 614.218 1282.49 614.594 1282.66 614.862C1282.84 615.129 1283.1 615.263 1283.43 615.263C1283.76 615.263 1284.01 615.134 1284.19 614.878C1284.37 614.619 1284.46 614.243 1284.46 613.75V613.518ZM1289.16 616H1288.21V614.643H1287.04V616H1286.1V612.471H1287.04V613.887H1288.21V612.471H1289.16V616ZM1291.27 614.699H1290.89V616H1289.95V612.471H1290.89V613.799H1291.23L1292 612.471H1293.19L1292.03 614.151L1293.3 616H1292.04L1291.27 614.699Z" fill="#C4C4C4"/>
<rect x="1073.87" y="630.544" width="670.539" height="34.3866" rx="16.6202" fill="#F0F0F0" stroke="#2F80ED" stroke-width="3.43866"/>
<path d="M1727.79 632.263H1090.49C1082.27 632.263 1075.59 638.935 1075.59 647.164V648.311C1075.59 656.54 1082.27 663.211 1090.49 663.211C1090.49 663.211 1081.9 638.567 1120.87 638.567C1341.92 634.726 1735.82 634.556 1735.82 634.556C1735.82 634.556 1734.1 633.409 1731.81 632.836C1729.55 632.273 1727.79 632.263 1727.79 632.263Z" fill="#D8E2F4"/>
<rect x="1316.87" y="474.573" width="184.542" height="36.6791" rx="17.7664" fill="#F6F9FF" stroke="#AEAEAE" stroke-width="1.14622"/>
<path d="M1096.23 663.211H1722.06V703.329C1722.06 703.962 1721.55 704.475 1720.92 704.475H1097.37C1096.74 704.475 1096.23 703.962 1096.23 703.329V663.211Z" fill="#2F80ED"/>
<path d="M1096.23 663.211H1722.06C1722.06 663.211 1538.28 670.722 1355.84 680.404C1168.32 690.357 1106.7 697.437 1097.49 698.581C1096.81 698.667 1096.23 698.125 1096.23 697.43V663.211Z" fill="#216ACD"/>
<rect x="1096.23" y="697.598" width="625.837" height="6.87733" rx="1.14622" fill="#C7C7C7"/>
<path d="M1706.02 704.475L1706.02 790.442C1706.02 792.974 1703.96 795.027 1701.43 795.027L1694.55 795.027C1692.02 795.027 1689.97 792.974 1689.97 790.442L1689.97 704.475L1706.02 704.475Z" fill="#2F80ED"/>
<path d="M1680.8 704.475L1680.8 790.442C1680.8 792.974 1678.75 795.027 1676.21 795.027L1669.34 795.027C1666.8 795.027 1664.75 792.974 1664.75 790.442L1664.75 704.475L1680.8 704.475Z" fill="#2F80ED"/>
<path d="M1680.8 704.475C1680.8 704.475 1675.02 707.226 1670.48 714.275C1665.73 721.668 1664.75 728.546 1664.75 728.546L1664.75 704.475L1680.8 704.475Z" fill="#216ACD"/>
<path d="M1706.02 704.475C1706.02 704.475 1700.23 707.226 1695.7 714.276C1690.94 721.669 1689.97 728.546 1689.97 728.546L1689.97 704.475L1706.02 704.475Z" fill="#216ACD"/>
<path d="M1153.54 704.475L1153.54 790.442C1153.54 792.974 1151.48 795.027 1148.95 795.027L1142.07 795.027C1139.54 795.027 1137.49 792.974 1137.49 790.442L1137.49 704.475L1153.54 704.475Z" fill="#2F80ED"/>
<path d="M1128.32 704.475L1128.32 790.442C1128.32 792.974 1126.27 795.027 1123.74 795.027L1116.86 795.027C1114.33 795.027 1112.27 792.974 1112.27 790.442L1112.27 704.475L1128.32 704.475Z" fill="#2F80ED"/>
<path d="M1128.32 704.475C1128.32 704.475 1122.54 707.226 1118 714.275C1113.25 721.668 1112.27 728.546 1112.27 728.546L1112.27 704.475L1128.32 704.475Z" fill="#216ACD"/>
<path d="M1153.54 704.475C1153.54 704.475 1147.76 707.226 1143.22 714.275C1138.47 721.668 1137.49 728.546 1137.49 728.546L1137.49 704.475L1153.54 704.475Z" fill="#216ACD"/>
<path d="M1153.54 782.418L1153.54 790.442C1153.54 792.974 1151.48 795.026 1148.95 795.026L1142.07 795.026C1139.54 795.026 1137.49 792.974 1137.49 790.442L1137.49 782.418L1153.54 782.418Z" fill="#C7C7C7"/>
<path d="M1128.32 782.418L1128.32 790.442C1128.32 792.974 1126.27 795.026 1123.74 795.026L1116.86 795.026C1114.33 795.026 1112.27 792.974 1112.27 790.442L1112.27 782.418L1128.32 782.418Z" fill="#C7C7C7"/>
<path d="M1706.02 782.418L1706.02 790.442C1706.02 792.974 1703.96 795.027 1701.43 795.027L1694.55 795.027C1692.02 795.027 1689.97 792.974 1689.97 790.442L1689.97 782.418L1706.02 782.418Z" fill="#C7C7C7"/>
<path d="M1680.8 782.418L1680.8 790.442C1680.8 792.974 1678.75 795.026 1676.21 795.026L1669.34 795.026C1666.8 795.026 1664.75 792.974 1664.75 790.442L1664.75 782.418L1680.8 782.418Z" fill="#C7C7C7"/>
<circle cx="1091.07" cy="647.737" r="9.74288" stroke="#2F80ED" stroke-opacity="0.25" stroke-width="6.87733"/>
<circle cx="1133.48" cy="647.737" r="9.74288" stroke="#2F80ED" stroke-opacity="0.25" stroke-width="6.87733"/>
<circle cx="1175.89" cy="647.737" r="9.74288" stroke="#2F80ED" stroke-opacity="0.25" stroke-width="6.87733"/>
<circle cx="1218.3" cy="647.737" r="9.74288" stroke="#2F80ED" stroke-opacity="0.25" stroke-width="6.87733"/>
<circle cx="1260.71" cy="647.737" r="9.74288" stroke="#2F80ED" stroke-opacity="0.25" stroke-width="6.87733"/>
<circle cx="1303.12" cy="647.737" r="9.74288" stroke="#2F80ED" stroke-opacity="0.25" stroke-width="6.87733"/>
<circle cx="1345.53" cy="647.737" r="9.74288" stroke="#2F80ED" stroke-opacity="0.25" stroke-width="6.87733"/>
<circle cx="1387.94" cy="647.737" r="9.74288" stroke="#2F80ED" stroke-opacity="0.25" stroke-width="6.87733"/>
<circle cx="1336.36" cy="492.913" r="10.8891" fill="#D1D1D1"/>
<circle cx="1358.14" cy="502.082" r="1.71933" transform="rotate(-180 1358.14 502.082)" fill="#848484"/>
<circle cx="1370.75" cy="502.082" r="1.71933" transform="rotate(-180 1370.75 502.082)" fill="#848484"/>
<circle cx="1383.35" cy="502.082" r="1.71933" transform="rotate(-180 1383.35 502.082)" fill="#848484"/>
<circle cx="1436.08" cy="502.082" r="1.71933" transform="rotate(-180 1436.08 502.082)" fill="#848484"/>
<circle cx="1448.69" cy="502.082" r="1.71933" transform="rotate(-180 1448.69 502.082)" fill="#848484"/>
<circle cx="1461.3" cy="502.082" r="1.71933" transform="rotate(-180 1461.3 502.082)" fill="#848484"/>
<circle cx="1483.08" cy="492.913" r="10.8891" fill="#D1D1D1"/>
<path d="M1348.97 384.188H1367.67C1368.14 384.188 1368.57 383.898 1368.74 383.458L1371.15 377.265C1371.55 376.22 1373.06 376.32 1373.33 377.409L1377.06 392.715C1377.35 393.887 1379.02 393.879 1379.29 392.705L1387.85 356.201C1388.14 354.996 1389.86 355.033 1390.1 356.249L1397.15 393.264C1397.38 394.502 1399.15 394.507 1399.4 393.27L1402.78 375.994C1403.03 374.745 1404.82 374.767 1405.04 376.022L1410.37 407.247C1410.6 408.587 1412.55 408.485 1412.64 407.128L1417.45 333.288C1417.54 331.889 1419.58 331.846 1419.73 333.24L1424.85 381.04C1424.97 382.106 1426.35 382.446 1426.95 381.554L1430.83 375.726C1431.35 374.95 1432.53 375.083 1432.86 375.955L1437.62 388.51C1437.94 389.362 1439.08 389.515 1439.62 388.778L1442.61 384.66C1442.83 384.364 1443.17 384.188 1443.54 384.188H1471.61" stroke="url(#paint0_linear)" stroke-width="2.29244" stroke-linecap="round" stroke-linejoin="round"/>
<circle cx="1430.35" cy="647.737" r="9.74288" stroke="#2F80ED" stroke-opacity="0.25" stroke-width="6.87733"/>
<circle cx="1472.76" cy="647.737" r="9.74288" stroke="#2F80ED" stroke-opacity="0.25" stroke-width="6.87733"/>
<circle cx="1515.17" cy="647.737" r="9.74288" stroke="#2F80ED" stroke-opacity="0.25" stroke-width="6.87733"/>
<circle cx="1557.58" cy="647.737" r="9.74288" stroke="#2F80ED" stroke-opacity="0.25" stroke-width="6.87733"/>
<circle cx="1599.99" cy="647.737" r="9.74288" stroke="#2F80ED" stroke-opacity="0.25" stroke-width="6.87733"/>
<circle cx="1642.4" cy="647.737" r="9.74288" stroke="#2F80ED" stroke-opacity="0.25" stroke-width="6.87733"/>
<circle cx="1684.81" cy="647.737" r="9.74288" stroke="#2F80ED" stroke-opacity="0.25" stroke-width="6.87733"/>
<circle cx="1727.22" cy="647.737" r="9.74288" stroke="#2F80ED" stroke-opacity="0.25" stroke-width="6.87733"/>
<circle cx="1335.79" cy="381.896" r="25.2169" fill="#F74364" fill-opacity="0.096"/>
<rect x="1324.32" y="364.703" width="24.0706" height="35.5329" rx="6.87733" fill="#F74364"/>
<path d="M1331.2 400.235H1341.52C1343.28 400.235 1344.89 399.573 1346.1 398.484C1346.1 398.484 1336.65 398.81 1331.2 393.358C1324.32 386.481 1325.47 367.777 1325.47 367.777C1324.75 368.866 1324.32 370.173 1324.32 371.58V393.358C1324.32 397.156 1327.4 400.235 1331.2 400.235Z" fill="#D12E4C"/>
<rect x="1332.11" y="400" width="8.02355" height="22.9244" fill="#2F80ED"/>
<rect x="1330.96" y="400" width="10.316" height="2.29244" fill="#2F80ED"/>
<rect x="1330.96" y="420.632" width="10.316" height="2.29244" fill="#2F80ED"/>
<g opacity="0.716">
<rect x="1279.67" y="528" width="32" height="51" fill="#E5E5E5" stroke="white" stroke-width="0.27828"/>
<rect x="1312.67" y="547" width="32" height="32" fill="#E5E5E5" stroke="white" stroke-width="0.27828"/>
<rect x="1442.14" y="567.173" width="32.5588" height="11.3351" fill="#E5E5E5" stroke="white" stroke-width="0.27828"/>
<rect x="1474.67" y="547" width="33" height="32" fill="#E5E5E5" stroke="white" stroke-width="0.27828"/>
<rect x="1507.67" y="533" width="32" height="46" fill="#E5E5E5" stroke="white" stroke-width="0.27828"/>
<rect x="1344.74" y="558.317" width="32.5588" height="20.1906" fill="#E5E5E5" stroke="white" stroke-width="0.27828"/>
<rect x="1409.67" y="562" width="32" height="17" fill="#E5E5E5" stroke="white" stroke-width="0.27828"/>
<rect x="1377.67" y="564" width="32" height="15" fill="#E5E5E5" stroke="white" stroke-width="0.27828"/>
</g>
<path d="M1292.76 589.034H1291.82V585.402L1290.69 585.75V584.984L1292.66 584.28H1292.76V589.034ZM1297.56 589.034H1294.31V588.389L1295.84 586.752C1296.05 586.521 1296.21 586.32 1296.31 586.148C1296.41 585.977 1296.46 585.814 1296.46 585.659C1296.46 585.448 1296.41 585.283 1296.3 585.163C1296.2 585.042 1296.04 584.981 1295.85 584.981C1295.63 584.981 1295.46 585.055 1295.34 585.203C1295.22 585.348 1295.16 585.541 1295.16 585.78H1294.21C1294.21 585.491 1294.28 585.227 1294.42 584.987C1294.56 584.748 1294.75 584.561 1295 584.426C1295.26 584.29 1295.54 584.221 1295.86 584.221C1296.35 584.221 1296.73 584.338 1297 584.573C1297.27 584.808 1297.41 585.14 1297.41 585.568C1297.41 585.803 1297.35 586.042 1297.23 586.285C1297.1 586.529 1296.9 586.813 1296.6 587.136L1295.52 588.275H1297.56V589.034ZM1299.1 586.243H1299.6C1299.84 586.243 1300.02 586.183 1300.13 586.064C1300.25 585.944 1300.31 585.785 1300.31 585.587C1300.31 585.396 1300.25 585.247 1300.13 585.141C1300.02 585.034 1299.86 584.981 1299.66 584.981C1299.48 584.981 1299.33 585.031 1299.21 585.131C1299.09 585.229 1299.03 585.357 1299.03 585.516H1298.09C1298.09 585.268 1298.15 585.046 1298.29 584.85C1298.42 584.653 1298.61 584.498 1298.85 584.387C1299.09 584.276 1299.35 584.221 1299.64 584.221C1300.14 584.221 1300.54 584.342 1300.82 584.583C1301.11 584.822 1301.25 585.153 1301.25 585.574C1301.25 585.792 1301.18 585.992 1301.05 586.174C1300.92 586.357 1300.74 586.497 1300.53 586.595C1300.8 586.691 1301 586.834 1301.13 587.026C1301.26 587.217 1301.32 587.443 1301.32 587.704C1301.32 588.126 1301.17 588.464 1300.86 588.718C1300.56 588.972 1300.15 589.1 1299.64 589.1C1299.17 589.1 1298.78 588.975 1298.48 588.725C1298.18 588.475 1298.03 588.144 1298.03 587.733H1298.97C1298.97 587.912 1299.04 588.057 1299.17 588.17C1299.3 588.283 1299.47 588.34 1299.66 588.34C1299.89 588.34 1300.06 588.281 1300.19 588.164C1300.32 588.044 1300.38 587.887 1300.38 587.691C1300.38 587.217 1300.12 586.98 1299.6 586.98H1299.1V586.243Z" fill="#AEAEAE"/>
<path d="M1327.15 587.136C1326.91 587.378 1326.62 587.498 1326.29 587.498C1325.87 587.498 1325.54 587.355 1325.28 587.068C1325.03 586.779 1324.91 586.389 1324.91 585.9C1324.91 585.589 1324.97 585.305 1325.11 585.046C1325.24 584.785 1325.43 584.583 1325.68 584.439C1325.92 584.294 1326.2 584.221 1326.5 584.221C1326.81 584.221 1327.09 584.299 1327.33 584.456C1327.58 584.612 1327.77 584.837 1327.9 585.131C1328.04 585.424 1328.11 585.76 1328.11 586.138V586.487C1328.11 587.279 1327.91 587.9 1327.52 588.353C1327.12 588.805 1326.57 589.046 1325.84 589.077L1325.61 589.08V588.294L1325.82 588.291C1326.64 588.254 1327.08 587.869 1327.15 587.136ZM1326.52 586.777C1326.68 586.777 1326.81 586.738 1326.91 586.66C1327.03 586.582 1327.11 586.487 1327.17 586.376V585.988C1327.17 585.669 1327.1 585.421 1326.98 585.245C1326.86 585.069 1326.7 584.981 1326.49 584.981C1326.3 584.981 1326.15 585.068 1326.03 585.242C1325.91 585.413 1325.84 585.63 1325.84 585.89C1325.84 586.149 1325.9 586.362 1326.02 586.53C1326.14 586.695 1326.31 586.777 1326.52 586.777ZM1331.98 587.071C1331.98 587.728 1331.84 588.23 1331.57 588.578C1331.3 588.925 1330.9 589.099 1330.38 589.099C1329.86 589.099 1329.46 588.929 1329.19 588.587C1328.92 588.246 1328.78 587.757 1328.77 587.12V586.246C1328.77 585.583 1328.91 585.08 1329.18 584.736C1329.46 584.393 1329.85 584.221 1330.37 584.221C1330.89 584.221 1331.28 584.391 1331.56 584.733C1331.83 585.072 1331.97 585.56 1331.98 586.197V587.071ZM1331.04 586.112C1331.04 585.719 1330.98 585.433 1330.87 585.255C1330.77 585.074 1330.6 584.984 1330.37 584.984C1330.15 584.984 1329.99 585.07 1329.88 585.242C1329.77 585.411 1329.72 585.677 1329.71 586.04V587.195C1329.71 587.582 1329.76 587.87 1329.87 588.059C1329.98 588.246 1330.14 588.34 1330.38 588.34C1330.61 588.34 1330.77 588.249 1330.88 588.069C1330.98 587.888 1331.03 587.612 1331.04 587.241V586.112Z" fill="#AEAEAE"/>
<path d="M1455.05 586.699L1455.32 584.286H1457.98V585.072H1456.09L1455.97 586.093C1456.2 585.973 1456.44 585.913 1456.69 585.913C1457.14 585.913 1457.5 586.054 1457.75 586.334C1458.01 586.614 1458.14 587.007 1458.14 587.511C1458.14 587.818 1458.07 588.093 1457.94 588.336C1457.81 588.578 1457.63 588.766 1457.39 588.9C1457.15 589.033 1456.86 589.099 1456.53 589.099C1456.25 589.099 1455.98 589.042 1455.73 588.927C1455.49 588.809 1455.29 588.645 1455.15 588.434C1455.01 588.223 1454.93 587.983 1454.92 587.713H1455.86C1455.88 587.911 1455.95 588.066 1456.06 588.177C1456.18 588.285 1456.34 588.34 1456.53 588.34C1456.74 588.34 1456.91 588.263 1457.02 588.111C1457.14 587.957 1457.19 587.74 1457.19 587.459C1457.19 587.189 1457.13 586.983 1457 586.839C1456.86 586.696 1456.67 586.624 1456.43 586.624C1456.21 586.624 1456.03 586.683 1455.89 586.8L1455.8 586.885L1455.05 586.699ZM1461.94 587.071C1461.94 587.728 1461.8 588.23 1461.53 588.578C1461.26 588.925 1460.86 589.099 1460.33 589.099C1459.82 589.099 1459.42 588.929 1459.15 588.587C1458.87 588.246 1458.73 587.757 1458.73 587.12V586.246C1458.73 585.583 1458.86 585.08 1459.14 584.736C1459.41 584.393 1459.81 584.221 1460.33 584.221C1460.85 584.221 1461.24 584.391 1461.52 584.733C1461.79 585.072 1461.93 585.56 1461.94 586.197V587.071ZM1460.99 586.112C1460.99 585.719 1460.94 585.433 1460.83 585.255C1460.72 585.074 1460.56 584.984 1460.33 584.984C1460.11 584.984 1459.94 585.07 1459.84 585.242C1459.73 585.411 1459.68 585.677 1459.67 586.04V587.195C1459.67 587.582 1459.72 587.87 1459.83 588.059C1459.93 588.246 1460.1 588.34 1460.33 588.34C1460.57 588.34 1460.73 588.249 1460.83 588.069C1460.94 587.888 1460.99 587.612 1460.99 587.241V586.112Z" fill="#AEAEAE"/>
<path d="M1520.39 589.034H1519.45V585.401L1518.33 585.75V584.984L1520.29 584.279H1520.39V589.034ZM1524.23 589.034H1523.29V585.401L1522.16 585.75V584.984L1524.13 584.279H1524.23V589.034ZM1529 584.814L1527.17 589.034H1526.17L1528.01 585.049H1525.65V584.286H1529V584.814Z" fill="#AEAEAE"/>
<path d="M1360.6 585.548C1360.6 585.779 1360.54 585.983 1360.43 586.161C1360.31 586.339 1360.15 586.482 1359.95 586.588C1360.18 586.699 1360.37 586.853 1360.5 587.048C1360.63 587.242 1360.7 587.47 1360.7 587.733C1360.7 588.155 1360.56 588.488 1360.27 588.734C1359.98 588.978 1359.59 589.099 1359.1 589.099C1358.61 589.099 1358.22 588.977 1357.93 588.731C1357.64 588.485 1357.49 588.153 1357.49 587.733C1357.49 587.47 1357.56 587.241 1357.7 587.045C1357.83 586.849 1358.01 586.697 1358.24 586.588C1358.04 586.482 1357.88 586.339 1357.76 586.161C1357.65 585.983 1357.59 585.779 1357.59 585.548C1357.59 585.144 1357.73 584.822 1358 584.583C1358.27 584.341 1358.63 584.221 1359.1 584.221C1359.56 584.221 1359.92 584.34 1360.19 584.58C1360.47 584.816 1360.6 585.139 1360.6 585.548ZM1359.76 587.665C1359.76 587.458 1359.7 587.293 1359.58 587.169C1359.46 587.045 1359.3 586.983 1359.09 586.983C1358.89 586.983 1358.73 587.045 1358.62 587.169C1358.5 587.291 1358.44 587.456 1358.44 587.665C1358.44 587.867 1358.49 588.03 1358.61 588.154C1358.73 588.278 1358.89 588.34 1359.1 588.34C1359.31 588.34 1359.47 588.28 1359.58 588.16C1359.7 588.041 1359.76 587.875 1359.76 587.665ZM1359.66 585.594C1359.66 585.409 1359.61 585.261 1359.51 585.15C1359.41 585.037 1359.28 584.981 1359.1 584.981C1358.92 584.981 1358.78 585.035 1358.69 585.144C1358.59 585.252 1358.54 585.402 1358.54 585.594C1358.54 585.783 1358.59 585.935 1358.69 586.05C1358.78 586.165 1358.92 586.223 1359.1 586.223C1359.28 586.223 1359.42 586.165 1359.51 586.05C1359.61 585.935 1359.66 585.783 1359.66 585.594ZM1364.57 584.814L1362.73 589.034H1361.74L1363.58 585.049H1361.22V584.286H1364.57V584.814Z" fill="#AEAEAE"/>
<path d="M1489.67 587.136C1489.42 587.378 1489.14 587.498 1488.81 587.498C1488.39 587.498 1488.05 587.355 1487.8 587.068C1487.55 586.779 1487.42 586.389 1487.42 585.9C1487.42 585.589 1487.49 585.305 1487.62 585.046C1487.76 584.785 1487.95 584.583 1488.19 584.439C1488.44 584.294 1488.71 584.221 1489.02 584.221C1489.33 584.221 1489.61 584.299 1489.85 584.456C1490.09 584.612 1490.28 584.837 1490.42 585.131C1490.55 585.424 1490.62 585.76 1490.62 586.138V586.487C1490.62 587.279 1490.43 587.9 1490.03 588.353C1489.64 588.805 1489.08 589.046 1488.36 589.077L1488.13 589.08V588.294L1488.34 588.291C1489.16 588.254 1489.6 587.869 1489.67 587.136ZM1489.04 586.777C1489.19 586.777 1489.32 586.738 1489.43 586.66C1489.54 586.582 1489.62 586.487 1489.68 586.376V585.988C1489.68 585.669 1489.62 585.421 1489.5 585.245C1489.38 585.069 1489.21 584.981 1489.01 584.981C1488.82 584.981 1488.66 585.068 1488.54 585.242C1488.42 585.413 1488.36 585.63 1488.36 585.89C1488.36 586.149 1488.42 586.362 1488.54 586.53C1488.66 586.695 1488.82 586.777 1489.04 586.777ZM1494.49 587.071C1494.49 587.728 1494.36 588.23 1494.09 588.578C1493.82 588.925 1493.42 589.099 1492.89 589.099C1492.38 589.099 1491.98 588.929 1491.71 588.587C1491.43 588.246 1491.29 587.757 1491.29 587.12V586.246C1491.29 585.583 1491.42 585.08 1491.7 584.736C1491.97 584.393 1492.37 584.221 1492.89 584.221C1493.4 584.221 1493.8 584.391 1494.07 584.733C1494.35 585.072 1494.49 585.56 1494.49 586.197V587.071ZM1493.55 586.112C1493.55 585.719 1493.5 585.433 1493.39 585.255C1493.28 585.074 1493.11 584.984 1492.89 584.984C1492.66 584.984 1492.5 585.07 1492.39 585.242C1492.29 585.411 1492.23 585.677 1492.23 586.04V587.195C1492.23 587.582 1492.28 587.87 1492.38 588.059C1492.49 588.246 1492.66 588.34 1492.89 588.34C1493.12 588.34 1493.29 588.249 1493.39 588.069C1493.49 587.888 1493.55 587.612 1493.55 587.241V586.112Z" fill="#AEAEAE"/>
<path d="M1425.58 585.548C1425.58 585.779 1425.52 585.983 1425.41 586.161C1425.29 586.339 1425.13 586.482 1424.93 586.588C1425.16 586.699 1425.34 586.853 1425.48 587.048C1425.61 587.242 1425.68 587.47 1425.68 587.733C1425.68 588.155 1425.54 588.488 1425.25 588.734C1424.96 588.978 1424.57 589.099 1424.08 589.099C1423.59 589.099 1423.2 588.977 1422.91 588.731C1422.62 588.485 1422.47 588.153 1422.47 587.733C1422.47 587.47 1422.54 587.241 1422.67 587.045C1422.81 586.849 1422.99 586.697 1423.22 586.588C1423.02 586.482 1422.86 586.339 1422.74 586.161C1422.63 585.983 1422.57 585.779 1422.57 585.548C1422.57 585.144 1422.71 584.822 1422.98 584.583C1423.25 584.341 1423.61 584.221 1424.08 584.221C1424.54 584.221 1424.9 584.34 1425.17 584.58C1425.44 584.816 1425.58 585.139 1425.58 585.548ZM1424.74 587.665C1424.74 587.458 1424.68 587.293 1424.56 587.169C1424.44 587.045 1424.28 586.983 1424.07 586.983C1423.87 586.983 1423.71 587.045 1423.59 587.169C1423.47 587.291 1423.41 587.456 1423.41 587.665C1423.41 587.867 1423.47 588.03 1423.59 588.154C1423.71 588.278 1423.87 588.34 1424.08 588.34C1424.28 588.34 1424.44 588.28 1424.56 588.16C1424.68 588.041 1424.74 587.875 1424.74 587.665ZM1424.64 585.594C1424.64 585.409 1424.59 585.261 1424.49 585.15C1424.39 585.037 1424.26 584.981 1424.08 584.981C1423.9 584.981 1423.76 585.035 1423.67 585.144C1423.57 585.252 1423.52 585.402 1423.52 585.594C1423.52 585.783 1423.57 585.935 1423.67 586.05C1423.76 586.165 1423.9 586.223 1424.08 586.223C1424.26 586.223 1424.4 586.165 1424.49 586.05C1424.59 585.935 1424.64 585.783 1424.64 585.594ZM1429.52 587.071C1429.52 587.728 1429.38 588.23 1429.11 588.578C1428.84 588.925 1428.44 589.099 1427.92 589.099C1427.4 589.099 1427 588.929 1426.73 588.587C1426.45 588.246 1426.31 587.757 1426.31 587.12V586.246C1426.31 585.583 1426.44 585.08 1426.72 584.736C1426.99 584.393 1427.39 584.221 1427.91 584.221C1428.43 584.221 1428.82 584.391 1429.1 584.733C1429.37 585.072 1429.51 585.56 1429.52 586.197V587.071ZM1428.57 586.112C1428.57 585.719 1428.52 585.433 1428.41 585.255C1428.3 585.074 1428.14 584.984 1427.91 584.984C1427.69 584.984 1427.52 585.07 1427.42 585.242C1427.31 585.411 1427.26 585.677 1427.25 586.04V587.195C1427.25 587.582 1427.3 587.87 1427.41 588.059C1427.51 588.246 1427.68 588.34 1427.92 588.34C1428.15 588.34 1428.31 588.249 1428.41 588.069C1428.52 587.888 1428.57 587.612 1428.57 587.241V586.112Z" fill="#AEAEAE"/>
<path d="M1393.29 584.814L1391.46 589.034H1390.46L1392.3 585.049H1389.94V584.286H1393.29V584.814ZM1397.13 584.814L1395.29 589.034H1394.3L1396.14 585.049H1393.78V584.286H1397.13V584.814Z" fill="#AEAEAE"/>
<circle cx="1482.5" cy="381.896" r="25.2169" fill="#87F2C5" fill-opacity="0.232"/>
<rect x="1478.83" y="400" width="8.02355" height="22.9244" fill="#2F80ED"/>
<rect x="1477.68" y="400" width="10.316" height="2.29244" fill="#2F80ED"/>
<rect x="1477.68" y="420.632" width="10.316" height="2.29244" fill="#2F80ED"/>
<rect x="1471.04" y="364.702" width="24.0706" height="35.5329" rx="6.87733" fill="#87F2C5"/>
<path d="M1477.92 400.235H1488.23C1490 400.235 1491.6 399.573 1492.82 398.484C1492.82 398.484 1483.37 398.81 1477.92 393.358C1471.04 386.481 1472.19 367.777 1472.19 367.777C1471.46 368.866 1471.04 370.173 1471.04 371.58V393.358C1471.04 397.156 1474.12 400.235 1477.92 400.235Z" fill="#65D3A5"/>
<rect x="1372.67" y="623" width="67" height="7" rx="1.14622" fill="#216ACD"/>
<circle cx="1746.09" cy="396.581" r="40.0766" fill="#89C599"/>
<circle cx="1748.6" cy="394.077" r="40.0766" fill="#87F2C5"/>
<rect width="9.09788" height="37.4291" rx="4.54894" transform="matrix(0.899592 -0.436732 0.56603 0.824385 1723.06 387.14)" fill="white"/>
<rect width="9.09788" height="49.443" rx="4.54894" transform="matrix(0.899592 0.436732 -0.56603 0.824385 1768.06 374.114)" fill="white"/>
</g>
<defs>
<linearGradient id="paint0_linear" x1="1348.39" y1="385.908" x2="1471.04" y2="385.335" gradientUnits="userSpaceOnUse">
<stop offset="0.292746" stop-color="#F74364"/>
<stop offset="0.626391" stop-color="#87F2C5"/>
</linearGradient>
<clipPath id="clip0">
<rect width="1920" height="1004" fill="white"/>
</clipPath>
</defs>
</svg>
