<svg width="1920" height="1004" viewBox="0 0 1920 1004" fill="none" xmlns="http://www.w3.org/2000/svg">
<g clip-path="url(#clip0)">
<rect x="815" y="181" width="1134" height="526" rx="16" fill="#F6F6F6"/>
<rect x="832" y="197" width="108" height="86" rx="16" fill="#FCFCFC"/>
<rect x="832" y="293" width="108" height="239" rx="16" fill="#FCFCFC"/>
<rect x="832" y="542" width="108" height="150" rx="16" fill="#FCFCFC"/>
<rect x="948" y="197" width="108" height="86" rx="16" fill="#FCFCFC"/>
<rect x="948" y="293" width="108" height="239" rx="16" fill="#FCFCFC"/>
<rect x="948" y="542" width="108" height="150" rx="16" fill="#FCFCFC"/>
<rect x="1064" y="197" width="108" height="86" rx="16" fill="#FCFCFC"/>
<rect x="1064" y="293" width="108" height="239" rx="16" fill="#FCFCFC"/>
<rect x="1064" y="542" width="108" height="150" rx="16" fill="#FCFCFC"/>
<rect x="1212" y="197" width="108" height="86" rx="16" fill="#FCFCFC"/>
<rect x="1212" y="293" width="108" height="239" rx="16" fill="#FCFCFC"/>
<rect x="1212" y="542" width="108" height="150" rx="16" fill="#FCFCFC"/>
<rect x="1328" y="197" width="108" height="86" rx="16" fill="#FCFCFC"/>
<rect x="1328" y="293" width="108" height="239" rx="16" fill="#FCFCFC"/>
<rect x="1328" y="542" width="108" height="150" rx="16" fill="#FCFCFC"/>
<rect x="1444" y="197" width="108" height="86" rx="16" fill="#FCFCFC"/>
<rect x="1444" y="293" width="108" height="239" rx="16" fill="#FCFCFC"/>
<rect x="1444" y="542" width="108" height="150" rx="16" fill="#FCFCFC"/>
<rect x="1592" y="197" width="108" height="86" rx="16" fill="#FCFCFC"/>
<rect x="1592" y="293" width="108" height="239" rx="16" fill="#FCFCFC"/>
<rect x="1592" y="542" width="108" height="150" rx="16" fill="#FCFCFC"/>
<rect x="1708" y="197" width="108" height="86" rx="16" fill="#FCFCFC"/>
<rect x="1708" y="293" width="108" height="239" rx="16" fill="#FCFCFC"/>
<rect x="1708" y="542" width="108" height="150" rx="16" fill="#FCFCFC"/>
<rect x="1824" y="197" width="108" height="86" rx="16" fill="#FCFCFC"/>
<rect x="1824" y="293" width="108" height="239" rx="16" fill="#FCFCFC"/>
<rect x="1824" y="542" width="108" height="150" rx="16" fill="#FCFCFC"/>
<rect width="6.88049" height="21.406" rx="3.058" transform="matrix(-1 0 0 1 1346.71 502)" fill="#E5E5E5"/>
<rect width="6.88049" height="21.406" rx="3.058" transform="matrix(-1 0 0 1 1414.75 502)" fill="#E5E5E5"/>
<rect x="1359.71" y="548.192" width="35.167" height="13.761" rx="3.058" fill="#C7C7C7"/>
<rect x="1345.19" y="646.048" width="64.2179" height="13.761" rx="3.058" fill="#BEBEBE"/>
<path d="M1346.46 501.277C1346.6 499.704 1347.92 498.5 1349.5 498.5H1405.08C1406.67 498.5 1407.98 499.704 1408.13 501.277L1412.57 549.441C1412.73 551.233 1411.32 552.779 1409.52 552.779H1345.07C1343.27 552.779 1341.86 551.233 1342.02 549.441L1346.46 501.277Z" fill="#D0D0D0"/>
<path d="M1346.71 502.5C1346.71 502.5 1341.95 518 1377.29 518C1412.63 518 1407.87 502.5 1407.87 502.5V549.721C1407.87 551.41 1406.5 552.779 1404.82 552.779H1349.77C1348.08 552.779 1346.71 551.41 1346.71 549.721V502.5Z" fill="#E5E5E5"/>
<rect width="18.348" height="21.406" rx="3.058" transform="matrix(-1 0 0 1 1423.93 561.953)" fill="#E6E6E6"/>
<rect width="18.348" height="21.406" rx="3.058" transform="matrix(-1 0 0 1 1348.24 561.953)" fill="#E6E6E6"/>
<path d="M1335.38 562.082C1335.31 560.344 1336.7 558.896 1338.44 558.896H1416.15C1417.89 558.896 1419.28 560.344 1419.21 562.082L1415.64 646.941C1415.57 648.579 1414.23 649.871 1412.59 649.871H1342C1340.36 649.871 1339.01 648.579 1338.95 646.941L1335.38 562.082Z" fill="#E6E6E6"/>
<path d="M1343.51 568.193C1343.4 565.91 1345.22 564 1347.51 564H1409.11C1411.4 564 1413.22 565.91 1413.11 568.193L1410.31 626.193C1410.21 628.324 1408.45 630 1406.31 630H1350.3C1348.17 630 1346.41 628.324 1346.31 626.193L1343.51 568.193Z" fill="#F0F0F0"/>
<path d="M1335.81 565.896C1345.31 603 1323.28 642.608 1377.29 642.608C1431.31 642.608 1409.81 606 1418.81 565.896C1417.94 588.916 1416.11 634.973 1415.64 646.963C1415.57 648.603 1414.22 649.871 1412.58 649.871H1342.03C1340.38 649.871 1339.03 648.573 1338.97 646.923C1338.53 633.392 1336.69 577.396 1335.81 565.896Z" fill="#C7C7C7"/>
<path d="M1422.78 572.274C1428.13 572.274 1434.63 579.684 1434.63 597C1434.63 614.316 1427.5 628 1406.5 631" stroke="#D0D0D0" stroke-width="6.88049" stroke-linecap="round"/>
<path d="M1331.71 572.274C1326.36 572.274 1302.78 581.666 1290 606C1279.5 626 1331.71 593.5 1346.5 606" stroke="#D0D0D0" stroke-width="6.88049" stroke-linecap="round"/>
<circle cx="1401.09" cy="477.783" r="12.7831" fill="#E3FCF2"/>
<rect x="1395.28" y="469.067" width="12.2021" height="18.0126" rx="3.48631" fill="#87F2C5"/>
<path d="M1398.77 487.08H1404C1404.89 487.08 1405.7 486.744 1406.32 486.192C1406.32 486.192 1401.53 486.357 1398.77 483.594C1395.28 480.107 1395.86 470.626 1395.86 470.626C1395.49 471.178 1395.28 471.841 1395.28 472.554V483.594C1395.28 485.519 1396.84 487.08 1398.77 487.08Z" fill="#65D3A5"/>
<rect x="1399.23" y="486.961" width="4.06736" height="11.621" fill="#D0D0D0"/>
<rect x="1398.65" y="486.961" width="5.22946" height="1.1621" fill="#D0D0D0"/>
<rect x="1398.65" y="497.42" width="5.22946" height="1.1621" fill="#D0D0D0"/>
<path d="M1331.16 653.232C1331.8 652.546 1332.72 652.233 1333.65 652.348C1339.43 653.061 1361.09 655.605 1375.77 655.605C1390.44 655.605 1412.1 653.061 1417.88 652.348C1418.81 652.233 1419.73 652.546 1420.37 653.233C1423.3 656.361 1431.62 665.89 1433.87 675.482C1435.59 682.837 1432.91 695.436 1431.24 702.068C1430.57 704.682 1428.22 706.444 1425.52 706.444C1415.99 706.444 1393.29 706.444 1375.77 706.444C1358.24 706.444 1335.54 706.444 1326.01 706.444C1323.32 706.444 1320.96 704.682 1320.29 702.068C1318.62 695.436 1315.94 682.837 1317.66 675.482C1319.91 665.89 1328.23 656.361 1331.16 653.232Z" fill="#F0F0F0"/>
<path d="M1317.66 675.481C1315.94 682.837 1318.62 695.436 1320.29 702.068C1320.96 704.681 1323.32 706.444 1326.01 706.444H1375.77H1425.52C1428.22 706.444 1430.57 704.681 1431.24 702.068C1432.91 695.436 1435.59 682.837 1433.87 675.481C1428.13 675.481 1402.06 683.5 1375.77 683.5C1349.47 683.5 1326.13 679 1317.66 675.481Z" fill="#C7C7C7"/>
<g opacity="0.332">
<circle cx="1377.59" cy="632.066" r="39.5917" fill="#89C599"/>
<circle cx="1380.07" cy="629.592" r="39.5917" fill="#87F2C5"/>
<rect width="8.9878" height="36.9762" rx="4.25207" transform="matrix(0.899592 -0.436732 0.56603 0.824385 1354.84 622.739)" fill="white"/>
<rect width="8.9878" height="48.8448" rx="4.25207" transform="matrix(0.899592 0.436732 -0.56603 0.824385 1399.29 609.87)" fill="white"/>
</g>
<g opacity="0.332">
<circle cx="1371.74" cy="636.49" r="39.5917" transform="rotate(-45 1371.74 636.49)" fill="#89C599"/>
<circle cx="1371.74" cy="632.991" r="39.5917" transform="rotate(-45 1371.74 632.991)" fill="#87F2C5"/>
<rect width="8.9878" height="36.9762" rx="4.25207" transform="matrix(0.327291 -0.944923 0.983172 0.182685 1349.06 645.983)" fill="white"/>
<rect width="8.9878" height="48.8448" rx="4.25207" transform="matrix(0.944923 -0.327291 0.182685 0.983172 1371.39 605.453)" fill="white"/>
</g>
<g opacity="0.332">
<circle cx="1399.74" cy="636.49" r="39.5917" transform="rotate(-45 1399.74 636.49)" fill="#89C599"/>
<circle cx="1399.74" cy="632.991" r="39.5917" transform="rotate(-45 1399.74 632.991)" fill="#87F2C5"/>
<rect width="8.9878" height="36.9762" rx="4.25207" transform="matrix(0.327291 -0.944923 0.983172 0.182685 1377.06 645.983)" fill="white"/>
<rect width="8.9878" height="48.8448" rx="4.25207" transform="matrix(0.944923 -0.327291 0.182685 0.983172 1399.39 605.453)" fill="white"/>
</g>
<g opacity="0.332">
<circle cx="1379.74" cy="613.49" r="39.5917" transform="rotate(-45 1379.74 613.49)" fill="#89C599"/>
<circle cx="1379.74" cy="609.991" r="39.5917" transform="rotate(-45 1379.74 609.991)" fill="#87F2C5"/>
<rect width="8.9878" height="36.9762" rx="4.25207" transform="matrix(0.327291 -0.944923 0.983172 0.182685 1357.06 622.983)" fill="white"/>
<rect width="8.9878" height="48.8448" rx="4.25207" transform="matrix(0.944923 -0.327291 0.182685 0.983172 1379.39 582.453)" fill="white"/>
</g>
<g opacity="0.332">
<circle cx="1354.74" cy="646.49" r="39.5917" transform="rotate(-45 1354.74 646.49)" fill="#89C599"/>
<circle cx="1354.74" cy="642.991" r="39.5917" transform="rotate(-45 1354.74 642.991)" fill="#87F2C5"/>
<rect width="8.9878" height="36.9762" rx="4.25207" transform="matrix(0.327291 -0.944923 0.983172 0.182685 1332.06 655.983)" fill="white"/>
<rect width="8.9878" height="48.8448" rx="4.25207" transform="matrix(0.944923 -0.327291 0.182685 0.983172 1354.39 615.453)" fill="white"/>
</g>
<rect width="6.88049" height="21.406" rx="3.058" transform="matrix(-1 0 0 1 1638.1 502)" fill="#E5E5E5"/>
<rect width="6.88049" height="21.406" rx="3.058" transform="matrix(-1 0 0 1 1706.14 502)" fill="#E5E5E5"/>
<rect x="1651.09" y="548.192" width="35.167" height="13.761" rx="3.058" fill="#C7C7C7"/>
<rect x="1636.57" y="646.048" width="64.2179" height="13.761" rx="3.058" fill="#BEBEBE"/>
<path d="M1637.84 501.277C1637.99 499.704 1639.31 498.5 1640.89 498.5H1696.47C1698.05 498.5 1699.37 499.704 1699.51 501.277L1703.95 549.441C1704.12 551.233 1702.71 552.779 1700.91 552.779H1636.45C1634.65 552.779 1633.24 551.233 1633.41 549.441L1637.84 501.277Z" fill="#D0D0D0"/>
<path d="M1638.1 502.5C1638.1 502.5 1633.34 541.5 1668.68 541.5C1704.02 541.5 1699.26 502.5 1699.26 502.5V549.721C1699.26 551.41 1697.89 552.779 1696.2 552.779H1641.16C1639.47 552.779 1638.1 551.41 1638.1 549.721V502.5Z" fill="#E5E5E5"/>
<rect width="18.348" height="21.406" rx="3.058" transform="matrix(-1 0 0 1 1715.31 561.953)" fill="#E6E6E6"/>
<rect width="18.348" height="21.406" rx="3.058" transform="matrix(-1 0 0 1 1639.63 561.953)" fill="#E6E6E6"/>
<path d="M1626.76 562.082C1626.69 560.344 1628.08 558.896 1629.82 558.896H1707.54C1709.28 558.896 1710.66 560.344 1710.59 562.082L1707.03 646.941C1706.96 648.579 1705.61 649.871 1703.97 649.871H1633.39C1631.75 649.871 1630.4 648.579 1630.33 646.941L1626.76 562.082Z" fill="#E6E6E6"/>
<path d="M1634.89 568.193C1634.78 565.91 1636.61 564 1638.89 564H1700.49C1702.78 564 1704.6 565.91 1704.49 568.193L1701.69 626.193C1701.59 628.324 1699.83 630 1697.7 630H1641.69C1639.55 630 1637.79 628.324 1637.69 626.193L1634.89 568.193Z" fill="#F0F0F0"/>
<path d="M1627.19 565.896C1636.69 603 1614.66 642.608 1668.68 642.608C1722.69 642.608 1701.19 606 1710.19 565.896C1709.33 588.916 1707.5 634.973 1707.02 646.963C1706.95 648.603 1705.61 649.871 1703.96 649.871H1633.42C1631.76 649.871 1630.41 648.573 1630.36 646.923C1629.92 633.392 1628.07 577.396 1627.19 565.896Z" fill="#C7C7C7"/>
<path d="M1714.17 572.274C1719.52 572.274 1739 605.184 1739 622.5C1739 639.816 1725 609.5 1700 618.5" stroke="#D0D0D0" stroke-width="6.88049" stroke-linecap="round"/>
<path d="M1623.1 572.274C1617.75 572.274 1594.16 581.666 1581.38 606C1570.88 626 1617.5 635 1635 616.5" stroke="#D0D0D0" stroke-width="6.88049" stroke-linecap="round"/>
<circle cx="1692.48" cy="477.783" r="12.7831" fill="#E3FCF2"/>
<rect x="1686.67" y="469.067" width="12.2021" height="18.0126" rx="3.48631" fill="#87F2C5"/>
<path d="M1690.15 487.08H1695.38C1696.27 487.08 1697.09 486.744 1697.71 486.192C1697.71 486.192 1692.92 486.357 1690.15 483.594C1686.67 480.107 1687.25 470.626 1687.25 470.626C1686.88 471.178 1686.67 471.841 1686.67 472.554V483.594C1686.67 485.519 1688.23 487.08 1690.15 487.08Z" fill="#65D3A5"/>
<rect x="1690.61" y="486.961" width="4.06736" height="11.621" fill="#D0D0D0"/>
<rect x="1690.03" y="486.961" width="5.22946" height="1.1621" fill="#D0D0D0"/>
<rect x="1690.03" y="497.42" width="5.22946" height="1.1621" fill="#D0D0D0"/>
<path d="M1622.54 653.232C1623.19 652.546 1624.1 652.233 1625.04 652.348C1630.82 653.061 1652.47 655.605 1667.15 655.605C1681.83 655.605 1703.48 653.061 1709.26 652.348C1710.2 652.233 1711.11 652.546 1711.76 653.233C1714.69 656.361 1723.01 665.89 1725.25 675.482C1726.97 682.837 1724.3 695.436 1722.62 702.068C1721.96 704.682 1719.6 706.444 1716.9 706.444C1707.37 706.444 1684.68 706.444 1667.15 706.444C1649.62 706.444 1626.93 706.444 1617.4 706.444C1614.7 706.444 1612.34 704.682 1611.68 702.068C1610 695.436 1607.33 682.837 1609.05 675.482C1611.29 665.89 1619.61 656.361 1622.54 653.232Z" fill="#F0F0F0"/>
<path d="M1609.05 675.481C1607.33 682.837 1610 695.436 1611.68 702.068C1612.34 704.681 1614.7 706.444 1617.4 706.444H1667.15H1716.9C1719.6 706.444 1721.96 704.681 1722.62 702.068C1724.3 695.436 1726.97 682.837 1725.25 675.481C1719.52 675.481 1693.45 683.5 1667.15 683.5C1640.85 683.5 1617.52 679 1609.05 675.481Z" fill="#C7C7C7"/>
<path d="M1379.5 297.5C1385.09 304.458 1376.56 324.603 1363.74 367.79C1351.85 407.852 1355.91 447.783 1363.74 465.362" stroke="#89C599" stroke-opacity="0.352" stroke-width="2.05414" stroke-linecap="round" stroke-linejoin="round"/>
<path d="M1363.74 367.79C1351.85 407.852 1355.91 447.783 1363.74 465.362" stroke="#89C599" stroke-width="2.05414" stroke-linecap="round" stroke-linejoin="round"/>
<g opacity="0.392">
<circle cx="1381.91" cy="262.155" r="35.9107" fill="#89C599"/>
<circle cx="1384.15" cy="259.911" r="35.9107" fill="#87F2C5"/>
<rect width="8.15216" height="33.5384" rx="4.07608" transform="matrix(0.899592 -0.436732 0.56603 0.824385 1361.27 253.695)" fill="white"/>
<rect width="8.15216" height="44.3035" rx="4.07608" transform="matrix(0.899592 0.436732 -0.56603 0.824385 1401.59 242.023)" fill="white"/>
</g>
<path d="M1666 204C1671.59 210.958 1663.56 231.603 1650.74 274.79C1638.85 314.852 1642.91 354.783 1650.74 372.362" stroke="#89C599" stroke-opacity="0.35" stroke-width="2.05414" stroke-linecap="round" stroke-linejoin="round"/>
<path d="M1650.74 372.362C1649.56 369.713 1648.47 366.556 1647.5 362.967" stroke="#89C599" stroke-width="2.05414" stroke-linecap="round" stroke-linejoin="round"/>
<g opacity="0.392">
<circle cx="1668.91" cy="169.155" r="35.9107" fill="#89C599"/>
<circle cx="1671.15" cy="166.911" r="35.9107" fill="#87F2C5"/>
<rect width="8.15216" height="33.5384" rx="4.07608" transform="matrix(0.899592 -0.436732 0.56603 0.824385 1648.27 160.695)" fill="white"/>
<rect width="8.15216" height="44.3035" rx="4.07608" transform="matrix(0.899592 0.436732 -0.56603 0.824385 1688.59 149.023)" fill="white"/>
</g>
<rect x="1492.86" y="603.588" width="58.6192" height="58.6192" rx="4.58488" fill="#F3A2B8"/>
<rect x="1495.67" y="605.281" width="58.6192" height="58.6192" rx="4.58488" fill="#F74364"/>
<rect x="1504.83" y="619.776" width="7.49791" height="49.9861" rx="3.74895" transform="rotate(-45 1504.83 619.776)" fill="#EFF3FF"/>
<rect x="1540.18" y="614.475" width="7.49791" height="49.9861" rx="3.74895" transform="rotate(45 1540.18 614.475)" fill="#EFF3FF"/>
<rect x="1200.86" y="603.588" width="58.6192" height="58.6192" rx="4.58488" fill="#F3A2B8"/>
<rect x="1203.67" y="605.281" width="58.6192" height="58.6192" rx="4.58488" fill="#F74364"/>
<rect x="1212.83" y="619.776" width="7.49791" height="49.9861" rx="3.74895" transform="rotate(-45 1212.83 619.776)" fill="#EFF3FF"/>
<rect x="1248.18" y="614.475" width="7.49791" height="49.9861" rx="3.74895" transform="rotate(45 1248.18 614.475)" fill="#EFF3FF"/>
<rect x="1086.86" y="603.588" width="58.6192" height="58.6192" rx="4.58488" fill="#F3A2B8"/>
<rect x="1089.67" y="605.281" width="58.6192" height="58.6192" rx="4.58488" fill="#F74364"/>
<rect x="1098.83" y="619.776" width="7.49791" height="49.9861" rx="3.74895" transform="rotate(-45 1098.83 619.776)" fill="#EFF3FF"/>
<rect x="1134.18" y="614.475" width="7.49791" height="49.9861" rx="3.74895" transform="rotate(45 1134.18 614.475)" fill="#EFF3FF"/>
<g opacity="0.088">
<rect x="1086.86" y="450.707" width="58.6192" height="58.6192" rx="4.58488" fill="#F3A2B8"/>
<rect x="1089.67" y="452.4" width="58.6192" height="58.6192" rx="4.58488" fill="#F74364"/>
<rect x="1098.83" y="466.895" width="7.49791" height="49.9861" rx="3.74895" transform="rotate(-45 1098.83 466.895)" fill="#EFF3FF"/>
<rect x="1134.18" y="461.594" width="7.49791" height="49.9861" rx="3.74895" transform="rotate(45 1134.18 461.594)" fill="#EFF3FF"/>
</g>
<g opacity="0.088">
<rect x="1086.86" y="289.707" width="58.6192" height="58.6192" rx="4.58488" fill="#F3A2B8"/>
<rect x="1089.67" y="291.4" width="58.6192" height="58.6192" rx="4.58488" fill="#F74364"/>
<rect x="1098.83" y="305.895" width="7.49791" height="49.9861" rx="3.74895" transform="rotate(-45 1098.83 305.895)" fill="#EFF3FF"/>
<rect x="1134.18" y="300.594" width="7.49791" height="49.9861" rx="3.74895" transform="rotate(45 1134.18 300.594)" fill="#EFF3FF"/>
</g>
<g opacity="0.088">
<rect x="1086.86" y="134.707" width="58.6192" height="58.6192" rx="4.58488" fill="#F3A2B8"/>
<rect x="1089.67" y="136.4" width="58.6192" height="58.6192" rx="4.58488" fill="#F74364"/>
<rect x="1098.83" y="150.895" width="7.49791" height="49.9861" rx="3.74895" transform="rotate(-45 1098.83 150.895)" fill="#EFF3FF"/>
<rect x="1134.18" y="145.594" width="7.49791" height="49.9861" rx="3.74895" transform="rotate(45 1134.18 145.594)" fill="#EFF3FF"/>
</g>
<rect x="1337.61" y="617.021" width="58.6192" height="58.6192" rx="4.58488" transform="rotate(-21.6138 1337.61 617.021)" fill="#F3A2B8"/>
<rect x="1340.84" y="617.562" width="58.6192" height="58.6192" rx="4.58488" transform="rotate(-21.6138 1340.84 617.562)" fill="#F74364"/>
<rect x="1354.7" y="627.662" width="7.49791" height="49.9861" rx="3.74895" transform="rotate(-66.6138 1354.7 627.662)" fill="#EFF3FF"/>
<rect x="1385.61" y="609.714" width="7.49791" height="49.9861" rx="3.74895" transform="rotate(23.3862 1385.61 609.714)" fill="#EFF3FF"/>
<rect x="1353.86" y="634.206" width="7.49791" height="49.9861" rx="3.74895" transform="rotate(-81.6138 1353.86 634.206)" fill="#EFF3FF" fill-opacity="0.344"/>
<rect x="1379.07" y="608.87" width="7.49791" height="49.9861" rx="3.74895" transform="rotate(8.38616 1379.07 608.87)" fill="#EFF3FF" fill-opacity="0.344"/>
<rect x="1357.28" y="646.833" width="7.49791" height="49.9861" rx="3.74895" transform="rotate(-111.614 1357.28 646.833)" fill="#EFF3FF" fill-opacity="0.344"/>
<rect x="1366.44" y="612.287" width="7.49791" height="49.9861" rx="3.74895" transform="rotate(-21.6138 1366.44 612.287)" fill="#EFF3FF" fill-opacity="0.344"/>
<rect x="1357.21" y="621.561" width="7.49791" height="49.9861" rx="3.74895" transform="rotate(-51.6138 1357.21 621.561)" fill="#EFF3FF" fill-opacity="0.344"/>
<rect x="1391.71" y="612.224" width="7.49791" height="49.9861" rx="3.74895" transform="rotate(38.3862 1391.71 612.224)" fill="#EFF3FF" fill-opacity="0.344"/>
<rect x="1052.72" y="676.544" width="670.539" height="34.3866" rx="16.6202" fill="#F6F9FF" stroke="#2F80ED" stroke-width="3.43866"/>
<path d="M1706.64 678.263H1069.34C1061.11 678.263 1054.44 684.935 1054.44 693.164V694.31C1054.44 702.54 1061.11 709.211 1069.34 709.211C1069.34 709.211 1060.74 684.567 1099.71 684.567C1320.76 680.726 1714.66 680.555 1714.66 680.555C1714.66 680.555 1712.94 679.409 1710.65 678.836C1708.4 678.273 1706.64 678.263 1706.64 678.263Z" fill="#D8E2F4"/>
<path d="M1018 709H1758V748.854C1758 749.487 1757.49 750 1756.85 750H1019.15C1018.51 750 1018 749.487 1018 748.854V709Z" fill="#2F80ED"/>
<path d="M1018 709H1758C1758 709 1540.69 716.61 1324.98 726.419C1101.29 736.592 1029.12 743.802 1019.23 744.864C1018.55 744.938 1018 744.397 1018 743.712V709Z" fill="#216ACD"/>
<rect x="1018" y="744" width="740" height="6" rx="1.14622" fill="#E5E5E5"/>
<circle cx="1069.91" cy="693.737" r="9.74288" stroke="#2F80ED" stroke-opacity="0.25" stroke-width="6.87733"/>
<circle cx="1112.32" cy="693.737" r="9.74288" stroke="#2F80ED" stroke-opacity="0.25" stroke-width="6.87733"/>
<circle cx="1154.73" cy="693.737" r="9.74288" stroke="#2F80ED" stroke-opacity="0.25" stroke-width="6.87733"/>
<circle cx="1197.14" cy="693.737" r="9.74288" stroke="#2F80ED" stroke-opacity="0.25" stroke-width="6.87733"/>
<circle cx="1239.55" cy="693.737" r="9.74288" stroke="#2F80ED" stroke-opacity="0.25" stroke-width="6.87733"/>
<circle cx="1281.96" cy="693.737" r="9.74288" stroke="#2F80ED" stroke-opacity="0.25" stroke-width="6.87733"/>
<circle cx="1324.37" cy="693.737" r="9.74288" stroke="#2F80ED" stroke-opacity="0.25" stroke-width="6.87733"/>
<circle cx="1366.78" cy="693.737" r="9.74288" stroke="#2F80ED" stroke-opacity="0.25" stroke-width="6.87733"/>
<circle cx="1409.19" cy="693.737" r="9.74288" stroke="#2F80ED" stroke-opacity="0.25" stroke-width="6.87733"/>
<circle cx="1451.6" cy="693.737" r="9.74288" stroke="#2F80ED" stroke-opacity="0.25" stroke-width="6.87733"/>
<circle cx="1494.02" cy="693.737" r="9.74288" stroke="#2F80ED" stroke-opacity="0.25" stroke-width="6.87733"/>
<circle cx="1536.42" cy="693.737" r="9.74288" stroke="#2F80ED" stroke-opacity="0.25" stroke-width="6.87733"/>
<circle cx="1578.84" cy="693.737" r="9.74288" stroke="#2F80ED" stroke-opacity="0.25" stroke-width="6.87733"/>
<circle cx="1621.25" cy="693.737" r="9.74288" stroke="#2F80ED" stroke-opacity="0.25" stroke-width="6.87733"/>
<circle cx="1663.66" cy="693.737" r="9.74288" stroke="#2F80ED" stroke-opacity="0.25" stroke-width="6.87733"/>
<circle cx="1706.07" cy="693.737" r="9.74288" stroke="#2F80ED" stroke-opacity="0.25" stroke-width="6.87733"/>
<circle cx="1367.5" cy="539.5" r="3.5" fill="#919191"/>
<circle cx="1386.5" cy="539.5" r="3.5" fill="#919191"/>
<circle cx="1659.5" cy="516.5" r="3.5" fill="#919191"/>
<circle cx="1678.5" cy="516.5" r="3.5" fill="#919191"/>
<rect opacity="0.548" x="1061" width="115" height="562" fill="#2F80ED" fill-opacity="0.074"/>
<rect x="1056" y="555" width="125" height="7" fill="#2F80ED"/>
<rect opacity="0.644" x="1078" width="81" height="562" fill="#2F80ED" fill-opacity="0.066"/>
<rect x="1323" width="115" height="366" fill="#87F2C5" fill-opacity="0.068"/>
<rect x="1318" y="359" width="125" height="7" fill="#87F2C5"/>
<rect x="1612" width="115" height="366" fill="#87F2C5" fill-opacity="0.068"/>
<rect x="1607" y="359" width="125" height="7" fill="#87F2C5"/>
<rect x="1629" width="81" height="366" fill="#CEFFDB" fill-opacity="0.29"/>
<rect x="1340" width="81" height="366" fill="#CEFFDB" fill-opacity="0.29"/>
<line x1="1.03187" y1="-1.03187" x2="21.1233" y2="-1.03187" transform="matrix(-0.465746 0.884918 0.884918 0.465746 1792.56 518.831)" stroke="#8A8A8A" stroke-width="2.06374" stroke-linecap="round"/>
<path d="M1813.66 482.177C1812.91 481.257 1811.75 480.776 1810.57 480.9L1785.16 483.576C1782.57 483.848 1781.18 486.745 1782.58 488.935L1810.58 532.804C1811.62 534.432 1813.78 534.91 1815.41 533.87L1838.56 519.093C1840.32 517.97 1840.71 515.566 1839.39 513.944L1813.66 482.177Z" fill="#DADADA"/>
<path d="M1813.3 486.171C1812.56 485.251 1811.4 484.771 1810.22 484.895L1791.42 486.874C1788.83 487.146 1787.44 490.042 1788.84 492.233L1810.22 525.736C1811.26 527.364 1813.43 527.841 1815.05 526.802L1832.29 515.796C1834.05 514.673 1834.44 512.269 1833.13 510.647L1813.3 486.171Z" fill="#F5F5F5"/>
<path d="M1807.78 482.509C1807.24 481.474 1806.19 480.804 1805.02 480.75L1796.26 480.343C1794.14 480.245 1792.43 482.04 1792.62 484.152L1792.69 484.904C1792.86 486.827 1794.56 488.246 1796.48 488.072L1805.17 487.286C1807.49 487.076 1808.86 484.576 1807.78 482.509Z" fill="#E4E4E4"/>
<line x1="0.437133" y1="-0.437133" x2="13.66" y2="-0.437133" transform="matrix(-0.992278 0.124035 0.124035 0.992278 1820.88 504.745)" stroke="#AEAEAE" stroke-width="0.874266" stroke-linecap="round"/>
<path d="M1854.67 545.173C1865.66 544.588 1915.85 494.776 1898.64 484.089C1887.82 477.372 1863.13 513.388 1852.64 529.628C1841.3 529.229 1835.65 520.556 1825.27 527.559C1822.33 529.54 1838.41 546.039 1854.67 545.173Z" fill="#FFDED2"/>
<path d="M1854.67 545.173C1865.66 544.588 1915.85 494.776 1898.64 484.089C1836.17 514.919 1904.88 503.166 1854.45 543.492C1843.11 543.093 1828.7 532.07 1825.27 527.559C1822.33 529.54 1838.41 546.039 1854.67 545.173Z" fill="#F5D1C4"/>
<path d="M1850.78 548.688C1897.92 533.59 1912.18 477.425 1906.46 471.892C1897.02 463.411 1855.8 520.294 1852 526.375C1848.2 532.455 1845.75 550.3 1850.78 548.688Z" fill="white"/>
<path d="M1819.56 515.203C1816.3 516.47 1818.47 525.47 1825.37 527.788L1834.05 526.57C1833.46 524.208 1831.83 519.093 1830 517.531C1827.7 515.577 1823.63 513.62 1819.56 515.203Z" fill="#FDA98B"/>
<path d="M1883.86 449.567C1882.58 446.149 1883.33 440.665 1883.86 438.351L1872.65 441.021L1861.43 457.579H1894.55C1891.52 456.333 1885.15 452.986 1883.86 449.567Z" fill="#FFDED2"/>
<path d="M1859.66 452.797L1868.07 450.207L1887.05 433.991C1883.63 429.289 1874.61 420.322 1866.39 418.824C1855.97 416.926 1854.65 424.793 1851.6 428.744L1849.72 440.984L1855.84 440.397L1859.66 452.797Z" fill="#FFDED2"/>
<path d="M1858.93 467.107L1870.1 451.725L1885.22 429.043C1874.22 436.898 1869.84 452.079 1857.16 443.109L1855.77 465.974C1855.67 467.719 1857.9 468.522 1858.93 467.107Z" fill="#DCC5BF"/>
<path d="M1869.24 410.551C1857.45 410.421 1852.34 419.95 1852.34 419.95C1852.34 419.95 1851.52 420.817 1851.89 421.821C1852.25 422.825 1851.02 422.636 1856.13 422.551C1856.13 422.551 1862.48 417.969 1867.07 420.733C1871.12 423.173 1870.76 428.694 1870.76 428.694C1872.87 429.178 1873 430.538 1874.91 428.982C1879.82 424.981 1879.09 436.813 1873.85 439.375L1876.19 451.837C1882.39 450.978 1878.19 443.489 1885.9 439.374C1897.19 433.355 1890.41 418.605 1885.9 414.892C1883.67 413.049 1882.76 413.692 1882.14 414.437C1881.13 413.391 1881.02 410.681 1869.24 410.551Z" fill="#DCC5BF"/>
<path d="M1860.13 734.943L1859.51 724.537L1850.19 714.475L1849.68 737.933L1855.57 741.496L1860.13 734.943Z" fill="#FFDED2"/>
<path d="M1910.74 738.933L1908.93 727.882L1897.26 719.294L1899.91 733.12L1900.98 738.345L1910.74 738.933Z" fill="#FFDED2"/>
<path d="M1905.54 576.52C1903.73 547.643 1897.84 525.408 1890.05 512.961L1876.52 539.748C1865.97 566.633 1871.25 613.909 1878.14 640.638C1882.27 656.702 1888.85 695.611 1897.05 721.717L1909.82 725.538C1909.41 708.009 1911 692.474 1908.96 673.553C1907.61 661.049 1906.22 656.969 1903.16 650.158C1909.27 632.514 1906.71 595.13 1905.54 576.52Z" fill="#A9DDCE"/>
<path d="M1850.29 536.047C1854.16 528.827 1886.22 526.92 1897 524.177C1898.95 534.01 1901.57 539.382 1894.86 559.963C1888.15 580.543 1861.15 614.474 1856.08 620.539C1857.63 623.436 1861.3 632.484 1863.61 645.505C1865.92 658.526 1863.32 711.489 1860.98 725.475L1850.15 719.662C1844.7 697.098 1832.41 657.431 1830.55 616.132C1829.78 599.077 1846.41 543.267 1850.29 536.047Z" fill="#A9DDCE"/>
<ellipse rx="22.9668" ry="18.6655" transform="matrix(-0.964456 -0.264242 -0.264242 0.964456 1869.7 573.61)" fill="#4D68C9"/>
<path d="M1849.97 537.282C1852.23 533.074 1869.81 530.245 1884.08 528.616C1886.61 528.328 1888.25 534.072 1886.16 535.534C1881.47 538.829 1876.38 543.222 1871.74 548.966C1856.46 567.89 1841.84 601.529 1840.75 617.996C1839.66 634.462 1844.58 683.042 1846.89 696.063C1849.2 709.085 1856.91 719.268 1861.4 722.454L1849.84 720.896C1844.38 698.333 1832.09 658.666 1830.23 617.367C1829.47 600.312 1846.1 544.502 1849.97 537.282Z" fill="#95C8B9"/>
<path d="M1847.97 719.89L1861.23 727.009C1861.85 727.344 1862.62 726.988 1862.78 726.295L1863.35 723.673C1863.45 723.177 1863.2 722.674 1862.73 722.469L1848.82 716.325C1848.1 716.004 1847.29 716.56 1847.33 717.353L1847.4 719C1847.42 719.375 1847.64 719.713 1847.97 719.89Z" fill="#B5FFEA"/>
<path d="M1896.59 726.995L1911.05 729.37C1911.88 729.506 1912.53 728.683 1912.22 727.909L1911.38 725.882C1911.25 725.56 1910.96 725.322 1910.62 725.247L1895.57 721.905C1894.71 721.712 1894 722.602 1894.38 723.406L1895.8 726.399C1895.95 726.715 1896.25 726.938 1896.59 726.995Z" fill="#B5FFEA"/>
<path d="M1847.54 457.045C1869.98 451.17 1892.94 459.716 1892.94 451.704C1897.75 451.704 1905.36 458.411 1905.76 461.318C1907.32 472.432 1904.56 482.931 1902.56 496.035C1902.11 498.989 1898.16 491.71 1897.75 494.433C1896.21 504.762 1901.53 541.24 1902.02 544.639C1913.77 624.756 1915.91 653.598 1913.77 658.939C1912.97 660.958 1901.56 668.25 1896.97 671.12C1896.05 671.695 1894.86 671.166 1894.64 670.103C1894.3 668.4 1891.85 668.447 1891.58 670.163L1891.1 673.151C1890.93 674.189 1890.05 674.945 1889 674.92C1880.13 674.701 1841.61 673.676 1839.53 672.292C1834.73 669.088 1828.32 608.733 1829.38 592.709C1830.24 579.891 1834.83 554.253 1839.53 543.037C1844.24 531.821 1842.91 512.515 1839.53 498.172C1835.26 480.012 1839.53 463.988 1839.53 463.988C1839.53 463.988 1841.29 458.683 1847.54 457.045Z" fill="white"/>
<path d="M1897.75 494.433C1858.03 494.433 1885.13 509.99 1902.02 544.639C1901.53 541.24 1896.21 504.762 1897.75 494.433Z" fill="#FAFAFA"/>
<path d="M1821.57 541.475C1831.33 537.608 1861.57 477.315 1842.77 472.88C1830.95 470.093 1819.56 510.164 1815.01 528.036C1804.63 531.123 1796.89 524.998 1789.63 534.485C1787.58 537.168 1807.13 547.2 1821.57 541.475Z" fill="#FFDED2"/>
<path d="M1821.57 541.475C1831.33 537.608 1861.57 477.314 1842.77 472.88C1795.65 519.743 1854.2 488.235 1820.87 540.022C1810.48 543.109 1794.11 537.519 1789.63 534.484C1787.58 537.167 1807.13 547.2 1821.57 541.475Z" fill="#F5D1C4"/>
<path d="M1839.53 463.988C1839.53 463.988 1841.29 458.683 1847.54 457.045C1847.54 469.33 1848.4 595.06 1862.5 623.688C1876.6 652.316 1906.3 659.117 1913.77 658.939C1912.97 660.958 1901.56 668.25 1896.97 671.12C1896.05 671.695 1894.86 671.166 1894.64 670.103C1894.3 668.4 1891.85 668.447 1891.58 670.163L1891.1 673.151C1890.93 674.189 1890.05 674.945 1889 674.919C1880.13 674.701 1841.61 673.676 1839.53 672.292C1834.73 669.087 1828.32 608.733 1829.38 592.709C1830.24 579.891 1834.83 554.253 1839.53 543.037C1844.24 531.821 1842.91 512.515 1839.53 498.172C1835.26 480.012 1839.53 463.988 1839.53 463.988Z" fill="#FAFAFA"/>
<path d="M1819.13 545.835C1857.16 517.859 1852.99 462.738 1846.14 459.472C1835.02 454.674 1815.03 518.637 1813.44 525.29C1811.86 531.943 1815.07 548.821 1819.13 545.835Z" fill="white"/>
<path d="M1780.71 525.047C1778.15 527.184 1782.85 534.661 1789.79 534.661L1797.27 530.922C1796.02 528.964 1793 524.834 1790.86 523.979C1788.19 522.911 1783.92 522.377 1780.71 525.047Z" fill="#FFDED2"/>
<circle r="5.24559" transform="matrix(-0.939781 0.341777 0.341777 0.939781 1860.35 428.757)" fill="#D1D1D1" stroke="#323232" stroke-width="0.874266"/>
<path d="M1855.72 426.255L1853.22 425.77" stroke="#323232" stroke-width="0.874266" stroke-linecap="round"/>
<path d="M1914.23 734.803C1914.84 736.117 1914.44 738.095 1913.84 739.902C1913.08 742.188 1910.7 743.565 1908.3 743.368L1884.15 741.382C1881.89 741.196 1880.13 739.259 1880.62 737.044C1880.74 736.467 1880.9 735.899 1881.09 735.381C1881.96 732.964 1884.1 735.626 1889.02 734.13C1892.47 733.082 1894.88 730.289 1896.72 728.917C1897.14 728.608 1897.71 728.729 1898.09 729.073C1899.74 730.532 1902.88 731.932 1904.58 731.977C1905.97 732.015 1908.27 732.002 1909.78 731.502C1910.5 731.263 1911.59 731.306 1912.09 731.875L1912.12 731.899C1912.87 732.752 1913.72 733.724 1914.23 734.803Z" fill="#A9DDCE"/>
<path d="M1864.84 735.152C1865.67 736.815 1865.71 739.969 1865.47 742.58C1865.27 744.87 1863.29 746.369 1860.99 746.369L1830.17 746.369C1827.81 746.369 1825.87 744.442 1826.29 742.119C1826.42 741.398 1826.59 740.679 1826.8 740.03C1827.71 737.313 1833.14 738.219 1838.58 736.408C1842.43 735.122 1845.05 731.872 1847.07 730.313C1847.48 729.997 1848.04 730.115 1848.44 730.447C1849.78 731.568 1851.28 731.413 1853.15 731.413C1854.78 731.413 1857.36 730.761 1858.93 729.799C1859.58 729.403 1860.61 729.397 1861.08 729.987C1862.33 731.535 1864.16 733.79 1864.84 735.152Z" fill="#A9DDCE"/>
<line x1="0.437133" y1="-0.437133" x2="13.66" y2="-0.437133" transform="matrix(-0.992278 0.124035 0.124035 0.992278 1811.26 490.756)" stroke="#AEAEAE" stroke-width="0.874266" stroke-linecap="round"/>
<line x1="0.437133" y1="-0.437133" x2="13.66" y2="-0.437133" transform="matrix(-0.992278 0.124035 0.124035 0.992278 1816.5 496.876)" stroke="#AEAEAE" stroke-width="0.874266" stroke-linecap="round"/>
<path d="M149.5 479L152 477.5" stroke="#323232" stroke-linecap="round"/>
<path d="M1667.44 627C1695 652 1667.44 654.5 1646.5 645C1614.79 630.61 1620.5 673.5 1657.02 669" stroke="#89C599" stroke-width="2.29244" stroke-linecap="round" stroke-linejoin="round"/>
<circle cx="1668.31" cy="600.691" r="32.6509" fill="#89C599"/>
<circle cx="1670.35" cy="598.651" r="32.6509" fill="#87F2C5"/>
<rect width="7.41215" height="30.4939" rx="3.70607" transform="matrix(0.899592 -0.436732 0.56603 0.824385 1649.55 592.999)" fill="white"/>
<rect width="7.41215" height="40.2818" rx="3.70607" transform="matrix(0.899592 0.436732 -0.56603 0.824385 1686.2 582.387)" fill="white"/>
</g>
<defs>
<clipPath id="clip0">
<rect width="1920" height="1004" fill="white"/>
</clipPath>
</defs>
</svg>
