<svg width="1920" height="1004" viewBox="0 0 1920 1004" fill="none" xmlns="http://www.w3.org/2000/svg">
<g clip-path="url(#clip0)">
<path d="M1809.5 528C1817.9 528 1825 518.667 1827.5 514L1813.5 501L1785.5 510C1790 516 1801.1 528 1809.5 528Z" fill="#FDA98B"/>
<path d="M1694 528C1702.4 528 1709.5 518.667 1712 514L1698 501L1670 510C1674.5 516 1685.6 528 1694 528Z" fill="#FDA98B"/>
<path d="M934 644.863V590.647L1344 554V679L934 644.863Z" fill="url(#paint0_linear)"/>
<path d="M856 601L864.5 601.406L936 587V649L864.5 634.594L856 635V601Z" fill="#F74364"/>
<path d="M856 604L864.5 604.406L936 590V592L864.5 606.594L856 607V604Z" fill="#FB899E"/>
<path d="M856 622.094L864.5 622.5L936 627V649L864.5 634.594L856 635V622.094Z" fill="#D63754"/>
<g style="mix-blend-mode:luminosity" opacity="0.156">
<path d="M1842 112V83H1909V134C1909 157.748 1889.75 177 1866 177H1348V127H1498C1504.63 127 1510 121.627 1510 115V83H1577V115C1577 121.627 1582.37 127 1589 127H1827C1835.28 127 1842 120.284 1842 112Z" fill="#FFE7ED" fill-opacity="0.744"/>
<g opacity="0.24">
<path fill-rule="evenodd" clip-rule="evenodd" d="M1449.41 133C1450.52 133 1451.41 133.895 1451.41 135V162.207C1451.41 163.312 1450.52 164.207 1449.41 164.207H1415.58L1407.53 170.697C1406.87 171.224 1405.9 170.759 1405.9 169.918V164.207H1405.73C1404.63 164.207 1403.73 163.312 1403.73 162.207V135C1403.73 133.895 1404.63 133 1405.73 133H1449.41Z" fill="#F3A2B8"/>
<path fill-rule="evenodd" clip-rule="evenodd" d="M1447.68 134.734C1448.78 134.734 1449.68 135.629 1449.68 136.734V163.941C1449.68 165.046 1448.78 165.941 1447.68 165.941H1413.84L1405.79 172.43C1405.14 172.958 1404.17 172.492 1404.17 171.652V165.941H1404C1402.9 165.941 1402 165.046 1402 163.941V136.734C1402 135.629 1402.9 134.734 1404 134.734H1447.68Z" fill="#F74364"/>
<rect width="2.21353" height="14.7569" rx="1.10677" transform="matrix(-0.707107 -0.707107 -0.707107 0.707107 1447.23 145.364)" fill="#EFF3FF"/>
<rect width="2.21353" height="14.7569" rx="1.10677" transform="matrix(-0.707107 0.707107 0.707107 0.707107 1436.79 143.799)" fill="#EFF3FF"/>
<line x1="1" y1="-1" x2="23" y2="-1" transform="matrix(-1 8.74228e-08 8.74228e-08 1 1431.23 144.799)" stroke="#EFF3FF" stroke-width="2" stroke-linecap="round"/>
<line x1="1" y1="-1" x2="23" y2="-1" transform="matrix(-1 8.74228e-08 8.74228e-08 1 1431.23 150.799)" stroke="#EFF3FF" stroke-width="2" stroke-linecap="round"/>
<line x1="1" y1="-1" x2="23" y2="-1" transform="matrix(-1 8.74228e-08 8.74228e-08 1 1431.23 156.799)" stroke="#EFF3FF" stroke-width="2" stroke-linecap="round"/>
</g>
<g opacity="0.24">
<path fill-rule="evenodd" clip-rule="evenodd" d="M1742.41 133C1743.52 133 1744.41 133.895 1744.41 135V162.207C1744.41 163.312 1743.52 164.207 1742.41 164.207H1708.58L1700.53 170.697C1699.87 171.224 1698.9 170.759 1698.9 169.918V164.207H1698.73C1697.63 164.207 1696.73 163.312 1696.73 162.207V135C1696.73 133.895 1697.63 133 1698.73 133H1742.41Z" fill="#F3A2B8"/>
<path fill-rule="evenodd" clip-rule="evenodd" d="M1740.68 134.734C1741.78 134.734 1742.68 135.629 1742.68 136.734V163.941C1742.68 165.046 1741.78 165.941 1740.68 165.941H1706.84L1698.79 172.43C1698.14 172.958 1697.17 172.492 1697.17 171.652V165.941H1697C1695.9 165.941 1695 165.046 1695 163.941V136.734C1695 135.629 1695.9 134.734 1697 134.734H1740.68Z" fill="#F74364"/>
<rect width="2.21353" height="14.7569" rx="1.10677" transform="matrix(-0.707107 -0.707107 -0.707107 0.707107 1740.23 145.364)" fill="#EFF3FF"/>
<rect width="2.21353" height="14.7569" rx="1.10677" transform="matrix(-0.707107 0.707107 0.707107 0.707107 1729.79 143.799)" fill="#EFF3FF"/>
<line x1="1" y1="-1" x2="23" y2="-1" transform="matrix(-1 8.74228e-08 8.74228e-08 1 1724.23 144.799)" stroke="#EFF3FF" stroke-width="2" stroke-linecap="round"/>
<line x1="1" y1="-1" x2="23" y2="-1" transform="matrix(-1 8.74228e-08 8.74228e-08 1 1724.23 150.799)" stroke="#EFF3FF" stroke-width="2" stroke-linecap="round"/>
<line x1="1" y1="-1" x2="23" y2="-1" transform="matrix(-1 8.74228e-08 8.74228e-08 1 1724.23 156.799)" stroke="#EFF3FF" stroke-width="2" stroke-linecap="round"/>
</g>
<g opacity="0.24">
<path fill-rule="evenodd" clip-rule="evenodd" d="M1899.41 77C1900.52 77 1901.41 77.8954 1901.41 79V106.207C1901.41 107.312 1900.52 108.207 1899.41 108.207H1865.58L1857.53 114.697C1856.87 115.224 1855.9 114.759 1855.9 113.918V108.207H1855.73C1854.63 108.207 1853.73 107.312 1853.73 106.207V79C1853.73 77.8954 1854.63 77 1855.73 77H1899.41Z" fill="#F3A2B8"/>
<path fill-rule="evenodd" clip-rule="evenodd" d="M1897.68 78.7336C1898.78 78.7336 1899.68 79.6291 1899.68 80.7336V107.941C1899.68 109.046 1898.78 109.941 1897.68 109.941H1863.84L1855.79 116.43C1855.14 116.958 1854.17 116.492 1854.17 115.652V109.941H1854C1852.9 109.941 1852 109.046 1852 107.941V80.7336C1852 79.6291 1852.9 78.7336 1854 78.7336H1897.68Z" fill="#F74364"/>
<rect width="2.21353" height="14.7569" rx="1.10677" transform="matrix(-0.707107 -0.707107 -0.707107 0.707107 1897.23 89.364)" fill="#EFF3FF"/>
<rect width="2.21353" height="14.7569" rx="1.10677" transform="matrix(-0.707107 0.707107 0.707107 0.707107 1886.79 87.7988)" fill="#EFF3FF"/>
<line x1="1" y1="-1" x2="23" y2="-1" transform="matrix(-1 8.74228e-08 8.74228e-08 1 1881.23 88.7988)" stroke="#EFF3FF" stroke-width="2" stroke-linecap="round"/>
<line x1="1" y1="-1" x2="23" y2="-1" transform="matrix(-1 8.74228e-08 8.74228e-08 1 1881.23 94.7988)" stroke="#EFF3FF" stroke-width="2" stroke-linecap="round"/>
<line x1="1" y1="-1" x2="23" y2="-1" transform="matrix(-1 8.74228e-08 8.74228e-08 1 1881.23 100.799)" stroke="#EFF3FF" stroke-width="2" stroke-linecap="round"/>
</g>
<g opacity="0.24">
<path fill-rule="evenodd" clip-rule="evenodd" d="M1566.41 112C1567.52 112 1568.41 112.895 1568.41 114V141.207C1568.41 142.312 1567.52 143.207 1566.41 143.207H1532.58L1524.53 149.697C1523.87 150.224 1522.9 149.759 1522.9 148.918V143.207H1522.73C1521.63 143.207 1520.73 142.312 1520.73 141.207V114C1520.73 112.895 1521.63 112 1522.73 112H1566.41Z" fill="#F3A2B8"/>
<path fill-rule="evenodd" clip-rule="evenodd" d="M1564.68 113.734C1565.78 113.734 1566.68 114.629 1566.68 115.734V142.941C1566.68 144.046 1565.78 144.941 1564.68 144.941H1530.84L1522.79 151.43C1522.14 151.958 1521.17 151.492 1521.17 150.652V144.941H1521C1519.9 144.941 1519 144.046 1519 142.941V115.734C1519 114.629 1519.9 113.734 1521 113.734H1564.68Z" fill="#F74364"/>
<rect width="2.21353" height="14.7569" rx="1.10677" transform="matrix(-0.707107 -0.707107 -0.707107 0.707107 1564.23 124.364)" fill="#EFF3FF"/>
<rect width="2.21353" height="14.7569" rx="1.10677" transform="matrix(-0.707107 0.707107 0.707107 0.707107 1553.79 122.799)" fill="#EFF3FF"/>
<line x1="1" y1="-1" x2="23" y2="-1" transform="matrix(-1 8.74228e-08 8.74228e-08 1 1548.23 123.799)" stroke="#EFF3FF" stroke-width="2" stroke-linecap="round"/>
<line x1="1" y1="-1" x2="23" y2="-1" transform="matrix(-1 8.74228e-08 8.74228e-08 1 1548.23 129.799)" stroke="#EFF3FF" stroke-width="2" stroke-linecap="round"/>
<line x1="1" y1="-1" x2="23" y2="-1" transform="matrix(-1 8.74228e-08 8.74228e-08 1 1548.23 135.799)" stroke="#EFF3FF" stroke-width="2" stroke-linecap="round"/>
</g>
<g opacity="0.24">
<path fill-rule="evenodd" clip-rule="evenodd" d="M1861.41 133C1862.52 133 1863.41 133.895 1863.41 135V162.207C1863.41 163.312 1862.52 164.207 1861.41 164.207H1827.58L1819.53 170.697C1818.87 171.224 1817.9 170.759 1817.9 169.918V164.207H1817.73C1816.63 164.207 1815.73 163.312 1815.73 162.207V135C1815.73 133.895 1816.63 133 1817.73 133H1861.41Z" fill="#F3A2B8"/>
<path fill-rule="evenodd" clip-rule="evenodd" d="M1859.68 134.734C1860.78 134.734 1861.68 135.629 1861.68 136.734V163.941C1861.68 165.046 1860.78 165.941 1859.68 165.941H1825.84L1817.79 172.43C1817.14 172.958 1816.17 172.492 1816.17 171.652V165.941H1816C1814.9 165.941 1814 165.046 1814 163.941V136.734C1814 135.629 1814.9 134.734 1816 134.734H1859.68Z" fill="#F74364"/>
<rect width="2.21353" height="14.7569" rx="1.10677" transform="matrix(-0.707107 -0.707107 -0.707107 0.707107 1859.23 145.364)" fill="#EFF3FF"/>
<rect width="2.21353" height="14.7569" rx="1.10677" transform="matrix(-0.707107 0.707107 0.707107 0.707107 1848.79 143.799)" fill="#EFF3FF"/>
<line x1="1" y1="-1" x2="23" y2="-1" transform="matrix(-1 8.74228e-08 8.74228e-08 1 1843.23 144.799)" stroke="#EFF3FF" stroke-width="2" stroke-linecap="round"/>
<line x1="1" y1="-1" x2="23" y2="-1" transform="matrix(-1 8.74228e-08 8.74228e-08 1 1843.23 150.799)" stroke="#EFF3FF" stroke-width="2" stroke-linecap="round"/>
<line x1="1" y1="-1" x2="23" y2="-1" transform="matrix(-1 8.74228e-08 8.74228e-08 1 1843.23 156.799)" stroke="#EFF3FF" stroke-width="2" stroke-linecap="round"/>
</g>
<g opacity="0.24">
<path fill-rule="evenodd" clip-rule="evenodd" d="M1357.41 140C1358.52 140 1359.41 140.895 1359.41 142V169.207C1359.41 170.312 1358.52 171.207 1357.41 171.207H1323.58L1315.53 177.697C1314.87 178.224 1313.9 177.759 1313.9 176.918V171.207H1313.73C1312.63 171.207 1311.73 170.312 1311.73 169.207V142C1311.73 140.895 1312.63 140 1313.73 140H1357.41Z" fill="#F3A2B8"/>
<path fill-rule="evenodd" clip-rule="evenodd" d="M1355.68 141.734C1356.78 141.734 1357.68 142.629 1357.68 143.734V170.941C1357.68 172.046 1356.78 172.941 1355.68 172.941H1321.84L1313.79 179.43C1313.14 179.958 1312.17 179.492 1312.17 178.652V172.941H1312C1310.9 172.941 1310 172.046 1310 170.941V143.734C1310 142.629 1310.9 141.734 1312 141.734H1355.68Z" fill="#F74364"/>
<rect width="2.21353" height="14.7569" rx="1.10677" transform="matrix(-0.707107 -0.707107 -0.707107 0.707107 1355.23 152.364)" fill="#EFF3FF"/>
<rect width="2.21353" height="14.7569" rx="1.10677" transform="matrix(-0.707107 0.707107 0.707107 0.707107 1344.79 150.799)" fill="#EFF3FF"/>
<line x1="1" y1="-1" x2="23" y2="-1" transform="matrix(-1 8.74228e-08 8.74228e-08 1 1339.23 151.799)" stroke="#EFF3FF" stroke-width="2" stroke-linecap="round"/>
<line x1="1" y1="-1" x2="23" y2="-1" transform="matrix(-1 8.74228e-08 8.74228e-08 1 1339.23 157.799)" stroke="#EFF3FF" stroke-width="2" stroke-linecap="round"/>
<line x1="1" y1="-1" x2="23" y2="-1" transform="matrix(-1 8.74228e-08 8.74228e-08 1 1339.23 163.799)" stroke="#EFF3FF" stroke-width="2" stroke-linecap="round"/>
</g>
<mask id="mask0" mask-type="alpha" maskUnits="userSpaceOnUse" x="1300" y="125" width="50" height="57">
<rect x="1300" y="125" width="50" height="57" fill="#C4C4C4"/>
</mask>
<g mask="url(#mask0)">
<path fill-rule="evenodd" clip-rule="evenodd" d="M1357.41 140C1358.52 140 1359.41 140.895 1359.41 142V169.207C1359.41 170.312 1358.52 171.207 1357.41 171.207H1323.58L1315.53 177.697C1314.87 178.224 1313.9 177.759 1313.9 176.918V171.207H1313.73C1312.63 171.207 1311.73 170.312 1311.73 169.207V142C1311.73 140.895 1312.63 140 1313.73 140H1357.41Z" fill="#F3A2B8"/>
<path fill-rule="evenodd" clip-rule="evenodd" d="M1355.68 141.734C1356.78 141.734 1357.68 142.629 1357.68 143.734V170.941C1357.68 172.046 1356.78 172.941 1355.68 172.941H1321.84L1313.79 179.43C1313.14 179.958 1312.17 179.492 1312.17 178.652V172.941H1312C1310.9 172.941 1310 172.046 1310 170.941V143.734C1310 142.629 1310.9 141.734 1312 141.734H1355.68Z" fill="#F74364"/>
<rect width="2.21353" height="14.7569" rx="1.10677" transform="matrix(-0.707107 -0.707107 -0.707107 0.707107 1355.23 152.364)" fill="#EFF3FF"/>
<rect width="2.21353" height="14.7569" rx="1.10677" transform="matrix(-0.707107 0.707107 0.707107 0.707107 1344.79 150.799)" fill="#EFF3FF"/>
<line x1="1" y1="-1" x2="23" y2="-1" transform="matrix(-1 8.74228e-08 8.74228e-08 1 1339.23 151.799)" stroke="#EFF3FF" stroke-width="2" stroke-linecap="round"/>
<line x1="1" y1="-1" x2="23" y2="-1" transform="matrix(-1 8.74228e-08 8.74228e-08 1 1339.23 157.799)" stroke="#EFF3FF" stroke-width="2" stroke-linecap="round"/>
<line x1="1" y1="-1" x2="23" y2="-1" transform="matrix(-1 8.74228e-08 8.74228e-08 1 1339.23 163.799)" stroke="#EFF3FF" stroke-width="2" stroke-linecap="round"/>
</g>
<path d="M1843 91C1840.79 91 1839 89.2091 1839 87L1839 83L1912 83L1912 87C1912 89.2091 1910.21 91 1908 91L1843 91Z" fill="#F74364"/>
<rect x="1440" y="161" width="431" height="10" rx="5" fill="#B8AAE0" fill-opacity="0.34"/>
<rect x="1352" y="161" width="92" height="10" rx="5" fill="#EBCCE2" fill-opacity="0.49"/>
<rect x="1352" y="132" width="92" height="4" rx="2" fill="white" fill-opacity="0.546"/>
<path d="M1346 131C1346 128.791 1347.79 127 1350 127L1350 177C1347.79 177 1346 175.209 1346 173L1346 131Z" fill="#F74364"/>
<path d="M1440 126C1440 124.895 1440.9 124 1442 124C1443.1 124 1444 124.895 1444 126V178C1444 179.105 1443.1 180 1442 180C1440.9 180 1440 179.105 1440 178V126Z" fill="#F74364"/>
<path d="M1500 126C1500 124.895 1500.9 124 1502 124C1503.1 124 1504 124.895 1504 126V178C1504 179.105 1503.1 180 1502 180C1500.9 180 1500 179.105 1500 178V126Z" fill="#F74364"/>
<path d="M1582 126C1582 124.895 1582.9 124 1584 124C1585.1 124 1586 124.895 1586 126V178C1586 179.105 1585.1 180 1584 180C1582.9 180 1582 179.105 1582 178V126Z" fill="#F74364"/>
<path d="M1696 126C1696 124.895 1696.9 124 1698 124C1699.1 124 1700 124.895 1700 126V178C1700 179.105 1699.1 180 1698 180C1696.9 180 1696 179.105 1696 178V126Z" fill="#F74364"/>
<path d="M1827 126C1827 124.895 1827.9 124 1829 124C1830.1 124 1831 124.895 1831 126V178C1831 179.105 1830.1 180 1829 180C1827.9 180 1827 179.105 1827 178V126Z" fill="#F74364"/>
<path d="M1346 157C1346 154.791 1347.79 153 1350 153L1350 179C1347.79 179 1346 177.209 1346 175L1346 157Z" fill="#D82D4D"/>
<path d="M1440 152H1444V178C1444 179.105 1443.1 180 1442 180C1440.9 180 1440 179.105 1440 178V152Z" fill="#D82D4D"/>
<path d="M1500 152H1504V180H1500V152Z" fill="#D82D4D"/>
<path d="M1582 152H1586V178C1586 179.105 1585.1 180 1584 180C1582.9 180 1582 179.105 1582 178V152Z" fill="#D82D4D"/>
<path d="M1696 152H1700V178C1700 179.105 1699.1 180 1698 180C1696.9 180 1696 179.105 1696 178V152Z" fill="#D82D4D"/>
<path d="M1827 152H1831V178C1831 179.105 1830.1 180 1829 180C1827.9 180 1827 179.105 1827 178V152Z" fill="#D82D4D"/>
<path d="M1511 91C1508.79 91 1507 89.2091 1507 87L1507 83L1580 83L1580 87C1580 89.2091 1578.21 91 1576 91L1511 91Z" fill="#F74364"/>
<path d="M1511 91C1508.79 91 1540 89 1556.5 88C1573 87 1580 83 1580 83V87C1580 89.2091 1578.21 91 1576 91L1511 91Z" fill="#D52646"/>
<path d="M1843.11 91C1840.9 91 1872.11 89 1888.61 88C1905.11 87 1912.11 83 1912.11 83V87C1912.11 89.2091 1910.32 91 1908.11 91L1843.11 91Z" fill="#D52646"/>
<path d="M1440 132H1831V136H1440V132Z" fill="white" fill-opacity="0.216"/>
</g>
<g style="mix-blend-mode:luminosity" opacity="0.156">
<path d="M2024 358V387H2091V336C2091 312.252 2071.75 293 2048 293H1530V343H1691C1691.55 343 1692 343.448 1692 344H1759C1759 343.448 1759.45 343 1760 343H2009C2017.28 343 2024 349.716 2024 358Z" fill="#FFE7ED" fill-opacity="0.744"/>
<g opacity="0.24">
<path fill-rule="evenodd" clip-rule="evenodd" d="M1631.41 337C1632.52 337 1633.41 336.105 1633.41 335V307.793C1633.41 306.688 1632.52 305.793 1631.41 305.793H1597.58L1589.53 299.303C1588.87 298.776 1587.9 299.241 1587.9 300.082V305.793H1587.73C1586.63 305.793 1585.73 306.688 1585.73 307.793V335C1585.73 336.105 1586.63 337 1587.73 337H1631.41Z" fill="#F3A2B8"/>
<path fill-rule="evenodd" clip-rule="evenodd" d="M1629.68 335.266C1630.78 335.266 1631.68 334.371 1631.68 333.266V306.059C1631.68 304.954 1630.78 304.059 1629.68 304.059H1595.84L1587.79 297.57C1587.14 297.042 1586.17 297.508 1586.17 298.348V304.059H1586C1584.9 304.059 1584 304.954 1584 306.059V333.266C1584 334.371 1584.9 335.266 1586 335.266H1629.68Z" fill="#F74364"/>
<rect x="1629.23" y="324.636" width="2.21353" height="14.7569" rx="1.10677" transform="rotate(135 1629.23 324.636)" fill="#EFF3FF"/>
<rect x="1618.79" y="326.201" width="2.21353" height="14.7569" rx="1.10677" transform="rotate(-135 1618.79 326.201)" fill="#EFF3FF"/>
<line x1="1612.23" y1="326.201" x2="1590.23" y2="326.201" stroke="#EFF3FF" stroke-width="2" stroke-linecap="round"/>
<line x1="1612.23" y1="320.201" x2="1590.23" y2="320.201" stroke="#EFF3FF" stroke-width="2" stroke-linecap="round"/>
<line x1="1612.23" y1="314.201" x2="1590.23" y2="314.201" stroke="#EFF3FF" stroke-width="2" stroke-linecap="round"/>
</g>
<g opacity="0.24">
<path fill-rule="evenodd" clip-rule="evenodd" d="M1924.41 337C1925.52 337 1926.41 336.105 1926.41 335V307.793C1926.41 306.688 1925.52 305.793 1924.41 305.793H1890.58L1882.53 299.303C1881.87 298.776 1880.9 299.241 1880.9 300.082V305.793H1880.73C1879.63 305.793 1878.73 306.688 1878.73 307.793V335C1878.73 336.105 1879.63 337 1880.73 337H1924.41Z" fill="#F3A2B8"/>
<path fill-rule="evenodd" clip-rule="evenodd" d="M1922.68 335.266C1923.78 335.266 1924.68 334.371 1924.68 333.266V306.059C1924.68 304.954 1923.78 304.059 1922.68 304.059H1888.84L1880.79 297.57C1880.14 297.042 1879.17 297.508 1879.17 298.348V304.059H1879C1877.9 304.059 1877 304.954 1877 306.059V333.266C1877 334.371 1877.9 335.266 1879 335.266H1922.68Z" fill="#F74364"/>
<rect x="1922.23" y="324.636" width="2.21353" height="14.7569" rx="1.10677" transform="rotate(135 1922.23 324.636)" fill="#EFF3FF"/>
<rect x="1911.79" y="326.201" width="2.21353" height="14.7569" rx="1.10677" transform="rotate(-135 1911.79 326.201)" fill="#EFF3FF"/>
<line x1="1905.23" y1="326.201" x2="1883.23" y2="326.201" stroke="#EFF3FF" stroke-width="2" stroke-linecap="round"/>
<line x1="1905.23" y1="320.201" x2="1883.23" y2="320.201" stroke="#EFF3FF" stroke-width="2" stroke-linecap="round"/>
<line x1="1905.23" y1="314.201" x2="1883.23" y2="314.201" stroke="#EFF3FF" stroke-width="2" stroke-linecap="round"/>
</g>
<g opacity="0.24">
<path d="M1706.53 320.303L1718.34 329.827H1704.9V321.082C1704.9 320.242 1705.87 319.776 1706.53 320.303Z" fill="#F3A2B8"/>
<path d="M1704.79 318.57L1716.6 328.093H1703.17V319.348C1703.17 318.508 1704.14 318.042 1704.79 318.57Z" fill="#F74364"/>
<rect x="1746.23" y="345.636" width="2.21353" height="14.7569" rx="1.10677" transform="rotate(135 1746.23 345.636)" fill="#EFF3FF"/>
<rect x="1735.79" y="347.201" width="2.21353" height="14.7569" rx="1.10677" transform="rotate(-135 1735.79 347.201)" fill="#EFF3FF"/>
</g>
<g opacity="0.24">
<path fill-rule="evenodd" clip-rule="evenodd" d="M1539.41 337C1540.52 337 1541.41 336.105 1541.41 335V307.793C1541.41 306.688 1540.52 305.793 1539.41 305.793H1505.58L1497.53 299.303C1496.87 298.776 1495.9 299.241 1495.9 300.082V305.793H1495.73C1494.63 305.793 1493.73 306.688 1493.73 307.793V335C1493.73 336.105 1494.63 337 1495.73 337H1539.41Z" fill="#F3A2B8"/>
<path fill-rule="evenodd" clip-rule="evenodd" d="M1537.68 335.266C1538.78 335.266 1539.68 334.371 1539.68 333.266V306.059C1539.68 304.954 1538.78 304.059 1537.68 304.059H1503.84L1495.79 297.57C1495.14 297.042 1494.17 297.508 1494.17 298.348V304.059H1494C1492.9 304.059 1492 304.954 1492 306.059V333.266C1492 334.371 1492.9 335.266 1494 335.266H1537.68Z" fill="#F74364"/>
<rect x="1537.23" y="324.636" width="2.21353" height="14.7569" rx="1.10677" transform="rotate(135 1537.23 324.636)" fill="#EFF3FF"/>
<rect x="1526.79" y="326.201" width="2.21353" height="14.7569" rx="1.10677" transform="rotate(-135 1526.79 326.201)" fill="#EFF3FF"/>
<line x1="1520.23" y1="326.201" x2="1498.23" y2="326.201" stroke="#EFF3FF" stroke-width="2" stroke-linecap="round"/>
<line x1="1520.23" y1="320.201" x2="1498.23" y2="320.201" stroke="#EFF3FF" stroke-width="2" stroke-linecap="round"/>
<line x1="1520.23" y1="314.201" x2="1498.23" y2="314.201" stroke="#EFF3FF" stroke-width="2" stroke-linecap="round"/>
</g>
<g opacity="0.28">
<mask id="mask1" mask-type="alpha" maskUnits="userSpaceOnUse" x="1482" y="295" width="50" height="57">
<rect width="50" height="57" transform="matrix(1 0 0 -1 1482 352)" fill="#C4C4C4"/>
</mask>
<g mask="url(#mask1)">
<path fill-rule="evenodd" clip-rule="evenodd" d="M1539.41 337C1540.52 337 1541.41 336.105 1541.41 335V307.793C1541.41 306.688 1540.52 305.793 1539.41 305.793H1505.58L1497.53 299.303C1496.87 298.776 1495.9 299.241 1495.9 300.082V305.793H1495.73C1494.63 305.793 1493.73 306.688 1493.73 307.793V335C1493.73 336.105 1494.63 337 1495.73 337H1539.41Z" fill="#F3A2B8"/>
<path fill-rule="evenodd" clip-rule="evenodd" d="M1537.68 335.266C1538.78 335.266 1539.68 334.371 1539.68 333.266V306.059C1539.68 304.954 1538.78 304.059 1537.68 304.059H1503.84L1495.79 297.57C1495.14 297.042 1494.17 297.508 1494.17 298.348V304.059H1494C1492.9 304.059 1492 304.954 1492 306.059V333.266C1492 334.371 1492.9 335.266 1494 335.266H1537.68Z" fill="#F74364"/>
<rect x="1537.23" y="324.636" width="2.21353" height="14.7569" rx="1.10677" transform="rotate(135 1537.23 324.636)" fill="#EFF3FF"/>
<rect x="1526.79" y="326.201" width="2.21353" height="14.7569" rx="1.10677" transform="rotate(-135 1526.79 326.201)" fill="#EFF3FF"/>
<line x1="1520.23" y1="326.201" x2="1498.23" y2="326.201" stroke="#EFF3FF" stroke-width="2" stroke-linecap="round"/>
<line x1="1520.23" y1="320.201" x2="1498.23" y2="320.201" stroke="#EFF3FF" stroke-width="2" stroke-linecap="round"/>
<line x1="1520.23" y1="314.201" x2="1498.23" y2="314.201" stroke="#EFF3FF" stroke-width="2" stroke-linecap="round"/>
</g>
</g>
<rect width="431" height="10" rx="5" transform="matrix(1 0 0 -1 1622 309)" fill="#B8AAE0" fill-opacity="0.34"/>
<rect width="92" height="10" rx="5" transform="matrix(1 0 0 -1 1534 309)" fill="#EBCCE2" fill-opacity="0.49"/>
<rect width="92" height="4" rx="2" transform="matrix(1 0 0 -1 1534 338)" fill="white" fill-opacity="0.546"/>
<path opacity="0.336" d="M1528 339C1528 341.209 1529.79 343 1532 343L1532 293C1529.79 293 1528 294.791 1528 297L1528 339Z" fill="#F74364"/>
<path opacity="0.336" d="M1622 344C1622 345.105 1622.9 346 1624 346C1625.1 346 1626 345.105 1626 344V292C1626 290.895 1625.1 290 1624 290C1622.9 290 1622 290.895 1622 292V344Z" fill="#F74364"/>
<path opacity="0.336" d="M1682 344C1682 345.105 1682.9 346 1684 346C1685.1 346 1686 345.105 1686 344V292C1686 290.895 1685.1 290 1684 290C1682.9 290 1682 290.895 1682 292V344Z" fill="#F74364"/>
<path opacity="0.336" d="M1764 344C1764 345.105 1764.9 346 1766 346C1767.1 346 1768 345.105 1768 344V292C1768 290.895 1767.1 290 1766 290C1764.9 290 1764 290.895 1764 292V344Z" fill="#F74364"/>
<path opacity="0.336" d="M1878 344C1878 345.105 1878.9 346 1880 346C1881.1 346 1882 345.105 1882 344V292C1882 290.895 1881.1 290 1880 290C1878.9 290 1878 290.895 1878 292V344Z" fill="#F74364"/>
<path opacity="0.336" d="M1528 313C1528 315.209 1529.79 317 1532 317L1532 291C1529.79 291 1528 292.791 1528 295L1528 313Z" fill="#D82D4D"/>
<path opacity="0.336" d="M1622 318H1626V292C1626 290.895 1625.1 290 1624 290C1622.9 290 1622 290.895 1622 292V318Z" fill="#D82D4D"/>
<path opacity="0.336" d="M1682 318H1686V290H1682V318Z" fill="#D82D4D"/>
<path opacity="0.336" d="M1764 318H1768V292C1768 290.895 1767.1 290 1766 290C1764.9 290 1764 290.895 1764 292V318Z" fill="#D82D4D"/>
<path opacity="0.336" d="M1878 318H1882V292C1882 290.895 1881.1 290 1880 290C1878.9 290 1878 290.895 1878 292V318Z" fill="#D82D4D"/>
<path d="M1622 338H2013V334H1622V338Z" fill="white" fill-opacity="0.216"/>
</g>
<g style="mix-blend-mode:luminosity" opacity="0.168">
<path d="M1892 263.111L1921 263.111L1921 196.111L1870 196.111C1846.25 196.111 1827 215.363 1827 239.111L1827 757.111L1877 757.111L1877 607.111C1877 600.484 1882.37 595.111 1889 595.111L1921 595.111L1921 528.111L1889 528.111C1882.37 528.111 1877 522.739 1877 516.111L1877 278.111C1877 269.827 1883.72 263.111 1892 263.111Z" fill="#FFE7ED" fill-opacity="0.744"/>
<g opacity="0.24">
<path fill-rule="evenodd" clip-rule="evenodd" d="M1871 655.7C1871 654.595 1870.1 653.7 1869 653.7L1841.79 653.7C1840.69 653.7 1839.79 654.595 1839.79 655.7L1839.79 689.536L1833.3 697.583C1832.78 698.237 1833.24 699.21 1834.08 699.21L1839.79 699.21L1839.79 699.378C1839.79 700.482 1840.69 701.378 1841.79 701.378L1869 701.378C1870.1 701.378 1871 700.482 1871 699.378L1871 655.7Z" fill="#F3A2B8"/>
<path fill-rule="evenodd" clip-rule="evenodd" d="M1869.27 657.433C1869.27 656.329 1868.37 655.433 1867.27 655.433L1840.06 655.433C1838.95 655.433 1838.06 656.329 1838.06 657.433L1838.06 691.27L1831.57 699.317C1831.04 699.971 1831.51 700.944 1832.35 700.944L1838.06 700.944L1838.06 701.111C1838.06 702.216 1838.95 703.111 1840.06 703.111L1867.27 703.111C1868.37 703.111 1869.27 702.216 1869.27 701.111L1869.27 657.433Z" fill="#F74364"/>
<rect x="1858.64" y="657.882" width="2.21353" height="14.7569" rx="1.10677" transform="rotate(45 1858.64 657.882)" fill="#EFF3FF"/>
<rect x="1860.2" y="668.317" width="2.21353" height="14.7569" rx="1.10677" transform="rotate(135 1860.2 668.317)" fill="#EFF3FF"/>
<line x1="1860.2" y1="674.882" x2="1860.2" y2="696.882" stroke="#EFF3FF" stroke-width="2" stroke-linecap="round"/>
<line x1="1854.2" y1="674.882" x2="1854.2" y2="696.882" stroke="#EFF3FF" stroke-width="2" stroke-linecap="round"/>
<line x1="1848.2" y1="674.882" x2="1848.2" y2="696.882" stroke="#EFF3FF" stroke-width="2" stroke-linecap="round"/>
</g>
<g opacity="0.24">
<path fill-rule="evenodd" clip-rule="evenodd" d="M1871 362.7C1871 361.595 1870.1 360.7 1869 360.7L1841.79 360.7C1840.69 360.7 1839.79 361.595 1839.79 362.7L1839.79 396.536L1833.3 404.583C1832.78 405.237 1833.24 406.21 1834.08 406.21L1839.79 406.21L1839.79 406.378C1839.79 407.482 1840.69 408.378 1841.79 408.378L1869 408.378C1870.1 408.378 1871 407.482 1871 406.378L1871 362.7Z" fill="#F3A2B8"/>
<path fill-rule="evenodd" clip-rule="evenodd" d="M1869.27 364.433C1869.27 363.329 1868.37 362.433 1867.27 362.433L1840.06 362.433C1838.95 362.433 1838.06 363.329 1838.06 364.433L1838.06 398.27L1831.57 406.317C1831.04 406.971 1831.51 407.944 1832.35 407.944L1838.06 407.944L1838.06 408.111C1838.06 409.216 1838.95 410.111 1840.06 410.111L1867.27 410.111C1868.37 410.111 1869.27 409.216 1869.27 408.111L1869.27 364.433Z" fill="#F74364"/>
<rect x="1858.64" y="364.882" width="2.21353" height="14.7569" rx="1.10677" transform="rotate(45 1858.64 364.882)" fill="#EFF3FF"/>
<rect x="1860.2" y="375.317" width="2.21353" height="14.7569" rx="1.10677" transform="rotate(135 1860.2 375.317)" fill="#EFF3FF"/>
<line x1="1860.2" y1="381.882" x2="1860.2" y2="403.882" stroke="#EFF3FF" stroke-width="2" stroke-linecap="round"/>
<line x1="1854.2" y1="381.882" x2="1854.2" y2="403.882" stroke="#EFF3FF" stroke-width="2" stroke-linecap="round"/>
<line x1="1848.2" y1="381.882" x2="1848.2" y2="403.882" stroke="#EFF3FF" stroke-width="2" stroke-linecap="round"/>
</g>
<g opacity="0.24">
<path fill-rule="evenodd" clip-rule="evenodd" d="M1927 205.7C1927 204.595 1926.1 203.7 1925 203.7L1897.79 203.7C1896.69 203.7 1895.79 204.595 1895.79 205.7L1895.79 239.536L1889.3 247.583C1888.78 248.237 1889.24 249.21 1890.08 249.21L1895.79 249.21L1895.79 249.378C1895.79 250.482 1896.69 251.378 1897.79 251.378L1925 251.378C1926.1 251.378 1927 250.482 1927 249.378L1927 205.7Z" fill="#F3A2B8"/>
<path fill-rule="evenodd" clip-rule="evenodd" d="M1925.27 207.433C1925.27 206.329 1924.37 205.433 1923.27 205.433L1896.06 205.433C1894.95 205.433 1894.06 206.329 1894.06 207.433L1894.06 241.27L1887.57 249.317C1887.04 249.971 1887.51 250.944 1888.35 250.944L1894.06 250.944L1894.06 251.111C1894.06 252.216 1894.95 253.111 1896.06 253.111L1923.27 253.111C1924.37 253.111 1925.27 252.216 1925.27 251.111L1925.27 207.433Z" fill="#F74364"/>
<rect x="1914.64" y="207.882" width="2.21353" height="14.7569" rx="1.10677" transform="rotate(45 1914.64 207.882)" fill="#EFF3FF"/>
<rect x="1916.2" y="218.317" width="2.21353" height="14.7569" rx="1.10677" transform="rotate(135 1916.2 218.317)" fill="#EFF3FF"/>
<line x1="1916.2" y1="224.882" x2="1916.2" y2="246.882" stroke="#EFF3FF" stroke-width="2" stroke-linecap="round"/>
<line x1="1910.2" y1="224.882" x2="1910.2" y2="246.882" stroke="#EFF3FF" stroke-width="2" stroke-linecap="round"/>
<line x1="1904.2" y1="224.882" x2="1904.2" y2="246.882" stroke="#EFF3FF" stroke-width="2" stroke-linecap="round"/>
</g>
<g opacity="0.24">
<path fill-rule="evenodd" clip-rule="evenodd" d="M1892 538.7C1892 537.595 1891.1 536.7 1890 536.7L1862.79 536.7C1861.69 536.7 1860.79 537.595 1860.79 538.7L1860.79 572.536L1854.3 580.583C1853.78 581.237 1854.24 582.21 1855.08 582.21L1860.79 582.21L1860.79 582.378C1860.79 583.482 1861.69 584.378 1862.79 584.378L1890 584.378C1891.1 584.378 1892 583.482 1892 582.378L1892 538.7Z" fill="#F3A2B8"/>
<path fill-rule="evenodd" clip-rule="evenodd" d="M1890.27 540.433C1890.27 539.329 1889.37 538.433 1888.27 538.433L1861.06 538.433C1859.95 538.433 1859.06 539.329 1859.06 540.433L1859.06 574.27L1852.57 582.317C1852.04 582.971 1852.51 583.944 1853.35 583.944L1859.06 583.944L1859.06 584.111C1859.06 585.216 1859.95 586.111 1861.06 586.111L1888.27 586.111C1889.37 586.111 1890.27 585.216 1890.27 584.111L1890.27 540.433Z" fill="#F74364"/>
<rect x="1879.64" y="540.882" width="2.21353" height="14.7569" rx="1.10677" transform="rotate(45 1879.64 540.882)" fill="#EFF3FF"/>
<rect x="1881.2" y="551.317" width="2.21353" height="14.7569" rx="1.10677" transform="rotate(135 1881.2 551.317)" fill="#EFF3FF"/>
<line x1="1881.2" y1="557.882" x2="1881.2" y2="579.882" stroke="#EFF3FF" stroke-width="2" stroke-linecap="round"/>
<line x1="1875.2" y1="557.882" x2="1875.2" y2="579.882" stroke="#EFF3FF" stroke-width="2" stroke-linecap="round"/>
<line x1="1869.2" y1="557.882" x2="1869.2" y2="579.882" stroke="#EFF3FF" stroke-width="2" stroke-linecap="round"/>
</g>
<g opacity="0.24">
<path fill-rule="evenodd" clip-rule="evenodd" d="M1871 243.7C1871 242.595 1870.1 241.7 1869 241.7L1841.79 241.7C1840.69 241.7 1839.79 242.595 1839.79 243.7L1839.79 277.536L1833.3 285.583C1832.78 286.237 1833.24 287.21 1834.08 287.21L1839.79 287.21L1839.79 287.378C1839.79 288.482 1840.69 289.378 1841.79 289.378L1869 289.378C1870.1 289.378 1871 288.482 1871 287.378L1871 243.7Z" fill="#F3A2B8"/>
<path fill-rule="evenodd" clip-rule="evenodd" d="M1869.27 245.433C1869.27 244.329 1868.37 243.433 1867.27 243.433L1840.06 243.433C1838.95 243.433 1838.06 244.329 1838.06 245.433L1838.06 279.27L1831.57 287.317C1831.04 287.971 1831.51 288.944 1832.35 288.944L1838.06 288.944L1838.06 289.111C1838.06 290.216 1838.95 291.111 1840.06 291.111L1867.27 291.111C1868.37 291.111 1869.27 290.216 1869.27 289.111L1869.27 245.433Z" fill="#F74364"/>
<rect x="1858.64" y="245.882" width="2.21353" height="14.7569" rx="1.10677" transform="rotate(45 1858.64 245.882)" fill="#EFF3FF"/>
<rect x="1860.2" y="256.317" width="2.21353" height="14.7569" rx="1.10677" transform="rotate(135 1860.2 256.317)" fill="#EFF3FF"/>
<line x1="1860.2" y1="262.882" x2="1860.2" y2="284.882" stroke="#EFF3FF" stroke-width="2" stroke-linecap="round"/>
<line x1="1854.2" y1="262.882" x2="1854.2" y2="284.882" stroke="#EFF3FF" stroke-width="2" stroke-linecap="round"/>
<line x1="1848.2" y1="262.882" x2="1848.2" y2="284.882" stroke="#EFF3FF" stroke-width="2" stroke-linecap="round"/>
</g>
<g opacity="0.24">
<path fill-rule="evenodd" clip-rule="evenodd" d="M1864 747.7C1864 746.595 1863.1 745.7 1862 745.7L1834.79 745.7C1833.69 745.7 1832.79 746.595 1832.79 747.7L1832.79 781.536L1826.3 789.583C1825.78 790.237 1826.24 791.21 1827.08 791.21L1832.79 791.21L1832.79 791.378C1832.79 792.482 1833.69 793.378 1834.79 793.378L1862 793.378C1863.1 793.378 1864 792.482 1864 791.378L1864 747.7Z" fill="#F3A2B8"/>
<path fill-rule="evenodd" clip-rule="evenodd" d="M1862.27 749.433C1862.27 748.329 1861.37 747.433 1860.27 747.433L1833.06 747.433C1831.95 747.433 1831.06 748.329 1831.06 749.433L1831.06 783.27L1824.57 791.317C1824.04 791.971 1824.51 792.944 1825.35 792.944L1831.06 792.944L1831.06 793.111C1831.06 794.216 1831.95 795.111 1833.06 795.111L1860.27 795.111C1861.37 795.111 1862.27 794.216 1862.27 793.111L1862.27 749.433Z" fill="#F74364"/>
<rect x="1851.64" y="749.882" width="2.21353" height="14.7569" rx="1.10677" transform="rotate(45 1851.64 749.882)" fill="#EFF3FF"/>
<rect x="1853.2" y="760.317" width="2.21353" height="14.7569" rx="1.10677" transform="rotate(135 1853.2 760.317)" fill="#EFF3FF"/>
<line x1="1853.2" y1="766.882" x2="1853.2" y2="788.882" stroke="#EFF3FF" stroke-width="2" stroke-linecap="round"/>
<line x1="1847.2" y1="766.882" x2="1847.2" y2="788.882" stroke="#EFF3FF" stroke-width="2" stroke-linecap="round"/>
<line x1="1841.2" y1="766.882" x2="1841.2" y2="788.882" stroke="#EFF3FF" stroke-width="2" stroke-linecap="round"/>
</g>
<mask id="mask2" mask-type="alpha" maskUnits="userSpaceOnUse" x="1822" y="755" width="57" height="51">
<rect width="50" height="57" transform="matrix(4.37114e-08 -1 -1 -4.37114e-08 1879 805.111)" fill="#C4C4C4"/>
</mask>
<g mask="url(#mask2)">
<path fill-rule="evenodd" clip-rule="evenodd" d="M1864 747.7C1864 746.595 1863.1 745.7 1862 745.7L1834.79 745.7C1833.69 745.7 1832.79 746.595 1832.79 747.7L1832.79 781.536L1826.3 789.583C1825.78 790.237 1826.24 791.21 1827.08 791.21L1832.79 791.21L1832.79 791.378C1832.79 792.482 1833.69 793.378 1834.79 793.378L1862 793.378C1863.1 793.378 1864 792.482 1864 791.378L1864 747.7Z" fill="#F3A2B8"/>
<path fill-rule="evenodd" clip-rule="evenodd" d="M1862.27 749.433C1862.27 748.329 1861.37 747.433 1860.27 747.433L1833.06 747.433C1831.95 747.433 1831.06 748.329 1831.06 749.433L1831.06 783.27L1824.57 791.317C1824.04 791.971 1824.51 792.944 1825.35 792.944L1831.06 792.944L1831.06 793.111C1831.06 794.216 1831.95 795.111 1833.06 795.111L1860.27 795.111C1861.37 795.111 1862.27 794.216 1862.27 793.111L1862.27 749.433Z" fill="#F74364"/>
<rect x="1851.64" y="749.882" width="2.21353" height="14.7569" rx="1.10677" transform="rotate(45 1851.64 749.882)" fill="#EFF3FF"/>
<rect x="1853.2" y="760.317" width="2.21353" height="14.7569" rx="1.10677" transform="rotate(135 1853.2 760.317)" fill="#EFF3FF"/>
<line x1="1853.2" y1="766.882" x2="1853.2" y2="788.882" stroke="#EFF3FF" stroke-width="2" stroke-linecap="round"/>
<line x1="1847.2" y1="766.882" x2="1847.2" y2="788.882" stroke="#EFF3FF" stroke-width="2" stroke-linecap="round"/>
<line x1="1841.2" y1="766.882" x2="1841.2" y2="788.882" stroke="#EFF3FF" stroke-width="2" stroke-linecap="round"/>
</g>
<path d="M1913 262.111C1913 264.32 1914.79 266.111 1917 266.111L1921 266.111L1921 193.111L1917 193.111C1914.79 193.111 1913 194.902 1913 197.111L1913 262.111Z" fill="#F74364"/>
<rect width="431" height="10" rx="5" transform="matrix(4.37114e-08 -1 -1 -4.37114e-08 1843 665.111)" fill="#B8AAE0" fill-opacity="0.34"/>
<rect width="92" height="10" rx="5" transform="matrix(4.37114e-08 -1 -1 -4.37114e-08 1843 753.111)" fill="#EBCCE2" fill-opacity="0.49"/>
<rect width="92" height="4" rx="2" transform="matrix(4.37114e-08 -1 -1 -4.37114e-08 1872 753.111)" fill="white" fill-opacity="0.546"/>
<path d="M1873 759.111C1875.21 759.111 1877 757.32 1877 755.111L1827 755.111C1827 757.32 1828.79 759.111 1831 759.111L1873 759.111Z" fill="#F74364"/>
<path d="M1878 665.111C1879.1 665.111 1880 664.216 1880 663.111C1880 662.007 1879.1 661.111 1878 661.111L1826 661.111C1824.9 661.111 1824 662.007 1824 663.111C1824 664.216 1824.9 665.111 1826 665.111L1878 665.111Z" fill="#F74364"/>
<path d="M1878 605.111C1879.1 605.111 1880 604.216 1880 603.111C1880 602.007 1879.1 601.111 1878 601.111L1826 601.111C1824.9 601.111 1824 602.007 1824 603.111C1824 604.216 1824.9 605.111 1826 605.111L1878 605.111Z" fill="#F74364"/>
<path d="M1878 523.111C1879.1 523.111 1880 522.216 1880 521.111C1880 520.007 1879.1 519.111 1878 519.111L1826 519.111C1824.9 519.111 1824 520.007 1824 521.111C1824 522.216 1824.9 523.111 1826 523.111L1878 523.111Z" fill="#F74364"/>
<path d="M1878 409.111C1879.1 409.111 1880 408.216 1880 407.111C1880 406.007 1879.1 405.111 1878 405.111L1826 405.111C1824.9 405.111 1824 406.007 1824 407.111C1824 408.216 1824.9 409.111 1826 409.111L1878 409.111Z" fill="#F74364"/>
<path d="M1878 278.111C1879.1 278.111 1880 277.216 1880 276.111C1880 275.007 1879.1 274.111 1878 274.111L1826 274.111C1824.9 274.111 1824 275.007 1824 276.111C1824 277.216 1824.9 278.111 1826 278.111L1878 278.111Z" fill="#F74364"/>
<path d="M1847 759.111C1849.21 759.111 1851 757.32 1851 755.111L1825 755.111C1825 757.32 1826.79 759.111 1829 759.111L1847 759.111Z" fill="#D82D4D"/>
<path d="M1852 665.111L1852 661.111L1826 661.111C1824.9 661.111 1824 662.007 1824 663.111C1824 664.216 1824.9 665.111 1826 665.111L1852 665.111Z" fill="#D82D4D"/>
<path d="M1852 605.111L1852 601.111L1824 601.111L1824 605.111L1852 605.111Z" fill="#D82D4D"/>
<path d="M1852 523.111L1852 519.111L1826 519.111C1824.9 519.111 1824 520.007 1824 521.111C1824 522.216 1824.9 523.111 1826 523.111L1852 523.111Z" fill="#D82D4D"/>
<path d="M1852 409.111L1852 405.111L1826 405.111C1824.9 405.111 1824 406.007 1824 407.111C1824 408.216 1824.9 409.111 1826 409.111L1852 409.111Z" fill="#D82D4D"/>
<path d="M1852 278.111L1852 274.111L1826 274.111C1824.9 274.111 1824 275.007 1824 276.111C1824 277.216 1824.9 278.111 1826 278.111L1852 278.111Z" fill="#D82D4D"/>
<path d="M1913 594.111C1913 596.32 1914.79 598.111 1917 598.111L1921 598.111L1921 525.111L1917 525.111C1914.79 525.111 1913 526.902 1913 529.111L1913 594.111Z" fill="#F74364"/>
<path d="M1913 594.111C1913 596.32 1915 565.111 1916 548.611C1917 532.111 1921 525.111 1921 525.111L1917 525.111C1914.79 525.111 1913 526.902 1913 529.111L1913 594.111Z" fill="#D52646"/>
<path d="M1913 262C1913 264.209 1915 233 1916 216.5C1917 200 1921 193 1921 193L1917 193C1914.79 193 1913 194.791 1913 197L1913 262Z" fill="#D52646"/>
<path d="M1872 665.111L1872 274.111L1868 274.111L1868 665.111L1872 665.111Z" fill="white" fill-opacity="0.216"/>
</g>
<g style="mix-blend-mode:luminosity" opacity="0.168">
<path d="M273 -27.8887L302 -27.8887L302 -94.8887L251 -94.8887C227.252 -94.8887 208 -75.637 208 -51.8887L208 466.111L258 466.111L258 316.111C258 309.484 263.373 304.111 270 304.111L302 304.111L302 237.111L270 237.111C263.373 237.111 258 231.739 258 225.111L258 -12.8887C258 -21.173 264.716 -27.8887 273 -27.8887Z" fill="#FFE7ED" fill-opacity="0.744"/>
<g opacity="0.24">
<path fill-rule="evenodd" clip-rule="evenodd" d="M252 364.7C252 363.595 251.105 362.7 250 362.7L222.793 362.7C221.688 362.7 220.793 363.595 220.793 364.7L220.793 398.536L214.303 406.583C213.776 407.237 214.241 408.21 215.082 408.21L220.793 408.21L220.793 408.378C220.793 409.482 221.688 410.378 222.793 410.378L250 410.378C251.105 410.378 252 409.482 252 408.378L252 364.7Z" fill="#F3A2B8"/>
<path fill-rule="evenodd" clip-rule="evenodd" d="M250.266 366.433C250.266 365.329 249.371 364.433 248.266 364.433L221.059 364.433C219.954 364.433 219.059 365.329 219.059 366.433L219.059 400.27L212.57 408.317C212.042 408.971 212.508 409.944 213.348 409.944L219.059 409.944L219.059 410.111C219.059 411.216 219.954 412.111 221.059 412.111L248.266 412.111C249.371 412.111 250.266 411.216 250.266 410.111L250.266 366.433Z" fill="#F74364"/>
<rect x="239.636" y="366.882" width="2.21353" height="14.7569" rx="1.10677" transform="rotate(45 239.636 366.882)" fill="#EFF3FF"/>
<rect x="241.201" y="377.317" width="2.21353" height="14.7569" rx="1.10677" transform="rotate(135 241.201 377.317)" fill="#EFF3FF"/>
<line x1="241.201" y1="383.882" x2="241.201" y2="405.882" stroke="#EFF3FF" stroke-width="2" stroke-linecap="round"/>
<line x1="235.201" y1="383.882" x2="235.201" y2="405.882" stroke="#EFF3FF" stroke-width="2" stroke-linecap="round"/>
<line x1="229.201" y1="383.882" x2="229.201" y2="405.882" stroke="#EFF3FF" stroke-width="2" stroke-linecap="round"/>
</g>
<g opacity="0.24">
<path fill-rule="evenodd" clip-rule="evenodd" d="M252 71.6997C252 70.5951 251.105 69.6997 250 69.6997L222.793 69.6997C221.688 69.6997 220.793 70.5951 220.793 71.6997L220.793 105.536L214.303 113.583C213.776 114.237 214.241 115.21 215.082 115.21L220.793 115.21L220.793 115.378C220.793 116.482 221.688 117.378 222.793 117.378L250 117.378C251.105 117.378 252 116.482 252 115.378L252 71.6997Z" fill="#F3A2B8"/>
<path fill-rule="evenodd" clip-rule="evenodd" d="M250.266 73.4333C250.266 72.3288 249.371 71.4333 248.266 71.4333L221.059 71.4333C219.954 71.4333 219.059 72.3288 219.059 73.4333L219.059 107.27L212.57 115.317C212.042 115.971 212.508 116.944 213.348 116.944L219.059 116.944L219.059 117.111C219.059 118.216 219.954 119.111 221.059 119.111L248.266 119.111C249.371 119.111 250.266 118.216 250.266 117.111L250.266 73.4333Z" fill="#F74364"/>
<rect x="239.636" y="73.8823" width="2.21353" height="14.7569" rx="1.10677" transform="rotate(45 239.636 73.8823)" fill="#EFF3FF"/>
<rect x="241.201" y="84.3169" width="2.21353" height="14.7569" rx="1.10677" transform="rotate(135 241.201 84.3169)" fill="#EFF3FF"/>
<line x1="241.201" y1="90.8823" x2="241.201" y2="112.882" stroke="#EFF3FF" stroke-width="2" stroke-linecap="round"/>
<line x1="235.201" y1="90.8823" x2="235.201" y2="112.882" stroke="#EFF3FF" stroke-width="2" stroke-linecap="round"/>
<line x1="229.201" y1="90.8823" x2="229.201" y2="112.882" stroke="#EFF3FF" stroke-width="2" stroke-linecap="round"/>
</g>
<g opacity="0.24">
<path fill-rule="evenodd" clip-rule="evenodd" d="M273 247.7C273 246.595 272.105 245.7 271 245.7L243.793 245.7C242.688 245.7 241.793 246.595 241.793 247.7L241.793 281.536L235.303 289.583C234.776 290.237 235.241 291.21 236.082 291.21L241.793 291.21L241.793 291.378C241.793 292.482 242.688 293.378 243.793 293.378L271 293.378C272.105 293.378 273 292.482 273 291.378L273 247.7Z" fill="#F3A2B8"/>
<path fill-rule="evenodd" clip-rule="evenodd" d="M271.266 249.433C271.266 248.329 270.371 247.433 269.266 247.433L242.059 247.433C240.954 247.433 240.059 248.329 240.059 249.433L240.059 283.27L233.57 291.317C233.042 291.971 233.508 292.944 234.348 292.944L240.059 292.944L240.059 293.111C240.059 294.216 240.954 295.111 242.059 295.111L269.266 295.111C270.371 295.111 271.266 294.216 271.266 293.111L271.266 249.433Z" fill="#F74364"/>
<rect x="260.636" y="249.882" width="2.21353" height="14.7569" rx="1.10677" transform="rotate(45 260.636 249.882)" fill="#EFF3FF"/>
<rect x="262.201" y="260.317" width="2.21353" height="14.7569" rx="1.10677" transform="rotate(135 262.201 260.317)" fill="#EFF3FF"/>
<line x1="262.201" y1="266.882" x2="262.201" y2="288.882" stroke="#EFF3FF" stroke-width="2" stroke-linecap="round"/>
<line x1="256.201" y1="266.882" x2="256.201" y2="288.882" stroke="#EFF3FF" stroke-width="2" stroke-linecap="round"/>
<line x1="250.201" y1="266.882" x2="250.201" y2="288.882" stroke="#EFF3FF" stroke-width="2" stroke-linecap="round"/>
</g>
<g opacity="0.24">
<path fill-rule="evenodd" clip-rule="evenodd" d="M250.266 -45.5667C250.266 -46.6712 249.371 -47.5667 248.266 -47.5667L221.059 -47.5667C219.954 -47.5667 219.059 -46.6712 219.059 -45.5667L219.059 -11.7298L212.57 -3.68339C212.042 -3.02926 212.508 -2.05564 213.348 -2.05564L219.059 -2.05563L219.059 -1.88868C219.059 -0.784112 219.954 0.111319 221.059 0.111319L248.266 0.11132C249.371 0.11132 250.266 -0.784111 250.266 -1.88868L250.266 -45.5667Z" fill="#F74364"/>
</g>
<g opacity="0.24">
<path fill-rule="evenodd" clip-rule="evenodd" d="M245 456.7C245 455.595 244.105 454.7 243 454.7L215.793 454.7C214.688 454.7 213.793 455.595 213.793 456.7L213.793 490.536L207.303 498.583C206.776 499.237 207.241 500.21 208.082 500.21L213.793 500.21L213.793 500.378C213.793 501.482 214.688 502.378 215.793 502.378L243 502.378C244.105 502.378 245 501.482 245 500.378L245 456.7Z" fill="#F3A2B8"/>
<path fill-rule="evenodd" clip-rule="evenodd" d="M243.266 458.433C243.266 457.329 242.371 456.433 241.266 456.433L214.059 456.433C212.954 456.433 212.059 457.329 212.059 458.433L212.059 492.27L205.57 500.317C205.042 500.971 205.508 501.944 206.348 501.944L212.059 501.944L212.059 502.111C212.059 503.216 212.954 504.111 214.059 504.111L241.266 504.111C242.371 504.111 243.266 503.216 243.266 502.111L243.266 458.433Z" fill="#F74364"/>
<rect x="232.636" y="458.882" width="2.21353" height="14.7569" rx="1.10677" transform="rotate(45 232.636 458.882)" fill="#EFF3FF"/>
<rect x="234.201" y="469.317" width="2.21353" height="14.7569" rx="1.10677" transform="rotate(135 234.201 469.317)" fill="#EFF3FF"/>
<line x1="234.201" y1="475.882" x2="234.201" y2="497.882" stroke="#EFF3FF" stroke-width="2" stroke-linecap="round"/>
<line x1="228.201" y1="475.882" x2="228.201" y2="497.882" stroke="#EFF3FF" stroke-width="2" stroke-linecap="round"/>
<line x1="222.201" y1="475.882" x2="222.201" y2="497.882" stroke="#EFF3FF" stroke-width="2" stroke-linecap="round"/>
</g>
<mask id="mask3" mask-type="alpha" maskUnits="userSpaceOnUse" x="203" y="464" width="57" height="51">
<rect width="50" height="57" transform="matrix(4.37114e-08 -1 -1 -4.37114e-08 260 514.111)" fill="#C4C4C4"/>
</mask>
<g mask="url(#mask3)">
<path fill-rule="evenodd" clip-rule="evenodd" d="M245 456.7C245 455.595 244.105 454.7 243 454.7L215.793 454.7C214.688 454.7 213.793 455.595 213.793 456.7L213.793 490.536L207.303 498.583C206.776 499.237 207.241 500.21 208.082 500.21L213.793 500.21L213.793 500.378C213.793 501.482 214.688 502.378 215.793 502.378L243 502.378C244.105 502.378 245 501.482 245 500.378L245 456.7Z" fill="#F3A2B8"/>
<path fill-rule="evenodd" clip-rule="evenodd" d="M243.266 458.433C243.266 457.329 242.371 456.433 241.266 456.433L214.059 456.433C212.954 456.433 212.059 457.329 212.059 458.433L212.059 492.27L205.57 500.317C205.042 500.971 205.508 501.944 206.348 501.944L212.059 501.944L212.059 502.111C212.059 503.216 212.954 504.111 214.059 504.111L241.266 504.111C242.371 504.111 243.266 503.216 243.266 502.111L243.266 458.433Z" fill="#F74364"/>
<rect x="232.636" y="458.882" width="2.21353" height="14.7569" rx="1.10677" transform="rotate(45 232.636 458.882)" fill="#EFF3FF"/>
<rect x="234.201" y="469.317" width="2.21353" height="14.7569" rx="1.10677" transform="rotate(135 234.201 469.317)" fill="#EFF3FF"/>
<line x1="234.201" y1="475.882" x2="234.201" y2="497.882" stroke="#EFF3FF" stroke-width="2" stroke-linecap="round"/>
<line x1="228.201" y1="475.882" x2="228.201" y2="497.882" stroke="#EFF3FF" stroke-width="2" stroke-linecap="round"/>
<line x1="222.201" y1="475.882" x2="222.201" y2="497.882" stroke="#EFF3FF" stroke-width="2" stroke-linecap="round"/>
</g>
<rect width="431" height="10" rx="5" transform="matrix(4.37114e-08 -1 -1 -4.37114e-08 224 374.111)" fill="#B8AAE0" fill-opacity="0.34"/>
<rect width="92" height="10" rx="5" transform="matrix(4.37114e-08 -1 -1 -4.37114e-08 224 462.111)" fill="#EBCCE2" fill-opacity="0.49"/>
<rect width="92" height="4" rx="2" transform="matrix(4.37114e-08 -1 -1 -4.37114e-08 253 462.111)" fill="white" fill-opacity="0.546"/>
<path d="M254 468.111C256.209 468.111 258 466.32 258 464.111L208 464.111C208 466.32 209.791 468.111 212 468.111L254 468.111Z" fill="#F74364"/>
<path d="M259 374.111C260.105 374.111 261 373.216 261 372.111C261 371.007 260.105 370.111 259 370.111L207 370.111C205.895 370.111 205 371.007 205 372.111C205 373.216 205.895 374.111 207 374.111L259 374.111Z" fill="#F74364"/>
<path d="M259 314.111C260.105 314.111 261 313.216 261 312.111C261 311.007 260.105 310.111 259 310.111L207 310.111C205.895 310.111 205 311.007 205 312.111C205 313.216 205.895 314.111 207 314.111L259 314.111Z" fill="#F74364"/>
<path d="M259 232.111C260.105 232.111 261 231.216 261 230.111C261 229.007 260.105 228.111 259 228.111L207 228.111C205.895 228.111 205 229.007 205 230.111C205 231.216 205.895 232.111 207 232.111L259 232.111Z" fill="#F74364"/>
<path d="M259 118.111C260.105 118.111 261 117.216 261 116.111C261 115.007 260.105 114.111 259 114.111L207 114.111C205.895 114.111 205 115.007 205 116.111C205 117.216 205.895 118.111 207 118.111L259 118.111Z" fill="#F74364"/>
<path d="M228 468.111C230.209 468.111 232 466.32 232 464.111L206 464.111C206 466.32 207.791 468.111 210 468.111L228 468.111Z" fill="#D82D4D"/>
<path d="M233 374.111L233 370.111L207 370.111C205.895 370.111 205 371.007 205 372.111C205 373.216 205.895 374.111 207 374.111L233 374.111Z" fill="#D82D4D"/>
<path d="M233 314.111L233 310.111L205 310.111L205 314.111L233 314.111Z" fill="#D82D4D"/>
<path d="M233 232.111L233 228.111L207 228.111C205.895 228.111 205 229.007 205 230.111C205 231.216 205.895 232.111 207 232.111L233 232.111Z" fill="#D82D4D"/>
<path d="M233 118.111L233 114.111L207 114.111C205.895 114.111 205 115.007 205 116.111C205 117.216 205.895 118.111 207 118.111L233 118.111Z" fill="#D82D4D"/>
<path d="M294 303.111C294 305.32 295.791 307.111 298 307.111L302 307.111L302 234.111L298 234.111C295.791 234.111 294 235.902 294 238.111L294 303.111Z" fill="#F74364"/>
<path d="M294 303.111C294 305.32 296 274.111 297 257.611C298 241.111 302 234.111 302 234.111L298 234.111C295.791 234.111 294 235.902 294 238.111L294 303.111Z" fill="#D52646"/>
<path d="M253 374.111L253 -16.8887L249 -16.8887L249 374.111L253 374.111Z" fill="white" fill-opacity="0.216"/>
</g>
<rect x="1701" y="493" width="102" height="67" fill="#192C5F"/>
<path d="M1689 394.5C1697.4 390.1 1734.5 387 1752 386C1770 386 1808.4 387.7 1818 394.5C1830 403 1872 454.5 1872 465C1872 487.5 1845.5 513.167 1821 523L1805.5 503.5L1715 518C1688.67 507.833 1645.5 487.6 1645.5 480C1645.5 470.5 1678.5 400 1689 394.5Z" fill="#E1F8FF"/>
<path d="M1724.5 388.175C1734.74 387.145 1744.96 386.402 1752 386C1758.8 386 1768.52 386.243 1778.5 386.912C1776 413.5 1761 451.5 1752 451.5C1743 451.5 1724.5 409.5 1724.5 388.175Z" fill="#FDA98B"/>
<path d="M1724.5 388.175C1734.74 387.145 1744.96 386.402 1752 386C1774 350.5 1780 422 1743 419C1742.41 433.31 1746 440.5 1752 451.5C1743 451.5 1724.5 409.5 1724.5 388.175Z" fill="#D2917A"/>
<path d="M1689 394.5C1697.4 390.1 1682 422 1702 483.5C1729.5 504 1683.5 497 1683.5 526C1657.17 515.833 1631.5 497.5 1639 473.5C1641.83 464.432 1678.5 400 1689 394.5Z" fill="#D2EFF9"/>
<path d="M1463.24 451.707C1468.3 451.707 1493.31 455.698 1503.69 470.808C1514.08 485.919 1511.24 532.195 1476.78 534.556" stroke="#D0D0D0" stroke-width="7.67498" stroke-linecap="round"/>
<path d="M1376.11 451.448C1370.12 451.448 1335.12 459.151 1335.12 490.554C1335.12 529.974 1366.72 544.828 1383.28 559.11" stroke="#D0D0D0" stroke-width="7.67498" stroke-linecap="round"/>
<rect width="6.49801" height="20.216" rx="3.249" transform="matrix(-1 0 0 1 1391.4 385.339)" fill="#E5E5E5"/>
<rect width="6.49801" height="20.216" rx="3.249" transform="matrix(-1 0 0 1 1455.66 385.339)" fill="#E5E5E5"/>
<rect x="1403.68" y="428.964" width="33.212" height="12.996" rx="3.4111" fill="#C7C7C7"/>
<rect x="1389.96" y="521.38" width="60.6481" height="12.996" rx="3.4111" fill="#BEBEBE"/>
<path d="M1391.12 385.132C1391.28 383.377 1392.75 382.034 1394.51 382.034H1446.05C1447.81 382.034 1449.29 383.377 1449.45 385.132L1453.54 429.572C1453.73 431.571 1452.15 433.296 1450.15 433.296H1390.42C1388.41 433.296 1386.84 431.571 1387.02 429.572L1391.12 385.132Z" fill="#D0D0D0"/>
<path d="M1391.4 385.811C1391.4 385.811 1386.91 428.912 1420.28 428.912C1453.66 428.912 1449.16 385.811 1449.16 385.811V429.885C1449.16 431.768 1447.64 433.296 1445.75 433.296H1394.81C1392.93 433.296 1391.4 431.768 1391.4 429.885V385.811Z" fill="#E5E5E5"/>
<rect width="17.328" height="20.216" rx="3.4111" transform="matrix(-1 0 0 1 1464.32 441.96)" fill="#E6E6E6"/>
<rect width="17.328" height="20.216" rx="3.4111" transform="matrix(-1 0 0 1 1392.85 441.96)" fill="#E6E6E6"/>
<path d="M1380.72 442.626C1380.64 440.688 1382.19 439.072 1384.13 439.072H1456.43C1458.38 439.072 1459.92 440.688 1459.84 442.626L1456.52 521.722C1456.44 523.549 1454.94 524.99 1453.11 524.99H1387.45C1385.62 524.99 1384.12 523.549 1384.04 521.722L1380.72 442.626Z" fill="#E6E6E6"/>
<path d="M1388.41 448.569C1388.29 446.024 1390.32 443.893 1392.87 443.893H1449.61C1452.16 443.893 1454.19 446.024 1454.07 448.569L1451.49 501.977C1451.38 504.355 1449.42 506.224 1447.04 506.224H1395.44C1393.06 506.224 1391.1 504.355 1390.99 501.977L1388.41 448.569Z" fill="#F0F0F0"/>
<path d="M1381.1 445.683C1390.07 480.724 1369.27 518.131 1420.28 518.131C1471.29 518.131 1450.99 483.558 1459.49 445.683C1458.68 467.114 1456.99 509.685 1456.51 521.74C1456.44 523.57 1454.94 524.99 1453.1 524.99H1387.49C1385.64 524.99 1384.14 523.556 1384.08 521.716C1383.63 508.131 1381.92 456.411 1381.1 445.683Z" fill="#C7C7C7"/>
<circle cx="1442.76" cy="362.469" r="12.0725" fill="#E3FCF2"/>
<rect x="1437.27" y="354.237" width="11.5238" height="17.0113" rx="3.88887" fill="#87F2C5"/>
<path d="M1440.56 371.248H1445.5C1446.34 371.248 1447.11 370.931 1447.7 370.41C1447.7 370.41 1443.17 370.566 1440.56 367.956C1437.27 364.663 1437.82 355.709 1437.82 355.709C1437.47 356.23 1437.27 356.856 1437.27 357.53V367.956C1437.27 369.774 1438.74 371.248 1440.56 371.248Z" fill="#65D3A5"/>
<rect x="1441" y="371.136" width="3.84126" height="10.975" fill="#D0D0D0"/>
<rect x="1440.45" y="371.136" width="4.93876" height="1.0975" fill="#D0D0D0"/>
<rect x="1440.45" y="381.013" width="4.93876" height="1.0975" fill="#D0D0D0"/>
<path d="M1376.54 528.35C1377.25 527.581 1378.29 527.234 1379.33 527.362C1385.16 528.076 1405.19 530.405 1418.84 530.405C1432.49 530.405 1452.52 528.076 1458.35 527.362C1459.39 527.234 1460.42 527.581 1461.14 528.35C1464.05 531.482 1471.63 540.301 1473.71 549.177C1475.27 555.853 1473 567.103 1471.41 573.529C1470.69 576.449 1468.05 578.418 1465.04 578.418C1455.63 578.418 1434.93 578.418 1418.84 578.418C1402.75 578.418 1382.05 578.418 1372.64 578.418C1369.63 578.418 1366.98 576.449 1366.26 573.529C1364.68 567.103 1362.4 555.853 1363.97 549.177C1366.04 540.301 1373.63 531.482 1376.54 528.35Z" fill="#F0F0F0"/>
<path d="M1363.97 549.177C1362.4 555.853 1364.68 567.103 1366.26 573.529C1366.98 576.449 1369.63 578.418 1372.64 578.418H1418.84H1465.04C1468.05 578.418 1470.69 576.449 1471.41 573.529C1473 567.103 1475.27 555.853 1473.71 549.177C1468.3 549.177 1443.68 556.75 1418.84 556.75C1394 556.75 1371.97 552.5 1363.97 549.177Z" fill="#C7C7C7"/>
<circle cx="1411.61" cy="418.866" r="3.30543" fill="#919191"/>
<circle cx="1429.56" cy="418.866" r="3.30543" fill="#919191"/>
<g opacity="0.584">
<path fill-rule="evenodd" clip-rule="evenodd" d="M1607.41 463C1608.52 463 1609.41 463.895 1609.41 465V492.207C1609.41 493.312 1608.52 494.207 1607.41 494.207H1573.58L1565.53 500.697C1564.87 501.224 1563.9 500.758 1563.9 499.918V494.207H1563.73C1562.63 494.207 1561.73 493.312 1561.73 492.207V465C1561.73 463.895 1562.63 463 1563.73 463H1607.41Z" fill="#89C599"/>
<path fill-rule="evenodd" clip-rule="evenodd" d="M1605.68 464.734C1606.78 464.734 1607.68 465.629 1607.68 466.734V493.941C1607.68 495.046 1606.78 495.941 1605.68 495.941H1571.84L1563.79 502.43C1563.14 502.958 1562.17 502.492 1562.17 501.652V495.941H1562C1560.9 495.941 1560 495.046 1560 493.941V466.734C1560 465.629 1560.9 464.734 1562 464.734H1605.68Z" fill="#87F2C5"/>
<rect width="4.32576" height="17.7964" rx="2.16288" transform="matrix(0.899592 -0.436732 0.56603 0.824385 1573 475.193)" fill="white"/>
<rect width="4.32576" height="23.5086" rx="2.16288" transform="matrix(0.899592 0.436732 -0.56603 0.824385 1594.39 469)" fill="white"/>
</g>
<g opacity="0.584">
<path fill-rule="evenodd" clip-rule="evenodd" d="M1679.95 482C1681.06 482 1681.95 482.895 1681.95 484V495.467C1681.95 496.572 1681.06 497.467 1679.95 497.467H1664.19L1661.02 500.022C1660.37 500.549 1659.39 500.084 1659.39 499.243V497.241C1658.76 496.907 1658.32 496.238 1658.32 495.467V484C1658.32 482.895 1659.22 482 1660.32 482H1679.95Z" fill="#89C599"/>
<path fill-rule="evenodd" clip-rule="evenodd" d="M1679.09 482.859C1680.2 482.859 1681.09 483.755 1681.09 484.859V496.327C1681.09 497.431 1680.2 498.327 1679.09 498.327H1663.33L1660.16 500.881C1659.51 501.408 1658.54 500.943 1658.54 500.103V498.1C1657.9 497.766 1657.46 497.097 1657.46 496.327V484.859C1657.46 483.755 1658.36 482.859 1659.46 482.859H1679.09Z" fill="#87F2C5"/>
<rect width="2.144" height="8.82052" rx="1.072" transform="matrix(0.899592 -0.436732 0.56603 0.824385 1663.9 488.043)" fill="white"/>
<rect width="2.144" height="11.6517" rx="1.072" transform="matrix(0.899592 0.436732 -0.56603 0.824385 1674.51 484.974)" fill="white"/>
</g>
<g opacity="0.584">
<path fill-rule="evenodd" clip-rule="evenodd" d="M1603.41 377C1604.52 377 1605.41 377.895 1605.41 379V406.207C1605.41 407.312 1604.52 408.207 1603.41 408.207H1569.58L1561.53 414.697C1560.87 415.224 1559.9 414.758 1559.9 413.918V408.207H1559.73C1558.63 408.207 1557.73 407.312 1557.73 406.207V379C1557.73 377.895 1558.63 377 1559.73 377H1603.41Z" fill="#89C599"/>
<path fill-rule="evenodd" clip-rule="evenodd" d="M1601.68 378.734C1602.78 378.734 1603.68 379.629 1603.68 380.734V407.941C1603.68 409.046 1602.78 409.941 1601.68 409.941H1567.84L1559.79 416.43C1559.14 416.958 1558.17 416.492 1558.17 415.652V409.941H1558C1556.9 409.941 1556 409.046 1556 407.941V380.734C1556 379.629 1556.9 378.734 1558 378.734H1601.68Z" fill="#87F2C5"/>
<rect width="4.32576" height="17.7964" rx="2.16288" transform="matrix(0.899592 -0.436732 0.56603 0.824385 1569 389.193)" fill="white"/>
<rect width="4.32576" height="23.5086" rx="2.16288" transform="matrix(0.899592 0.436732 -0.56603 0.824385 1590.39 383)" fill="white"/>
</g>
<g opacity="0.584">
<path fill-rule="evenodd" clip-rule="evenodd" d="M1603.41 256C1604.52 256 1605.41 256.895 1605.41 258V285.207C1605.41 286.312 1604.52 287.207 1603.41 287.207H1569.58L1561.53 293.697C1560.87 294.224 1559.9 293.758 1559.9 292.918V287.207H1559.73C1558.63 287.207 1557.73 286.312 1557.73 285.207V258C1557.73 256.895 1558.63 256 1559.73 256H1603.41Z" fill="#89C599"/>
<path fill-rule="evenodd" clip-rule="evenodd" d="M1601.68 257.734C1602.78 257.734 1603.68 258.629 1603.68 259.734V286.941C1603.68 288.046 1602.78 288.941 1601.68 288.941H1567.84L1559.79 295.43C1559.14 295.958 1558.17 295.492 1558.17 294.652V288.941H1558C1556.9 288.941 1556 288.046 1556 286.941V259.734C1556 258.629 1556.9 257.734 1558 257.734H1601.68Z" fill="#87F2C5"/>
<rect width="4.32576" height="17.7964" rx="2.16288" transform="matrix(0.899592 -0.436732 0.56603 0.824385 1569 268.193)" fill="white"/>
<rect width="4.32576" height="23.5086" rx="2.16288" transform="matrix(0.899592 0.436732 -0.56603 0.824385 1590.39 262)" fill="white"/>
</g>
<path fill-rule="evenodd" clip-rule="evenodd" d="M1608.17 102C1609.62 102 1610.8 103.174 1610.8 104.623V140.301C1610.8 141.75 1609.62 142.924 1608.17 142.924H1563.8L1553.25 151.433C1552.39 152.125 1551.12 151.514 1551.12 150.412V142.924H1550.9C1549.45 142.924 1548.27 141.75 1548.27 140.301V104.623C1548.27 103.174 1549.45 102 1550.9 102H1608.17Z" fill="#89C599"/>
<path fill-rule="evenodd" clip-rule="evenodd" d="M1605.9 104.273C1607.35 104.273 1608.52 105.448 1608.52 106.896V142.574C1608.52 144.023 1607.35 145.197 1605.9 145.197H1561.53L1550.98 153.707C1550.12 154.398 1548.84 153.788 1548.84 152.686V145.197H1548.62C1547.17 145.197 1546 144.023 1546 142.574V106.896C1546 105.448 1547.17 104.273 1548.62 104.273H1605.9Z" fill="#87F2C5"/>
<rect width="5.67257" height="23.3372" rx="2.83629" transform="matrix(0.899592 -0.436732 0.56603 0.824385 1563.05 117.989)" fill="white"/>
<rect width="5.67257" height="30.828" rx="2.83629" transform="matrix(0.899592 0.436732 -0.56603 0.824385 1591.1 109.868)" fill="white"/>
<g opacity="0.584">
<path fill-rule="evenodd" clip-rule="evenodd" d="M1530.41 476C1531.52 476 1532.41 476.895 1532.41 478V505.207C1532.41 506.312 1531.52 507.207 1530.41 507.207H1496.58L1488.53 513.697C1487.87 514.224 1486.9 513.758 1486.9 512.918V507.207H1486.73C1485.63 507.207 1484.73 506.312 1484.73 505.207V478C1484.73 476.895 1485.63 476 1486.73 476H1530.41Z" fill="#89C599"/>
<path fill-rule="evenodd" clip-rule="evenodd" d="M1528.68 477.734C1529.78 477.734 1530.68 478.629 1530.68 479.734V506.941C1530.68 508.046 1529.78 508.941 1528.68 508.941H1494.84L1486.79 515.43C1486.14 515.958 1485.17 515.492 1485.17 514.652V508.941H1485C1483.9 508.941 1483 508.046 1483 506.941V479.734C1483 478.629 1483.9 477.734 1485 477.734H1528.68Z" fill="#87F2C5"/>
<rect width="4.32576" height="17.7964" rx="2.16288" transform="matrix(0.899592 -0.436732 0.56603 0.824385 1496 488.193)" fill="white"/>
<rect width="4.32576" height="23.5086" rx="2.16288" transform="matrix(0.899592 0.436732 -0.56603 0.824385 1517.39 482)" fill="white"/>
</g>
<rect x="1543" y="208" width="77" height="261" fill="#87F2C5" fill-opacity="0.068"/>
<rect x="1550" y="208" width="63" height="258" fill="#CEFFDB" fill-opacity="0.29"/>
<path d="M1695 469L1695 509L1495 519L1495 464L1695 469Z" fill="#87F2C5" fill-opacity="0.068"/>
<path d="M1695 472L1695 506L1495 514L1495 469L1695 472Z" fill="#CEFFDB" fill-opacity="0.29"/>
<g filter="url(#filter0_f)">
<path d="M1608 466L1550 466L1550 227L1553.09 227C1553.09 227 1552.85 292.118 1564.69 362.345C1579.39 449.494 1608 466 1608 466Z" fill="white" fill-opacity="0.49"/>
</g>
<path d="M1749.25 330.101C1738.87 329.747 1730.5 337.979 1728.06 345.111C1725.03 353.941 1732.38 398.532 1753.14 398.532C1769.29 398.532 1778.23 357.032 1775.2 347.319C1772.18 337.606 1762.23 330.542 1749.25 330.101Z" fill="#FDA98B"/>
<path d="M1772.84 347.2C1770.43 337.096 1730.5 337.979 1728.06 345.111C1725.03 353.941 1732.38 398.532 1753.14 398.532C1769.29 398.532 1740.39 392.632 1738.03 359.001C1737.31 348.852 1775.79 359.591 1772.84 347.2Z" fill="#D2917A"/>
<path d="M1765.51 349.553C1757.5 348.38 1729.96 356.813 1728 365.491C1723.48 358.64 1719.52 334.718 1727.91 328.999C1736.31 323.28 1746.13 325.127 1751.52 328.999C1753.27 328.403 1758.96 326.282 1769.3 330.68C1777.12 334.006 1782.28 351.92 1775.79 364.311C1773.23 359.173 1772.44 350.567 1765.51 349.553Z" fill="#6F5D5D"/>
<path d="M1765.51 349.554C1757.5 348.381 1729.96 356.813 1728 365.491C1723.48 358.64 1719.52 334.719 1727.91 328.999C1725.64 333.63 1723.87 344.25 1733.31 346.02C1740.86 347.436 1759.27 343.07 1765.51 349.554Z" fill="#584646"/>
<path d="M149.5 479L152 477.5" stroke="#323232" stroke-linecap="round"/>
<rect width="151" height="98" rx="4" transform="matrix(1 0 0 -1 1344 538)" fill="#E8E8E8"/>
<rect x="1383" y="538" width="73" height="4" fill="#919191"/>
<path d="M1344 444C1344 443.07 1344.32 442.214 1344.85 441.535C1346.12 439.915 1348.16 441.54 1348.45 443.577C1349.97 454.146 1355.78 485.693 1373 505C1395.72 530.467 1472.62 533.57 1491.02 533.948C1493.23 533.993 1495.02 536.171 1493.16 537.366C1492.54 537.767 1491.8 538 1491 538H1348C1345.79 538 1344 536.209 1344 534V444Z" fill="#D0D0D0"/>
<path d="M1316 542H1856V670.854C1856 671.487 1855.49 672 1854.85 672H1317.15C1316.51 672 1316 671.487 1316 670.854V542Z" fill="#2F80ED"/>
<path d="M1316 542H1856C1856 542 1697.42 552.523 1540.01 566.088C1378.25 580.028 1325.07 580.709 1317.1 580.723C1316.48 580.724 1316 580.216 1316 579.589V542Z" fill="#216ACD"/>
<rect x="1314" y="649.872" width="544" height="8.29787" rx="1.14622" fill="#E5E5E5"/>
<path d="M1616 200C1618.21 200 1620 201.791 1620 204L1620 208L1543 208L1543 204C1543 201.791 1544.79 200 1547 200L1616 200Z" fill="#87F2C5"/>
<path d="M1690 474C1690 471.791 1691.79 470 1694 470H1695V510H1694C1691.79 510 1690 508.209 1690 506V474Z" fill="#87F2C5"/>
<circle cx="1419" cy="489" r="14" fill="white" fill-opacity="0.308"/>
<path d="M1415.63 480.964L1419.49 491.869L1423.33 480.964H1427.4V496H1424.29V491.89L1424.6 484.795L1420.54 496H1418.42L1414.37 484.806L1414.68 491.89V496H1411.58V480.964H1415.63Z" fill="white"/>
<path d="M1832.89 654.888L1833.81 652.471H1835V656H1834.05V653.835L1833.21 656H1832.58L1831.75 653.871V656H1830.8V652.471H1831.98L1832.89 654.888ZM1839.78 653.734C1839.78 654.201 1839.7 654.611 1839.53 654.963C1839.37 655.315 1839.13 655.587 1838.82 655.778C1838.51 655.97 1838.16 656.065 1837.76 656.065C1837.37 656.065 1837.02 655.971 1836.71 655.782C1836.4 655.592 1836.16 655.323 1835.99 654.973C1835.82 654.621 1835.74 654.216 1835.74 653.76V653.525C1835.74 653.057 1835.82 652.647 1835.99 652.292C1836.16 651.936 1836.39 651.663 1836.7 651.474C1837.01 651.282 1837.36 651.187 1837.76 651.187C1838.15 651.187 1838.5 651.282 1838.81 651.474C1839.12 651.663 1839.36 651.936 1839.53 652.292C1839.69 652.647 1839.78 653.056 1839.78 653.522V653.734ZM1838.79 653.518C1838.79 653.02 1838.7 652.642 1838.52 652.383C1838.34 652.125 1838.09 651.995 1837.76 651.995C1837.43 651.995 1837.18 652.124 1837 652.38C1836.82 652.635 1836.73 653.008 1836.73 653.502V653.734C1836.73 654.218 1836.82 654.594 1836.99 654.862C1837.17 655.129 1837.43 655.263 1837.76 655.263C1838.09 655.263 1838.34 655.135 1838.52 654.878C1838.7 654.619 1838.79 654.243 1838.79 653.75V653.518ZM1843.49 656H1842.54V654.643H1841.37V656H1840.43V652.471H1841.37V653.887H1842.54V652.471H1843.49V656ZM1845.6 654.699H1845.22V656H1844.28V652.471H1845.22V653.799H1845.56L1846.33 652.471H1847.52L1846.36 654.151L1847.63 656H1846.37L1845.6 654.699Z" fill="white"/>
<path d="M1752.78 376.521C1747.06 376.521 1736.04 382.257 1732.17 379.472C1731.58 389.88 1735.54 410.303 1741.26 413.821C1748.4 418.219 1761.31 414.39 1763.99 407.793C1766.13 402.515 1771.76 387.974 1770.87 379.472C1765.81 382.257 1758.49 376.521 1752.78 376.521Z" fill="#6F5D5D"/>
<path d="M1741.26 413.821C1748.4 418.219 1761.31 414.389 1763.99 407.793C1761.04 407.793 1753.96 407.793 1748.06 401.892C1741.93 395.765 1741.26 386.552 1741.26 379.184C1737.5 380.188 1734.02 380.802 1732.17 379.472C1731.58 389.88 1735.54 410.303 1741.26 413.821Z" fill="#584646"/>
<circle r="6.19005" transform="matrix(-0.939781 0.341777 0.341777 0.939781 1743.08 369.645)" fill="#D1D1D1" stroke="#323232" stroke-width="1.03168"/>
<circle r="6.19005" transform="matrix(-0.939781 0.341777 0.341777 0.939781 1760.78 369.645)" fill="#D1D1D1" stroke="#323232" stroke-width="1.03168"/>
<circle r="6.19005" transform="matrix(-0.939781 0.341777 0.341777 0.939781 1743.08 370.645)" fill="#D1D1D1" stroke="#323232" stroke-width="1.03168"/>
<circle r="6.19005" transform="matrix(-0.939781 0.341777 0.341777 0.939781 1760.78 370.645)" fill="#D1D1D1" stroke="#323232" stroke-width="1.03168"/>
<path d="M1756.91 381.242C1756.91 381.242 1754.79 383.012 1752.19 383.012C1749.58 383.012 1747.47 381.242 1747.47 381.242C1747.47 381.242 1749.58 379.471 1752.19 379.471C1754.79 379.471 1756.91 381.242 1756.91 381.242Z" fill="#B48888"/>
<path d="M1729.18 367.851L1736.85 370.131M1748.24 370.131H1755.55M1766.94 370.131L1774.02 366.671" stroke="#323232" stroke-width="1.18005" stroke-linecap="round"/>
<ellipse cx="1728.74" cy="370.578" rx="2.36009" ry="4.70173" transform="rotate(-41.4023 1728.74 370.578)" fill="#D2917A"/>
<ellipse rx="2.36009" ry="4.70173" transform="matrix(-0.750085 -0.661342 -0.661342 0.750085 1773.59 369.398)" fill="#FDA98B"/>
<path d="M1733 571V542H1771V593C1771 616.748 1751.75 636 1728 636H1224V586H1374C1380.63 586 1386 580.627 1386 574V542H1453V574C1453 580.627 1458.37 586 1465 586H1718C1726.28 586 1733 579.284 1733 571Z" fill="#FFE7ED" fill-opacity="0.744"/>
<g opacity="0.24">
<path fill-rule="evenodd" clip-rule="evenodd" d="M1325.41 592C1326.52 592 1327.41 592.895 1327.41 594V621.207C1327.41 622.312 1326.52 623.207 1325.41 623.207H1291.58L1283.53 629.697C1282.87 630.224 1281.9 629.759 1281.9 628.918V623.207H1281.73C1280.63 623.207 1279.73 622.312 1279.73 621.207V594C1279.73 592.895 1280.63 592 1281.73 592H1325.41Z" fill="#F3A2B8"/>
<path fill-rule="evenodd" clip-rule="evenodd" d="M1323.68 593.734C1324.78 593.734 1325.68 594.629 1325.68 595.734V622.941C1325.68 624.046 1324.78 624.941 1323.68 624.941H1289.84L1281.79 631.43C1281.14 631.958 1280.17 631.492 1280.17 630.652V624.941H1280C1278.9 624.941 1278 624.046 1278 622.941V595.734C1278 594.629 1278.9 593.734 1280 593.734H1323.68Z" fill="#F74364"/>
<rect width="2.21353" height="14.7569" rx="1.10677" transform="matrix(-0.707107 -0.707107 -0.707107 0.707107 1323.23 604.364)" fill="#EFF3FF"/>
<rect width="2.21353" height="14.7569" rx="1.10677" transform="matrix(-0.707107 0.707107 0.707107 0.707107 1312.79 602.799)" fill="#EFF3FF"/>
<line x1="1" y1="-1" x2="23" y2="-1" transform="matrix(-1 8.74228e-08 8.74228e-08 1 1307.23 603.799)" stroke="#EFF3FF" stroke-width="2" stroke-linecap="round"/>
<line x1="1" y1="-1" x2="23" y2="-1" transform="matrix(-1 8.74228e-08 8.74228e-08 1 1307.23 609.799)" stroke="#EFF3FF" stroke-width="2" stroke-linecap="round"/>
<line x1="1" y1="-1" x2="23" y2="-1" transform="matrix(-1 8.74228e-08 8.74228e-08 1 1307.23 615.799)" stroke="#EFF3FF" stroke-width="2" stroke-linecap="round"/>
</g>
<g opacity="0.24">
<path fill-rule="evenodd" clip-rule="evenodd" d="M1608.84 600.355C1609.48 600.355 1610 600.874 1610 601.513V617.254C1610 617.893 1609.48 618.411 1608.84 618.411H1589.27L1584.61 622.166C1584.23 622.471 1583.67 622.202 1583.67 621.715V618.411H1583.57C1582.93 618.411 1582.41 617.893 1582.41 617.254V601.513C1582.41 600.874 1582.93 600.355 1583.57 600.355H1608.84Z" fill="#F3A2B8"/>
<path fill-rule="evenodd" clip-rule="evenodd" d="M1607.84 601.359C1608.48 601.359 1609 601.877 1609 602.516V618.257C1609 618.896 1608.48 619.415 1607.84 619.415H1588.26L1583.61 623.169C1583.23 623.474 1582.67 623.205 1582.67 622.719V619.415H1582.57C1581.93 619.415 1581.41 618.896 1581.41 618.257V602.516C1581.41 601.877 1581.93 601.359 1582.57 601.359H1607.84Z" fill="#F74364"/>
<rect width="1.2807" height="8.53798" rx="0.640349" transform="matrix(-0.707107 -0.707107 -0.707107 0.707107 1607.58 607.509)" fill="#EFF3FF"/>
<rect width="1.2807" height="8.53798" rx="0.640349" transform="matrix(-0.707107 0.707107 0.707107 0.707107 1601.54 606.604)" fill="#EFF3FF"/>
<line x1="0.578577" y1="-0.578577" x2="13.3073" y2="-0.578577" transform="matrix(-1 8.74228e-08 8.74228e-08 1 1598.32 607.182)" stroke="#EFF3FF" stroke-width="1.15715" stroke-linecap="round"/>
<line x1="0.578577" y1="-0.578577" x2="13.3073" y2="-0.578577" transform="matrix(-1 8.74228e-08 8.74228e-08 1 1598.32 610.654)" stroke="#EFF3FF" stroke-width="1.15715" stroke-linecap="round"/>
<line x1="0.578577" y1="-0.578577" x2="13.3073" y2="-0.578577" transform="matrix(-1 8.74228e-08 8.74228e-08 1 1598.32 614.125)" stroke="#EFF3FF" stroke-width="1.15715" stroke-linecap="round"/>
</g>
<g opacity="0.24">
<path fill-rule="evenodd" clip-rule="evenodd" d="M1763.09 546.763C1763.59 546.763 1764 547.173 1764 547.677V560.115C1764 560.62 1763.59 561.03 1763.09 561.03H1747.62L1743.94 563.996C1743.64 564.237 1743.19 564.024 1743.19 563.64V561.03H1743.12C1742.61 561.03 1742.2 560.62 1742.2 560.115V547.677C1742.2 547.173 1742.61 546.763 1743.12 546.763H1763.09Z" fill="#F3A2B8"/>
<path fill-rule="evenodd" clip-rule="evenodd" d="M1762.29 547.556C1762.8 547.556 1763.21 547.965 1763.21 548.47V560.908C1763.21 561.413 1762.8 561.822 1762.29 561.822H1746.82L1743.15 564.788C1742.85 565.03 1742.4 564.817 1742.4 564.433V561.822H1742.33C1741.82 561.822 1741.41 561.413 1741.41 560.908V548.47C1741.41 547.965 1741.82 547.556 1742.33 547.556H1762.29Z" fill="#F74364"/>
<rect width="1.01191" height="6.74607" rx="0.505956" transform="matrix(-0.707107 -0.707107 -0.707107 0.707107 1762.09 552.415)" fill="#EFF3FF"/>
<rect width="1.01191" height="6.74607" rx="0.505956" transform="matrix(-0.707107 0.707107 0.707107 0.707107 1757.32 551.7)" fill="#EFF3FF"/>
<line x1="0.457148" y1="-0.457148" x2="10.5144" y2="-0.457148" transform="matrix(-1 8.74228e-08 8.74228e-08 1 1754.77 552.157)" stroke="#EFF3FF" stroke-width="0.914296" stroke-linecap="round"/>
<line x1="0.457148" y1="-0.457148" x2="10.5144" y2="-0.457148" transform="matrix(-1 8.74228e-08 8.74228e-08 1 1754.77 554.9)" stroke="#EFF3FF" stroke-width="0.914296" stroke-linecap="round"/>
<line x1="0.457148" y1="-0.457148" x2="10.5144" y2="-0.457148" transform="matrix(-1 8.74228e-08 8.74228e-08 1 1754.77 557.643)" stroke="#EFF3FF" stroke-width="0.914296" stroke-linecap="round"/>
</g>
<g opacity="0.24">
<path fill-rule="evenodd" clip-rule="evenodd" d="M1442.41 571C1443.52 571 1444.41 571.895 1444.41 573V600.207C1444.41 601.312 1443.52 602.207 1442.41 602.207H1408.58L1400.53 608.697C1399.87 609.224 1398.9 608.759 1398.9 607.918V602.207H1398.73C1397.63 602.207 1396.73 601.312 1396.73 600.207V573C1396.73 571.895 1397.63 571 1398.73 571H1442.41Z" fill="#F3A2B8"/>
<path fill-rule="evenodd" clip-rule="evenodd" d="M1440.68 572.734C1441.78 572.734 1442.68 573.629 1442.68 574.734V601.941C1442.68 603.046 1441.78 603.941 1440.68 603.941H1406.84L1398.79 610.43C1398.14 610.958 1397.17 610.492 1397.17 609.652V603.941H1397C1395.9 603.941 1395 603.046 1395 601.941V574.734C1395 573.629 1395.9 572.734 1397 572.734H1440.68Z" fill="#F74364"/>
<rect width="2.21353" height="14.7569" rx="1.10677" transform="matrix(-0.707107 -0.707107 -0.707107 0.707107 1440.23 583.364)" fill="#EFF3FF"/>
<rect width="2.21353" height="14.7569" rx="1.10677" transform="matrix(-0.707107 0.707107 0.707107 0.707107 1429.79 581.799)" fill="#EFF3FF"/>
<line x1="1" y1="-1" x2="23" y2="-1" transform="matrix(-1 8.74228e-08 8.74228e-08 1 1424.23 582.799)" stroke="#EFF3FF" stroke-width="2" stroke-linecap="round"/>
<line x1="1" y1="-1" x2="23" y2="-1" transform="matrix(-1 8.74228e-08 8.74228e-08 1 1424.23 588.799)" stroke="#EFF3FF" stroke-width="2" stroke-linecap="round"/>
<line x1="1" y1="-1" x2="23" y2="-1" transform="matrix(-1 8.74228e-08 8.74228e-08 1 1424.23 594.799)" stroke="#EFF3FF" stroke-width="2" stroke-linecap="round"/>
</g>
<g opacity="0.24">
<path fill-rule="evenodd" clip-rule="evenodd" d="M1723.25 604.368C1723.66 604.368 1724 604.705 1724 605.121V615.356C1724 615.771 1723.66 616.108 1723.25 616.108H1710.52L1707.49 618.549C1707.25 618.748 1706.88 618.573 1706.88 618.257V616.108H1706.82C1706.4 616.108 1706.06 615.771 1706.06 615.356V605.121C1706.06 604.705 1706.4 604.368 1706.82 604.368H1723.25Z" fill="#F3A2B8"/>
<path fill-rule="evenodd" clip-rule="evenodd" d="M1722.6 605.02C1723.01 605.02 1723.35 605.357 1723.35 605.773V616.008C1723.35 616.423 1723.01 616.76 1722.6 616.76H1709.87L1706.84 619.202C1706.59 619.4 1706.23 619.225 1706.23 618.909V616.76H1706.16C1705.75 616.76 1705.41 616.423 1705.41 616.008V605.773C1705.41 605.357 1705.75 605.02 1706.16 605.02H1722.6Z" fill="#F74364"/>
<rect width="0.83272" height="5.55147" rx="0.41636" transform="matrix(-0.707107 -0.707107 -0.707107 0.707107 1722.43 609.019)" fill="#EFF3FF"/>
<rect width="0.83272" height="5.55147" rx="0.41636" transform="matrix(-0.707107 0.707107 0.707107 0.707107 1718.5 608.43)" fill="#EFF3FF"/>
<line x1="0.376196" y1="-0.376196" x2="8.6525" y2="-0.376196" transform="matrix(-1 8.74228e-08 8.74228e-08 1 1716.41 608.807)" stroke="#EFF3FF" stroke-width="0.752391" stroke-linecap="round"/>
<line x1="0.376196" y1="-0.376196" x2="8.6525" y2="-0.376196" transform="matrix(-1 8.74228e-08 8.74228e-08 1 1716.41 611.064)" stroke="#EFF3FF" stroke-width="0.752391" stroke-linecap="round"/>
<line x1="0.376196" y1="-0.376196" x2="8.6525" y2="-0.376196" transform="matrix(-1 8.74228e-08 8.74228e-08 1 1716.41 613.321)" stroke="#EFF3FF" stroke-width="0.752391" stroke-linecap="round"/>
</g>
<g opacity="0.24">
<path fill-rule="evenodd" clip-rule="evenodd" d="M1233.41 596C1234.52 596 1235.41 596.895 1235.41 598V625.207C1235.41 626.312 1234.52 627.207 1233.41 627.207H1199.58L1191.53 633.697C1190.87 634.224 1189.9 633.759 1189.9 632.918V627.207H1189.73C1188.63 627.207 1187.73 626.312 1187.73 625.207V598C1187.73 596.895 1188.63 596 1189.73 596H1233.41Z" fill="#F3A2B8"/>
<path fill-rule="evenodd" clip-rule="evenodd" d="M1231.68 597.734C1232.78 597.734 1233.68 598.629 1233.68 599.734V626.941C1233.68 628.046 1232.78 628.941 1231.68 628.941H1197.84L1189.79 635.43C1189.14 635.958 1188.17 635.492 1188.17 634.652V628.941H1188C1186.9 628.941 1186 628.046 1186 626.941V599.734C1186 598.629 1186.9 597.734 1188 597.734H1231.68Z" fill="#F74364"/>
<rect width="2.21353" height="14.7569" rx="1.10677" transform="matrix(-0.707107 -0.707107 -0.707107 0.707107 1231.23 608.364)" fill="#EFF3FF"/>
<rect width="2.21353" height="14.7569" rx="1.10677" transform="matrix(-0.707107 0.707107 0.707107 0.707107 1220.79 606.799)" fill="#EFF3FF"/>
<line x1="1" y1="-1" x2="23" y2="-1" transform="matrix(-1 8.74228e-08 8.74228e-08 1 1215.23 607.799)" stroke="#EFF3FF" stroke-width="2" stroke-linecap="round"/>
<line x1="1" y1="-1" x2="23" y2="-1" transform="matrix(-1 8.74228e-08 8.74228e-08 1 1215.23 613.799)" stroke="#EFF3FF" stroke-width="2" stroke-linecap="round"/>
<line x1="1" y1="-1" x2="23" y2="-1" transform="matrix(-1 8.74228e-08 8.74228e-08 1 1215.23 619.799)" stroke="#EFF3FF" stroke-width="2" stroke-linecap="round"/>
</g>
<g opacity="0.784">
<mask id="mask4" mask-type="alpha" maskUnits="userSpaceOnUse" x="1176" y="581" width="50" height="57">
<rect x="1176" y="581" width="50" height="57" fill="#C4C4C4"/>
</mask>
<g mask="url(#mask4)">
<path fill-rule="evenodd" clip-rule="evenodd" d="M1233.41 596C1234.52 596 1235.41 596.895 1235.41 598V625.207C1235.41 626.312 1234.52 627.207 1233.41 627.207H1199.58L1191.53 633.697C1190.87 634.224 1189.9 633.759 1189.9 632.918V627.207H1189.73C1188.63 627.207 1187.73 626.312 1187.73 625.207V598C1187.73 596.895 1188.63 596 1189.73 596H1233.41Z" fill="#F3A2B8"/>
<path fill-rule="evenodd" clip-rule="evenodd" d="M1231.68 597.734C1232.78 597.734 1233.68 598.629 1233.68 599.734V626.941C1233.68 628.046 1232.78 628.941 1231.68 628.941H1197.84L1189.79 635.43C1189.14 635.958 1188.17 635.492 1188.17 634.652V628.941H1188C1186.9 628.941 1186 628.046 1186 626.941V599.734C1186 598.629 1186.9 597.734 1188 597.734H1231.68Z" fill="#F74364"/>
<rect width="2.21353" height="14.7569" rx="1.10677" transform="matrix(-0.707107 -0.707107 -0.707107 0.707107 1231.23 608.364)" fill="#EFF3FF"/>
<rect width="2.21353" height="14.7569" rx="1.10677" transform="matrix(-0.707107 0.707107 0.707107 0.707107 1220.79 606.799)" fill="#EFF3FF"/>
<line x1="1" y1="-1" x2="23" y2="-1" transform="matrix(-1 8.74228e-08 8.74228e-08 1 1215.23 607.799)" stroke="#EFF3FF" stroke-width="2" stroke-linecap="round"/>
<line x1="1" y1="-1" x2="23" y2="-1" transform="matrix(-1 8.74228e-08 8.74228e-08 1 1215.23 613.799)" stroke="#EFF3FF" stroke-width="2" stroke-linecap="round"/>
<line x1="1" y1="-1" x2="23" y2="-1" transform="matrix(-1 8.74228e-08 8.74228e-08 1 1215.23 619.799)" stroke="#EFF3FF" stroke-width="2" stroke-linecap="round"/>
</g>
</g>
<g opacity="0.784">
<path fill-rule="evenodd" clip-rule="evenodd" d="M1128.75 603C1129.52 603 1130.14 603.619 1130.14 604.382V623.178C1130.14 623.941 1129.52 624.56 1128.75 624.56H1105.38L1099.82 629.042C1099.37 629.407 1098.7 629.085 1098.7 628.505V624.56H1098.58C1097.82 624.56 1097.2 623.941 1097.2 623.178V604.382C1097.2 603.619 1097.82 603 1098.58 603H1128.75Z" fill="#F3A2B8"/>
<path fill-rule="evenodd" clip-rule="evenodd" d="M1127.56 604.198C1128.32 604.198 1128.94 604.816 1128.94 605.579V624.376C1128.94 625.139 1128.32 625.757 1127.56 625.757H1104.18L1098.62 630.24C1098.17 630.604 1097.5 630.283 1097.5 629.702V625.757H1097.38C1096.62 625.757 1096 625.139 1096 624.376V605.579C1096 604.816 1096.62 604.198 1097.38 604.198H1127.56Z" fill="#F74364"/>
<rect width="1.52922" height="10.1948" rx="0.764611" transform="matrix(-0.707107 -0.707107 -0.707107 0.707107 1127.25 611.541)" fill="#EFF3FF"/>
<rect width="1.52922" height="10.1948" rx="0.764611" transform="matrix(-0.707107 0.707107 0.707107 0.707107 1120.04 610.46)" fill="#EFF3FF"/>
<line x1="0.690852" y1="-0.690852" x2="15.8896" y2="-0.690852" transform="matrix(-1 8.74228e-08 8.74228e-08 1 1116.19 611.151)" stroke="#EFF3FF" stroke-width="1.3817" stroke-linecap="round"/>
<line x1="0.690852" y1="-0.690852" x2="15.8896" y2="-0.690852" transform="matrix(-1 8.74228e-08 8.74228e-08 1 1116.19 615.296)" stroke="#EFF3FF" stroke-width="1.3817" stroke-linecap="round"/>
<line x1="0.690852" y1="-0.690852" x2="15.8896" y2="-0.690852" transform="matrix(-1 8.74228e-08 8.74228e-08 1 1116.19 619.441)" stroke="#EFF3FF" stroke-width="1.3817" stroke-linecap="round"/>
</g>
<g opacity="0.784">
<path fill-rule="evenodd" clip-rule="evenodd" d="M1051.75 603C1052.52 603 1053.14 603.619 1053.14 604.382V623.178C1053.14 623.941 1052.52 624.56 1051.75 624.56H1028.38L1022.82 629.042C1022.37 629.407 1021.7 629.085 1021.7 628.505V624.56H1021.58C1020.82 624.56 1020.2 623.941 1020.2 623.178V604.382C1020.2 603.619 1020.82 603 1021.58 603H1051.75Z" fill="#F3A2B8"/>
<path fill-rule="evenodd" clip-rule="evenodd" d="M1050.56 604.198C1051.32 604.198 1051.94 604.816 1051.94 605.579V624.376C1051.94 625.139 1051.32 625.757 1050.56 625.757H1027.18L1021.62 630.24C1021.17 630.604 1020.5 630.283 1020.5 629.702V625.757H1020.38C1019.62 625.757 1019 625.139 1019 624.376V605.579C1019 604.816 1019.62 604.198 1020.38 604.198H1050.56Z" fill="#F74364"/>
<rect width="1.52922" height="10.1948" rx="0.764611" transform="matrix(-0.707107 -0.707107 -0.707107 0.707107 1050.25 611.541)" fill="#EFF3FF"/>
<rect width="1.52922" height="10.1948" rx="0.764611" transform="matrix(-0.707107 0.707107 0.707107 0.707107 1043.04 610.46)" fill="#EFF3FF"/>
<line x1="0.690852" y1="-0.690852" x2="15.8896" y2="-0.690852" transform="matrix(-1 8.74228e-08 8.74228e-08 1 1039.19 611.151)" stroke="#EFF3FF" stroke-width="1.3817" stroke-linecap="round"/>
<line x1="0.690852" y1="-0.690852" x2="15.8896" y2="-0.690852" transform="matrix(-1 8.74228e-08 8.74228e-08 1 1039.19 615.296)" stroke="#EFF3FF" stroke-width="1.3817" stroke-linecap="round"/>
<line x1="0.690852" y1="-0.690852" x2="15.8896" y2="-0.690852" transform="matrix(-1 8.74228e-08 8.74228e-08 1 1039.19 619.441)" stroke="#EFF3FF" stroke-width="1.3817" stroke-linecap="round"/>
</g>
<g opacity="0.784">
<path fill-rule="evenodd" clip-rule="evenodd" d="M1004.41 598C1005.52 598 1006.41 598.895 1006.41 600V627.207C1006.41 628.312 1005.52 629.207 1004.41 629.207H970.575L962.529 635.697C961.875 636.224 960.901 635.759 960.901 634.918V629.207H960.734C959.629 629.207 958.734 628.312 958.734 627.207V600C958.734 598.895 959.629 598 960.734 598H1004.41Z" fill="#F3A2B8"/>
<path fill-rule="evenodd" clip-rule="evenodd" d="M1002.68 599.734C1003.78 599.734 1004.68 600.629 1004.68 601.734V628.941C1004.68 630.046 1003.78 630.941 1002.68 630.941H968.841L960.794 637.43C960.14 637.958 959.167 637.492 959.167 636.652V630.941H959C957.895 630.941 957 630.046 957 628.941V601.734C957 600.629 957.895 599.734 959 599.734H1002.68Z" fill="#F74364"/>
<rect width="2.21353" height="14.7569" rx="1.10677" transform="matrix(-0.707107 -0.707107 -0.707107 0.707107 1002.23 610.364)" fill="#EFF3FF"/>
<rect width="2.21353" height="14.7569" rx="1.10677" transform="matrix(-0.707107 0.707107 0.707107 0.707107 991.794 608.799)" fill="#EFF3FF"/>
<line x1="1" y1="-1" x2="23" y2="-1" transform="matrix(-1 8.74228e-08 8.74228e-08 1 986.229 609.799)" stroke="#EFF3FF" stroke-width="2" stroke-linecap="round"/>
<line x1="1" y1="-1" x2="23" y2="-1" transform="matrix(-1 8.74228e-08 8.74228e-08 1 986.229 615.799)" stroke="#EFF3FF" stroke-width="2" stroke-linecap="round"/>
<line x1="1" y1="-1" x2="23" y2="-1" transform="matrix(-1 8.74228e-08 8.74228e-08 1 986.229 621.799)" stroke="#EFF3FF" stroke-width="2" stroke-linecap="round"/>
</g>
<rect x="1715" y="538" width="73" height="4" fill="#919191"/>
<path d="M1734 550C1731.79 550 1730 548.209 1730 546L1730 542L1773 542L1773 546C1773 548.209 1771.21 550 1769 550L1734 550Z" fill="#F74364"/>
<rect x="1316" y="620" width="425" height="10" rx="5" fill="#B8AAE0" fill-opacity="0.34"/>
<rect x="1755" y="603" width="50" height="12" rx="6" transform="rotate(-90 1755 603)" fill="#B8AAE0" fill-opacity="0.34"/>
<rect x="1436" y="576" width="23" height="12" rx="6" transform="rotate(-90 1436 576)" fill="#B8AAE0" fill-opacity="0.34"/>
<rect x="1737" y="565" width="23" height="3" rx="1.5" transform="rotate(-90 1737 565)" fill="white" fill-opacity="0.216"/>
<rect x="1228" y="620" width="92" height="10" rx="5" fill="#EBCCE2" fill-opacity="0.49"/>
<rect x="1228" y="591" width="92" height="4" rx="2" fill="white" fill-opacity="0.546"/>
<path d="M1222 590C1222 587.791 1223.79 586 1226 586L1226 636C1223.79 636 1222 634.209 1222 632L1222 590Z" fill="#F74364"/>
<path d="M1316 585C1316 583.895 1316.9 583 1318 583C1319.1 583 1320 583.895 1320 585V637C1320 638.105 1319.1 639 1318 639C1316.9 639 1316 638.105 1316 637V585Z" fill="#F74364"/>
<path d="M1376 585C1376 583.895 1376.9 583 1378 583C1379.1 583 1380 583.895 1380 585V637C1380 638.105 1379.1 639 1378 639C1376.9 639 1376 638.105 1376 637V585Z" fill="#F74364"/>
<path d="M1458 585C1458 583.895 1458.9 583 1460 583C1461.1 583 1462 583.895 1462 585V637C1462 638.105 1461.1 639 1460 639C1458.9 639 1458 638.105 1458 637V585Z" fill="#F74364"/>
<path d="M1572 585C1572 583.895 1572.9 583 1574 583C1575.1 583 1576 583.895 1576 585V637C1576 638.105 1575.1 639 1574 639C1572.9 639 1572 638.105 1572 637V585Z" fill="#F74364"/>
<path d="M1703 585C1703 583.895 1703.9 583 1705 583C1706.1 583 1707 583.895 1707 585V637C1707 638.105 1706.1 639 1705 639C1703.9 639 1703 638.105 1703 637V585Z" fill="#F74364"/>
<path d="M1222 616C1222 613.791 1223.79 612 1226 612L1226 638C1223.79 638 1222 636.209 1222 634L1222 616Z" fill="#D82D4D"/>
<path d="M1316 611H1320V637C1320 638.105 1319.1 639 1318 639C1316.9 639 1316 638.105 1316 637V611Z" fill="#D82D4D"/>
<path d="M1376 611H1380V639H1376V611Z" fill="#D82D4D"/>
<path d="M1458 611H1462V637C1462 638.105 1461.1 639 1460 639C1458.9 639 1458 638.105 1458 637V611Z" fill="#D82D4D"/>
<path d="M1572 611H1576V637C1576 638.105 1575.1 639 1574 639C1572.9 639 1572 638.105 1572 637V611Z" fill="#D82D4D"/>
<path d="M1703 611H1707V637C1707 638.105 1706.1 639 1705 639C1703.9 639 1703 638.105 1703 637V611Z" fill="#D82D4D"/>
<path d="M1387 550C1384.79 550 1383 548.209 1383 546L1383 542L1456 542L1456 546C1456 548.209 1454.21 550 1452 550L1387 550Z" fill="#F74364"/>
<path d="M1387 550C1384.79 550 1416 548 1432.5 547C1449 546 1456 542 1456 542V546C1456 548.209 1454.21 550 1452 550L1387 550Z" fill="#D52646"/>
<path d="M1732.07 550C1730.76 550 1749.27 548 1759.06 547C1768.85 546 1773 542 1773 542V546C1773 548.209 1771.94 550 1770.63 550L1732.07 550Z" fill="#D52646"/>
<path d="M1316 591H1707V595H1316V591Z" fill="white" fill-opacity="0.216"/>
<path d="M1316 636H1742L1721 644H1316V636Z" fill="#216ACD"/>
<rect x="872" y="596" width="7" height="62" rx="3.5" fill="#383D70"/>
<path d="M872 636L879 637V654.5C879 656.433 877.433 658 875.5 658C873.567 658 872 656.433 872 654.5V636Z" fill="#111326"/>
<rect x="934" y="585" width="5" height="66" rx="2.5" fill="#797FB8"/>
<path d="M934 589H939V593H934L934 589Z" fill="#9EA2CB"/>
<path d="M934 621H939V648.5C939 649.881 937.881 651 936.5 651C935.119 651 934 649.881 934 648.5L934 621Z" fill="#4A4E78"/>
<rect x="854" y="599" width="5" height="38" rx="2.5" fill="#797FB8"/>
<path d="M854 603H859V607H854V603Z" fill="#9EA2CB"/>
<path d="M854 620H859V634.5C859 635.881 857.881 637 856.5 637C855.119 637 854 635.881 854 634.5V620Z" fill="#4A4E78"/>
<path d="M1822.5 470.5C1822.5 462.5 1815.79 446.027 1803 440C1816.5 460 1803 501.5 1803 501.5C1803 501.5 1822.5 481 1822.5 470.5Z" fill="#D2EFF9"/>
<rect x="1695" y="464" width="113" height="74" rx="4" fill="#E8E8E8"/>
<path d="M1695 467.02C1695 466.644 1695.07 466.283 1695.19 465.95C1695.92 464.022 1698.16 465.547 1698.46 467.583C1699.78 476.315 1704.26 499.006 1716.7 513.082C1733.32 531.885 1788.71 534.542 1804.04 534.918C1806.25 534.972 1807.87 537.381 1805.72 537.913C1805.49 537.97 1805.25 538 1805.01 538H1697.99C1696.34 538 1695 536.648 1695 534.98V467.02Z" fill="#D0D0D0"/>
<circle cx="1751" cy="501" r="14" fill="white" fill-opacity="0.308"/>
<path d="M1747.63 492.964L1751.49 503.869L1755.33 492.964H1759.4V508H1756.29V503.89L1756.6 496.795L1752.54 508H1750.42L1746.37 496.806L1746.68 503.89V508H1743.58V492.964H1747.63Z" fill="white"/>
<rect x="1391" y="565" width="23" height="3" rx="1.5" transform="rotate(-90 1391 565)" fill="white" fill-opacity="0.216"/>
<path d="M1500 470C1500 467.791 1498.21 466 1496 466H1495V522H1496C1498.21 522 1500 520.209 1500 518V470Z" fill="#87F2C5"/>
</g>
<defs>
<filter id="filter0_f" x="1542" y="219" width="74" height="255" filterUnits="userSpaceOnUse" color-interpolation-filters="sRGB">
<feFlood flood-opacity="0" result="BackgroundImageFix"/>
<feBlend mode="normal" in="SourceGraphic" in2="BackgroundImageFix" result="shape"/>
<feGaussianBlur stdDeviation="4" result="effect1_foregroundBlur"/>
</filter>
<linearGradient id="paint0_linear" x1="933.465" y1="620.767" x2="1241.9" y2="620.767" gradientUnits="userSpaceOnUse">
<stop offset="0.285751" stop-color="#F74364" stop-opacity="0.19"/>
<stop offset="1" stop-color="white" stop-opacity="0"/>
</linearGradient>
<clipPath id="clip0">
<rect width="1920" height="1004" fill="white"/>
</clipPath>
</defs>
</svg>
