<?xml version="1.0" standalone="no"?>
<!DOCTYPE svg PUBLIC "-//W3C//DTD SVG 20010904//EN"
 "http://www.w3.org/TR/2001/REC-SVG-20010904/DTD/svg10.dtd">
<svg version="1.0" xmlns="http://www.w3.org/2000/svg"
 width="700.000000pt" height="700.000000pt" viewBox="0 0 700.000000 700.000000"
 preserveAspectRatio="xMidYMid meet">
<metadata>
Created by potrace 1.11, written by Peter Selinger 2001-2013
</metadata>
<g transform="translate(0.000000,700.000000) scale(0.100000,-0.100000)"
fill="#000000" stroke="none">
<path d="M3419 6856 c-31 -19 -81 -48 -110 -64 -30 -17 -189 -108 -354 -202
-165 -95 -322 -185 -350 -200 -27 -15 -360 -205 -740 -423 -474 -271 -694
-402 -702 -418 -19 -35 -19 -2675 0 -2682 9 -4 9 -6 0 -6 -10 -1 -13 -283 -13
-1376 l0 -1375 38 19 c22 11 140 79 263 152 219 129 359 211 656 385 82 48
225 132 318 187 94 55 231 135 305 179 74 43 144 88 155 99 20 19 20 31 18
1712 -1 931 1 1697 5 1703 5 9 228 144 237 144 1 0 77 42 168 94 133 75 173
94 198 91 17 -2 151 -74 298 -159 147 -86 274 -158 282 -161 13 -5 15 -186 14
-1359 l0 -1354 20 10 c11 6 155 90 320 186 165 97 309 181 320 187 20 11 113
66 163 96 15 9 43 25 62 36 61 34 478 278 520 303 8 5 67 39 130 76 192 111
188 108 194 156 3 24 5 628 4 1343 -1 1275 -1 1300 -20 1319 -16 15 -284 176
-293 176 -2 0 -32 18 -66 40 -35 22 -73 44 -85 49 -11 5 -50 27 -85 48 -35 22
-89 53 -119 70 -86 48 -751 433 -790 458 -19 12 -154 91 -300 175 -146 84
-278 161 -295 170 -214 124 -264 150 -285 150 -14 -1 -50 -16 -81 -34z"/>
</g>
</svg>
